<?xml version="1.0" standalone="no"?>
<!DOCTYPE svg PUBLIC "-//W3C//DTD SVG 1.1//EN" "http://www.w3.org/Graphics/SVG/1.1/DTD/svg11.dtd" >
<svg xmlns="http://www.w3.org/2000/svg" xmlns:xlink="http://www.w3.org/1999/xlink" version="1.1">
<metadata>
Created by FontForge 20170731 at Thu Nov 12 05:28:44 2020
 By Aleksey,,,
Copyright 2015-2020 Google LLC. All Rights Reserved.
</metadata>
<defs>
<font id="NotoSansArabicExtraCondensed-Black" horiz-adv-x="0" >
  <font-face 
    font-family="Noto Sans Arabic ExtraCondensed Black"
    font-weight="900"
    font-stretch="extra-condensed"
    units-per-em="1000"
    panose-1="0 0 0 0 0 0 0 0 0 0"
    ascent="800"
    descent="-200"
    bbox="-220 -738 2366 1151"
    underline-thickness="50"
    underline-position="-175"
    unicode-range="U+000D-FEFC"
  />
<missing-glyph horiz-adv-x="600" 
d="M94 0v714h411v-714h-411zM145 51h309v612h-309v-612z" />
    <glyph glyph-name="uniFC43" unicode="&#xfedf;&#xfef0;" horiz-adv-x="1006" arabic-form="isolated" 
d="M706 -5l10 162q31 0 45.5 9t18 38t0.5 88l-19 468h173l21 -490q3 -61 -4 -111.5t-32 -87t-76 -56.5t-137 -20zM24 23q0 26 4 59t16 77t35 102l150 -50q-14 -39 -21.5 -67t-10 -49t-2.5 -39q0 -32 13.5 -55.5t37 -38.5t54 -22.5t65.5 -7.5q45 0 75.5 9.5t48.5 24.5
t25.5 30t7.5 25q0 6 -5.5 12.5t-19 14.5t-36.5 17.5t-58 22.5l41 146q37 -14 75 -28t74.5 -25t67.5 -17.5t55 -6.5q37 0 56 -23.5t19 -55.5q0 -38 -22.5 -60.5t-62.5 -22.5h-10h-10h-10q2 -9 2.5 -14.5t0.5 -16.5q0 -32 -21.5 -66t-63.5 -63t-104 -47t-143 -18
q-87 0 -160.5 28.5t-118 85t-44.5 139.5z" />
    <glyph glyph-name="uniFC86" unicode="&#xfee0;&#xfef0;" horiz-adv-x="1027" arabic-form="final" 
d="M706 -5l10 162q27 0 41 10t19 39t3 86l-15 468h173l17 -467q2 -58 8.5 -87.5t23.5 -39t51 -9.5q37 0 56 -23.5t19 -55.5q0 -38 -23.5 -60.5t-61.5 -22.5q-33 0 -71.5 11t-68.5 42t-39 89h59q-21 -53 -49.5 -84.5t-66 -44.5t-85.5 -13zM24 23q0 26 4 59t16 77t35 102
l150 -50q-14 -39 -21.5 -67t-10 -49t-2.5 -39q0 -32 13.5 -55.5t37 -38.5t54 -22.5t65.5 -7.5q45 0 75.5 9.5t48.5 24.5t25.5 30t7.5 25q0 6 -5.5 12.5t-19 14.5t-36.5 17.5t-58 22.5l41 146q37 -14 75 -28t74.5 -25t67.5 -17.5t55 -6.5q37 0 56 -23.5t19 -55.5
q0 -38 -22.5 -60.5t-62.5 -22.5h-10h-10h-10q2 -9 2.5 -14.5t0.5 -16.5q0 -32 -21.5 -66t-63.5 -63t-104 -47t-143 -18q-87 0 -160.5 28.5t-118 85t-44.5 139.5z" />
    <glyph glyph-name="uniFD82" unicode="&#xfee0;&#xfea4;&#xfef0;" horiz-adv-x="1619" arabic-form="final" 
d="M1298 -5l10 162q27 0 41 10t19 39t3 86l-15 468h173l17 -467q2 -58 8.5 -87.5t23.5 -39t51 -9.5q37 0 56 -23.5t19 -55.5q0 -38 -23.5 -60.5t-61.5 -22.5q-33 0 -71.5 11t-68.5 42t-39 89h59q-21 -53 -49.5 -84.5t-66 -44.5t-85.5 -13zM1298 -5q-27 0 -55 8.5t-54.5 27.5
t-48.5 51t-37 79l92 72q13 -30 33 -46.5t41.5 -23t38.5 -6.5q37 0 56 -23.5t19 -55.5q0 -38 -23 -60.5t-62 -22.5zM706 -5l10 162q39 0 85.5 6.5t95 19.5t95 34.5t86.5 51.5q-33 14 -64 22.5t-61.5 13t-64.5 4.5q-16 0 -32 -1t-32.5 -3.5t-34.5 -6.5l-28 170q30 8 57 11.5
t60 3.5q58 0 103.5 -12t81 -29t64.5 -34.5t55 -29.5t51 -12h30l21 -146q-34 -5 -65 -23t-64 -44t-73.5 -53t-93 -51t-121.5 -39t-161 -15zM24 23q0 26 4 59t16 77t35 102l150 -50q-14 -39 -21.5 -67t-10 -49t-2.5 -39q0 -32 13.5 -55.5t37 -38.5t54 -22.5t65.5 -7.5
q45 0 75.5 9.5t48.5 24.5t25.5 30t7.5 25q0 6 -5.5 12.5t-19 14.5t-36.5 17.5t-58 22.5l41 146q37 -14 75 -28t74.5 -25t67.5 -17.5t55 -6.5q37 0 56 -23.5t19 -55.5q0 -38 -22.5 -60.5t-62.5 -22.5h-10h-10h-10q2 -9 2.5 -14.5t0.5 -16.5q0 -32 -21.5 -66t-63.5 -63
t-104 -47t-143 -18q-87 0 -160.5 28.5t-118 85t-44.5 139.5z" />
    <glyph glyph-name="uniFDF2" unicode="&#x627;&#xfedf;&#xfee0;&#xfeea;" horiz-adv-x="1425" arabic-form="isolated" 
d="M536 -5q-42 0 -78 9t-64.5 28.5t-47.5 50.5q-60 -10 -117 -5t-103.5 27.5t-73.5 64.5t-27 105q0 75 37 130t99.5 92.5t137.5 58.5l-4 78h167l17 -380q2 -39 8.5 -60t20.5 -29t38 -8q22 0 34 10t16.5 39t2.5 86l-11 355h173l13 -354q2 -58 8 -87.5t22.5 -39t47.5 -9.5
q28 0 41.5 9t17 38t0.5 88l-19 468h173l21 -490q3 -61 -4 -111.5t-31.5 -87t-74.5 -56.5t-134 -20q-24 0 -52 6.5t-54 22.5t-45 46q-29 -41 -68 -58t-87 -17zM313 235l-7 155q-31 -7 -57.5 -21.5t-42.5 -34.5t-16 -46q0 -17 10 -29t27.5 -19t39.5 -8t46 3zM1199 0l-21 760
h172l21 -760h-172zM565 731q-42 0 -55 27.5t-13 66.5q0 11 1.5 21.5t4.5 25.5l65 13q-2 -16 -3.5 -29t-1.5 -23q0 -17 4 -23.5t11 -6.5q11 0 16 13.5t6 53.5v28l54 16v-55q0 -16 4 -22.5t13 -6.5q11 0 14.5 9t3.5 23q0 16 -4 31.5t-9 31.5l61 13q9 -18 15 -40t6 -40
q0 -42 -18 -69.5t-62 -27.5q-21 0 -40.5 17.5t-19.5 51.5l21 -8q0 -45 -23 -68t-51 -23zM569 961l-5 157h105l5 -157h-105z" />
    <glyph glyph-name="uniFEF5" unicode="&#xfedf;&#xfe82;" horiz-adv-x="689" arabic-form="isolated" 
d="M362 560q0 18 -3.5 50.5t-8.5 65.5t-9 54l155 20q4 -20 8 -51t7 -65t3 -66q0 -55 -2.5 -108.5t-17 -97t-52.5 -70.5l-22 -16q-34 -34 -79 -69.5t-87 -61.5h114q20 0 32 5.5t17.5 15.5t5.5 21q0 19 -29.5 53.5t-83 79.5t-125 95t-155.5 100l77 131q124 -74 207.5 -134.5
t135 -110.5t78.5 -91.5t36.5 -77.5t9.5 -69q0 -25 -10 -53t-32 -53t-57.5 -41t-86.5 -16h-290v187q97 68 155 129.5t83.5 121t25.5 122.5zM214 704q-30 0 -54 9.5t-43.5 19t-37.5 9.5q-17 0 -31.5 -8.5t-29.5 -23.5l-48 55q28 35 54.5 51t54.5 16q25 0 46 -9t43 -18.5
t46 -9.5q14 0 28 5t33 17l36 -67q-35 -31 -59 -38.5t-38 -7.5z" />
    <glyph glyph-name="uniFEF6" unicode="&#xfee0;&#xfe82;" horiz-adv-x="670" arabic-form="final" 
d="M664 -5q-71 0 -122 20.5t-83 55.5t-47.5 78.5t-17.5 89.5l-16 521h164l21 -489q2 -47 15 -72t36.5 -33.5t55.5 -8.5q35 0 60 -18.5t25 -59.5q0 -37 -26 -60.5t-65 -23.5zM140 -5q-32 0 -55.5 3t-49.5 8l19 167q70 -10 131 -7.5t107 26.5t72 78.5t26 148.5l62 -185
q-6 -28 -16 -61t-28.5 -64.5t-51.5 -57t-85.5 -41t-130.5 -15.5zM304 138q-17 29 -38 65t-51 82t-75 102t-110 124l113 112q44 -53 86 -108.5t78 -107.5t61.5 -95.5t35.5 -72.5zM214 704q-30 0 -54 9.5t-43.5 19t-37.5 9.5q-17 0 -31.5 -8.5t-29.5 -23.5l-48 55
q28 35 54.5 51t54.5 16q25 0 46 -9t43 -18.5t46 -9.5q14 0 28 5t33 17l36 -67q-35 -31 -59 -38.5t-38 -7.5z" />
    <glyph glyph-name="uniFEF7" unicode="&#xfedf;&#xfe84;" horiz-adv-x="628" arabic-form="isolated" 
d="M362 560q0 18 -3.5 50.5t-8.5 65.5t-9 54l155 20q4 -20 8 -51t7 -65t3 -66q0 -55 -2.5 -108.5t-17 -97t-52.5 -70.5l-22 -16q-34 -34 -79 -69.5t-87 -61.5h114q20 0 32 5.5t17.5 15.5t5.5 21q0 19 -29.5 53.5t-83 79.5t-125 95t-155.5 100l77 131q124 -74 207.5 -134.5
t135 -110.5t78.5 -91.5t36.5 -77.5t9.5 -69q0 -25 -10 -53t-32 -53t-57.5 -41t-86.5 -16h-290v187q97 68 155 129.5t83.5 121t25.5 122.5zM37 685l-17 67q37 6 54 9.5t35 8.5l-17 -29q-24 8 -45 33t-21 57q0 35 15.5 56t39 30.5t48.5 9.5q16 0 28.5 -2t22.5 -5l-7 -64
q-9 2 -18.5 3.5t-20.5 1.5q-18 0 -27.5 -7.5t-9.5 -21.5q0 -17 11 -29t25.5 -19t24.5 -8l-41 -4q24 7 46 14t42 14l20 -65q-24 -8 -55 -17.5t-65 -18t-68 -14.5z" />
    <glyph glyph-name="uniFEF8" unicode="&#xfee0;&#xfe84;" horiz-adv-x="670" arabic-form="final" 
d="M664 -5q-71 0 -122 20.5t-83 55.5t-47.5 78.5t-17.5 89.5l-16 521h164l21 -489q2 -47 15 -72t36.5 -33.5t55.5 -8.5q35 0 60 -18.5t25 -59.5q0 -37 -26 -60.5t-65 -23.5zM140 -5q-32 0 -55.5 3t-49.5 8l19 167q70 -10 131 -7.5t107 26.5t72 78.5t26 148.5l62 -185
q-6 -28 -16 -61t-28.5 -64.5t-51.5 -57t-85.5 -41t-130.5 -15.5zM304 138q-17 29 -38 65t-51 82t-75 102t-110 124l113 112q44 -53 86 -108.5t78 -107.5t61.5 -95.5t35.5 -72.5zM51 685l-17 67q37 6 54 9.5t35 8.5l-17 -29q-24 8 -45 33t-21 57q0 35 15.5 56t39 30.5
t48.5 9.5q16 0 28.5 -2t22.5 -5l-7 -64q-9 2 -18.5 3.5t-20.5 1.5q-18 0 -27.5 -7.5t-9.5 -21.5q0 -17 11 -29t25.5 -19t24.5 -8l-41 -4q24 7 46 14t42 14l20 -65q-24 -8 -55 -17.5t-65 -18t-68 -14.5z" />
    <glyph glyph-name="uniFEF9" unicode="&#xfedf;&#xfe88;" horiz-adv-x="628" arabic-form="isolated" 
d="M362 560q0 18 -3.5 50.5t-8.5 65.5t-9 54l155 20q4 -20 8 -51t7 -65t3 -66q0 -55 -2.5 -108.5t-17 -97t-52.5 -70.5l-22 -16q-34 -34 -79 -69.5t-87 -61.5h114q20 0 32 5.5t17.5 15.5t5.5 21q0 19 -29.5 53.5t-83 79.5t-125 95t-155.5 100l77 131q124 -74 207.5 -134.5
t135 -110.5t78.5 -91.5t36.5 -77.5t9.5 -69q0 -25 -10 -53t-32 -53t-57.5 -41t-86.5 -16h-290v187q97 68 155 129.5t83.5 121t25.5 122.5zM94 -301l-17 67q37 6 54 9.5t35 8.5l-17 -29q-24 8 -45 33t-21 57q0 35 15.5 56t39 30.5t48.5 9.5q16 0 28.5 -2t22.5 -5l-7 -64
q-9 2 -18.5 3.5t-20.5 1.5q-18 0 -27.5 -7.5t-9.5 -21.5q0 -17 11 -29t25.5 -19t24.5 -8l-41 -4q24 7 46 14t42 14l20 -65q-24 -8 -55 -17.5t-65 -18t-68 -14.5z" />
    <glyph glyph-name="uniFEFA" unicode="&#xfee0;&#xfe88;" horiz-adv-x="670" arabic-form="final" 
d="M664 -5q-71 0 -122 20.5t-83 55.5t-47.5 78.5t-17.5 89.5l-16 521h164l21 -489q2 -47 15 -72t36.5 -33.5t55.5 -8.5q35 0 60 -18.5t25 -59.5q0 -37 -26 -60.5t-65 -23.5zM140 -5q-32 0 -55.5 3t-49.5 8l19 167q70 -10 131 -7.5t107 26.5t72 78.5t26 148.5l62 -185
q-6 -28 -16 -61t-28.5 -64.5t-51.5 -57t-85.5 -41t-130.5 -15.5zM304 138q-17 29 -38 65t-51 82t-75 102t-110 124l113 112q44 -53 86 -108.5t78 -107.5t61.5 -95.5t35.5 -72.5zM94 -301l-17 67q37 6 54 9.5t35 8.5l-17 -29q-24 8 -45 33t-21 57q0 35 15.5 56t39 30.5
t48.5 9.5q16 0 28.5 -2t22.5 -5l-7 -64q-9 2 -18.5 3.5t-20.5 1.5q-18 0 -27.5 -7.5t-9.5 -21.5q0 -17 11 -29t25.5 -19t24.5 -8l-41 -4q24 7 46 14t42 14l20 -65q-24 -8 -55 -17.5t-65 -18t-68 -14.5z" />
    <glyph glyph-name="uniFEFB" unicode="&#xfedf;&#xfe8e;" horiz-adv-x="628" arabic-form="isolated" 
d="M362 560q0 18 -3.5 50.5t-8.5 65.5t-9 54l155 20q4 -20 8 -51t7 -65t3 -66q0 -55 -2.5 -108.5t-17 -97t-52.5 -70.5l-22 -16q-34 -34 -79 -69.5t-87 -61.5h114q20 0 32 5.5t17.5 15.5t5.5 21q0 19 -29.5 53.5t-83 79.5t-125 95t-155.5 100l77 131q124 -74 207.5 -134.5
t135 -110.5t78.5 -91.5t36.5 -77.5t9.5 -69q0 -25 -10 -53t-32 -53t-57.5 -41t-86.5 -16h-290v187q97 68 155 129.5t83.5 121t25.5 122.5z" />
    <glyph glyph-name="uniFEFC" unicode="&#xfee0;&#xfe8e;" horiz-adv-x="670" arabic-form="final" 
d="M664 -5q-71 0 -122 20.5t-83 55.5t-47.5 78.5t-17.5 89.5l-16 521h164l21 -489q2 -47 15 -72t36.5 -33.5t55.5 -8.5q35 0 60 -18.5t25 -59.5q0 -37 -26 -60.5t-65 -23.5zM140 -5q-32 0 -55.5 3t-49.5 8l19 167q70 -10 131 -7.5t107 26.5t72 78.5t26 148.5l62 -185
q-6 -28 -16 -61t-28.5 -64.5t-51.5 -57t-85.5 -41t-130.5 -15.5zM304 138q-17 29 -38 65t-51 82t-75 102t-110 124l113 112q44 -53 86 -108.5t78 -107.5t61.5 -95.5t35.5 -72.5z" />
    <glyph glyph-name="lam_alefMaksura_meemar" unicode="&#xfedf;&#xfbe9;&#xfee2;" horiz-adv-x="1213" 
d="M913 -5l10 162q31 0 45.5 9t18 38t0.5 88l-19 468h173l21 -490q3 -61 -4 -111.5t-32 -87t-76 -56.5t-137 -20zM628 -5l10 162q19 0 32.5 7t21.5 24t8 46q0 34 -7 77.5t-17.5 87.5t-21.5 78l155 43q12 -35 24.5 -83t21 -101.5t8.5 -107.5q0 -63 -16.5 -105t-43.5 -67.5
t-59 -38.5t-62.5 -17.5t-53.5 -4.5zM82 -393q-23 81 -38 156.5t-22 133.5t-7 86q0 104 27.5 183t71.5 135t94.5 91t97.5 51.5t80 16.5q44 0 69.5 -25t42 -63t33.5 -78q22 -52 40.5 -82t34.5 -42.5t32 -12.5q37 0 56 -23.5t19 -55.5q0 -36 -23.5 -59.5t-61.5 -23.5
q-37 0 -72.5 17t-72.5 60l28 19q-11 -30 -28 -55t-43 -39.5t-65 -14.5q-21 0 -48.5 6t-58 22.5t-60.5 47.5t-56 81l42 -10q-14 -29 -21 -70.5t-7 -73.5t5 -73t13.5 -86.5t19.5 -91t22 -86.5zM383 137q17 0 25 6.5t9 15t-2 15.5q-19 45 -30 71.5t-17.5 39.5t-10.5 17.5
t-9 4.5q-8 0 -23 -8t-31 -21t-28.5 -28t-15.5 -29l-6 47q9 -27 32 -57.5t52.5 -52t54.5 -21.5z" />
    <glyph glyph-name="lam_alefWaslaar" unicode="&#xfedf;&#xfb51;" horiz-adv-x="590" 
d="M138 701q-20 0 -48 2t-52.5 5t-37.5 5l7 68q13 -1 35.5 -3.5t48.5 -4.5t47 -2q49 0 64.5 11t15.5 25q0 16 -9 24t-21 8q-9 0 -22.5 -8t-27 -24.5t-23.5 -43.5l-81 1q10 31 31.5 64.5t53 57.5t72.5 24q42 0 70 -27.5t28 -70.5q0 -31 -12 -56t-44.5 -40t-94.5 -15zM362 560
q0 18 -3.5 50.5t-8.5 65.5t-9 54l155 20q4 -20 8 -51t7 -65t3 -66q0 -55 -2.5 -108.5t-17 -97t-52.5 -70.5l-22 -16q-34 -34 -79 -69.5t-87 -61.5h114q20 0 32 5.5t17.5 15.5t5.5 21q0 19 -29.5 53.5t-83 79.5t-125 95t-155.5 100l77 131q124 -74 207.5 -134.5t135 -110.5
t78.5 -91.5t36.5 -77.5t9.5 -69q0 -25 -10 -53t-32 -53t-57.5 -41t-86.5 -16h-290v187q97 68 155 129.5t83.5 121t25.5 122.5z" />
    <glyph glyph-name="lam_alefWaslaar.fina" unicode="&#xfee0;&#xfb51;" horiz-adv-x="771" 
d="M138 701q-20 0 -48 2t-52.5 5t-37.5 5l7 68q13 -1 35.5 -3.5t48.5 -4.5t47 -2q49 0 64.5 11t15.5 25q0 16 -9 24t-21 8q-9 0 -22.5 -8t-27 -24.5t-23.5 -43.5l-81 1q10 31 31.5 64.5t53 57.5t71.5 24q43 0 71 -27.5t28 -70.5q0 -31 -12 -56t-44.5 -40t-94.5 -15zM664 -5
q-71 0 -122 20.5t-83 55.5t-47.5 78.5t-17.5 89.5l-16 521h164l21 -489q2 -47 15 -72t36.5 -33.5t55.5 -8.5q35 0 60 -18.5t25 -59.5q0 -37 -26 -60.5t-65 -23.5zM140 -5q-32 0 -55.5 3t-49.5 8l19 167q70 -10 131 -7.5t107 26.5t72 78.5t26 148.5l62 -185q-6 -28 -16 -61
t-28.5 -64.5t-51.5 -57t-85.5 -41t-130.5 -15.5zM304 138q-17 29 -38 65t-51 82t-75 102t-110 124l113 112q44 -53 86 -108.5t78 -107.5t61.5 -95.5t35.5 -72.5z" />
    <glyph glyph-name="uni0620.init" unicode="&#x620;" horiz-adv-x="369" 
d="M0 -5l10 162q54 0 83.5 9t41 25.5t11.5 39.5q0 35 -7 79t-17.5 88.5t-21.5 78.5l155 43q12 -35 24.5 -82.5t21 -101t8.5 -105.5q0 -79 -26 -126.5t-70 -71t-99 -31t-114 -7.5zM224 -80q-36 0 -61.5 25.5t-25.5 62.5t25.5 62.5t62.5 25.5t62.5 -25.5t25.5 -62.5
t-25.5 -62.5t-63.5 -25.5zM225 -18q11 0 19.5 7.5t8.5 18.5q0 12 -8.5 19.5t-19.5 7.5t-19.5 -7.5t-8.5 -19.5q0 -11 8.5 -18.5t19.5 -7.5z" />
    <glyph glyph-name="uni0620.medi" unicode="&#x620;" horiz-adv-x="405" 
d="M0 -5l10 162q32 0 53 7t34.5 28.5t23 65.5t18.5 118l159 -26q-1 -14 -3.5 -32t-4.5 -38t-2 -39q0 -22 6.5 -38t21 -26t39 -15t60.5 -5q37 0 56 -23.5t19 -54.5q0 -39 -23 -61.5t-62 -22.5q-56 0 -96 9.5t-66.5 29.5t-41 50.5t-18.5 72.5h59q-18 -56 -46.5 -89t-62 -48.5
t-68 -20t-65.5 -4.5zM137 -97q-36 0 -61.5 25.5t-25.5 62.5t25.5 62.5t62.5 25.5t62.5 -25.5t25.5 -62.5t-25.5 -62.5t-63.5 -25.5zM138 -35q11 0 19.5 7.5t8.5 18.5q0 12 -8.5 19.5t-19.5 7.5t-19.5 -7.5t-8.5 -19.5q0 -11 8.5 -18.5t19.5 -7.5z" />
    <glyph glyph-name="uni0620.fina" unicode="&#x620;" horiz-adv-x="706" 
d="M348 -345q-37 0 -62.5 25.5t-25.5 62.5t25.5 62.5t62.5 25.5t62.5 -25.5t25.5 -62.5t-25.5 -62.5t-62.5 -25.5zM348 -283q11 0 19.5 7.5t8.5 18.5q0 12 -8.5 19.5t-19.5 7.5t-19.5 -8t-8.5 -19t8.5 -18.5t19.5 -7.5zM24 23q0 26 4 59t16 77t35 102l150 -50
q-14 -39 -21.5 -67t-10 -49t-2.5 -39q0 -32 13.5 -55.5t37 -38.5t54 -22.5t65.5 -7.5q45 0 75.5 9.5t48.5 24.5t25.5 30t7.5 25q0 6 -5.5 12.5t-19 14.5t-36.5 17.5t-58 22.5l41 146q37 -14 75 -28t74.5 -25t67.5 -17.5t55 -6.5q37 0 56 -23.5t19 -55.5q0 -38 -22.5 -60.5
t-62.5 -22.5h-10h-10h-10q2 -9 2.5 -14.5t0.5 -16.5q0 -32 -21.5 -66t-63.5 -63t-104 -47t-143 -18q-87 0 -160.5 28.5t-118 85t-44.5 139.5z" />
    <glyph glyph-name="uni063B.init" unicode="&#x63b;" horiz-adv-x="406" 
d="M227 727q-23 0 -38 15t-15 37q0 23 15 39t38 16q22 0 37 -16t15 -39q0 -22 -15 -37t-37 -15zM100 664q-22 0 -37.5 15t-15.5 37q0 23 15.5 39t37.5 16t37.5 -16t15.5 -39q0 -22 -15.5 -37t-37.5 -15zM0 -5l10 162h105q17 0 28.5 2t18 6t9.5 11t3 17q0 29 -17 60.5
t-40 61.5t-39 50t-25.5 33t-14 22.5t-4.5 17.5q0 15 2.5 37t7 42t11.5 27q17 18 40.5 38t56 43t76.5 50t103 60l83 -134q-55 -30 -95.5 -54t-70.5 -43.5t-51.5 -37t-38.5 -34.5l8 88q39 -42 72.5 -84t58.5 -83t39 -81t14 -79q0 -33 -12.5 -67.5t-41 -64t-76.5 -48
t-119 -18.5h-101z" />
    <glyph glyph-name="uni063B.medi" unicode="&#x63b;" horiz-adv-x="442" 
d="M227 727q-23 0 -38 15t-15 37q0 23 15 39t38 16q22 0 37 -16t15 -39q0 -22 -15 -37t-37 -15zM100 664q-22 0 -37.5 15t-15.5 37q0 23 15.5 39t37.5 16t37.5 -16t15.5 -39q0 -22 -15.5 -37t-37.5 -15zM0 -5l10 162h102q27 0 40.5 4t17.5 12.5t4 19.5q0 21 -10.5 45
t-26.5 48.5t-34.5 48t-34.5 44t-26.5 36t-10.5 23.5q0 15 2.5 37t7 42t11.5 27q17 18 41 38t57 43t77.5 50t103.5 60l83 -134q-57 -31 -99 -56t-73 -45.5t-53.5 -38.5t-39.5 -36l16 95q19 -26 42 -55.5t46.5 -63t45.5 -72.5t39 -85q15 -41 31 -59.5t36.5 -23t46.5 -4.5
q37 0 56 -23.5t19 -55.5q0 -36 -23.5 -59.5t-61.5 -23.5q-44 0 -79 12t-58 38.5t-33 71.5h59q-15 -29 -37 -52t-51.5 -38.5t-67.5 -23.5t-84 -8h-91z" />
    <glyph glyph-name="uni063B.fina" unicode="&#x63b;" horiz-adv-x="889" 
d="M637 727q-23 0 -38 15t-15 37q0 23 15 39t38 16q22 0 37 -16t15 -39q0 -22 -15 -37t-37 -15zM510 664q-22 0 -37.5 15t-15.5 37q0 23 15.5 39t37.5 16t37.5 -16t15.5 -39q0 -22 -15.5 -37t-37.5 -15zM394 -21l26 162q44 0 77.5 3.5t56.5 11t34.5 19.5t11.5 28
q0 18 -10 39t-26 44.5t-34.5 46t-34.5 43t-26 36t-10 23.5q0 15 2.5 37t7 42t11.5 27q20 24 54.5 52t89 63.5t132.5 78.5l83 -134q-73 -40 -121.5 -70t-80 -54.5t-54.5 -47.5l12 91q23 -26 47.5 -56t48.5 -64.5t45 -73t37 -82.5q9 -27 23 -44t31.5 -26.5t35.5 -13t36 -3.5
q37 0 56 -23.5t19 -55.5q0 -36 -23.5 -59.5t-61.5 -23.5q-43 0 -78 12t-59 38.5t-34 71.5h38q-20 -40 -53.5 -67t-79 -42.5t-103 -22t-126.5 -6.5zM394 -21q-103 0 -172.5 20t-111 54t-59 77t-17.5 89q0 40 7 77.5t17 70.5t19 58l141 -38q-5 -19 -10.5 -39.5t-9 -41
t-3.5 -41.5q0 -35 17 -63.5t65.5 -44.5t142.5 -16l20 -130z" />
    <glyph glyph-name="uni063C.init" unicode="&#x63c;" horiz-adv-x="406" 
d="M0 -5l10 162h105q17 0 28.5 2t18 6t9.5 11t3 17q0 29 -17 60.5t-40 61.5t-39 50t-25.5 33t-14 22.5t-4.5 17.5q0 15 2.5 37t7 42t11.5 27q17 18 40.5 38t56 43t76.5 50t103 60l83 -134q-55 -30 -95.5 -54t-70.5 -43.5t-51.5 -37t-38.5 -34.5l8 88q39 -42 72.5 -84
t58.5 -83t39 -81t14 -79q0 -33 -12.5 -67.5t-41 -64t-76.5 -48t-119 -18.5h-101zM186 -390q-31 0 -52 21t-21 52q0 30 21 52.5t52 22.5q30 0 51 -22.5t21 -52.5q0 -31 -21 -52t-51 -21zM99 -234q-31 0 -52 21t-21 52q0 30 21 52.5t52 22.5t52 -22.5t21 -52.5q0 -31 -21 -52
t-52 -21zM277 -234q-31 0 -52 21t-21 52q0 30 21 52.5t52 22.5q32 0 52.5 -22.5t20.5 -52.5q0 -31 -20.5 -52t-52.5 -21z" />
    <glyph glyph-name="uni063C.medi" unicode="&#x63c;" horiz-adv-x="442" 
d="M0 -5l10 162h102q27 0 40.5 4t17.5 12.5t4 19.5q0 21 -10.5 45t-26.5 48.5t-34.5 48t-34.5 44t-26.5 36t-10.5 23.5q0 15 2.5 37t7 42t11.5 27q17 18 41 38t57 43t77.5 50t103.5 60l83 -134q-57 -31 -99 -56t-73 -45.5t-53.5 -38.5t-39.5 -36l16 95q19 -26 42 -55.5
t46.5 -63t45.5 -72.5t39 -85q15 -41 31 -59.5t36.5 -23t46.5 -4.5q37 0 56 -23.5t19 -55.5q0 -36 -23.5 -59.5t-61.5 -23.5q-44 0 -79 12t-58 38.5t-33 71.5h59q-15 -29 -37 -52t-51.5 -38.5t-67.5 -23.5t-84 -8h-91zM176 -390q-31 0 -52 21t-21 52q0 30 21 52.5t52 22.5
q30 0 51 -22.5t21 -52.5q0 -31 -21 -52t-51 -21zM89 -234q-31 0 -52 21t-21 52q0 30 21 52.5t52 22.5t52 -22.5t21 -52.5q0 -31 -21 -52t-52 -21zM267 -234q-31 0 -52 21t-21 52q0 30 21 52.5t52 22.5q32 0 52.5 -22.5t20.5 -52.5q0 -31 -20.5 -52t-52.5 -21z" />
    <glyph glyph-name="uni063C.fina" unicode="&#x63c;" horiz-adv-x="889" 
d="M394 -21l26 162q44 0 77.5 3.5t56.5 11t34.5 19.5t11.5 28q0 18 -10 39t-26 44.5t-34.5 46t-34.5 43t-26 36t-10 23.5q0 15 2.5 37t7 42t11.5 27q20 24 54.5 52t89 63.5t132.5 78.5l83 -134q-73 -40 -121.5 -70t-80 -54.5t-54.5 -47.5l12 91q23 -26 47.5 -56t48.5 -64.5
t45 -73t37 -82.5q9 -27 23 -44t31.5 -26.5t35.5 -13t36 -3.5q37 0 56 -23.5t19 -55.5q0 -36 -23.5 -59.5t-61.5 -23.5q-43 0 -78 12t-59 38.5t-34 71.5h38q-20 -40 -53.5 -67t-79 -42.5t-103 -22t-126.5 -6.5zM394 -21q-103 0 -172.5 20t-111 54t-59 77t-17.5 89
q0 40 7 77.5t17 70.5t19 58l141 -38q-5 -19 -10.5 -39.5t-9 -41t-3.5 -41.5q0 -35 17 -63.5t65.5 -44.5t142.5 -16l20 -130zM407 -411q-31 0 -52 21t-21 52q0 30 21 52.5t52 22.5q30 0 51 -22.5t21 -52.5q0 -31 -21 -52t-51 -21zM320 -255q-31 0 -52 21t-21 52q0 30 21 52.5
t52 22.5t52 -22.5t21 -52.5q0 -31 -21 -52t-52 -21zM498 -255q-31 0 -52 21t-21 52q0 30 21 52.5t52 22.5q32 0 52.5 -22.5t20.5 -52.5q0 -31 -20.5 -52t-52.5 -21z" />
    <glyph glyph-name="uni063D.init" unicode="&#x63d;" horiz-adv-x="285" 
d="M0 -5l10 162q19 0 32.5 7t21.5 24t8 46q0 34 -7 77.5t-17.5 87.5t-21.5 78l155 43q12 -35 24.5 -83t21 -101.5t8.5 -107.5q0 -63 -16.5 -105t-43.5 -67.5t-59 -38.5t-62.5 -17.5t-53.5 -4.5zM141 816q6 -16 15 -39.5t19.5 -50.5t20 -52t17.5 -43l-60 -23q-5 13 -13 34.5
t-17.5 46t-18.5 46.5t-17 35l-19 41zM68 811l51 -19q-4 -16 -11.5 -42t-16 -55t-16 -53.5t-11.5 -37.5l-60 17l13.5 40.5t18.5 54.5t19 54.5t13 40.5zM201 -237q-31 0 -51.5 21t-20.5 52t20.5 52t51.5 21t53 -21t22 -52t-22 -52t-53 -21zM24 -237q-32 0 -53 21t-21 52t21 52
t52 21q30 0 52 -21t22 -52t-21.5 -52t-51.5 -21z" />
    <glyph glyph-name="uni063D.medi" unicode="&#x63d;" horiz-adv-x="325" 
d="M0 -5l10 162q20 0 35 7t26 28.5t19.5 65.5t17.5 118l159 -26q-1 -14 -3.5 -32t-4.5 -38t-2 -39q0 -29 9.5 -48t27 -27.5t41.5 -8.5q37 0 56 -23.5t19 -55.5q0 -38 -23 -60.5t-62 -22.5q-50 0 -87 17t-58.5 53t-27.5 92h59q-18 -56 -45.5 -89t-58.5 -48.5t-59.5 -20
t-47.5 -4.5zM199 727q6 -16 15 -39.5t19.5 -50.5t20 -52t17.5 -43l-60 -23q-5 13 -13 34.5t-17.5 46t-18.5 46.5t-17 35l-19 41zM126 722l51 -19q-4 -16 -11.5 -42t-16 -55t-16 -53.5t-11.5 -37.5l-60 17l13.5 40.5t18.5 54.5t19 54.5t13 40.5zM239 -237q-31 0 -51.5 21
t-20.5 52t20.5 52t51.5 21t53 -21t22 -52t-22 -52t-53 -21zM62 -237q-32 0 -53 21t-21 52t21 52t52 21q30 0 52 -21t22 -52t-21.5 -52t-51.5 -21z" />
    <glyph glyph-name="uni063D.fina" unicode="&#x63d;" horiz-adv-x="706" 
d="M24 23q0 26 4 59t16 77t35 102l150 -50q-14 -39 -21.5 -67t-10 -49t-2.5 -39q0 -32 13.5 -55.5t37 -38.5t54 -22.5t65.5 -7.5q45 0 75.5 9.5t48.5 24.5t25.5 30t7.5 25q0 6 -5.5 12.5t-19 14.5t-36.5 17.5t-58 22.5l41 146q37 -14 75 -28t74.5 -25t67.5 -17.5t55 -6.5
q37 0 56 -23.5t19 -55.5q0 -38 -22.5 -60.5t-62.5 -22.5h-10h-10h-10q2 -9 2.5 -14.5t0.5 -16.5q0 -32 -21.5 -66t-63.5 -63t-104 -47t-143 -18q-87 0 -160.5 28.5t-118 85t-44.5 139.5zM239 521q6 -16 15 -39.5t19.5 -50.5t20 -52t17.5 -43l-60 -23q-5 13 -13 34.5
t-17.5 46t-18.5 46.5t-17 35l-19 41zM166 516l51 -19q-4 -16 -11.5 -42t-16 -55t-16 -53.5t-11.5 -37.5l-60 17l13.5 40.5t18.5 54.5t19 54.5t13 40.5z" />
    <glyph glyph-name="uni063E.init" unicode="&#x63e;" horiz-adv-x="369" 
d="M0 -5l10 162q54 0 83.5 9t41 25.5t11.5 39.5q0 35 -7 79t-17.5 88.5t-21.5 78.5l155 43q12 -35 24.5 -82.5t21 -101t8.5 -105.5q0 -79 -26 -126.5t-70 -71t-99 -31t-114 -7.5zM268 614q-31 0 -51.5 21.5t-20.5 51.5q0 32 20.5 52.5t51.5 20.5t53 -20.5t22 -52.5
q0 -30 -22 -51.5t-53 -21.5zM90 614q-31 0 -52 21.5t-21 51.5q0 32 21 52.5t52 20.5q30 0 52 -20.5t22 -52.5q0 -30 -22 -51.5t-52 -21.5zM269 -237q-31 0 -51.5 21t-20.5 52t20.5 52t51.5 21t53 -21t22 -52t-22 -52t-53 -21zM91 -237q-31 0 -52 21t-21 52t21 52t52 21
q30 0 52 -21t22 -52t-22 -52t-52 -21z" />
    <glyph glyph-name="uni063E.medi" unicode="&#x63e;" horiz-adv-x="405" 
d="M0 -5l10 162q32 0 53 7t34.5 28.5t23 65.5t18.5 118l159 -26q-1 -14 -3.5 -32t-4.5 -38t-2 -39q0 -22 6.5 -38t21 -26t39 -15t60.5 -5q37 0 56 -23.5t19 -54.5q0 -39 -23 -61.5t-62 -22.5q-56 0 -96 9.5t-66.5 29.5t-41 50.5t-18.5 72.5h59q-18 -56 -46.5 -89t-62 -48.5
t-68 -20t-65.5 -4.5zM331 505q-31 0 -51.5 21.5t-20.5 51.5q0 32 20.5 52.5t51.5 20.5t53 -20.5t22 -52.5q0 -30 -22 -51.5t-53 -21.5zM153 505q-31 0 -52 21.5t-21 51.5q0 32 21 52.5t52 20.5q30 0 52 -20.5t22 -52.5q0 -30 -22 -51.5t-52 -21.5zM279 -237q-31 0 -51.5 21
t-20.5 52t20.5 52t51.5 21t53 -21t22 -52t-22 -52t-53 -21zM101 -237q-31 0 -52 21t-21 52t21 52t52 21q30 0 52 -21t22 -52t-22 -52t-52 -21z" />
    <glyph glyph-name="uni063E.fina" unicode="&#x63e;" horiz-adv-x="706" 
d="M24 23q0 26 4 59t16 77t35 102l150 -50q-14 -39 -21.5 -67t-10 -49t-2.5 -39q0 -32 13.5 -55.5t37 -38.5t54 -22.5t65.5 -7.5q45 0 75.5 9.5t48.5 24.5t25.5 30t7.5 25q0 6 -5.5 12.5t-19 14.5t-36.5 17.5t-58 22.5l41 146q37 -14 75 -28t74.5 -25t67.5 -17.5t55 -6.5
q37 0 56 -23.5t19 -55.5q0 -38 -22.5 -60.5t-62.5 -22.5h-10h-10h-10q2 -9 2.5 -14.5t0.5 -16.5q0 -32 -21.5 -66t-63.5 -63t-104 -47t-143 -18q-87 0 -160.5 28.5t-118 85t-44.5 139.5zM330 398q-31 0 -51.5 21.5t-20.5 51.5q0 32 20.5 52.5t51.5 20.5t53 -20.5t22 -52.5
q0 -30 -22 -51.5t-53 -21.5zM153 398q-32 0 -53 21.5t-21 51.5q0 32 21 52.5t52 20.5q30 0 52 -20.5t22 -52.5q0 -30 -21.5 -51.5t-51.5 -21.5z" />
    <glyph glyph-name="uni063F.init" unicode="&#x63f;" horiz-adv-x="369" 
d="M0 -5l10 162q54 0 83.5 9t41 25.5t11.5 39.5q0 35 -7 79t-17.5 88.5t-21.5 78.5l155 43q12 -35 24.5 -82.5t21 -101t8.5 -105.5q0 -79 -26 -126.5t-70 -71t-99 -31t-114 -7.5zM187 760q-32 0 -53 21.5t-21 50.5q0 31 21 53t53 22q31 0 52.5 -22t21.5 -53
q0 -29 -21.5 -50.5t-52.5 -21.5zM102 603q-31 0 -53.5 23t-22.5 53q0 29 22.5 52t53.5 23q29 0 50.5 -23t21.5 -52q0 -30 -21.5 -53t-50.5 -23zM275 603q-30 0 -50 23t-20 53q0 29 20 52t50 23q31 0 53 -23t22 -52q0 -30 -22 -53t-53 -23zM269 -237q-31 0 -51.5 21t-20.5 52
t20.5 52t51.5 21t53 -21t22 -52t-22 -52t-53 -21zM92 -237q-32 0 -53 21t-21 52t21 52t52 21q30 0 52 -21t22 -52t-21.5 -52t-51.5 -21z" />
    <glyph glyph-name="uni063F.medi" unicode="&#x63f;" horiz-adv-x="405" 
d="M0 -5l10 162q32 0 53 7t34.5 28.5t23 65.5t18.5 118l159 -26q-1 -14 -3.5 -32t-4.5 -38t-2 -39q0 -22 6.5 -38t21 -26t39 -15t60.5 -5q37 0 56 -23.5t19 -54.5q0 -39 -23 -61.5t-62 -22.5q-56 0 -96 9.5t-66.5 29.5t-41 50.5t-18.5 72.5h59q-18 -56 -46.5 -89t-62 -48.5
t-68 -20t-65.5 -4.5zM227 661q-32 0 -53 21.5t-21 50.5q0 31 21 53t53 22q31 0 52.5 -22t21.5 -53q0 -29 -21.5 -50.5t-52.5 -21.5zM142 504q-31 0 -53.5 23t-22.5 53q0 29 22.5 52t53.5 23q29 0 50.5 -23t21.5 -52q0 -30 -21.5 -53t-50.5 -23zM315 504q-30 0 -50 23t-20 53
q0 29 20 52t50 23q31 0 53 -23t22 -52q0 -30 -22 -53t-53 -23zM279 -237q-31 0 -51.5 21t-20.5 52t20.5 52t51.5 21t53 -21t22 -52t-22 -52t-53 -21zM101 -237q-31 0 -52 21t-21 52t21 52t52 21q30 0 52 -21t22 -52t-22 -52t-52 -21z" />
    <glyph glyph-name="uni063F.fina" unicode="&#x63f;" horiz-adv-x="706" 
d="M24 23q0 26 4 59t16 77t35 102l150 -50q-14 -39 -21.5 -67t-10 -49t-2.5 -39q0 -32 13.5 -55.5t37 -38.5t54 -22.5t65.5 -7.5q45 0 75.5 9.5t48.5 24.5t25.5 30t7.5 25q0 6 -5.5 12.5t-19 14.5t-36.5 17.5t-58 22.5l41 146q37 -14 75 -28t74.5 -25t67.5 -17.5t55 -6.5
q37 0 56 -23.5t19 -55.5q0 -38 -22.5 -60.5t-62.5 -22.5h-10h-10h-10q2 -9 2.5 -14.5t0.5 -16.5q0 -32 -21.5 -66t-63.5 -63t-104 -47t-143 -18q-87 0 -160.5 28.5t-118 85t-44.5 139.5zM235 554q-32 0 -53 21.5t-21 50.5q0 31 21 53t53 22q31 0 52.5 -22t21.5 -53
q0 -29 -21.5 -50.5t-52.5 -21.5zM150 397q-31 0 -53.5 23t-22.5 53q0 29 22.5 52t53.5 23q29 0 50.5 -23t21.5 -52q0 -30 -21.5 -53t-50.5 -23zM323 397q-30 0 -50 23t-20 53q0 29 20 52t50 23q31 0 53 -23t22 -52q0 -30 -22 -53t-53 -23z" />
    <glyph glyph-name="uni066E.init" unicode="&#x66e;" horiz-adv-x="285" 
d="M0 -5l10 162q19 0 32.5 7t21.5 24t8 46q0 34 -7 77.5t-17.5 87.5t-21.5 78l155 43q12 -35 24.5 -83t21 -101.5t8.5 -107.5q0 -63 -16.5 -105t-43.5 -67.5t-59 -38.5t-62.5 -17.5t-53.5 -4.5z" />
    <glyph glyph-name="uni066E.medi" unicode="&#x66e;" horiz-adv-x="325" 
d="M0 -5l10 162q20 0 35 7t26 28.5t19.5 65.5t17.5 118l159 -26q-1 -14 -3.5 -32t-4.5 -38t-2 -39q0 -29 9.5 -48t27 -27.5t41.5 -8.5q37 0 56 -23.5t19 -55.5q0 -38 -23 -60.5t-62 -22.5q-50 0 -87 17t-58.5 53t-27.5 92h59q-18 -56 -45.5 -89t-58.5 -48.5t-59.5 -20
t-47.5 -4.5z" />
    <glyph glyph-name="uni066E.fina" unicode="&#x66e;" horiz-adv-x="1026" 
d="M418 -21l26 162q77 0 138 13.5t107.5 39.5t81.5 64t60 86l140 -65q-12 -26 -17 -41t-5 -26q0 -19 12.5 -31.5t32.5 -18t41 -5.5q38 0 57 -23.5t19 -55.5q0 -38 -23 -60.5t-62 -22.5q-54 0 -101 15.5t-74.5 52t-24.5 98.5l53 -4q-33 -45 -75.5 -78t-98.5 -55.5t-127 -33.5
t-160 -11zM418 -21q-103 0 -172.5 20t-111 54t-59 77t-17.5 89q0 40 7 77.5t17 70.5t19 58l141 -38q-5 -19 -10.5 -39.5t-9 -41t-3.5 -41.5q0 -35 17 -63.5t65.5 -44.5t142.5 -16l20 -130z" />
    <glyph glyph-name="uni066F.init" unicode="&#x66f;" horiz-adv-x="469" 
d="M0 -5l10 162h60t61 2t55.5 6t42.5 12q20 10 30.5 26.5t14 42.5t3.5 61q0 56 -5.5 90t-15 49.5t-23.5 15.5q-12 0 -20.5 -9.5t-12.5 -27t-4 -41.5q0 -16 5 -26.5t13.5 -16t20.5 -5.5q16 0 32.5 5t37.5 16l4 -112q-16 -13 -34.5 -23t-40 -15t-47.5 -5q-39 0 -72.5 18.5
t-53.5 54.5t-20 87q0 45 14 87t40.5 74.5t62.5 51.5t80 19q58 0 102 -36.5t69 -103.5t25 -161q0 -90 -24.5 -152t-81.5 -95q-30 -18 -68.5 -28t-81.5 -15t-88.5 -6.5t-89.5 -1.5z" />
    <glyph glyph-name="uni066F.medi" unicode="&#x66f;" horiz-adv-x="464" 
d="M0 -5l10 162q19 0 45 1t53.5 3t53.5 7t45 12q27 11 43.5 28.5t24 38.5t7.5 41q0 18 -6 33t-15.5 24.5t-19.5 9.5t-20 -8.5t-16.5 -24.5t-6.5 -38q0 -16 5.5 -34.5t19 -36t36.5 -30.5l-138 -58q-26 27 -44 53t-26.5 54.5t-8.5 62.5q0 44 17 81.5t45.5 65.5t65 43.5
t75.5 15.5q54 0 98 -29t69.5 -74t25.5 -95q0 -52 -16.5 -92.5t-43.5 -71t-59.5 -53.5t-65.5 -41q-26 -14 -60 -23.5t-70.5 -15.5t-68.5 -8.5t-54 -2.5zM464 -5q-38 0 -87 7.5t-96 20.5t-78 31l69 128q30 -12 68.5 -17.5t74.5 -6.5t59 -1q37 0 56 -23.5t19 -55.5
q0 -36 -23.5 -59.5t-61.5 -23.5z" />
    <glyph glyph-name="uni066F.fina" unicode="&#x66f;" horiz-adv-x="780" 
d="M329 -272q-58 0 -112.5 15t-98 47.5t-69 83t-25.5 120.5q0 28 4 58.5t16 71.5t36 100l149 -55q-14 -39 -21.5 -63.5t-10 -43t-2.5 -40.5q0 -39 19 -68.5t55 -46.5t86 -17q31 0 59.5 6.5t53 17.5t44 26t33.5 32.5t21 36.5q9 23 12 55.5t3 77.5q0 51 -6 81.5t-17 43.5
t-26 13q-9 0 -15 -6t-10.5 -16t-6.5 -21.5t-2 -23.5q0 -21 5 -35.5t23 -22t58 -7.5t110 9h96q37 0 56 -23.5t19 -55.5q0 -36 -21.5 -59.5t-63.5 -23.5h-164q-53 0 -102 8t-87.5 28t-61 55t-22.5 90q0 47 13.5 89.5t39.5 75.5t63 52t83 19q55 0 100 -35.5t71.5 -100.5
t26.5 -152q0 -58 -16 -110.5t-37 -90.5q-25 -46 -62.5 -82t-84.5 -61.5t-100.5 -38.5t-110.5 -13z" />
    <glyph glyph-name="uni0672.fina" unicode="&#x672;" horiz-adv-x="290" 
d="M290 -5q-79 0 -125.5 20t-67 61t-23.5 105l-19 493h169l19 -403q3 -52 9.5 -76t18 -31t29.5 -7q37 0 56 -23.5t19 -54.5q0 -39 -23 -61.5t-62 -22.5zM12 749l-57 40q11 25 31.5 36.5t36.5 11.5q19 0 35.5 -10t26.5 -10q14 0 25.5 0.5t19.5 4.5l-14 -23q-27 10 -44.5 35
t-17.5 55q0 41 29 66.5t74 25.5q15 0 28.5 -1.5t23.5 -5.5l-8 -64q-9 2 -17 4t-18 2q-20 0 -30.5 -7.5t-10.5 -21.5q0 -17 11.5 -30t27 -20t25.5 -7l-33 -3q24 6 41.5 13.5t34.5 14.5l21 -62q-7 -4 -25.5 -11t-41 -14.5t-43 -12.5t-32.5 -5q-28 0 -44 10t-25 10q-8 0 -15 -5
t-15 -16z" />
    <glyph glyph-name="uni0673.fina" unicode="&#x673;" horiz-adv-x="294" 
d="M294 -5q-79 0 -125.5 20t-67 61t-23.5 105l-23 579h169l23 -489q3 -52 9.5 -76t18 -31t29.5 -7q37 0 56 -23.5t19 -55.5q0 -38 -23 -60.5t-62 -22.5zM40 -309l-57 40q11 25 31.5 36.5t36.5 11.5q19 0 35.5 -10t26.5 -10q14 0 25.5 0.5t19.5 4.5l-14 -23q-27 10 -44.5 35
t-17.5 55q0 41 29 66.5t74 25.5q15 0 28.5 -1.5t23.5 -5.5l-8 -64q-9 2 -17 4t-18 2q-20 0 -30.5 -7.5t-10.5 -21.5q0 -17 11.5 -30t27 -20t25.5 -7l-33 -3q24 6 41.5 13.5t34.5 14.5l21 -62q-7 -4 -25.5 -11t-41 -14.5t-43 -12.5t-32.5 -5q-28 0 -44 10t-25 10q-8 0 -15 -5
t-15 -16z" />
    <glyph glyph-name="uni0675.fina" unicode="&#x675;" horiz-adv-x="534" 
d="M534 -5h-244q-77 0 -122.5 20t-66 61t-23.5 105l-23 579h169l23 -489q3 -49 9 -73.5t16.5 -32.5t26.5 -8h245q37 0 56 -23.5t19 -54.5q0 -39 -23 -61.5t-62 -22.5zM302 578l-18 74q41 6 59.5 10t38.5 9l-19 -31q-26 9 -49.5 36t-23.5 62q0 39 17 62t43.5 33.5t53.5 10.5
q17 0 31 -2t25 -6l-8 -70q-10 2 -20.5 4t-22.5 2q-19 0 -30 -9t-11 -23q0 -19 12 -32.5t28 -21t27 -8.5l-45 -4q27 7 51 14.5t46 15.5l22 -71q-26 -9 -60 -19.5t-71.5 -19.5t-75.5 -16z" />
    <glyph glyph-name="uni0676.fina" unicode="&#x676;" horiz-adv-x="490" 
d="M41 -230l-36 146q62 4 112.5 19t87.5 41.5t57 63.5t20 85q0 77 -10.5 121t-36.5 44q-12 0 -21 -12.5t-14 -32t-5 -40.5q0 -17 5.5 -28t18 -17t34.5 -6.5t55 3.5h192q37 0 56 -23.5t19 -55.5q0 -39 -19.5 -61t-65.5 -22h-208q-83 0 -137 22.5t-80 62.5t-26 95
q0 45 14.5 91t41.5 85.5t64.5 63t82.5 23.5q62 0 105.5 -42t66.5 -109.5t23 -145.5q0 -106 -50.5 -183t-140 -123.5t-205.5 -64.5zM348 449l-17 67q37 6 54 9.5t35 8.5l-17 -29q-24 8 -45 33t-21 57q0 35 15.5 56t39 30.5t48.5 9.5q16 0 28.5 -2t22.5 -5l-7 -64
q-9 2 -18.5 3.5t-20.5 1.5q-18 0 -27.5 -7.5t-9.5 -21.5q0 -17 11 -29t25.5 -19t24.5 -8l-41 -4q24 7 46 14t42 14l20 -65q-24 -8 -55 -17.5t-65 -18t-68 -14.5z" />
    <glyph glyph-name="uni0677.fina" unicode="&#x677;" horiz-adv-x="493" 
d="M44 -230l-36 146q62 4 112.5 19t87.5 41.5t57 63.5t20 85q0 77 -10.5 121t-36.5 44q-12 0 -21 -12.5t-14 -32t-5 -40.5q0 -17 5.5 -28t18 -17t34.5 -6.5t55 3.5h192q37 0 56 -23.5t19 -55.5q0 -39 -19.5 -61t-65.5 -22h-208q-83 0 -137 22.5t-80 62.5t-26 95
q0 45 14.5 91t41.5 85.5t64.5 63t82.5 23.5q62 0 105.5 -42t66.5 -109.5t23 -145.5q0 -106 -50.5 -183t-140 -123.5t-205.5 -64.5zM301 449l-17 67q37 6 54 9.5t35 8.5l-17 -29q-24 8 -45 33t-21 57q0 35 15.5 56t39 30.5t48.5 9.5q16 0 28.5 -2t22.5 -5l-7 -64
q-9 2 -18.5 3.5t-20.5 1.5q-18 0 -27.5 -7.5t-9.5 -21.5q0 -17 11 -29t25.5 -19t24.5 -8l-41 -4q24 7 46 14t42 14l20 -65q-24 -8 -55 -17.5t-65 -18t-68 -14.5zM17 441l-12 62q56 1 98 15.5t65 35.5t23 41q0 12 -7.5 22t-21.5 10q-12 0 -20.5 -8.5t-8.5 -22.5q0 -17 13 -29
t31 -21l-46 -38q-26 13 -45.5 36t-19.5 57q0 41 28 65.5t69 24.5q47 0 70.5 -28.5t23.5 -66.5q0 -42 -28 -75t-81.5 -54t-130.5 -26z" />
    <glyph glyph-name="uni0678.init" unicode="&#x678;" horiz-adv-x="390" 
d="M0 -5l10 162q19 0 32.5 7t21.5 24t8 46q0 34 -7 77.5t-17.5 87.5t-21.5 78l155 43q12 -35 24.5 -83t21 -101.5t8.5 -107.5q0 -63 -16.5 -105t-43.5 -67.5t-59 -38.5t-62.5 -17.5t-53.5 -4.5zM183 578l-18 74q41 6 59.5 10t38.5 9l-19 -31q-26 9 -49.5 36t-23.5 62
q0 39 17 62t43.5 33.5t53.5 10.5q17 0 31 -2t25 -6l-8 -70q-10 2 -20.5 4t-22.5 2q-19 0 -30 -9t-11 -23q0 -19 12 -32.5t28 -21t27 -8.5l-45 -4q27 7 51 14.5t46 15.5l22 -71q-26 -9 -60 -19.5t-71.5 -19.5t-75.5 -16z" />
    <glyph glyph-name="uni0678.medi" unicode="&#x678;" horiz-adv-x="325" 
d="M0 -5l10 162q20 0 35 7t26 28.5t19.5 65.5t17.5 118l159 -26q-1 -14 -3.5 -32t-4.5 -38t-2 -39q0 -29 9.5 -48t27 -27.5t41.5 -8.5q37 0 56 -23.5t19 -55.5q0 -38 -23 -60.5t-62 -22.5q-50 0 -87 17t-58.5 53t-27.5 92h59q-18 -56 -45.5 -89t-58.5 -48.5t-59.5 -20
t-47.5 -4.5zM142 409l-18 74q41 6 59.5 10t38.5 9l-19 -31q-26 9 -49.5 36t-23.5 62q0 39 17 62t43.5 33.5t53.5 10.5q17 0 31 -2t25 -6l-8 -70q-10 2 -20.5 4t-22.5 2q-19 0 -30 -9t-11 -23q0 -19 12 -32.5t28 -21t27 -8.5l-45 -4q27 7 51 14.5t46 15.5l22 -71
q-26 -9 -60 -19.5t-71.5 -19.5t-75.5 -16z" />
    <glyph glyph-name="uni0678.fina" unicode="&#x678;" horiz-adv-x="706" 
d="M24 23q0 26 4 59t16 77t35 102l150 -50q-14 -39 -21.5 -67t-10 -49t-2.5 -39q0 -32 13.5 -55.5t37 -38.5t54 -22.5t65.5 -7.5q45 0 75.5 9.5t48.5 24.5t25.5 30t7.5 25q0 6 -5.5 12.5t-19 14.5t-36.5 17.5t-58 22.5l41 146q37 -14 75 -28t74.5 -25t67.5 -17.5t55 -6.5
q37 0 56 -23.5t19 -55.5q0 -38 -22.5 -60.5t-62.5 -22.5h-10h-10h-10q2 -9 2.5 -14.5t0.5 -16.5q0 -32 -21.5 -66t-63.5 -63t-104 -47t-143 -18q-87 0 -160.5 28.5t-118 85t-44.5 139.5zM483 255l-18 74q41 6 59.5 10t38.5 9l-19 -31q-26 9 -49.5 36t-23.5 62q0 39 17 62
t43.5 33.5t53.5 10.5q17 0 31 -2t25 -6l-8 -70q-10 2 -20.5 4t-22.5 2q-19 0 -30 -9t-11 -23q0 -19 12 -32.5t28 -21t27 -8.5l-45 -4q27 7 51 14.5t46 15.5l22 -71q-26 -9 -60 -19.5t-71.5 -19.5t-75.5 -16z" />
    <glyph glyph-name="uni067C.init" unicode="&#x67c;" horiz-adv-x="369" 
d="M0 -5l10 162q54 0 83.5 9t41 25.5t11.5 39.5q0 35 -7 79t-17.5 88.5t-21.5 78.5l155 43q12 -35 24.5 -82.5t21 -101t8.5 -105.5q0 -79 -26 -126.5t-70 -71t-99 -31t-114 -7.5zM208 -95q-37 0 -62.5 25.5t-25.5 62.5t25.5 62.5t62.5 25.5t62.5 -25.5t25.5 -62.5t-26 -62.5
t-62 -25.5zM208 -33q11 0 19.5 7.5t8.5 18.5q0 12 -8.5 19.5t-19.5 7.5t-19.5 -7.5t-8.5 -19.5q0 -11 8.5 -18.5t19.5 -7.5zM272 604q-31 0 -51.5 21.5t-20.5 51.5q0 32 20.5 52.5t51.5 20.5t53 -20.5t22 -52.5q0 -30 -22 -51.5t-53 -21.5zM95 604q-32 0 -53 21.5t-21 51.5
q0 32 21 52.5t52 20.5q30 0 52 -20.5t22 -52.5q0 -30 -21.5 -51.5t-51.5 -21.5z" />
    <glyph glyph-name="uni067C.medi" unicode="&#x67c;" horiz-adv-x="325" 
d="M102 -101q-36 0 -61.5 25.5t-25.5 62.5t25.5 62.5t62.5 25.5t62.5 -25.5t25.5 -62.5t-25.5 -62.5t-63.5 -25.5zM103 -39q11 0 19.5 7.5t8.5 18.5q0 12 -8.5 19.5t-19.5 7.5t-19.5 -7.5t-8.5 -19.5q0 -11 8.5 -18.5t19.5 -7.5zM0 -5l10 162q20 0 35 7t26 28.5t19.5 65.5
t17.5 118l159 -26q-1 -14 -3.5 -32t-4.5 -38t-2 -39q0 -29 9.5 -48t27 -27.5t41.5 -8.5q37 0 56 -23.5t19 -54.5q0 -39 -23 -61.5t-62 -22.5q-50 0 -87 17t-58.5 53t-27.5 92h59q-18 -56 -45.5 -89t-58.5 -48.5t-59.5 -20t-47.5 -4.5zM276 505q-31 0 -51.5 21.5t-20.5 51.5
q0 32 20.5 52.5t51.5 20.5t53 -20.5t22 -52.5q0 -30 -22 -51.5t-53 -21.5zM98 505q-31 0 -52 21.5t-21 51.5q0 32 21 52.5t52 20.5q30 0 52 -20.5t22 -52.5q0 -30 -22 -51.5t-52 -21.5z" />
    <glyph glyph-name="uni067C.fina" unicode="&#x67c;" horiz-adv-x="1026" 
d="M548 -130q-37 0 -62.5 25.5t-25.5 62.5t25.5 62.5t62.5 25.5t62.5 -25.5t25.5 -62.5t-25.5 -62.5t-62.5 -25.5zM548 -68q11 0 19.5 7.5t8.5 18.5q0 12 -8.5 19.5t-19.5 7.5t-19.5 -8t-8.5 -19t8.5 -18.5t19.5 -7.5zM418 -21l26 162q77 0 138 13.5t107.5 39.5t81.5 64
t60 86l140 -65q-12 -26 -17 -41t-5 -26q0 -19 12.5 -31.5t32.5 -18t41 -5.5q38 0 57 -23.5t19 -54.5q0 -39 -23 -61.5t-62 -22.5q-54 0 -101 15.5t-74.5 52t-24.5 98.5l53 -4q-33 -45 -75.5 -78t-98.5 -55.5t-127 -33.5t-160 -11zM418 -21q-103 0 -172.5 20t-111 54t-59 77
t-17.5 89q0 40 7 77.5t17 70.5t19 58l141 -38q-5 -19 -10.5 -39.5t-9 -41t-3.5 -41.5q0 -35 17 -63.5t65.5 -44.5t142.5 -16l20 -130zM610 461q-31 0 -51.5 21.5t-20.5 51.5q0 32 20.5 52.5t51.5 20.5t53 -20.5t22 -51.5t-22 -52.5t-53 -21.5zM432 461q-31 0 -52 21.5
t-21 51.5q0 32 21 52.5t52 20.5q30 0 52 -20.5t22 -51.5t-22 -52.5t-52 -21.5z" />
    <glyph glyph-name="uni067D.init" unicode="&#x67d;" horiz-adv-x="369" 
d="M0 -5l10 162q54 0 83.5 9t41 25.5t11.5 39.5q0 35 -7 79t-17.5 88.5t-21.5 78.5l155 43q12 -35 24.5 -82.5t21 -101t8.5 -105.5q0 -79 -26 -126.5t-70 -71t-99 -31t-114 -7.5zM184 603q-31 0 -52 21.5t-21 51.5q0 31 21 53t52 22q30 0 51.5 -22t21.5 -53
q0 -30 -21.5 -51.5t-51.5 -21.5zM98 759q-31 0 -52 21t-21 52t21 53t52 22q30 0 51 -22t21 -53t-21 -52t-51 -21zM275 759q-30 0 -51 21t-21 52t21 53t51 22q32 0 52.5 -22t20.5 -53t-20.5 -52t-52.5 -21z" />
    <glyph glyph-name="uni067D.medi" unicode="&#x67d;" horiz-adv-x="405" 
d="M0 -5l10 162q32 0 53 7t34.5 28.5t23 65.5t18.5 118l159 -26q-1 -14 -3.5 -32t-4.5 -38t-2 -39q0 -22 6.5 -38t21 -26t39 -15t60.5 -5q37 0 56 -23.5t19 -54.5q0 -39 -23 -61.5t-62 -22.5q-56 0 -96 9.5t-66.5 29.5t-41 50.5t-18.5 72.5h59q-18 -56 -46.5 -89t-62 -48.5
t-68 -20t-65.5 -4.5zM224 504q-31 0 -52 21.5t-21 51.5q0 31 21 53t52 22q30 0 51.5 -22t21.5 -53q0 -30 -21.5 -51.5t-51.5 -21.5zM138 660q-31 0 -52 21t-21 52t21 53t52 22q30 0 51 -22t21 -53t-21 -52t-51 -21zM315 660q-30 0 -51 21t-21 52t21 53t51 22q32 0 52.5 -22
t20.5 -53t-20.5 -52t-52.5 -21z" />
    <glyph glyph-name="uni067D.fina" unicode="&#x67d;" horiz-adv-x="1026" 
d="M418 -21l26 162q77 0 138 13.5t107.5 39.5t81.5 64t60 86l140 -65q-12 -26 -17 -41t-5 -26q0 -19 12.5 -31.5t32.5 -18t41 -5.5q38 0 57 -23.5t19 -55.5q0 -38 -23 -60.5t-62 -22.5q-54 0 -101 15.5t-74.5 52t-24.5 98.5l53 -4q-33 -45 -75.5 -78t-98.5 -55.5t-127 -33.5
t-160 -11zM418 -21q-103 0 -172.5 20t-111 54t-59 77t-17.5 89q0 40 7 77.5t17 70.5t19 58l141 -38q-5 -19 -10.5 -39.5t-9 -41t-3.5 -41.5q0 -35 17 -63.5t65.5 -44.5t142.5 -16l20 -130zM522 460q-31 0 -52 21.5t-21 51.5q0 31 21 53t52 22q30 0 51.5 -22t21.5 -52
q0 -31 -21.5 -52.5t-51.5 -21.5zM436 616q-31 0 -52 21t-21 52t21 53t52 22q30 0 51 -22t21 -53t-21 -52t-51 -21zM613 616q-30 0 -51 21t-21 52t21 53t51 22q32 0 52.5 -22t20.5 -53t-20.5 -52t-52.5 -21z" />
    <glyph glyph-name="uni0681.init" unicode="&#x681;" horiz-adv-x="593" 
d="M0 -5l10 162q39 0 85.5 6.5t95 19.5t95 34.5t86.5 51.5q-33 14 -64 22.5t-61.5 13t-64.5 4.5q-16 0 -32 -1t-32.5 -3.5t-34.5 -6.5l-28 170q30 8 57 11.5t60 3.5q58 0 103.5 -12t81 -29t64.5 -34.5t55 -29.5t51 -12h30l21 -146q-34 -5 -65 -23t-64 -44t-73.5 -53t-93 -51
t-121.5 -39t-161 -15zM163 564l-17 67q37 6 54 9.5t35 8.5l-17 -29q-24 8 -45 33t-21 57q0 35 15.5 56t39 30.5t48.5 9.5q16 0 28.5 -2t22.5 -5l-7 -64q-9 2 -18.5 3.5t-20.5 1.5q-18 0 -27.5 -7.5t-9.5 -21.5q0 -17 11 -29t25.5 -19t24.5 -8l-41 -4q24 7 46 14t42 14
l20 -65q-24 -8 -55 -17.5t-65 -18t-68 -14.5z" />
    <glyph glyph-name="uni0681.medi" unicode="&#x681;" horiz-adv-x="592" 
d="M592 -5q-27 0 -55 8.5t-54.5 27.5t-48.5 51t-37 79l92 72q13 -30 33 -46.5t41.5 -23t38.5 -6.5q37 0 56 -23.5t19 -55.5q0 -38 -23 -60.5t-62 -22.5zM0 -5l10 162q39 0 85.5 6.5t95 19.5t95 34.5t86.5 51.5q-33 14 -64 22.5t-61.5 13t-64.5 4.5q-16 0 -32 -1t-32.5 -3.5
t-34.5 -6.5l-28 170q30 8 57 11.5t60 3.5q58 0 103.5 -12t81 -29t64.5 -34.5t55 -29.5t51 -12h30l21 -146q-34 -5 -65 -23t-64 -44t-73.5 -53t-93 -51t-121.5 -39t-161 -15zM127 564l-17 67q37 6 54 9.5t35 8.5l-17 -29q-24 8 -45 33t-21 57q0 35 15.5 56t39 30.5t48.5 9.5
q16 0 28.5 -2t22.5 -5l-7 -64q-9 2 -18.5 3.5t-20.5 1.5q-18 0 -27.5 -7.5t-9.5 -21.5q0 -17 11 -29t25.5 -19t24.5 -8l-41 -4q24 7 46 14t42 14l20 -65q-24 -8 -55 -17.5t-65 -18t-68 -14.5z" />
    <glyph glyph-name="uni0681.fina" unicode="&#x681;" horiz-adv-x="602" 
d="M602 -5q-34 0 -69.5 9.5t-66.5 34.5t-54 71t-34 119l116 54q8 -42 21.5 -67.5t30 -38t34 -16.5t32.5 -4q37 0 56 -23.5t19 -55.5q0 -38 -23 -60.5t-62 -22.5zM356 -394q-67 0 -128 19t-107.5 57.5t-73.5 96t-27 135.5q0 76 24 139t64.5 113t91.5 89t106.5 67.5
t107.5 47.5l11 -50q-22 8 -52 18t-63 18.5t-66.5 14t-63.5 5.5q-23 0 -52 -4t-56 -11l-25 169q32 9 62 14.5t55 5.5q46 0 90 -10.5t83.5 -26.5t74 -32t62 -26.5t46.5 -10.5h22l20 -186q-41 -5 -84.5 -17t-85 -30.5t-77.5 -44t-64 -58t-43.5 -72t-15.5 -86.5
q0 -45 15.5 -77.5t41.5 -53.5t58 -31.5t66 -10.5q29 0 67 5t99 25l50 -151q-82 -34 -136.5 -42t-96.5 -8zM180 612l-17 67q37 6 54 9.5t35 8.5l-17 -29q-24 8 -45 33t-21 57q0 35 15.5 56t39 30.5t48.5 9.5q16 0 28.5 -2t22.5 -5l-7 -64q-9 2 -18.5 3.5t-20.5 1.5
q-18 0 -27.5 -7.5t-9.5 -21.5q0 -17 11 -29t25.5 -19t24.5 -8l-41 -4q24 7 46 14t42 14l20 -65q-24 -8 -55 -17.5t-65 -18t-68 -14.5z" />
    <glyph glyph-name="uni0682.init" unicode="&#x682;" horiz-adv-x="593" 
d="M0 -5l10 162q39 0 85.5 6.5t95 19.5t95 34.5t86.5 51.5q-33 14 -64 22.5t-61.5 13t-64.5 4.5q-16 0 -32 -1t-32.5 -3.5t-34.5 -6.5l-28 170q30 8 57 11.5t60 3.5q58 0 103.5 -12t81 -29t64.5 -34.5t55 -29.5t51 -12h30l21 -146q-34 -5 -65 -23t-64 -44t-73.5 -53t-93 -51
t-121.5 -39t-161 -15zM182 601q-30 0 -50.5 21t-20.5 50q0 30 20.5 51.5t50.5 21.5q29 0 50 -21.5t21 -50.5q0 -30 -21 -51t-50 -21zM182 777q-30 0 -50.5 20.5t-20.5 50.5q0 29 20.5 51t50.5 22q29 0 50 -22t21 -50q0 -31 -21 -51.5t-50 -20.5z" />
    <glyph glyph-name="uni0682.medi" unicode="&#x682;" horiz-adv-x="592" 
d="M592 -5q-27 0 -55 8.5t-54.5 27.5t-48.5 51t-37 79l92 72q13 -30 33 -46.5t41.5 -23t38.5 -6.5q37 0 56 -23.5t19 -55.5q0 -38 -23 -60.5t-62 -22.5zM0 -5l10 162q39 0 85.5 6.5t95 19.5t95 34.5t86.5 51.5q-33 14 -64 22.5t-61.5 13t-64.5 4.5q-16 0 -32 -1t-32.5 -3.5
t-34.5 -6.5l-28 170q30 8 57 11.5t60 3.5q58 0 103.5 -12t81 -29t64.5 -34.5t55 -29.5t51 -12h30l21 -146q-34 -5 -65 -23t-64 -44t-73.5 -53t-93 -51t-121.5 -39t-161 -15zM182 601q-30 0 -50.5 21t-20.5 50q0 30 20.5 51.5t50.5 21.5q29 0 50 -21.5t21 -50.5
q0 -30 -21 -51t-50 -21zM182 777q-30 0 -50.5 20.5t-20.5 50.5q0 29 20.5 51t50.5 22q29 0 50 -22t21 -50q0 -31 -21 -51.5t-50 -20.5z" />
    <glyph glyph-name="uni0682.fina" unicode="&#x682;" horiz-adv-x="602" 
d="M602 -5q-34 0 -69.5 9.5t-66.5 34.5t-54 71t-34 119l116 54q8 -42 21.5 -67.5t30 -38t34 -16.5t32.5 -4q37 0 56 -23.5t19 -55.5q0 -38 -23 -60.5t-62 -22.5zM356 -394q-67 0 -128 19t-107.5 57.5t-73.5 96t-27 135.5q0 76 24 139t64.5 113t91.5 89t106.5 67.5
t107.5 47.5l11 -50q-22 8 -52 18t-63 18.5t-66.5 14t-63.5 5.5q-23 0 -52 -4t-56 -11l-25 169q32 9 62 14.5t55 5.5q46 0 90 -10.5t83.5 -26.5t74 -32t62 -26.5t46.5 -10.5h22l20 -186q-41 -5 -84.5 -17t-85 -30.5t-77.5 -44t-64 -58t-43.5 -72t-15.5 -86.5
q0 -45 15.5 -77.5t41.5 -53.5t58 -31.5t66 -10.5q29 0 67 5t99 25l50 -151q-82 -34 -136.5 -42t-96.5 -8zM292 648q-30 0 -50.5 21t-20.5 50q0 30 20.5 51.5t50.5 21.5q29 0 50 -21.5t21 -50.5q0 -30 -21 -51t-50 -21zM292 824q-30 0 -50.5 20.5t-20.5 50.5q0 29 20.5 51
t50.5 22q29 0 50 -22t21 -50q0 -31 -21 -51.5t-50 -20.5z" />
    <glyph glyph-name="uni0685.init" unicode="&#x685;" horiz-adv-x="593" 
d="M0 -5l10 162q39 0 85.5 6.5t95 19.5t95 34.5t86.5 51.5q-33 14 -64 22.5t-61.5 13t-64.5 4.5q-16 0 -32 -1t-32.5 -3.5t-34.5 -6.5l-28 170q30 8 57 11.5t60 3.5q58 0 103.5 -12t81 -29t64.5 -34.5t55 -29.5t51 -12h30l21 -146q-34 -5 -65 -23t-64 -44t-73.5 -53t-93 -51
t-121.5 -39t-161 -15zM180 754q-32 0 -53 21.5t-21 50.5q0 31 21 53t53 22q31 0 52.5 -22t21.5 -53q0 -29 -21.5 -50.5t-52.5 -21.5zM95 597q-31 0 -53.5 23t-22.5 53q0 29 22.5 52t53.5 23q29 0 50.5 -23t21.5 -52q0 -30 -21.5 -53t-50.5 -23zM268 597q-30 0 -50 23t-20 53
q0 29 20 52t50 23q31 0 53 -23t22 -52q0 -30 -22 -53t-53 -23z" />
    <glyph glyph-name="uni0685.medi" unicode="&#x685;" horiz-adv-x="592" 
d="M592 -5q-27 0 -55 8.5t-54.5 27.5t-48.5 51t-37 79l92 72q13 -30 33 -46.5t41.5 -23t38.5 -6.5q37 0 56 -23.5t19 -55.5q0 -38 -23 -60.5t-62 -22.5zM0 -5l10 162q39 0 85.5 6.5t95 19.5t95 34.5t86.5 51.5q-33 14 -64 22.5t-61.5 13t-64.5 4.5q-16 0 -32 -1t-32.5 -3.5
t-34.5 -6.5l-28 170q30 8 57 11.5t60 3.5q58 0 103.5 -12t81 -29t64.5 -34.5t55 -29.5t51 -12h30l21 -146q-34 -5 -65 -23t-64 -44t-73.5 -53t-93 -51t-121.5 -39t-161 -15zM180 754q-32 0 -53 21.5t-21 50.5q0 31 21 53t53 22q31 0 52.5 -22t21.5 -53q0 -29 -21.5 -50.5
t-52.5 -21.5zM95 597q-31 0 -53.5 23t-22.5 53q0 29 22.5 52t53.5 23q29 0 50.5 -23t21.5 -52q0 -30 -21.5 -53t-50.5 -23zM268 597q-30 0 -50 23t-20 53q0 29 20 52t50 23q31 0 53 -23t22 -52q0 -30 -22 -53t-53 -23z" />
    <glyph glyph-name="uni0685.fina" unicode="&#x685;" horiz-adv-x="602" 
d="M602 -5q-34 0 -69.5 9.5t-66.5 34.5t-54 71t-34 119l116 54q8 -42 21.5 -67.5t30 -38t34 -16.5t32.5 -4q37 0 56 -23.5t19 -55.5q0 -38 -23 -60.5t-62 -22.5zM356 -394q-67 0 -128 19t-107.5 57.5t-73.5 96t-27 135.5q0 76 24 139t64.5 113t91.5 89t106.5 67.5
t107.5 47.5l11 -50q-22 8 -52 18t-63 18.5t-66.5 14t-63.5 5.5q-23 0 -52 -4t-56 -11l-25 169q32 9 62 14.5t55 5.5q46 0 90 -10.5t83.5 -26.5t74 -32t62 -26.5t46.5 -10.5h22l20 -186q-41 -5 -84.5 -17t-85 -30.5t-77.5 -44t-64 -58t-43.5 -72t-15.5 -86.5
q0 -45 15.5 -77.5t41.5 -53.5t58 -31.5t66 -10.5q29 0 67 5t99 25l50 -151q-82 -34 -136.5 -42t-96.5 -8zM290 801q-32 0 -53 21.5t-21 50.5q0 31 21 53t53 22q31 0 52.5 -22t21.5 -53q0 -29 -21.5 -50.5t-52.5 -21.5zM205 644q-31 0 -53.5 23t-22.5 53q0 29 22.5 52
t53.5 23q29 0 50.5 -23t21.5 -52q0 -30 -21.5 -53t-50.5 -23zM378 644q-30 0 -50 23t-20 53q0 29 20 52t50 23q31 0 53 -23t22 -52q0 -30 -22 -53t-53 -23z" />
    <glyph glyph-name="uni0689.fina" unicode="&#x689;" horiz-adv-x="499" 
d="M196 -120q-37 0 -62.5 25.5t-25.5 62.5t25.5 62.5t62.5 25.5t62.5 -25.5t25.5 -62.5t-25.5 -62.5t-62.5 -25.5zM196 -58q11 0 19.5 7.5t8.5 18.5q0 12 -8.5 19.5t-19.5 7.5t-19.5 -8t-8.5 -19t8.5 -18.5t19.5 -7.5zM168 163q25 0 40.5 5.5t23.5 18t8 33.5q0 12 -4.5 31.5
t-16.5 49.5t-34.5 73t-59.5 101l155 89q37 -50 65 -101t47.5 -99.5t29.5 -90.5q12 -47 24.5 -72t28 -34.5t34.5 -9.5q37 0 56 -23.5t19 -55.5q0 -38 -23 -60.5t-62 -22.5q-40 0 -77 12t-67.5 38.5t-51.5 68.5l77 15q-8 -39 -29 -69.5t-60.5 -47.5t-105.5 -17q-20 0 -48.5 2
t-58 7.5t-53.5 15.5l26 158q29 -7 60.5 -11t56.5 -4z" />
    <glyph glyph-name="uni068A.fina" unicode="&#x68a;" horiz-adv-x="499" 
d="M168 163q25 0 40.5 5.5t23.5 18t8 33.5q0 12 -4.5 31.5t-16.5 49.5t-34.5 73t-59.5 101l155 89q37 -50 65 -101t47.5 -99.5t29.5 -90.5q12 -47 24.5 -72t28 -34.5t34.5 -9.5q37 0 56 -23.5t19 -55.5q0 -38 -23 -60.5t-62 -22.5q-40 0 -77 12t-67.5 38.5t-51.5 68.5l77 15
q-8 -39 -29 -69.5t-60.5 -47.5t-105.5 -17q-20 0 -48.5 2t-58 7.5t-53.5 15.5l26 158q29 -7 60.5 -11t56.5 -4zM215 -250q-34 0 -56.5 23t-22.5 55q0 34 22.5 57.5t56.5 23.5q33 0 55.5 -23.5t22.5 -56.5t-22.5 -56t-55.5 -23z" />
    <glyph glyph-name="uni068B.fina" unicode="&#x68b;" horiz-adv-x="499" 
d="M168 163q25 0 40.5 5.5t23.5 18t8 33.5q0 12 -4.5 31.5t-16.5 49.5t-34.5 73t-59.5 101l155 89q37 -50 65 -101t47.5 -99.5t29.5 -90.5q12 -47 24.5 -72t28 -34.5t34.5 -9.5q37 0 56 -23.5t19 -55.5q0 -38 -23 -60.5t-62 -22.5q-40 0 -77 12t-67.5 38.5t-51.5 68.5l77 15
q-8 -39 -29 -69.5t-60.5 -47.5t-105.5 -17q-20 0 -48.5 2t-58 7.5t-53.5 15.5l26 158q29 -7 60.5 -11t56.5 -4zM240 661q-17 0 -40 1.5t-43 3t-30 2.5l4 66q18 -2 47.5 -4.5t54.5 -2.5q39 0 59 6t27 14.5t7 17.5t-7 16t-18 7q-14 0 -29.5 -11.5t-29 -27.5t-21.5 -31l-65 12
q17 38 42.5 66.5t55 44t57.5 15.5q38 0 61 -25.5t23 -63.5q0 -22 -11.5 -46.5t-44.5 -42t-99 -17.5zM170 736l-6 175h67l7 -156zM185 -250q-34 0 -56.5 23t-22.5 55q0 34 22.5 57.5t56.5 23.5q33 0 55.5 -23.5t22.5 -56.5t-22.5 -56t-55.5 -23z" />
    <glyph glyph-name="uni068F.fina" unicode="&#x68f;" horiz-adv-x="499" 
d="M168 163q25 0 40.5 5.5t23.5 18t8 33.5q0 12 -4.5 31.5t-16.5 49.5t-34.5 73t-59.5 101l155 89q37 -50 65 -101t47.5 -99.5t29.5 -90.5q12 -47 24.5 -72t28 -34.5t34.5 -9.5q37 0 56 -23.5t19 -55.5q0 -38 -23 -60.5t-62 -22.5q-40 0 -77 12t-67.5 38.5t-51.5 68.5l77 15
q-8 -39 -29 -69.5t-60.5 -47.5t-105.5 -17q-20 0 -48.5 2t-58 7.5t-53.5 15.5l26 158q29 -7 60.5 -11t56.5 -4zM254 675q-31 0 -52 21.5t-21 51.5q0 31 21 53t52 22q30 0 51.5 -22t21.5 -52q0 -31 -21.5 -52.5t-51.5 -21.5zM168 831q-31 0 -52 21t-21 52t21 53t52 22
q30 0 51 -22t21 -53t-21 -52t-51 -21zM345 831q-30 0 -51 21t-21 52t21 53t51 22q32 0 52.5 -22t20.5 -53t-20.5 -52t-52.5 -21z" />
    <glyph glyph-name="uni0690.fina" unicode="&#x690;" horiz-adv-x="499" 
d="M168 163q25 0 40.5 5.5t23.5 18t8 33.5q0 12 -4.5 31.5t-16.5 49.5t-34.5 73t-59.5 101l155 89q37 -50 65 -101t47.5 -99.5t29.5 -90.5q12 -47 24.5 -72t28 -34.5t34.5 -9.5q37 0 56 -23.5t19 -55.5q0 -38 -23 -60.5t-62 -22.5q-40 0 -77 12t-67.5 38.5t-51.5 68.5l77 15
q-8 -39 -29 -69.5t-60.5 -47.5t-105.5 -17q-20 0 -48.5 2t-58 7.5t-53.5 15.5l26 158q29 -7 60.5 -11t56.5 -4zM88 785q-27 0 -46 19t-19 46q0 28 19 48t46 20t46 -20t19 -47q0 -28 -19 -47t-46 -19zM89 634q-27 0 -46 19t-19 46q0 28 19 48t46 20t46 -20t19 -47
q0 -28 -19 -47t-46 -19zM242 785q-27 0 -46 19t-19 46q0 28 19 48t46 20t46 -20t19 -47q0 -28 -19 -47t-46 -19zM239 634q-27 0 -46 19t-19 46q0 28 19 48t46 20t46 -20t19 -47q0 -28 -19 -47t-46 -19z" />
    <glyph glyph-name="uni0692.fina" unicode="&#x692;" horiz-adv-x="387" 
d="M45 -230l-75 143q48 20 80.5 47.5t52.5 57.5t29 60t9 56q0 44 -22 95.5t-58 111.5l154 76q18 -30 33 -62t27 -61t18 -51q14 -47 40.5 -66.5t63.5 -19.5t56 -23.5t19 -55.5q0 -38 -23 -60.5t-62 -22.5q-31 0 -59 11.5t-47 34.5t-24 56l51 40q0 -46 -15 -99t-46 -104.5
t-81 -94.5t-121 -69zM96 520q-6 16 -15 39.5t-19.5 50.5t-20 52t-17.5 43l60 23q5 -13 13 -34.5t17.5 -46t19 -46.5t16.5 -35l19 -41zM169 525l-51 19q4 16 11.5 42t16 55t16 53.5t11.5 37.5l60 -17q-4 -15 -13 -40.5t-19 -54.5t-18.5 -54.5z" />
    <glyph glyph-name="uni0693.fina" unicode="&#x693;" horiz-adv-x="387" 
d="M236 -217q-37 0 -62.5 25.5t-25.5 62.5t25.5 62.5t62.5 25.5t62.5 -25.5t25.5 -62.5t-25.5 -62.5t-62.5 -25.5zM236 -155q11 0 19.5 7.5t8.5 18.5q0 12 -8.5 19.5t-19.5 7.5t-19.5 -8t-8.5 -19t8.5 -18.5t19.5 -7.5zM45 -230l-75 143q48 20 80.5 47.5t52.5 57.5t29 60
t9 56q0 44 -22 95.5t-58 111.5l154 76q18 -30 33 -62t27 -61t18 -51q14 -47 40.5 -66.5t63.5 -19.5t56 -23.5t19 -55.5q0 -38 -23 -60.5t-62 -22.5q-31 0 -59 11.5t-47 34.5t-24 56l51 40q0 -46 -15 -99t-46 -104.5t-81 -94.5t-121 -69z" />
    <glyph glyph-name="uni0694.fina" unicode="&#x694;" horiz-adv-x="387" 
d="M45 -230l-75 143q48 20 80.5 47.5t52.5 57.5t29 60t9 56q0 44 -22 95.5t-58 111.5l154 76q18 -30 33 -62t27 -61t18 -51q14 -47 40.5 -66.5t63.5 -19.5t56 -23.5t19 -55.5q0 -38 -23 -60.5t-62 -22.5q-31 0 -59 11.5t-47 34.5t-24 56l51 40q0 -46 -15 -99t-46 -104.5
t-81 -94.5t-121 -69zM221 -459q-34 0 -56.5 23t-22.5 55q0 34 22.5 57.5t56.5 23.5q33 0 55.5 -23.5t22.5 -56.5t-22.5 -56t-55.5 -23z" />
    <glyph glyph-name="uni0695.fina" unicode="&#x695;" horiz-adv-x="387" 
d="M5 0q-8 14 -20 39.5l-24 51t-21 40.5l48 25q5 -7 11.5 -21.5t13.5 -32t14.5 -33.5t13.5 -27l15 -38zM56 4l-47 19q5 13 12.5 33.5t15 42t14 38t8.5 22.5l48 -20q-3 -7 -9.5 -24.5t-14.5 -38.5t-15 -40.5t-12 -31.5zM45 -230l-75 143q48 20 80.5 47.5t52.5 57.5t29 60
t9 56q0 44 -22 95.5t-58 111.5l154 76q18 -30 33 -62t27 -61t18 -51q14 -47 40.5 -66.5t63.5 -19.5t56 -23.5t19 -55.5q0 -38 -23 -60.5t-62 -22.5q-31 0 -59 11.5t-47 34.5t-24 56l51 40q0 -46 -15 -99t-46 -104.5t-81 -94.5t-121 -69z" />
    <glyph glyph-name="uni0696.fina" unicode="&#x696;" horiz-adv-x="387" 
d="M45 -230l-75 143q48 20 80.5 47.5t52.5 57.5t29 60t9 56q0 44 -22 95.5t-58 111.5l154 76q18 -30 33 -62t27 -61t18 -51q14 -47 40.5 -66.5t63.5 -19.5t56 -23.5t19 -55.5q0 -38 -23 -60.5t-62 -22.5q-31 0 -59 11.5t-47 34.5t-24 56l51 40q0 -46 -15 -99t-46 -104.5
t-81 -94.5t-121 -69zM50 28q-34 0 -56.5 23t-22.5 55q0 34 22.5 58t56.5 24q33 0 55.5 -24t22.5 -57t-22.5 -56t-55.5 -23zM191 -459q-34 0 -56.5 23t-22.5 55q0 34 22.5 57.5t56.5 23.5q33 0 55.5 -23.5t22.5 -56.5t-22.5 -56t-55.5 -23z" />
    <glyph glyph-name="uni0697.fina" unicode="&#x697;" horiz-adv-x="387" 
d="M45 -230l-75 143q48 20 80.5 47.5t52.5 57.5t29 60t9 56q0 44 -22 95.5t-58 111.5l154 76q18 -30 33 -62t27 -61t18 -51q14 -47 40.5 -66.5t63.5 -19.5t56 -23.5t19 -55.5q0 -38 -23 -60.5t-62 -22.5q-31 0 -59 11.5t-47 34.5t-24 56l51 40q0 -46 -15 -99t-46 -104.5
t-81 -94.5t-121 -69zM272 514q-31 0 -51.5 21.5t-20.5 51.5q0 32 20.5 52.5t51.5 20.5t53 -20.5t22 -52.5q0 -30 -22 -51.5t-53 -21.5zM95 514q-32 0 -53 21.5t-21 51.5q0 32 21 52.5t52 20.5q30 0 52 -20.5t22 -52.5q0 -30 -21.5 -51.5t-51.5 -21.5z" />
    <glyph glyph-name="uni0699.fina" unicode="&#x699;" horiz-adv-x="387" 
d="M45 -230l-75 143q48 20 80.5 47.5t52.5 57.5t29 60t9 56q0 44 -22 95.5t-58 111.5l154 76q18 -30 33 -62t27 -61t18 -51q14 -47 40.5 -66.5t63.5 -19.5t56 -23.5t19 -55.5q0 -38 -23 -60.5t-62 -22.5q-31 0 -59 11.5t-47 34.5t-24 56l51 40q0 -46 -15 -99t-46 -104.5
t-81 -94.5t-121 -69zM58 666q-27 0 -46 19t-19 46q0 28 19 48t46 20t46 -20t19 -47q0 -28 -19 -47t-46 -19zM59 515q-27 0 -46 19t-19 46q0 28 19 48t46 20t46 -20t19 -47q0 -28 -19 -47t-46 -19zM212 666q-27 0 -46 19t-19 46q0 28 19 48t46 20t46 -20t19 -47
q0 -28 -19 -47t-46 -19zM209 515q-27 0 -46 19t-19 46q0 28 19 48t46 20t46 -20t19 -47q0 -28 -19 -47t-46 -19z" />
    <glyph glyph-name="uni069A.init" unicode="&#x69a;" horiz-adv-x="898" 
d="M0 -5l10 162q20 0 33.5 6.5t24 27.5t19.5 63.5t20 113.5l159 -26q-2 -13 -5.5 -34t-6 -44t-2.5 -44q0 -28 14 -45.5t43 -17.5q22 0 36 6.5t24 27.5t18.5 65t19.5 120l162 -26q-4 -22 -8.5 -48t-7.5 -49.5t-3 -39.5t7.5 -28.5t21.5 -20t35 -7.5q24 0 39.5 7t23 22.5
t7.5 41.5q0 42 -15 104t-40 135l160 49q18 -50 31.5 -103.5t20.5 -102.5t7 -85q0 -55 -18 -97.5t-49 -72t-72 -45t-86 -15.5q-42 0 -74 13t-53 45t-30 88h35q-22 -67 -51 -98t-62.5 -39.5t-69.5 -8.5q-26 0 -59 9t-63 39t-49 94h70q-24 -60 -61 -90.5t-78 -41t-78 -10.5z
M435 -250q-34 0 -56.5 23t-22.5 55q0 34 22.5 57.5t56.5 23.5q33 0 55.5 -23.5t22.5 -56.5t-22.5 -56t-55.5 -23zM477 523q-34 0 -56.5 23t-22.5 55q0 34 22.5 58t56.5 24q33 0 55.5 -24t22.5 -57t-22.5 -56t-55.5 -23z" />
    <glyph glyph-name="uni069A.medi" unicode="&#x69a;" horiz-adv-x="950" 
d="M0 -5l10 162q20 0 33.5 6.5t24 27.5t19.5 63.5t20 113.5l159 -26q-3 -20 -8.5 -52t-5.5 -57t6.5 -41.5t21 -25t38.5 -8.5q19 0 32.5 6t24 27.5t19 65.5t17.5 119l162 -26q-5 -27 -9.5 -52.5t-7 -47.5t-2.5 -37q0 -16 7.5 -28.5t23.5 -20t41 -7.5q34 0 48.5 21t14.5 67
q0 23 -1 51t-4 63t-9 79l159 13q8 -95 17 -153t22.5 -88.5t34.5 -41.5t52 -11q37 0 56 -23.5t19 -55.5q0 -38 -23 -60.5t-62 -22.5q-10 0 -33 4t-51 17.5t-54.5 41.5t-43.5 76l18 -6q-15 -45 -38 -74.5t-55.5 -44t-76.5 -14.5q-33 0 -67.5 14t-56.5 46t-21 86h34
q-22 -64 -47 -95.5t-58 -41t-78 -9.5q-29 0 -63 10.5t-64 41t-48 90.5h70q-29 -65 -61.5 -95.5t-70.5 -38.5t-85 -8zM421 -250q-34 0 -56.5 23t-22.5 55q0 34 22.5 57.5t56.5 23.5q33 0 55.5 -23.5t22.5 -56.5t-22.5 -56t-55.5 -23zM475 523q-34 0 -56.5 23t-22.5 55
q0 34 22.5 58t56.5 24q33 0 55.5 -24t22.5 -57t-22.5 -56t-55.5 -23z" />
    <glyph glyph-name="uni069A.fina" unicode="&#x69a;" horiz-adv-x="1292" 
d="M302 -232q-50 0 -99.5 15t-90 47t-64.5 82.5t-24 120.5q0 28 4 59t15.5 72t35.5 99l150 -54q-14 -39 -21.5 -66.5t-10 -50.5t-2.5 -49q0 -39 16.5 -64t44 -37t61.5 -12q29 0 51.5 9t38.5 27t24.5 44.5t8.5 61.5q0 34 -8 75.5t-21.5 89t-30.5 98.5l172 45q14 -59 24 -95
t14 -51q10 -32 19.5 -48.5t22 -22t31.5 -5.5q17 0 29.5 6.5t22.5 27.5t19 65t18 119l162 -26q-5 -27 -9.5 -52.5t-7 -47.5t-2.5 -37q0 -16 7.5 -28.5t23.5 -20t41 -7.5q34 0 48.5 21t14.5 67q0 23 -1 51t-4 63t-9 79l162 13q9 -106 20 -166t25.5 -87t34 -34t44.5 -7
q37 0 56 -23.5t19 -55.5q0 -38 -23 -60.5t-62 -22.5q-24 0 -59.5 11t-69.5 41t-54 87l18 -6q-14 -51 -42.5 -80t-60.5 -41t-58 -12q-45 0 -79.5 16.5t-54.5 49.5t-20 80h34q-19 -63 -45 -94t-56 -41.5t-62 -10.5q-10 0 -28 3t-37.5 12t-34.5 28t-20 50l45 -45
q-3 -66 -28.5 -117.5t-67.5 -86.5t-96 -53t-114 -18zM823 -245q-34 0 -56.5 23t-22.5 55q0 34 22.5 57.5t56.5 23.5q33 0 55.5 -23.5t22.5 -56.5t-22.5 -56t-55.5 -23zM760 523q-34 0 -56.5 23t-22.5 55q0 34 22.5 58t56.5 24q33 0 55.5 -24t22.5 -57t-22.5 -56t-55.5 -23z
" />
    <glyph glyph-name="uni069B.init" unicode="&#x69b;" horiz-adv-x="898" 
d="M0 -5l10 162q20 0 33.5 6.5t24 27.5t19.5 63.5t20 113.5l159 -26q-2 -13 -5.5 -34t-6 -44t-2.5 -44q0 -28 14 -45.5t43 -17.5q22 0 36 6.5t24 27.5t18.5 65t19.5 120l162 -26q-4 -22 -8.5 -48t-7.5 -49.5t-3 -39.5t7.5 -28.5t21.5 -20t35 -7.5q24 0 39.5 7t23 22.5
t7.5 41.5q0 42 -15 104t-40 135l160 49q18 -50 31.5 -103.5t20.5 -102.5t7 -85q0 -55 -18 -97.5t-49 -72t-72 -45t-86 -15.5q-42 0 -74 13t-53 45t-30 88h35q-22 -67 -51 -98t-62.5 -39.5t-69.5 -8.5q-26 0 -59 9t-63 39t-49 94h70q-24 -60 -61 -90.5t-78 -41t-78 -10.5z
M432 -395q-31 0 -52 21t-21 52q0 30 21 52.5t52 22.5q30 0 51 -22.5t21 -52.5q0 -31 -21 -52t-51 -21zM345 -239q-31 0 -52 21t-21 52q0 30 21 52.5t52 22.5t52 -22.5t21 -52.5q0 -31 -21 -52t-52 -21zM523 -239q-31 0 -52 21t-21 52q0 30 21 52.5t52 22.5q32 0 52.5 -22.5
t20.5 -52.5q0 -31 -20.5 -52t-52.5 -21z" />
    <glyph glyph-name="uni069B.medi" unicode="&#x69b;" horiz-adv-x="950" 
d="M0 -5l10 162q20 0 33.5 6.5t24 27.5t19.5 63.5t20 113.5l159 -26q-3 -20 -8.5 -52t-5.5 -57t6.5 -41.5t21 -25t38.5 -8.5q19 0 32.5 6t24 27.5t19 65.5t17.5 119l162 -26q-5 -27 -9.5 -52.5t-7 -47.5t-2.5 -37q0 -16 7.5 -28.5t23.5 -20t41 -7.5q34 0 48.5 21t14.5 67
q0 23 -1 51t-4 63t-9 79l159 13q8 -95 17 -153t22.5 -88.5t34.5 -41.5t52 -11q37 0 56 -23.5t19 -55.5q0 -38 -23 -60.5t-62 -22.5q-10 0 -33 4t-51 17.5t-54.5 41.5t-43.5 76l18 -6q-15 -45 -38 -74.5t-55.5 -44t-76.5 -14.5q-33 0 -67.5 14t-56.5 46t-21 86h34
q-22 -64 -47 -95.5t-58 -41t-78 -9.5q-29 0 -63 10.5t-64 41t-48 90.5h70q-29 -65 -61.5 -95.5t-70.5 -38.5t-85 -8zM418 -395q-31 0 -52 21t-21 52q0 30 21 52.5t52 22.5q30 0 51 -22.5t21 -52.5q0 -31 -21 -52t-51 -21zM331 -239q-31 0 -52 21t-21 52q0 30 21 52.5
t52 22.5t52 -22.5t21 -52.5q0 -31 -21 -52t-52 -21zM509 -239q-31 0 -52 21t-21 52q0 30 21 52.5t52 22.5q32 0 52.5 -22.5t20.5 -52.5q0 -31 -20.5 -52t-52.5 -21z" />
    <glyph glyph-name="uni069B.fina" unicode="&#x69b;" horiz-adv-x="1292" 
d="M302 -232q-50 0 -99.5 15t-90 47t-64.5 82.5t-24 120.5q0 28 4 59t15.5 72t35.5 99l150 -54q-14 -39 -21.5 -66.5t-10 -50.5t-2.5 -49q0 -39 16.5 -64t44 -37t61.5 -12q29 0 51.5 9t38.5 27t24.5 44.5t8.5 61.5q0 34 -8 75.5t-21.5 89t-30.5 98.5l172 45q14 -59 24 -95
t14 -51q10 -32 19.5 -48.5t22 -22t31.5 -5.5q17 0 29.5 6.5t22.5 27.5t19 65t18 119l162 -26q-5 -27 -9.5 -52.5t-7 -47.5t-2.5 -37q0 -16 7.5 -28.5t23.5 -20t41 -7.5q34 0 48.5 21t14.5 67q0 23 -1 51t-4 63t-9 79l162 13q9 -106 20 -166t25.5 -87t34 -34t44.5 -7
q37 0 56 -23.5t19 -55.5q0 -38 -23 -60.5t-62 -22.5q-24 0 -59.5 11t-69.5 41t-54 87l18 -6q-14 -51 -42.5 -80t-60.5 -41t-58 -12q-45 0 -79.5 16.5t-54.5 49.5t-20 80h34q-19 -63 -45 -94t-56 -41.5t-62 -10.5q-10 0 -28 3t-37.5 12t-34.5 28t-20 50l45 -45
q-3 -66 -28.5 -117.5t-67.5 -86.5t-96 -53t-114 -18zM820 -390q-31 0 -52 21t-21 52q0 30 21 52.5t52 22.5q30 0 51 -22.5t21 -52.5q0 -31 -21 -52t-51 -21zM733 -234q-31 0 -52 21t-21 52q0 30 21 52.5t52 22.5t52 -22.5t21 -52.5q0 -31 -21 -52t-52 -21zM911 -234
q-31 0 -52 21t-21 52q0 30 21 52.5t52 22.5q32 0 52.5 -22.5t20.5 -52.5q0 -31 -20.5 -52t-52.5 -21z" />
    <glyph glyph-name="uni069D.init" unicode="&#x69d;" horiz-adv-x="911" 
d="M500 -18q-85 0 -143 9.5t-96.5 25.5t-63.5 37t-43 45l32 8q-25 -48 -58 -72t-66.5 -32t-61.5 -8l10 162q23 0 35.5 11t21 36t17 65.5t23.5 99.5l156 -40q-7 -29 -12 -49t-7 -33t-2 -22q0 -19 7.5 -34t30.5 -25.5t68 -15.5t120 -5q74 0 121 7.5t72.5 20.5t35.5 30.5
t10 38.5q0 16 -7 29t-20 21.5t-31 8.5q-23 0 -46.5 -12.5t-47.5 -36t-49 -54.5t-52 -69l-173 26q44 69 90.5 127t95.5 101t99.5 66.5t101.5 23.5q62 0 109 -28.5t73 -78.5t26 -115q0 -82 -42 -142.5t-125.5 -93.5t-208.5 -33zM594 -250q-31 0 -51.5 21t-20.5 52t20.5 52
t51.5 21t53 -21t22 -52t-22 -52t-53 -21zM417 -250q-32 0 -53 21t-21 52t21 52t52 21q30 0 52 -21t22 -52t-21.5 -52t-51.5 -21z" />
    <glyph glyph-name="uni069D.medi" unicode="&#x69d;" horiz-adv-x="943" 
d="M943 -5q-35 0 -73.5 12.5t-71.5 30.5t-54 35l95 116q29 -18 61 -25t52 -7q38 0 57 -23.5t19 -55.5q0 -38 -23.5 -60.5t-61.5 -22.5zM500 -18q-85 0 -143 9.5t-96.5 25.5t-63.5 37t-43 45l32 8q-25 -48 -58 -72t-66.5 -32t-61.5 -8l10 162q23 0 35.5 11t21 36t17 65.5
t23.5 99.5l156 -40q-7 -29 -12 -49t-7 -33t-2 -22q0 -19 7.5 -34t30.5 -25.5t68 -15.5t120 -5q74 0 121 7.5t72.5 20.5t35.5 30.5t10 38.5q0 16 -7 29t-20 21.5t-31 8.5q-23 0 -46.5 -12.5t-47.5 -36t-49 -54.5t-52 -69l-173 26q44 69 90.5 127t95.5 101t99.5 66.5
t101.5 23.5q62 0 109 -28.5t73 -78.5t26 -115q0 -82 -42 -142.5t-125.5 -93.5t-208.5 -33zM594 -250q-31 0 -51.5 21t-20.5 52t20.5 52t51.5 21t53 -21t22 -52t-22 -52t-53 -21zM417 -250q-32 0 -53 21t-21 52t21 52t52 21q30 0 52 -21t22 -52t-21.5 -52t-51.5 -21z" />
    <glyph glyph-name="uni069D.fina" unicode="&#x69d;" horiz-adv-x="1313" 
d="M1313 -5q-35 0 -73.5 12.5t-71.5 30.5t-54 35l95 116q29 -18 61 -25t52 -7q38 0 57 -23.5t19 -55.5q0 -38 -23.5 -60.5t-61.5 -22.5zM300 -232q-49 0 -98 14.5t-89.5 46.5t-64.5 83.5t-24 126.5q0 27 4 57t15.5 70t35.5 97l150 -54q-14 -38 -21.5 -64.5t-10 -49.5
t-2.5 -49q0 -40 16.5 -65.5t43.5 -38t59 -12.5t55.5 9t39.5 26.5t23.5 43.5t7.5 60q0 53 -17 121.5t-40 144.5l172 45q9 -38 16.5 -67.5t13 -49t8.5 -29.5q7 -20 18.5 -36t37 -26.5t74.5 -16t131 -5.5q52 0 89.5 4.5t63.5 13t41 20.5t22 26t7 30t-7 30t-19.5 23t-31.5 9
q-23 0 -47.5 -14.5t-49 -38.5t-49 -54.5t-47.5 -62.5l-172 26q31 51 65.5 98t73 86.5t79 69t82.5 46t84 16.5q61 0 108 -29.5t73.5 -79.5t26.5 -113q0 -61 -23.5 -111t-69 -85t-112.5 -54t-155 -19q-42 0 -94.5 4.5t-103.5 15t-90.5 29.5t-55.5 47l65 -40q-3 -66 -28 -117
t-67.5 -86.5t-96.5 -53.5t-115 -18zM959 -245q-31 0 -51.5 21t-20.5 52t20.5 52t51.5 21t53 -21t22 -52t-22 -52t-53 -21zM782 -245q-32 0 -53 21t-21 52t21 52t52 21q30 0 52 -21t22 -52t-21.5 -52t-51.5 -21z" />
    <glyph glyph-name="uni069E.init" unicode="&#x69e;" horiz-adv-x="911" 
d="M500 -18q-85 0 -143 9.5t-96.5 25.5t-63.5 37t-43 45l32 8q-25 -48 -58 -72t-66.5 -32t-61.5 -8l10 162q23 0 35.5 11t21 36t17 65.5t23.5 99.5l156 -40q-7 -29 -12 -49t-7 -33t-2 -22q0 -19 7.5 -34t30.5 -25.5t68 -15.5t120 -5q74 0 121 7.5t72.5 20.5t35.5 30.5
t10 38.5q0 16 -7 29t-20 21.5t-31 8.5q-23 0 -46.5 -12.5t-47.5 -36t-49 -54.5t-52 -69l-173 26q44 69 90.5 127t95.5 101t99.5 66.5t101.5 23.5q62 0 109 -28.5t73 -78.5t26 -115q0 -82 -42 -142.5t-125.5 -93.5t-208.5 -33zM638 724q-32 0 -53 21.5t-21 50.5q0 31 21 53
t53 22q31 0 52.5 -22t21.5 -53q0 -29 -21.5 -50.5t-52.5 -21.5zM553 567q-31 0 -53.5 23t-22.5 53q0 29 22.5 52t53.5 23q29 0 50.5 -23t21.5 -52q0 -30 -21.5 -53t-50.5 -23zM726 567q-30 0 -50 23t-20 53q0 29 20 52t50 23q31 0 53 -23t22 -52q0 -30 -22 -53t-53 -23z" />
    <glyph glyph-name="uni069E.medi" unicode="&#x69e;" horiz-adv-x="943" 
d="M943 -5q-35 0 -73.5 12.5t-71.5 30.5t-54 35l95 116q29 -18 61 -25t52 -7q38 0 57 -23.5t19 -55.5q0 -38 -23.5 -60.5t-61.5 -22.5zM500 -18q-85 0 -143 9.5t-96.5 25.5t-63.5 37t-43 45l32 8q-25 -48 -58 -72t-66.5 -32t-61.5 -8l10 162q23 0 35.5 11t21 36t17 65.5
t23.5 99.5l156 -40q-7 -29 -12 -49t-7 -33t-2 -22q0 -19 7.5 -34t30.5 -25.5t68 -15.5t120 -5q74 0 121 7.5t72.5 20.5t35.5 30.5t10 38.5q0 16 -7 29t-20 21.5t-31 8.5q-23 0 -46.5 -12.5t-47.5 -36t-49 -54.5t-52 -69l-173 26q44 69 90.5 127t95.5 101t99.5 66.5
t101.5 23.5q62 0 109 -28.5t73 -78.5t26 -115q0 -82 -42 -142.5t-125.5 -93.5t-208.5 -33zM638 724q-32 0 -53 21.5t-21 50.5q0 31 21 53t53 22q31 0 52.5 -22t21.5 -53q0 -29 -21.5 -50.5t-52.5 -21.5zM553 567q-31 0 -53.5 23t-22.5 53q0 29 22.5 52t53.5 23
q29 0 50.5 -23t21.5 -52q0 -30 -21.5 -53t-50.5 -23zM726 567q-30 0 -50 23t-20 53q0 29 20 52t50 23q31 0 53 -23t22 -52q0 -30 -22 -53t-53 -23z" />
    <glyph glyph-name="uni069E.fina" unicode="&#x69e;" horiz-adv-x="1313" 
d="M1313 -5q-35 0 -73.5 12.5t-71.5 30.5t-54 35l95 116q29 -18 61 -25t52 -7q38 0 57 -23.5t19 -55.5q0 -38 -23.5 -60.5t-61.5 -22.5zM300 -232q-49 0 -98 14.5t-89.5 46.5t-64.5 83.5t-24 126.5q0 27 4 57t15.5 70t35.5 97l150 -54q-14 -38 -21.5 -64.5t-10 -49.5
t-2.5 -49q0 -40 16.5 -65.5t43.5 -38t59 -12.5t55.5 9t39.5 26.5t23.5 43.5t7.5 60q0 53 -17 121.5t-40 144.5l172 45q9 -38 16.5 -67.5t13 -49t8.5 -29.5q7 -20 18.5 -36t37 -26.5t74.5 -16t131 -5.5q52 0 89.5 4.5t63.5 13t41 20.5t22 26t7 30t-7 30t-19.5 23t-31.5 9
q-23 0 -47.5 -14.5t-49 -38.5t-49 -54.5t-47.5 -62.5l-172 26q31 51 65.5 98t73 86.5t79 69t82.5 46t84 16.5q61 0 108 -29.5t73.5 -79.5t26.5 -113q0 -61 -23.5 -111t-69 -85t-112.5 -54t-155 -19q-42 0 -94.5 4.5t-103.5 15t-90.5 29.5t-55.5 47l65 -40q-3 -66 -28 -117
t-67.5 -86.5t-96.5 -53.5t-115 -18zM1009 729q-32 0 -53 21.5t-21 50.5q0 31 21 53t53 22q31 0 52.5 -22t21.5 -53q0 -29 -21.5 -50.5t-52.5 -21.5zM924 572q-31 0 -53.5 23t-22.5 53q0 29 22.5 52t53.5 23q29 0 50.5 -23t21.5 -52q0 -30 -21.5 -53t-50.5 -23zM1097 572
q-30 0 -50 23t-20 53q0 29 20 52t50 23q31 0 53 -23t22 -52q0 -30 -22 -53t-53 -23z" />
    <glyph glyph-name="uni069F.init" unicode="&#x69f;" horiz-adv-x="693" 
d="M0 -5l10 162h233q73 0 121 6.5t75.5 19.5t39 31t11.5 42q0 18 -8 31.5t-20.5 20.5t-27.5 7q-26 0 -51 -11.5t-50.5 -34t-53 -54.5t-59.5 -73l-176 13q49 75 97.5 136t98 104.5t102 67t108.5 23.5q65 0 111.5 -29.5t71.5 -79.5t25 -111q0 -80 -39.5 -138t-110.5 -91
q-25 -12 -61.5 -21t-81 -14.5t-95.5 -5.5zM111 99l-21 661h172l16 -452zM466 707q-32 0 -53 21.5t-21 50.5q0 31 21 53t53 22q31 0 52.5 -22t21.5 -53q0 -29 -21.5 -50.5t-52.5 -21.5zM381 550q-31 0 -53.5 23t-22.5 53q0 29 22.5 52t53.5 23q29 0 50.5 -23t21.5 -52
q0 -30 -21.5 -53t-50.5 -23zM554 550q-30 0 -50 23t-20 53q0 29 20 52t50 23q31 0 53 -23t22 -52q0 -30 -22 -53t-53 -23z" />
    <glyph glyph-name="uni069F.medi" unicode="&#x69f;" horiz-adv-x="703" 
d="M703 -5q-35 0 -73.5 12.5t-71.5 30.5t-54 35l95 116q29 -18 61 -25t52 -7q38 0 57 -23.5t19 -55.5q0 -38 -23.5 -60.5t-61.5 -22.5zM0 -5l10 162h233q73 0 121 6.5t75.5 19.5t39 31t11.5 42q0 18 -8 31.5t-20.5 20.5t-27.5 7q-26 0 -51 -11.5t-50.5 -34t-53 -54.5
t-59.5 -73l-176 13q49 75 97.5 136t98 104.5t102 67t108.5 23.5q65 0 111.5 -29.5t71.5 -79.5t25 -111q0 -80 -39.5 -138t-110.5 -91q-25 -12 -61.5 -21t-81 -14.5t-95.5 -5.5zM111 99l-21 661h172l16 -452zM466 707q-32 0 -53 21.5t-21 50.5q0 31 21 53t53 22
q31 0 52.5 -22t21.5 -53q0 -29 -21.5 -50.5t-52.5 -21.5zM381 550q-31 0 -53.5 23t-22.5 53q0 29 22.5 52t53.5 23q29 0 50.5 -23t21.5 -52q0 -30 -21.5 -53t-50.5 -23zM554 550q-30 0 -50 23t-20 53q0 29 20 52t50 23q31 0 53 -23t22 -52q0 -30 -22 -53t-53 -23z" />
    <glyph glyph-name="uni069F.fina" unicode="&#x69f;" horiz-adv-x="780" 
d="M780 -5q-35 0 -73.5 12.5t-71.5 30.5t-54 35l95 116q29 -18 61 -25t52 -7q38 0 57 -23.5t19 -55.5q0 -38 -23.5 -60.5t-61.5 -22.5zM369 -13q-46 0 -93 1t-93 3t-87.5 5.5t-75.5 9.5l20 166q51 -7 92.5 -11.5t76 -7t66 -3.5t62.5 -1q66 0 110.5 7.5t70 20t36.5 29.5
t11 36t-8.5 33t-22.5 22t-30 8q-18 0 -42 -13t-51.5 -36t-55.5 -54.5t-53 -67.5l-175 22q44 71 92.5 129.5t100 101.5t104 66.5t103.5 23.5q58 0 105 -27.5t74.5 -77.5t27.5 -117q0 -81 -41.5 -141.5t-122.5 -93.5t-201 -33zM186 99l-21 661h172l16 -452zM551 698
q-32 0 -53 21.5t-21 50.5q0 31 21 53t53 22q31 0 52.5 -22t21.5 -53q0 -29 -21.5 -50.5t-52.5 -21.5zM466 541q-31 0 -53.5 23t-22.5 53q0 29 22.5 52t53.5 23q29 0 50.5 -23t21.5 -52q0 -30 -21.5 -53t-50.5 -23zM639 541q-30 0 -50 23t-20 53q0 29 20 52t50 23
q31 0 53 -23t22 -52q0 -30 -22 -53t-53 -23z" />
    <glyph glyph-name="uni06A0.init" unicode="&#x6a0;" horiz-adv-x="490" 
d="M0 -5l10 162q17 0 30.5 0.5t31 3l45.5 6.5q-8 10 -21 30.5t-23.5 53.5t-10.5 79q0 64 30.5 109t80 69.5t107.5 24.5q22 0 47.5 -3.5t54.5 -11.5l-25 -149q-18 5 -30.5 6.5t-28.5 1.5q-18 0 -32 -8t-22.5 -23t-8.5 -36q0 -15 4 -29t10.5 -26t15 -22.5t18 -18.5t18.5 -13
q11 4 20.5 7t21 7.5t28.5 11.5t43 18l51 -143q-89 -40 -172 -63.5t-157 -33.5t-136 -10zM236 784q-32 0 -53 21.5t-21 50.5q0 31 21 53t53 22q31 0 52.5 -22t21.5 -53q0 -29 -21.5 -50.5t-52.5 -21.5zM151 627q-31 0 -53.5 23t-22.5 53q0 29 22.5 52t53.5 23q29 0 50.5 -23
t21.5 -52q0 -30 -21.5 -53t-50.5 -23zM324 627q-30 0 -50 23t-20 53q0 29 20 52t50 23q31 0 53 -23t22 -52q0 -30 -22 -53t-53 -23z" />
    <glyph glyph-name="uni06A0.medi" unicode="&#x6a0;" horiz-adv-x="531" 
d="M0 -5l10 162q66 0 118 10.5t91 28t65 39.5t39 45.5t13 45.5q0 12 -6.5 21.5t-19.5 14.5t-33 5q-19 0 -36.5 -4t-32 -11t-27.5 -17q18 -20 34.5 -39.5t33 -40.5t33.5 -47q24 -13 45 -22.5t47.5 -16t67 -9.5t101.5 -3q35 0 54 -23.5t19 -57.5q0 -36 -23.5 -58.5
t-59.5 -22.5q-71 0 -134 10.5t-120 34.5t-112 65q-24 35 -44 61t-36.5 47t-32.5 42q-5 7 -10 24t-8 34t-3 21q0 25 21.5 54.5t58 56.5t82 44.5t94.5 17.5q64 0 108.5 -20.5t68 -55.5t23.5 -81q0 -58 -25.5 -111t-71.5 -97.5t-107.5 -77.5t-134 -51t-150.5 -18zM270 758
q-32 0 -53 21.5t-21 50.5q0 31 21 53t53 22q31 0 52.5 -22t21.5 -53q0 -29 -21.5 -50.5t-52.5 -21.5zM185 601q-31 0 -53.5 23t-22.5 53q0 29 22.5 52t53.5 23q29 0 50.5 -23t21.5 -52q0 -30 -21.5 -53t-50.5 -23zM358 601q-30 0 -50 23t-20 53q0 29 20 52t50 23
q31 0 53 -23t22 -52q0 -30 -22 -53t-53 -23z" />
    <glyph glyph-name="uni06A0.fina" unicode="&#x6a0;" horiz-adv-x="538" 
d="M308 -394q-66 0 -121 17t-94.5 49t-61 77.5t-21.5 102.5q0 62 24 111t62.5 90t81.5 75.5t82 66t65 62.5t28 65q1 14 -7 24t-22 15.5t-33 5.5q-15 0 -32 -3t-33 -10t-29 -19q23 -24 39 -43t34 -41t45 -57q23 -15 55 -23t65.5 -10.5t63.5 -3t49 -0.5q36 0 55.5 -24
t19.5 -55q0 -38 -23.5 -60.5t-61.5 -22.5q-60 0 -122 9t-122.5 34.5t-116.5 74.5q-18 27 -34.5 49t-33.5 44t-38 48q-4 6 -9.5 23t-9 34t-3.5 23q0 25 21 54.5t57.5 56.5t82.5 44.5t96 17.5q88 0 143.5 -42t55.5 -120q0 -61 -23 -109t-59.5 -86t-77.5 -71.5t-77.5 -65.5
t-59.5 -67t-23 -78q0 -28 11 -47t29 -30.5t40.5 -17t45.5 -5.5q24 0 52 4.5t58.5 14t58.5 23.5l53 -141q-33 -20 -72.5 -34.5t-79 -21.5t-73.5 -7zM287 758q-32 0 -53 21.5t-21 50.5q0 31 21 53t53 22q31 0 52.5 -22t21.5 -53q0 -29 -21.5 -50.5t-52.5 -21.5zM202 601
q-31 0 -53.5 23t-22.5 53q0 29 22.5 52t53.5 23q29 0 50.5 -23t21.5 -52q0 -30 -21.5 -53t-50.5 -23zM375 601q-30 0 -50 23t-20 53q0 29 20 52t50 23q31 0 53 -23t22 -52q0 -30 -22 -53t-53 -23z" />
    <glyph glyph-name="uni06A1.init" unicode="&#x6a1;" horiz-adv-x="469" 
d="M0 -5l10 162h60t61 2t55.5 6t42.5 12q20 10 30.5 26.5t14 42.5t3.5 61q0 56 -5.5 90t-15 49.5t-23.5 15.5q-12 0 -20.5 -9.5t-12.5 -27t-4 -41.5q0 -16 5 -26.5t13.5 -16t20.5 -5.5q16 0 32.5 5t37.5 16l4 -112q-16 -13 -34.5 -23t-40 -15t-47.5 -5q-39 0 -72.5 18.5
t-53.5 54.5t-20 87q0 45 14 87t40.5 74.5t62.5 51.5t80 19q58 0 102 -36.5t69 -103.5t25 -161q0 -90 -24.5 -152t-81.5 -95q-30 -18 -68.5 -28t-81.5 -15t-88.5 -6.5t-89.5 -1.5z" />
    <glyph glyph-name="uni06A1.medi" unicode="&#x6a1;" horiz-adv-x="464" 
d="M0 -5l10 162q19 0 45 1t53.5 3t53.5 7t45 12q27 11 43.5 28.5t24 38.5t7.5 41q0 18 -6 33t-15.5 24.5t-19.5 9.5t-20 -8.5t-16.5 -24.5t-6.5 -38q0 -16 5.5 -34.5t19 -36t36.5 -30.5l-138 -58q-26 27 -44 53t-26.5 54.5t-8.5 62.5q0 44 17 81.5t45.5 65.5t65 43.5
t75.5 15.5q54 0 98 -29t69.5 -74t25.5 -95q0 -52 -16.5 -92.5t-43.5 -71t-59.5 -53.5t-65.5 -41q-26 -14 -60 -23.5t-70.5 -15.5t-68.5 -8.5t-54 -2.5zM464 -5q-38 0 -87 7.5t-96 20.5t-78 31l69 128q30 -12 68.5 -17.5t74.5 -6.5t59 -1q37 0 56 -23.5t19 -55.5
q0 -36 -23.5 -59.5t-61.5 -23.5z" />
    <glyph glyph-name="uni06A1.fina" unicode="&#x6a1;" horiz-adv-x="1018" 
d="M394 -21l26 162q47 0 97 3.5t96.5 9t83.5 12.5t56 15q33 13 50.5 32.5t24 40t6.5 35.5q0 12 -2.5 23.5t-8 21.5t-12.5 15.5t-16 5.5t-19.5 -8.5t-17.5 -24.5t-7 -39q0 -12 5.5 -28.5t18 -35t33.5 -36.5l-143 -58q-21 27 -37 53.5t-25.5 55t-9.5 59.5q0 44 18 82t48 66
t66 44t73 16q56 0 99.5 -29.5t69 -75.5t25.5 -96t-18 -90.5t-46 -72t-61 -54.5t-63 -38q-27 -14 -76 -26t-108 -21t-118.5 -14t-107.5 -5zM1018 -5q-44 0 -93.5 7t-94.5 19.5t-76 30.5l69 130q30 -10 66.5 -15.5t73 -7.5t65.5 -2q37 0 56 -23.5t19 -55.5q0 -36 -23.5 -59.5
t-61.5 -23.5zM394 -21q-103 0 -172.5 20t-111 54t-59 77t-17.5 89q0 40 7 77.5t17 70.5t19 58l141 -38q-5 -19 -10.5 -39.5t-9 -41t-3.5 -41.5q0 -35 17 -63.5t65.5 -44.5t142.5 -16l20 -130z" />
    <glyph glyph-name="fehDotMovedbelowar.init" unicode="&#x6a2;" horiz-adv-x="469" 
d="M0 -5l10 162h60t61 2t55.5 6t42.5 12q20 10 30.5 26.5t14 42.5t3.5 61q0 56 -5.5 90t-15 49.5t-23.5 15.5q-12 0 -20.5 -9.5t-12.5 -27t-4 -41.5q0 -16 5 -26.5t13.5 -16t20.5 -5.5q16 0 32.5 5t37.5 16l4 -112q-16 -13 -34.5 -23t-40 -15t-47.5 -5q-39 0 -72.5 18.5
t-53.5 54.5t-20 87q0 45 14 87t40.5 74.5t62.5 51.5t80 19q58 0 102 -36.5t69 -103.5t25 -161q0 -90 -24.5 -152t-81.5 -95q-30 -18 -68.5 -28t-81.5 -15t-88.5 -6.5t-89.5 -1.5zM183 -270q-34 0 -56.5 23t-22.5 55q0 34 22.5 57.5t56.5 23.5q33 0 55.5 -23.5t22.5 -56.5
t-22.5 -56t-55.5 -23z" />
    <glyph glyph-name="fehDotMovedbelowar.medi" unicode="&#x6a2;" horiz-adv-x="464" 
d="M0 -5l10 162q19 0 45 1t53.5 3t53.5 7t45 12q27 11 43.5 28.5t24 38.5t7.5 41q0 18 -6 33t-15.5 24.5t-19.5 9.5t-20 -8.5t-16.5 -24.5t-6.5 -38q0 -16 5.5 -34.5t19 -36t36.5 -30.5l-138 -58q-26 27 -44 53t-26.5 54.5t-8.5 62.5q0 44 17 81.5t45.5 65.5t65 43.5
t75.5 15.5q54 0 98 -29t69.5 -74t25.5 -95q0 -52 -16.5 -92.5t-43.5 -71t-59.5 -53.5t-65.5 -41q-26 -14 -60 -23.5t-70.5 -15.5t-68.5 -8.5t-54 -2.5zM464 -5q-38 0 -87 7.5t-96 20.5t-78 31l69 128q30 -12 68.5 -17.5t74.5 -6.5t59 -1q37 0 56 -23.5t19 -55.5
q0 -36 -23.5 -59.5t-61.5 -23.5zM241 -271q-34 0 -56.5 23t-22.5 55q0 34 22.5 57.5t56.5 23.5q33 0 55.5 -23.5t22.5 -56.5t-22.5 -56t-55.5 -23z" />
    <glyph glyph-name="fehDotMovedbelowar.fina" unicode="&#x6a2;" horiz-adv-x="1018" 
d="M394 -21l26 162q47 0 97 3.5t96.5 9t83.5 12.5t56 15q33 13 50.5 32.5t24 40t6.5 35.5q0 12 -2.5 23.5t-8 21.5t-12.5 15.5t-16 5.5t-19.5 -8.5t-17.5 -24.5t-7 -39q0 -12 5.5 -28.5t18 -35t33.5 -36.5l-143 -58q-21 27 -37 53.5t-25.5 55t-9.5 59.5q0 44 18 82t48 66
t66 44t73 16q56 0 99.5 -29.5t69 -75.5t25.5 -96t-18 -90.5t-46 -72t-61 -54.5t-63 -38q-27 -14 -76 -26t-108 -21t-118.5 -14t-107.5 -5zM1018 -5q-44 0 -93.5 7t-94.5 19.5t-76 30.5l69 130q30 -10 66.5 -15.5t73 -7.5t65.5 -2q37 0 56 -23.5t19 -55.5q0 -36 -23.5 -59.5
t-61.5 -23.5zM394 -21q-103 0 -172.5 20t-111 54t-59 77t-17.5 89q0 40 7 77.5t17 70.5t19 58l141 -38q-5 -19 -10.5 -39.5t-9 -41t-3.5 -41.5q0 -35 17 -63.5t65.5 -44.5t142.5 -16l20 -130zM487 -263q-34 0 -56.5 23t-22.5 55q0 34 22.5 57.5t56.5 23.5q33 0 55.5 -23.5
t22.5 -56.5t-22.5 -56t-55.5 -23z" />
    <glyph glyph-name="uni06A3.init" unicode="&#x6a3;" horiz-adv-x="469" 
d="M0 -5l10 162h60t61 2t55.5 6t42.5 12q20 10 30.5 26.5t14 42.5t3.5 61q0 56 -5.5 90t-15 49.5t-23.5 15.5q-12 0 -20.5 -9.5t-12.5 -27t-4 -41.5q0 -16 5 -26.5t13.5 -16t20.5 -5.5q16 0 32.5 5t37.5 16l4 -112q-16 -13 -34.5 -23t-40 -15t-47.5 -5q-39 0 -72.5 18.5
t-53.5 54.5t-20 87q0 45 14 87t40.5 74.5t62.5 51.5t80 19q58 0 102 -36.5t69 -103.5t25 -161q0 -90 -24.5 -152t-81.5 -95q-30 -18 -68.5 -28t-81.5 -15t-88.5 -6.5t-89.5 -1.5zM219 691q-34 0 -56.5 23t-22.5 55q0 34 22.5 58t56.5 24q33 0 55.5 -24t22.5 -57t-22.5 -56
t-55.5 -23zM183 -270q-34 0 -56.5 23t-22.5 55q0 34 22.5 57.5t56.5 23.5q33 0 55.5 -23.5t22.5 -56.5t-22.5 -56t-55.5 -23z" />
    <glyph glyph-name="uni06A3.medi" unicode="&#x6a3;" horiz-adv-x="464" 
d="M0 -5l10 162q19 0 45 1t53.5 3t53.5 7t45 12q27 11 43.5 28.5t24 38.5t7.5 41q0 18 -6 33t-15.5 24.5t-19.5 9.5t-20 -8.5t-16.5 -24.5t-6.5 -38q0 -16 5.5 -34.5t19 -36t36.5 -30.5l-138 -58q-26 27 -44 53t-26.5 54.5t-8.5 62.5q0 44 17 81.5t45.5 65.5t65 43.5
t75.5 15.5q54 0 98 -29t69.5 -74t25.5 -95q0 -52 -16.5 -92.5t-43.5 -71t-59.5 -53.5t-65.5 -41q-26 -14 -60 -23.5t-70.5 -15.5t-68.5 -8.5t-54 -2.5zM464 -5q-38 0 -87 7.5t-96 20.5t-78 31l69 128q30 -12 68.5 -17.5t74.5 -6.5t59 -1q37 0 56 -23.5t19 -55.5
q0 -36 -23.5 -59.5t-61.5 -23.5zM248 598q-34 0 -56.5 23t-22.5 55q0 34 22.5 58t56.5 24q33 0 55.5 -24t22.5 -57t-22.5 -56t-55.5 -23zM241 -271q-34 0 -56.5 23t-22.5 55q0 34 22.5 57.5t56.5 23.5q33 0 55.5 -23.5t22.5 -56.5t-22.5 -56t-55.5 -23z" />
    <glyph glyph-name="uni06A3.fina" unicode="&#x6a3;" horiz-adv-x="1018" 
d="M394 -21l26 162q47 0 97 3.5t96.5 9t83.5 12.5t56 15q33 13 50.5 32.5t24 40t6.5 35.5q0 12 -2.5 23.5t-8 21.5t-12.5 15.5t-16 5.5t-19.5 -8.5t-17.5 -24.5t-7 -39q0 -12 5.5 -28.5t18 -35t33.5 -36.5l-143 -58q-21 27 -37 53.5t-25.5 55t-9.5 59.5q0 44 18 82t48 66
t66 44t73 16q56 0 99.5 -29.5t69 -75.5t25.5 -96t-18 -90.5t-46 -72t-61 -54.5t-63 -38q-27 -14 -76 -26t-108 -21t-118.5 -14t-107.5 -5zM1018 -5q-44 0 -93.5 7t-94.5 19.5t-76 30.5l69 130q30 -10 66.5 -15.5t73 -7.5t65.5 -2q37 0 56 -23.5t19 -55.5q0 -36 -23.5 -59.5
t-61.5 -23.5zM394 -21q-103 0 -172.5 20t-111 54t-59 77t-17.5 89q0 40 7 77.5t17 70.5t19 58l141 -38q-5 -19 -10.5 -39.5t-9 -41t-3.5 -41.5q0 -35 17 -63.5t65.5 -44.5t142.5 -16l20 -130zM799 598q-34 0 -56.5 23t-22.5 55q0 34 22.5 58t56.5 24q33 0 55.5 -24t22.5 -57
t-22.5 -56t-55.5 -23zM487 -263q-34 0 -56.5 23t-22.5 55q0 34 22.5 57.5t56.5 23.5q33 0 55.5 -23.5t22.5 -56.5t-22.5 -56t-55.5 -23z" />
    <glyph glyph-name="uni06A5.init" unicode="&#x6a5;" horiz-adv-x="469" 
d="M0 -5l10 162h60t61 2t55.5 6t42.5 12q20 10 30.5 26.5t14 42.5t3.5 61q0 56 -5.5 90t-15 49.5t-23.5 15.5q-12 0 -20.5 -9.5t-12.5 -27t-4 -41.5q0 -16 5 -26.5t13.5 -16t20.5 -5.5q16 0 32.5 5t37.5 16l4 -112q-16 -13 -34.5 -23t-40 -15t-47.5 -5q-39 0 -72.5 18.5
t-53.5 54.5t-20 87q0 45 14 87t40.5 74.5t62.5 51.5t80 19q58 0 102 -36.5t69 -103.5t25 -161q0 -90 -24.5 -152t-81.5 -95q-30 -18 -68.5 -28t-81.5 -15t-88.5 -6.5t-89.5 -1.5zM180 -415q-31 0 -52 21t-21 52q0 30 21 52.5t52 22.5q30 0 51 -22.5t21 -52.5q0 -31 -21 -52
t-51 -21zM93 -259q-31 0 -52 21t-21 52q0 30 21 52.5t52 22.5t52 -22.5t21 -52.5q0 -31 -21 -52t-52 -21zM271 -259q-31 0 -52 21t-21 52q0 30 21 52.5t52 22.5q32 0 52.5 -22.5t20.5 -52.5q0 -31 -20.5 -52t-52.5 -21z" />
    <glyph glyph-name="uni06A5.medi" unicode="&#x6a5;" horiz-adv-x="464" 
d="M0 -5l10 162q19 0 45 1t53.5 3t53.5 7t45 12q27 11 43.5 28.5t24 38.5t7.5 41q0 18 -6 33t-15.5 24.5t-19.5 9.5t-20 -8.5t-16.5 -24.5t-6.5 -38q0 -16 5.5 -34.5t19 -36t36.5 -30.5l-138 -58q-26 27 -44 53t-26.5 54.5t-8.5 62.5q0 44 17 81.5t45.5 65.5t65 43.5
t75.5 15.5q54 0 98 -29t69.5 -74t25.5 -95q0 -52 -16.5 -92.5t-43.5 -71t-59.5 -53.5t-65.5 -41q-26 -14 -60 -23.5t-70.5 -15.5t-68.5 -8.5t-54 -2.5zM464 -5q-38 0 -87 7.5t-96 20.5t-78 31l69 128q30 -12 68.5 -17.5t74.5 -6.5t59 -1q37 0 56 -23.5t19 -55.5
q0 -36 -23.5 -59.5t-61.5 -23.5zM238 -416q-31 0 -52 21t-21 52q0 30 21 52.5t52 22.5q30 0 51 -22.5t21 -52.5q0 -31 -21 -52t-51 -21zM151 -260q-31 0 -52 21t-21 52q0 30 21 52.5t52 22.5t52 -22.5t21 -52.5q0 -31 -21 -52t-52 -21zM329 -260q-31 0 -52 21t-21 52
q0 30 21 52.5t52 22.5q32 0 52.5 -22.5t20.5 -52.5q0 -31 -20.5 -52t-52.5 -21z" />
    <glyph glyph-name="uni06A5.fina" unicode="&#x6a5;" horiz-adv-x="1018" 
d="M394 -21l26 162q47 0 97 3.5t96.5 9t83.5 12.5t56 15q33 13 50.5 32.5t24 40t6.5 35.5q0 12 -2.5 23.5t-8 21.5t-12.5 15.5t-16 5.5t-19.5 -8.5t-17.5 -24.5t-7 -39q0 -12 5.5 -28.5t18 -35t33.5 -36.5l-143 -58q-21 27 -37 53.5t-25.5 55t-9.5 59.5q0 44 18 82t48 66
t66 44t73 16q56 0 99.5 -29.5t69 -75.5t25.5 -96t-18 -90.5t-46 -72t-61 -54.5t-63 -38q-27 -14 -76 -26t-108 -21t-118.5 -14t-107.5 -5zM1018 -5q-44 0 -93.5 7t-94.5 19.5t-76 30.5l69 130q30 -10 66.5 -15.5t73 -7.5t65.5 -2q37 0 56 -23.5t19 -55.5q0 -36 -23.5 -59.5
t-61.5 -23.5zM394 -21q-103 0 -172.5 20t-111 54t-59 77t-17.5 89q0 40 7 77.5t17 70.5t19 58l141 -38q-5 -19 -10.5 -39.5t-9 -41t-3.5 -41.5q0 -35 17 -63.5t65.5 -44.5t142.5 -16l20 -130zM484 -408q-31 0 -52 21t-21 52q0 30 21 52.5t52 22.5q30 0 51 -22.5t21 -52.5
q0 -31 -21 -52t-51 -21zM397 -252q-31 0 -52 21t-21 52q0 30 21 52.5t52 22.5t52 -22.5t21 -52.5q0 -31 -21 -52t-52 -21zM575 -252q-31 0 -52 21t-21 52q0 30 21 52.5t52 22.5q32 0 52.5 -22.5t20.5 -52.5q0 -31 -20.5 -52t-52.5 -21z" />
    <glyph glyph-name="uni06A7.fina" unicode="&#x6a7;" horiz-adv-x="780" 
d="M329 -272q-58 0 -112.5 15t-98 47.5t-69 83t-25.5 120.5q0 28 4 58.5t16 71.5t36 100l149 -55q-14 -39 -21.5 -63.5t-10 -43t-2.5 -40.5q0 -39 19 -68.5t55 -46.5t86 -17q31 0 59.5 6.5t53 17.5t44 26t33.5 32.5t21 36.5q9 23 12 55.5t3 77.5q0 51 -6 81.5t-17 43.5
t-26 13q-9 0 -15 -6t-10.5 -16t-6.5 -21.5t-2 -23.5q0 -21 5 -35.5t23 -22t58 -7.5t110 9h96q37 0 56 -23.5t19 -55.5q0 -36 -21.5 -59.5t-63.5 -23.5h-164q-53 0 -102 8t-87.5 28t-61 55t-22.5 90q0 47 13.5 89.5t39.5 75.5t63 52t83 19q55 0 100 -35.5t71.5 -100.5
t26.5 -152q0 -58 -16 -110.5t-37 -90.5q-25 -46 -62.5 -82t-84.5 -61.5t-100.5 -38.5t-110.5 -13zM543 509q-34 0 -56.5 23t-22.5 55q0 34 22.5 58t56.5 24q33 0 55.5 -24t22.5 -57t-22.5 -56t-55.5 -23z" />
    <glyph glyph-name="uni06A8.init" unicode="&#x6a8;" horiz-adv-x="469" 
d="M0 -5l10 162h60t61 2t55.5 6t42.5 12q20 10 30.5 26.5t14 42.5t3.5 61q0 56 -5.5 90t-15 49.5t-23.5 15.5q-12 0 -20.5 -9.5t-12.5 -27t-4 -41.5q0 -16 5 -26.5t13.5 -16t20.5 -5.5q16 0 32.5 5t37.5 16l4 -112q-16 -13 -34.5 -23t-40 -15t-47.5 -5q-39 0 -72.5 18.5
t-53.5 54.5t-20 87q0 45 14 87t40.5 74.5t62.5 51.5t80 19q58 0 102 -36.5t69 -103.5t25 -161q0 -90 -24.5 -152t-81.5 -95q-30 -18 -68.5 -28t-81.5 -15t-88.5 -6.5t-89.5 -1.5zM217 845q-32 0 -53 21.5t-21 50.5q0 31 21 53t53 22q31 0 52.5 -22t21.5 -53
q0 -29 -21.5 -50.5t-52.5 -21.5zM132 688q-31 0 -53.5 23t-22.5 53q0 29 22.5 52t53.5 23q29 0 50.5 -23t21.5 -52q0 -30 -21.5 -53t-50.5 -23zM305 688q-30 0 -50 23t-20 53q0 29 20 52t50 23q31 0 53 -23t22 -52q0 -30 -22 -53t-53 -23z" />
    <glyph glyph-name="uni06A8.medi" unicode="&#x6a8;" horiz-adv-x="464" 
d="M0 -5l10 162q19 0 45 1t53.5 3t53.5 7t45 12q27 11 43.5 28.5t24 38.5t7.5 41q0 18 -6 33t-15.5 24.5t-19.5 9.5t-20 -8.5t-16.5 -24.5t-6.5 -38q0 -16 5.5 -34.5t19 -36t36.5 -30.5l-138 -58q-26 27 -44 53t-26.5 54.5t-8.5 62.5q0 44 17 81.5t45.5 65.5t65 43.5
t75.5 15.5q54 0 98 -29t69.5 -74t25.5 -95q0 -52 -16.5 -92.5t-43.5 -71t-59.5 -53.5t-65.5 -41q-26 -14 -60 -23.5t-70.5 -15.5t-68.5 -8.5t-54 -2.5zM464 -5q-38 0 -87 7.5t-96 20.5t-78 31l69 128q30 -12 68.5 -17.5t74.5 -6.5t59 -1q37 0 56 -23.5t19 -55.5
q0 -36 -23.5 -59.5t-61.5 -23.5zM246 752q-32 0 -53 21.5t-21 50.5q0 31 21 53t53 22q31 0 52.5 -22t21.5 -53q0 -29 -21.5 -50.5t-52.5 -21.5zM161 595q-31 0 -53.5 23t-22.5 53q0 29 22.5 52t53.5 23q29 0 50.5 -23t21.5 -52q0 -30 -21.5 -53t-50.5 -23zM334 595
q-30 0 -50 23t-20 53q0 29 20 52t50 23q31 0 53 -23t22 -52q0 -30 -22 -53t-53 -23z" />
    <glyph glyph-name="uni06A8.fina" unicode="&#x6a8;" horiz-adv-x="780" 
d="M329 -272q-58 0 -112.5 15t-98 47.5t-69 83t-25.5 120.5q0 28 4 58.5t16 71.5t36 100l149 -55q-14 -39 -21.5 -63.5t-10 -43t-2.5 -40.5q0 -39 19 -68.5t55 -46.5t86 -17q31 0 59.5 6.5t53 17.5t44 26t33.5 32.5t21 36.5q9 23 12 55.5t3 77.5q0 51 -6 81.5t-17 43.5
t-26 13q-9 0 -15 -6t-10.5 -16t-6.5 -21.5t-2 -23.5q0 -21 5 -35.5t23 -22t58 -7.5t110 9h96q37 0 56 -23.5t19 -55.5q0 -36 -21.5 -59.5t-63.5 -23.5h-164q-53 0 -102 8t-87.5 28t-61 55t-22.5 90q0 47 13.5 89.5t39.5 75.5t63 52t83 19q55 0 100 -35.5t71.5 -100.5
t26.5 -152q0 -58 -16 -110.5t-37 -90.5q-25 -46 -62.5 -82t-84.5 -61.5t-100.5 -38.5t-110.5 -13zM541 663q-32 0 -53 21.5t-21 50.5q0 31 21 53t53 22q31 0 52.5 -22t21.5 -53q0 -29 -21.5 -50.5t-52.5 -21.5zM456 506q-31 0 -53.5 23t-22.5 53q0 29 22.5 52t53.5 23
q29 0 50.5 -23t21.5 -52q0 -30 -21.5 -53t-50.5 -23zM629 506q-30 0 -50 23t-20 53q0 29 20 52t50 23q31 0 53 -23t22 -52q0 -30 -22 -53t-53 -23z" />
    <glyph glyph-name="uni06AA.init" unicode="&#x6aa;" horiz-adv-x="779" 
d="M0 -4l10 161h287q86 0 142.5 0.5t89 3t46.5 8.5t14 17q0 8 -8 14t-26 11.5t-49.5 11t-79.5 11.5q-110 15 -174 36t-90.5 52t-26.5 75q0 57 29 100t78 75t110 54.5t126 38.5l34 -140q-58 -14 -106 -30.5t-76 -32.5t-28 -32q0 -12 12.5 -20t48.5 -15t105 -18
q77 -12 129.5 -28.5t83.5 -41t44.5 -57t13.5 -75.5q0 -50 -25 -84.5t-78 -55.5t-137 -30t-202 -9h-297z" />
    <glyph glyph-name="uni06AA.medi" unicode="&#x6aa;" horiz-adv-x="797" 
d="M797 -5q-35 0 -73.5 12.5t-71.5 30.5t-54 35l95 116q29 -18 61 -25t52 -7q38 0 57 -23.5t19 -55.5q0 -38 -23.5 -60.5t-61.5 -22.5zM0 -4l10 161h287q86 0 142.5 0.5t89 3t46.5 8.5t14 17q0 8 -8 14t-26 11.5t-49.5 11t-79.5 11.5q-110 15 -174 36t-90.5 52t-26.5 75
q0 57 29 100t78 75t110 54.5t126 38.5l34 -140q-58 -14 -106 -30.5t-76 -32.5t-28 -32q0 -12 12.5 -20t48.5 -15t105 -18q77 -12 129.5 -28.5t83.5 -41t44.5 -57t13.5 -75.5q0 -50 -25 -84.5t-78 -55.5t-137 -30t-202 -9h-297z" />
    <glyph glyph-name="uni06AA.fina" unicode="&#x6aa;" horiz-adv-x="976" 
d="M976 -5q-35 0 -73.5 12.5t-71.5 30.5t-54 35l95 116q29 -18 61 -25t52 -7q38 0 57 -23.5t19 -55.5q0 -38 -23.5 -60.5t-61.5 -22.5zM476 -15q-33 0 -86 1t-115 3t-122.5 6t-107.5 9l6 154q50 -3 104.5 -6t110 -5.5t109 -4t101.5 -1.5q86 0 142.5 2t89 6.5t46.5 12
t14 18.5q0 10 -8 17t-26 13t-49.5 12t-79.5 12q-110 15 -174 36t-90.5 52t-26.5 75q0 57 29 100t78 75t110 54.5t126 38.5l34 -140q-58 -14 -106 -30.5t-76 -32.5t-28 -32q0 -12 12.5 -20t48.5 -15t105 -18q77 -12 129.5 -28.5t83.5 -41t44.5 -57t13.5 -75.5q0 -50 -25 -86
t-78 -59t-137 -34t-202 -11z" />
    <glyph glyph-name="uni06AB.init" unicode="&#x6ab;" horiz-adv-x="406" 
d="M320 428q-37 0 -62.5 25.5t-25.5 62.5t25.5 62.5t62.5 25.5t62.5 -25.5t25.5 -62.5t-25.5 -62.5t-62.5 -25.5zM320 490q11 0 19.5 7.5t8.5 18.5q0 12 -8.5 19.5t-19.5 7.5t-19.5 -8t-8.5 -19t8.5 -18.5t19.5 -7.5zM0 -5l10 162h105q17 0 28.5 2t18 6t9.5 11t3 17
q0 29 -17 60.5t-40 61.5t-39 50t-25.5 33t-14 22.5t-4.5 17.5q0 15 2.5 37t7 42t11.5 27q17 18 40.5 38t56 43t76.5 50t103 60l83 -134q-55 -30 -95.5 -54t-70.5 -43.5t-51.5 -37t-38.5 -34.5l8 88q39 -42 72.5 -84t58.5 -83t39 -81t14 -79q0 -33 -12.5 -67.5t-41 -64
t-76.5 -48t-119 -18.5h-101z" />
    <glyph glyph-name="uni06AB.medi" unicode="&#x6ab;" horiz-adv-x="442" 
d="M320 428q-37 0 -62.5 25.5t-25.5 62.5t25.5 62.5t62.5 25.5t62.5 -25.5t25.5 -62.5t-25.5 -62.5t-62.5 -25.5zM320 490q11 0 19.5 7.5t8.5 18.5q0 12 -8.5 19.5t-19.5 7.5t-19.5 -8t-8.5 -19t8.5 -18.5t19.5 -7.5zM0 -5l10 162h102q27 0 40.5 4t17.5 12.5t4 19.5
q0 21 -10.5 45t-26.5 48.5t-34.5 48t-34.5 44t-26.5 36t-10.5 23.5q0 15 2.5 37t7 42t11.5 27q17 18 41 38t57 43t77.5 50t103.5 60l83 -134q-57 -31 -99 -56t-73 -45.5t-53.5 -38.5t-39.5 -36l16 95q19 -26 42 -55.5t46.5 -63t45.5 -72.5t39 -85q15 -41 31 -59.5t36.5 -23
t46.5 -4.5q37 0 56 -23.5t19 -55.5q0 -36 -23.5 -59.5t-61.5 -23.5q-44 0 -79 12t-58 38.5t-33 71.5h59q-15 -29 -37 -52t-51.5 -38.5t-67.5 -23.5t-84 -8h-91z" />
    <glyph glyph-name="uni06AB.fina" unicode="&#x6ab;" horiz-adv-x="889" 
d="M745 428q-37 0 -62.5 25.5t-25.5 62.5t25.5 62.5t62.5 25.5t62.5 -25.5t25.5 -62.5t-25.5 -62.5t-62.5 -25.5zM745 490q11 0 19.5 7.5t8.5 18.5q0 12 -8.5 19.5t-19.5 7.5t-19.5 -8t-8.5 -19t8.5 -18.5t19.5 -7.5zM394 -21l26 162q44 0 77.5 3.5t56.5 11t34.5 19.5
t11.5 28q0 18 -10 39t-26 44.5t-34.5 46t-34.5 43t-26 36t-10 23.5q0 15 2.5 37t7 42t11.5 27q20 24 54.5 52t89 63.5t132.5 78.5l83 -134q-73 -40 -121.5 -70t-80 -54.5t-54.5 -47.5l12 91q23 -26 47.5 -56t48.5 -64.5t45 -73t37 -82.5q9 -27 23 -44t31.5 -26.5t35.5 -13
t36 -3.5q37 0 56 -23.5t19 -55.5q0 -36 -23.5 -59.5t-61.5 -23.5q-43 0 -78 12t-59 38.5t-34 71.5h38q-20 -40 -53.5 -67t-79 -42.5t-103 -22t-126.5 -6.5zM394 -21q-103 0 -172.5 20t-111 54t-59 77t-17.5 89q0 40 7 77.5t17 70.5t19 58l141 -38q-5 -19 -10.5 -39.5t-9 -41
t-3.5 -41.5q0 -35 17 -63.5t65.5 -44.5t142.5 -16l20 -130z" />
    <glyph glyph-name="uni06AC.init" unicode="&#x6ac;" horiz-adv-x="406" 
d="M0 -5l10 162h105q17 0 28.5 2t18 6t9.5 11t3 17q0 29 -17 60.5t-40 61.5t-39 50t-25.5 33t-14 22.5t-4.5 17.5q0 15 2.5 37t7 42t11.5 27q17 18 40.5 38t56 43t76.5 50t103 60l83 -134q-55 -30 -95.5 -54t-70.5 -43.5t-51.5 -37t-38.5 -34.5l8 88q39 -42 72.5 -84
t58.5 -83t39 -81t14 -79q0 -33 -12.5 -67.5t-41 -64t-76.5 -48t-119 -18.5h-101zM151 731q-34 0 -56.5 23t-22.5 55q0 34 22.5 58t56.5 24q33 0 55.5 -24t22.5 -57t-22.5 -56t-55.5 -23z" />
    <glyph glyph-name="uni06AC.medi" unicode="&#x6ac;" horiz-adv-x="442" 
d="M0 -5l10 162h102q27 0 40.5 4t17.5 12.5t4 19.5q0 21 -10.5 45t-26.5 48.5t-34.5 48t-34.5 44t-26.5 36t-10.5 23.5q0 15 2.5 37t7 42t11.5 27q17 18 41 38t57 43t77.5 50t103.5 60l83 -134q-57 -31 -99 -56t-73 -45.5t-53.5 -38.5t-39.5 -36l16 95q19 -26 42 -55.5
t46.5 -63t45.5 -72.5t39 -85q15 -41 31 -59.5t36.5 -23t46.5 -4.5q37 0 56 -23.5t19 -55.5q0 -36 -23.5 -59.5t-61.5 -23.5q-44 0 -79 12t-58 38.5t-33 71.5h59q-15 -29 -37 -52t-51.5 -38.5t-67.5 -23.5t-84 -8h-91zM151 731q-34 0 -56.5 23t-22.5 55q0 34 22.5 58t56.5 24
q33 0 55.5 -24t22.5 -57t-22.5 -56t-55.5 -23z" />
    <glyph glyph-name="uni06AC.fina" unicode="&#x6ac;" horiz-adv-x="942" 
d="M394 -21l26 162q91 -2 147.5 5t85.5 29t38 64t5 110l-26 411h168l23 -428q4 -73 14.5 -110.5t29 -51t47.5 -13.5q37 0 56 -23.5t19 -54.5q0 -37 -23.5 -60.5t-61.5 -23.5q-34 0 -69.5 13t-62.5 44t-37 85h60q-25 -55 -70.5 -87.5t-104.5 -48t-126.5 -19.5t-137.5 -3z
M357 224l-30 114q35 7 58 14t34 14.5t11 17.5q0 8 -9 19.5t-21 25.5t-21 31.5t-9 38.5q0 30 15.5 55t47.5 46t82 40l51 -103q-39 -14 -54.5 -27t-15.5 -27q0 -10 9.5 -23t21.5 -28.5t21.5 -33t9.5 -37.5q0 -18 -6 -36.5t-26 -36.5t-60 -34t-109 -30zM394 -21
q-103 0 -172.5 20t-111 54t-59 77t-17.5 89q0 40 7 77.5t17 70.5t19 58l141 -38q-5 -19 -10.5 -39.5t-9 -41t-3.5 -41.5q0 -35 17 -63.5t65.5 -44.5t142.5 -16l20 -130zM487 667q-34 0 -56.5 23t-22.5 55q0 34 22.5 58t56.5 24q33 0 55.5 -24t22.5 -57t-22.5 -56t-55.5 -23z
" />
    <glyph glyph-name="uni06AE.init" unicode="&#x6ae;" horiz-adv-x="406" 
d="M0 -5l10 162h105q17 0 28.5 2t18 6t9.5 11t3 17q0 29 -17 60.5t-40 61.5t-39 50t-25.5 33t-14 22.5t-4.5 17.5q0 15 2.5 37t7 42t11.5 27q17 18 40.5 38t56 43t76.5 50t103 60l83 -134q-55 -30 -95.5 -54t-70.5 -43.5t-51.5 -37t-38.5 -34.5l8 88q39 -42 72.5 -84
t58.5 -83t39 -81t14 -79q0 -33 -12.5 -67.5t-41 -64t-76.5 -48t-119 -18.5h-101zM186 -390q-31 0 -52 21t-21 52q0 30 21 52.5t52 22.5q30 0 51 -22.5t21 -52.5q0 -31 -21 -52t-51 -21zM99 -234q-31 0 -52 21t-21 52q0 30 21 52.5t52 22.5t52 -22.5t21 -52.5q0 -31 -21 -52
t-52 -21zM277 -234q-31 0 -52 21t-21 52q0 30 21 52.5t52 22.5q32 0 52.5 -22.5t20.5 -52.5q0 -31 -20.5 -52t-52.5 -21z" />
    <glyph glyph-name="uni06AE.medi" unicode="&#x6ae;" horiz-adv-x="442" 
d="M0 -5l10 162h102q27 0 40.5 4t17.5 12.5t4 19.5q0 21 -10.5 45t-26.5 48.5t-34.5 48t-34.5 44t-26.5 36t-10.5 23.5q0 15 2.5 37t7 42t11.5 27q17 18 41 38t57 43t77.5 50t103.5 60l83 -134q-57 -31 -99 -56t-73 -45.5t-53.5 -38.5t-39.5 -36l16 95q19 -26 42 -55.5
t46.5 -63t45.5 -72.5t39 -85q15 -41 31 -59.5t36.5 -23t46.5 -4.5q37 0 56 -23.5t19 -55.5q0 -36 -23.5 -59.5t-61.5 -23.5q-44 0 -79 12t-58 38.5t-33 71.5h59q-15 -29 -37 -52t-51.5 -38.5t-67.5 -23.5t-84 -8h-91zM176 -390q-31 0 -52 21t-21 52q0 30 21 52.5t52 22.5
q30 0 51 -22.5t21 -52.5q0 -31 -21 -52t-51 -21zM89 -234q-31 0 -52 21t-21 52q0 30 21 52.5t52 22.5t52 -22.5t21 -52.5q0 -31 -21 -52t-52 -21zM267 -234q-31 0 -52 21t-21 52q0 30 21 52.5t52 22.5q32 0 52.5 -22.5t20.5 -52.5q0 -31 -20.5 -52t-52.5 -21z" />
    <glyph glyph-name="uni06AE.fina" unicode="&#x6ae;" horiz-adv-x="942" 
d="M394 -21l26 162q91 -2 147.5 5t85.5 29t38 64t5 110l-26 411h168l23 -428q4 -73 14.5 -110.5t29 -51t47.5 -13.5q37 0 56 -23.5t19 -54.5q0 -37 -23.5 -60.5t-61.5 -23.5q-34 0 -69.5 13t-62.5 44t-37 85h60q-25 -55 -70.5 -87.5t-104.5 -48t-126.5 -19.5t-137.5 -3z
M357 224l-30 114q35 7 58 14t34 14.5t11 17.5q0 8 -9 19.5t-21 25.5t-21 31.5t-9 38.5q0 30 15.5 55t47.5 46t82 40l51 -103q-39 -14 -54.5 -27t-15.5 -27q0 -10 9.5 -23t21.5 -28.5t21.5 -33t9.5 -37.5q0 -18 -6 -36.5t-26 -36.5t-60 -34t-109 -30zM394 -21
q-103 0 -172.5 20t-111 54t-59 77t-17.5 89q0 40 7 77.5t17 70.5t19 58l141 -38q-5 -19 -10.5 -39.5t-9 -41t-3.5 -41.5q0 -35 17 -63.5t65.5 -44.5t142.5 -16l20 -130zM437 -411q-31 0 -52 21t-21 52q0 30 21 52.5t52 22.5q30 0 51 -22.5t21 -52.5q0 -31 -21 -52t-51 -21z
M350 -255q-31 0 -52 21t-21 52q0 30 21 52.5t52 22.5t52 -22.5t21 -52.5q0 -31 -21 -52t-52 -21zM528 -255q-31 0 -52 21t-21 52q0 30 21 52.5t52 22.5q32 0 52.5 -22.5t20.5 -52.5q0 -31 -20.5 -52t-52.5 -21z" />
    <glyph glyph-name="uni06B0.init" unicode="&#x6b0;" horiz-adv-x="406" 
d="M321 429q-37 0 -62.5 25.5t-25.5 62.5t25.5 62.5t62.5 25.5t62.5 -25.5t25.5 -62.5t-25.5 -62.5t-62.5 -25.5zM321 491q11 0 19.5 7.5t8.5 18.5q0 12 -8.5 19.5t-19.5 7.5t-19.5 -8t-8.5 -19t8.5 -18.5t19.5 -7.5zM37 617l-69 115q35 24 73.5 49t86.5 55t108 68l71 -119
q-60 -34 -108.5 -64t-88 -55.5t-73.5 -48.5zM0 -5l10 162h105q17 0 28.5 2t18 6t9.5 11t3 17q0 29 -17 60.5t-40 61.5t-39 50t-25.5 33t-14 22.5t-4.5 17.5q0 15 2.5 37t7 42t11.5 27q17 18 40.5 38t56 43t76.5 50t103 60l83 -134q-55 -30 -95.5 -54t-70.5 -43.5t-51.5 -37
t-38.5 -34.5l8 88q39 -42 72.5 -84t58.5 -83t39 -81t14 -79q0 -33 -12.5 -67.5t-41 -64t-76.5 -48t-119 -18.5h-101z" />
    <glyph glyph-name="uni06B0.medi" unicode="&#x6b0;" horiz-adv-x="442" 
d="M321 429q-37 0 -62.5 25.5t-25.5 62.5t25.5 62.5t62.5 25.5t62.5 -25.5t25.5 -62.5t-25.5 -62.5t-62.5 -25.5zM321 491q11 0 19.5 7.5t8.5 18.5q0 12 -8.5 19.5t-19.5 7.5t-19.5 -8t-8.5 -19t8.5 -18.5t19.5 -7.5zM37 617l-69 115q35 24 73.5 49t86.5 55t108 68l71 -119
q-60 -34 -108.5 -64t-88 -55.5t-73.5 -48.5zM0 -5l10 162h102q27 0 40.5 4t17.5 12.5t4 19.5q0 21 -10.5 45t-26.5 48.5t-34.5 48t-34.5 44t-26.5 36t-10.5 23.5q0 15 2.5 37t7 42t11.5 27q17 18 41 38t57 43t77.5 50t103.5 60l83 -134q-57 -31 -99 -56t-73 -45.5
t-53.5 -38.5t-39.5 -36l16 95q19 -26 42 -55.5t46.5 -63t45.5 -72.5t39 -85q15 -41 31 -59.5t36.5 -23t46.5 -4.5q37 0 56 -23.5t19 -55.5q0 -36 -23.5 -59.5t-61.5 -23.5q-44 0 -79 12t-58 38.5t-33 71.5h59q-15 -29 -37 -52t-51.5 -38.5t-67.5 -23.5t-84 -8h-91z" />
    <glyph glyph-name="uni06B0.fina" unicode="&#x6b0;" horiz-adv-x="869" 
d="M748 429q-37 0 -62.5 25.5t-25.5 62.5t25.5 62.5t62.5 25.5t62.5 -25.5t25.5 -62.5t-25.5 -62.5t-62.5 -25.5zM748 491q11 0 19.5 7.5t8.5 18.5q0 12 -8.5 19.5t-19.5 7.5t-19.5 -8t-8.5 -19t8.5 -18.5t19.5 -7.5zM462 615l-69 115q35 24 73.5 49t86.5 55t108 68l71 -119
q-59 -34 -108 -64t-88.5 -55.5t-73.5 -48.5zM394 -21l26 162q44 0 77.5 3.5t56.5 11t34.5 19.5t11.5 28q0 18 -10 39t-26 44.5t-34.5 46t-34.5 43t-26 36t-10 23.5q0 15 2.5 37t7 42t11.5 27q20 24 54.5 52t89 63.5t132.5 78.5l83 -134q-73 -40 -121.5 -70t-80 -54.5
t-54.5 -47.5l12 91q23 -26 47.5 -56t48.5 -64.5t45 -73t37 -82.5q9 -27 23 -44t31.5 -26.5t35.5 -13t36 -3.5q37 0 56 -23.5t19 -55.5q0 -36 -23.5 -59.5t-61.5 -23.5q-43 0 -78 12t-59 38.5t-34 71.5h38q-20 -40 -53.5 -67t-79 -42.5t-103 -22t-126.5 -6.5zM394 -21
q-103 0 -172.5 20t-111 54t-59 77t-17.5 89q0 40 7 77.5t17 70.5t19 58l141 -38q-5 -19 -10.5 -39.5t-9 -41t-3.5 -41.5q0 -35 17 -63.5t65.5 -44.5t142.5 -16l20 -130z" />
    <glyph glyph-name="uni06B2.init" unicode="&#x6b2;" horiz-adv-x="406" 
d="M37 617l-69 115q35 24 73.5 49t86.5 55t108 68l71 -119q-60 -34 -108.5 -64t-88 -55.5t-73.5 -48.5zM0 -5l10 162h105q17 0 28.5 2t18 6t9.5 11t3 17q0 29 -17 60.5t-40 61.5t-39 50t-25.5 33t-14 22.5t-4.5 17.5q0 15 2.5 37t7 42t11.5 27q17 18 40.5 38t56 43t76.5 50
t103 60l83 -134q-55 -30 -95.5 -54t-70.5 -43.5t-51.5 -37t-38.5 -34.5l8 88q39 -42 72.5 -84t58.5 -83t39 -81t14 -79q0 -33 -12.5 -67.5t-41 -64t-76.5 -48t-119 -18.5h-101zM280 -232q-31 0 -51.5 21t-20.5 52t20.5 52t51.5 21t53 -21t22 -52t-22 -52t-53 -21zM103 -232
q-32 0 -53 21t-21 52t21 52t52 21q30 0 52 -21t22 -52t-21.5 -52t-51.5 -21z" />
    <glyph glyph-name="uni06B2.medi" unicode="&#x6b2;" horiz-adv-x="442" 
d="M37 617l-69 115q35 24 73.5 49t86.5 55t108 68l71 -119q-60 -34 -108.5 -64t-88 -55.5t-73.5 -48.5zM0 -5l10 162h102q27 0 40.5 4t17.5 12.5t4 19.5q0 21 -10.5 45t-26.5 48.5t-34.5 48t-34.5 44t-26.5 36t-10.5 23.5q0 15 2.5 37t7 42t11.5 27q17 18 41 38t57 43
t77.5 50t103.5 60l83 -134q-57 -31 -99 -56t-73 -45.5t-53.5 -38.5t-39.5 -36l16 95q19 -26 42 -55.5t46.5 -63t45.5 -72.5t39 -85q15 -41 31 -59.5t36.5 -23t46.5 -4.5q37 0 56 -23.5t19 -55.5q0 -36 -23.5 -59.5t-61.5 -23.5q-44 0 -79 12t-58 38.5t-33 71.5h59
q-15 -29 -37 -52t-51.5 -38.5t-67.5 -23.5t-84 -8h-91zM281 -232q-31 0 -51.5 21t-20.5 52t20.5 52t51.5 21t53 -21t22 -52t-22 -52t-53 -21zM104 -232q-32 0 -53 21t-21 52t21 52t52 21q30 0 52 -21t22 -52t-21.5 -52t-51.5 -21z" />
    <glyph glyph-name="uni06B2.fina" unicode="&#x6b2;" horiz-adv-x="869" 
d="M462 615l-69 115q35 24 73.5 49t86.5 55t108 68l71 -119q-59 -34 -108 -64t-88.5 -55.5t-73.5 -48.5zM394 -21l26 162q44 0 77.5 3.5t56.5 11t34.5 19.5t11.5 28q0 18 -10 39t-26 44.5t-34.5 46t-34.5 43t-26 36t-10 23.5q0 15 2.5 37t7 42t11.5 27q20 24 54.5 52
t89 63.5t132.5 78.5l83 -134q-73 -40 -121.5 -70t-80 -54.5t-54.5 -47.5l12 91q23 -26 47.5 -56t48.5 -64.5t45 -73t37 -82.5q9 -27 23 -44t31.5 -26.5t35.5 -13t36 -3.5q37 0 56 -23.5t19 -55.5q0 -36 -23.5 -59.5t-61.5 -23.5q-43 0 -78 12t-59 38.5t-34 71.5h38
q-20 -40 -53.5 -67t-79 -42.5t-103 -22t-126.5 -6.5zM394 -21q-103 0 -172.5 20t-111 54t-59 77t-17.5 89q0 40 7 77.5t17 70.5t19 58l141 -38q-5 -19 -10.5 -39.5t-9 -41t-3.5 -41.5q0 -35 17 -63.5t65.5 -44.5t142.5 -16l20 -130zM504 -253q-31 0 -51.5 21t-20.5 52
t20.5 52t51.5 21t53 -21t22 -52t-22 -52t-53 -21zM327 -253q-32 0 -53 21t-21 52t21 52t52 21q30 0 52 -21t22 -52t-21.5 -52t-51.5 -21z" />
    <glyph glyph-name="uni06B4.init" unicode="&#x6b4;" horiz-adv-x="406" 
d="M-8 958q-23 0 -38.5 15.5t-15.5 37.5t15.5 38t38.5 16q22 0 37 -16t15 -38t-15 -37.5t-37 -15.5zM-19 819q-22 0 -37.5 15t-15.5 37q0 23 15.5 39t37.5 16t37.5 -16t15.5 -39q0 -22 -15.5 -37t-37.5 -15zM108 881q-23 0 -38 15t-15 37q0 23 15 39t38 16q22 0 37 -16
t15 -39q0 -22 -15 -37t-37 -15zM37 617l-69 115q35 24 73.5 49t86.5 55t108 68l71 -119q-60 -34 -108.5 -64t-88 -55.5t-73.5 -48.5zM0 -5l10 162h105q17 0 28.5 2t18 6t9.5 11t3 17q0 29 -17 60.5t-40 61.5t-39 50t-25.5 33t-14 22.5t-4.5 17.5q0 15 2.5 37t7 42t11.5 27
q17 18 40.5 38t56 43t76.5 50t103 60l83 -134q-55 -30 -95.5 -54t-70.5 -43.5t-51.5 -37t-38.5 -34.5l8 88q39 -42 72.5 -84t58.5 -83t39 -81t14 -79q0 -33 -12.5 -67.5t-41 -64t-76.5 -48t-119 -18.5h-101z" />
    <glyph glyph-name="uni06B4.medi" unicode="&#x6b4;" horiz-adv-x="442" 
d="M-8 958q-23 0 -38.5 15.5t-15.5 37.5t15.5 38t38.5 16q22 0 37 -16t15 -38t-15 -37.5t-37 -15.5zM-19 819q-22 0 -37.5 15t-15.5 37q0 23 15.5 39t37.5 16t37.5 -16t15.5 -39q0 -22 -15.5 -37t-37.5 -15zM108 881q-23 0 -38 15t-15 37q0 23 15 39t38 16q22 0 37 -16
t15 -39q0 -22 -15 -37t-37 -15zM37 617l-69 115q35 24 73.5 49t86.5 55t108 68l71 -119q-60 -34 -108.5 -64t-88 -55.5t-73.5 -48.5zM0 -5l10 162h102q27 0 40.5 4t17.5 12.5t4 19.5q0 21 -10.5 45t-26.5 48.5t-34.5 48t-34.5 44t-26.5 36t-10.5 23.5q0 15 2.5 37t7 42
t11.5 27q17 18 41 38t57 43t77.5 50t103.5 60l83 -134q-57 -31 -99 -56t-73 -45.5t-53.5 -38.5t-39.5 -36l16 95q19 -26 42 -55.5t46.5 -63t45.5 -72.5t39 -85q15 -41 31 -59.5t36.5 -23t46.5 -4.5q37 0 56 -23.5t19 -55.5q0 -36 -23.5 -59.5t-61.5 -23.5q-44 0 -79 12
t-58 38.5t-33 71.5h59q-15 -29 -37 -52t-51.5 -38.5t-67.5 -23.5t-84 -8h-91z" />
    <glyph glyph-name="uni06B4.fina" unicode="&#x6b4;" horiz-adv-x="869" 
d="M422 958q-23 0 -38.5 15.5t-15.5 37.5t15.5 38t38.5 16q22 0 37 -16t15 -38t-15 -37.5t-37 -15.5zM411 819q-22 0 -37.5 15t-15.5 37q0 23 15.5 39t37.5 16t37.5 -16t15.5 -39q0 -22 -15.5 -37t-37.5 -15zM538 881q-23 0 -38 15t-15 37q0 23 15 39t38 16q22 0 37 -16
t15 -39q0 -22 -15 -37t-37 -15zM462 615l-69 115q35 24 73.5 49t86.5 55t108 68l71 -119q-59 -34 -108 -64t-88.5 -55.5t-73.5 -48.5zM394 -21l26 162q44 0 77.5 3.5t56.5 11t34.5 19.5t11.5 28q0 18 -10 39t-26 44.5t-34.5 46t-34.5 43t-26 36t-10 23.5q0 15 2.5 37t7 42
t11.5 27q20 24 54.5 52t89 63.5t132.5 78.5l83 -134q-73 -40 -121.5 -70t-80 -54.5t-54.5 -47.5l12 91q23 -26 47.5 -56t48.5 -64.5t45 -73t37 -82.5q9 -27 23 -44t31.5 -26.5t35.5 -13t36 -3.5q37 0 56 -23.5t19 -55.5q0 -36 -23.5 -59.5t-61.5 -23.5q-43 0 -78 12
t-59 38.5t-34 71.5h38q-20 -40 -53.5 -67t-79 -42.5t-103 -22t-126.5 -6.5zM394 -21q-103 0 -172.5 20t-111 54t-59 77t-17.5 89q0 40 7 77.5t17 70.5t19 58l141 -38q-5 -19 -10.5 -39.5t-9 -41t-3.5 -41.5q0 -35 17 -63.5t65.5 -44.5t142.5 -16l20 -130z" />
    <glyph glyph-name="uni06B5.init" unicode="&#x6b5;" horiz-adv-x="300" 
d="M0 -5l10 162q31 0 45.5 9t18 38t0.5 88l-19 468h173l21 -490q3 -61 -4 -111.5t-32 -87t-76 -56.5t-137 -20zM111 841q-6 16 -15 39.5t-19.5 50.5t-20 52t-17.5 43l60 23q5 -13 13 -34.5t17.5 -46t19 -46.5t16.5 -35l19 -41zM184 846l-51 19q4 16 11.5 42t16 55t16 53.5
t11.5 37.5l60 -17q-4 -15 -13 -40.5t-19 -54.5t-18.5 -54.5z" />
    <glyph glyph-name="uni06B5.medi" unicode="&#x6b5;" horiz-adv-x="321" 
d="M0 -5l10 162q27 0 41 10t19 39t3 86l-15 468h173l17 -467q2 -58 8.5 -87.5t23.5 -39t51 -9.5q37 0 56 -23.5t19 -55.5q0 -38 -23.5 -60.5t-61.5 -22.5q-33 0 -71.5 11t-68.5 42t-39 89h59q-21 -53 -49.5 -84.5t-66 -44.5t-85.5 -13zM112 840q-6 16 -15 39.5t-19.5 50.5
t-20 52t-17.5 43l60 23q5 -13 13 -34.5t17.5 -46t19 -46.5t16.5 -35l19 -41zM185 845l-51 19q4 16 11.5 42t16 55t16 53.5t11.5 37.5l60 -17q-4 -15 -13 -40.5t-19 -54.5t-18.5 -54.5z" />
    <glyph glyph-name="uni06B5.fina" unicode="&#x6b5;" horiz-adv-x="710" 
d="M24 35q0 28 4 59t15.5 72t35.5 99l150 -54q-14 -39 -21.5 -64t-10 -46t-2.5 -49q0 -38 14.5 -65t41 -41t62.5 -14q54 0 83.5 26t40 81.5t7.5 143.5l-20 577h173l16 -467q2 -58 11.5 -87.5t32.5 -39t63 -9.5q37 0 56 -23.5t19 -55.5q0 -40 -23.5 -61.5t-61.5 -21.5
q-18 0 -42.5 4t-49.5 16.5t-45 37.5t-28 66l67 -44q-7 -70 -28 -126.5t-58 -96.5t-91 -61t-126 -21q-51 0 -101.5 15t-92 46.5t-66.5 82t-25 121.5zM153 558q-6 16 -15 39.5t-19.5 50.5t-20 52t-17.5 43l60 23q5 -13 13 -34.5t17.5 -46t19 -46.5t16.5 -35l19 -41zM226 563
l-51 19q4 16 11.5 42t16 55t16 53.5t11.5 37.5l60 -17q-4 -15 -13 -40.5t-19 -54.5t-18.5 -54.5z" />
    <glyph glyph-name="uni06B6.init" unicode="&#x6b6;" horiz-adv-x="300" 
d="M0 -5l10 162q31 0 45.5 9t18 38t0.5 88l-19 468h173l21 -490q3 -61 -4 -111.5t-32 -87t-76 -56.5t-137 -20zM146 837q-34 0 -56.5 23t-22.5 55q0 34 22.5 58t56.5 24q33 0 55.5 -24t22.5 -57t-22.5 -56t-55.5 -23z" />
    <glyph glyph-name="uni06B6.medi" unicode="&#x6b6;" horiz-adv-x="321" 
d="M0 -5l10 162q27 0 41 10t19 39t3 86l-15 468h173l17 -467q2 -58 8.5 -87.5t23.5 -39t51 -9.5q37 0 56 -23.5t19 -55.5q0 -38 -23.5 -60.5t-61.5 -22.5q-33 0 -71.5 11t-68.5 42t-39 89h59q-21 -53 -49.5 -84.5t-66 -44.5t-85.5 -13zM147 836q-34 0 -56.5 23t-22.5 55
q0 34 22.5 58t56.5 24q33 0 55.5 -24t22.5 -57t-22.5 -56t-55.5 -23z" />
    <glyph glyph-name="uni06B6.fina" unicode="&#x6b6;" horiz-adv-x="710" 
d="M24 35q0 28 4 59t15.5 72t35.5 99l150 -54q-14 -39 -21.5 -64t-10 -46t-2.5 -49q0 -38 14.5 -65t41 -41t62.5 -14q54 0 83.5 26t40 81.5t7.5 143.5l-20 577h173l16 -467q2 -58 11.5 -87.5t32.5 -39t63 -9.5q37 0 56 -23.5t19 -55.5q0 -40 -23.5 -61.5t-61.5 -21.5
q-18 0 -42.5 4t-49.5 16.5t-45 37.5t-28 66l67 -44q-7 -70 -28 -126.5t-58 -96.5t-91 -61t-126 -21q-51 0 -101.5 15t-92 46.5t-66.5 82t-25 121.5zM188 554q-34 0 -56.5 23t-22.5 55q0 34 22.5 58t56.5 24q33 0 55.5 -24t22.5 -57t-22.5 -56t-55.5 -23z" />
    <glyph glyph-name="uni06B7.init" unicode="&#x6b7;" horiz-adv-x="300" 
d="M0 -5l10 162q31 0 45.5 9t18 38t0.5 88l-19 468h173l21 -490q3 -61 -4 -111.5t-32 -87t-76 -56.5t-137 -20zM144 991q-32 0 -53 21.5t-21 50.5q0 31 21 53t53 22q31 0 52.5 -22t21.5 -53q0 -29 -21.5 -50.5t-52.5 -21.5zM59 834q-31 0 -53.5 23t-22.5 53q0 29 22.5 52
t53.5 23q29 0 50.5 -23t21.5 -52q0 -30 -21.5 -53t-50.5 -23zM232 834q-30 0 -50 23t-20 53q0 29 20 52t50 23q31 0 53 -23t22 -52q0 -30 -22 -53t-53 -23z" />
    </font>
</defs>
</svg>
