<?xml version="1.0" standalone="no"?>
<!DOCTYPE svg PUBLIC "-//W3C//DTD SVG 1.1//EN" "http://www.w3.org/Graphics/SVG/1.1/DTD/svg11.dtd" >
<svg xmlns="http://www.w3.org/2000/svg" xmlns:xlink="http://www.w3.org/1999/xlink" version="1.1">
<metadata>
Created by FontForge 20170731 at Thu Nov 12 05:28:44 2020
 By Aleksey,,,
Copyright 2015-2020 Google LLC. All Rights Reserved.
</metadata>
<defs>
<font id="NotoSansArabicCondensed-Medium" horiz-adv-x="0" >
  <font-face 
    font-family="Noto Sans Arabic Condensed Medium"
    font-weight="500"
    font-stretch="condensed"
    units-per-em="1000"
    panose-1="0 0 0 0 0 0 0 0 0 0"
    ascent="800"
    descent="-200"
    bbox="-220 -573 2101 1095"
    underline-thickness="50"
    underline-position="-175"
    unicode-range="U+000D-FEFC"
  />
<missing-glyph horiz-adv-x="600" 
d="M94 0v714h411v-714h-411zM145 51h309v612h-309v-612z" />
    <glyph glyph-name="uniFC43" unicode="&#xfedf;&#xfef0;" horiz-adv-x="918" arabic-form="isolated" 
d="M674 -5l9 93q40 0 58 11.5t21.5 41t1.5 80.5l-19 490h94l20 -487q2 -54 -3.5 -97t-24.5 -72.5t-57 -44.5t-100 -15zM39 -6q0 27 5 59t16.5 69t30.5 77l81 -34q-13 -31 -22 -58t-13.5 -50.5t-4.5 -45.5q0 -44 17 -73t45.5 -45.5t63.5 -24t70 -7.5q55 0 97 11.5t71 30.5
t43.5 40t14.5 40q0 11 -8 21t-25.5 20.5t-45 21t-66.5 22.5l24 90q55 -21 94.5 -34.5t68.5 -21.5t50 -11t38 -3q24 0 35.5 -12.5t11.5 -32.5t-13.5 -34t-42.5 -14h-11h-12h-11q1 -6 2.5 -13t1.5 -16q0 -32 -21 -66.5t-62 -64t-102 -48t-141 -18.5q-90 0 -152.5 27.5t-95 78
t-32.5 119.5z" />
    <glyph glyph-name="uniFC86" unicode="&#xfee0;&#xfef0;" horiz-adv-x="939" arabic-form="final" 
d="M674 -5l10 93q36 0 52.5 12t20.5 41t2 80l-18 490h94l18 -488q2 -52 12.5 -82t31.5 -41.5t53 -11.5q24 0 35.5 -12.5t11.5 -32.5t-13.5 -34t-43.5 -14q-33 0 -61.5 11.5t-47.5 34.5t-24 58l31 -2q-12 -35 -34 -57.5t-54 -33.5t-76 -11zM39 -6q0 27 5 59t16.5 69t30.5 77
l81 -34q-13 -31 -22 -58t-13.5 -50.5t-4.5 -45.5q0 -44 17 -73t45.5 -45.5t63.5 -24t70 -7.5q55 0 97 11.5t71 30.5t43.5 40t14.5 40q0 11 -8 21t-25.5 20.5t-45 21t-66.5 22.5l24 90q55 -21 94.5 -34.5t68.5 -21.5t50 -11t38 -3q24 0 35.5 -12.5t11.5 -32.5t-13.5 -34
t-42.5 -14h-11h-12h-11q1 -6 2.5 -13t1.5 -16q0 -32 -21 -66.5t-62 -64t-102 -48t-141 -18.5q-90 0 -152.5 27.5t-95 78t-32.5 119.5z" />
    <glyph glyph-name="uniFD82" unicode="&#xfee0;&#xfea4;&#xfef0;" horiz-adv-x="1467" arabic-form="final" 
d="M1202 -5l10 93q36 0 52.5 12t20.5 41t2 80l-18 490h94l18 -488q2 -52 12.5 -82t31.5 -41.5t53 -11.5q24 0 35.5 -12.5t11.5 -32.5t-13.5 -34t-43.5 -14q-33 0 -61.5 11.5t-47.5 34.5t-24 58l31 -2q-12 -35 -34 -57.5t-54 -33.5t-76 -11zM1202 -5q-33 0 -61.5 6.5t-52 23
t-41 45.5t-28.5 74l61 37q14 -38 29.5 -58t40.5 -27.5t62 -7.5q25 0 36 -12.5t11 -32.5t-13.5 -34t-43.5 -14zM674 -5l9 93q48 0 89.5 8.5t80.5 24t77.5 37.5t81.5 49q-33 22 -62.5 39.5t-60.5 27.5t-69 10q-16 0 -29 -1t-25 -3.5t-27 -5.5l-18 86q24 8 49 12t49 4
q48 0 85 -12.5t67 -30.5t55.5 -35.5t50.5 -30t53 -12.5h19l9 -87q-37 -1 -68 -14t-61 -32.5t-64 -41.5t-75 -41t-93.5 -31.5t-122.5 -12.5zM39 -6q0 27 5 59t16.5 69t30.5 77l81 -34q-13 -31 -22 -58t-13.5 -50.5t-4.5 -45.5q0 -44 17 -73t45.5 -45.5t63.5 -24t70 -7.5
q55 0 97 11.5t71 30.5t43.5 40t14.5 40q0 11 -8 21t-25.5 20.5t-45 21t-66.5 22.5l24 90q55 -21 94.5 -34.5t68.5 -21.5t50 -11t38 -3q24 0 35.5 -12.5t11.5 -32.5t-13.5 -34t-42.5 -14h-11h-12h-11q1 -6 2.5 -13t1.5 -16q0 -32 -21 -66.5t-62 -64t-102 -48t-141 -18.5
q-90 0 -152.5 27.5t-95 78t-32.5 119.5z" />
    <glyph glyph-name="uniFDF2" unicode="&#x627;&#xfedf;&#xfee0;&#xfeea;" horiz-adv-x="1197" arabic-form="isolated" 
d="M451 -5q-40 0 -73 9.5t-56.5 32t-36.5 60.5q-47 -9 -93 -6t-84 19.5t-61 46.5t-23 76q0 55 30.5 100.5t84 78t119.5 48.5l-3 78h93l16 -339q3 -46 12 -70t29.5 -32.5t55.5 -8.5t51 11.5t20 41t2 80.5l-13 366h94l14 -364q2 -52 12 -82t31 -42t53 -12q39 0 56.5 12
t21.5 41t2 81l-19 490h93l20 -487q2 -54 -3.5 -97t-24.5 -72.5t-56.5 -44.5t-99.5 -15q-26 0 -49 7.5t-41.5 21.5t-29.5 35q-21 -32 -57 -48t-87 -16zM271 185l-8 179q-46 -9 -79 -28.5t-50 -43t-17 -47.5q0 -21 14.5 -35t38 -20.5t50.5 -7t51 2.5zM1041 0l-20 711h93
l20 -711h-93zM481 645q-38 0 -50 25.5t-12 55.5q0 11 1 22t4 26l50 13q-3 -16 -4.5 -29.5t-1.5 -23.5q0 -18 5.5 -26t16.5 -8q14 0 22.5 14.5t9.5 57.5v29l47 16v-57q0 -13 5.5 -22.5t20.5 -9.5t20.5 10t5.5 26t-4 32t-10 33l45 13q9 -18 15.5 -41t6.5 -42
q0 -32 -17.5 -57.5t-55.5 -25.5q-28 0 -46.5 15.5t-18.5 39.5l22 -9q0 -33 -22.5 -55t-54.5 -22zM514 867l-5 162h58l6 -162h-59z" />
    <glyph glyph-name="uniFEF5" unicode="&#xfedf;&#xfe82;" horiz-adv-x="674" arabic-form="isolated" 
d="M357 536q0 25 -3 56.5t-7.5 62.5t-8.5 53l96 12q4 -20 7.5 -52.5t5.5 -65.5t2 -58q0 -46 -6.5 -90t-20 -85t-34.5 -80l-14 -26q-25 -45 -59 -86.5t-77 -80.5h85q34 0 52.5 7.5t25 20t6.5 26.5q0 26 -30 65.5t-81.5 88.5t-118.5 103t-141 110l54 75q90 -69 157.5 -126
t115 -103.5t77.5 -86t44 -73.5t14 -64q0 -25 -8 -49t-27 -44.5t-52 -33t-84 -12.5h-217v97q88 74 142 142.5t79.5 141t25.5 155.5zM189 652q-28 0 -51 10t-41.5 19t-34.5 9q-17 0 -31 -8.5t-29 -23.5l-38 35q22 29 46.5 44t51.5 15q23 0 43 -9t40.5 -18.5t43.5 -9.5
q15 0 28.5 5t32.5 17l29 -43q-31 -28 -53 -35t-37 -7z" />
    <glyph glyph-name="uniFEF6" unicode="&#xfee0;&#xfe82;" horiz-adv-x="591" arabic-form="final" 
d="M592 -5q-52 0 -88.5 10t-60 31.5t-35 54.5t-13.5 79l-17 551h93l21 -509q2 -51 9 -77.5t29.5 -36.5t69.5 -10q25 0 37 -12.5t12 -29.5q0 -20 -15 -35.5t-42 -15.5zM158 -5q-28 0 -55.5 4.5t-38.5 6.5l13 97q65 -9 122.5 -3t100.5 34t67.5 84.5t24.5 146.5l46 -131
q-10 -61 -32 -103.5t-52.5 -69.5t-64.5 -41t-68 -19.5t-63 -5.5zM342 132q-15 30 -41 71t-62.5 90t-83 102.5t-102.5 108.5l66 68q66 -70 113.5 -126t80.5 -101.5t56 -81.5t40 -67zM205 652q-28 0 -51 10t-41.5 19t-34.5 9q-17 0 -31 -8.5t-29 -23.5l-38 35q22 29 46.5 44
t51.5 15q23 0 43 -9t40.5 -18.5t43.5 -9.5q15 0 28.5 5t32.5 17l29 -43q-31 -28 -53 -35t-37 -7z" />
    <glyph glyph-name="uniFEF7" unicode="&#xfedf;&#xfe84;" horiz-adv-x="582" arabic-form="isolated" 
d="M357 536q0 25 -3 56.5t-7.5 62.5t-8.5 53l96 12q4 -20 7.5 -52.5t5.5 -65.5t2 -58q0 -46 -6.5 -90t-20 -85t-34.5 -80l-14 -26q-25 -45 -59 -86.5t-77 -80.5h85q34 0 52.5 7.5t25 20t6.5 26.5q0 26 -30 65.5t-81.5 88.5t-118.5 103t-141 110l54 75q90 -69 157.5 -126
t115 -103.5t77.5 -86t44 -73.5t14 -64q0 -25 -8 -49t-27 -44.5t-52 -33t-84 -12.5h-217v97q88 74 142 142.5t79.5 141t25.5 155.5zM30 649l-12 51q26 5 40.5 9t32.5 8l-6 -17q-24 8 -45 30t-21 54q0 27 13 45.5t34.5 28.5t45.5 10q10 0 22 -2t22 -6l-7 -47q-9 2 -17.5 3.5
t-17.5 1.5q-20 0 -30.5 -9.5t-10.5 -24.5q0 -17 11.5 -30.5t27 -20t25.5 -7.5l-39 -6q24 6 45 12.5t38 13.5l16 -49q-22 -8 -51 -17t-59 -17t-57 -14z" />
    <glyph glyph-name="uniFEF8" unicode="&#xfee0;&#xfe84;" horiz-adv-x="591" arabic-form="final" 
d="M575 -5q-52 0 -88.5 10t-60 31.5t-35 54.5t-13.5 79l-17 551h93l21 -509q2 -51 9 -77.5t29.5 -36.5t69.5 -10q25 0 37 -12.5t12 -29.5q0 -20 -15 -35.5t-42 -15.5zM141 -5q-28 0 -55.5 4.5t-38.5 6.5l13 97q65 -9 122.5 -3t100.5 34t67.5 84.5t24.5 146.5l46 -131
q-10 -61 -32 -103.5t-52.5 -69.5t-64.5 -41t-68 -19.5t-63 -5.5zM325 132q-15 30 -41 71t-62.5 90t-83 102.5t-102.5 108.5l66 68q66 -70 113.5 -126t80.5 -101.5t56 -81.5t40 -67zM48 649l-12 51q26 5 40.5 9t32.5 8l-6 -17q-24 8 -45 30t-21 54q0 27 13 45.5t34.5 28.5
t45.5 10q10 0 22 -2t22 -6l-7 -47q-9 2 -17.5 3.5t-17.5 1.5q-20 0 -30.5 -9.5t-10.5 -24.5q0 -17 11.5 -30.5t27 -20t25.5 -7.5l-39 -6q24 6 45 12.5t38 13.5l16 -49q-22 -8 -51 -17t-59 -17t-57 -14z" />
    <glyph glyph-name="uniFEF9" unicode="&#xfedf;&#xfe88;" horiz-adv-x="561" arabic-form="isolated" 
d="M357 536q0 25 -3 56.5t-7.5 62.5t-8.5 53l96 12q4 -20 7.5 -52.5t5.5 -65.5t2 -58q0 -46 -6.5 -90t-20 -85t-34.5 -80l-14 -26q-25 -45 -59 -86.5t-77 -80.5h85q34 0 52.5 7.5t25 20t6.5 26.5q0 26 -30 65.5t-81.5 88.5t-118.5 103t-141 110l54 75q90 -69 157.5 -126
t115 -103.5t77.5 -86t44 -73.5t14 -64q0 -25 -8 -49t-27 -44.5t-52 -33t-84 -12.5h-217v97q88 74 142 142.5t79.5 141t25.5 155.5zM96 -296l-12 51q26 5 40.5 9t32.5 8l-6 -17q-24 8 -45 30t-21 54q0 27 13 45.5t34.5 28.5t45.5 10q10 0 22 -2t22 -6l-7 -47q-9 2 -17.5 3.5
t-17.5 1.5q-20 0 -30.5 -9.5t-10.5 -24.5q0 -17 11.5 -30.5t27 -20t25.5 -7.5l-39 -6q24 6 45 12.5t38 13.5l16 -49q-22 -8 -51 -17t-59 -17t-57 -14z" />
    <glyph glyph-name="uniFEFA" unicode="&#xfee0;&#xfe88;" horiz-adv-x="574" arabic-form="final" 
d="M575 -5q-52 0 -88.5 10t-60 31.5t-35 54.5t-13.5 79l-17 551h93l21 -509q2 -51 9 -77.5t29.5 -36.5t69.5 -10q25 0 37 -12.5t12 -29.5q0 -20 -15 -35.5t-42 -15.5zM141 -5q-28 0 -55.5 4.5t-38.5 6.5l13 97q65 -9 122.5 -3t100.5 34t67.5 84.5t24.5 146.5l46 -131
q-10 -61 -32 -103.5t-52.5 -69.5t-64.5 -41t-68 -19.5t-63 -5.5zM325 132q-15 30 -41 71t-62.5 90t-83 102.5t-102.5 108.5l66 68q66 -70 113.5 -126t80.5 -101.5t56 -81.5t40 -67zM96 -296l-12 51q26 5 40.5 9t32.5 8l-6 -17q-24 8 -45 30t-21 54q0 27 13 45.5t34.5 28.5
t45.5 10q10 0 22 -2t22 -6l-7 -47q-9 2 -17.5 3.5t-17.5 1.5q-20 0 -30.5 -9.5t-10.5 -24.5q0 -17 11.5 -30.5t27 -20t25.5 -7.5l-39 -6q24 6 45 12.5t38 13.5l16 -49q-22 -8 -51 -17t-59 -17t-57 -14z" />
    <glyph glyph-name="uniFEFB" unicode="&#xfedf;&#xfe8e;" horiz-adv-x="561" arabic-form="isolated" 
d="M357 536q0 25 -3 56.5t-7.5 62.5t-8.5 53l96 12q4 -20 7.5 -52.5t5.5 -65.5t2 -58q0 -46 -6.5 -90t-20 -85t-34.5 -80l-14 -26q-25 -45 -59 -86.5t-77 -80.5h85q34 0 52.5 7.5t25 20t6.5 26.5q0 26 -30 65.5t-81.5 88.5t-118.5 103t-141 110l54 75q90 -69 157.5 -126
t115 -103.5t77.5 -86t44 -73.5t14 -64q0 -25 -8 -49t-27 -44.5t-52 -33t-84 -12.5h-217v97q88 74 142 142.5t79.5 141t25.5 155.5z" />
    <glyph glyph-name="uniFEFC" unicode="&#xfee0;&#xfe8e;" horiz-adv-x="574" arabic-form="final" 
d="M575 -5q-52 0 -88.5 10t-60 31.5t-35 54.5t-13.5 79l-17 551h93l21 -509q2 -51 9 -77.5t29.5 -36.5t69.5 -10q25 0 37 -12.5t12 -29.5q0 -20 -15 -35.5t-42 -15.5zM141 -5q-28 0 -55.5 4.5t-38.5 6.5l13 97q65 -9 122.5 -3t100.5 34t67.5 84.5t24.5 146.5l46 -131
q-10 -61 -32 -103.5t-52.5 -69.5t-64.5 -41t-68 -19.5t-63 -5.5zM325 132q-15 30 -41 71t-62.5 90t-83 102.5t-102.5 108.5l66 68q66 -70 113.5 -126t80.5 -101.5t56 -81.5t40 -67z" />
    <glyph glyph-name="lam_alefMaksura_meemar" unicode="&#xfedf;&#xfbe9;&#xfee2;" horiz-adv-x="1017" 
d="M774 -5l9 93q40 0 58 11.5t21.5 41t1.5 80.5l-19 490h94l20 -487q2 -54 -3.5 -97t-24.5 -72.5t-57 -44.5t-100 -15zM525 -5l10 93q30 0 52 7.5t34 26.5t12 54q0 27 -7.5 63.5t-20 76.5t-27.5 77l91 31q13 -33 24.5 -75.5t20 -86t8.5 -81.5q0 -41 -10 -71.5t-27.5 -52.5
t-42.5 -35.5t-54.5 -20t-62.5 -6.5zM77 -392q-21 79 -36 152.5t-22.5 130.5t-7.5 87q0 79 21.5 143t55 112.5t73 81t77.5 49t66 16.5q27 0 46.5 -13.5t36.5 -46.5t39 -92q21 -55 37.5 -85.5t33.5 -42.5t38 -12q24 0 35.5 -12.5t11.5 -32.5q0 -19 -13.5 -33.5t-43.5 -14.5
q-35 0 -65 19.5t-50 48.5l29 11q-8 -28 -24 -47.5t-38.5 -29.5t-50.5 -10q-22 0 -48.5 7t-54.5 24t-55 47t-52 77l19 -2q-20 -39 -27.5 -81t-7.5 -81q0 -29 6 -71.5t15.5 -91t21 -96t21.5 -87.5zM329 76q16 0 27 6.5t15 20t-4 34.5q-15 41 -26.5 69.5t-19.5 45.5t-15.5 24.5
t-16.5 7.5q-10 0 -26 -7.5t-33 -20t-32 -29t-26 -33.5l-2 20q22 -45 50 -76t57 -46.5t52 -15.5z" />
    <glyph glyph-name="lam_alefWaslaar" unicode="&#xfedf;&#xfb51;" horiz-adv-x="504" 
d="M134 671q-20 0 -47 1.5t-51 4.5t-36 5l6 51q13 -2 35.5 -4.5t47.5 -4.5t45 -2q50 0 65.5 11.5t15.5 27.5q0 17 -10 24.5t-23 7.5q-14 0 -28 -9t-27 -26.5t-25 -41.5l-55 1q12 29 30.5 58.5t45.5 49.5t62 20q31 0 56.5 -19.5t25.5 -61.5q0 -23 -11 -44.5t-39.5 -35
t-82.5 -13.5zM357 536q0 25 -3 56.5t-7.5 62.5t-8.5 53l96 12q4 -20 7.5 -52.5t5.5 -65.5t2 -58q0 -47 -6.5 -90.5t-20 -84.5t-34.5 -80l-14 -26q-25 -45 -59 -86.5t-77 -80.5h85q34 0 52.5 7.5t25 20t6.5 26.5q0 26 -30 65.5t-82 88.5t-118.5 103t-140.5 110l54 75
q90 -69 157.5 -126t115 -103.5t77.5 -86t44 -73.5t14 -64q0 -25 -8 -49t-27 -44.5t-52 -33t-84 -12.5h-217v97q88 74 142 142.5t79.5 141t25.5 155.5z" />
    <glyph glyph-name="lam_alefWaslaar.fina" unicode="&#xfee0;&#xfb51;" horiz-adv-x="638" 
d="M134 671q-20 0 -47 1.5t-51 4.5t-36 5l6 51q13 -2 35.5 -4.5t47.5 -4.5t45 -2q50 0 65.5 11t15.5 27q0 18 -10 25.5t-23 7.5q-14 0 -28 -9t-27 -26t-25 -42l-55 1q12 29 30.5 58.5t45.5 49.5t62 20q31 0 56.5 -19.5t25.5 -61.5q0 -23 -11 -44.5t-39.5 -35t-82.5 -13.5z
M575 -5q-52 0 -88.5 10t-60 31.5t-35 54.5t-13.5 79l-17 551h93l21 -509q2 -51 9 -77.5t29.5 -36.5t69.5 -10q25 0 37 -12.5t12 -29.5q0 -20 -15 -35.5t-42 -15.5zM141 -5q-28 0 -55.5 4.5t-38.5 6.5l13 97q65 -9 122.5 -3t100.5 34t67.5 84.5t24.5 146.5l46 -131
q-10 -61 -32 -103.5t-52.5 -69.5t-64.5 -41t-68 -19.5t-63 -5.5zM325 132q-15 30 -41 71t-62.5 90t-83 102.5t-102.5 108.5l66 68q66 -70 113.5 -126t80.5 -101.5t56 -81.5t40 -67z" />
    <glyph glyph-name="uni0620.init" unicode="&#x620;" horiz-adv-x="287" 
d="M0 -5l10 93q49 0 78.5 6t43 25t13.5 57q0 27 -8 63.5t-20.5 76.5t-26.5 77l91 31q13 -32 24.5 -74.5t19.5 -85t8 -76.5q0 -55 -15.5 -92.5t-45.5 -59.5t-73.5 -31.5t-98.5 -9.5zM142 -100q-34 0 -57.5 24t-23.5 58q0 33 23.5 57t57.5 24t57.5 -24t23.5 -58
q0 -33 -23.5 -57t-57.5 -24zM142 -51q15 0 25 9t10 23q0 15 -10 24.5t-25 9.5t-25 -9.5t-10 -23.5t10.5 -23.5t24.5 -9.5z" />
    <glyph glyph-name="uni0620.medi" unicode="&#x620;" horiz-adv-x="351" 
d="M0 -5l10 93q40 0 64 8t37.5 30.5t23 64.5t21.5 110l88 -17q-3 -17 -7.5 -38.5t-8 -42.5t-3.5 -38t5 -31t19 -24t41 -16t71 -6q25 0 36 -12.5t11 -31.5q0 -21 -13.5 -35t-43.5 -14q-50 0 -84 7t-54.5 21.5t-31 36.5t-13.5 50l33 -1q-16 -37 -36.5 -59.5t-45 -34.5t-54 -16
t-65.5 -4zM107 -108q-34 0 -57.5 24t-23.5 58q0 33 23.5 57t57.5 24t57.5 -24t23.5 -58q0 -33 -23.5 -57t-57.5 -24zM107 -59q15 0 25 9t10 23q0 15 -10 24.5t-25 9.5q-14 0 -24 -9.5t-10 -23.5t10 -23.5t24 -9.5z" />
    <glyph glyph-name="uni0620.fina" unicode="&#x620;" horiz-adv-x="674" 
d="M309 -346q-34 0 -57.5 24t-23.5 57q0 34 23.5 58t57.5 24t57.5 -24t23.5 -58q0 -33 -23.5 -57t-57.5 -24zM309 -297q14 0 24.5 9.5t10.5 22.5q0 15 -10.5 24.5t-24.5 9.5q-15 0 -25 -9.5t-10 -24.5q0 -13 10 -22.5t25 -9.5zM39 -6q0 27 5 59t16.5 69t30.5 77l81 -34
q-13 -31 -22 -58t-13.5 -50.5t-4.5 -45.5q0 -44 17 -73t45.5 -45.5t63.5 -24t70 -7.5q55 0 97 11.5t71 30.5t43.5 40t14.5 40q0 11 -8 21t-25.5 20.5t-45 21t-66.5 22.5l24 90q55 -21 94.5 -34.5t68.5 -21.5t50 -11t38 -3q24 0 35.5 -12.5t11.5 -32.5t-13.5 -34t-42.5 -14
h-11h-12h-11q1 -6 2.5 -13t1.5 -16q0 -32 -21 -66.5t-62 -64t-102 -48t-141 -18.5q-90 0 -152.5 27.5t-95 78t-32.5 119.5z" />
    <glyph glyph-name="uni063B.init" unicode="&#x63b;" horiz-adv-x="366" 
d="M219 709q-21 0 -35.5 14.5t-14.5 33.5q0 21 14.5 35.5t35.5 14.5q20 0 34 -14.5t14 -35.5q0 -19 -14 -33.5t-34 -14.5zM102 654q-21 0 -35.5 14t-14.5 34t14.5 34.5t35.5 14.5q19 0 33.5 -14.5t14.5 -34.5t-14.5 -34t-33.5 -14zM0 -5l10 93h86q37 0 60 6t35.5 16.5
t16.5 24t4 28.5q0 31 -20 68t-56 75q-27 31 -49 53t-37 37.5t-23.5 25t-8.5 16.5q0 13 2.5 29.5t7 32t10.5 21.5q13 14 35.5 31.5t57 39.5t84 50t116.5 63l42 -78q-60 -31 -105 -55.5t-78.5 -44.5t-60.5 -38.5t-51 -38.5l10 40q43 -44 82 -85.5t69.5 -82t48.5 -82.5t18 -86
q0 -27 -9.5 -54.5t-34 -51.5t-68 -38.5t-111.5 -14.5h-83z" />
    <glyph glyph-name="uni063B.medi" unicode="&#x63b;" horiz-adv-x="427" 
d="M215 708q-21 0 -35.5 14.5t-14.5 33.5q0 21 14.5 35.5t35.5 14.5q20 0 34 -14.5t14 -35.5q0 -19 -14 -33.5t-34 -14.5zM98 653q-21 0 -35.5 14t-14.5 34t14.5 35t35.5 15q19 0 33.5 -15t14.5 -35t-14.5 -34t-33.5 -14zM0 -5l9 93h77q47 0 74.5 7t39.5 23.5t12 42.5
q0 20 -14 46t-36 55t-46.5 57t-46.5 52.5t-36.5 42t-14.5 24.5q0 16 3 33t7.5 31.5t11.5 20.5q18 19 49 41t70.5 46t83.5 48.5t87 46.5l43 -78q-44 -24 -85.5 -46.5t-79 -44t-69 -42t-55.5 -40.5l1 33q32 -34 60.5 -65t55.5 -64t52.5 -72t51.5 -89q24 -44 44.5 -68
t41.5 -32.5t46 -8.5t36 -12.5t11 -32.5q0 -19 -13.5 -33.5t-43.5 -14.5q-34 0 -65.5 12t-57.5 39.5t-46 75.5l36 -7q-9 -35 -28 -58t-46.5 -36.5t-62.5 -19.5t-77 -6h-80z" />
    <glyph glyph-name="uni063B.fina" unicode="&#x63b;" horiz-adv-x="869" 
d="M653 709q-21 0 -35 14.5t-14 33.5q0 21 14 35.5t35 14.5q20 0 34 -14.5t14 -35.5q0 -19 -14 -33.5t-34 -14.5zM536 654q-21 0 -35.5 14t-14.5 34t14.5 34.5t35.5 14.5q20 0 34 -14.5t14 -34.5t-14 -34t-34 -14zM337 -21l26 93q76 0 131 5t90 16t51.5 27t16.5 38t-13.5 49
t-35.5 55.5t-47 56.5t-46.5 52t-35.5 42t-14 25q0 15 2 31t6.5 30.5t11.5 22.5q25 26 71.5 57t104.5 63.5t116 62.5l42 -78l-117 -65t-97.5 -57.5t-78.5 -55.5l4 38q30 -29 60.5 -63t60 -71.5t56 -77.5t47.5 -82q16 -33 31.5 -54t31.5 -32t32.5 -15t34.5 -4q24 0 35.5 -12.5
t11.5 -32.5t-13.5 -34t-43.5 -14q-35 0 -67.5 13t-58.5 41t-42 73l34 -5q-13 -41 -42 -68t-76 -42.5t-116 -21.5t-164 -6zM337 -21q-70 0 -126.5 11.5t-96.5 36t-61.5 62t-21.5 91.5q0 27 4.5 56.5t12.5 58.5t15 54l83 -23q-4 -15 -9.5 -37t-9.5 -45t-4 -43q0 -40 21 -69
t73 -44.5t146 -15.5l20 -61z" />
    <glyph glyph-name="uni063C.init" unicode="&#x63c;" horiz-adv-x="366" 
d="M0 -5l10 93h86q37 0 60 6t35.5 16.5t16.5 24t4 28.5q0 31 -20 68t-56 75q-27 31 -49 53t-37 37.5t-23.5 25t-8.5 16.5q0 13 2.5 29.5t7 32t10.5 21.5q13 14 35.5 31.5t57 39.5t84 50t116.5 63l42 -78q-60 -31 -105 -55.5t-78.5 -44.5t-60.5 -38.5t-51 -38.5l10 40
q43 -44 82 -85.5t69.5 -82t48.5 -82.5t18 -86q0 -27 -9.5 -54.5t-34 -51.5t-68 -38.5t-111.5 -14.5h-83zM157 -313q-22 0 -37 15t-15 36q0 22 15 37.5t37 15.5q21 0 36 -15.5t15 -37.5q0 -21 -15 -36t-36 -15zM88 -194q-22 0 -37 15t-15 36t15 36.5t37 15.5q21 0 36 -15.5
t15 -36.5t-15 -36t-36 -15zM227 -194q-21 0 -36.5 15t-15.5 36t15.5 36.5t36.5 15.5t36 -15.5t15 -36.5t-15 -36t-36 -15z" />
    <glyph glyph-name="uni063C.medi" unicode="&#x63c;" horiz-adv-x="427" 
d="M0 -5l9 93h77q47 0 74.5 7t39.5 23.5t12 42.5q0 20 -14 46t-36 55t-46.5 57t-46.5 52.5t-36.5 42t-14.5 24.5q0 16 3 33t7.5 31.5t11.5 20.5q18 19 49 41t70.5 46t83.5 48.5t87 46.5l43 -78q-44 -24 -85.5 -46.5t-79 -44t-69 -42t-55.5 -40.5l1 33q32 -34 60.5 -65
t55.5 -64t52.5 -72t51.5 -89q24 -44 44.5 -68t41.5 -32.5t46 -8.5t36 -12.5t11 -32.5q0 -19 -13.5 -33.5t-43.5 -14.5q-34 0 -65.5 12t-57.5 39.5t-46 75.5l36 -7q-9 -35 -28 -58t-46.5 -36.5t-62.5 -19.5t-77 -6h-80zM159 -313q-22 0 -37 15t-15 36q0 22 15 37.5t37 15.5
q21 0 36 -15.5t15 -37.5q0 -21 -15 -36t-36 -15zM90 -194q-22 0 -37 15t-15 36t15 36.5t37 15.5q21 0 36 -15.5t15 -36.5t-15 -36t-36 -15zM229 -194q-21 0 -36.5 15t-15.5 36t15.5 36.5t36.5 15.5t36 -15.5t15 -36.5t-15 -36t-36 -15z" />
    <glyph glyph-name="uni063C.fina" unicode="&#x63c;" horiz-adv-x="869" 
d="M337 -21l26 93q76 0 131 5t90 16t51.5 27t16.5 38t-13.5 49t-35.5 55.5t-47 56.5t-46.5 52t-35.5 42t-14 25q0 15 2 31t6.5 30.5t11.5 22.5q25 26 71.5 57t104.5 63.5t116 62.5l42 -78l-117 -65t-97.5 -57.5t-78.5 -55.5l4 38q30 -29 60.5 -63t60 -71.5t56 -77.5
t47.5 -82q16 -33 31.5 -54t31.5 -32t32.5 -15t34.5 -4q24 0 35.5 -12.5t11.5 -32.5t-13.5 -34t-43.5 -14q-35 0 -67.5 13t-58.5 41t-42 73l34 -5q-13 -41 -42 -68t-76 -42.5t-116 -21.5t-164 -6zM337 -21q-70 0 -126.5 11.5t-96.5 36t-61.5 62t-21.5 91.5q0 27 4.5 56.5
t12.5 58.5t15 54l83 -23q-4 -15 -9.5 -37t-9.5 -45t-4 -43q0 -40 21 -69t73 -44.5t146 -15.5l20 -61zM372 -334q-22 0 -37 15t-15 36q0 22 15 37.5t37 15.5q21 0 36 -15.5t15 -37.5q0 -21 -15 -36t-36 -15zM303 -215q-22 0 -37 15t-15 36t15 36.5t37 15.5q21 0 36 -15.5
t15 -36.5t-15 -36t-36 -15zM442 -215q-21 0 -36.5 15t-15.5 36t15.5 36.5t36.5 15.5t36 -15.5t15 -36.5t-15 -36t-36 -15z" />
    <glyph glyph-name="uni063D.init" unicode="&#x63d;" horiz-adv-x="249" 
d="M0 -5l10 93q30 0 52 7.5t34 26.5t12 54q0 27 -7.5 63.5t-20 76.5t-27.5 77l91 31q13 -33 24.5 -75.5t20 -86t8.5 -81.5q0 -41 -10 -71.5t-27.5 -52.5t-42.5 -35.5t-54.5 -20t-62.5 -6.5zM123 739q6 -14 16 -38.5t21.5 -52t22.5 -52.5t18 -40l-46 -22q-5 10 -14.5 31
t-20 46t-20.5 48t-17 36l-19 39zM64 734l44 -17q-6 -16 -16.5 -43.5t-22.5 -57t-21 -52.5t-12 -30l-46 18q4 9 14 32.5t22 52.5t22.5 55.5t15.5 41.5zM183 -201q-23 0 -38.5 15.5t-15.5 36.5q0 22 15.5 38t38.5 16q21 0 36.5 -16t15.5 -38t-15.5 -37t-36.5 -15zM41 -201
q-23 0 -38.5 15.5t-15.5 36.5q0 22 15.5 38t38.5 16q22 0 37 -16t15 -38t-15.5 -37t-36.5 -15z" />
    <glyph glyph-name="uni063D.medi" unicode="&#x63d;" horiz-adv-x="298" 
d="M0 -5l10 93q29 0 48 7.5t31 29.5t21 64t21 111l88 -16q-3 -17 -7.5 -38.5t-8 -42.5t-3.5 -38q0 -22 9 -39.5t32.5 -27.5t66.5 -10q25 0 36 -12.5t11 -32.5t-13.5 -34t-43.5 -14q-50 0 -83 12.5t-50.5 38.5t-23.5 64l35 -1q-15 -40 -36 -63.5t-44 -34t-48 -13.5t-48 -3z
M176 620q6 -14 16 -38.5t21.5 -52t22.5 -52.5t18 -40l-46 -22q-5 10 -14.5 31t-20 46t-20.5 48t-17 36l-19 39zM117 615l44 -17q-6 -16 -16.5 -43.5t-22.5 -57t-21 -52.5t-12 -30l-46 18q4 9 14 32.5t22 52.5t22.5 55.5t15.5 41.5zM214 -201q-23 0 -38.5 15.5t-15.5 36.5
q0 22 15.5 38t38.5 16q21 0 36.5 -16t15.5 -38t-15.5 -37t-36.5 -15zM72 -201q-23 0 -38.5 15.5t-15.5 36.5q0 22 15.5 38t38.5 16q22 0 37 -16t15 -38t-15.5 -37t-36.5 -15z" />
    <glyph glyph-name="uni063D.fina" unicode="&#x63d;" horiz-adv-x="674" 
d="M39 -6q0 27 5 59t16.5 69t30.5 77l81 -34q-13 -31 -22 -58t-13.5 -50.5t-4.5 -45.5q0 -44 17 -73t45.5 -45.5t63.5 -24t70 -7.5q55 0 97 11.5t71 30.5t43.5 40t14.5 40q0 11 -8 21t-25.5 20.5t-45 21t-66.5 22.5l24 90q55 -21 94.5 -34.5t68.5 -21.5t50 -11t38 -3
q24 0 35.5 -12.5t11.5 -32.5t-13.5 -34t-42.5 -14h-11h-12h-11q1 -6 2.5 -13t1.5 -16q0 -32 -21 -66.5t-62 -64t-102 -48t-141 -18.5q-90 0 -152.5 27.5t-95 78t-32.5 119.5zM241 496q6 -14 16 -38.5t21.5 -52t22.5 -52.5t18 -40l-46 -22q-5 10 -14.5 31t-20 46t-20.5 48
t-17 36l-19 39zM182 491l44 -17q-6 -16 -16.5 -43.5t-22.5 -57t-21 -52.5t-12 -30l-46 18q4 9 14 32.5t22 52.5t22.5 55.5t15.5 41.5z" />
    <glyph glyph-name="uni063E.init" unicode="&#x63e;" horiz-adv-x="287" 
d="M0 -5l10 93q49 0 78.5 6t43 25t13.5 57q0 27 -8 63.5t-20.5 76.5t-26.5 77l91 31q13 -32 24.5 -74.5t19.5 -84.5t8 -77q0 -55 -15.5 -92.5t-45.5 -59.5t-73.5 -31.5t-98.5 -9.5zM211 529q-23 0 -38.5 15.5t-15.5 36.5q0 22 15.5 38t38.5 16q21 0 36.5 -16t15.5 -37
q0 -22 -15.5 -37.5t-36.5 -15.5zM69 529q-22 0 -38 15.5t-16 36.5q0 23 15.5 39t38.5 16q22 0 37 -16t15 -38t-15 -37.5t-37 -15.5zM183 -201q-22 0 -38 15.5t-16 36.5q0 22 15.5 38t38.5 16q22 0 37 -16t15 -38t-15 -37t-37 -15zM42 -201q-23 0 -38.5 15.5t-15.5 36.5
q0 22 15.5 38t38.5 16q21 0 36.5 -16t15.5 -38t-15.5 -37t-36.5 -15z" />
    <glyph glyph-name="uni063E.medi" unicode="&#x63e;" horiz-adv-x="351" 
d="M0 -5l10 93q40 0 64 8t37.5 30.5t23 64.5t21.5 110l88 -17q-3 -17 -7.5 -38.5t-8 -42.5t-3.5 -38t5 -31t19 -24t41 -16t71 -6q25 0 36 -12.5t11 -31.5q0 -21 -13.5 -35t-43.5 -14q-50 0 -84 7t-54.5 21.5t-31 36.5t-13.5 50l33 -1q-16 -37 -36.5 -59.5t-45 -34.5t-54 -16
t-65.5 -4zM264 448q-23 0 -38.5 15.5t-15.5 36.5q0 22 15.5 38t38.5 16q21 0 36.5 -16t15.5 -37q0 -22 -15.5 -37.5t-36.5 -15.5zM122 448q-22 0 -38 15.5t-16 36.5q0 23 15.5 39t38.5 16q22 0 37 -16t15 -38t-15.5 -37.5t-36.5 -15.5zM239 -201q-22 0 -38 15.5t-16 36.5
q0 22 15.5 38t38.5 16q22 0 37 -16t15 -38t-15.5 -37t-36.5 -15zM97 -201q-22 0 -37.5 15.5t-15.5 36.5q0 22 15.5 38t38.5 16q21 0 36.5 -16t15.5 -38t-15.5 -37t-37.5 -15z" />
    <glyph glyph-name="uni063E.fina" unicode="&#x63e;" horiz-adv-x="674" 
d="M39 -6q0 27 5 59t16.5 69t30.5 77l81 -34q-13 -31 -22 -58t-13.5 -50.5t-4.5 -45.5q0 -44 17 -73t45.5 -45.5t63.5 -24t70 -7.5q55 0 97 11.5t71 30.5t43.5 40t14.5 40q0 11 -8 21t-25.5 20.5t-45 21t-66.5 22.5l24 90q55 -21 94.5 -34.5t68.5 -21.5t50 -11t38 -3
q24 0 35.5 -12.5t11.5 -32.5t-13.5 -34t-42.5 -14h-11h-12h-11q1 -6 2.5 -13t1.5 -16q0 -32 -21 -66.5t-62 -64t-102 -48t-141 -18.5q-90 0 -152.5 27.5t-95 78t-32.5 119.5zM299 307q-23 0 -38.5 15t-15.5 37t15.5 38t38.5 16q21 0 36.5 -16t15.5 -38t-15.5 -37t-36.5 -15z
M157 307q-22 0 -37.5 15.5t-15.5 36.5q0 22 15 38t38 16q22 0 37.5 -16t15.5 -38t-15.5 -37t-37.5 -15z" />
    <glyph glyph-name="uni063F.init" unicode="&#x63f;" horiz-adv-x="287" 
d="M0 -5l10 93q49 0 78.5 6t43 25t13.5 57q0 27 -8 63.5t-20.5 76.5t-26.5 77l91 31q13 -32 24.5 -74.5t19.5 -84.5t8 -77q0 -55 -15.5 -92.5t-45.5 -59.5t-73.5 -31.5t-98.5 -9.5zM142 642q-22 0 -37.5 15.5t-15.5 36.5q0 22 15.5 37.5t37.5 15.5t37 -15.5t15 -37.5
q0 -21 -15.5 -36.5t-36.5 -15.5zM73 523q-22 0 -37.5 15.5t-15.5 36.5q0 22 15.5 37.5t37.5 15.5t37 -15.5t15 -37.5q0 -21 -15.5 -36.5t-36.5 -15.5zM213 523q-22 0 -37.5 15.5t-15.5 36.5q0 22 15.5 37.5t37.5 15.5q21 0 36.5 -15.5t15.5 -37.5q0 -21 -15.5 -36.5
t-36.5 -15.5zM183 -201q-22 0 -38 15.5t-16 36.5q0 22 15.5 38t38.5 16q22 0 37 -16t15 -38t-15 -37t-37 -15zM42 -201q-23 0 -38.5 15.5t-15.5 36.5q0 22 15.5 38t38.5 16q21 0 36.5 -16t15.5 -38t-15.5 -37t-36.5 -15z" />
    <glyph glyph-name="uni063F.medi" unicode="&#x63f;" horiz-adv-x="351" 
d="M0 -5l10 93q40 0 64 8t37.5 30.5t23 64.5t21.5 110l88 -17q-3 -17 -7.5 -38.5t-8 -42.5t-3.5 -38t5 -31t19 -24t41 -16t71 -6q25 0 36 -12.5t11 -31.5q0 -21 -13.5 -35t-43.5 -14q-50 0 -84 7t-54.5 21.5t-31 36.5t-13.5 50l33 -1q-16 -37 -36.5 -59.5t-45 -34.5t-54 -16
t-65.5 -4zM188 561q-22 0 -37.5 15.5t-15.5 36.5q0 22 15.5 37.5t37.5 15.5q21 0 36.5 -15.5t15.5 -37.5q0 -21 -15.5 -36.5t-36.5 -15.5zM119 442q-22 0 -37.5 15.5t-15.5 36.5q0 22 15.5 37.5t37.5 15.5q21 0 36.5 -15.5t15.5 -37.5q0 -21 -15.5 -36.5t-36.5 -15.5z
M259 442q-22 0 -37.5 15.5t-15.5 36.5q0 22 15 37.5t38 15.5q21 0 36 -15.5t15 -37.5q0 -21 -15 -36.5t-36 -15.5zM239 -201q-22 0 -38 15.5t-16 36.5q0 22 15.5 38t38.5 16q22 0 37 -16t15 -38t-15.5 -37t-36.5 -15zM97 -201q-22 0 -37.5 15.5t-15.5 36.5q0 22 15.5 38
t38.5 16q21 0 36.5 -16t15.5 -38t-15.5 -37t-37.5 -15z" />
    <glyph glyph-name="uni063F.fina" unicode="&#x63f;" horiz-adv-x="674" 
d="M39 -6q0 27 5 59t16.5 69t30.5 77l81 -34q-13 -31 -22 -58t-13.5 -50.5t-4.5 -45.5q0 -44 17 -73t45.5 -45.5t63.5 -24t70 -7.5q55 0 97 11.5t71 30.5t43.5 40t14.5 40q0 11 -8 21t-25.5 20.5t-45 21t-66.5 22.5l24 90q55 -21 94.5 -34.5t68.5 -21.5t50 -11t38 -3
q24 0 35.5 -12.5t11.5 -32.5t-13.5 -34t-42.5 -14h-11h-12h-11q1 -6 2.5 -13t1.5 -16q0 -32 -21 -66.5t-62 -64t-102 -48t-141 -18.5q-90 0 -152.5 27.5t-95 78t-32.5 119.5zM226 422q-22 0 -37.5 15t-15.5 37t15 37.5t38 15.5q21 0 36 -15.5t15 -37.5t-15 -37t-36 -15z
M157 303q-22 0 -38 15t-16 36q0 22 15.5 38t38.5 16q21 0 36 -16t15 -37q0 -22 -15 -37t-36 -15zM296 303q-22 0 -37.5 15t-15.5 36q0 23 15.5 38.5t37.5 15.5t37 -15.5t15 -37.5t-15 -37t-37 -15z" />
    <glyph glyph-name="uni066E.init" unicode="&#x66e;" horiz-adv-x="249" 
d="M0 -5l10 93q30 0 52 7.5t34 26.5t12 54q0 27 -7.5 63.5t-20 76.5t-27.5 77l91 31q13 -33 24.5 -75.5t20 -86t8.5 -81.5q0 -41 -10 -71.5t-27.5 -52.5t-42.5 -35.5t-54.5 -20t-62.5 -6.5z" />
    <glyph glyph-name="uni066E.medi" unicode="&#x66e;" horiz-adv-x="298" 
d="M0 -5l10 93q29 0 48 7.5t31 29.5t21 64t21 111l88 -16q-3 -17 -7.5 -38.5t-8 -42.5t-3.5 -38q0 -22 9 -39.5t32.5 -27.5t66.5 -10q25 0 36 -12.5t11 -32.5t-13.5 -34t-43.5 -14q-50 0 -83 12.5t-50.5 38.5t-23.5 64l35 -1q-15 -40 -36 -63.5t-44 -34t-48 -13.5t-48 -3z
" />
    <glyph glyph-name="uni066E.fina" unicode="&#x66e;" horiz-adv-x="915" 
d="M339 -21l26 93q55 0 110.5 7.5t107 26.5t97 53.5t80.5 87.5l74 -39q-10 -23 -13.5 -37.5t-3.5 -25.5q0 -14 9 -27.5t32.5 -21.5t66.5 -8q24 0 35.5 -12.5t11.5 -32.5t-14 -34t-43 -14q-50 0 -91.5 13.5t-64.5 42t-17 73.5l28 1q-32 -41 -78.5 -68.5t-104 -45t-121 -25
t-127.5 -7.5zM339 -21q-70 0 -126.5 11.5t-96.5 36t-61.5 62t-21.5 91.5q0 27 4.5 56.5t12.5 58.5t15 54l83 -23q-4 -15 -9.5 -37t-9.5 -45t-4 -43q0 -40 21 -69t73 -44.5t146 -15.5l20 -61z" />
    <glyph glyph-name="uni066F.init" unicode="&#x66f;" horiz-adv-x="411" 
d="M0 -5l9 93h56t54.5 1.5t49.5 5.5t40 12q27 11 43 31.5t22.5 52.5t6.5 78q0 45 -8 82t-24 58.5t-40 21.5q-17 0 -32 -15t-24 -41t-9 -58q0 -23 9 -37t26.5 -20.5t39.5 -6.5t44 5t39 15l4 -76q-13 -11 -30.5 -18t-36 -10t-36.5 -3q-51 0 -84.5 18t-49.5 49t-16 69
q0 40 11.5 78.5t33 70.5t51.5 50.5t67 18.5q52 0 86.5 -34t52 -92.5t17.5 -130.5q0 -74 -23.5 -132t-75.5 -90q-24 -15 -53 -24t-63.5 -14t-73.5 -6.5t-83 -1.5z" />
    <glyph glyph-name="uni066F.medi" unicode="&#x66f;" horiz-adv-x="436" 
d="M0 -5l9 93q24 0 48.5 1t48.5 4.5t45.5 9t39.5 13.5q29 13 52 31.5t35.5 43t12.5 53.5q0 23 -8.5 45.5t-23.5 37.5t-33 15t-34 -14t-26 -37t-10 -50q0 -31 14 -55.5t36 -42.5t47 -31l-94 -37q-21 16 -43 39t-37.5 55.5t-15.5 75.5q0 36 13 69.5t35.5 60t52.5 42t64 15.5
q47 0 82 -25.5t55 -66.5t20 -87q0 -40 -12 -72.5t-33 -58.5t-48.5 -46t-58.5 -35q-24 -13 -52 -21.5t-58.5 -14t-62 -8t-60.5 -2.5zM436 -5q-42 0 -86 6t-84.5 17t-70.5 26l67 61q28 -6 62 -10t66.5 -5.5t55.5 -1.5q25 0 36 -12.5t11 -32.5q0 -19 -13.5 -33.5t-43.5 -14.5z
" />
    <glyph glyph-name="uni066F.fina" unicode="&#x66f;" horiz-adv-x="745" 
d="M313 -272q-54 0 -104.5 13.5t-91 41.5t-64.5 73t-24 108q0 18 4 47.5t16 70t36 88.5l82 -35q-14 -34 -24 -60.5t-14.5 -50t-4.5 -49.5q0 -52 27 -86.5t73 -51t103 -16.5q36 0 68.5 4.5t60 14.5t49.5 24t38.5 31.5t27.5 39.5q15 30 21.5 69t6.5 83q0 50 -8.5 88.5t-24 60
t-37.5 21.5q-15 0 -27.5 -10t-21 -26.5t-13 -35.5t-4.5 -38q0 -20 6.5 -32t21.5 -18.5t39 -8.5t58 0h167q24 0 35.5 -12.5t11.5 -32.5q0 -21 -14 -34.5t-42 -13.5h-191q-44 0 -78 8t-57.5 25t-35.5 42.5t-12 60.5q-1 39 11 77.5t34 69.5t52.5 50t67.5 19q48 0 82.5 -32.5
t53 -92t18.5 -140.5q0 -55 -12 -106t-35 -91q-22 -41 -56 -71t-77 -49t-93 -28t-105 -9z" />
    <glyph glyph-name="uni0672.fina" unicode="&#x672;" horiz-adv-x="269" 
d="M269 -5q-67 0 -107 18.5t-58 57t-21 98.5l-17 481h93l18 -438q2 -49 10.5 -76t30 -37.5t61.5 -10.5q25 0 36.5 -12.5t11.5 -31.5q0 -21 -14 -35t-44 -14zM-41 730l-41 26q11 26 31 37.5t36 11.5q23 0 40 -10t33 -10q11 0 21.5 1t18.5 5l-9 -17q-26 9 -47.5 33t-21.5 56
q0 42 29.5 64t68.5 22q11 0 23.5 -1.5t22.5 -5.5l-7 -50q-10 2 -18.5 3.5t-18.5 1.5q-22 0 -33.5 -8.5t-11.5 -24.5q0 -19 12.5 -33t28.5 -21.5t27 -8.5l-34 -7q26 6 45 14t37 15l16 -48q-7 -4 -24.5 -11.5t-39.5 -15t-44 -12.5t-39 -5q-24 0 -41.5 10.5t-29.5 10.5
q-10 0 -16.5 -6t-13.5 -16z" />
    <glyph glyph-name="uni0673.fina" unicode="&#x673;" horiz-adv-x="272" 
d="M272 -5q-68 0 -108 18.5t-58 57t-20 98.5l-20 542h93l20 -499q2 -49 10.5 -76t30 -37.5t62.5 -10.5q24 0 35.5 -12.5t11.5 -32.5t-14 -34t-43 -14zM-7 -294l-42 26q11 27 31 38.5t36 11.5q24 0 40.5 -10.5t32.5 -10.5q11 0 21.5 1t18.5 5l-9 -17q-25 10 -46.5 34
t-21.5 55q0 42 29 64.5t69 22.5q11 0 23 -2t23 -6l-8 -50q-9 2 -17.5 4t-19.5 2q-21 0 -33 -9t-12 -24q0 -19 12.5 -33.5t28.5 -22t27 -7.5l-34 -7q26 6 45.5 13.5t36.5 14.5l16 -48q-7 -4 -24.5 -11t-39.5 -14.5t-44 -12.5t-39 -5q-24 0 -41.5 10t-29.5 10q-10 0 -16 -5.5
t-13 -16.5z" />
    <glyph glyph-name="uni0675.fina" unicode="&#x675;" horiz-adv-x="442" 
d="M442 -5h-173q-66 0 -105.5 18.5t-57.5 57.5t-20 98l-20 542h93l20 -499q2 -48 10.5 -75t29.5 -38t60 -11h173q24 0 35.5 -12.5t11.5 -31.5q0 -21 -14 -35t-43 -14zM233 584l-13 55q28 5 43.5 9t34.5 9l-7 -22q-25 8 -47 33t-22 57q0 30 14 49.5t36.5 29t48.5 9.5
q11 0 23.5 -1.5t23.5 -5.5l-8 -51l-18 4t-20 2q-22 0 -33.5 -9t-11.5 -25q0 -20 12.5 -34t28.5 -21.5t27 -8.5l-39 -3q25 6 47.5 13t40.5 14l17 -51q-23 -9 -54.5 -18.5t-63.5 -18t-60 -15.5z" />
    <glyph glyph-name="uni0676.fina" unicode="&#x676;" horiz-adv-x="430" 
d="M47 -230l-20 87q66 12 113.5 31.5t78 48.5t44.5 67.5t15 86.5q1 73 -18 119t-53 46q-20 0 -34.5 -16.5t-23 -42t-8.5 -52.5q0 -18 6.5 -30t20.5 -18.5t37.5 -8.5t56.5 0h177q23 0 35.5 -11.5t12.5 -33.5q0 -23 -15.5 -35.5t-41.5 -12.5h-203q-57 0 -96.5 15.5t-60 46
t-20.5 73.5q0 40 12 79.5t33.5 72t52 52t67.5 19.5q49 0 83.5 -32.5t53 -91t17.5 -135.5q-1 -92 -39 -159.5t-109.5 -108.5t-173.5 -56zM259 406l-12 51q26 5 40.5 9t32.5 8l-6 -17q-24 8 -45 30t-21 54q0 27 13 45.5t34.5 28.5t45.5 10q10 0 22 -2t22 -6l-7 -47
q-9 2 -17.5 3.5t-17.5 1.5q-20 0 -30.5 -9.5t-10.5 -24.5q0 -17 11.5 -30.5t27 -20t25.5 -7.5l-39 -6q24 6 45 12.5t38 13.5l16 -49q-22 -8 -51 -17t-59 -17t-57 -14z" />
    <glyph glyph-name="uni0677.fina" unicode="&#x677;" horiz-adv-x="464" 
d="M81 -230l-20 87q66 12 113.5 31.5t78 48.5t44.5 67.5t15 86.5q1 73 -18 119t-53 46q-20 0 -34.5 -16.5t-23 -42t-8.5 -52.5q0 -18 6.5 -30t20.5 -18.5t37.5 -8.5t56.5 0h177q23 0 35.5 -11.5t12.5 -33.5q0 -23 -15.5 -35.5t-41.5 -12.5h-203q-57 0 -96.5 15.5t-60 46
t-20.5 73.5q0 40 12 79.5t33.5 72t52 52t67.5 19.5q49 0 83.5 -32.5t53 -91t17.5 -135.5q-1 -92 -39 -159.5t-109.5 -108.5t-173.5 -56zM303 407l-12 51q26 5 40.5 9t32.5 8l-6 -17q-24 8 -45 30t-21 54q0 27 13 45.5t34.5 28.5t45.5 10q10 0 22 -2t22 -6l-7 -47
q-9 2 -17.5 3.5t-17.5 1.5q-20 0 -30.5 -9.5t-10.5 -24.5q0 -17 11.5 -30.5t27 -20t25.5 -7.5l-39 -6q24 6 45 12.5t38 13.5l16 -49q-22 -8 -51 -17t-59 -17t-57 -14zM33 400l-9 48q61 4 101.5 19t60.5 36.5t20 42.5q0 17 -7.5 27.5t-22.5 10.5q-14 0 -23.5 -9.5t-9.5 -23.5
q0 -18 15 -33t37 -23l-33 -31q-29 11 -50 33t-21 55q0 35 24 59.5t62 24.5q40 0 60 -26.5t20 -60.5q0 -42 -28 -74.5t-78.5 -51.5t-117.5 -23z" />
    <glyph glyph-name="uni0678.init" unicode="&#x678;" horiz-adv-x="314" 
d="M0 -5l10 93q30 0 52 7.5t34 26.5t12 54q0 27 -7.5 63.5t-20 76.5t-27.5 77l91 31q13 -33 24.5 -75.5t20 -86t8.5 -81.5q0 -41 -10 -71.5t-27.5 -52.5t-42.5 -35.5t-54.5 -20t-62.5 -6.5zM138 584l-13 55q28 5 43.5 9t34.5 9l-7 -22q-25 8 -47 33t-22 57q0 30 14 49.5
t36.5 29t48.5 9.5q12 0 24 -1.5t23 -5.5l-8 -51l-18 4t-20 2q-21 0 -33 -9t-12 -25q0 -20 12.5 -34t29 -21.5t26.5 -8.5l-39 -3q25 6 48 13t40 14l17 -51q-23 -9 -54 -18.5t-63.5 -18t-60.5 -15.5z" />
    <glyph glyph-name="uni0678.medi" unicode="&#x678;" horiz-adv-x="299" 
d="M0 -5l10 93q29 0 48 7.5t31 29.5t21 64t21 111l88 -16q-3 -17 -7.5 -38.5t-8 -42.5t-3.5 -38q0 -22 9 -39.5t32.5 -27.5t66.5 -10q25 0 36 -12.5t11 -32.5t-13.5 -34t-43.5 -14q-50 0 -83 12.5t-50.5 38.5t-23.5 64l35 -1q-15 -40 -36 -63.5t-44 -34t-48 -13.5t-48 -3z
M135 415l-13 55q28 5 43.5 9t34.5 9l-7 -22q-25 8 -47 33t-22 57q0 30 14 49.5t36.5 29t48.5 9.5q12 0 24 -1.5t23 -5.5l-8 -51l-18 4t-20 2q-21 0 -33 -9t-12 -25q0 -20 12.5 -34t29 -21.5t26.5 -8.5l-39 -3q25 6 48 13t40 14l17 -51q-23 -9 -54 -18.5t-63.5 -18
t-60.5 -15.5z" />
    <glyph glyph-name="uni0678.fina" unicode="&#x678;" horiz-adv-x="674" 
d="M39 -6q0 27 5 59t16.5 69t30.5 77l81 -34q-13 -31 -22 -58t-13.5 -50.5t-4.5 -45.5q0 -44 17 -73t45.5 -45.5t63.5 -24t70 -7.5q55 0 97 11.5t71 30.5t43.5 40t14.5 40q0 11 -8 21t-25.5 20.5t-45 21t-66.5 22.5l24 90q55 -21 94.5 -34.5t68.5 -21.5t50 -11t38 -3
q24 0 35.5 -12.5t11.5 -32.5t-13.5 -34t-42.5 -14h-11h-12h-11q1 -6 2.5 -13t1.5 -16q0 -32 -21 -66.5t-62 -64t-102 -48t-141 -18.5q-90 0 -152.5 27.5t-95 78t-32.5 119.5zM457 207l-13 55q28 5 43.5 9t34.5 9l-7 -22q-25 8 -47 33t-22 57q0 30 14 49.5t36.5 29t48.5 9.5
q12 0 24 -1.5t23 -5.5l-8 -51l-18 4t-20 2q-21 0 -33 -9t-12 -25q0 -20 12.5 -34t29 -21.5t26.5 -8.5l-39 -3q25 6 48 13t40 14l17 -51q-23 -9 -54 -18.5t-63.5 -18t-60.5 -15.5z" />
    <glyph glyph-name="uni067C.init" unicode="&#x67c;" horiz-adv-x="287" 
d="M0 -5l10 93q49 0 78.5 6t43 25t13.5 57q0 27 -8 63.5t-20.5 76.5t-26.5 77l91 31q13 -32 24.5 -74.5t19.5 -85t8 -76.5q0 -55 -15.5 -92.5t-45.5 -59.5t-73.5 -31.5t-98.5 -9.5zM133 -104q-34 0 -57 24t-23 58t23.5 57.5t56.5 23.5q34 0 58 -23.5t24 -57.5t-24 -58
t-58 -24zM134 -55q14 0 24.5 9.5t10.5 23.5q0 15 -10.5 24.5t-24.5 9.5q-15 0 -25 -10t-10 -24t10 -23.5t25 -9.5zM213 523q-23 0 -38.5 15.5t-15.5 36.5q0 22 15.5 38t38.5 16q21 0 36.5 -16t15.5 -38q0 -21 -15.5 -36.5t-36.5 -15.5zM71 523q-22 0 -38 15.5t-16 36.5
q0 22 15.5 38t38.5 16q22 0 37 -16t15 -37q0 -22 -15.5 -37.5t-36.5 -15.5z" />
    <glyph glyph-name="uni067C.medi" unicode="&#x67c;" horiz-adv-x="298" 
d="M96 -108q-34 0 -57.5 24t-23.5 58t23.5 57.5t57.5 23.5q33 0 57 -24t24 -57q0 -34 -23.5 -58t-57.5 -24zM96 -59q14 0 24.5 9t10.5 24q0 14 -10.5 24t-24.5 10q-15 0 -25 -10t-10 -24t10 -23.5t25 -9.5zM0 -5l10 93q29 0 48 7.5t31 29.5t21 64t21 111l88 -16
q-3 -17 -7.5 -38.5t-8 -42.5t-3.5 -38q0 -22 9 -39.5t32.5 -27.5t66.5 -10q25 0 36 -12.5t11 -31.5q0 -21 -13.5 -35t-43.5 -14q-50 0 -83 12.5t-50.5 38.5t-23.5 64l35 -1q-15 -40 -36 -63.5t-44 -34t-48 -13.5t-48 -3zM250 414q-23 0 -38.5 15t-15.5 37t15.5 38t38.5 16
q21 0 36.5 -16t15.5 -38t-15.5 -37t-36.5 -15zM108 414q-23 0 -38.5 15.5t-15.5 36.5q0 22 15.5 38t38.5 16q22 0 37 -16t15 -38t-15.5 -37t-36.5 -15z" />
    <glyph glyph-name="uni067C.fina" unicode="&#x67c;" horiz-adv-x="915" 
d="M440 -134q-34 0 -57.5 24t-23.5 58q0 33 23.5 57t57.5 24t57.5 -24t23.5 -58q0 -33 -23.5 -57t-57.5 -24zM440 -85q15 0 25 9t10 23q0 15 -10 24.5t-25 9.5t-25 -9.5t-10 -23.5t10.5 -23.5t24.5 -9.5zM339 -21l26 93q55 0 110.5 7.5t107 26.5t97 53.5t80.5 87.5l74 -39
q-10 -23 -13.5 -37.5t-3.5 -25.5q0 -14 9 -27.5t32.5 -21.5t66.5 -8q24 0 35.5 -12.5t11.5 -31.5q0 -21 -14 -35t-43 -14q-50 0 -91.5 13.5t-64.5 42t-17 73.5l28 1q-32 -41 -78.5 -68.5t-104 -45t-121 -25t-127.5 -7.5zM339 -21q-70 0 -126.5 11.5t-96.5 36t-61.5 62
t-21.5 91.5q0 27 4.5 56.5t12.5 58.5t15 54l83 -23q-4 -15 -9.5 -37t-9.5 -45t-4 -43q0 -40 21 -69t73 -44.5t146 -15.5l20 -61zM496 415q-23 0 -38.5 15.5t-15.5 36.5q0 22 15.5 38t38.5 16q21 0 36.5 -16t15.5 -38t-15.5 -37t-36.5 -15zM354 415q-22 0 -38 15.5t-16 36.5
q0 22 15.5 38t38.5 16q22 0 37 -16t15 -38q0 -21 -15.5 -36.5t-36.5 -15.5z" />
    <glyph glyph-name="uni067D.init" unicode="&#x67d;" horiz-adv-x="287" 
d="M0 -5l10 93q49 0 78.5 6t43 25t13.5 57q0 27 -8 63.5t-20.5 76.5t-26.5 77l91 31q13 -32 24.5 -74.5t19.5 -85t8 -76.5q0 -55 -15.5 -92.5t-45.5 -59.5t-73.5 -31.5t-98.5 -9.5zM141 523q-21 0 -36.5 15t-15.5 36t15 36.5t37 15.5q21 0 36 -15.5t15 -36.5
q0 -22 -15 -36.5t-36 -14.5zM72 641q-22 0 -37 15t-15 36q0 22 15 37.5t37 15.5q21 0 36 -15.5t15 -37.5q0 -21 -15 -36t-36 -15zM211 641q-21 0 -36.5 15t-15.5 36q0 22 15.5 37.5t37.5 15.5q20 0 35 -15.5t15 -37.5q0 -21 -15 -36t-36 -15z" />
    <glyph glyph-name="uni067D.medi" unicode="&#x67d;" horiz-adv-x="351" 
d="M0 -5l10 93q40 0 64 8t37.5 30.5t23 64.5t21.5 110l88 -17q-3 -17 -7.5 -38.5t-8 -42.5t-3.5 -38t5 -31t19 -24t41 -16t71 -6q25 0 36 -12.5t11 -31.5q0 -21 -13.5 -35t-43.5 -14q-50 0 -84 7t-54.5 21.5t-31 36.5t-13.5 50l33 -1q-16 -37 -36.5 -59.5t-45 -34.5t-54 -16
t-65.5 -4zM192 442q-22 0 -37 15t-15 36t15 36.5t37 15.5q21 0 36 -15.5t15 -36.5q0 -22 -15 -36.5t-36 -14.5zM123 560q-22 0 -37.5 15t-15.5 36q0 22 15.5 37.5t37.5 15.5q21 0 36 -15.5t15 -37.5q0 -21 -15 -36t-36 -15zM262 560q-22 0 -37 15t-15 36q0 22 15 37.5
t37 15.5q21 0 36 -15.5t15 -37.5q0 -21 -15 -36t-36 -15z" />
    <glyph glyph-name="uni067D.fina" unicode="&#x67d;" horiz-adv-x="915" 
d="M339 -21l26 93q55 0 110.5 7.5t107 26.5t97 53.5t80.5 87.5l74 -39q-10 -23 -13.5 -37.5t-3.5 -25.5q0 -14 9 -27.5t32.5 -21.5t66.5 -8q24 0 35.5 -12.5t11.5 -32.5t-14 -34t-43 -14q-50 0 -91.5 13.5t-64.5 42t-17 73.5l28 1q-32 -41 -78.5 -68.5t-104 -45t-121 -25
t-127.5 -7.5zM339 -21q-70 0 -126.5 11.5t-96.5 36t-61.5 62t-21.5 91.5q0 27 4.5 56.5t12.5 58.5t15 54l83 -23q-4 -15 -9.5 -37t-9.5 -45t-4 -43q0 -40 21 -69t73 -44.5t146 -15.5l20 -61zM427 415q-21 0 -36.5 15t-15.5 36q0 22 15 37.5t37 15.5q21 0 36 -15.5t15 -37.5
q0 -21 -15 -36t-36 -15zM358 534q-22 0 -37 15t-15 36t15 36.5t37 15.5q21 0 36 -15.5t15 -36.5t-15 -36t-36 -15zM498 534q-22 0 -37.5 15t-15.5 36t15.5 36.5t37.5 15.5q21 0 36 -15.5t15 -36.5t-15.5 -36t-35.5 -15z" />
    <glyph glyph-name="uni0681.init" unicode="&#x681;" horiz-adv-x="512" 
d="M0 -5l9 93q48 0 89.5 8.5t80.5 24t77.5 37.5t81.5 49q-33 22 -62.5 39.5t-60.5 27.5t-69 10q-16 0 -29 -1t-25 -3.5t-27 -5.5l-18 86q24 8 49 12t49 4q48 0 85 -12.5t67 -30.5t55.5 -35.5t50.5 -30t53 -12.5h19l9 -87q-37 -1 -68 -14t-61 -32.5t-64 -41.5t-75 -41
t-93.5 -31.5t-122.5 -12.5zM76 450l-12 51q26 5 40.5 9t32.5 8l-6 -17q-24 8 -45 30t-21 54q0 27 13 45.5t34.5 28.5t45.5 10q10 0 22 -2t22 -6l-7 -47q-9 2 -17.5 3.5t-17.5 1.5q-20 0 -30.5 -9.5t-10.5 -24.5q0 -17 11.5 -30.5t27 -20t25.5 -7.5l-39 -6q24 6 45 12.5
t38 13.5l16 -49q-22 -8 -51 -17t-59 -17t-57 -14z" />
    <glyph glyph-name="uni0681.medi" unicode="&#x681;" horiz-adv-x="528" 
d="M528 -5q-33 0 -61.5 6.5t-52 23t-41 45.5t-28.5 74l61 37q14 -38 29.5 -58t40.5 -27.5t62 -7.5q25 0 36 -12.5t11 -32.5t-13.5 -34t-43.5 -14zM0 -5l9 93q48 0 89.5 8.5t80.5 24t77.5 37.5t81.5 49q-33 22 -62.5 39.5t-60.5 27.5t-69 10q-16 0 -29 -1t-25 -3.5t-27 -5.5
l-18 86q24 8 49 12t49 4q48 0 85 -12.5t67 -30.5t55.5 -35.5t50.5 -30t53 -12.5h19l9 -87q-37 -1 -68 -14t-61 -32.5t-64 -41.5t-75 -41t-93.5 -31.5t-122.5 -12.5zM80 450l-12 51q26 5 40.5 9t32.5 8l-6 -17q-24 8 -45 30t-21 54q0 27 13 45.5t34.5 28.5t45.5 10
q10 0 22 -2t22 -6l-7 -47q-9 2 -17.5 3.5t-17.5 1.5q-20 0 -30.5 -9.5t-10.5 -24.5q0 -17 11.5 -30.5t27 -20t25.5 -7.5l-39 -6q24 6 45 12.5t38 13.5l16 -49q-22 -8 -51 -17t-59 -17t-57 -14z" />
    <glyph glyph-name="uni0681.fina" unicode="&#x681;" horiz-adv-x="588" 
d="M589 -5q-42 0 -82 8.5t-73 33.5t-54 73.5t-26 129.5l72 31q6 -59 21 -95.5t37.5 -55.5t51.5 -25.5t63 -6.5q24 0 35.5 -12.5t11.5 -32.5t-14 -34t-43 -14zM335 -393q-63 0 -121 17t-103.5 52t-72 88t-26.5 125q0 54 16.5 104.5t47 96t74.5 85t98.5 71.5t118.5 55l4 -20
q-25 8 -52.5 19t-56.5 22t-59.5 18t-63.5 7q-25 0 -48 -4t-41 -9l-16 87q23 8 52 14t58 6q41 0 75.5 -10t67 -24.5t65.5 -29t69 -24.5t80 -10h13l6 -94q-45 -3 -93 -15.5t-94 -34.5t-87 -52.5t-72.5 -68.5t-49.5 -83t-18 -96q0 -54 20.5 -92t54.5 -61t76.5 -33.5t86.5 -10.5
q38 0 80.5 8t90.5 27l30 -80q-60 -29 -114 -39.5t-96 -10.5zM194 518l-12 51q26 5 40.5 9t32.5 8l-6 -17q-24 8 -45 30t-21 54q0 27 13 45.5t34.5 28.5t45.5 10q10 0 22 -2t22 -6l-7 -47q-9 2 -17.5 3.5t-17.5 1.5q-20 0 -30.5 -9.5t-10.5 -24.5q0 -17 11.5 -30.5t27 -20
t25.5 -7.5l-39 -6q24 6 45 12.5t38 13.5l16 -49q-22 -8 -51 -17t-59 -17t-57 -14z" />
    <glyph glyph-name="uni0682.init" unicode="&#x682;" horiz-adv-x="512" 
d="M0 -5l9 93q48 0 89.5 8.5t80.5 24t77.5 37.5t81.5 49q-33 22 -62.5 39.5t-60.5 27.5t-69 10q-16 0 -29 -1t-25 -3.5t-27 -5.5l-18 86q24 8 49 12t49 4q48 0 85 -12.5t67 -30.5t55.5 -35.5t50.5 -30t53 -12.5h19l9 -87q-37 -1 -68 -14t-61 -32.5t-64 -41.5t-75 -41
t-93.5 -31.5t-122.5 -12.5zM149 478q-22 0 -37.5 14.5t-15.5 35.5q0 22 15 37.5t38 15.5q21 0 36 -15.5t15 -36.5q0 -22 -15.5 -36.5t-35.5 -14.5zM148 618q-22 0 -37 15t-15 36q0 22 15 37.5t37 15.5q21 0 36 -15.5t15 -36.5q0 -22 -15 -37t-36 -15z" />
    <glyph glyph-name="uni0682.medi" unicode="&#x682;" horiz-adv-x="528" 
d="M528 -5q-33 0 -61.5 6.5t-52 23t-41 45.5t-28.5 74l61 37q14 -38 29.5 -58t40.5 -27.5t62 -7.5q25 0 36 -12.5t11 -32.5t-13.5 -34t-43.5 -14zM0 -5l9 93q48 0 89.5 8.5t80.5 24t77.5 37.5t81.5 49q-33 22 -62.5 39.5t-60.5 27.5t-69 10q-16 0 -29 -1t-25 -3.5t-27 -5.5
l-18 86q24 8 49 12t49 4q48 0 85 -12.5t67 -30.5t55.5 -35.5t50.5 -30t53 -12.5h19l9 -87q-37 -1 -68 -14t-61 -32.5t-64 -41.5t-75 -41t-93.5 -31.5t-122.5 -12.5zM152 479q-22 0 -37.5 14.5t-15.5 35.5q0 22 15 37.5t38 15.5q21 0 36 -15.5t15 -36.5q0 -22 -15.5 -36.5
t-35.5 -14.5zM151 619q-22 0 -37 15t-15 36q0 22 15 37.5t37 15.5q21 0 36 -15.5t15 -36.5q0 -22 -15 -37t-36 -15z" />
    <glyph glyph-name="uni0682.fina" unicode="&#x682;" horiz-adv-x="588" 
d="M589 -5q-42 0 -82 8.5t-73 33.5t-54 73.5t-26 129.5l72 31q6 -59 21 -95.5t37.5 -55.5t51.5 -25.5t63 -6.5q24 0 35.5 -12.5t11.5 -32.5t-14 -34t-43 -14zM335 -393q-63 0 -121 17t-103.5 52t-72 88t-26.5 125q0 54 16.5 104.5t47 96t74.5 85t98.5 71.5t118.5 55l4 -20
q-25 8 -52.5 19t-56.5 22t-59.5 18t-63.5 7q-25 0 -48 -4t-41 -9l-16 87q23 8 52 14t58 6q41 0 75.5 -10t67 -24.5t65.5 -29t69 -24.5t80 -10h13l6 -94q-45 -3 -93 -15.5t-94 -34.5t-87 -52.5t-72.5 -68.5t-49.5 -83t-18 -96q0 -54 20.5 -92t54.5 -61t76.5 -33.5t86.5 -10.5
q38 0 80.5 8t90.5 27l30 -80q-60 -29 -114 -39.5t-96 -10.5zM301 541q-22 0 -37.5 14.5t-15.5 35.5q0 22 15 37.5t38 15.5q21 0 36 -15.5t15 -36.5q0 -22 -15.5 -36.5t-35.5 -14.5zM300 681q-22 0 -37 15t-15 36q0 22 15 37.5t37 15.5q21 0 36 -15.5t15 -36.5q0 -22 -15 -37
t-36 -15z" />
    <glyph glyph-name="uni0685.init" unicode="&#x685;" horiz-adv-x="512" 
d="M0 -5l9 93q48 0 89.5 8.5t80.5 24t77.5 37.5t81.5 49q-33 22 -62.5 39.5t-60.5 27.5t-69 10q-16 0 -29 -1t-25 -3.5t-27 -5.5l-18 86q24 8 49 12t49 4q48 0 85 -12.5t67 -30.5t55.5 -35.5t50.5 -30t53 -12.5h19l9 -87q-37 -1 -68 -14t-61 -32.5t-64 -41.5t-75 -41
t-93.5 -31.5t-122.5 -12.5zM151 596q-22 0 -37.5 15t-15.5 37t15 37.5t38 15.5q21 0 36 -15.5t15 -37.5t-15 -37t-36 -15zM82 477q-22 0 -38 15t-16 36q0 22 15.5 38t38.5 16q21 0 36 -16t15 -37q0 -22 -15 -37t-36 -15zM221 477q-22 0 -37.5 15t-15.5 36q0 23 15.5 38.5
t37.5 15.5t37 -15.5t15 -37.5t-15 -37t-37 -15z" />
    <glyph glyph-name="uni0685.medi" unicode="&#x685;" horiz-adv-x="528" 
d="M528 -5q-33 0 -61.5 6.5t-52 23t-41 45.5t-28.5 74l61 37q14 -38 29.5 -58t40.5 -27.5t62 -7.5q25 0 36 -12.5t11 -32.5t-13.5 -34t-43.5 -14zM0 -5l9 93q48 0 89.5 8.5t80.5 24t77.5 37.5t81.5 49q-33 22 -62.5 39.5t-60.5 27.5t-69 10q-16 0 -29 -1t-25 -3.5t-27 -5.5
l-18 86q24 8 49 12t49 4q48 0 85 -12.5t67 -30.5t55.5 -35.5t50.5 -30t53 -12.5h19l9 -87q-37 -1 -68 -14t-61 -32.5t-64 -41.5t-75 -41t-93.5 -31.5t-122.5 -12.5zM155 596q-22 0 -37.5 15t-15.5 37t15 37.5t38 15.5q21 0 36 -15.5t15 -37.5t-15 -37t-36 -15zM86 477
q-22 0 -38 15t-16 36q0 22 15.5 38t38.5 16q21 0 36 -16t15 -37q0 -22 -15 -37t-36 -15zM225 477q-22 0 -37.5 15t-15.5 36q0 23 15.5 38.5t37.5 15.5t37 -15.5t15 -37.5t-15 -37t-37 -15z" />
    <glyph glyph-name="uni0685.fina" unicode="&#x685;" horiz-adv-x="588" 
d="M589 -5q-42 0 -82 8.5t-73 33.5t-54 73.5t-26 129.5l72 31q6 -59 21 -95.5t37.5 -55.5t51.5 -25.5t63 -6.5q24 0 35.5 -12.5t11.5 -32.5t-14 -34t-43 -14zM335 -393q-63 0 -121 17t-103.5 52t-72 88t-26.5 125q0 54 16.5 104.5t47 96t74.5 85t98.5 71.5t118.5 55l4 -20
q-25 8 -52.5 19t-56.5 22t-59.5 18t-63.5 7q-25 0 -48 -4t-41 -9l-16 87q23 8 52 14t58 6q41 0 75.5 -10t67 -24.5t65.5 -29t69 -24.5t80 -10h13l6 -94q-45 -3 -93 -15.5t-94 -34.5t-87 -52.5t-72.5 -68.5t-49.5 -83t-18 -96q0 -54 20.5 -92t54.5 -61t76.5 -33.5t86.5 -10.5
q38 0 80.5 8t90.5 27l30 -80q-60 -29 -114 -39.5t-96 -10.5zM298 662q-22 0 -37.5 15t-15.5 37t15 37.5t38 15.5q21 0 36 -15.5t15 -37.5t-15 -37t-36 -15zM229 543q-22 0 -38 15t-16 36q0 22 15.5 38t38.5 16q21 0 36 -16t15 -37q0 -22 -15 -37t-36 -15zM368 543
q-22 0 -37.5 15t-15.5 36q0 23 15.5 38.5t37.5 15.5t37 -15.5t15 -37.5t-15 -37t-37 -15z" />
    <glyph glyph-name="uni0689.fina" unicode="&#x689;" horiz-adv-x="473" 
d="M189 -120q-34 0 -57.5 23.5t-23.5 57.5t23.5 57.5t57.5 23.5t57.5 -23.5t23.5 -57.5t-23.5 -57.5t-57.5 -23.5zM189 -72q14 0 24.5 9.5t10.5 23.5q0 15 -10.5 24.5t-24.5 9.5q-15 0 -25 -10t-10 -24t10 -23.5t25 -9.5zM188 89q35 0 57.5 8t34 26t11.5 45q0 17 -6.5 41.5
t-20.5 57.5t-37.5 74.5t-57.5 92.5l83 52q37 -56 64.5 -109t47 -103t29.5 -98q9 -34 23.5 -53.5t32 -27t34.5 -7.5q24 0 35.5 -12.5t11.5 -32.5t-13.5 -34t-43.5 -14q-32 0 -61 11t-51 35t-32 64l33 -2q-8 -31 -28 -55t-54 -38.5t-87 -14.5q-26 0 -55.5 4t-56.5 12t-46 19
l27 85q29 -11 62.5 -18.5t63.5 -7.5z" />
    <glyph glyph-name="uni068A.fina" unicode="&#x68a;" horiz-adv-x="473" 
d="M188 89q35 0 57.5 8t34 26t11.5 45q0 17 -6.5 41.5t-20.5 57.5t-37.5 74.5t-57.5 92.5l83 52q37 -56 64.5 -109t47 -103t29.5 -98q9 -34 23.5 -53.5t32 -27t34.5 -7.5q24 0 35.5 -12.5t11.5 -32.5t-13.5 -34t-43.5 -14q-32 0 -61 11t-51 35t-32 64l33 -2q-8 -31 -28 -55
t-54 -38.5t-87 -14.5q-26 0 -55.5 4t-56.5 12t-46 19l27 85q29 -11 62.5 -18.5t63.5 -7.5zM181 -202q-23 0 -38.5 15.5t-15.5 36.5q0 22 15.5 38t38.5 16q21 0 36.5 -16t15.5 -38t-15.5 -37t-36.5 -15z" />
    <glyph glyph-name="uni068B.fina" unicode="&#x68b;" horiz-adv-x="473" 
d="M188 89q35 0 57.5 8t34 26t11.5 45q0 17 -6.5 41.5t-20.5 57.5t-37.5 74.5t-57.5 92.5l83 52q37 -56 64.5 -109t47 -103t29.5 -98q9 -34 23.5 -53.5t32 -27t34.5 -7.5q24 0 35.5 -12.5t11.5 -32.5t-13.5 -34t-43.5 -14q-32 0 -61 11t-51 35t-32 64l33 -2q-8 -31 -28 -55
t-54 -38.5t-87 -14.5q-26 0 -55.5 4t-56.5 12t-46 19l27 85q29 -11 62.5 -18.5t63.5 -7.5zM188 612q-17 0 -40 1.5t-43.5 3.5t-30.5 3l2 52q19 -3 49.5 -5t56.5 -2q32 0 52 5t28.5 14t8.5 19q0 13 -8 19.5t-21 6.5q-19 0 -37 -12.5t-31.5 -29t-20.5 -27.5l-52 5
q17 32 40.5 59t51.5 43.5t56 16.5q35 0 56 -22t21 -54q0 -19 -11 -41.5t-40.5 -38.5t-86.5 -16zM123 675l-6 181h51l8 -157zM181 -202q-23 0 -38.5 15.5t-15.5 36.5q0 22 15.5 38t38.5 16q21 0 36.5 -16t15.5 -38t-15.5 -37t-36.5 -15z" />
    <glyph glyph-name="uni068F.fina" unicode="&#x68f;" horiz-adv-x="473" 
d="M188 89q35 0 57.5 8t34 26t11.5 45q0 17 -6.5 41.5t-20.5 57.5t-37.5 74.5t-57.5 92.5l83 52q37 -56 64.5 -109t47 -103t29.5 -98q9 -34 23.5 -53.5t32 -27t34.5 -7.5q24 0 35.5 -12.5t11.5 -32.5t-13.5 -34t-43.5 -14q-32 0 -61 11t-51 35t-32 64l33 -2q-8 -31 -28 -55
t-54 -38.5t-87 -14.5q-26 0 -55.5 4t-56.5 12t-46 19l27 85q29 -11 62.5 -18.5t63.5 -7.5zM198 586q-21 0 -36.5 15t-15.5 36q0 22 15 37.5t37 15.5q21 0 36 -15.5t15 -37.5q0 -21 -15 -36t-36 -15zM129 705q-22 0 -37 15t-15 36t15 36.5t37 15.5q21 0 36 -15.5t15 -36.5
t-15 -36t-36 -15zM269 705q-22 0 -37.5 15t-15.5 36t15.5 36.5t37.5 15.5q21 0 36 -15.5t15 -36.5t-15.5 -36t-35.5 -15z" />
    <glyph glyph-name="uni0690.fina" unicode="&#x690;" horiz-adv-x="473" 
d="M188 89q35 0 57.5 8t34 26t11.5 45q0 17 -6.5 41.5t-20.5 57.5t-37.5 74.5t-57.5 92.5l83 52q37 -56 64.5 -109t47 -103t29.5 -98q9 -34 23.5 -53.5t32 -27t34.5 -7.5q24 0 35.5 -12.5t11.5 -32.5t-13.5 -34t-43.5 -14q-32 0 -61 11t-51 35t-32 64l33 -2q-8 -31 -28 -55
t-54 -38.5t-87 -14.5q-26 0 -55.5 4t-56.5 12t-46 19l27 85q29 -11 62.5 -18.5t63.5 -7.5zM122 707q-22 0 -36.5 14.5t-14.5 34.5q0 21 14.5 36t36.5 15q20 0 34.5 -15t14.5 -36q0 -20 -14.5 -34.5t-34.5 -14.5zM122 578q-22 0 -36.5 14.5t-14.5 34.5q0 21 14.5 36t36.5 15
q20 0 34.5 -15t14.5 -36q0 -20 -14.5 -34.5t-34.5 -14.5zM254 707q-21 0 -35.5 14.5t-14.5 34.5q0 21 14.5 36t35.5 15t35.5 -15t14.5 -35q0 -21 -14.5 -35.5t-35.5 -14.5zM254 578q-21 0 -35.5 14.5t-14.5 34.5q0 21 14.5 36t35.5 15t35.5 -15t14.5 -36q0 -20 -14.5 -34.5
t-35.5 -14.5z" />
    <glyph glyph-name="uni0692.fina" unicode="&#x692;" horiz-adv-x="339" 
d="M18 -231l-48 85q57 30 95.5 61.5t61 64.5t32 65t9.5 61q0 45 -19 94.5t-49 106.5l89 45q17 -33 30 -65t22.5 -60.5t16.5 -52.5q14 -51 35.5 -68.5t55.5 -17.5q24 0 35.5 -12.5t11.5 -32.5t-14 -34t-43 -14q-33 0 -57 12.5t-39.5 36.5t-23.5 56l40 4q-1 -54 -19 -104
t-50 -93t-76 -78t-96 -60zM109 481q-7 14 -17 38.5t-21.5 52t-22 52.5t-18.5 40l46 22q5 -10 14.5 -31t20.5 -46t21 -48t16 -36l19 -39zM167 486l-44 17q6 16 16.5 43.5t22.5 57t21 52.5t13 30l45 -18q-4 -9 -14 -32.5t-21.5 -52.5t-22 -55.5t-16.5 -41.5z" />
    <glyph glyph-name="uni0693.fina" unicode="&#x693;" horiz-adv-x="339" 
d="M201 -219q-34 0 -57 23.5t-23 57.5t23 57.5t57 23.5t58 -23.5t24 -57.5t-24 -57.5t-58 -23.5zM201 -171q15 0 25 9.5t10 23.5q0 15 -10 24.5t-25 9.5q-14 0 -24 -10t-10 -24t10 -23.5t24 -9.5zM18 -231l-48 85q57 30 95.5 61.5t61 64.5t32 65t9.5 61q0 45 -19 94.5
t-49 106.5l89 45q17 -33 30 -65t22.5 -60.5t16.5 -52.5q14 -51 35.5 -68.5t55.5 -17.5q24 0 35.5 -12.5t11.5 -32.5t-14 -34t-43 -14q-33 0 -57 12.5t-39.5 36.5t-23.5 56l40 4q-1 -54 -19 -104t-50 -93t-76 -78t-96 -60z" />
    <glyph glyph-name="uni0694.fina" unicode="&#x694;" horiz-adv-x="339" 
d="M18 -231l-48 85q57 30 95.5 61.5t61 64.5t32 65t9.5 61q0 45 -19 94.5t-49 106.5l89 45q17 -33 30 -65t22.5 -60.5t16.5 -52.5q14 -51 35.5 -68.5t55.5 -17.5q24 0 35.5 -12.5t11.5 -32.5t-14 -34t-43 -14q-33 0 -57 12.5t-39.5 36.5t-23.5 56l40 4q-1 -54 -19 -104
t-50 -93t-76 -78t-96 -60zM120 -409q-23 0 -38.5 15.5t-15.5 36.5q0 22 15.5 38t38.5 16q21 0 36.5 -16t15.5 -38t-15.5 -37t-36.5 -15z" />
    <glyph glyph-name="uni0695.fina" unicode="&#x695;" horiz-adv-x="339" 
d="M16 -48q-7 16 -19.5 41t-25.5 51.5t-22 42.5l37 20q5 -9 12.5 -24l16.5 -33t17 -35t13 -28l16 -30zM61 -43l-36 13q4 13 13 33.5t18 42.5t16.5 39.5t10.5 22.5l37 -15q-4 -8 -11.5 -25t-17 -38.5t-18 -41t-12.5 -31.5zM18 -231l-48 85q57 30 95.5 61.5t61 64.5t32 65
t9.5 61q0 45 -19 94.5t-49 106.5l89 45q17 -33 30 -65t22.5 -60.5t16.5 -52.5q14 -51 35.5 -68.5t55.5 -17.5q24 0 35.5 -12.5t11.5 -32.5t-14 -34t-43 -14q-33 0 -57 12.5t-39.5 36.5t-23.5 56l40 4q-1 -54 -19 -104t-50 -93t-76 -78t-96 -60z" />
    <glyph glyph-name="uni0696.fina" unicode="&#x696;" horiz-adv-x="339" 
d="M18 -231l-48 85q57 30 95.5 61.5t61 64.5t32 65t9.5 61q0 45 -19 94.5t-49 106.5l89 45q17 -33 30 -65t22.5 -60.5t16.5 -52.5q14 -51 35.5 -68.5t55.5 -17.5q24 0 35.5 -12.5t11.5 -32.5t-14 -34t-43 -14q-33 0 -57 12.5t-39.5 36.5t-23.5 56l40 4q-1 -54 -19 -104
t-50 -93t-76 -78t-96 -60zM36 -1q-23 0 -38.5 15.5t-15.5 36.5q0 23 15.5 39t38.5 16q22 0 37.5 -16t15.5 -38t-15.5 -37.5t-37.5 -15.5zM99 -409q-23 0 -38.5 15.5t-15.5 36.5q0 22 15.5 38t38.5 16q21 0 36.5 -16t15.5 -38t-15.5 -37t-36.5 -15z" />
    <glyph glyph-name="uni0697.fina" unicode="&#x697;" horiz-adv-x="339" 
d="M18 -231l-48 85q57 30 95.5 61.5t61 64.5t32 65t9.5 61q0 45 -19 94.5t-49 106.5l89 45q17 -33 30 -65t22.5 -60.5t16.5 -52.5q14 -51 35.5 -68.5t55.5 -17.5q24 0 35.5 -12.5t11.5 -32.5t-14 -34t-43 -14q-33 0 -57 12.5t-39.5 36.5t-23.5 56l40 4q-1 -54 -19 -104
t-50 -93t-76 -78t-96 -60zM222 465q-23 0 -38.5 15t-15.5 37t15.5 38t38.5 16q21 0 36.5 -16t15.5 -38t-15.5 -37t-36.5 -15zM80 465q-22 0 -37.5 15.5t-15.5 36.5q0 22 15 38t38 16q22 0 37.5 -16t15.5 -38t-15.5 -37t-37.5 -15z" />
    <glyph glyph-name="uni0699.fina" unicode="&#x699;" horiz-adv-x="339" 
d="M18 -231l-48 85q57 30 95.5 61.5t61 64.5t32 65t9.5 61q0 45 -19 94.5t-49 106.5l89 45q17 -33 30 -65t22.5 -60.5t16.5 -52.5q14 -51 35.5 -68.5t55.5 -17.5q24 0 35.5 -12.5t11.5 -32.5t-14 -34t-43 -14q-33 0 -57 12.5t-39.5 36.5t-23.5 56l40 4q-1 -54 -19 -104
t-50 -93t-76 -78t-96 -60zM73 594q-22 0 -36.5 14.5t-14.5 34.5q0 21 14.5 36t36.5 15q20 0 34.5 -15t14.5 -36q0 -20 -14.5 -34.5t-34.5 -14.5zM73 465q-22 0 -36.5 14.5t-14.5 34.5q0 21 14.5 36t36.5 15q20 0 34.5 -15t14.5 -36q0 -20 -14.5 -34.5t-34.5 -14.5zM205 594
q-21 0 -35.5 14.5t-14.5 34.5q0 21 14.5 36t35.5 15t35.5 -15t14.5 -35q0 -21 -14.5 -35.5t-35.5 -14.5zM205 465q-21 0 -35.5 14.5t-14.5 34.5q0 21 14.5 36t35.5 15t35.5 -15t14.5 -36q0 -20 -14.5 -34.5t-35.5 -14.5z" />
    <glyph glyph-name="uni069A.init" unicode="&#x69a;" horiz-adv-x="754" 
d="M0 -5l10 93q30 0 49.5 5.5t32.5 25t24.5 61t26.5 112.5l85 -20q-6 -26 -10.5 -47t-7.5 -39.5t-3 -37.5q-1 -29 12 -44.5t58 -15.5q23 0 38.5 5.5t26.5 26t20.5 63.5t20.5 116l87 -15q-3 -19 -7.5 -45t-7.5 -51t-3 -41t6 -30t22.5 -21.5t46.5 -7.5q28 0 46.5 9t28 27.5
t9.5 47.5q0 43 -17 100.5t-40 117.5l92 33q13 -36 26 -79t21.5 -86t8.5 -79q0 -45 -13 -79.5t-36.5 -57.5t-55.5 -35t-70 -12t-65 11t-43 34t-22 62h29q-16 -46 -37 -68.5t-49 -30.5t-69 -8q-28 0 -55.5 8t-47 32.5t-23.5 72.5l37 5q-18 -53 -43 -78t-59.5 -32.5t-79.5 -7.5
zM367 -202q-23 0 -38.5 15.5t-15.5 36.5q0 22 15.5 38t38.5 16q21 0 36.5 -16t15.5 -38t-15.5 -37t-36.5 -15zM410 451q-23 0 -38.5 15.5t-15.5 36.5q0 23 15.5 39t38.5 16q22 0 37.5 -16t15.5 -38t-15.5 -37.5t-37.5 -15.5z" />
    <glyph glyph-name="uni069A.medi" unicode="&#x69a;" horiz-adv-x="780" 
d="M0 -5l10 93q28 0 46 5.5t31 25t24 61t26 112.5l85 -20q-5 -24 -13 -59.5t-8 -63.5q0 -18 4.5 -32t20 -21.5t46.5 -7.5q23 0 38.5 5.5t26.5 26t20.5 63.5t20.5 116l87 -15q-3 -19 -7 -45.5t-7.5 -51.5t-3.5 -41q0 -19 5.5 -32t21.5 -19.5t49 -6.5q37 0 57.5 19t20.5 70
q0 23 -1 49t-3.5 58.5t-8.5 73.5l88 7q5 -84 12.5 -138t19 -84.5t31.5 -42.5t51 -12q25 0 36.5 -12.5t11.5 -32.5t-14 -34t-44 -14t-53.5 8t-41.5 24t-30.5 39t-19.5 52l24 -6q-9 -46 -30.5 -71t-50 -35.5t-60.5 -10.5q-38 0 -65 11t-42.5 34.5t-17.5 61.5h28
q-16 -44 -36 -67t-48.5 -31.5t-71.5 -8.5q-26 0 -54 8t-47.5 32t-24.5 73l38 5q-19 -54 -43.5 -79t-57 -32t-76.5 -7zM367 -202q-23 0 -38.5 15.5t-15.5 36.5q0 22 15.5 38t38.5 16q21 0 36.5 -16t15.5 -38t-15.5 -37t-36.5 -15zM405 451q-23 0 -38.5 15.5t-15.5 36.5
q0 23 15.5 39t38.5 16q22 0 37.5 -16t15.5 -38t-15.5 -37.5t-37.5 -15.5z" />
    <glyph glyph-name="uni069A.fina" unicode="&#x69a;" horiz-adv-x="1126" 
d="M291 -232q-54 0 -100 15t-80 44.5t-53 71.5t-19 96q0 19 3.5 48.5t15 68t34.5 83.5l80 -34q-13 -32 -22 -57.5t-13 -48.5t-4 -47q0 -46 19.5 -79.5t55.5 -50.5t85 -17q54 0 88 15.5t51.5 41t24.5 55t7 57.5q0 45 -6.5 83t-17 77t-25.5 86l93 25q16 -58 23 -85t11 -43
q11 -35 22.5 -53.5t26.5 -25t35 -6.5q19 0 32.5 5.5t25.5 26t21.5 63.5t18.5 116l87 -15q-3 -20 -7 -46t-7.5 -51t-3.5 -41q0 -15 6 -28.5t22.5 -21.5t47.5 -8q35 0 56.5 23t21.5 66q0 23 -1 49t-3.5 58.5t-7.5 73.5l87 7q6 -86 13.5 -140t19.5 -84t31.5 -41.5t50.5 -11.5
q24 0 35.5 -12.5t11.5 -32.5t-14 -34t-43 -14q-33 0 -63.5 11.5t-52.5 38.5t-32 72l27 -5q-12 -47 -34.5 -72.5t-50.5 -35t-54 -9.5q-37 0 -64.5 12t-44 36.5t-20.5 61.5h29q-15 -41 -34.5 -65t-44 -34.5t-57.5 -10.5q-24 0 -43 7t-33 20t-22.5 29.5t-11.5 35.5l33 -44
q2 -55 -13 -104t-47 -88t-82.5 -61t-120.5 -22zM750 -197q-23 0 -38.5 15.5t-15.5 36.5q0 22 15.5 38t38.5 16q21 0 36.5 -16t15.5 -38t-15.5 -37t-36.5 -15zM718 451q-23 0 -38.5 15.5t-15.5 36.5q0 23 15.5 39t38.5 16q22 0 37.5 -16t15.5 -38t-15.5 -37.5t-37.5 -15.5z
" />
    <glyph glyph-name="uni069B.init" unicode="&#x69b;" horiz-adv-x="754" 
d="M0 -5l10 93q30 0 49.5 5.5t32.5 25t24.5 61t26.5 112.5l85 -20q-6 -26 -10.5 -47t-7.5 -39.5t-3 -37.5q-1 -29 12 -44.5t58 -15.5q23 0 38.5 5.5t26.5 26t20.5 63.5t20.5 116l87 -15q-3 -19 -7.5 -45t-7.5 -51t-3 -41t6 -30t22.5 -21.5t46.5 -7.5q28 0 46.5 9t28 27.5
t9.5 47.5q0 43 -17 100.5t-40 117.5l92 33q13 -36 26 -79t21.5 -86t8.5 -79q0 -45 -13 -79.5t-36.5 -57.5t-55.5 -35t-70 -12t-65 11t-43 34t-22 62h29q-16 -46 -37 -68.5t-49 -30.5t-69 -8q-28 0 -55.5 8t-47 32.5t-23.5 72.5l37 5q-18 -53 -43 -78t-59.5 -32.5t-79.5 -7.5
zM367 -318q-22 0 -37 15t-15 36q0 22 15 37.5t37 15.5q21 0 36 -15.5t15 -37.5q0 -21 -15 -36t-36 -15zM298 -199q-22 0 -37 15t-15 36t15 36.5t37 15.5q21 0 36 -15.5t15 -36.5t-15 -36t-36 -15zM437 -199q-21 0 -36.5 15t-15.5 36t15.5 36.5t36.5 15.5t36 -15.5t15 -36.5
t-15 -36t-36 -15z" />
    <glyph glyph-name="uni069B.medi" unicode="&#x69b;" horiz-adv-x="780" 
d="M0 -5l10 93q28 0 46 5.5t31 25t24 61t26 112.5l85 -20q-5 -24 -13 -59.5t-8 -63.5q0 -18 4.5 -32t20 -21.5t46.5 -7.5q23 0 38.5 5.5t26.5 26t20.5 63.5t20.5 116l87 -15q-3 -19 -7 -45.5t-7.5 -51.5t-3.5 -41q0 -19 5.5 -32t21.5 -19.5t49 -6.5q37 0 57.5 19t20.5 70
q0 23 -1 49t-3.5 58.5t-8.5 73.5l88 7q5 -84 12.5 -138t19 -84.5t31.5 -42.5t51 -12q25 0 36.5 -12.5t11.5 -32.5t-14 -34t-44 -14t-53.5 8t-41.5 24t-30.5 39t-19.5 52l24 -6q-9 -46 -30.5 -71t-50 -35.5t-60.5 -10.5q-38 0 -65 11t-42.5 34.5t-17.5 61.5h28
q-16 -44 -36 -67t-48.5 -31.5t-71.5 -8.5q-26 0 -54 8t-47.5 32t-24.5 73l38 5q-19 -54 -43.5 -79t-57 -32t-76.5 -7zM366 -318q-22 0 -37 15t-15 36q0 22 15 37.5t37 15.5q21 0 36 -15.5t15 -37.5q0 -21 -15 -36t-36 -15zM297 -199q-22 0 -37 15t-15 36t15 36.5t37 15.5
q21 0 36 -15.5t15 -36.5t-15 -36t-36 -15zM436 -199q-21 0 -36.5 15t-15.5 36t15.5 36.5t36.5 15.5t36 -15.5t15 -36.5t-15 -36t-36 -15z" />
    <glyph glyph-name="uni069B.fina" unicode="&#x69b;" horiz-adv-x="1126" 
d="M291 -232q-54 0 -100 15t-80 44.5t-53 71.5t-19 96q0 19 3.5 48.5t15 68t34.5 83.5l80 -34q-13 -32 -22 -57.5t-13 -48.5t-4 -47q0 -46 19.5 -79.5t55.5 -50.5t85 -17q54 0 88 15.5t51.5 41t24.5 55t7 57.5q0 45 -6.5 83t-17 77t-25.5 86l93 25q16 -58 23 -85t11 -43
q11 -35 22.5 -53.5t26.5 -25t35 -6.5q19 0 32.5 5.5t25.5 26t21.5 63.5t18.5 116l87 -15q-3 -20 -7 -46t-7.5 -51t-3.5 -41q0 -15 6 -28.5t22.5 -21.5t47.5 -8q35 0 56.5 23t21.5 66q0 23 -1 49t-3.5 58.5t-7.5 73.5l87 7q6 -86 13.5 -140t19.5 -84t31.5 -41.5t50.5 -11.5
q24 0 35.5 -12.5t11.5 -32.5t-14 -34t-43 -14q-33 0 -63.5 11.5t-52.5 38.5t-32 72l27 -5q-12 -47 -34.5 -72.5t-50.5 -35t-54 -9.5q-37 0 -64.5 12t-44 36.5t-20.5 61.5h29q-15 -41 -34.5 -65t-44 -34.5t-57.5 -10.5q-24 0 -43 7t-33 20t-22.5 29.5t-11.5 35.5l33 -44
q2 -55 -13 -104t-47 -88t-82.5 -61t-120.5 -22zM697 -331q-22 0 -37 15t-15 36q0 22 15 37.5t37 15.5q21 0 36 -15.5t15 -37.5q0 -21 -15 -36t-36 -15zM628 -212q-22 0 -37 15t-15 36t15 36.5t37 15.5q21 0 36 -15.5t15 -36.5t-15 -36t-36 -15zM767 -212q-21 0 -36.5 15
t-15.5 36t15.5 36.5t36.5 15.5t36 -15.5t15 -36.5t-15 -36t-36 -15z" />
    <glyph glyph-name="uni069D.init" unicode="&#x69d;" horiz-adv-x="818" 
d="M430 -15q-77 0 -129 6.5t-84.5 19.5t-50 33t-26.5 48l25 7q-21 -43 -47.5 -66t-56 -30.5t-61.5 -7.5l10 93q28 0 44.5 9t27.5 31t21 61.5t26 98.5l88 -23q-7 -24 -11.5 -44.5t-7 -36t-2.5 -24.5q0 -23 8.5 -38.5t33.5 -25t72.5 -13.5t124.5 -4q65 0 113 8t78.5 24
t45.5 39.5t15 53.5q0 23 -9.5 42.5t-28.5 31.5t-48 12q-38 0 -75.5 -22t-72 -56.5t-63 -72t-48.5 -68.5l-97 5q31 56 72 111t88.5 100t98.5 71.5t103 26.5q51 0 90 -22.5t60.5 -62t21.5 -91.5q0 -62 -36 -113t-113 -81t-200 -30zM497 -211q-23 0 -38.5 15.5t-15.5 36.5
q0 22 15.5 38t38.5 16q21 0 36.5 -16t15.5 -38t-15.5 -37t-36.5 -15zM355 -211q-23 0 -38.5 15.5t-15.5 36.5q0 22 15.5 38t38.5 16q22 0 37 -16t15 -38t-15.5 -37t-36.5 -15z" />
    <glyph glyph-name="uni069D.medi" unicode="&#x69d;" horiz-adv-x="841" 
d="M841 -5q-31 0 -65 8t-63.5 23t-49.5 35l75 52q23 -13 51.5 -19t61.5 -6q25 0 36.5 -12.5t11.5 -32.5t-14 -34t-44 -14zM430 -15q-77 0 -129 6.5t-84.5 19.5t-50 33t-26.5 48l25 7q-21 -43 -47.5 -66t-56 -30.5t-61.5 -7.5l10 93q28 0 44.5 9t27.5 31t21 61.5t26 98.5
l88 -23q-7 -24 -11.5 -44.5t-7 -36t-2.5 -24.5q0 -23 8.5 -38.5t33.5 -25t72.5 -13.5t124.5 -4q65 0 113 8t78.5 24t45.5 39.5t15 53.5q0 23 -9.5 42.5t-28.5 31.5t-48 12q-38 0 -75.5 -22t-72 -56.5t-63 -72t-48.5 -68.5l-97 5q31 56 72 111t88.5 100t98.5 71.5t103 26.5
q51 0 90 -22.5t60.5 -62t21.5 -91.5q0 -62 -36 -113t-113 -81t-200 -30zM497 -211q-23 0 -38.5 15.5t-15.5 36.5q0 22 15.5 38t38.5 16q21 0 36.5 -16t15.5 -38t-15.5 -37t-36.5 -15zM355 -211q-23 0 -38.5 15.5t-15.5 36.5q0 22 15.5 38t38.5 16q22 0 37 -16t15 -38
t-15.5 -37t-36.5 -15z" />
    <glyph glyph-name="uni069D.fina" unicode="&#x69d;" horiz-adv-x="1194" 
d="M1194 -5q-32 0 -66 8t-63.5 23t-49.5 35l75 52q23 -13 51.5 -19t62.5 -6q24 0 35.5 -12.5t11.5 -32.5t-14 -34t-43 -14zM289 -232q-52 0 -97.5 15t-79.5 44t-53.5 72t-19.5 99q0 21 4 49t15 65t34 84l80 -35q-13 -31 -22 -57t-13 -48.5t-4 -45.5q0 -48 20 -81.5
t55.5 -50.5t83.5 -17q50 0 83 13.5t52.5 37.5t28 56.5t8.5 70.5q0 61 -15 117.5t-33 120.5l93 25q11 -39 16.5 -63.5t9.5 -39.5t8 -26q9 -22 25 -39t44 -29t71.5 -18t107.5 -6q50 0 90 5t69.5 15.5t49.5 25.5t30 35t10 44q0 23 -9.5 42.5t-29 31.5t-47.5 12q-35 0 -70 -18.5
t-69 -50.5t-64 -70.5t-57 -78.5l-94 7q19 36 48 77.5t64.5 82t75.5 73.5t83.5 53.5t88.5 20.5q50 0 88.5 -22.5t61 -62t22.5 -92.5q0 -47 -20.5 -88t-62.5 -71t-107.5 -47.5t-157.5 -17.5q-62 0 -110 9.5t-81.5 25t-52.5 34.5t-24 38l39 -45q1 -55 -13.5 -105.5t-46 -90
t-83 -62.5t-123.5 -23zM867 -209q-23 0 -38.5 15.5t-15.5 36.5q0 22 15.5 38t38.5 16q21 0 36.5 -16t15.5 -38t-15.5 -37t-36.5 -15zM725 -209q-23 0 -38.5 15.5t-15.5 36.5q0 22 15.5 38t38.5 16q22 0 37 -16t15 -38t-15.5 -37t-36.5 -15z" />
    <glyph glyph-name="uni069E.init" unicode="&#x69e;" horiz-adv-x="818" 
d="M430 -15q-77 0 -129 6.5t-84.5 19.5t-50 33t-26.5 48l25 7q-21 -43 -47.5 -66t-56 -30.5t-61.5 -7.5l10 93q28 0 44.5 9t27.5 31t21 61.5t26 98.5l88 -23q-7 -24 -11.5 -44.5t-7 -36t-2.5 -24.5q0 -23 8.5 -38.5t33.5 -25t72.5 -13.5t124.5 -4q65 0 113 8t78.5 24
t45.5 39.5t15 53.5q0 23 -9.5 42.5t-28.5 31.5t-48 12q-38 0 -75.5 -22t-72 -56.5t-63 -72t-48.5 -68.5l-97 5q31 56 72 111t88.5 100t98.5 71.5t103 26.5q51 0 90 -22.5t60.5 -62t21.5 -91.5q0 -62 -36 -113t-113 -81t-200 -30zM580 606q-22 0 -37.5 15t-15.5 37t15 37.5
t38 15.5q21 0 36 -15.5t15 -37.5t-15 -37t-36 -15zM511 487q-22 0 -38 15t-16 36q0 22 15.5 38t38.5 16q21 0 36 -16t15 -37q0 -22 -15 -37t-36 -15zM650 487q-22 0 -37.5 15t-15.5 36q0 23 15.5 38.5t37.5 15.5t37 -15.5t15 -37.5t-15 -37t-37 -15z" />
    <glyph glyph-name="uni069E.medi" unicode="&#x69e;" horiz-adv-x="841" 
d="M841 -5q-31 0 -65 8t-63.5 23t-49.5 35l75 52q23 -13 51.5 -19t61.5 -6q25 0 36.5 -12.5t11.5 -32.5t-14 -34t-44 -14zM430 -15q-77 0 -129 6.5t-84.5 19.5t-50 33t-26.5 48l25 7q-21 -43 -47.5 -66t-56 -30.5t-61.5 -7.5l10 93q28 0 44.5 9t27.5 31t21 61.5t26 98.5
l88 -23q-7 -24 -11.5 -44.5t-7 -36t-2.5 -24.5q0 -23 8.5 -38.5t33.5 -25t72.5 -13.5t124.5 -4q65 0 113 8t78.5 24t45.5 39.5t15 53.5q0 23 -9.5 42.5t-28.5 31.5t-48 12q-38 0 -75.5 -22t-72 -56.5t-63 -72t-48.5 -68.5l-97 5q31 56 72 111t88.5 100t98.5 71.5t103 26.5
q51 0 90 -22.5t60.5 -62t21.5 -91.5q0 -62 -36 -113t-113 -81t-200 -30zM580 606q-22 0 -37.5 15t-15.5 37t15 37.5t38 15.5q21 0 36 -15.5t15 -37.5t-15 -37t-36 -15zM511 487q-22 0 -38 15t-16 36q0 22 15.5 38t38.5 16q21 0 36 -16t15 -37q0 -22 -15 -37t-36 -15z
M650 487q-22 0 -37.5 15t-15.5 36q0 23 15.5 38.5t37.5 15.5t37 -15.5t15 -37.5t-15 -37t-37 -15z" />
    <glyph glyph-name="uni069E.fina" unicode="&#x69e;" horiz-adv-x="1194" 
d="M1194 -5q-32 0 -66 8t-63.5 23t-49.5 35l75 52q23 -13 51.5 -19t62.5 -6q24 0 35.5 -12.5t11.5 -32.5t-14 -34t-43 -14zM289 -232q-52 0 -97.5 15t-79.5 44t-53.5 72t-19.5 99q0 21 4 49t15 65t34 84l80 -35q-13 -31 -22 -57t-13 -48.5t-4 -45.5q0 -48 20 -81.5
t55.5 -50.5t83.5 -17q50 0 83 13.5t52.5 37.5t28 56.5t8.5 70.5q0 61 -15 117.5t-33 120.5l93 25q11 -39 16.5 -63.5t9.5 -39.5t8 -26q9 -22 25 -39t44 -29t71.5 -18t107.5 -6q50 0 90 5t69.5 15.5t49.5 25.5t30 35t10 44q0 23 -9.5 42.5t-29 31.5t-47.5 12q-35 0 -70 -18.5
t-69 -50.5t-64 -70.5t-57 -78.5l-94 7q19 36 48 77.5t64.5 82t75.5 73.5t83.5 53.5t88.5 20.5q50 0 88.5 -22.5t61 -62t22.5 -92.5q0 -47 -20.5 -88t-62.5 -71t-107.5 -47.5t-157.5 -17.5q-62 0 -110 9.5t-81.5 25t-52.5 34.5t-24 38l39 -45q1 -55 -13.5 -105.5t-46 -90
t-83 -62.5t-123.5 -23zM930 608q-22 0 -37.5 15t-15.5 37t15 37.5t38 15.5q21 0 36 -15.5t15 -37.5t-15 -37t-36 -15zM861 489q-22 0 -38 15t-16 36q0 22 15.5 38t38.5 16q21 0 36 -16t15 -37q0 -22 -15 -37t-36 -15zM1000 489q-22 0 -37.5 15t-15.5 36q0 23 15.5 38.5
t37.5 15.5t37 -15.5t15 -37.5t-15 -37t-37 -15z" />
    <glyph glyph-name="uni069F.init" unicode="&#x69f;" horiz-adv-x="622" 
d="M0 -5l9 93h197q67 0 120 6.5t90 21.5t56 38t19 56q0 20 -9 39t-27.5 31.5t-49.5 12.5q-38 0 -75 -21.5t-71.5 -55t-63.5 -71.5t-50 -72l-98 6q33 58 74.5 113.5t88 99.5t98 70t103.5 26q50 0 89 -22t61 -61.5t22 -90.5q0 -57 -32 -102.5t-97 -74.5q-32 -14 -73.5 -23
t-91 -14t-109.5 -5h-180zM97 98l-19 613h94l19 -518zM385 605q-22 0 -37.5 15t-15.5 37t15 37.5t38 15.5q21 0 36 -15.5t15 -37.5t-15 -37t-36 -15zM316 486q-22 0 -38 15t-16 36q0 22 15.5 38t38.5 16q21 0 36 -16t15 -37q0 -22 -15 -37t-36 -15zM455 486q-22 0 -37.5 15
t-15.5 36q0 23 15.5 38.5t37.5 15.5t37 -15.5t15 -37.5t-15 -37t-37 -15z" />
    <glyph glyph-name="uni069F.medi" unicode="&#x69f;" horiz-adv-x="635" 
d="M635 -5q-32 0 -65.5 8t-63.5 23t-50 35l75 52q23 -13 51.5 -19t62.5 -6q24 0 35.5 -12.5t11.5 -32.5t-14 -34t-43 -14zM0 -5l9 93h197q67 0 120 6.5t90 21.5t56 38t19 56q0 20 -9 39t-27.5 31.5t-49.5 12.5q-38 0 -75 -21.5t-71.5 -55t-63.5 -71.5t-50 -72l-98 6
q33 58 74.5 113.5t88 99.5t98 70t103.5 26q50 0 89 -22t61 -61.5t22 -90.5q0 -57 -32 -102.5t-97 -74.5q-32 -14 -73.5 -23t-91 -14t-109.5 -5h-180zM97 98l-19 613h94l19 -518zM385 605q-22 0 -37.5 15t-15.5 37t15 37.5t38 15.5q21 0 36 -15.5t15 -37.5t-15 -37t-36 -15z
M316 486q-22 0 -38 15t-16 36q0 22 15.5 38t38.5 16q21 0 36 -16t15 -37q0 -22 -15 -37t-36 -15zM455 486q-22 0 -37.5 15t-15.5 36q0 23 15.5 38.5t37.5 15.5t37 -15.5t15 -37.5t-15 -37t-37 -15z" />
    <glyph glyph-name="uni069F.fina" unicode="&#x69f;" horiz-adv-x="720" 
d="M720 -5q-32 0 -66 8t-63.5 23t-49.5 35l75 52q23 -13 51.5 -19t62.5 -6q24 0 35.5 -12.5t11.5 -32.5t-14 -34t-43 -14zM314 -13q-42 0 -85 1.5t-83 4t-74 6t-60 7.5l11 91q35 -4 68 -7t68 -5t74 -3t87 -1q61 0 108 7.5t78.5 23t48 39t16.5 55.5q0 21 -9.5 41t-28.5 32.5
t-50 12.5q-36 0 -73.5 -21.5t-72 -55.5t-63.5 -72t-49 -70l-97 7q32 57 73 111.5t88.5 99t98.5 70.5t102 26q49 0 88 -22t61.5 -61t22.5 -93q0 -65 -37.5 -115.5t-114.5 -79.5t-196 -29zM178 99l-20 612h95l18 -517zM466 604q-22 0 -37.5 15t-15.5 37t15 37.5t38 15.5
q21 0 36 -15.5t15 -37.5t-15 -37t-36 -15zM397 485q-22 0 -38 15t-16 36q0 22 15.5 38t38.5 16q21 0 36 -16t15 -37q0 -22 -15 -37t-36 -15zM536 485q-22 0 -37.5 15t-15.5 36q0 23 15.5 38.5t37.5 15.5t37 -15.5t15 -37.5t-15 -37t-37 -15z" />
    <glyph glyph-name="uni06A0.init" unicode="&#x6a0;" horiz-adv-x="454" 
d="M0 -5l10 93q40 0 66 1t46.5 3t38.5 4q-20 12 -43.5 35.5t-40 58t-16.5 78.5q0 58 26.5 100t72 64.5t99.5 22.5q23 0 43.5 -3.5t43.5 -11.5l-17 -85q-17 5 -32.5 7t-31.5 2q-31 0 -56 -12t-40 -34t-15 -54q0 -25 10 -46.5t26 -38t35 -29t37 -19.5t30 -7q15 4 24.5 6.5
t19.5 6t23.5 9t34.5 14.5l31 -81q-59 -26 -123.5 -45t-138 -29t-163.5 -10zM234 675q-22 0 -37.5 15t-15.5 37t15 37.5t38 15.5q21 0 36 -15.5t15 -37.5t-15 -37t-36 -15zM165 556q-22 0 -38 15t-16 36q0 22 15.5 38t38.5 16q21 0 36 -16t15 -37q0 -22 -15 -37t-36 -15z
M304 556q-22 0 -37.5 15t-15.5 36q0 23 15.5 38.5t37.5 15.5t37 -15.5t15 -37.5t-15 -37t-37 -15z" />
    <glyph glyph-name="uni06A0.medi" unicode="&#x6a0;" horiz-adv-x="465" 
d="M0 -5l10 93q53 0 100.5 11.5t86.5 32t67 46.5t44 53.5t16 54.5q0 18 -10 30t-27.5 18t-39.5 6q-18 0 -40 -5.5t-42.5 -15.5t-35.5 -24q21 -19 43 -42.5t44.5 -50t42.5 -56.5q19 -14 41 -24.5t49 -18t58.5 -11.5t67.5 -4q24 0 35.5 -12t11.5 -33q0 -22 -14.5 -35
t-42.5 -13q-57 0 -105.5 10t-89.5 30t-77 52q-20 30 -42.5 57t-43.5 49.5t-40 39.5q-4 4 -8.5 15.5t-7.5 25t-3 20.5q0 21 17.5 44.5t46.5 44t66.5 33.5t77.5 13q46 0 81.5 -13.5t56 -41t20.5 -71.5q0 -47 -21 -91.5t-59 -83.5t-89.5 -69t-113.5 -47t-131 -17zM248 650
q-22 0 -37.5 15t-15.5 37t15 37.5t38 15.5q21 0 36 -15.5t15 -37.5t-15 -37t-36 -15zM179 531q-22 0 -38 15t-16 36q0 22 15.5 38t38.5 16q21 0 36 -16t15 -37q0 -22 -15 -37t-36 -15zM318 531q-22 0 -37.5 15t-15.5 36q0 23 15.5 38.5t37.5 15.5t37 -15.5t15 -37.5t-15 -37
t-37 -15z" />
    <glyph glyph-name="uni06A0.fina" unicode="&#x6a0;" horiz-adv-x="470" 
d="M271 -383q-47 0 -95 10t-88 34.5t-64.5 66.5t-24.5 105q0 60 23.5 107.5t61 85t79.5 69.5t79 62t61 61t25 67q0 15 -8 27.5t-24.5 20t-42.5 7.5q-18 0 -39.5 -5.5t-41.5 -15.5t-36 -24q25 -25 47.5 -48t43.5 -47.5t43 -55.5q20 -14 42 -24.5t48 -18t55.5 -10.5t64.5 -3
q22 0 34.5 -11.5t12.5 -33.5q0 -21 -14 -34.5t-43 -13.5q-62 0 -111 10.5t-88.5 32t-75.5 53.5q-17 28 -38 53.5t-42.5 48t-40.5 39.5q-4 4 -8.5 16.5t-7.5 25.5t-3 19q0 22 17.5 46t47 44.5t66.5 33t78 12.5q77 0 115 -36t39 -90q0 -52 -23.5 -93.5t-60 -77t-78.5 -68.5
t-79 -66t-60.5 -71t-23.5 -83q0 -41 17 -67.5t43.5 -41t58 -20t60.5 -5.5q26 0 53 2.5t58.5 11t69.5 24.5l30 -75q-30 -18 -67 -30.5t-74 -19t-71 -6.5zM257 650q-22 0 -37.5 15t-15.5 37t15 37.5t38 15.5q21 0 36 -15.5t15 -37.5t-15 -37t-36 -15zM188 531q-22 0 -38 15
t-16 36q0 22 15.5 38t38.5 16q21 0 36 -16t15 -37q0 -22 -15 -37t-36 -15zM327 531q-22 0 -37.5 15t-15.5 36q0 23 15.5 38.5t37.5 15.5t37 -15.5t15 -37.5t-15 -37t-37 -15z" />
    <glyph glyph-name="uni06A1.init" unicode="&#x6a1;" horiz-adv-x="411" 
d="M0 -5l9 93h56t54.5 1.5t49.5 5.5t40 12q27 11 43 31.5t22.5 52.5t6.5 78q0 45 -8 82t-24 58.5t-40 21.5q-17 0 -32 -15t-24 -41t-9 -58q0 -23 9 -37t26.5 -20.5t39.5 -6.5t44 5t39 15l4 -76q-13 -11 -30.5 -18t-36 -10t-36.5 -3q-51 0 -84.5 18t-49.5 49t-16 69
q0 40 11.5 78.5t33 70.5t51.5 50.5t67 18.5q52 0 86.5 -34t52 -92.5t17.5 -130.5q0 -74 -23.5 -132t-75.5 -90q-24 -15 -53 -24t-63.5 -14t-73.5 -6.5t-83 -1.5z" />
    <glyph glyph-name="uni06A1.medi" unicode="&#x6a1;" horiz-adv-x="436" 
d="M0 -5l9 93q24 0 48.5 1t48.5 4.5t45.5 9t39.5 13.5q29 13 52 31.5t35.5 43t12.5 53.5q0 23 -8.5 45.5t-23.5 37.5t-33 15t-34 -14t-26 -37t-10 -50q0 -31 14 -55.5t36 -42.5t47 -31l-94 -37q-21 16 -43 39t-37.5 55.5t-15.5 75.5q0 36 13 69.5t35.5 60t52.5 42t64 15.5
q47 0 82 -25.5t55 -66.5t20 -87q0 -40 -12 -72.5t-33 -58.5t-48.5 -46t-58.5 -35q-24 -13 -52 -21.5t-58.5 -14t-62 -8t-60.5 -2.5zM436 -5q-42 0 -86 6t-84.5 17t-70.5 26l67 61q28 -6 62 -10t66.5 -5.5t55.5 -1.5q25 0 36 -12.5t11 -32.5q0 -19 -13.5 -33.5t-43.5 -14.5z
" />
    <glyph glyph-name="uni06A1.fina" unicode="&#x6a1;" horiz-adv-x="966" 
d="M337 -21l26 93q52 0 103.5 2.5t98.5 8t86.5 14t65.5 19.5q34 14 57.5 32t36 41t12.5 51q0 17 -5 35t-13.5 33t-21 24.5t-27.5 9.5q-19 0 -35 -15.5t-25.5 -40t-9.5 -51.5q0 -29 13.5 -52t35.5 -40t46 -30l-92 -38q-20 16 -42.5 37.5t-38 52.5t-15.5 73q0 38 12.5 72
t35 61.5t53 44t65.5 16.5q48 0 83 -27t54.5 -69.5t19.5 -89.5q0 -36 -12 -66.5t-33 -55.5t-49 -45t-59 -35q-33 -18 -82 -30t-107 -20t-119 -11.5t-118 -3.5zM967 -5q-43 0 -86.5 5.5t-83.5 16.5t-71 27l67 61q25 -6 58.5 -10t67 -5.5t57.5 -1.5q25 0 36.5 -12.5t11.5 -32.5
q0 -19 -14 -33.5t-43 -14.5zM337 -21q-70 0 -126.5 11.5t-96.5 36t-61.5 62t-21.5 91.5q0 27 4.5 56.5t12.5 58.5t15 54l83 -23q-4 -15 -9.5 -37t-9.5 -45t-4 -43q0 -40 21 -69t73 -44.5t146 -15.5l20 -61z" />
    <glyph glyph-name="fehDotMovedbelowar.init" unicode="&#x6a2;" horiz-adv-x="411" 
d="M0 -5l9 93h56t54.5 1.5t49.5 5.5t40 12q27 11 43 31.5t22.5 52.5t6.5 78q0 45 -8 82t-24 58.5t-40 21.5q-17 0 -32 -15t-24 -41t-9 -58q0 -23 9 -37t26.5 -20.5t39.5 -6.5t44 5t39 15l4 -76q-13 -11 -30.5 -18t-36 -10t-36.5 -3q-51 0 -84.5 18t-49.5 49t-16 69
q0 40 11.5 78.5t33 70.5t51.5 50.5t67 18.5q52 0 86.5 -34t52 -92.5t17.5 -130.5q0 -74 -23.5 -132t-75.5 -90q-24 -15 -53 -24t-63.5 -14t-73.5 -6.5t-83 -1.5zM175 -213q-23 0 -38.5 15.5t-15.5 36.5q0 22 15.5 38t38.5 16q21 0 36.5 -16t15.5 -38t-15.5 -37t-36.5 -15z
" />
    <glyph glyph-name="fehDotMovedbelowar.medi" unicode="&#x6a2;" horiz-adv-x="436" 
d="M0 -5l9 93q24 0 48.5 1t48.5 4.5t45.5 9t39.5 13.5q29 13 52 31.5t35.5 43t12.5 53.5q0 23 -8.5 45.5t-23.5 37.5t-33 15t-34 -14t-26 -37t-10 -50q0 -31 14 -55.5t36 -42.5t47 -31l-94 -37q-21 16 -43 39t-37.5 55.5t-15.5 75.5q0 36 13 69.5t35.5 60t52.5 42t64 15.5
q47 0 82 -25.5t55 -66.5t20 -87q0 -40 -12 -72.5t-33 -58.5t-48.5 -46t-58.5 -35q-24 -13 -52 -21.5t-58.5 -14t-62 -8t-60.5 -2.5zM436 -5q-42 0 -86 6t-84.5 17t-70.5 26l67 61q28 -6 62 -10t66.5 -5.5t55.5 -1.5q25 0 36 -12.5t11 -32.5q0 -19 -13.5 -33.5t-43.5 -14.5z
M216 -213q-23 0 -38.5 15.5t-15.5 36.5q0 22 15.5 38t38.5 16q21 0 36.5 -16t15.5 -38t-15.5 -37t-36.5 -15z" />
    <glyph glyph-name="fehDotMovedbelowar.fina" unicode="&#x6a2;" horiz-adv-x="966" 
d="M337 -21l26 93q52 0 103.5 2.5t98.5 8t86.5 14t65.5 19.5q34 14 57.5 32t36 41t12.5 51q0 17 -5 35t-13.5 33t-21 24.5t-27.5 9.5q-19 0 -35 -15.5t-25.5 -40t-9.5 -51.5q0 -29 13.5 -52t35.5 -40t46 -30l-92 -38q-20 16 -42.5 37.5t-38 52.5t-15.5 73q0 38 12.5 72
t35 61.5t53 44t65.5 16.5q48 0 83 -27t54.5 -69.5t19.5 -89.5q0 -36 -12 -66.5t-33 -55.5t-49 -45t-59 -35q-33 -18 -82 -30t-107 -20t-119 -11.5t-118 -3.5zM967 -5q-43 0 -86.5 5.5t-83.5 16.5t-71 27l67 61q25 -6 58.5 -10t67 -5.5t57.5 -1.5q25 0 36.5 -12.5t11.5 -32.5
q0 -19 -14 -33.5t-43 -14.5zM337 -21q-70 0 -126.5 11.5t-96.5 36t-61.5 62t-21.5 91.5q0 27 4.5 56.5t12.5 58.5t15 54l83 -23q-4 -15 -9.5 -37t-9.5 -45t-4 -43q0 -40 21 -69t73 -44.5t146 -15.5l20 -61zM415 -218q-23 0 -38.5 15.5t-15.5 36.5q0 22 15.5 38t38.5 16
q21 0 36.5 -16t15.5 -38t-15.5 -37t-36.5 -15z" />
    <glyph glyph-name="uni06A3.init" unicode="&#x6a3;" horiz-adv-x="411" 
d="M0 -5l9 93h56t54.5 1.5t49.5 5.5t40 12q27 11 43 31.5t22.5 52.5t6.5 78q0 45 -8 82t-24 58.5t-40 21.5q-17 0 -32 -15t-24 -41t-9 -58q0 -23 9 -37t26.5 -20.5t39.5 -6.5t44 5t39 15l4 -76q-13 -11 -30.5 -18t-36 -10t-36.5 -3q-51 0 -84.5 18t-49.5 49t-16 69
q0 40 11.5 78.5t33 70.5t51.5 50.5t67 18.5q52 0 86.5 -34t52 -92.5t17.5 -130.5q0 -74 -23.5 -132t-75.5 -90q-24 -15 -53 -24t-63.5 -14t-73.5 -6.5t-83 -1.5zM201 622q-23 0 -38.5 15.5t-15.5 36.5q0 23 15.5 39t38.5 16q22 0 37.5 -16t15.5 -38t-15.5 -37.5t-37.5 -15.5
zM175 -213q-23 0 -38.5 15.5t-15.5 36.5q0 22 15.5 38t38.5 16q21 0 36.5 -16t15.5 -38t-15.5 -37t-36.5 -15z" />
    <glyph glyph-name="uni06A3.medi" unicode="&#x6a3;" horiz-adv-x="436" 
d="M0 -5l9 93q24 0 48.5 1t48.5 4.5t45.5 9t39.5 13.5q29 13 52 31.5t35.5 43t12.5 53.5q0 23 -8.5 45.5t-23.5 37.5t-33 15t-34 -14t-26 -37t-10 -50q0 -31 14 -55.5t36 -42.5t47 -31l-94 -37q-21 16 -43 39t-37.5 55.5t-15.5 75.5q0 36 13 69.5t35.5 60t52.5 42t64 15.5
q47 0 82 -25.5t55 -66.5t20 -87q0 -40 -12 -72.5t-33 -58.5t-48.5 -46t-58.5 -35q-24 -13 -52 -21.5t-58.5 -14t-62 -8t-60.5 -2.5zM436 -5q-42 0 -86 6t-84.5 17t-70.5 26l67 61q28 -6 62 -10t66.5 -5.5t55.5 -1.5q25 0 36 -12.5t11 -32.5q0 -19 -13.5 -33.5t-43.5 -14.5z
M225 533q-23 0 -38.5 15.5t-15.5 36.5q0 23 15.5 39t38.5 16q22 0 37.5 -16t15.5 -38t-15.5 -37.5t-37.5 -15.5zM216 -213q-23 0 -38.5 15.5t-15.5 36.5q0 22 15.5 38t38.5 16q21 0 36.5 -16t15.5 -38t-15.5 -37t-36.5 -15z" />
    <glyph glyph-name="uni06A3.fina" unicode="&#x6a3;" horiz-adv-x="966" 
d="M337 -21l26 93q52 0 103.5 2.5t98.5 8t86.5 14t65.5 19.5q34 14 57.5 32t36 41t12.5 51q0 17 -5 35t-13.5 33t-21 24.5t-27.5 9.5q-19 0 -35 -15.5t-25.5 -40t-9.5 -51.5q0 -29 13.5 -52t35.5 -40t46 -30l-92 -38q-20 16 -42.5 37.5t-38 52.5t-15.5 73q0 38 12.5 72
t35 61.5t53 44t65.5 16.5q48 0 83 -27t54.5 -69.5t19.5 -89.5q0 -36 -12 -66.5t-33 -55.5t-49 -45t-59 -35q-33 -18 -82 -30t-107 -20t-119 -11.5t-118 -3.5zM967 -5q-43 0 -86.5 5.5t-83.5 16.5t-71 27l67 61q25 -6 58.5 -10t67 -5.5t57.5 -1.5q25 0 36.5 -12.5t11.5 -32.5
q0 -19 -14 -33.5t-43 -14.5zM337 -21q-70 0 -126.5 11.5t-96.5 36t-61.5 62t-21.5 91.5q0 27 4.5 56.5t12.5 58.5t15 54l83 -23q-4 -15 -9.5 -37t-9.5 -45t-4 -43q0 -40 21 -69t73 -44.5t146 -15.5l20 -61zM756 533q-23 0 -38.5 15.5t-15.5 36.5q0 23 15.5 39t38.5 16
q22 0 37.5 -16t15.5 -38t-15.5 -37.5t-37.5 -15.5zM415 -218q-23 0 -38.5 15.5t-15.5 36.5q0 22 15.5 38t38.5 16q21 0 36.5 -16t15.5 -38t-15.5 -37t-36.5 -15z" />
    <glyph glyph-name="uni06A5.init" unicode="&#x6a5;" horiz-adv-x="411" 
d="M0 -5l9 93h56t54.5 1.5t49.5 5.5t40 12q27 11 43 31.5t22.5 52.5t6.5 78q0 45 -8 82t-24 58.5t-40 21.5q-17 0 -32 -15t-24 -41t-9 -58q0 -23 9 -37t26.5 -20.5t39.5 -6.5t44 5t39 15l4 -76q-13 -11 -30.5 -18t-36 -10t-36.5 -3q-51 0 -84.5 18t-49.5 49t-16 69
q0 40 11.5 78.5t33 70.5t51.5 50.5t67 18.5q52 0 86.5 -34t52 -92.5t17.5 -130.5q0 -74 -23.5 -132t-75.5 -90q-24 -15 -53 -24t-63.5 -14t-73.5 -6.5t-83 -1.5zM175 -329q-22 0 -37 15t-15 36q0 22 15 37.5t37 15.5q21 0 36 -15.5t15 -37.5q0 -21 -15 -36t-36 -15z
M106 -210q-22 0 -37 15t-15 36t15 36.5t37 15.5q21 0 36 -15.5t15 -36.5t-15 -36t-36 -15zM245 -210q-21 0 -36.5 15t-15.5 36t15.5 36.5t36.5 15.5t36 -15.5t15 -36.5t-15 -36t-36 -15z" />
    <glyph glyph-name="uni06A5.medi" unicode="&#x6a5;" horiz-adv-x="436" 
d="M0 -5l9 93q24 0 48.5 1t48.5 4.5t45.5 9t39.5 13.5q29 13 52 31.5t35.5 43t12.5 53.5q0 23 -8.5 45.5t-23.5 37.5t-33 15t-34 -14t-26 -37t-10 -50q0 -31 14 -55.5t36 -42.5t47 -31l-94 -37q-21 16 -43 39t-37.5 55.5t-15.5 75.5q0 36 13 69.5t35.5 60t52.5 42t64 15.5
q47 0 82 -25.5t55 -66.5t20 -87q0 -40 -12 -72.5t-33 -58.5t-48.5 -46t-58.5 -35q-24 -13 -52 -21.5t-58.5 -14t-62 -8t-60.5 -2.5zM436 -5q-42 0 -86 6t-84.5 17t-70.5 26l67 61q28 -6 62 -10t66.5 -5.5t55.5 -1.5q25 0 36 -12.5t11 -32.5q0 -19 -13.5 -33.5t-43.5 -14.5z
M216 -329q-22 0 -37 15t-15 36q0 22 15 37.5t37 15.5q21 0 36 -15.5t15 -37.5q0 -21 -15 -36t-36 -15zM147 -210q-22 0 -37 15t-15 36t15 36.5t37 15.5q21 0 36 -15.5t15 -36.5t-15 -36t-36 -15zM286 -210q-21 0 -36.5 15t-15.5 36t15.5 36.5t36.5 15.5t36 -15.5t15 -36.5
t-15 -36t-36 -15z" />
    <glyph glyph-name="uni06A5.fina" unicode="&#x6a5;" horiz-adv-x="966" 
d="M337 -21l26 93q52 0 103.5 2.5t98.5 8t86.5 14t65.5 19.5q34 14 57.5 32t36 41t12.5 51q0 17 -5 35t-13.5 33t-21 24.5t-27.5 9.5q-19 0 -35 -15.5t-25.5 -40t-9.5 -51.5q0 -29 13.5 -52t35.5 -40t46 -30l-92 -38q-20 16 -42.5 37.5t-38 52.5t-15.5 73q0 38 12.5 72
t35 61.5t53 44t65.5 16.5q48 0 83 -27t54.5 -69.5t19.5 -89.5q0 -36 -12 -66.5t-33 -55.5t-49 -45t-59 -35q-33 -18 -82 -30t-107 -20t-119 -11.5t-118 -3.5zM967 -5q-43 0 -86.5 5.5t-83.5 16.5t-71 27l67 61q25 -6 58.5 -10t67 -5.5t57.5 -1.5q25 0 36.5 -12.5t11.5 -32.5
q0 -19 -14 -33.5t-43 -14.5zM337 -21q-70 0 -126.5 11.5t-96.5 36t-61.5 62t-21.5 91.5q0 27 4.5 56.5t12.5 58.5t15 54l83 -23q-4 -15 -9.5 -37t-9.5 -45t-4 -43q0 -40 21 -69t73 -44.5t146 -15.5l20 -61zM415 -334q-22 0 -37 15t-15 36q0 22 15 37.5t37 15.5
q21 0 36 -15.5t15 -37.5q0 -21 -15 -36t-36 -15zM346 -215q-22 0 -37 15t-15 36t15 36.5t37 15.5q21 0 36 -15.5t15 -36.5t-15 -36t-36 -15zM485 -215q-21 0 -36.5 15t-15.5 36t15.5 36.5t36.5 15.5t36 -15.5t15 -36.5t-15 -36t-36 -15z" />
    <glyph glyph-name="uni06A7.fina" unicode="&#x6a7;" horiz-adv-x="745" 
d="M313 -272q-54 0 -104.5 13.5t-91 41.5t-64.5 73t-24 108q0 18 4 47.5t16 70t36 88.5l82 -35q-14 -34 -24 -60.5t-14.5 -50t-4.5 -49.5q0 -52 27 -86.5t73 -51t103 -16.5q36 0 68.5 4.5t60 14.5t49.5 24t38.5 31.5t27.5 39.5q15 30 21.5 69t6.5 83q0 50 -8.5 88.5t-24 60
t-37.5 21.5q-15 0 -27.5 -10t-21 -26.5t-13 -35.5t-4.5 -38q0 -20 6.5 -32t21.5 -18.5t39 -8.5t58 0h167q24 0 35.5 -12.5t11.5 -32.5q0 -21 -14 -34.5t-42 -13.5h-191q-44 0 -78 8t-57.5 25t-35.5 42.5t-12 60.5q-1 39 11 77.5t34 69.5t52.5 50t67.5 19q48 0 82.5 -32.5
t53 -92t18.5 -140.5q0 -55 -12 -106t-35 -91q-22 -41 -56 -71t-77 -49t-93 -28t-105 -9zM534 449q-23 0 -38.5 15.5t-15.5 36.5q0 23 15.5 39t38.5 16q22 0 37.5 -16t15.5 -38t-15.5 -37.5t-37.5 -15.5z" />
    <glyph glyph-name="uni06A8.init" unicode="&#x6a8;" horiz-adv-x="411" 
d="M0 -5l9 93h56t54.5 1.5t49.5 5.5t40 12q27 11 43 31.5t22.5 52.5t6.5 78q0 45 -8 82t-24 58.5t-40 21.5q-17 0 -32 -15t-24 -41t-9 -58q0 -23 9 -37t26.5 -20.5t39.5 -6.5t44 5t39 15l4 -76q-13 -11 -30.5 -18t-36 -10t-36.5 -3q-51 0 -84.5 18t-49.5 49t-16 69
q0 40 11.5 78.5t33 70.5t51.5 50.5t67 18.5q52 0 86.5 -34t52 -92.5t17.5 -130.5q0 -74 -23.5 -132t-75.5 -90q-24 -15 -53 -24t-63.5 -14t-73.5 -6.5t-83 -1.5zM203 741q-22 0 -37.5 15t-15.5 37t15 37.5t38 15.5q21 0 36 -15.5t15 -37.5t-15 -37t-36 -15zM134 622
q-22 0 -38 15t-16 36q0 22 15.5 38t38.5 16q21 0 36 -16t15 -37q0 -22 -15 -37t-36 -15zM273 622q-22 0 -37.5 15t-15.5 36q0 23 15.5 38.5t37.5 15.5t37 -15.5t15 -37.5t-15 -37t-37 -15z" />
    <glyph glyph-name="uni06A8.medi" unicode="&#x6a8;" horiz-adv-x="436" 
d="M0 -5l9 93q24 0 48.5 1t48.5 4.5t45.5 9t39.5 13.5q29 13 52 31.5t35.5 43t12.5 53.5q0 23 -8.5 45.5t-23.5 37.5t-33 15t-34 -14t-26 -37t-10 -50q0 -31 14 -55.5t36 -42.5t47 -31l-94 -37q-21 16 -43 39t-37.5 55.5t-15.5 75.5q0 36 13 69.5t35.5 60t52.5 42t64 15.5
q47 0 82 -25.5t55 -66.5t20 -87q0 -40 -12 -72.5t-33 -58.5t-48.5 -46t-58.5 -35q-24 -13 -52 -21.5t-58.5 -14t-62 -8t-60.5 -2.5zM436 -5q-42 0 -86 6t-84.5 17t-70.5 26l67 61q28 -6 62 -10t66.5 -5.5t55.5 -1.5q25 0 36 -12.5t11 -32.5q0 -19 -13.5 -33.5t-43.5 -14.5z
M227 652q-22 0 -37.5 15t-15.5 37t15 37.5t38 15.5q21 0 36 -15.5t15 -37.5t-15 -37t-36 -15zM158 533q-22 0 -38 15t-16 36q0 22 15.5 38t38.5 16q21 0 36 -16t15 -37q0 -22 -15 -37t-36 -15zM297 533q-22 0 -37.5 15t-15.5 36q0 23 15.5 38.5t37.5 15.5t37 -15.5t15 -37.5
t-15 -37t-37 -15z" />
    <glyph glyph-name="uni06A8.fina" unicode="&#x6a8;" horiz-adv-x="745" 
d="M313 -272q-54 0 -104.5 13.5t-91 41.5t-64.5 73t-24 108q0 18 4 47.5t16 70t36 88.5l82 -35q-14 -34 -24 -60.5t-14.5 -50t-4.5 -49.5q0 -52 27 -86.5t73 -51t103 -16.5q36 0 68.5 4.5t60 14.5t49.5 24t38.5 31.5t27.5 39.5q15 30 21.5 69t6.5 83q0 50 -8.5 88.5t-24 60
t-37.5 21.5q-15 0 -27.5 -10t-21 -26.5t-13 -35.5t-4.5 -38q0 -20 6.5 -32t21.5 -18.5t39 -8.5t58 0h167q24 0 35.5 -12.5t11.5 -32.5q0 -21 -14 -34.5t-42 -13.5h-191q-44 0 -78 8t-57.5 25t-35.5 42.5t-12 60.5q-1 39 11 77.5t34 69.5t52.5 50t67.5 19q48 0 82.5 -32.5
t53 -92t18.5 -140.5q0 -55 -12 -106t-35 -91q-22 -41 -56 -71t-77 -49t-93 -28t-105 -9zM537 568q-22 0 -37.5 15t-15.5 37t15 37.5t38 15.5q21 0 36 -15.5t15 -37.5t-15 -37t-36 -15zM468 449q-22 0 -38 15t-16 36q0 22 15.5 38t38.5 16q21 0 36 -16t15 -37q0 -22 -15 -37
t-36 -15zM607 449q-22 0 -37.5 15t-15.5 36q0 23 15.5 38.5t37.5 15.5t37 -15.5t15 -37.5t-15 -37t-37 -15z" />
    <glyph glyph-name="uni06AA.init" unicode="&#x6aa;" horiz-adv-x="752" 
d="M0 -5l10 93h293q77 0 135.5 1.5t98.5 7t60 17t20 31.5q0 14 -10 26.5t-34 23t-65 18.5t-102 14q-95 10 -151 23.5t-80 36.5t-24 61q0 43 25.5 79t70.5 66.5t103.5 54t125.5 41.5l20 -84q-85 -24 -141 -49t-83 -48.5t-27 -43.5q0 -14 13 -22t50 -14.5t106 -14.5
q84 -9 140 -23t89 -33.5t47 -46.5t14 -61q0 -45 -24 -75t-73 -47.5t-124 -24.5t-178 -7h-305z" />
    <glyph glyph-name="uni06AA.medi" unicode="&#x6aa;" horiz-adv-x="791" 
d="M791 -5q-32 0 -65.5 8t-63.5 23t-50 35l75 52q23 -13 51.5 -19t62.5 -6q24 0 35.5 -12.5t11.5 -32.5t-14 -34t-43 -14zM0 -5l10 93h293q77 0 135.5 1.5t98.5 7t60 17t20 31.5q0 14 -10 26.5t-34 23t-65 18.5t-102 14q-95 10 -151 23.5t-80 36.5t-24 61q0 43 25.5 79
t70.5 66.5t103.5 54t125.5 41.5l20 -84q-85 -24 -141 -49t-83 -48.5t-27 -43.5q0 -14 13 -22t50 -14.5t106 -14.5q84 -9 140 -23t89 -33.5t47 -46.5t14 -61q0 -45 -24 -75t-73 -47.5t-124 -24.5t-178 -7h-305z" />
    <glyph glyph-name="uni06AA.fina" unicode="&#x6aa;" horiz-adv-x="996" 
d="M997 -5q-32 0 -66 8t-63.5 23t-49.5 35l75 52q23 -13 51.5 -19t61.5 -6q25 0 36.5 -12.5t11.5 -32.5t-14 -34t-43 -14zM511 -15q-37 0 -95 1t-124 3t-129 6t-110 9l6 89q50 -3 107.5 -6t117 -5.5t117 -4t108.5 -1.5q77 0 135.5 3.5t98.5 11t60 20.5t20 33q0 14 -10 27
t-34 23t-65 18.5t-102 14.5q-96 10 -151.5 23.5t-79.5 36.5t-24 61q0 43 25.5 79.5t70.5 66.5t104 54t124 41l21 -84q-85 -25 -141 -50t-83.5 -48.5t-27.5 -43.5q0 -13 13.5 -21t50 -14.5t105.5 -14.5q85 -9 141 -23t89 -33.5t47 -46.5t14 -61q0 -45 -24 -76.5t-73 -51
t-124 -28t-178 -8.5z" />
    <glyph glyph-name="uni06AB.init" unicode="&#x6ab;" horiz-adv-x="366" 
d="M280 456q-34 0 -57.5 23.5t-23.5 57.5t23.5 58t57.5 24t57.5 -24t23.5 -58t-23.5 -57.5t-57.5 -23.5zM280 504q15 0 25 9.5t10 23.5q0 15 -10 24.5t-25 9.5q-14 0 -24.5 -9.5t-10.5 -24.5q0 -14 10.5 -23.5t24.5 -9.5zM0 -5l10 93h86q37 0 60 6t35.5 16.5t16.5 24t4 28.5
q0 31 -20 68t-56 75q-27 31 -49 53t-37 37.5t-23.5 25t-8.5 16.5q0 13 2.5 29.5t7 32t10.5 21.5q13 14 35.5 31.5t57 39.5t84 50t116.5 63l42 -78q-60 -31 -105 -55.5t-78.5 -44.5t-60.5 -38.5t-51 -38.5l10 40q43 -44 82 -85.5t69.5 -82t48.5 -82.5t18 -86
q0 -27 -9.5 -54.5t-34 -51.5t-68 -38.5t-111.5 -14.5h-83z" />
    <glyph glyph-name="uni06AB.medi" unicode="&#x6ab;" horiz-adv-x="427" 
d="M281 455q-34 0 -57 23.5t-23 57.5t23 58t57 24t58 -24t24 -58t-24 -57.5t-58 -23.5zM281 503q15 0 25 9.5t10 23.5q0 15 -10 24.5t-25 9.5q-14 0 -24 -9.5t-10 -24.5q0 -14 10 -23.5t24 -9.5zM0 -5l9 93h77q47 0 74.5 7t39.5 23.5t12 42.5q0 20 -14 46t-36 55t-46.5 57
t-46.5 52.5t-36.5 42t-14.5 24.5q0 16 3 33t7.5 31.5t11.5 20.5q18 19 49 41t70.5 46t83.5 48.5t87 46.5l43 -78q-44 -24 -85.5 -46.5t-79 -44t-69 -42t-55.5 -40.5l1 33q32 -34 60.5 -65t55.5 -64t52.5 -72t51.5 -89q24 -44 44.5 -68t41.5 -32.5t46 -8.5t36 -12.5t11 -32.5
q0 -19 -13.5 -33.5t-43.5 -14.5q-34 0 -65.5 12t-57.5 39.5t-46 75.5l36 -7q-9 -35 -28 -58t-46.5 -36.5t-62.5 -19.5t-77 -6h-80z" />
    <glyph glyph-name="uni06AB.fina" unicode="&#x6ab;" horiz-adv-x="869" 
d="M716 451q-34 0 -57 23.5t-23 57.5t23 57.5t57 23.5t58 -23.5t24 -57.5t-24 -57.5t-58 -23.5zM716 499q15 0 25.5 9.5t10.5 23.5q0 15 -10.5 24.5t-25.5 9.5q-14 0 -24 -9.5t-10 -24.5q0 -14 10 -23.5t24 -9.5zM337 -21l26 93q76 0 131 5t90 16t51.5 27t16.5 38t-13.5 49
t-35.5 55.5t-47 56.5t-46.5 52t-35.5 42t-14 25q0 15 2 31t6.5 30.5t11.5 22.5q25 26 71.5 57t104.5 63.5t116 62.5l42 -78l-117 -65t-97.5 -57.5t-78.5 -55.5l4 38q30 -29 60.5 -63t60 -71.5t56 -77.5t47.5 -82q16 -33 31.5 -54t31.5 -32t32.5 -15t34.5 -4q24 0 35.5 -12.5
t11.5 -32.5t-13.5 -34t-43.5 -14q-35 0 -67.5 13t-58.5 41t-42 73l34 -5q-13 -41 -42 -68t-76 -42.5t-116 -21.5t-164 -6zM337 -21q-70 0 -126.5 11.5t-96.5 36t-61.5 62t-21.5 91.5q0 27 4.5 56.5t12.5 58.5t15 54l83 -23q-4 -15 -9.5 -37t-9.5 -45t-4 -43q0 -40 21 -69
t73 -44.5t146 -15.5l20 -61z" />
    <glyph glyph-name="uni06AC.init" unicode="&#x6ac;" horiz-adv-x="366" 
d="M0 -5l10 93h86q37 0 60 6t35.5 16.5t16.5 24t4 28.5q0 31 -20 68t-56 75q-27 31 -49 53t-37 37.5t-23.5 25t-8.5 16.5q0 13 2.5 29.5t7 32t10.5 21.5q13 14 35.5 31.5t57 39.5t84 50t116.5 63l42 -78q-60 -31 -105 -55.5t-78.5 -44.5t-60.5 -38.5t-51 -38.5l10 40
q43 -44 82 -85.5t69.5 -82t48.5 -82.5t18 -86q0 -27 -9.5 -54.5t-34 -51.5t-68 -38.5t-111.5 -14.5h-83zM154 707q-23 0 -38.5 15.5t-15.5 36.5q0 23 15.5 39t38.5 16q22 0 37.5 -16t15.5 -38t-15.5 -37.5t-37.5 -15.5z" />
    <glyph glyph-name="uni06AC.medi" unicode="&#x6ac;" horiz-adv-x="427" 
d="M0 -5l9 93h77q47 0 74.5 7t39.5 23.5t12 42.5q0 20 -14 46t-36 55t-46.5 57t-46.5 52.5t-36.5 42t-14.5 24.5q0 16 3 33t7.5 31.5t11.5 20.5q18 19 49 41t70.5 46t83.5 48.5t87 46.5l43 -78q-44 -24 -85.5 -46.5t-79 -44t-69 -42t-55.5 -40.5l1 33q32 -34 60.5 -65
t55.5 -64t52.5 -72t51.5 -89q24 -44 44.5 -68t41.5 -32.5t46 -8.5t36 -12.5t11 -32.5q0 -19 -13.5 -33.5t-43.5 -14.5q-34 0 -65.5 12t-57.5 39.5t-46 75.5l36 -7q-9 -35 -28 -58t-46.5 -36.5t-62.5 -19.5t-77 -6h-80zM147 707q-23 0 -38.5 15.5t-15.5 36.5q0 23 15.5 39
t38.5 16q22 0 37.5 -16t15.5 -38t-15.5 -37.5t-37.5 -15.5z" />
    <glyph glyph-name="uni06AC.fina" unicode="&#x6ac;" horiz-adv-x="855" 
d="M337 -21l26 93q94 -1 153 6.5t91 25t43.5 47t9.5 72.5l-20 488h93l20 -484q3 -54 17.5 -84.5t39 -42.5t55.5 -12q24 0 35.5 -12.5t11.5 -31.5q0 -20 -14 -34.5t-43 -14.5q-45 0 -75 14t-48 37.5t-24 54.5l33 -1q-22 -36 -55 -59.5t-81 -37t-114 -19t-154 -5.5zM322 216
l-20 70q39 10 62.5 17.5t34.5 14.5t11 14q0 10 -10.5 19.5t-23.5 20t-23.5 24.5t-10.5 33q0 20 11 39.5t38 39.5t73 42l33 -62q-42 -19 -61 -33.5t-19 -26.5q0 -9 10.5 -19t23.5 -22.5t23.5 -27.5t10.5 -35q0 -13 -5.5 -27t-22.5 -27.5t-49.5 -27t-85.5 -26.5zM337 -21
q-70 0 -126.5 11.5t-96.5 36t-61.5 62t-21.5 91.5q0 27 4.5 56.5t12.5 58.5t15 54l83 -23q-4 -15 -9.5 -37t-9.5 -45t-4 -43q0 -40 21 -69t73 -44.5t146 -15.5l20 -61zM411 641q-23 0 -38.5 15.5t-15.5 36.5q0 23 15.5 39t38.5 16q22 0 37.5 -16t15.5 -38t-15.5 -37.5
t-37.5 -15.5z" />
    <glyph glyph-name="uni06AE.init" unicode="&#x6ae;" horiz-adv-x="366" 
d="M0 -5l10 93h86q37 0 60 6t35.5 16.5t16.5 24t4 28.5q0 31 -20 68t-56 75q-27 31 -49 53t-37 37.5t-23.5 25t-8.5 16.5q0 13 2.5 29.5t7 32t10.5 21.5q13 14 35.5 31.5t57 39.5t84 50t116.5 63l42 -78q-60 -31 -105 -55.5t-78.5 -44.5t-60.5 -38.5t-51 -38.5l10 40
q43 -44 82 -85.5t69.5 -82t48.5 -82.5t18 -86q0 -27 -9.5 -54.5t-34 -51.5t-68 -38.5t-111.5 -14.5h-83zM157 -313q-22 0 -37 15t-15 36q0 22 15 37.5t37 15.5q21 0 36 -15.5t15 -37.5q0 -21 -15 -36t-36 -15zM88 -194q-22 0 -37 15t-15 36t15 36.5t37 15.5q21 0 36 -15.5
t15 -36.5t-15 -36t-36 -15zM227 -194q-21 0 -36.5 15t-15.5 36t15.5 36.5t36.5 15.5t36 -15.5t15 -36.5t-15 -36t-36 -15z" />
    <glyph glyph-name="uni06AE.medi" unicode="&#x6ae;" horiz-adv-x="427" 
d="M0 -5l9 93h77q47 0 74.5 7t39.5 23.5t12 42.5q0 20 -14 46t-36 55t-46.5 57t-46.5 52.5t-36.5 42t-14.5 24.5q0 16 3 33t7.5 31.5t11.5 20.5q18 19 49 41t70.5 46t83.5 48.5t87 46.5l43 -78q-44 -24 -85.5 -46.5t-79 -44t-69 -42t-55.5 -40.5l1 33q32 -34 60.5 -65
t55.5 -64t52.5 -72t51.5 -89q24 -44 44.5 -68t41.5 -32.5t46 -8.5t36 -12.5t11 -32.5q0 -19 -13.5 -33.5t-43.5 -14.5q-34 0 -65.5 12t-57.5 39.5t-46 75.5l36 -7q-9 -35 -28 -58t-46.5 -36.5t-62.5 -19.5t-77 -6h-80zM159 -313q-22 0 -37 15t-15 36q0 22 15 37.5t37 15.5
q21 0 36 -15.5t15 -37.5q0 -21 -15 -36t-36 -15zM90 -194q-22 0 -37 15t-15 36t15 36.5t37 15.5q21 0 36 -15.5t15 -36.5t-15 -36t-36 -15zM229 -194q-21 0 -36.5 15t-15.5 36t15.5 36.5t36.5 15.5t36 -15.5t15 -36.5t-15 -36t-36 -15z" />
    <glyph glyph-name="uni06AE.fina" unicode="&#x6ae;" horiz-adv-x="855" 
d="M337 -21l26 93q94 -1 153 6.5t91 25t43.5 47t9.5 72.5l-20 488h93l20 -484q3 -54 17.5 -84.5t39 -42.5t55.5 -12q24 0 35.5 -12.5t11.5 -31.5q0 -20 -14 -34.5t-43 -14.5q-45 0 -75 14t-48 37.5t-24 54.5l33 -1q-22 -36 -55 -59.5t-81 -37t-114 -19t-154 -5.5zM322 216
l-20 70q39 10 62.5 17.5t34.5 14.5t11 14q0 10 -10.5 19.5t-23.5 20t-23.5 24.5t-10.5 33q0 20 11 39.5t38 39.5t73 42l33 -62q-42 -19 -61 -33.5t-19 -26.5q0 -9 10.5 -19t23.5 -22.5t23.5 -27.5t10.5 -35q0 -13 -5.5 -27t-22.5 -27.5t-49.5 -27t-85.5 -26.5zM337 -21
q-70 0 -126.5 11.5t-96.5 36t-61.5 62t-21.5 91.5q0 27 4.5 56.5t12.5 58.5t15 54l83 -23q-4 -15 -9.5 -37t-9.5 -45t-4 -43q0 -40 21 -69t73 -44.5t146 -15.5l20 -61zM359 -334q-22 0 -37 15t-15 36q0 22 15 37.5t37 15.5q21 0 36 -15.5t15 -37.5q0 -21 -15 -36t-36 -15z
M290 -215q-22 0 -37 15t-15 36t15 36.5t37 15.5q21 0 36 -15.5t15 -36.5t-15 -36t-36 -15zM429 -215q-21 0 -36.5 15t-15.5 36t15.5 36.5t36.5 15.5t36 -15.5t15 -36.5t-15 -36t-36 -15z" />
    <glyph glyph-name="uni06B0.init" unicode="&#x6b0;" horiz-adv-x="364" 
d="M282 457q-34 0 -57.5 23.5t-23.5 57.5t23.5 57.5t57.5 23.5t57.5 -23.5t23.5 -57.5t-23.5 -57.5t-57.5 -23.5zM282 505q14 0 24.5 9.5t10.5 23.5q0 15 -10.5 24.5t-24.5 9.5q-15 0 -25 -9.5t-10 -24.5q0 -14 10 -23.5t25 -9.5zM23 592l-42 66q40 25 83 50.5t92.5 54.5
t108.5 61l39 -69q-60 -32 -109 -60t-91 -53.5t-81 -49.5zM0 -5l10 93h86q37 0 60 6t35.5 16.5t16.5 24t4 28.5q0 31 -20 68t-56 75q-27 31 -49 53t-37 37.5t-23.5 25t-8.5 16.5q0 13 2.5 29.5t7 32t10.5 21.5q13 14 35.5 31.5t57 39.5t84 50t116.5 63l42 -78
q-60 -31 -105 -55.5t-78.5 -44.5t-60.5 -38.5t-51 -38.5l10 40q43 -44 82 -85.5t69.5 -82t48.5 -82.5t18 -86q0 -27 -9.5 -54.5t-34 -51.5t-68 -38.5t-111.5 -14.5h-83z" />
    <glyph glyph-name="uni06B0.medi" unicode="&#x6b0;" horiz-adv-x="427" 
d="M287 459q-34 0 -57 23.5t-23 57.5t23 57.5t57 23.5t58 -23.5t24 -57.5t-24 -57.5t-58 -23.5zM287 507q15 0 25 9.5t10 23.5q0 15 -10 24.5t-25 9.5q-14 0 -24 -10t-10 -24t10 -23.5t24 -9.5zM23 592l-42 66q40 25 83 50.5t92.5 54.5t108.5 61l39 -69q-60 -32 -109 -60
t-91 -53.5t-81 -49.5zM0 -5l9 93h77q47 0 74.5 7t39.5 23.5t12 42.5q0 20 -14 46t-36 55t-46.5 57t-46.5 52.5t-36.5 42t-14.5 24.5q0 16 3 33t7.5 31.5t11.5 20.5q18 19 49 41t70.5 46t83.5 48.5t87 46.5l43 -78q-44 -24 -85.5 -46.5t-79 -44t-69 -42t-55.5 -40.5l1 33
q32 -34 60.5 -65t55.5 -64t52.5 -72t51.5 -89q24 -44 44.5 -68t41.5 -32.5t46 -8.5t36 -12.5t11 -32.5q0 -19 -13.5 -33.5t-43.5 -14.5q-34 0 -65.5 12t-57.5 39.5t-46 75.5l36 -7q-9 -35 -28 -58t-46.5 -36.5t-62.5 -19.5t-77 -6h-80z" />
    <glyph glyph-name="uni06B0.fina" unicode="&#x6b0;" horiz-adv-x="857" 
d="M721 453q-34 0 -57.5 24t-23.5 58t23.5 57.5t57.5 23.5t57.5 -23.5t23.5 -57.5t-23.5 -58t-57.5 -24zM721 502q14 0 24.5 9.5t10.5 23.5t-10.5 24t-24.5 10q-15 0 -25 -10t-10 -24t10 -23.5t25 -9.5zM465 593l-41 66q40 25 82.5 51t92 54.5t108.5 61.5l39 -69
q-59 -32 -108 -60.5t-91.5 -54t-81.5 -49.5zM337 -21l26 93q76 0 131 5t90 16t51.5 27t16.5 38t-13.5 49t-35.5 55.5t-47 56.5t-46.5 52t-35.5 42t-14 25q0 15 2 31t6.5 30.5t11.5 22.5q25 26 71.5 57t104.5 63.5t116 62.5l42 -78l-117 -65t-97.5 -57.5t-78.5 -55.5l4 38
q30 -29 60.5 -63t60 -71.5t56 -77.5t47.5 -82q16 -33 31.5 -54t31.5 -32t32.5 -15t34.5 -4q24 0 35.5 -12.5t11.5 -32.5t-13.5 -34t-43.5 -14q-35 0 -67.5 13t-58.5 41t-42 73l34 -5q-13 -41 -42 -68t-76 -42.5t-116 -21.5t-164 -6zM337 -21q-70 0 -126.5 11.5t-96.5 36
t-61.5 62t-21.5 91.5q0 27 4.5 56.5t12.5 58.5t15 54l83 -23q-4 -15 -9.5 -37t-9.5 -45t-4 -43q0 -40 21 -69t73 -44.5t146 -15.5l20 -61z" />
    <glyph glyph-name="uni06B2.init" unicode="&#x6b2;" horiz-adv-x="364" 
d="M23 592l-42 66q40 25 83 50.5t92.5 54.5t108.5 61l39 -69q-60 -32 -109 -60t-91 -53.5t-81 -49.5zM0 -5l10 93h86q37 0 60 6t35.5 16.5t16.5 24t4 28.5q0 31 -20 68t-56 75q-27 31 -49 53t-37 37.5t-23.5 25t-8.5 16.5q0 13 2.5 29.5t7 32t10.5 21.5q13 14 35.5 31.5
t57 39.5t84 50t116.5 63l42 -78q-60 -31 -105 -55.5t-78.5 -44.5t-60.5 -38.5t-51 -38.5l10 40q43 -44 82 -85.5t69.5 -82t48.5 -82.5t18 -86q0 -27 -9.5 -54.5t-34 -51.5t-68 -38.5t-111.5 -14.5h-83zM224 -196q-23 0 -38.5 15.5t-15.5 36.5q0 22 15.5 38t38.5 16
q21 0 36.5 -16t15.5 -38t-15.5 -37t-36.5 -15zM82 -196q-23 0 -38.5 15.5t-15.5 36.5q0 22 15.5 38t38.5 16q22 0 37 -16t15 -38t-15.5 -37t-36.5 -15z" />
    <glyph glyph-name="uni06B2.medi" unicode="&#x6b2;" horiz-adv-x="427" 
d="M23 592l-42 66q40 25 83 50.5t92.5 54.5t108.5 61l39 -69q-60 -32 -109 -60t-91 -53.5t-81 -49.5zM0 -5l9 93h77q47 0 74.5 7t39.5 23.5t12 42.5q0 20 -14 46t-36 55t-46.5 57t-46.5 52.5t-36.5 42t-14.5 24.5q0 16 3 33t7.5 31.5t11.5 20.5q18 19 49 41t70.5 46
t83.5 48.5t87 46.5l43 -78q-44 -24 -85.5 -46.5t-79 -44t-69 -42t-55.5 -40.5l1 33q32 -34 60.5 -65t55.5 -64t52.5 -72t51.5 -89q24 -44 44.5 -68t41.5 -32.5t46 -8.5t36 -12.5t11 -32.5q0 -19 -13.5 -33.5t-43.5 -14.5q-34 0 -65.5 12t-57.5 39.5t-46 75.5l36 -7
q-9 -35 -28 -58t-46.5 -36.5t-62.5 -19.5t-77 -6h-80zM221 -196q-23 0 -38.5 15.5t-15.5 36.5q0 22 15.5 38t38.5 16q21 0 36.5 -16t15.5 -38t-15.5 -37t-36.5 -15zM79 -196q-23 0 -38.5 15.5t-15.5 36.5q0 22 15.5 38t38.5 16q22 0 37 -16t15 -38t-15.5 -37t-36.5 -15z" />
    <glyph glyph-name="uni06B2.fina" unicode="&#x6b2;" horiz-adv-x="857" 
d="M465 593l-41 66q40 25 82.5 51t92 54.5t108.5 61.5l39 -69q-59 -32 -108 -60.5t-91.5 -54t-81.5 -49.5zM337 -21l26 93q76 0 131 5t90 16t51.5 27t16.5 38t-13.5 49t-35.5 55.5t-47 56.5t-46.5 52t-35.5 42t-14 25q0 15 2 31t6.5 30.5t11.5 22.5q25 26 71.5 57
t104.5 63.5t116 62.5l42 -78l-117 -65t-97.5 -57.5t-78.5 -55.5l4 38q30 -29 60.5 -63t60 -71.5t56 -77.5t47.5 -82q16 -33 31.5 -54t31.5 -32t32.5 -15t34.5 -4q24 0 35.5 -12.5t11.5 -32.5t-13.5 -34t-43.5 -14q-35 0 -67.5 13t-58.5 41t-42 73l34 -5q-13 -41 -42 -68
t-76 -42.5t-116 -21.5t-164 -6zM337 -21q-70 0 -126.5 11.5t-96.5 36t-61.5 62t-21.5 91.5q0 27 4.5 56.5t12.5 58.5t15 54l83 -23q-4 -15 -9.5 -37t-9.5 -45t-4 -43q0 -40 21 -69t73 -44.5t146 -15.5l20 -61zM443 -217q-23 0 -38.5 15.5t-15.5 36.5q0 22 15.5 38t38.5 16
q21 0 36.5 -16t15.5 -38t-15.5 -37t-36.5 -15zM301 -217q-23 0 -38.5 15.5t-15.5 36.5q0 22 15.5 38t38.5 16q22 0 37 -16t15 -38t-15.5 -37t-36.5 -15z" />
    <glyph glyph-name="uni06B4.init" unicode="&#x6b4;" horiz-adv-x="364" 
d="M50 897q-21 0 -35 14t-14 34t14 35t35 15q20 0 34 -15t14 -35t-14 -34t-34 -14zM40 771q-21 0 -35 14t-14 34q0 21 14 35.5t35 14.5q20 0 34 -14.5t14 -35.5q0 -20 -14 -34t-34 -14zM156 823q-21 0 -35.5 14t-14.5 34q0 21 14.5 35.5t35.5 14.5q19 0 33.5 -14.5
t14.5 -35.5q0 -20 -14.5 -34t-33.5 -14zM23 592l-42 66q40 25 83 50.5t92.5 54.5t108.5 61l39 -69q-60 -32 -109 -60t-91 -53.5t-81 -49.5zM0 -5l10 93h86q37 0 60 6t35.5 16.5t16.5 24t4 28.5q0 31 -20 68t-56 75q-27 31 -49 53t-37 37.5t-23.5 25t-8.5 16.5q0 13 2.5 29.5
t7 32t10.5 21.5q13 14 35.5 31.5t57 39.5t84 50t116.5 63l42 -78q-60 -31 -105 -55.5t-78.5 -44.5t-60.5 -38.5t-51 -38.5l10 40q43 -44 82 -85.5t69.5 -82t48.5 -82.5t18 -86q0 -27 -9.5 -54.5t-34 -51.5t-68 -38.5t-111.5 -14.5h-83z" />
    <glyph glyph-name="uni06B4.medi" unicode="&#x6b4;" horiz-adv-x="427" 
d="M47 897q-21 0 -35.5 14t-14.5 34t14.5 35t35.5 15q20 0 34 -15t14 -35t-14 -34t-34 -14zM37 771q-21 0 -35.5 14t-14.5 34q0 21 14.5 35.5t35.5 14.5q20 0 34 -14.5t14 -35.5q0 -20 -14 -34t-34 -14zM152 823q-21 0 -35.5 14t-14.5 34q0 21 14.5 35.5t35.5 14.5
q20 0 34 -14.5t14 -35.5q0 -20 -14 -34t-34 -14zM23 592l-42 66q40 25 83 50.5t92.5 54.5t108.5 61l39 -69q-60 -32 -109 -60t-91 -53.5t-81 -49.5zM0 -5l9 93h77q47 0 74.5 7t39.5 23.5t12 42.5q0 20 -14 46t-36 55t-46.5 57t-46.5 52.5t-36.5 42t-14.5 24.5q0 16 3 33
t7.5 31.5t11.5 20.5q18 19 49 41t70.5 46t83.5 48.5t87 46.5l43 -78q-44 -24 -85.5 -46.5t-79 -44t-69 -42t-55.5 -40.5l1 33q32 -34 60.5 -65t55.5 -64t52.5 -72t51.5 -89q24 -44 44.5 -68t41.5 -32.5t46 -8.5t36 -12.5t11 -32.5q0 -19 -13.5 -33.5t-43.5 -14.5
q-34 0 -65.5 12t-57.5 39.5t-46 75.5l36 -7q-9 -35 -28 -58t-46.5 -36.5t-62.5 -19.5t-77 -6h-80z" />
    <glyph glyph-name="uni06B4.fina" unicode="&#x6b4;" horiz-adv-x="857" 
d="M482 898q-21 0 -35.5 14t-14.5 34t14.5 35t35.5 15q20 0 34 -15t14 -35t-14 -34t-34 -14zM472 772q-21 0 -35.5 14t-14.5 34q0 21 14.5 35.5t35.5 14.5q20 0 34 -14.5t14 -35.5q0 -20 -14 -34t-34 -14zM587 824q-20 0 -34.5 14.5t-14.5 34.5t14.5 34.5t34.5 14.5
t34.5 -14.5t14.5 -34.5t-14.5 -34.5t-34.5 -14.5zM465 593l-41 66q40 25 82.5 51t92 54.5t108.5 61.5l39 -69q-59 -32 -108 -60.5t-91.5 -54t-81.5 -49.5zM337 -21l26 93q76 0 131 5t90 16t51.5 27t16.5 38t-13.5 49t-35.5 55.5t-47 56.5t-46.5 52t-35.5 42t-14 25
q0 15 2 31t6.5 30.5t11.5 22.5q25 26 71.5 57t104.5 63.5t116 62.5l42 -78l-117 -65t-97.5 -57.5t-78.5 -55.5l4 38q30 -29 60.5 -63t60 -71.5t56 -77.5t47.5 -82q16 -33 31.5 -54t31.5 -32t32.5 -15t34.5 -4q24 0 35.5 -12.5t11.5 -32.5t-13.5 -34t-43.5 -14
q-35 0 -67.5 13t-58.5 41t-42 73l34 -5q-13 -41 -42 -68t-76 -42.5t-116 -21.5t-164 -6zM337 -21q-70 0 -126.5 11.5t-96.5 36t-61.5 62t-21.5 91.5q0 27 4.5 56.5t12.5 58.5t15 54l83 -23q-4 -15 -9.5 -37t-9.5 -45t-4 -43q0 -40 21 -69t73 -44.5t146 -15.5l20 -61z" />
    <glyph glyph-name="uni06B5.init" unicode="&#x6b5;" horiz-adv-x="244" 
d="M0 -5l9 93q40 0 58 11.5t21.5 41t1.5 80.5l-19 490h94l20 -487q2 -54 -3.5 -97t-24.5 -72.5t-57 -44.5t-100 -15zM91 828q-7 14 -17 38.5t-21.5 52t-22 52.5t-18.5 40l46 22q5 -10 14.5 -31t20.5 -46t21 -48t16 -36l19 -39zM149 833l-44 17q6 16 16.5 43.5t22.5 57
t21 52.5t13 30l45 -18q-4 -9 -14 -32.5t-21.5 -52.5t-22 -55.5t-16.5 -41.5z" />
    <glyph glyph-name="uni06B5.medi" unicode="&#x6b5;" horiz-adv-x="265" 
d="M0 -5l10 93q36 0 52.5 12t20.5 41t2 80l-18 490h94l18 -488q2 -52 12.5 -82t31.5 -41.5t53 -11.5q24 0 35.5 -12.5t11.5 -32.5t-13.5 -34t-43.5 -14q-33 0 -61.5 11.5t-47.5 34.5t-24 58l31 -2q-12 -35 -34 -57.5t-54 -33.5t-76 -11zM92 835q-7 14 -17 38.5t-21.5 52
t-22 52.5t-18.5 40l46 22q5 -10 14.5 -31t20.5 -46t21 -48t16 -36l19 -39zM150 840l-44 17q6 16 16.5 43.5t22.5 57t21 52.5t13 30l45 -18q-4 -9 -14 -32.5t-21.5 -52.5t-22 -55.5t-16.5 -41.5z" />
    <glyph glyph-name="uni06B5.fina" unicode="&#x6b5;" horiz-adv-x="668" 
d="M39 -1q0 19 4 47.5t15 66t34 83.5l80 -35q-13 -31 -22 -57.5t-13.5 -49t-4.5 -44.5q0 -49 21.5 -82.5t57 -50t78.5 -16.5q79 0 121 32.5t57.5 96t12.5 157.5l-20 564h96l15 -493q2 -52 16.5 -80.5t38 -39t52.5 -10.5q25 0 36 -12.5t11 -32.5t-13.5 -34t-42.5 -14
q-23 0 -44 6.5t-37.5 19t-27.5 31.5t-16 45l28 -20q-3 -65 -20 -121t-51 -98t-87.5 -65.5t-128.5 -23.5q-48 0 -92.5 14.5t-79 43.5t-54.5 71.5t-20 100.5zM235 581q-7 14 -17 38.5t-21.5 52t-22 52.5t-18.5 40l46 22q5 -10 14.5 -31t20.5 -46t21 -48t16 -36l19 -39z
M293 586l-44 17q6 16 16.5 43.5t22.5 57t21 52.5t13 30l45 -18q-4 -9 -14 -32.5t-21.5 -52.5t-22 -55.5t-16.5 -41.5z" />
    <glyph glyph-name="uni06B6.init" unicode="&#x6b6;" horiz-adv-x="244" 
d="M0 -5l9 93q40 0 58 11.5t21.5 41t1.5 80.5l-19 490h94l20 -487q2 -54 -3.5 -97t-24.5 -72.5t-57 -44.5t-100 -15zM119 806q-23 0 -38.5 15.5t-15.5 36.5q0 23 15.5 39t38.5 16q22 0 37.5 -16t15.5 -38t-15.5 -37.5t-37.5 -15.5z" />
    <glyph glyph-name="uni06B6.medi" unicode="&#x6b6;" horiz-adv-x="265" 
d="M0 -5l10 93q36 0 52.5 12t20.5 41t2 80l-18 490h94l18 -488q2 -52 12.5 -82t31.5 -41.5t53 -11.5q24 0 35.5 -12.5t11.5 -32.5t-13.5 -34t-43.5 -14q-33 0 -61.5 11.5t-47.5 34.5t-24 58l31 -2q-12 -35 -34 -57.5t-54 -33.5t-76 -11zM118 806q-23 0 -38.5 15.5
t-15.5 36.5q0 23 15.5 39t38.5 16q22 0 37.5 -16t15.5 -38t-15.5 -37.5t-37.5 -15.5z" />
    <glyph glyph-name="uni06B6.fina" unicode="&#x6b6;" horiz-adv-x="668" 
d="M39 -1q0 19 4 47.5t15 66t34 83.5l80 -35q-13 -31 -22 -57.5t-13.5 -49t-4.5 -44.5q0 -49 21.5 -82.5t57 -50t78.5 -16.5q79 0 121 32.5t57.5 96t12.5 157.5l-20 564h96l15 -493q2 -52 16.5 -80.5t38 -39t52.5 -10.5q25 0 36 -12.5t11 -32.5t-13.5 -34t-42.5 -14
q-23 0 -44 6.5t-37.5 19t-27.5 31.5t-16 45l28 -20q-3 -65 -20 -121t-51 -98t-87.5 -65.5t-128.5 -23.5q-48 0 -92.5 14.5t-79 43.5t-54.5 71.5t-20 100.5zM263 559q-23 0 -38.5 15.5t-15.5 36.5q0 23 15.5 39t38.5 16q22 0 37.5 -16t15.5 -38t-15.5 -37.5t-37.5 -15.5z" />
    <glyph glyph-name="uni06B7.init" unicode="&#x6b7;" horiz-adv-x="244" 
d="M0 -5l9 93q40 0 58 11.5t21.5 41t1.5 80.5l-19 490h94l20 -487q2 -54 -3.5 -97t-24.5 -72.5t-57 -44.5t-100 -15zM121 925q-22 0 -37.5 15t-15.5 37t15 37.5t38 15.5q21 0 36 -15.5t15 -37.5t-15 -37t-36 -15zM52 806q-22 0 -38 15t-16 36q0 22 15.5 38t38.5 16
q21 0 36 -16t15 -37q0 -22 -15 -37t-36 -15zM191 806q-22 0 -37.5 15t-15.5 36q0 23 15.5 38.5t37.5 15.5t37 -15.5t15 -37.5t-15 -37t-37 -15z" />
    </font>
</defs>
</svg>
