<?xml version="1.0" standalone="no"?>
<!DOCTYPE svg PUBLIC "-//W3C//DTD SVG 1.1//EN" "http://www.w3.org/Graphics/SVG/1.1/DTD/svg11.dtd" >
<svg xmlns="http://www.w3.org/2000/svg" xmlns:xlink="http://www.w3.org/1999/xlink" version="1.1">
<metadata>
Created by FontForge 20170731 at Thu Nov 12 05:28:44 2020
 By Aleksey,,,
Copyright 2015-2020 Google LLC. All Rights Reserved.
</metadata>
<defs>
<font id="NotoSansArabicSemiCondensed-Light" horiz-adv-x="0" >
  <font-face 
    font-family="Noto Sans Arabic SemiCondensed Light"
    font-weight="300"
    font-stretch="semi-condensed"
    units-per-em="1000"
    panose-1="0 0 0 0 0 0 0 0 0 0"
    ascent="800"
    descent="-200"
    bbox="-217 -573 2172 1082"
    underline-thickness="50"
    underline-position="-175"
    unicode-range="U+000D-FEFC"
  />
<missing-glyph horiz-adv-x="600" 
d="M101 0v714h398v-714h-398zM138 38h323v639h-323v-639z" />
    <glyph glyph-name="uniFC43" unicode="&#xfedf;&#xfef0;" horiz-adv-x="918" arabic-form="isolated" 
d="M699 -5l7 51q51 0 73.5 13.5t27.5 45t3 85.5l-19 520h50l20 -514q2 -52 -3 -89.5t-22 -62.5t-50 -37t-87 -12zM41 -14q0 25 4.5 53.5t15.5 62.5t31 75l45 -20q-14 -30 -24 -58.5t-15 -55.5t-5 -51q0 -44 17 -76t48.5 -53.5t75 -32t96.5 -10.5q63 0 113 14.5t85 37.5
t53 49.5t18 51.5q0 17 -11.5 30.5t-33 25t-49 22t-60.5 21.5l13 51q52 -21 89.5 -35.5t66 -23.5t50.5 -13.5t42 -4.5q14 0 20 -6.5t6 -17.5q0 -10 -8 -18.5t-27 -8.5q-7 0 -17.5 1t-21.5 3t-20 5q6 -10 8.5 -20.5t2.5 -18.5q0 -31 -21 -65.5t-62.5 -63.5t-102.5 -48
t-141 -19q-81 0 -144.5 24.5t-99.5 72.5t-37 120z" />
    <glyph glyph-name="uniFC86" unicode="&#xfee0;&#xfef0;" horiz-adv-x="962" arabic-form="final" 
d="M699 -5l7 51q51 0 73 17t27 52.5t3 89.5l-17 505h52l16 -503q3 -63 14.5 -98t35 -49t58.5 -14q14 0 20.5 -6.5t6.5 -17.5q0 -10 -8.5 -18.5t-24.5 -8.5q-37 0 -63.5 14t-41.5 37.5t-20 51.5l17 -1q-8 -32 -26.5 -54.5t-49.5 -35t-79 -12.5zM41 -14q0 25 4.5 53.5
t15.5 62.5t31 75l45 -20q-14 -30 -24 -58.5t-15 -55.5t-5 -51q0 -44 17 -76t48.5 -53.5t75 -32t96.5 -10.5q63 0 113 14.5t85 37.5t53 49.5t18 51.5q0 17 -11.5 30.5t-33 25t-49 22t-60.5 21.5l13 51q52 -21 89.5 -35.5t66 -23.5t50.5 -13.5t42 -4.5q14 0 20 -6.5t6 -17.5
q0 -10 -8 -18.5t-27 -8.5q-7 0 -17.5 1t-21.5 3t-20 5q6 -10 8.5 -20.5t2.5 -18.5q0 -31 -21 -65.5t-62.5 -63.5t-102.5 -48t-141 -19q-81 0 -144.5 24.5t-99.5 72.5t-37 120z" />
    <glyph glyph-name="uniFD82" unicode="&#xfee0;&#xfea4;&#xfef0;" horiz-adv-x="1527" arabic-form="final" 
d="M1264 -5l7 51q51 0 73 17t27 52.5t3 89.5l-17 505h52l16 -503q3 -63 14.5 -98t35 -49t58.5 -14q14 0 20.5 -6.5t6.5 -17.5q0 -10 -8.5 -18.5t-24.5 -8.5q-37 0 -63.5 14t-41.5 37.5t-20 51.5l17 -1q-8 -32 -26.5 -54.5t-49.5 -35t-79 -12.5zM1264 -5q-35 0 -66 4t-56 18
t-43 43t-28 78l38 20q13 -51 33 -74.5t52 -30.5t77 -7q14 0 20 -7t6 -17t-8.5 -18.5t-24.5 -8.5zM699 -5l7 51q51 0 96 8t88 24.5t88 40.5t95 57q-39 29 -75 52t-73 36t-81 13q-15 0 -28.5 -0.5t-26.5 -3t-30 -7.5l-10 48q24 7 48 10.5t47 3.5q49 0 87 -13t69 -31.5
t57.5 -37.5t51 -32t50.5 -13h20l5 -48q-34 0 -64.5 -12t-61 -29.5t-65 -37.5t-76 -38t-95.5 -29.5t-123 -11.5zM41 -14q0 25 4.5 53.5t15.5 62.5t31 75l45 -20q-14 -30 -24 -58.5t-15 -55.5t-5 -51q0 -44 17 -76t48.5 -53.5t75 -32t96.5 -10.5q63 0 113 14.5t85 37.5
t53 49.5t18 51.5q0 17 -11.5 30.5t-33 25t-49 22t-60.5 21.5l13 51q52 -21 89.5 -35.5t66 -23.5t50.5 -13.5t42 -4.5q14 0 20 -6.5t6 -17.5q0 -10 -8 -18.5t-27 -8.5q-7 0 -17.5 1t-21.5 3t-20 5q6 -10 8.5 -20.5t2.5 -18.5q0 -31 -21 -65.5t-62.5 -63.5t-102.5 -48
t-141 -19q-81 0 -144.5 24.5t-99.5 72.5t-37 120z" />
    <glyph glyph-name="uniFDF2" unicode="&#x627;&#xfedf;&#xfee0;&#xfeea;" horiz-adv-x="1155" arabic-form="isolated" 
d="M446 -5q-36 0 -66.5 8.5t-51 31t-30.5 63.5q-49 -11 -95.5 -8.5t-84 17.5t-60 42.5t-22.5 66.5q0 51 31.5 96.5t86 79.5t123.5 47l-3 77h51l17 -348q3 -49 13.5 -75.5t34 -36.5t65.5 -10q51 0 73 17t27 52.5t3 89.5l-14 363h53l12 -361q2 -63 14 -98t36 -49t61 -14
q51 0 73 13.5t27 45t3 85.5l-19 520h51l20 -514q2 -52 -3 -89.5t-22.5 -62.5t-50.5 -37t-88 -12q-32 0 -55 10.5t-38.5 28t-24.5 38.5q-15 -36 -49 -56.5t-98 -20.5zM291 147l-11 239q-56 -10 -99.5 -35.5t-68 -59t-24.5 -66.5q0 -30 19 -48t50 -27t66.5 -9t67.5 6zM1031 0
l-20 710h51l20 -710h-51zM496 610q-34 0 -48 23.5t-14 56.5q0 11 1.5 24t4.5 29l35 10q-3 -18 -4.5 -32.5t-1.5 -25.5q0 -21 7 -34t25 -13q16 0 28 16t12 60v46l34 13v-70q0 -14 8.5 -24t26.5 -10q19 0 27 13t8 36q0 19 -4 37t-11 35l32 10q8 -16 13.5 -40t5.5 -45
q0 -33 -16.5 -57.5t-51.5 -24.5q-27 0 -44 15t-17 38l17 -5q0 -33 -20 -57t-53 -24zM536 828l-6 165h37l6 -165h-37z" />
    <glyph glyph-name="uniFEF5" unicode="&#xfedf;&#xfe82;" horiz-adv-x="644" arabic-form="isolated" 
d="M367 532q0 27 -3.5 60.5t-7.5 64.5t-8 52l53 8q3 -20 7 -52.5t7 -67.5t3 -62q0 -43 -6 -83.5t-17.5 -80t-28.5 -76.5l-8 -16q-30 -63 -76 -120t-106 -106h155q40 0 61.5 11.5t29.5 29t8 36.5q0 35 -28.5 76.5t-81 90.5t-123.5 107t-156 126l30 42q87 -70 154 -125.5
t115 -100.5t78.5 -82.5t45 -71t14.5 -66.5q0 -20 -6.5 -42t-23 -41t-47 -31t-78.5 -12h-216v59q91 72 148.5 148t84.5 157.5t27 167.5zM175 633q-27 0 -50 10t-42.5 20t-36.5 10q-16 0 -30.5 -9t-30.5 -25l-26 23q19 23 40.5 37t46.5 14q24 0 44.5 -9.5t41.5 -20t45 -10.5
q17 0 33.5 7.5t37.5 22.5l20 -28q-28 -25 -51 -33.5t-42 -8.5z" />
    <glyph glyph-name="uniFEF6" unicode="&#xfee0;&#xfe82;" horiz-adv-x="562" arabic-form="final" 
d="M562 -5q-44 0 -73.5 10t-47.5 31.5t-26.5 56.5t-10.5 86l-18 535h51l19 -507q2 -58 8.5 -93.5t29.5 -51.5t75 -16q13 0 19 -6.5t6 -16.5t-9 -19t-23 -9zM164 -8q-27 0 -54.5 4.5t-38.5 6.5l7 52q67 -13 125.5 -5.5t102.5 40.5t69 95.5t25 157.5l31 -72q-5 -71 -25 -120
t-49 -80t-63 -48.5t-67.5 -24t-62.5 -6.5zM373 143q-25 43 -55.5 89t-66.5 94t-78.5 97t-92.5 98l36 37q54 -55 98 -106.5t78.5 -99t63 -90.5t52.5 -83zM201 633q-27 0 -50 10t-42.5 20t-36.5 10q-16 0 -30.5 -9t-30.5 -25l-26 23q19 23 40.5 37t46.5 14q24 0 44.5 -9.5
t41.5 -20t45 -10.5q17 0 33.5 7.5t37.5 22.5l20 -28q-28 -25 -51 -33.5t-42 -8.5z" />
    <glyph glyph-name="uniFEF7" unicode="&#xfedf;&#xfe84;" horiz-adv-x="557" arabic-form="isolated" 
d="M367 532q0 27 -3.5 60.5t-7.5 64.5t-8 52l53 8q3 -20 7 -52.5t7 -67.5t3 -62q0 -43 -6 -83.5t-17.5 -80t-28.5 -76.5l-8 -16q-30 -63 -76 -120t-106 -106h155q40 0 61.5 11.5t29.5 29t8 36.5q0 35 -28.5 76.5t-81 90.5t-123.5 107t-156 126l30 42q87 -70 154 -125.5
t115 -100.5t78.5 -82.5t45 -71t14.5 -66.5q0 -20 -6.5 -42t-23 -41t-47 -31t-78.5 -12h-216v59q91 72 148.5 148t84.5 157.5t27 167.5zM20 635l-8 36q25 6 41.5 10.5t35.5 9.5l12 -13q-35 7 -60.5 32.5t-25.5 58.5q0 27 13 45.5t34.5 28t44.5 9.5q11 0 23 -2t23 -6l-7 -33
q-9 2 -19 4t-20 2q-27 0 -41 -14t-14 -33q0 -20 13 -35.5t32 -24.5t36 -12l-39 -5q27 7 49 14t40 14l12 -34q-24 -9 -54.5 -18.5t-62 -18t-58.5 -15.5z" />
    <glyph glyph-name="uniFEF8" unicode="&#xfee0;&#xfe84;" horiz-adv-x="541" arabic-form="final" 
d="M537 -5q-44 0 -73.5 10t-47.5 31.5t-26.5 56.5t-10.5 86l-18 535h51l19 -507q2 -58 8.5 -93.5t29.5 -51.5t75 -16q13 0 19 -6.5t6 -16.5t-9 -19t-23 -9zM139 -8q-27 0 -54.5 4.5t-38.5 6.5l7 52q67 -13 125.5 -5.5t102.5 40.5t69 95.5t25 157.5l31 -72q-5 -71 -25 -120
t-49 -80t-63 -48.5t-67.5 -24t-62.5 -6.5zM348 143q-25 43 -55.5 89t-66.5 94t-78.5 97t-92.5 98l36 37q54 -55 98 -106.5t78.5 -99t63 -90.5t52.5 -83zM53 635l-8 36q25 6 41.5 10.5t35.5 9.5l12 -13q-35 7 -60.5 32.5t-25.5 58.5q0 27 13 45.5t34.5 28t44.5 9.5
q11 0 23 -2t23 -6l-7 -33q-9 2 -19 4t-20 2q-27 0 -41 -14t-14 -33q0 -20 13 -35.5t32 -24.5t36 -12l-39 -5q27 7 49 14t40 14l12 -34q-24 -9 -54.5 -18.5t-62 -18t-58.5 -15.5z" />
    <glyph glyph-name="uniFEF9" unicode="&#xfedf;&#xfe88;" horiz-adv-x="552" arabic-form="isolated" 
d="M367 532q0 27 -3.5 60.5t-7.5 64.5t-8 52l53 8q3 -20 7 -52.5t7 -67.5t3 -62q0 -43 -6 -83.5t-17.5 -80t-28.5 -76.5l-8 -16q-30 -63 -76 -120t-106 -106h155q40 0 61.5 11.5t29.5 29t8 36.5q0 35 -28.5 76.5t-81 90.5t-123.5 107t-156 126l30 42q87 -70 154 -125.5
t115 -100.5t78.5 -82.5t45 -71t14.5 -66.5q0 -20 -6.5 -42t-23 -41t-47 -31t-78.5 -12h-216v59q91 72 148.5 148t84.5 157.5t27 167.5zM91 -291l-8 36q25 6 41.5 10.5t35.5 9.5l12 -13q-35 7 -60.5 32.5t-25.5 58.5q0 27 13 45.5t34.5 28t44.5 9.5q11 0 23 -2t23 -6l-7 -33
q-9 2 -19 4t-20 2q-27 0 -41 -14t-14 -33q0 -20 13 -35.5t32 -24.5t36 -12l-39 -5q27 7 49 14t40 14l12 -34q-24 -9 -54.5 -18.5t-62 -18t-58.5 -15.5z" />
    <glyph glyph-name="uniFEFA" unicode="&#xfee0;&#xfe88;" horiz-adv-x="536" arabic-form="final" 
d="M537 -5q-44 0 -73.5 10t-47.5 31.5t-26.5 56.5t-10.5 86l-18 535h51l19 -507q2 -58 8.5 -93.5t29.5 -51.5t75 -16q13 0 19 -6.5t6 -16.5t-9 -19t-23 -9zM139 -8q-27 0 -54.5 4.5t-38.5 6.5l7 52q67 -13 125.5 -5.5t102.5 40.5t69 95.5t25 157.5l31 -72q-5 -71 -25 -120
t-49 -80t-63 -48.5t-67.5 -24t-62.5 -6.5zM348 143q-25 43 -55.5 89t-66.5 94t-78.5 97t-92.5 98l36 37q54 -55 98 -106.5t78.5 -99t63 -90.5t52.5 -83zM93 -291l-8 36q25 6 41.5 10.5t35.5 9.5l12 -13q-35 7 -60.5 32.5t-25.5 58.5q0 27 13 45.5t34.5 28t44.5 9.5
q11 0 23 -2t23 -6l-7 -33q-9 2 -19 4t-20 2q-27 0 -41 -14t-14 -33q0 -20 13 -35.5t32 -24.5t36 -12l-39 -5q27 7 49 14t40 14l12 -34q-24 -9 -54.5 -18.5t-62 -18t-58.5 -15.5z" />
    <glyph glyph-name="uniFEFB" unicode="&#xfedf;&#xfe8e;" horiz-adv-x="552" arabic-form="isolated" 
d="M367 532q0 27 -3.5 60.5t-7.5 64.5t-8 52l53 8q3 -20 7 -52.5t7 -67.5t3 -62q0 -43 -6 -83.5t-17.5 -80t-28.5 -76.5l-8 -16q-30 -63 -76 -120t-106 -106h155q40 0 61.5 11.5t29.5 29t8 36.5q0 35 -28.5 76.5t-81 90.5t-123.5 107t-156 126l30 42q87 -70 154 -125.5
t115 -100.5t78.5 -82.5t45 -71t14.5 -66.5q0 -20 -6.5 -42t-23 -41t-47 -31t-78.5 -12h-216v59q91 72 148.5 148t84.5 157.5t27 167.5z" />
    <glyph glyph-name="uniFEFC" unicode="&#xfee0;&#xfe8e;" horiz-adv-x="536" arabic-form="final" 
d="M537 -5q-44 0 -73.5 10t-47.5 31.5t-26.5 56.5t-10.5 86l-18 535h51l19 -507q2 -58 8.5 -93.5t29.5 -51.5t75 -16q13 0 19 -6.5t6 -16.5t-9 -19t-23 -9zM139 -8q-27 0 -54.5 4.5t-38.5 6.5l7 52q67 -13 125.5 -5.5t102.5 40.5t69 95.5t25 157.5l31 -72q-5 -71 -25 -120
t-49 -80t-63 -48.5t-67.5 -24t-62.5 -6.5zM348 143q-25 43 -55.5 89t-66.5 94t-78.5 97t-92.5 98l36 37q54 -55 98 -106.5t78.5 -99t63 -90.5t52.5 -83z" />
    <glyph glyph-name="lam_alefMaksura_meemar" unicode="&#xfedf;&#xfbe9;&#xfee2;" horiz-adv-x="990" 
d="M771 -5l7 51q51 0 73.5 13.5t27.5 45t3 85.5l-19 520h50l20 -514q2 -52 -3 -89.5t-22 -62.5t-50 -37t-87 -12zM528 -5l7 51q46 0 72.5 10.5t37.5 32.5t11 58q0 29 -6.5 63t-18.5 73t-28 81l50 19q15 -38 26.5 -78.5t18.5 -79t7 -70.5t-6.5 -57.5t-19.5 -45t-34 -32
t-50 -19t-67 -6.5zM85 -393q-21 79 -36 152.5t-23 131.5t-8 90q0 72 20 131t52.5 103.5t70 75t73.5 46t62 15.5q22 0 38 -12.5t33 -48.5t41 -107q20 -54 37 -84t38.5 -42t51.5 -12q13 0 19.5 -6.5t6.5 -17.5q0 -10 -8.5 -18.5t-24.5 -8.5q-42 0 -73.5 21t-46.5 53l19 10
q-4 -31 -18.5 -51t-35.5 -29.5t-46 -9.5q-23 0 -51.5 9t-58 30t-57 56.5t-49.5 86.5l9 -3q-27 -41 -39.5 -90t-12.5 -100q0 -29 6 -71t15 -91t21 -99.5t24 -97.5zM330 39q21 0 35 10t18 28.5t-5 44.5q-17 49 -29.5 82.5t-22 54t-19 29.5t-20.5 9q-12 0 -30 -6.5t-37.5 -19
t-39 -30.5t-35.5 -40v10q22 -56 54 -94.5t66.5 -58t64.5 -19.5z" />
    <glyph glyph-name="lam_alefWaslaar" unicode="&#xfedf;&#xfb51;" horiz-adv-x="475" 
d="M140 655q-21 0 -49 2t-53 5t-38 5l5 35q14 -2 37.5 -4.5t49.5 -4.5t48 -2q56 0 75.5 17t19.5 38t-12.5 30t-29.5 9q-22 0 -42 -13.5t-37 -36t-30 -48.5l-36 2q14 32 35 62t49 50.5t64 20.5q31 0 52.5 -19t21.5 -54q0 -24 -12 -45t-40 -35t-78 -14zM367 532
q0 27 -3.5 60.5t-7.5 64.5t-8 52l53 8q3 -20 7 -52.5t7 -67.5t3 -62q0 -43 -6 -83.5t-17.5 -80t-28.5 -76.5l-8 -16q-30 -63 -76 -120t-106 -106h155q40 0 61.5 11.5t29.5 29t8 36.5q0 35 -28.5 76.5t-81 90.5t-123.5 107t-156 126l30 42q87 -70 154 -125.5t115 -100.5
t78.5 -82.5t45 -71t14.5 -66.5q0 -20 -6.5 -42t-23 -41t-47 -31t-78.5 -12h-216v59q91 72 148.5 148t84.5 157.5t27 167.5z" />
    <glyph glyph-name="lam_alefWaslaar.fina" unicode="&#xfee0;&#xfb51;" horiz-adv-x="566" 
d="M140 662q-21 0 -49 2t-53 5.5t-38 5.5l5 35q14 -2 37.5 -5t49.5 -5t48 -2q56 0 75.5 17t19.5 38t-12.5 30.5t-29.5 9.5q-22 0 -42 -14t-37 -36.5t-30 -48.5l-36 3q14 31 35 61.5t49 50.5t64 20q31 0 52.5 -18.5t21.5 -54.5q0 -23 -12 -44.5t-40 -35.5t-78 -14zM537 -5
q-44 0 -73.5 10t-47.5 31.5t-26.5 56.5t-10.5 86l-18 535h51l19 -507q2 -58 8.5 -93.5t29.5 -51.5t75 -16q13 0 19 -6.5t6 -16.5t-9 -19t-23 -9zM139 -8q-27 0 -54.5 4.5t-38.5 6.5l7 52q67 -13 125.5 -5.5t102.5 40.5t69 95.5t25 157.5l31 -72q-5 -71 -25 -120t-49 -80
t-63 -48.5t-67.5 -24t-62.5 -6.5zM348 143q-25 43 -55.5 89t-66.5 94t-78.5 97t-92.5 98l36 37q54 -55 98 -106.5t78.5 -99t63 -90.5t52.5 -83z" />
    <glyph glyph-name="uni0620.init" unicode="&#x620;" horiz-adv-x="269" 
d="M0 -5l7 51q54 0 85.5 8.5t44.5 30.5t13 62q0 29 -6.5 63t-18.5 73t-28 81l50 19q15 -37 26.5 -77.5t18.5 -78.5t7 -69q0 -43 -10.5 -73.5t-34.5 -50.5t-62 -29.5t-92 -9.5zM129 -111q-32 0 -55 23.5t-23 56.5t23 56t55 23q33 0 56.5 -23t23.5 -56t-23.5 -56.5
t-56.5 -23.5zM129 -76q19 0 32.5 13t13.5 32t-13.5 32t-32.5 13q-18 0 -31.5 -13t-13.5 -32t13.5 -32t31.5 -13z" />
    <glyph glyph-name="uni0620.medi" unicode="&#x620;" horiz-adv-x="332" 
d="M0 -5l7 51q38 0 64 7.5t44 30.5t31.5 68.5t27.5 121.5l49 -11q-5 -27 -10.5 -49.5t-8.5 -42.5t-3 -39t4 -34.5t17.5 -27t41 -18t75.5 -6.5q15 0 21 -7t6 -17t-8.5 -18.5t-25.5 -8.5q-49 0 -81 7t-50 21t-25.5 35.5t-7.5 48.5l16 -1q-15 -36 -32 -58t-39 -33.5t-50 -15.5
t-63 -4zM105 -117q-33 0 -56 23t-23 56t23 56t56 23q32 0 55.5 -23t23.5 -56t-23.5 -56t-55.5 -23zM105 -83q18 0 31.5 13.5t13.5 31.5q0 19 -13 32.5t-32 13.5t-32.5 -13.5t-13.5 -32.5q0 -18 13.5 -31.5t32.5 -13.5z" />
    <glyph glyph-name="uni0620.fina" unicode="&#x620;" horiz-adv-x="699" 
d="M313 -355q-33 0 -56 23t-23 56t23 56t56 23t56 -23t23 -56t-23 -56t-56 -23zM313 -321q18 0 32 13t14 32t-13.5 32t-32.5 13t-32 -13t-13 -32t13 -32t32 -13zM41 -14q0 25 4.5 53.5t15.5 62.5t31 75l45 -20q-14 -30 -24 -58.5t-15 -55.5t-5 -51q0 -44 17 -76t48.5 -53.5
t75 -32t96.5 -10.5q63 0 113 14.5t85 37.5t53 49.5t18 51.5q0 17 -11.5 30.5t-33 25t-49 22t-60.5 21.5l13 51q52 -21 89.5 -35.5t66 -23.5t50.5 -13.5t42 -4.5q14 0 20 -6.5t6 -17.5q0 -10 -8 -18.5t-27 -8.5q-7 0 -17.5 1t-21.5 3t-20 5q6 -10 8.5 -20.5t2.5 -18.5
q0 -31 -21 -65.5t-62.5 -63.5t-102.5 -48t-141 -19q-81 0 -144.5 24.5t-99.5 72.5t-37 120z" />
    <glyph glyph-name="uni063B.init" unicode="&#x63b;" horiz-adv-x="368" 
d="M226 728q-15 0 -25.5 10.5t-10.5 24.5q0 15 10.5 25.5t25.5 10.5t25 -10.5t10 -25.5q0 -14 -10 -24.5t-25 -10.5zM114 675q-15 0 -25.5 10.5t-10.5 25.5q0 14 10.5 24.5t25.5 10.5t25 -10.5t10 -24.5q0 -15 -10 -25.5t-25 -10.5zM0 -5l7 51h80q52 0 84.5 8t50.5 21.5
t25 32t7 40.5q0 37 -23.5 80.5t-69.5 93.5q-35 39 -61 64t-43 41t-25 24.5t-8 13.5q0 11 2 21.5t6 19.5t9 13q22 19 51 39.5t66.5 43.5t85.5 49t106 56l22 -45q-60 -30 -108.5 -56t-86 -49t-67.5 -44t-55 -42l6 22q45 -45 88 -87.5t77.5 -85.5t55 -86t20.5 -89
q0 -31 -10.5 -58t-36 -48t-68.5 -32.5t-107 -11.5h-80z" />
    <glyph glyph-name="uni063B.medi" unicode="&#x63b;" horiz-adv-x="446" 
d="M210 727q-15 0 -25.5 11t-10.5 25t10.5 25t25.5 11t25 -11t10 -25t-10 -25t-25 -11zM98 675q-15 0 -25.5 10.5t-10.5 24.5q0 15 10.5 25.5t25.5 10.5t25 -10.5t10 -25.5q0 -14 -10 -24.5t-25 -10.5zM0 -5l7 51h75q65 0 102.5 11t53.5 33t16 56q0 26 -16.5 58t-43 65.5
t-55.5 66t-55.5 59t-43 45.5t-16.5 26q0 11 2 21.5t6 19t10 13.5q22 20 55 42.5t73 46.5t86 49t94 49l22 -45q-47 -24 -92.5 -49t-86.5 -49t-75.5 -47t-60.5 -44l3 17q35 -36 70.5 -72.5t69 -75t61.5 -80.5t47 -89q18 -42 39.5 -70t48 -42.5t56.5 -14.5q14 0 20.5 -6.5
t6.5 -17.5q0 -10 -8.5 -18.5t-24.5 -8.5q-33 0 -66 14.5t-60 45.5t-44 82l23 -12q-6 -38 -24.5 -63t-47.5 -40t-66.5 -21t-83.5 -6h-77z" />
    <glyph glyph-name="uni063B.fina" unicode="&#x63b;" horiz-adv-x="907" 
d="M682 728q-16 0 -26 10.5t-10 25.5q0 14 10 24.5t26 10.5q14 0 24.5 -10.5t10.5 -24.5q0 -15 -10.5 -25.5t-24.5 -10.5zM570 676q-16 0 -26 10.5t-10 24.5q0 15 10 25.5t26 10.5q14 0 24.5 -10.5t10.5 -25.5q0 -14 -10.5 -24.5t-24.5 -10.5zM360 -21l22 51q79 0 141 7
t104.5 21.5t65 36t22.5 49.5q0 30 -17 63t-43.5 66.5t-55.5 65t-55.5 58t-43.5 44.5t-17 25q0 11 2 21t6 19t10 14q29 26 76.5 57t108 64.5t123.5 65.5l23 -45q-62 -31 -122 -65t-110.5 -65.5t-84.5 -60.5l4 19q34 -33 70 -69t70 -75t63 -82.5t48 -92.5q12 -28 26.5 -51
t32.5 -39.5t39 -25.5t46 -9q13 0 19.5 -6.5t6.5 -17.5q0 -10 -8.5 -18.5t-24.5 -8.5q-34 0 -66 14.5t-59 46t-44 81.5l22 -12q-7 -39 -34.5 -67t-76.5 -45.5t-121 -25.5t-168 -8zM360 -21q-75 0 -134.5 11t-101.5 34t-64 60t-22 88q0 24 4 50t10 52t13 49l47 -13
q-5 -16 -10 -37.5t-8.5 -44.5t-3.5 -44q0 -54 30 -88t94.5 -50t167.5 -16l20 -30z" />
    <glyph glyph-name="uni063C.init" unicode="&#x63c;" horiz-adv-x="368" 
d="M0 -5l7 51h80q52 0 84.5 8t50.5 21.5t25 32t7 40.5q0 37 -23.5 80.5t-69.5 93.5q-35 39 -61 64t-43 41t-25 24.5t-8 13.5q0 11 2 21.5t6 19.5t9 13q22 19 51 39.5t66.5 43.5t85.5 49t106 56l22 -45q-60 -30 -108.5 -56t-86 -49t-67.5 -44t-55 -42l6 22q45 -45 88 -87.5
t77.5 -85.5t55 -86t20.5 -89q0 -31 -10.5 -58t-36 -48t-68.5 -32.5t-107 -11.5h-80zM151 -274q-16 0 -27 11t-11 27q0 15 11 26.5t27 11.5q15 0 26 -11.5t11 -26.5q0 -16 -11 -27t-26 -11zM92 -177q-16 0 -27 11t-11 26t11 26.5t27 11.5q15 0 26 -11.5t11 -26.5t-11 -26
t-26 -11zM209 -177q-16 0 -27 11t-11 26t11 26.5t27 11.5q15 0 26 -11.5t11 -26.5t-11 -26t-26 -11z" />
    <glyph glyph-name="uni063C.medi" unicode="&#x63c;" horiz-adv-x="446" 
d="M0 -5l7 51h75q65 0 102.5 11t53.5 33t16 56q0 26 -16.5 58t-43 65.5t-55.5 66t-55.5 59t-43 45.5t-16.5 26q0 11 2 21.5t6 19t10 13.5q22 20 55 42.5t73 46.5t86 49t94 49l22 -45q-47 -24 -92.5 -49t-86.5 -49t-75.5 -47t-60.5 -44l3 17q35 -36 70.5 -72.5t69 -75
t61.5 -80.5t47 -89q18 -42 39.5 -70t48 -42.5t56.5 -14.5q14 0 20.5 -6.5t6.5 -17.5q0 -10 -8.5 -18.5t-24.5 -8.5q-33 0 -66 14.5t-60 45.5t-44 82l23 -12q-6 -38 -24.5 -63t-47.5 -40t-66.5 -21t-83.5 -6h-77zM152 -274q-16 0 -27 11t-11 27q0 15 11 26.5t27 11.5
q15 0 26 -11.5t11 -26.5q0 -16 -11 -27t-26 -11zM93 -177q-16 0 -27 11t-11 26t11 26.5t27 11.5q15 0 26 -11.5t11 -26.5t-11 -26t-26 -11zM210 -177q-16 0 -27 11t-11 26t11 26.5t27 11.5q15 0 26 -11.5t11 -26.5t-11 -26t-26 -11z" />
    <glyph glyph-name="uni063C.fina" unicode="&#x63c;" horiz-adv-x="907" 
d="M360 -21l22 51q79 0 141 7t104.5 21.5t65 36t22.5 49.5q0 30 -17 63t-43.5 66.5t-55.5 65t-55.5 58t-43.5 44.5t-17 25q0 11 2 21t6 19t10 14q29 26 76.5 57t108 64.5t123.5 65.5l23 -45q-62 -31 -122 -65t-110.5 -65.5t-84.5 -60.5l4 19q34 -33 70 -69t70 -75t63 -82.5
t48 -92.5q12 -28 26.5 -51t32.5 -39.5t39 -25.5t46 -9q13 0 19.5 -6.5t6.5 -17.5q0 -10 -8.5 -18.5t-24.5 -8.5q-34 0 -66 14.5t-59 46t-44 81.5l22 -12q-7 -39 -34.5 -67t-76.5 -45.5t-121 -25.5t-168 -8zM360 -21q-75 0 -134.5 11t-101.5 34t-64 60t-22 88q0 24 4 50
t10 52t13 49l47 -13q-5 -16 -10 -37.5t-8.5 -44.5t-3.5 -44q0 -54 30 -88t94.5 -50t167.5 -16l20 -30zM383 -295q-16 0 -27 11t-11 27q0 15 11 26.5t27 11.5q15 0 26 -11.5t11 -26.5q0 -16 -11 -27t-26 -11zM324 -198q-16 0 -27 11t-11 26t11 26.5t27 11.5q15 0 26 -11.5
t11 -26.5t-11 -26t-26 -11zM441 -198q-16 0 -27 11t-11 26t11 26.5t27 11.5q15 0 26 -11.5t11 -26.5t-11 -26t-26 -11z" />
    <glyph glyph-name="uni063D.init" unicode="&#x63d;" horiz-adv-x="243" 
d="M0 -5l7 51q46 0 72.5 10.5t37.5 32.5t11 58q0 29 -6.5 63t-18.5 73t-28 81l50 19q15 -38 26.5 -78.5t18.5 -79t7 -70.5t-6.5 -57.5t-19.5 -45t-34 -32t-50 -19t-67 -6.5zM117 717q6 -15 16 -39t22 -51t23 -51.5t19 -40.5l-31 -16q-6 10 -16.5 32t-22 48t-22 50t-16.5 38
l-13 26zM76 713l31 -11q-6 -17 -16.5 -45t-22 -57.5t-21 -52.5t-13.5 -31l-32 13q5 10 14.5 33.5t21.5 52.5t22 55.5t16 42.5zM162 -181q-15 0 -26.5 11t-11.5 26t11 26.5t27 11.5t26.5 -11.5t10.5 -26.5t-10.5 -26t-26.5 -11zM45 -181q-16 0 -27 11t-11 26t11 26.5t27 11.5
q15 0 26 -11.5t11 -26.5t-11 -26t-26 -11z" />
    <glyph glyph-name="uni063D.medi" unicode="&#x63d;" horiz-adv-x="308" 
d="M0 -5l7 51q34 0 56.5 7t38.5 29.5t29 68t28 122.5l50 -9q-6 -27 -11 -50t-8 -43t-3 -39q0 -25 9 -44t36 -30.5t83 -11.5q14 0 20 -7t6 -17t-8.5 -18.5t-24.5 -8.5q-56 0 -90 12.5t-49 37.5t-17 62l17 -1q-14 -37 -31 -59t-37 -33.5t-45 -15t-56 -3.5zM170 600
q6 -15 16 -39t22 -51t23 -51.5t19 -40.5l-31 -16q-6 10 -16.5 32t-22 48t-22 50t-16.5 38l-13 26zM129 596l31 -11q-6 -17 -16.5 -45t-22 -57.5t-21 -52.5t-13.5 -31l-32 13q5 10 14.5 33.5t21.5 52.5t22 55.5t16 42.5zM212 -181q-15 0 -26.5 11t-11.5 26t11 26.5t27 11.5
t26.5 -11.5t10.5 -26.5t-10.5 -26t-26.5 -11zM95 -181q-16 0 -27 11t-11 26t11 26.5t27 11.5q15 0 26 -11.5t11 -26.5t-11 -26t-26 -11z" />
    <glyph glyph-name="uni063D.fina" unicode="&#x63d;" horiz-adv-x="699" 
d="M41 -14q0 25 4.5 53.5t15.5 62.5t31 75l45 -20q-14 -30 -24 -58.5t-15 -55.5t-5 -51q0 -44 17 -76t48.5 -53.5t75 -32t96.5 -10.5q63 0 113 14.5t85 37.5t53 49.5t18 51.5q0 17 -11.5 30.5t-33 25t-49 22t-60.5 21.5l13 51q52 -21 89.5 -35.5t66 -23.5t50.5 -13.5
t42 -4.5q14 0 20 -6.5t6 -17.5q0 -10 -8 -18.5t-27 -8.5q-7 0 -17.5 1t-21.5 3t-20 5q6 -10 8.5 -20.5t2.5 -18.5q0 -31 -21 -65.5t-62.5 -63.5t-102.5 -48t-141 -19q-81 0 -144.5 24.5t-99.5 72.5t-37 120zM238 467q6 -15 16 -39t22 -51t23 -51.5t19 -40.5l-31 -16
q-6 10 -16.5 32t-22 48t-22 50t-16.5 38l-13 26zM197 463l31 -11q-6 -17 -16.5 -45t-22 -57.5t-21 -52.5t-13.5 -31l-32 13q5 10 14.5 33.5t21.5 52.5t22 55.5t16 42.5z" />
    <glyph glyph-name="uni063E.init" unicode="&#x63e;" horiz-adv-x="269" 
d="M0 -5l7 51q54 0 85.5 8.5t44.5 30.5t13 62q0 29 -6.5 63t-18.5 73t-28 81l50 19q15 -37 26.5 -77.5t18.5 -78.5t7 -69q0 -43 -10.5 -73.5t-34.5 -50.5t-62 -29.5t-92 -9.5zM188 509q-16 0 -27 11t-11 26t11 26.5t27 11.5q15 0 26 -11.5t11 -26.5t-11 -26t-26 -11zM70 509
q-16 0 -27 11t-11 26t11 26.5t27 11.5q15 0 26 -11.5t11 -26.5t-11 -26t-26 -11zM167 -181q-16 0 -27 11t-11 26t11 26.5t27 11.5q15 0 26 -11.5t11 -26.5t-11 -26t-26 -11zM49 -181q-16 0 -27 11t-11 26t11 26.5t27 11.5q15 0 26 -11.5t11 -26.5t-11 -26t-26 -11z" />
    <glyph glyph-name="uni063E.medi" unicode="&#x63e;" horiz-adv-x="332" 
d="M0 -5l7 51q38 0 64 7.5t44 30.5t31.5 68.5t27.5 121.5l49 -11q-5 -27 -10.5 -49.5t-8.5 -42.5t-3 -39t4 -34.5t17.5 -27t41 -18t75.5 -6.5q14 0 20.5 -7t6.5 -17t-8.5 -18.5t-25.5 -8.5q-49 0 -81 7t-50 21t-25.5 35.5t-7.5 48.5l16 -1q-15 -36 -32 -58t-39 -33.5
t-50 -15.5t-63 -4zM247 414q-16 0 -27 11t-11 26t11 26.5t27 11.5q15 0 26 -11.5t11 -26.5t-11 -26t-26 -11zM129 414q-16 0 -27 11t-11 26t11 26.5t27 11.5q15 0 26 -11.5t11 -26.5t-11 -26t-26 -11zM228 -184q-16 0 -27 11t-11 26t11 26.5t27 11.5t26.5 -11.5t10.5 -26.5
t-11 -26t-26 -11zM111 -184q-16 0 -27.5 11t-11.5 26t11.5 26.5t27.5 11.5q15 0 26 -11.5t11 -26.5t-11 -26t-26 -11z" />
    <glyph glyph-name="uni063E.fina" unicode="&#x63e;" horiz-adv-x="699" 
d="M41 -14q0 25 4.5 53.5t15.5 62.5t31 75l45 -20q-14 -30 -24 -58.5t-15 -55.5t-5 -51q0 -44 17 -76t48.5 -53.5t75 -32t96.5 -10.5q63 0 113 14.5t85 37.5t53 49.5t18 51.5q0 17 -11.5 30.5t-33 25t-49 22t-60.5 21.5l13 51q52 -21 89.5 -35.5t66 -23.5t50.5 -13.5
t42 -4.5q14 0 20 -6.5t6 -17.5q0 -10 -8 -18.5t-27 -8.5q-7 0 -17.5 1t-21.5 3t-20 5q6 -10 8.5 -20.5t2.5 -18.5q0 -31 -21 -65.5t-62.5 -63.5t-102.5 -48t-141 -19q-81 0 -144.5 24.5t-99.5 72.5t-37 120zM285 267q-15 0 -26.5 11t-11.5 26t11 26.5t27 11.5t26.5 -11.5
t10.5 -26.5t-11 -26t-26 -11zM168 267q-16 0 -27 11t-11 26t11 26.5t27 11.5q15 0 26 -11.5t11 -26.5t-11 -26t-26 -11z" />
    <glyph glyph-name="uni063F.init" unicode="&#x63f;" horiz-adv-x="269" 
d="M0 -5l7 51q54 0 85.5 8.5t44.5 30.5t13 62q0 29 -6.5 63t-18.5 73t-28 81l50 19q15 -37 26.5 -77.5t18.5 -78.5t7 -69q0 -43 -10.5 -73.5t-34.5 -50.5t-62 -29.5t-92 -9.5zM129 605q-15 0 -26.5 11.5t-11.5 26.5t11.5 26.5t26.5 11.5t26 -11.5t11 -26.5t-11 -26.5
t-26 -11.5zM70 509q-15 0 -26 11t-11 26q0 16 11 27t27 11q15 0 26 -11t11 -26q0 -16 -11 -27t-27 -11zM188 509q-16 0 -27 11t-11 26q0 16 11 27t27 11q15 0 26 -11t11 -26q0 -16 -11 -27t-26 -11zM167 -181q-16 0 -27 11t-11 26t11 26.5t27 11.5q15 0 26 -11.5t11 -26.5
t-11 -26t-26 -11zM49 -181q-16 0 -27 11t-11 26t11 26.5t27 11.5q15 0 26 -11.5t11 -26.5t-11 -26t-26 -11z" />
    <glyph glyph-name="uni063F.medi" unicode="&#x63f;" horiz-adv-x="332" 
d="M0 -5l7 51q38 0 64 7.5t44 30.5t31.5 68.5t27.5 121.5l49 -11q-5 -27 -10.5 -49.5t-8.5 -42.5t-3 -39t4 -34.5t17.5 -27t41 -18t75.5 -6.5q14 0 20.5 -7t6.5 -17t-8.5 -18.5t-25.5 -8.5q-49 0 -81 7t-50 21t-25.5 35.5t-7.5 48.5l16 -1q-15 -36 -32 -58t-39 -33.5
t-50 -15.5t-63 -4zM188 510q-15 0 -26.5 11t-11.5 27q0 15 11.5 26t26.5 11t26 -11t11 -26q0 -16 -11 -27t-26 -11zM130 414q-16 0 -27 11t-11 26q0 16 11 27t27 11q15 0 26 -11t11 -27q0 -15 -11 -26t-26 -11zM247 414q-15 0 -26.5 11t-11.5 26q0 16 11 27t27 11
q15 0 26 -11t11 -27q0 -15 -11 -26t-26 -11zM228 -184q-16 0 -27 11t-11 26t11 26.5t27 11.5t26.5 -11.5t10.5 -26.5t-11 -26t-26 -11zM111 -184q-16 0 -27.5 11t-11.5 26t11.5 26.5t27.5 11.5q15 0 26 -11.5t11 -26.5t-11 -26t-26 -11z" />
    <glyph glyph-name="uni063F.fina" unicode="&#x63f;" horiz-adv-x="699" 
d="M41 -14q0 25 4.5 53.5t15.5 62.5t31 75l45 -20q-14 -30 -24 -58.5t-15 -55.5t-5 -51q0 -44 17 -76t48.5 -53.5t75 -32t96.5 -10.5q63 0 113 14.5t85 37.5t53 49.5t18 51.5q0 17 -11.5 30.5t-33 25t-49 22t-60.5 21.5l13 51q52 -21 89.5 -35.5t66 -23.5t50.5 -13.5
t42 -4.5q14 0 20 -6.5t6 -17.5q0 -10 -8 -18.5t-27 -8.5q-7 0 -17.5 1t-21.5 3t-20 5q6 -10 8.5 -20.5t2.5 -18.5q0 -31 -21 -65.5t-62.5 -63.5t-102.5 -48t-141 -19q-81 0 -144.5 24.5t-99.5 72.5t-37 120zM226 364q-15 0 -26 11t-11 26t11 26.5t26 11.5q16 0 27 -11.5
t11 -26.5t-11 -26t-27 -11zM168 267q-15 0 -26 11t-11 26q0 16 11 27t26 11t26.5 -11t11.5 -26q0 -16 -11.5 -27t-26.5 -11zM285 267q-15 0 -26 11t-11 26q0 16 11 27t26 11q16 0 27 -11t11 -26q0 -16 -11 -27t-27 -11z" />
    <glyph glyph-name="uni066E.init" unicode="&#x66e;" horiz-adv-x="243" 
d="M0 -5l7 51q46 0 72.5 10.5t37.5 32.5t11 58q0 29 -6.5 63t-18.5 73t-28 81l50 19q15 -38 26.5 -78.5t18.5 -79t7 -70.5t-6.5 -57.5t-19.5 -45t-34 -32t-50 -19t-67 -6.5z" />
    <glyph glyph-name="uni066E.medi" unicode="&#x66e;" horiz-adv-x="308" 
d="M0 -5l7 51q34 0 56.5 7t38.5 29.5t29 68t28 122.5l50 -9q-6 -27 -11 -50t-8 -43t-3 -39q0 -25 9 -44t36 -30.5t83 -11.5q14 0 20 -7t6 -17t-8.5 -18.5t-24.5 -8.5q-56 0 -90 12.5t-49 37.5t-17 62l17 -1q-14 -37 -31 -59t-37 -33.5t-45 -15t-56 -3.5z" />
    <glyph glyph-name="uni066E.fina" unicode="&#x66e;" horiz-adv-x="947" 
d="M359 -21l23 51q75 0 140.5 10.5t120.5 33t98 58t72 85.5l42 -22q-10 -26 -15.5 -45t-5.5 -36q0 -18 10 -33.5t36 -25t73 -9.5q15 0 21 -7t6 -17t-8.5 -18.5t-24.5 -8.5q-54 0 -92 14t-55 43t-9 74l15 -2q-33 -38 -78 -65.5t-101 -45t-123.5 -26t-144.5 -8.5zM359 -21
q-75 0 -134.5 11t-101 34t-63.5 60t-22 88q0 24 4 50t10 52t13 49l47 -13q-5 -16 -10 -37.5t-9 -44.5t-4 -44q0 -54 30.5 -88t95 -50t167.5 -16l20 -30z" />
    <glyph glyph-name="uni066F.init" unicode="&#x66f;" horiz-adv-x="413" 
d="M0 -5l7 51q32 0 64.5 1t63.5 4t57 9t45 16q24 11 42 31t27.5 54.5t9.5 89.5q0 47 -11.5 90t-33.5 70.5t-55 27.5q-25 0 -47 -21.5t-35 -55.5t-13 -70q0 -33 13 -51.5t36.5 -26t52.5 -7.5q28 0 57.5 6t49.5 17l4 -45q-15 -10 -35.5 -16.5t-41.5 -9t-40 -2.5q-45 0 -78 14
t-51 42t-18 69q0 36 11 73t31 68t48 49.5t62 18.5q47 0 79 -34.5t48.5 -90.5t16.5 -121q0 -67 -20 -118.5t-72 -85.5q-20 -13 -47.5 -21.5t-62 -14t-75.5 -8t-89 -2.5z" />
    <glyph glyph-name="uni066F.medi" unicode="&#x66f;" horiz-adv-x="446" 
d="M0 -5l7 51q25 0 50 2t50 6t48 10t43 14q35 16 62.5 36.5t44 48t16.5 63.5q0 27 -11 56t-32.5 49.5t-50.5 20.5q-25 0 -48.5 -18t-38 -47.5t-14.5 -63.5q0 -37 16.5 -65t42.5 -48t54 -32l-59 -20q-21 13 -45.5 34.5t-42 54t-17.5 77.5q0 37 12.5 69t34 57t49 39t57.5 14
q43 0 75.5 -25t51 -64t18.5 -84q0 -35 -11.5 -64.5t-32 -53.5t-48 -42.5t-59.5 -32.5q-24 -11 -50.5 -19t-55.5 -13t-58 -7.5t-58 -2.5zM446 -5q-40 0 -86.5 6.5t-89.5 18t-71 25.5l46 30q25 -6 58.5 -13t72 -11.5t77.5 -4.5q14 0 20 -6.5t6 -17.5q0 -10 -8.5 -18.5
t-24.5 -8.5z" />
    <glyph glyph-name="uni066F.fina" unicode="&#x66f;" horiz-adv-x="768" 
d="M316 -272q-59 0 -109 13.5t-88 41.5t-59.5 72t-21.5 106q0 13 3.5 41.5t15.5 69t38 87.5l45 -21q-14 -27 -25 -54.5t-17.5 -56t-6.5 -58.5q0 -71 31.5 -112t85.5 -59t119 -18q37 0 75.5 5t74 17t65.5 31.5t52 48.5t32 69q9 25 13 56.5t4 59.5q0 59 -12.5 105t-34.5 72
t-51 26q-20 0 -37.5 -13.5t-30.5 -35t-20.5 -47.5t-7.5 -52q0 -24 9.5 -39.5t26.5 -23.5t41 -10.5t53 -2.5h196q14 0 20 -6.5t6 -17.5t-8.5 -19t-24.5 -8h-205q-33 0 -62.5 6t-52.5 19.5t-36.5 36.5t-13.5 57q0 35 11 71.5t31 67.5t48.5 50t62.5 19q44 0 76 -32t50 -90.5
t18 -136.5q0 -35 -7 -73.5t-21 -71.5q-20 -57 -57 -94t-85.5 -58t-102 -29.5t-106.5 -8.5z" />
    <glyph glyph-name="uni0672.fina" unicode="&#x672;" horiz-adv-x="258" 
d="M258 -5q-62 0 -96 15.5t-48 51.5t-17 99l-18 483h51l18 -462q2 -56 10.5 -85.5t32.5 -40t73 -10.5q15 0 21 -7t6 -17t-8.5 -18.5t-24.5 -8.5zM-60 722l-29 17q13 24 30 35t35 11q23 0 39.5 -11t35.5 -11q11 0 25 2.5t22 6.5l2 -11q-35 7 -61 33t-26 60q0 40 28.5 61.5
t65.5 21.5q11 0 23 -2t23 -6l-7 -34q-10 3 -19 4.5t-20 1.5q-28 0 -42.5 -13t-14.5 -33q0 -21 13 -37t32 -25t38 -12l-29 -7q26 7 44.5 14.5t35.5 15.5l12 -32q-9 -5 -27 -13t-39.5 -15t-43 -12.5t-37.5 -5.5q-24 0 -41.5 11t-32.5 11q-12 0 -19.5 -7.5t-15.5 -18.5z" />
    <glyph glyph-name="uni0673.fina" unicode="&#x673;" horiz-adv-x="261" 
d="M261 -5q-62 0 -96.5 15.5t-49 51.5t-16.5 99l-20 549h51l20 -528q2 -57 10.5 -86t33 -39.5t74.5 -10.5q14 0 20 -7t6 -17t-8 -18.5t-25 -8.5zM-18 -292l-28 17q12 24 29.5 35t34.5 11q23 0 40 -11t35 -11q11 0 25 2.5t23 6.5l2 -11q-36 7 -62 33t-26 60q0 40 29 61.5
t65 21.5q11 0 23.5 -2t22.5 -6l-6 -34q-10 3 -19.5 4.5t-19.5 1.5q-29 0 -43.5 -13t-14.5 -33q0 -21 13 -37t32 -25t38 -12l-29 -7q27 7 45.5 14.5t35.5 15.5l11 -32q-9 -5 -26.5 -13t-39.5 -15t-43 -12.5t-37 -5.5q-25 0 -42.5 11t-31.5 11q-12 0 -20 -7.5t-16 -18.5z" />
    <glyph glyph-name="uni0675.fina" unicode="&#x675;" horiz-adv-x="408" 
d="M408 -5h-148q-62 0 -96 15.5t-48.5 52t-16.5 98.5l-20 549h51l20 -528q2 -56 10.5 -85.5t32.5 -40t73 -10.5h149q14 0 20 -7t6 -17t-8.5 -18.5t-24.5 -8.5zM204 587l-8 37q26 6 42 10.5t36 9.5l13 -14q-38 7 -63 33.5t-25 59.5q0 27 13.5 46t35 28t45.5 9q11 0 23.5 -1.5
t22.5 -5.5l-6 -34q-10 2 -19.5 4t-20.5 2q-28 0 -42.5 -13.5t-14.5 -33.5q0 -21 13 -36.5t32 -25t38 -11.5l-40 -5q27 7 50 14.5t42 14.5l11 -35q-24 -9 -55 -18.5t-63 -18.5t-60 -16z" />
    <glyph glyph-name="uni0676.fina" unicode="&#x676;" horiz-adv-x="440" 
d="M52 -230l-11 50q58 10 108 29t86.5 49.5t57 75.5t20.5 108q1 88 -27 138t-71 50q-24 0 -46.5 -20.5t-36 -53.5t-13.5 -69q0 -27 9 -43t26.5 -24t42.5 -11t56 -3h194q13 0 19.5 -6t6.5 -18t-9 -19.5t-24 -7.5h-201q-49 0 -88 11t-61 38t-22 74q0 38 11.5 74t32 66
t48.5 47.5t61 17.5q43 0 75 -29t50 -83.5t18 -131.5q-1 -83 -36 -147t-104 -104.5t-172 -57.5zM274 386l-8 36q25 6 41.5 10.5t35.5 9.5l12 -13q-35 7 -60.5 32.5t-25.5 58.5q0 27 13 45.5t34.5 28t44.5 9.5q11 0 23 -2t23 -6l-7 -33q-9 2 -19 4t-20 2q-27 0 -41 -14
t-14 -33q0 -20 13 -35.5t32 -24.5t36 -12l-39 -5q27 7 49 14t40 14l12 -34q-24 -9 -54.5 -18.5t-62 -18t-58.5 -15.5z" />
    <glyph glyph-name="uni0677.fina" unicode="&#x677;" horiz-adv-x="501" 
d="M109 -230l-11 50q58 10 108 29t86.5 49.5t57 75.5t20.5 108q1 88 -27 138t-71 50q-24 0 -46.5 -20.5t-36 -53.5t-13.5 -69q0 -27 9 -43t26.5 -24t42.5 -11t56 -3h194q13 0 19.5 -6t6.5 -18t-9 -19.5t-24 -7.5h-201q-49 0 -88 11t-61 38t-22 74q0 38 11.5 74t32 66
t48.5 47.5t61 17.5q43 0 75 -29t50 -83.5t18 -131.5q-1 -83 -36 -147t-104 -104.5t-172 -57.5zM336 396l-8 36q25 6 41.5 10.5t35.5 9.5l12 -13q-35 7 -60.5 32.5t-25.5 58.5q0 27 13 45.5t34.5 28t44.5 9.5q11 0 23 -2t23 -6l-7 -33q-9 2 -19 4t-20 2q-27 0 -41 -14
t-14 -33q0 -20 13 -35.5t32 -24.5t36 -12l-39 -5q27 7 49 14t40 14l12 -34q-24 -9 -54.5 -18.5t-62 -18t-58.5 -15.5zM47 390l-6 33q61 6 99.5 22.5t57 40t18.5 49.5q0 20 -9 35t-29 15q-18 0 -29 -12.5t-11 -29.5q0 -25 21.5 -41.5t47.5 -22.5l-21 -25q-37 10 -60.5 33
t-23.5 56q0 32 22 54.5t55 22.5q32 0 52.5 -22.5t20.5 -60.5q0 -41 -25.5 -72.5t-71.5 -50.5t-108 -24z" />
    <glyph glyph-name="uni0678.init" unicode="&#x678;" horiz-adv-x="323" 
d="M0 -5l7 51q46 0 72.5 10.5t37.5 32.5t11 58q0 29 -6.5 63t-18.5 73t-28 81l50 19q15 -38 26.5 -78.5t18.5 -79t7 -70.5t-6.5 -57.5t-19.5 -45t-34 -32t-50 -19t-67 -6.5zM143 587l-8 37q25 6 41.5 10.5t36.5 9.5l12 -14q-37 7 -62.5 33.5t-25.5 59.5q0 27 13.5 46t35 28
t45.5 9q12 0 24 -1.5t23 -5.5l-7 -34q-9 2 -19 4t-21 2q-27 0 -42 -13.5t-15 -33.5q0 -21 13 -36.5t32.5 -25t38.5 -11.5l-40 -5q26 7 49.5 14.5t41.5 14.5l12 -35q-24 -9 -55.5 -18.5t-63.5 -18.5t-59 -16z" />
    <glyph glyph-name="uni0678.medi" unicode="&#x678;" horiz-adv-x="309" 
d="M0 -5l7 51q34 0 56.5 7t38.5 29.5t29 68t28 122.5l50 -9q-6 -27 -11 -50t-8 -43t-3 -39q0 -25 9 -44t36 -30.5t83 -11.5q14 0 20 -7t6 -17t-8.5 -18.5t-24.5 -8.5q-56 0 -90 12.5t-49 37.5t-17 62l17 -1q-14 -37 -31 -59t-37 -33.5t-45 -15t-56 -3.5zM144 418l-8 37
q25 6 41.5 10.5t36.5 9.5l12 -14q-37 7 -62.5 33.5t-25.5 59.5q0 27 13.5 46t35 28t45.5 9q12 0 24 -1.5t23 -5.5l-7 -34q-9 2 -19 4t-21 2q-27 0 -42 -13.5t-15 -33.5q0 -21 13 -36.5t32.5 -25t38.5 -11.5l-40 -5q26 7 49.5 14.5t41.5 14.5l12 -35q-24 -9 -55.5 -18.5
t-63.5 -18.5t-59 -16z" />
    <glyph glyph-name="uni0678.fina" unicode="&#x678;" horiz-adv-x="699" 
d="M41 -14q0 25 4.5 53.5t15.5 62.5t31 75l45 -20q-14 -30 -24 -58.5t-15 -55.5t-5 -51q0 -44 17 -76t48.5 -53.5t75 -32t96.5 -10.5q63 0 113 14.5t85 37.5t53 49.5t18 51.5q0 17 -11.5 30.5t-33 25t-49 22t-60.5 21.5l13 51q52 -21 89.5 -35.5t66 -23.5t50.5 -13.5
t42 -4.5q14 0 20 -6.5t6 -17.5q0 -10 -8 -18.5t-27 -8.5q-7 0 -17.5 1t-21.5 3t-20 5q6 -10 8.5 -20.5t2.5 -18.5q0 -31 -21 -65.5t-62.5 -63.5t-102.5 -48t-141 -19q-81 0 -144.5 24.5t-99.5 72.5t-37 120zM476 209l-8 37q25 6 41.5 10.5t36.5 9.5l12 -14q-37 7 -62.5 33.5
t-25.5 59.5q0 27 13.5 46t35 28t45.5 9q12 0 24 -1.5t23 -5.5l-7 -34q-9 2 -19 4t-21 2q-27 0 -42 -13.5t-15 -33.5q0 -21 13 -36.5t32.5 -25t38.5 -11.5l-40 -5q26 7 49.5 14.5t41.5 14.5l12 -35q-24 -9 -55.5 -18.5t-63.5 -18.5t-59 -16z" />
    <glyph glyph-name="uni067C.init" unicode="&#x67c;" horiz-adv-x="269" 
d="M0 -5l7 51q54 0 85.5 8.5t44.5 30.5t13 62q0 29 -6.5 63t-18.5 73t-28 81l50 19q15 -37 26.5 -77.5t18.5 -78.5t7 -69q0 -43 -10.5 -73.5t-34.5 -50.5t-62 -29.5t-92 -9.5zM120 -112q-32 0 -55 23t-23 56t23 56t55 23q33 0 56.5 -23t23.5 -56t-23.5 -56t-56.5 -23z
M120 -78q19 0 32.5 13t13.5 32t-13.5 32t-32.5 13q-18 0 -31.5 -13t-13.5 -32q0 -18 13.5 -31.5t31.5 -13.5zM188 509q-16 0 -27 11t-11 26t11 26.5t27 11.5q15 0 26 -11.5t11 -26.5t-11 -26t-26 -11zM70 509q-16 0 -27 11t-11 26t11 26.5t27 11.5q15 0 26 -11.5t11 -26.5
t-11 -26t-26 -11z" />
    <glyph glyph-name="uni067C.medi" unicode="&#x67c;" horiz-adv-x="308" 
d="M97 -118q-33 0 -56 23t-23 57q0 32 23 55t56 23t56 -23t23 -56q0 -32 -23 -55.5t-56 -23.5zM97 -84q19 0 32.5 13.5t13.5 31.5q0 20 -13.5 33t-32.5 13t-32 -13t-13 -33q0 -18 13 -31.5t32 -13.5zM0 -5l7 51q34 0 56.5 7t38.5 29.5t29 68t28 122.5l50 -9
q-6 -28 -11 -50.5t-8 -42.5t-3 -39q0 -25 9 -44t36.5 -30.5t82.5 -11.5q14 0 20 -7t6 -17t-8 -18.5t-25 -8.5q-56 0 -90 12.5t-49 37.5t-17 62l17 -1q-14 -37 -31 -59t-37 -33.5t-45 -15t-56 -3.5zM247 405q-16 0 -27.5 10.5t-11.5 26.5q0 15 11.5 26.5t27.5 11.5
q15 0 26 -11.5t11 -26.5q0 -16 -11 -26.5t-26 -10.5zM129 405q-16 0 -27 10.5t-11 26.5q0 15 11 26.5t27 11.5q15 0 26 -11.5t11 -26.5q0 -16 -11 -26.5t-26 -10.5z" />
    <glyph glyph-name="uni067C.fina" unicode="&#x67c;" horiz-adv-x="947" 
d="M457 -144q-33 0 -56 23.5t-23 56.5t23 56t56 23t56.5 -23t23.5 -56t-23.5 -56.5t-56.5 -23.5zM457 -109q19 0 32.5 13t13.5 32t-13.5 32t-32.5 13t-32 -13t-13 -32t13 -32t32 -13zM359 -21l23 51q75 0 140.5 10.5t120.5 33t98 58t72 85.5l42 -22q-10 -26 -15.5 -45
t-5.5 -36q0 -18 10 -33.5t36 -25t73 -9.5q15 0 21 -7t6 -17t-8.5 -18.5t-24.5 -8.5q-54 0 -92 14t-55 43t-9 74l15 -2q-33 -38 -78 -65.5t-101 -45t-123.5 -26t-144.5 -8.5zM359 -21q-75 0 -134.5 11t-101 34t-63.5 60t-22 88q0 25 4 50.5t10 51.5t13 49l47 -13
q-5 -16 -10 -37.5t-9 -44.5t-4 -44q0 -53 30.5 -87.5t95 -50.5t167.5 -16l20 -30zM492 418q-16 0 -27 11t-11 26t11 26.5t27 11.5q15 0 26 -11.5t11 -26.5t-11 -26t-26 -11zM374 418q-15 0 -26.5 11t-11.5 26t11 26.5t27 11.5t26.5 -11.5t10.5 -26.5t-11 -26t-26 -11z" />
    <glyph glyph-name="uni067D.init" unicode="&#x67d;" horiz-adv-x="269" 
d="M0 -5l7 51q54 0 85.5 8.5t44.5 30.5t13 62q0 29 -6.5 63t-18.5 73t-28 81l50 19q15 -37 26.5 -77.5t18.5 -78.5t7 -69q0 -43 -10.5 -73.5t-34.5 -50.5t-62 -29.5t-92 -9.5zM129 509q-15 0 -26.5 11t-11.5 26t11 26.5t27 11.5t26.5 -11.5t10.5 -26.5t-11 -26t-26 -11z
M71 605q-16 0 -27.5 11t-11.5 27q0 15 11.5 26.5t27.5 11.5q15 0 25.5 -11.5t10.5 -26.5q0 -16 -10.5 -27t-25.5 -11zM188 605q-16 0 -27 11t-11 27q0 15 11 26.5t27 11.5q15 0 26 -11.5t11 -26.5q0 -16 -11 -27t-26 -11z" />
    <glyph glyph-name="uni067D.medi" unicode="&#x67d;" horiz-adv-x="332" 
d="M0 -5l7 51q38 0 64 7.5t44 30.5t31.5 68.5t27.5 121.5l49 -11q-5 -27 -10.5 -49.5t-8.5 -42.5t-3 -39t4 -34.5t17.5 -27t41 -18t75.5 -6.5q14 0 20.5 -7t6.5 -17t-8.5 -18.5t-25.5 -8.5q-49 0 -81 7t-50 21t-25.5 35.5t-7.5 48.5l16 -1q-15 -36 -32 -58t-39 -33.5
t-50 -15.5t-63 -4zM190 414q-16 0 -27 11t-11 26t11 26.5t27 11.5t26.5 -11.5t10.5 -26.5t-11 -26t-26 -11zM131 510q-15 0 -26.5 11t-11.5 26q0 16 11 27t27 11t26.5 -11t10.5 -27q0 -15 -10.5 -26t-26.5 -11zM249 510q-16 0 -27 11t-11 26q0 16 11 27t27 11q15 0 26 -11
t11 -27q0 -15 -11 -26t-26 -11z" />
    <glyph glyph-name="uni067D.fina" unicode="&#x67d;" horiz-adv-x="947" 
d="M359 -21l23 51q75 0 140.5 10.5t120.5 33t98 58t72 85.5l42 -22q-10 -26 -15.5 -45t-5.5 -36q0 -18 10 -33.5t36 -25t73 -9.5q15 0 21 -7t6 -17t-8.5 -18.5t-24.5 -8.5q-54 0 -92 14t-55 43t-9 74l15 -2q-33 -38 -78 -65.5t-101 -45t-123.5 -26t-144.5 -8.5zM359 -21
q-75 0 -134.5 11t-101 34t-63.5 60t-22 88q0 24 4 50t10 52t13 49l47 -13q-5 -16 -10 -37.5t-9 -44.5t-4 -44q0 -54 30.5 -88t95 -50t167.5 -16l20 -30zM436 418q-16 0 -27 11t-11 26t11 26.5t27 11.5q15 0 26 -11.5t11 -26.5t-11 -26t-26 -11zM377 515q-16 0 -27 10.5
t-11 26.5q0 15 11 26.5t27 11.5q15 0 26 -11.5t11 -26.5q0 -16 -11 -26.5t-26 -10.5zM494 515q-15 0 -26.5 10.5t-11.5 26.5q0 15 11 26.5t27 11.5t26.5 -11.5t10.5 -26.5q0 -16 -11 -26.5t-26 -10.5z" />
    <glyph glyph-name="uni0681.init" unicode="&#x681;" horiz-adv-x="531" 
d="M0 -5l7 51q51 0 96 8t88 24.5t88 40.5t95 57q-39 29 -75 52t-73 36t-81 13q-15 0 -28.5 -0.5t-26.5 -3t-30 -7.5l-10 48q24 7 48 10.5t47 3.5q49 0 87 -13t69 -31.5t57.5 -37.5t51 -32t50.5 -13h20l5 -48q-34 0 -64.5 -12t-61 -29.5t-65 -37.5t-76 -38t-95.5 -29.5
t-123 -11.5zM63 425l-8 36q25 6 41.5 10.5t35.5 9.5l12 -13q-35 7 -60.5 32.5t-25.5 58.5q0 27 13 45.5t34.5 28t44.5 9.5q11 0 23 -2t23 -6l-7 -33q-9 2 -19 4t-20 2q-27 0 -41 -14t-14 -33q0 -20 13 -35.5t32 -24.5t36 -12l-39 -5q27 7 49 14t40 14l12 -34
q-24 -9 -54.5 -18.5t-62 -18t-58.5 -15.5z" />
    <glyph glyph-name="uni0681.medi" unicode="&#x681;" horiz-adv-x="565" 
d="M565 -5q-35 0 -66 4t-56 18t-43 43t-28 78l38 20q13 -51 33 -74.5t52 -30.5t77 -7q14 0 20 -7t6 -17t-8.5 -18.5t-24.5 -8.5zM0 -5l7 51q51 0 96 8t88 24.5t88 40.5t95 57q-39 29 -75 52t-73 36t-81 13q-15 0 -28.5 -0.5t-26.5 -3t-30 -7.5l-10 48q24 7 48 10.5t47 3.5
q49 0 87 -13t69 -31.5t57.5 -37.5t51 -32t50.5 -13h20l5 -48q-34 0 -64.5 -12t-61 -29.5t-65 -37.5t-76 -38t-95.5 -29.5t-123 -11.5zM62 425l-8 36q25 6 41.5 10.5t35.5 9.5l12 -13q-35 7 -60.5 32.5t-25.5 58.5q0 27 13 45.5t34.5 28t44.5 9.5q11 0 23 -2t23 -6l-7 -33
q-9 2 -19 4t-20 2q-27 0 -41 -14t-14 -33q0 -20 13 -35.5t32 -24.5t36 -12l-39 -5q27 7 49 14t40 14l12 -34q-24 -9 -54.5 -18.5t-62 -18t-58.5 -15.5z" />
    <glyph glyph-name="uni0681.fina" unicode="&#x681;" horiz-adv-x="604" 
d="M604 -5q-48 0 -90 8.5t-73.5 33t-51 72t-22.5 125.5l42 19q4 -67 19.5 -108t41 -62t61 -29t80.5 -8q14 0 20 -7t6 -17t-8.5 -18.5t-24.5 -8.5zM342 -394q-63 0 -120 16.5t-100.5 50t-69 84t-25.5 118.5q0 63 21 117.5t58 100t86 81.5t105 62t115 41l-1 -11
q-29 7 -58.5 18t-60 23t-65 20t-75.5 8q-31 0 -53 -5.5t-41 -11.5l-9 47q22 9 51.5 15t59.5 6q40 0 74.5 -8.5t66 -21t64 -25.5t68 -22t78.5 -9h8l1 -52q-45 -1 -95 -13t-99 -34t-93.5 -54t-79 -72.5t-54.5 -90t-20 -106.5q0 -58 22.5 -100t60 -68.5t86 -39t100.5 -12.5
q48 0 91.5 9t83.5 24l18 -44q-47 -21 -99 -31t-100 -10zM209 500l-8 36q25 6 41.5 10.5t35.5 9.5l12 -13q-35 7 -60.5 32.5t-25.5 58.5q0 27 13 45.5t34.5 28t44.5 9.5q11 0 23 -2t23 -6l-7 -33q-9 2 -19 4t-20 2q-27 0 -41 -14t-14 -33q0 -20 13 -35.5t32 -24.5t36 -12
l-39 -5q27 7 49 14t40 14l12 -34q-24 -9 -54.5 -18.5t-62 -18t-58.5 -15.5z" />
    <glyph glyph-name="uni0682.init" unicode="&#x682;" horiz-adv-x="531" 
d="M0 -5l7 51q51 0 96 8t88 24.5t88 40.5t95 57q-39 29 -75 52t-73 36t-81 13q-15 0 -28.5 -0.5t-26.5 -3t-30 -7.5l-10 48q24 7 48 10.5t47 3.5q49 0 87 -13t69 -31.5t57.5 -37.5t51 -32t50.5 -13h20l5 -48q-34 0 -64.5 -12t-61 -29.5t-65 -37.5t-76 -38t-95.5 -29.5
t-123 -11.5zM148 447q-16 0 -27 11t-11 26t11 26.5t27 11.5q15 0 26 -11.5t11 -26.5t-11 -26t-26 -11zM147 567q-16 0 -27 11t-11 26t11 26.5t27 11.5q15 0 26 -11.5t11 -26.5t-11 -26t-26 -11z" />
    <glyph glyph-name="uni0682.medi" unicode="&#x682;" horiz-adv-x="565" 
d="M565 -5q-35 0 -66 4t-56 18t-43 43t-28 78l38 20q13 -51 33 -74.5t52 -30.5t77 -7q14 0 20 -7t6 -17t-8.5 -18.5t-24.5 -8.5zM0 -5l7 51q51 0 96 8t88 24.5t88 40.5t95 57q-39 29 -75 52t-73 36t-81 13q-15 0 -28.5 -0.5t-26.5 -3t-30 -7.5l-10 48q24 7 48 10.5t47 3.5
q49 0 87 -13t69 -31.5t57.5 -37.5t51 -32t50.5 -13h20l5 -48q-34 0 -64.5 -12t-61 -29.5t-65 -37.5t-76 -38t-95.5 -29.5t-123 -11.5zM147 447q-16 0 -27 11t-11 26t11 26.5t27 11.5q15 0 26 -11.5t11 -26.5t-11 -26t-26 -11zM146 567q-16 0 -27 11t-11 26t11 26.5t27 11.5
q15 0 26 -11.5t11 -26.5t-11 -26t-26 -11z" />
    <glyph glyph-name="uni0682.fina" unicode="&#x682;" horiz-adv-x="604" 
d="M604 -5q-48 0 -90 8.5t-73.5 33t-51 72t-22.5 125.5l42 19q4 -67 19.5 -108t41 -62t61 -29t80.5 -8q14 0 20 -7t6 -17t-8.5 -18.5t-24.5 -8.5zM342 -394q-63 0 -120 16.5t-100.5 50t-69 84t-25.5 118.5q0 63 21 117.5t58 100t86 81.5t105 62t115 41l-1 -11
q-29 7 -58.5 18t-60 23t-65 20t-75.5 8q-31 0 -53 -5.5t-41 -11.5l-9 47q22 9 51.5 15t59.5 6q40 0 74.5 -8.5t66 -21t64 -25.5t68 -22t78.5 -9h8l1 -52q-45 -1 -95 -13t-99 -34t-93.5 -54t-79 -72.5t-54.5 -90t-20 -106.5q0 -58 22.5 -100t60 -68.5t86 -39t100.5 -12.5
q48 0 91.5 9t83.5 24l18 -44q-47 -21 -99 -31t-100 -10zM302 512q-16 0 -27 11t-11 26t11 26.5t27 11.5q15 0 26 -11.5t11 -26.5t-11 -26t-26 -11zM301 632q-16 0 -27 11t-11 26t11 26.5t27 11.5q15 0 26 -11.5t11 -26.5t-11 -26t-26 -11z" />
    <glyph glyph-name="uni0685.init" unicode="&#x685;" horiz-adv-x="531" 
d="M0 -5l7 51q51 0 96 8t88 24.5t88 40.5t95 57q-39 29 -75 52t-73 36t-81 13q-15 0 -28.5 -0.5t-26.5 -3t-30 -7.5l-10 48q24 7 48 10.5t47 3.5q49 0 87 -13t69 -31.5t57.5 -37.5t51 -32t50.5 -13h20l5 -48q-34 0 -64.5 -12t-61 -29.5t-65 -37.5t-76 -38t-95.5 -29.5
t-123 -11.5zM149 540q-15 0 -26 11t-11 26t11 26.5t26 11.5q16 0 27 -11.5t11 -26.5t-11 -26t-27 -11zM91 443q-15 0 -26 11t-11 26q0 16 11 27t26 11t26.5 -11t11.5 -26q0 -16 -11.5 -27t-26.5 -11zM208 443q-15 0 -26 11t-11 26q0 16 11 27t26 11q16 0 27 -11t11 -26
q0 -16 -11 -27t-27 -11z" />
    <glyph glyph-name="uni0685.medi" unicode="&#x685;" horiz-adv-x="565" 
d="M565 -5q-35 0 -66 4t-56 18t-43 43t-28 78l38 20q13 -51 33 -74.5t52 -30.5t77 -7q14 0 20 -7t6 -17t-8.5 -18.5t-24.5 -8.5zM0 -5l7 51q51 0 96 8t88 24.5t88 40.5t95 57q-39 29 -75 52t-73 36t-81 13q-15 0 -28.5 -0.5t-26.5 -3t-30 -7.5l-10 48q24 7 48 10.5t47 3.5
q49 0 87 -13t69 -31.5t57.5 -37.5t51 -32t50.5 -13h20l5 -48q-34 0 -64.5 -12t-61 -29.5t-65 -37.5t-76 -38t-95.5 -29.5t-123 -11.5zM148 540q-15 0 -26 11t-11 26t11 26.5t26 11.5q16 0 27 -11.5t11 -26.5t-11 -26t-27 -11zM90 443q-15 0 -26 11t-11 26q0 16 11 27t26 11
t26.5 -11t11.5 -26q0 -16 -11.5 -27t-26.5 -11zM207 443q-15 0 -26 11t-11 26q0 16 11 27t26 11q16 0 27 -11t11 -26q0 -16 -11 -27t-27 -11z" />
    <glyph glyph-name="uni0685.fina" unicode="&#x685;" horiz-adv-x="604" 
d="M604 -5q-48 0 -90 8.5t-73.5 33t-51 72t-22.5 125.5l42 19q4 -67 19.5 -108t41 -62t61 -29t80.5 -8q14 0 20 -7t6 -17t-8.5 -18.5t-24.5 -8.5zM342 -394q-63 0 -120 16.5t-100.5 50t-69 84t-25.5 118.5q0 63 21 117.5t58 100t86 81.5t105 62t115 41l-1 -11
q-29 7 -58.5 18t-60 23t-65 20t-75.5 8q-31 0 -53 -5.5t-41 -11.5l-9 47q22 9 51.5 15t59.5 6q40 0 74.5 -8.5t66 -21t64 -25.5t68 -22t78.5 -9h8l1 -52q-45 -1 -95 -13t-99 -34t-93.5 -54t-79 -72.5t-54.5 -90t-20 -106.5q0 -58 22.5 -100t60 -68.5t86 -39t100.5 -12.5
q48 0 91.5 9t83.5 24l18 -44q-47 -21 -99 -31t-100 -10zM307 609q-15 0 -26 11t-11 26t11 26.5t26 11.5q16 0 27 -11.5t11 -26.5t-11 -26t-27 -11zM249 512q-15 0 -26 11t-11 26q0 16 11 27t26 11t26.5 -11t11.5 -26q0 -16 -11.5 -27t-26.5 -11zM366 512q-15 0 -26 11
t-11 26q0 16 11 27t26 11q16 0 27 -11t11 -26q0 -16 -11 -27t-27 -11z" />
    <glyph glyph-name="uni0689.fina" unicode="&#x689;" horiz-adv-x="476" 
d="M199 -129q-33 0 -56 23t-23 56t23 56t56 23t56 -23t23 -56t-23 -56t-56 -23zM199 -95q19 0 32.5 13.5t13.5 31.5q0 19 -13.5 32.5t-32.5 13.5t-32 -13.5t-13 -32.5q0 -18 13 -31.5t32 -13.5zM183 46q46 0 72.5 12t39 34t12.5 50q0 19 -6.5 45t-21 60.5t-39.5 78.5t-63 98
l44 28q41 -60 69 -111.5t44.5 -95.5t25.5 -82q10 -42 25.5 -68t39.5 -37.5t57 -11.5q15 0 21 -7t6 -17t-8.5 -18.5t-24.5 -8.5q-41 0 -72 14t-50.5 43t-27.5 73l23 2q-2 -33 -17 -63t-50 -49.5t-98 -19.5q-28 0 -55.5 4t-52 12.5t-42.5 19.5l21 45q25 -13 59 -21.5t69 -8.5z
" />
    <glyph glyph-name="uni068A.fina" unicode="&#x68a;" horiz-adv-x="476" 
d="M183 46q46 0 72.5 12t39 34t12.5 50q0 19 -6.5 45t-21 60.5t-39.5 78.5t-63 98l44 28q41 -60 69 -111.5t44.5 -95.5t25.5 -82q10 -42 25.5 -68t39.5 -37.5t57 -11.5q15 0 21 -7t6 -17t-8.5 -18.5t-24.5 -8.5q-41 0 -72 14t-50.5 43t-27.5 73l23 2q-2 -33 -17 -63
t-50 -49.5t-98 -19.5q-28 0 -55.5 4t-52 12.5t-42.5 19.5l21 45q25 -13 59 -21.5t69 -8.5zM184 -180q-16 0 -27 10.5t-11 26.5q0 15 11 26.5t27 11.5q15 0 26 -11.5t11 -26.5q0 -16 -11 -26.5t-26 -10.5z" />
    <glyph glyph-name="uni068B.fina" unicode="&#x68b;" horiz-adv-x="476" 
d="M183 46q46 0 72.5 12t39 34t12.5 50q0 19 -6.5 45t-21 60.5t-39.5 78.5t-63 98l44 28q41 -60 69 -111.5t44.5 -95.5t25.5 -82q10 -42 25.5 -68t39.5 -37.5t57 -11.5q15 0 21 -7t6 -17t-8.5 -18.5t-24.5 -8.5q-41 0 -72 14t-50.5 43t-27.5 73l23 2q-2 -33 -17 -63
t-50 -49.5t-98 -19.5q-28 0 -55.5 4t-52 12.5t-42.5 19.5l21 45q25 -13 59 -21.5t69 -8.5zM170 596q-16 0 -37 1t-40.5 3t-30.5 3l2 36q25 -3 53 -5t51 -2q35 0 57.5 7t33.5 19.5t11 26.5q0 17 -9.5 27t-26.5 10q-22 0 -43 -15.5t-38 -37t-28 -39.5l-35 3q17 32 40 60.5
t51 47t57 18.5q32 0 50 -20t18 -50q0 -24 -13.5 -45t-43.5 -34.5t-79 -13.5zM115 657l-6 190h34l7 -167zM184 -180q-16 0 -27 10.5t-11 26.5q0 15 11 26.5t27 11.5q15 0 26 -11.5t11 -26.5q0 -16 -11 -26.5t-26 -10.5z" />
    <glyph glyph-name="uni068F.fina" unicode="&#x68f;" horiz-adv-x="476" 
d="M183 46q46 0 72.5 12t39 34t12.5 50q0 19 -6.5 45t-21 60.5t-39.5 78.5t-63 98l44 28q41 -60 69 -111.5t44.5 -95.5t25.5 -82q10 -42 25.5 -68t39.5 -37.5t57 -11.5q15 0 21 -7t6 -17t-8.5 -18.5t-24.5 -8.5q-41 0 -72 14t-50.5 43t-27.5 73l23 2q-2 -33 -17 -63
t-50 -49.5t-98 -19.5q-28 0 -55.5 4t-52 12.5t-42.5 19.5l21 45q25 -13 59 -21.5t69 -8.5zM183 578q-16 0 -27 11t-11 26t11 26.5t27 11.5q15 0 26 -11.5t11 -26.5t-11 -26t-26 -11zM124 675q-16 0 -27 10.5t-11 26.5q0 15 11 26.5t27 11.5q15 0 26 -11.5t11 -26.5
q0 -16 -11 -26.5t-26 -10.5zM241 675q-15 0 -26.5 10.5t-11.5 26.5q0 15 11 26.5t27 11.5t26.5 -11.5t10.5 -26.5q0 -16 -11 -26.5t-26 -10.5z" />
    <glyph glyph-name="uni0690.fina" unicode="&#x690;" horiz-adv-x="476" 
d="M183 46q46 0 72.5 12t39 34t12.5 50q0 19 -6.5 45t-21 60.5t-39.5 78.5t-63 98l44 28q41 -60 69 -111.5t44.5 -95.5t25.5 -82q10 -42 25.5 -68t39.5 -37.5t57 -11.5q15 0 21 -7t6 -17t-8.5 -18.5t-24.5 -8.5q-41 0 -72 14t-50.5 43t-27.5 73l23 2q-2 -33 -17 -63
t-50 -49.5t-98 -19.5q-28 0 -55.5 4t-52 12.5t-42.5 19.5l21 45q25 -13 59 -21.5t69 -8.5zM125 695q-16 0 -27 10.5t-11 26.5q0 15 11 26.5t27 11.5q15 0 26 -11.5t11 -26.5q0 -16 -11 -26.5t-26 -10.5zM124 578q-16 0 -27 11t-11 26t11 26.5t27 11.5q15 0 26 -11.5
t11 -26.5t-11 -26t-26 -11zM242 695q-15 0 -26.5 10.5t-11.5 26.5q0 15 11 26.5t27 11.5t26.5 -11.5t10.5 -26.5q0 -16 -11 -26.5t-26 -10.5zM241 578q-15 0 -26.5 11t-11.5 26t11 26.5t27 11.5t26.5 -11.5t10.5 -26.5t-11 -26t-26 -11z" />
    <glyph glyph-name="uni0692.fina" unicode="&#x692;" horiz-adv-x="361" 
d="M6 -231l-23 48q56 24 98 56t70.5 69.5t42 77t13.5 78.5q0 48 -20.5 100.5t-52.5 108.5l48 25q18 -33 32.5 -65.5t24.5 -61.5t17 -56q13 -53 39.5 -78t71.5 -25q15 0 21 -7t6 -17t-8.5 -18.5t-24.5 -8.5q-37 0 -63.5 13t-42.5 37t-24 54l24 -5q0 -58 -22 -109.5
t-58.5 -93.5t-80.5 -73t-88 -49zM127 483q-7 15 -17 39t-21.5 51t-23 51t-19.5 40l32 16q5 -10 15.5 -31.5t22 -48t22 -50.5t16.5 -38l13 -26zM167 486l-31 11q6 17 16.5 45t22.5 57.5t21.5 52.5t12.5 31l32 -13q-4 -10 -14 -33.5t-21.5 -52.5t-22 -55.5t-16.5 -42.5z" />
    <glyph glyph-name="uni0693.fina" unicode="&#x693;" horiz-adv-x="361" 
d="M210 -220q-33 0 -56 23.5t-23 55.5q0 33 23 56t56 23t56 -23t23 -56q0 -32 -23 -55.5t-56 -23.5zM210 -186q18 0 32 13.5t14 31.5q0 19 -13.5 32.5t-32.5 13.5t-32 -13.5t-13 -32.5q0 -18 13 -31.5t32 -13.5zM6 -231l-23 48q56 24 98 56t70.5 69.5t42 77t13.5 78.5
q0 48 -20.5 100.5t-52.5 108.5l48 25q18 -33 32.5 -65.5t24.5 -61.5t17 -56q13 -53 39.5 -78t71.5 -25q15 0 21 -7t6 -17t-8.5 -18.5t-24.5 -8.5q-37 0 -63.5 13t-42.5 37t-24 54l24 -5q0 -58 -22 -109.5t-58.5 -93.5t-80.5 -73t-88 -49z" />
    <glyph glyph-name="uni0694.fina" unicode="&#x694;" horiz-adv-x="361" 
d="M6 -231l-23 48q56 24 98 56t70.5 69.5t42 77t13.5 78.5q0 48 -20.5 100.5t-52.5 108.5l48 25q18 -33 32.5 -65.5t24.5 -61.5t17 -56q13 -53 39.5 -78t71.5 -25q15 0 21 -7t6 -17t-8.5 -18.5t-24.5 -8.5q-37 0 -63.5 13t-42.5 37t-24 54l24 -5q0 -58 -22 -109.5
t-58.5 -93.5t-80.5 -73t-88 -49zM102 -392q-16 0 -27 10.5t-11 26.5q0 15 11 26.5t27 11.5q15 0 26 -11.5t11 -26.5q0 -16 -11 -26.5t-26 -10.5z" />
    <glyph glyph-name="uni0695.fina" unicode="&#x695;" horiz-adv-x="361" 
d="M41 -74q-7 16 -19 42.5t-24.5 53t-22.5 43.5l26 13q5 -8 13 -24.5t17.5 -36.5t18 -38t13.5 -30l10 -20zM73 -71l-25 8q5 14 13.5 35.5t17.5 44.5t16.5 40.5t10.5 23.5l26 -11q-4 -8 -11.5 -26t-17 -40t-17.5 -42t-13 -33zM6 -231l-23 48q56 24 98 56t70.5 69.5t42 77
t13.5 78.5q0 48 -20.5 100.5t-52.5 108.5l48 25q18 -33 32.5 -65.5t24.5 -61.5t17 -56q13 -53 39.5 -78t71.5 -25q15 0 21 -7t6 -17t-8.5 -18.5t-24.5 -8.5q-37 0 -63.5 13t-42.5 37t-24 54l24 -5q0 -58 -22 -109.5t-58.5 -93.5t-80.5 -73t-88 -49z" />
    <glyph glyph-name="uni0696.fina" unicode="&#x696;" horiz-adv-x="361" 
d="M6 -231l-23 48q56 24 98 56t70.5 69.5t42 77t13.5 78.5q0 48 -20.5 100.5t-52.5 108.5l48 25q18 -33 32.5 -65.5t24.5 -61.5t17 -56q13 -53 39.5 -78t71.5 -25q15 0 21 -7t6 -17t-8.5 -18.5t-24.5 -8.5q-37 0 -63.5 13t-42.5 37t-24 54l24 -5q0 -58 -22 -109.5
t-58.5 -93.5t-80.5 -73t-88 -49zM42 9q-16 0 -27 11t-11 26t11 26.5t27 11.5q15 0 26 -11.5t11 -26.5t-11 -26t-26 -11zM87 -392q-16 0 -27 10.5t-11 26.5q0 15 11 26.5t27 11.5q15 0 26 -11.5t11 -26.5q0 -16 -11 -26.5t-26 -10.5z" />
    <glyph glyph-name="uni0697.fina" unicode="&#x697;" horiz-adv-x="361" 
d="M6 -231l-23 48q56 24 98 56t70.5 69.5t42 77t13.5 78.5q0 48 -20.5 100.5t-52.5 108.5l48 25q18 -33 32.5 -65.5t24.5 -61.5t17 -56q13 -53 39.5 -78t71.5 -25q15 0 21 -7t6 -17t-8.5 -18.5t-24.5 -8.5q-37 0 -63.5 13t-42.5 37t-24 54l24 -5q0 -58 -22 -109.5
t-58.5 -93.5t-80.5 -73t-88 -49zM206 470q-15 0 -26.5 11t-11.5 26t11 26.5t27 11.5t26.5 -11.5t10.5 -26.5t-11 -26t-26 -11zM89 470q-16 0 -27 11t-11 26t11 26.5t27 11.5q15 0 26 -11.5t11 -26.5t-11 -26t-26 -11z" />
    <glyph glyph-name="uni0699.fina" unicode="&#x699;" horiz-adv-x="361" 
d="M6 -231l-23 48q56 24 98 56t70.5 69.5t42 77t13.5 78.5q0 48 -20.5 100.5t-52.5 108.5l48 25q18 -33 32.5 -65.5t24.5 -61.5t17 -56q13 -53 39.5 -78t71.5 -25q15 0 21 -7t6 -17t-8.5 -18.5t-24.5 -8.5q-37 0 -63.5 13t-42.5 37t-24 54l24 -5q0 -58 -22 -109.5
t-58.5 -93.5t-80.5 -73t-88 -49zM90 587q-16 0 -27 10.5t-11 26.5q0 15 11 26.5t27 11.5q15 0 26 -11.5t11 -26.5q0 -16 -11 -26.5t-26 -10.5zM89 470q-16 0 -27 11t-11 26t11 26.5t27 11.5q15 0 26 -11.5t11 -26.5t-11 -26t-26 -11zM207 587q-15 0 -26.5 10.5t-11.5 26.5
q0 15 11 26.5t27 11.5t26.5 -11.5t10.5 -26.5q0 -16 -11 -26.5t-26 -10.5zM206 470q-15 0 -26.5 11t-11.5 26t11 26.5t27 11.5t26.5 -11.5t10.5 -26.5t-11 -26t-26 -11z" />
    <glyph glyph-name="uni069A.init" unicode="&#x69a;" horiz-adv-x="717" 
d="M0 -5l7 51q32 0 52 6t34 26.5t26.5 64t28.5 118.5l48 -13q-5 -20 -10 -42t-8.5 -44t-4.5 -43q0 -41 20 -57t66 -16q30 0 49 7.5t31.5 30t22.5 67.5t20 119l48 -9q-4 -22 -8 -49t-7 -51.5t-3 -42.5q0 -25 8.5 -41t28.5 -23.5t53 -7.5q27 0 49.5 8t36 30.5t13.5 66.5
q0 47 -16.5 101.5t-35.5 110.5l52 20q12 -35 23 -74t18.5 -78t7.5 -74q0 -46 -12 -77t-33 -49.5t-48 -27t-57 -8.5q-46 0 -71.5 13t-37 36t-16.5 53h21q-13 -40 -30.5 -62t-44 -31t-69.5 -9q-27 0 -53.5 8t-43.5 32t-19 72l20 3q-14 -50 -35 -74.5t-50.5 -32.5t-70.5 -8z
M346 -180q-16 0 -27 10.5t-11 26.5q0 15 11 26.5t27 11.5q15 0 26 -11.5t11 -26.5q0 -16 -11 -26.5t-26 -10.5zM390 451q-16 0 -27 11t-11 26t11 26.5t27 11.5q15 0 26 -11.5t11 -26.5t-11 -26t-26 -11z" />
    <glyph glyph-name="uni069A.medi" unicode="&#x69a;" horiz-adv-x="761" 
d="M0 -5l7 51q29 0 48.5 4.5t34 24t28 63.5t30.5 123l47 -13q-6 -25 -14 -61.5t-8 -66.5q0 -26 6.5 -42t24.5 -24t50 -8q28 0 47.5 6.5t33 28t24 67t21.5 122.5l49 -9q-3 -18 -7.5 -44.5t-8.5 -53t-4 -43.5q0 -24 7 -41t26 -25t55 -8q51 0 74 22t23 76q0 23 -1.5 54.5t-4 66
t-5.5 65.5l48 4q5 -92 12 -148.5t21.5 -86.5t39 -41.5t64.5 -11.5q14 0 20 -7t6 -17t-8.5 -18.5t-24.5 -8.5q-34 0 -58.5 8t-42 23t-28 36t-15.5 46l12 -3q-7 -45 -27.5 -68.5t-48 -32.5t-59.5 -9q-40 0 -65.5 11t-38.5 33.5t-17 57.5h20q-14 -37 -31 -59.5t-43.5 -32.5
t-70.5 -10q-25 0 -51 8t-43 32t-17 72l19 3q-15 -51 -36.5 -75.5t-50.5 -32t-69 -7.5zM346 -180q-16 0 -27 10.5t-11 26.5q0 15 11 26.5t27 11.5q15 0 26 -11.5t11 -26.5q0 -16 -11 -26.5t-26 -10.5zM397 451q-16 0 -27 11t-11 26t11 26.5t27 11.5q15 0 26 -11.5t11 -26.5
t-11 -26t-26 -11z" />
    <glyph glyph-name="uni069A.fina" unicode="&#x69a;" horiz-adv-x="1118" 
d="M286 -231q-50 0 -94 13.5t-78 40t-53.5 66.5t-19.5 93q0 23 4.5 51t15.5 62.5t31 76.5l45 -20q-14 -30 -23.5 -58.5t-14.5 -54.5t-5 -51q0 -57 26.5 -94.5t71 -55.5t96.5 -18q66 0 107.5 19t64.5 49t32 66t9 70q0 40 -6 78.5t-16 77t-22 79.5l52 15q15 -57 22 -86.5
t14 -53.5q10 -35 22 -54t29 -26.5t42 -7.5q21 0 37.5 5.5t30 27t24 67.5t20.5 126l49 -9q-4 -29 -8.5 -55.5t-7.5 -48.5t-3 -39q0 -23 5.5 -40t24.5 -25.5t58 -8.5q45 0 68.5 25t23.5 73q0 23 -1 55t-3.5 67t-6.5 66l49 4q5 -86 10.5 -141.5t17.5 -88t35 -46t64 -14.5
q15 0 21 -7t6 -17t-8.5 -18.5t-25.5 -8.5q-38 0 -66 12.5t-46 36t-25 56.5l13 -3q-8 -36 -26.5 -58.5t-45 -33t-58.5 -10.5q-42 0 -67.5 11t-37.5 34t-15 59h20q-13 -39 -30 -61.5t-40.5 -32.5t-57.5 -10q-30 0 -49.5 8.5t-32 22t-18.5 30.5t-10 34l27 -39
q0 -56 -12.5 -106.5t-42.5 -90.5t-81.5 -62.5t-130.5 -22.5zM755 -177q-16 0 -27 10.5t-11 26.5q0 15 11 26.5t27 11.5q15 0 26 -11.5t11 -26.5q0 -16 -11 -26.5t-26 -10.5zM741 451q-16 0 -27 11t-11 26t11 26.5t27 11.5q15 0 26 -11.5t11 -26.5t-11 -26t-26 -11z" />
    <glyph glyph-name="uni069B.init" unicode="&#x69b;" horiz-adv-x="717" 
d="M0 -5l7 51q32 0 52 6t34 26.5t26.5 64t28.5 118.5l48 -13q-5 -20 -10 -42t-8.5 -44t-4.5 -43q0 -41 20 -57t66 -16q30 0 49 7.5t31.5 30t22.5 67.5t20 119l48 -9q-4 -22 -8 -49t-7 -51.5t-3 -42.5q0 -25 8.5 -41t28.5 -23.5t53 -7.5q27 0 49.5 8t36 30.5t13.5 66.5
q0 47 -16.5 101.5t-35.5 110.5l52 20q12 -35 23 -74t18.5 -78t7.5 -74q0 -46 -12 -77t-33 -49.5t-48 -27t-57 -8.5q-46 0 -71.5 13t-37 36t-16.5 53h21q-13 -40 -30.5 -62t-44 -31t-69.5 -9q-27 0 -53.5 8t-43.5 32t-19 72l20 3q-14 -50 -35 -74.5t-50.5 -32.5t-70.5 -8z
M346 -279q-16 0 -27 11t-11 27q0 15 11 26.5t27 11.5q15 0 26 -11.5t11 -26.5q0 -16 -11 -27t-26 -11zM287 -182q-16 0 -27 11t-11 26t11 26.5t27 11.5q15 0 26 -11.5t11 -26.5t-11 -26t-26 -11zM404 -182q-16 0 -27 11t-11 26t11 26.5t27 11.5q15 0 26 -11.5t11 -26.5
t-11 -26t-26 -11z" />
    <glyph glyph-name="uni069B.medi" unicode="&#x69b;" horiz-adv-x="761" 
d="M0 -5l7 51q29 0 48.5 4.5t34 24t28 63.5t30.5 123l47 -13q-6 -25 -14 -61.5t-8 -66.5q0 -26 6.5 -42t24.5 -24t50 -8q28 0 47.5 6.5t33 28t24 67t21.5 122.5l49 -9q-3 -18 -7.5 -44.5t-8.5 -53t-4 -43.5q0 -24 7 -41t26 -25t55 -8q51 0 74 22t23 76q0 23 -1.5 54.5t-4 66
t-5.5 65.5l48 4q5 -92 12 -148.5t21.5 -86.5t39 -41.5t64.5 -11.5q14 0 20 -7t6 -17t-8.5 -18.5t-24.5 -8.5q-34 0 -58.5 8t-42 23t-28 36t-15.5 46l12 -3q-7 -45 -27.5 -68.5t-48 -32.5t-59.5 -9q-40 0 -65.5 11t-38.5 33.5t-17 57.5h20q-14 -37 -31 -59.5t-43.5 -32.5
t-70.5 -10q-25 0 -51 8t-43 32t-17 72l19 3q-15 -51 -36.5 -75.5t-50.5 -32t-69 -7.5zM346 -279q-16 0 -27 11t-11 27q0 15 11 26.5t27 11.5q15 0 26 -11.5t11 -26.5q0 -16 -11 -27t-26 -11zM287 -182q-16 0 -27 11t-11 26t11 26.5t27 11.5q15 0 26 -11.5t11 -26.5t-11 -26
t-26 -11zM404 -182q-16 0 -27 11t-11 26t11 26.5t27 11.5q15 0 26 -11.5t11 -26.5t-11 -26t-26 -11z" />
    <glyph glyph-name="uni069B.fina" unicode="&#x69b;" horiz-adv-x="1118" 
d="M286 -231q-50 0 -94 13.5t-78 40t-53.5 66.5t-19.5 93q0 23 4.5 51t15.5 62.5t31 76.5l45 -20q-14 -30 -23.5 -58.5t-14.5 -54.5t-5 -51q0 -57 26.5 -94.5t71 -55.5t96.5 -18q66 0 107.5 19t64.5 49t32 66t9 70q0 40 -6 78.5t-16 77t-22 79.5l52 15q15 -57 22 -86.5
t14 -53.5q10 -35 22 -54t29 -26.5t42 -7.5q21 0 37.5 5.5t30 27t24 67.5t20.5 126l49 -9q-4 -29 -8.5 -55.5t-7.5 -48.5t-3 -39q0 -23 5.5 -40t24.5 -25.5t58 -8.5q45 0 68.5 25t23.5 73q0 23 -1 55t-3.5 67t-6.5 66l49 4q5 -86 10.5 -141.5t17.5 -88t35 -46t64 -14.5
q15 0 21 -7t6 -17t-8.5 -18.5t-25.5 -8.5q-38 0 -66 12.5t-46 36t-25 56.5l13 -3q-8 -36 -26.5 -58.5t-45 -33t-58.5 -10.5q-42 0 -67.5 11t-37.5 34t-15 59h20q-13 -39 -30 -61.5t-40.5 -32.5t-57.5 -10q-30 0 -49.5 8.5t-32 22t-18.5 30.5t-10 34l27 -39
q0 -56 -12.5 -106.5t-42.5 -90.5t-81.5 -62.5t-130.5 -22.5zM755 -276q-16 0 -27 11t-11 27q0 15 11 26.5t27 11.5q15 0 26 -11.5t11 -26.5q0 -16 -11 -27t-26 -11zM696 -179q-16 0 -27 11t-11 26t11 26.5t27 11.5q15 0 26 -11.5t11 -26.5t-11 -26t-26 -11zM813 -179
q-16 0 -27 11t-11 26t11 26.5t27 11.5q15 0 26 -11.5t11 -26.5t-11 -26t-26 -11z" />
    <glyph glyph-name="uni069D.init" unicode="&#x69d;" horiz-adv-x="833" 
d="M437 -17q-65 0 -117.5 6t-90.5 19t-60 35.5t-27 56.5l16 4q-19 -48 -42 -71t-51.5 -30.5t-64.5 -7.5l7 51q33 0 53.5 8t35.5 31t28 68t29 118l48 -13q-5 -20 -10.5 -43t-9.5 -43.5t-4 -35.5q0 -26 13 -45.5t43.5 -32t82 -18t127.5 -5.5q71 0 125.5 9.5t92 28t57 46.5
t19.5 65q0 31 -14 55t-39.5 38t-61.5 14q-45 0 -90 -24t-87 -63t-78 -84t-63 -87l-52 6q39 63 83 118t92 97t97.5 65.5t100.5 23.5q48 0 84 -19t56.5 -53.5t20.5 -81.5q0 -61 -36 -107.5t-113 -72.5t-200 -26zM503 -193q-15 0 -26.5 11t-11.5 26t11 26.5t27 11.5t26.5 -11.5
t10.5 -26.5t-10.5 -26t-26.5 -11zM386 -193q-16 0 -27 11t-11 26t11 26.5t27 11.5q15 0 26 -11.5t11 -26.5t-11 -26t-26 -11z" />
    <glyph glyph-name="uni069D.medi" unicode="&#x69d;" horiz-adv-x="875" 
d="M875 -5q-27 0 -61.5 5.5t-68 18.5t-58.5 36l47 25q35 -18 73.5 -26t74.5 -8q14 0 20 -7t6 -17t-8 -18.5t-25 -8.5zM437 -17q-65 0 -117.5 6t-90.5 19t-60 35.5t-27 56.5l16 4q-19 -48 -42 -71t-51.5 -30.5t-64.5 -7.5l7 51q33 0 53.5 8t35.5 31t28 68t29 118l48 -13
q-5 -20 -10.5 -43t-9.5 -43.5t-4 -35.5q0 -26 13 -45.5t43.5 -32t82 -18t127.5 -5.5q71 0 125.5 9.5t92 28t57 46.5t19.5 65q0 31 -14 55t-39.5 38t-61.5 14q-45 0 -90 -24t-87 -63t-78 -84t-63 -87l-52 6q39 63 83 118t92 97t97.5 65.5t100.5 23.5q48 0 84 -19t56.5 -53.5
t20.5 -81.5q0 -61 -36 -107.5t-113 -72.5t-200 -26zM503 -193q-15 0 -26.5 11t-11.5 26t11 26.5t27 11.5t26.5 -11.5t10.5 -26.5t-10.5 -26t-26.5 -11zM386 -193q-16 0 -27 11t-11 26t11 26.5t27 11.5q15 0 26 -11.5t11 -26.5t-11 -26t-26 -11z" />
    <glyph glyph-name="uni069D.fina" unicode="&#x69d;" horiz-adv-x="1244" 
d="M1244 -5q-28 0 -62 5.5t-68 18.5t-59 36l47 25q35 -18 73.5 -26t74.5 -8q15 0 21 -7t6 -17t-8.5 -18.5t-24.5 -8.5zM285 -231q-52 0 -96 14t-77 41.5t-52 67.5t-19 92q0 23 4.5 50.5t15.5 61.5t31 76l45 -20q-14 -30 -23.5 -58.5t-14.5 -54.5t-5 -50q0 -55 25 -93t69 -57
t99 -19q65 0 106.5 18.5t65 48.5t33 68t9.5 78q0 54 -13.5 110.5t-29.5 115.5l51 15q10 -38 16 -63t10 -41.5t8 -28.5q9 -25 26.5 -44t48 -32t77 -19.5t112.5 -6.5q45 0 88.5 4.5t81 15t66 28t44.5 42.5t16 59q0 28 -12 52.5t-37.5 40t-64.5 15.5q-43 0 -85.5 -21.5
t-83.5 -58t-79 -82.5t-71 -97l-51 7q29 47 62.5 91.5t70.5 83t76.5 67.5t80.5 45.5t83 16.5q52 0 87.5 -21t54 -56t18.5 -79q0 -52 -25 -90.5t-72 -64t-111 -38t-142 -12.5q-71 0 -120 8.5t-80.5 23t-49.5 33t-27 37.5l27 -30q1 -58 -11 -110.5t-42 -93t-82 -63.5t-132 -23z
M885 -189q-15 0 -26.5 11t-11.5 26t11 26.5t27 11.5t26.5 -11.5t10.5 -26.5t-10.5 -26t-26.5 -11zM768 -189q-16 0 -27 11t-11 26t11 26.5t27 11.5q15 0 26 -11.5t11 -26.5t-11 -26t-26 -11z" />
    <glyph glyph-name="uni069E.init" unicode="&#x69e;" horiz-adv-x="833" 
d="M437 -17q-65 0 -117.5 6t-90.5 19t-60 35.5t-27 56.5l16 4q-19 -48 -42 -71t-51.5 -30.5t-64.5 -7.5l7 51q33 0 53.5 8t35.5 31t28 68t29 118l48 -13q-5 -20 -10.5 -43t-9.5 -43.5t-4 -35.5q0 -26 13 -45.5t43.5 -32t82 -18t127.5 -5.5q71 0 125.5 9.5t92 28t57 46.5
t19.5 65q0 31 -14 55t-39.5 38t-61.5 14q-45 0 -90 -24t-87 -63t-78 -84t-63 -87l-52 6q39 63 83 118t92 97t97.5 65.5t100.5 23.5q48 0 84 -19t56.5 -53.5t20.5 -81.5q0 -61 -36 -107.5t-113 -72.5t-200 -26zM597 559q-15 0 -26 11t-11 26t11 26.5t26 11.5q16 0 27 -11.5
t11 -26.5t-11 -26t-27 -11zM539 462q-15 0 -26 11t-11 26q0 16 11 27t26 11t26.5 -11t11.5 -26q0 -16 -11.5 -27t-26.5 -11zM656 462q-15 0 -26 11t-11 26q0 16 11 27t26 11q16 0 27 -11t11 -26q0 -16 -11 -27t-27 -11z" />
    <glyph glyph-name="uni069E.medi" unicode="&#x69e;" horiz-adv-x="875" 
d="M875 -5q-27 0 -61.5 5.5t-68 18.5t-58.5 36l47 25q35 -18 73.5 -26t74.5 -8q14 0 20 -7t6 -17t-8 -18.5t-25 -8.5zM437 -17q-65 0 -117.5 6t-90.5 19t-60 35.5t-27 56.5l16 4q-19 -48 -42 -71t-51.5 -30.5t-64.5 -7.5l7 51q33 0 53.5 8t35.5 31t28 68t29 118l48 -13
q-5 -20 -10.5 -43t-9.5 -43.5t-4 -35.5q0 -26 13 -45.5t43.5 -32t82 -18t127.5 -5.5q71 0 125.5 9.5t92 28t57 46.5t19.5 65q0 31 -14 55t-39.5 38t-61.5 14q-45 0 -90 -24t-87 -63t-78 -84t-63 -87l-52 6q39 63 83 118t92 97t97.5 65.5t100.5 23.5q48 0 84 -19t56.5 -53.5
t20.5 -81.5q0 -61 -36 -107.5t-113 -72.5t-200 -26zM597 559q-15 0 -26 11t-11 26t11 26.5t26 11.5q16 0 27 -11.5t11 -26.5t-11 -26t-27 -11zM539 462q-15 0 -26 11t-11 26q0 16 11 27t26 11t26.5 -11t11.5 -26q0 -16 -11.5 -27t-26.5 -11zM656 462q-15 0 -26 11t-11 26
q0 16 11 27t26 11q16 0 27 -11t11 -26q0 -16 -11 -27t-27 -11z" />
    <glyph glyph-name="uni069E.fina" unicode="&#x69e;" horiz-adv-x="1244" 
d="M1244 -5q-28 0 -62 5.5t-68 18.5t-59 36l47 25q35 -18 73.5 -26t74.5 -8q15 0 21 -7t6 -17t-8.5 -18.5t-24.5 -8.5zM285 -231q-52 0 -96 14t-77 41.5t-52 67.5t-19 92q0 23 4.5 50.5t15.5 61.5t31 76l45 -20q-14 -30 -23.5 -58.5t-14.5 -54.5t-5 -50q0 -55 25 -93t69 -57
t99 -19q65 0 106.5 18.5t65 48.5t33 68t9.5 78q0 54 -13.5 110.5t-29.5 115.5l51 15q10 -38 16 -63t10 -41.5t8 -28.5q9 -25 26.5 -44t48 -32t77 -19.5t112.5 -6.5q45 0 88.5 4.5t81 15t66 28t44.5 42.5t16 59q0 28 -12 52.5t-37.5 40t-64.5 15.5q-43 0 -85.5 -21.5
t-83.5 -58t-79 -82.5t-71 -97l-51 7q29 47 62.5 91.5t70.5 83t76.5 67.5t80.5 45.5t83 16.5q52 0 87.5 -21t54 -56t18.5 -79q0 -52 -25 -90.5t-72 -64t-111 -38t-142 -12.5q-71 0 -120 8.5t-80.5 23t-49.5 33t-27 37.5l27 -30q1 -58 -11 -110.5t-42 -93t-82 -63.5t-132 -23z
M963 564q-15 0 -26 11t-11 26t11 26.5t26 11.5q16 0 27 -11.5t11 -26.5t-11 -26t-27 -11zM905 467q-15 0 -26 11t-11 26q0 16 11 27t26 11t26.5 -11t11.5 -26q0 -16 -11.5 -27t-26.5 -11zM1022 467q-15 0 -26 11t-11 26q0 16 11 27t26 11q16 0 27 -11t11 -26q0 -16 -11 -27
t-27 -11z" />
    <glyph glyph-name="uni069F.init" unicode="&#x69f;" horiz-adv-x="633" 
d="M0 -5l7 51h231q71 0 126 8.5t93.5 26t58.5 45t20 64.5q0 26 -12 49.5t-37.5 39t-65.5 15.5q-46 0 -91.5 -25t-87.5 -65t-77.5 -84.5t-61.5 -84.5l-57 -4q37 60 80 116t91.5 101t101 71.5t106.5 26.5q52 0 87.5 -21t54.5 -56t19 -78q0 -53 -34 -98t-110 -69
q-38 -13 -86 -19t-107 -8t-129 -2h-120zM96 82l-20 628h52l19 -574zM382 562q-15 0 -26 11t-11 26t11 26.5t26 11.5q16 0 27 -11.5t11 -26.5t-11 -26t-27 -11zM324 465q-15 0 -26 11t-11 26q0 16 11 27t26 11t26.5 -11t11.5 -26q0 -16 -11.5 -27t-26.5 -11zM441 465
q-15 0 -26 11t-11 26q0 16 11 27t26 11q16 0 27 -11t11 -26q0 -16 -11 -27t-27 -11z" />
    <glyph glyph-name="uni069F.medi" unicode="&#x69f;" horiz-adv-x="660" 
d="M660 -5q-27 0 -61.5 5.5t-68 18.5t-59.5 36l47 25q36 -18 74.5 -26t74.5 -8q14 0 20 -7t6 -17t-8.5 -18.5t-24.5 -8.5zM0 -5l7 51h231q71 0 126 8.5t93.5 26t58.5 45t20 64.5q0 26 -12 49.5t-37.5 39t-65.5 15.5q-46 0 -91.5 -25t-87.5 -65t-77.5 -84.5t-61.5 -84.5
l-57 -4q37 60 80 116t91.5 101t101 71.5t106.5 26.5q52 0 87.5 -21t54.5 -56t19 -78q0 -53 -34 -98t-110 -69q-38 -13 -86 -19t-107 -8t-129 -2h-120zM96 82l-20 628h52l19 -574zM382 562q-15 0 -26 11t-11 26t11 26.5t26 11.5q16 0 27 -11.5t11 -26.5t-11 -26t-27 -11z
M324 465q-15 0 -26 11t-11 26q0 16 11 27t26 11t26.5 -11t11.5 -26q0 -16 -11.5 -27t-26.5 -11zM441 465q-15 0 -26 11t-11 26q0 16 11 27t26 11q16 0 27 -11t11 -26q0 -16 -11 -27t-27 -11z" />
    <glyph glyph-name="uni069F.fina" unicode="&#x69f;" horiz-adv-x="774" 
d="M774 -5q-27 0 -61.5 5.5t-68 18.5t-59.5 36l48 25q35 -18 73.5 -26t74.5 -8q14 0 20 -7t6 -17t-8.5 -18.5t-24.5 -8.5zM336 -13q-44 0 -89 2t-86.5 4.5t-76 6t-57.5 6.5l6 50q28 -4 63.5 -7t77 -5.5t85 -3.5t87.5 -1q65 0 119 8t93.5 26.5t61.5 47t22 68.5q0 28 -13 52.5
t-38.5 39.5t-63.5 15q-46 0 -91 -24t-86.5 -63t-77.5 -84.5t-64 -87.5l-57 -4q39 64 83.5 121t93 100.5t99.5 68.5t103 25q50 0 86.5 -20.5t55.5 -55.5t19 -80q0 -66 -40 -111.5t-119.5 -69.5t-195.5 -24zM204 86l-20 624h51l20 -573zM487 564q-15 0 -26 11t-11 26t11 26.5
t26 11.5q16 0 27 -11.5t11 -26.5t-11 -26t-27 -11zM429 467q-15 0 -26 11t-11 26q0 16 11 27t26 11t26.5 -11t11.5 -26q0 -16 -11.5 -27t-26.5 -11zM546 467q-15 0 -26 11t-11 26q0 16 11 27t26 11q16 0 27 -11t11 -26q0 -16 -11 -27t-27 -11z" />
    <glyph glyph-name="uni06A0.init" unicode="&#x6a0;" horiz-adv-x="437" 
d="M0 -5l7 51q50 0 85 2t61 5.5t49 7.5q-33 13 -64 37.5t-51 61t-20 82.5q0 52 23.5 92.5t66 63.5t98.5 23q22 0 44 -4t43 -11l-10 -47q-19 5 -39 8t-38 3q-39 0 -70 -16t-49.5 -44.5t-18.5 -67.5q0 -31 12.5 -56t32.5 -44t43.5 -31.5t45.5 -19.5t37 -9q15 4 24.5 6.5
t19.5 6t25 9.5t39 16l17 -46q-62 -25 -124 -43t-132 -27t-157 -9zM242 639q-15 0 -26 11t-11 26t11 26.5t26 11.5q16 0 27 -11.5t11 -26.5t-11 -26t-27 -11zM184 542q-15 0 -26 11t-11 26q0 16 11 27t26 11t26.5 -11t11.5 -26q0 -16 -11.5 -27t-26.5 -11zM301 542
q-15 0 -26 11t-11 26q0 16 11 27t26 11q16 0 27 -11t11 -26q0 -16 -11 -27t-27 -11z" />
    <glyph glyph-name="uni06A0.medi" unicode="&#x6a0;" horiz-adv-x="461" 
d="M0 -5l7 51q52 0 101 14.5t91 39t73.5 55t49 63t17.5 62.5q0 16 -9.5 31t-31 25t-56.5 10q-31 0 -60 -9t-51 -22.5t-33 -26.5q25 -24 50 -51.5t50 -57t48 -62.5q23 -21 48 -34.5t52.5 -21.5t57.5 -11.5t64 -3.5q13 0 19.5 -6.5t6.5 -17.5t-9 -19t-24 -8q-50 0 -95.5 8.5
t-85 28.5t-72.5 54q-21 32 -45.5 62.5t-49.5 57t-46 44.5q-3 3 -6.5 10.5t-5.5 15.5t-2 13q0 14 16.5 33t44 36t62.5 28.5t72 11.5q45 0 76.5 -13.5t48.5 -37t17 -56.5q0 -40 -20 -82t-57 -80t-86 -68.5t-106.5 -48t-120.5 -17.5zM239 614q-15 0 -26 11t-11 26t11 26.5
t26 11.5q16 0 27 -11.5t11 -26.5t-11 -26t-27 -11zM181 517q-15 0 -26 11t-11 26q0 16 11 27t26 11t26.5 -11t11.5 -26q0 -16 -11.5 -27t-26.5 -11zM298 517q-15 0 -26 11t-11 26q0 16 11 27t26 11q16 0 27 -11t11 -26q0 -16 -11 -27t-27 -11z" />
    <glyph glyph-name="uni06A0.fina" unicode="&#x6a0;" horiz-adv-x="474" 
d="M282 -390q-40 0 -86.5 8.5t-88 31.5t-67 65t-25.5 108q0 60 24 107.5t62 86t81 71t81 62.5t62.5 61.5t24.5 67.5q0 14 -8.5 29.5t-29 26.5t-57.5 11q-29 0 -57.5 -8.5t-51 -22t-34.5 -27.5q25 -23 48.5 -49.5t47.5 -55.5t48 -61q24 -23 48 -37.5t50.5 -23t57.5 -12
t69 -3.5q13 0 20 -6t7 -18q0 -11 -9 -19t-25 -8q-59 0 -105 9.5t-83 31t-70 56.5q-17 26 -40 55t-47.5 56.5t-47.5 46.5q-3 4 -6 11t-5 15t-2 12q0 16 16 34.5t44 35.5t62.5 28.5t71.5 11.5q68 0 103 -31t35 -77t-24 -84.5t-62 -72t-81 -66t-81 -68t-62 -76.5t-24 -93
q0 -46 18 -78.5t49 -52t70 -29t80 -9.5q33 0 65 4t65 12.5t65 22.5l17 -41q-31 -16 -67.5 -27t-73.5 -16.5t-72 -5.5zM264 614q-15 0 -26 11t-11 26t11 26.5t26 11.5q16 0 27 -11.5t11 -26.5t-11 -26t-27 -11zM206 517q-15 0 -26 11t-11 26q0 16 11 27t26 11t26.5 -11
t11.5 -26q0 -16 -11.5 -27t-26.5 -11zM323 517q-15 0 -26 11t-11 26q0 16 11 27t26 11q16 0 27 -11t11 -26q0 -16 -11 -27t-27 -11z" />
    <glyph glyph-name="uni06A1.init" unicode="&#x6a1;" horiz-adv-x="413" 
d="M0 -5l7 51q32 0 64.5 1t63.5 4t57 9t45 16q24 11 42 31t27.5 54.5t9.5 89.5q0 47 -11.5 90t-33.5 70.5t-55 27.5q-25 0 -47 -21.5t-35 -55.5t-13 -70q0 -33 13 -51.5t36.5 -26t52.5 -7.5q28 0 57.5 6t49.5 17l4 -45q-15 -10 -35.5 -16.5t-41.5 -9t-40 -2.5q-45 0 -78 14
t-51 42t-18 69q0 36 11 73t31 68t48 49.5t62 18.5q47 0 79 -34.5t48.5 -90.5t16.5 -121q0 -67 -20 -118.5t-72 -85.5q-20 -13 -47.5 -21.5t-62 -14t-75.5 -8t-89 -2.5z" />
    <glyph glyph-name="uni06A1.medi" unicode="&#x6a1;" horiz-adv-x="446" 
d="M0 -5l7 51q25 0 50 2t50 6t48 10t43 14q35 16 62.5 36.5t44 48t16.5 63.5q0 27 -11 56t-32.5 49.5t-50.5 20.5q-25 0 -48.5 -18t-38 -47.5t-14.5 -63.5q0 -37 16.5 -65t42.5 -48t54 -32l-59 -20q-21 13 -45.5 34.5t-42 54t-17.5 77.5q0 37 12.5 69t34 57t49 39t57.5 14
q43 0 75.5 -25t51 -64t18.5 -84q0 -35 -11.5 -64.5t-32 -53.5t-48 -42.5t-59.5 -32.5q-24 -11 -50.5 -19t-55.5 -13t-58 -7.5t-58 -2.5zM446 -5q-40 0 -86.5 6.5t-89.5 18t-71 25.5l46 30q25 -6 58.5 -13t72 -11.5t77.5 -4.5q14 0 20 -6.5t6 -17.5q0 -10 -8.5 -18.5
t-24.5 -8.5z" />
    <glyph glyph-name="uni06A1.fina" unicode="&#x6a1;" horiz-adv-x="999" 
d="M359 -21l23 51q52 0 105 3.5t102.5 9.5t91 14.5t70.5 21.5q38 15 66 35.5t44 47.5t16 61q0 20 -6.5 42.5t-18.5 42t-29.5 32t-40.5 12.5q-26 0 -49 -19t-37.5 -49.5t-14.5 -65.5q0 -34 16.5 -61t42 -46t53.5 -32l-59 -21q-21 13 -45 34t-41.5 52.5t-17.5 73.5
q0 37 12.5 70.5t33.5 59t49 40.5t58 15q43 0 75.5 -25.5t51 -66t18.5 -85.5q0 -34 -11 -61.5t-31 -51t-47.5 -42t-60.5 -32.5q-32 -16 -79 -27.5t-103.5 -18.5t-116.5 -10.5t-120 -3.5zM999 -5q-44 0 -88 6t-84.5 17.5t-72.5 26.5l47 29q23 -6 55 -12.5t70 -11t80 -4.5
q14 0 20.5 -6.5t6.5 -17.5q0 -10 -9 -18.5t-25 -8.5zM360 -21q-75 0 -134.5 11t-101.5 34t-64 60t-22 88q0 24 4 50t10 52t13 49l47 -13q-5 -16 -10 -37.5t-8.5 -44.5t-3.5 -44q0 -54 30 -88t94.5 -50t167.5 -16l20 -30z" />
    <glyph glyph-name="fehDotMovedbelowar.init" unicode="&#x6a2;" horiz-adv-x="413" 
d="M0 -5l7 51q32 0 64.5 1t63.5 4t57 9t45 16q24 11 42 31t27.5 54.5t9.5 89.5q0 47 -11.5 90t-33.5 70.5t-55 27.5q-25 0 -47 -21.5t-35 -55.5t-13 -70q0 -33 13 -51.5t36.5 -26t52.5 -7.5q28 0 57.5 6t49.5 17l4 -45q-15 -10 -35.5 -16.5t-41.5 -9t-40 -2.5q-45 0 -78 14
t-51 42t-18 69q0 36 11 73t31 68t48 49.5t62 18.5q47 0 79 -34.5t48.5 -90.5t16.5 -121q0 -67 -20 -118.5t-72 -85.5q-20 -13 -47.5 -21.5t-62 -14t-75.5 -8t-89 -2.5zM191 -187q-16 0 -27 10.5t-11 26.5q0 15 11 26.5t27 11.5q15 0 26 -11.5t11 -26.5q0 -16 -11 -26.5
t-26 -10.5z" />
    <glyph glyph-name="fehDotMovedbelowar.medi" unicode="&#x6a2;" horiz-adv-x="446" 
d="M0 -5l7 51q25 0 50 2t50 6t48 10t43 14q35 16 62.5 36.5t44 48t16.5 63.5q0 27 -11 56t-32.5 49.5t-50.5 20.5q-25 0 -48.5 -18t-38 -47.5t-14.5 -63.5q0 -37 16.5 -65t42.5 -48t54 -32l-59 -20q-21 13 -45.5 34.5t-42 54t-17.5 77.5q0 37 12.5 69t34 57t49 39t57.5 14
q43 0 75.5 -25t51 -64t18.5 -84q0 -35 -11.5 -64.5t-32 -53.5t-48 -42.5t-59.5 -32.5q-24 -11 -50.5 -19t-55.5 -13t-58 -7.5t-58 -2.5zM446 -5q-40 0 -86.5 6.5t-89.5 18t-71 25.5l46 30q25 -6 58.5 -13t72 -11.5t77.5 -4.5q14 0 20 -6.5t6 -17.5q0 -10 -8.5 -18.5
t-24.5 -8.5zM215 -187q-16 0 -27 10.5t-11 26.5q0 15 11 26.5t27 11.5q15 0 26 -11.5t11 -26.5q0 -16 -11 -26.5t-26 -10.5z" />
    <glyph glyph-name="fehDotMovedbelowar.fina" unicode="&#x6a2;" horiz-adv-x="999" 
d="M359 -21l23 51q52 0 105 3.5t102.5 9.5t91 14.5t70.5 21.5q38 15 66 35.5t44 47.5t16 61q0 20 -6.5 42.5t-18.5 42t-29.5 32t-40.5 12.5q-26 0 -49 -19t-37.5 -49.5t-14.5 -65.5q0 -34 16.5 -61t42 -46t53.5 -32l-59 -21q-21 13 -45 34t-41.5 52.5t-17.5 73.5
q0 37 12.5 70.5t33.5 59t49 40.5t58 15q43 0 75.5 -25.5t51 -66t18.5 -85.5q0 -34 -11 -61.5t-31 -51t-47.5 -42t-60.5 -32.5q-32 -16 -79 -27.5t-103.5 -18.5t-116.5 -10.5t-120 -3.5zM999 -5q-44 0 -88 6t-84.5 17.5t-72.5 26.5l47 29q23 -6 55 -12.5t70 -11t80 -4.5
q14 0 20.5 -6.5t6.5 -17.5q0 -10 -9 -18.5t-25 -8.5zM360 -21q-75 0 -134.5 11t-101.5 34t-64 60t-22 88q0 24 4 50t10 52t13 49l47 -13q-5 -16 -10 -37.5t-8.5 -44.5t-3.5 -44q0 -54 30 -88t94.5 -50t167.5 -16l20 -30zM417 -200q-16 0 -27 10.5t-11 26.5q0 15 11 26.5
t27 11.5q15 0 26 -11.5t11 -26.5q0 -16 -11 -26.5t-26 -10.5z" />
    <glyph glyph-name="uni06A3.init" unicode="&#x6a3;" horiz-adv-x="413" 
d="M0 -5l7 51q32 0 64.5 1t63.5 4t57 9t45 16q24 11 42 31t27.5 54.5t9.5 89.5q0 47 -11.5 90t-33.5 70.5t-55 27.5q-25 0 -47 -21.5t-35 -55.5t-13 -70q0 -33 13 -51.5t36.5 -26t52.5 -7.5q28 0 57.5 6t49.5 17l4 -45q-15 -10 -35.5 -16.5t-41.5 -9t-40 -2.5q-45 0 -78 14
t-51 42t-18 69q0 36 11 73t31 68t48 49.5t62 18.5q47 0 79 -34.5t48.5 -90.5t16.5 -121q0 -67 -20 -118.5t-72 -85.5q-20 -13 -47.5 -21.5t-62 -14t-75.5 -8t-89 -2.5zM209 610q-16 0 -27 11t-11 26t11 26.5t27 11.5q15 0 26 -11.5t11 -26.5t-11 -26t-26 -11zM191 -187
q-16 0 -27 10.5t-11 26.5q0 15 11 26.5t27 11.5q15 0 26 -11.5t11 -26.5q0 -16 -11 -26.5t-26 -10.5z" />
    <glyph glyph-name="uni06A3.medi" unicode="&#x6a3;" horiz-adv-x="446" 
d="M0 -5l7 51q25 0 50 2t50 6t48 10t43 14q35 16 62.5 36.5t44 48t16.5 63.5q0 27 -11 56t-32.5 49.5t-50.5 20.5q-25 0 -48.5 -18t-38 -47.5t-14.5 -63.5q0 -37 16.5 -65t42.5 -48t54 -32l-59 -20q-21 13 -45.5 34.5t-42 54t-17.5 77.5q0 37 12.5 69t34 57t49 39t57.5 14
q43 0 75.5 -25t51 -64t18.5 -84q0 -35 -11.5 -64.5t-32 -53.5t-48 -42.5t-59.5 -32.5q-24 -11 -50.5 -19t-55.5 -13t-58 -7.5t-58 -2.5zM446 -5q-40 0 -86.5 6.5t-89.5 18t-71 25.5l46 30q25 -6 58.5 -13t72 -11.5t77.5 -4.5q14 0 20 -6.5t6 -17.5q0 -10 -8.5 -18.5
t-24.5 -8.5zM219 522q-16 0 -27 11t-11 26t11 26.5t27 11.5q15 0 26 -11.5t11 -26.5t-11 -26t-26 -11zM215 -187q-16 0 -27 10.5t-11 26.5q0 15 11 26.5t27 11.5q15 0 26 -11.5t11 -26.5q0 -16 -11 -26.5t-26 -10.5z" />
    <glyph glyph-name="uni06A3.fina" unicode="&#x6a3;" horiz-adv-x="999" 
d="M359 -21l23 51q52 0 105 3.5t102.5 9.5t91 14.5t70.5 21.5q38 15 66 35.5t44 47.5t16 61q0 20 -6.5 42.5t-18.5 42t-29.5 32t-40.5 12.5q-26 0 -49 -19t-37.5 -49.5t-14.5 -65.5q0 -34 16.5 -61t42 -46t53.5 -32l-59 -21q-21 13 -45 34t-41.5 52.5t-17.5 73.5
q0 37 12.5 70.5t33.5 59t49 40.5t58 15q43 0 75.5 -25.5t51 -66t18.5 -85.5q0 -34 -11 -61.5t-31 -51t-47.5 -42t-60.5 -32.5q-32 -16 -79 -27.5t-103.5 -18.5t-116.5 -10.5t-120 -3.5zM999 -5q-44 0 -88 6t-84.5 17.5t-72.5 26.5l47 29q23 -6 55 -12.5t70 -11t80 -4.5
q14 0 20.5 -6.5t6.5 -17.5q0 -10 -9 -18.5t-25 -8.5zM360 -21q-75 0 -134.5 11t-101.5 34t-64 60t-22 88q0 24 4 50t10 52t13 49l47 -13q-5 -16 -10 -37.5t-8.5 -44.5t-3.5 -44q0 -54 30 -88t94.5 -50t167.5 -16l20 -30zM779 522q-16 0 -27 11t-11 26t11 26.5t27 11.5
q15 0 26 -11.5t11 -26.5t-11 -26t-26 -11zM417 -200q-16 0 -27 10.5t-11 26.5q0 15 11 26.5t27 11.5q15 0 26 -11.5t11 -26.5q0 -16 -11 -26.5t-26 -10.5z" />
    <glyph glyph-name="uni06A5.init" unicode="&#x6a5;" horiz-adv-x="413" 
d="M0 -5l7 51q32 0 64.5 1t63.5 4t57 9t45 16q24 11 42 31t27.5 54.5t9.5 89.5q0 47 -11.5 90t-33.5 70.5t-55 27.5q-25 0 -47 -21.5t-35 -55.5t-13 -70q0 -33 13 -51.5t36.5 -26t52.5 -7.5q28 0 57.5 6t49.5 17l4 -45q-15 -10 -35.5 -16.5t-41.5 -9t-40 -2.5q-45 0 -78 14
t-51 42t-18 69q0 36 11 73t31 68t48 49.5t62 18.5q47 0 79 -34.5t48.5 -90.5t16.5 -121q0 -67 -20 -118.5t-72 -85.5q-20 -13 -47.5 -21.5t-62 -14t-75.5 -8t-89 -2.5zM191 -285q-16 0 -27 11t-11 27q0 15 11 26.5t27 11.5q15 0 26 -11.5t11 -26.5q0 -16 -11 -27t-26 -11z
M132 -188q-16 0 -27 11t-11 26t11 26.5t27 11.5q15 0 26 -11.5t11 -26.5t-11 -26t-26 -11zM249 -188q-16 0 -27 11t-11 26t11 26.5t27 11.5q15 0 26 -11.5t11 -26.5t-11 -26t-26 -11z" />
    <glyph glyph-name="uni06A5.medi" unicode="&#x6a5;" horiz-adv-x="446" 
d="M0 -5l7 51q25 0 50 2t50 6t48 10t43 14q35 16 62.5 36.5t44 48t16.5 63.5q0 27 -11 56t-32.5 49.5t-50.5 20.5q-25 0 -48.5 -18t-38 -47.5t-14.5 -63.5q0 -37 16.5 -65t42.5 -48t54 -32l-59 -20q-21 13 -45.5 34.5t-42 54t-17.5 77.5q0 37 12.5 69t34 57t49 39t57.5 14
q43 0 75.5 -25t51 -64t18.5 -84q0 -35 -11.5 -64.5t-32 -53.5t-48 -42.5t-59.5 -32.5q-24 -11 -50.5 -19t-55.5 -13t-58 -7.5t-58 -2.5zM446 -5q-40 0 -86.5 6.5t-89.5 18t-71 25.5l46 30q25 -6 58.5 -13t72 -11.5t77.5 -4.5q14 0 20 -6.5t6 -17.5q0 -10 -8.5 -18.5
t-24.5 -8.5zM215 -286q-16 0 -27 11t-11 27q0 15 11 26.5t27 11.5q15 0 26 -11.5t11 -26.5q0 -16 -11 -27t-26 -11zM156 -189q-16 0 -27 11t-11 26t11 26.5t27 11.5q15 0 26 -11.5t11 -26.5t-11 -26t-26 -11zM273 -189q-16 0 -27 11t-11 26t11 26.5t27 11.5q15 0 26 -11.5
t11 -26.5t-11 -26t-26 -11z" />
    <glyph glyph-name="uni06A5.fina" unicode="&#x6a5;" horiz-adv-x="999" 
d="M359 -21l23 51q52 0 105 3.5t102.5 9.5t91 14.5t70.5 21.5q38 15 66 35.5t44 47.5t16 61q0 20 -6.5 42.5t-18.5 42t-29.5 32t-40.5 12.5q-26 0 -49 -19t-37.5 -49.5t-14.5 -65.5q0 -34 16.5 -61t42 -46t53.5 -32l-59 -21q-21 13 -45 34t-41.5 52.5t-17.5 73.5
q0 37 12.5 70.5t33.5 59t49 40.5t58 15q43 0 75.5 -25.5t51 -66t18.5 -85.5q0 -34 -11 -61.5t-31 -51t-47.5 -42t-60.5 -32.5q-32 -16 -79 -27.5t-103.5 -18.5t-116.5 -10.5t-120 -3.5zM999 -5q-44 0 -88 6t-84.5 17.5t-72.5 26.5l47 29q23 -6 55 -12.5t70 -11t80 -4.5
q14 0 20.5 -6.5t6.5 -17.5q0 -10 -9 -18.5t-25 -8.5zM360 -21q-75 0 -134.5 11t-101.5 34t-64 60t-22 88q0 24 4 50t10 52t13 49l47 -13q-5 -16 -10 -37.5t-8.5 -44.5t-3.5 -44q0 -54 30 -88t94.5 -50t167.5 -16l20 -30zM416 -298q-16 0 -27 11t-11 27q0 15 11 26.5t27 11.5
q15 0 26 -11.5t11 -26.5q0 -16 -11 -27t-26 -11zM357 -201q-16 0 -27 11t-11 26t11 26.5t27 11.5q15 0 26 -11.5t11 -26.5t-11 -26t-26 -11zM474 -201q-16 0 -27 11t-11 26t11 26.5t27 11.5q15 0 26 -11.5t11 -26.5t-11 -26t-26 -11z" />
    <glyph glyph-name="uni06A7.fina" unicode="&#x6a7;" horiz-adv-x="768" 
d="M316 -272q-59 0 -109 13.5t-88 41.5t-59.5 72t-21.5 106q0 13 3.5 41.5t15.5 69t38 87.5l45 -21q-14 -27 -25 -54.5t-17.5 -56t-6.5 -58.5q0 -71 31.5 -112t85.5 -59t119 -18q37 0 75.5 5t74 17t65.5 31.5t52 48.5t32 69q9 25 13 56.5t4 59.5q0 59 -12.5 105t-34.5 72
t-51 26q-20 0 -37.5 -13.5t-30.5 -35t-20.5 -47.5t-7.5 -52q0 -24 9.5 -39.5t26.5 -23.5t41 -10.5t53 -2.5h196q14 0 20 -6.5t6 -17.5t-8.5 -19t-24.5 -8h-205q-33 0 -62.5 6t-52.5 19.5t-36.5 36.5t-13.5 57q0 35 11 71.5t31 67.5t48.5 50t62.5 19q44 0 76 -32t50 -90.5
t18 -136.5q0 -35 -7 -73.5t-21 -71.5q-20 -57 -57 -94t-85.5 -58t-102 -29.5t-106.5 -8.5zM547 441q-16 0 -27 11t-11 26t11 26.5t27 11.5q15 0 26 -11.5t11 -26.5t-11 -26t-26 -11z" />
    <glyph glyph-name="uni06A8.init" unicode="&#x6a8;" horiz-adv-x="413" 
d="M0 -5l7 51q32 0 64.5 1t63.5 4t57 9t45 16q24 11 42 31t27.5 54.5t9.5 89.5q0 47 -11.5 90t-33.5 70.5t-55 27.5q-25 0 -47 -21.5t-35 -55.5t-13 -70q0 -33 13 -51.5t36.5 -26t52.5 -7.5q28 0 57.5 6t49.5 17l4 -45q-15 -10 -35.5 -16.5t-41.5 -9t-40 -2.5q-45 0 -78 14
t-51 42t-18 69q0 36 11 73t31 68t48 49.5t62 18.5q47 0 79 -34.5t48.5 -90.5t16.5 -121q0 -67 -20 -118.5t-72 -85.5q-20 -13 -47.5 -21.5t-62 -14t-75.5 -8t-89 -2.5zM210 707q-15 0 -26 11t-11 26t11 26.5t26 11.5q16 0 27 -11.5t11 -26.5t-11 -26t-27 -11zM152 610
q-15 0 -26 11t-11 26q0 16 11 27t26 11t26.5 -11t11.5 -26q0 -16 -11.5 -27t-26.5 -11zM269 610q-15 0 -26 11t-11 26q0 16 11 27t26 11q16 0 27 -11t11 -26q0 -16 -11 -27t-27 -11z" />
    <glyph glyph-name="uni06A8.medi" unicode="&#x6a8;" horiz-adv-x="446" 
d="M0 -5l7 51q25 0 50 2t50 6t48 10t43 14q35 16 62.5 36.5t44 48t16.5 63.5q0 27 -11 56t-32.5 49.5t-50.5 20.5q-25 0 -48.5 -18t-38 -47.5t-14.5 -63.5q0 -37 16.5 -65t42.5 -48t54 -32l-59 -20q-21 13 -45.5 34.5t-42 54t-17.5 77.5q0 37 12.5 69t34 57t49 39t57.5 14
q43 0 75.5 -25t51 -64t18.5 -84q0 -35 -11.5 -64.5t-32 -53.5t-48 -42.5t-59.5 -32.5q-24 -11 -50.5 -19t-55.5 -13t-58 -7.5t-58 -2.5zM446 -5q-40 0 -86.5 6.5t-89.5 18t-71 25.5l46 30q25 -6 58.5 -13t72 -11.5t77.5 -4.5q14 0 20 -6.5t6 -17.5q0 -10 -8.5 -18.5
t-24.5 -8.5zM220 619q-15 0 -26 11t-11 26t11 26.5t26 11.5q16 0 27 -11.5t11 -26.5t-11 -26t-27 -11zM162 522q-15 0 -26 11t-11 26q0 16 11 27t26 11t26.5 -11t11.5 -26q0 -16 -11.5 -27t-26.5 -11zM279 522q-15 0 -26 11t-11 26q0 16 11 27t26 11q16 0 27 -11t11 -26
q0 -16 -11 -27t-27 -11z" />
    <glyph glyph-name="uni06A8.fina" unicode="&#x6a8;" horiz-adv-x="768" 
d="M316 -272q-59 0 -109 13.5t-88 41.5t-59.5 72t-21.5 106q0 13 3.5 41.5t15.5 69t38 87.5l45 -21q-14 -27 -25 -54.5t-17.5 -56t-6.5 -58.5q0 -71 31.5 -112t85.5 -59t119 -18q37 0 75.5 5t74 17t65.5 31.5t52 48.5t32 69q9 25 13 56.5t4 59.5q0 59 -12.5 105t-34.5 72
t-51 26q-20 0 -37.5 -13.5t-30.5 -35t-20.5 -47.5t-7.5 -52q0 -24 9.5 -39.5t26.5 -23.5t41 -10.5t53 -2.5h196q14 0 20 -6.5t6 -17.5t-8.5 -19t-24.5 -8h-205q-33 0 -62.5 6t-52.5 19.5t-36.5 36.5t-13.5 57q0 35 11 71.5t31 67.5t48.5 50t62.5 19q44 0 76 -32t50 -90.5
t18 -136.5q0 -35 -7 -73.5t-21 -71.5q-20 -57 -57 -94t-85.5 -58t-102 -29.5t-106.5 -8.5zM548 538q-15 0 -26 11t-11 26t11 26.5t26 11.5q16 0 27 -11.5t11 -26.5t-11 -26t-27 -11zM490 441q-15 0 -26 11t-11 26q0 16 11 27t26 11t26.5 -11t11.5 -26q0 -16 -11.5 -27
t-26.5 -11zM607 441q-15 0 -26 11t-11 26q0 16 11 27t26 11q16 0 27 -11t11 -26q0 -16 -11 -27t-27 -11z" />
    <glyph glyph-name="uni06AA.init" unicode="&#x6aa;" horiz-adv-x="730" 
d="M0 -5l7 51h265q85 0 150.5 4t110.5 13.5t68.5 26t23.5 42.5q0 16 -9 31.5t-33.5 29.5t-69.5 25t-116 18q-100 11 -160 21.5t-87 29.5t-27 54q0 38 27.5 72.5t76 63.5t111 53t131.5 41l11 -47q-103 -26 -171 -57.5t-101.5 -62.5t-33.5 -56q0 -18 21.5 -28.5t70.5 -18
t132 -16.5q70 -8 121 -19.5t85 -29t51 -42t17 -56.5q0 -46 -29 -74t-82 -43t-126 -20.5t-162 -5.5h-273z" />
    <glyph glyph-name="uni06AA.medi" unicode="&#x6aa;" horiz-adv-x="791" 
d="M791 -5q-27 0 -61.5 5.5t-68 18.5t-59.5 36l47 25q36 -18 74 -26t75 -8q14 0 20 -7t6 -17t-8.5 -18.5t-24.5 -8.5zM0 -5l7 51h265q85 0 150.5 4t110.5 13.5t68.5 26t23.5 42.5q0 16 -9 31.5t-33.5 29.5t-69.5 25t-116 18q-100 11 -160 21.5t-87 29.5t-27 54
q0 38 27.5 72.5t76 63.5t111 53t131.5 41l11 -47q-103 -26 -171 -57.5t-101.5 -62.5t-33.5 -56q0 -18 21.5 -28.5t70.5 -18t132 -16.5q70 -8 121 -19.5t85 -29t51 -42t17 -56.5q0 -46 -29 -74t-82 -43t-126 -20.5t-162 -5.5h-273z" />
    <glyph glyph-name="uni06AA.fina" unicode="&#x6aa;" horiz-adv-x="1035" 
d="M1035 -5q-27 0 -61.5 5.5t-68 18.5t-59.5 36l47 25q36 -18 74 -26t75 -8q14 0 20 -7t6 -17t-8.5 -18.5t-24.5 -8.5zM519 -15q-39 0 -96.5 1t-122.5 3t-127 6t-110 9l4 50q50 -4 109.5 -7.5t122 -6t119.5 -3.5t100 -1q84 0 149.5 5.5t111 17t68.5 30t23 43.5q0 16 -9 31.5
t-33.5 29.5t-69 25t-116.5 18q-100 11 -160 21.5t-86.5 29.5t-27.5 54q0 38 27.5 72.5t76 63.5t111 53t131.5 41l11 -47q-103 -26 -171 -57.5t-101.5 -62.5t-33.5 -56q0 -18 21.5 -28.5t70.5 -18t133 -16.5q69 -8 120 -19.5t85.5 -29t51 -42t16.5 -56.5q0 -45 -28.5 -74.5
t-82 -47t-126.5 -24.5t-161 -7z" />
    <glyph glyph-name="uni06AB.init" unicode="&#x6ab;" horiz-adv-x="368" 
d="M290 487q-33 0 -56 23.5t-23 56.5t23 56t56 23t56.5 -23t23.5 -56t-23.5 -56.5t-56.5 -23.5zM290 522q19 0 32.5 13t13.5 32t-13.5 32t-32.5 13q-18 0 -31.5 -13t-13.5 -32t13.5 -32t31.5 -13zM0 -5l7 51h80q52 0 84.5 8t50.5 21.5t25 32t7 40.5q0 37 -23.5 80.5
t-69.5 93.5q-35 39 -61 64t-43 41t-25 24.5t-8 13.5q0 11 2 21.5t6 19.5t9 13q22 19 51 39.5t66.5 43.5t85.5 49t106 56l22 -45q-60 -30 -108.5 -56t-86 -49t-67.5 -44t-55 -42l6 22q45 -45 88 -87.5t77.5 -85.5t55 -86t20.5 -89q0 -31 -10.5 -58t-36 -48t-68.5 -32.5
t-107 -11.5h-80z" />
    <glyph glyph-name="uni06AB.medi" unicode="&#x6ab;" horiz-adv-x="446" 
d="M292 487q-32 0 -55 23.5t-23 56.5t23 56t55 23q33 0 56.5 -23t23.5 -56t-23.5 -56.5t-56.5 -23.5zM292 522q19 0 32.5 13t13.5 32t-13.5 32t-32.5 13q-18 0 -31.5 -13t-13.5 -32t13.5 -32t31.5 -13zM0 -5l7 51h75q65 0 102.5 11t53.5 33t16 56q0 26 -16.5 58t-43 65.5
t-55.5 66t-55.5 59t-43 45.5t-16.5 26q0 11 2 21.5t6 19t10 13.5q22 20 55 42.5t73 46.5t86 49t94 49l22 -45q-47 -24 -92.5 -49t-86.5 -49t-75.5 -47t-60.5 -44l3 17q35 -36 70.5 -72.5t69 -75t61.5 -80.5t47 -89q18 -42 39.5 -70t48 -42.5t56.5 -14.5q14 0 20.5 -6.5
t6.5 -17.5q0 -10 -8.5 -18.5t-24.5 -8.5q-33 0 -66 14.5t-60 45.5t-44 82l23 -12q-6 -38 -24.5 -63t-47.5 -40t-66.5 -21t-83.5 -6h-77z" />
    <glyph glyph-name="uni06AB.fina" unicode="&#x6ab;" horiz-adv-x="907" 
d="M751 487q-33 0 -56 23.5t-23 56.5t23 56t56 23t56 -23t23 -56t-23 -56.5t-56 -23.5zM751 522q18 0 31.5 13t13.5 32t-13 32t-32 13t-32 -13t-13 -32t13 -32t32 -13zM360 -21l22 51q79 0 141 7t104.5 21.5t65 36t22.5 49.5q0 30 -17 63t-43.5 66.5t-55.5 65t-55.5 58
t-43.5 44.5t-17 25q0 11 2 21t6 19t10 14q29 26 76.5 57t108 64.5t123.5 65.5l23 -45q-62 -31 -122 -65t-110.5 -65.5t-84.5 -60.5l4 19q34 -33 70 -69t70 -75t63 -82.5t48 -92.5q12 -28 26.5 -51t32.5 -39.5t39 -25.5t46 -9q13 0 19.5 -6.5t6.5 -17.5q0 -10 -8.5 -18.5
t-24.5 -8.5q-34 0 -66 14.5t-59 46t-44 81.5l22 -12q-7 -39 -34.5 -67t-76.5 -45.5t-121 -25.5t-168 -8zM360 -21q-75 0 -134.5 11t-101.5 34t-64 60t-22 88q0 24 4 50t10 52t13 49l47 -13q-5 -16 -10 -37.5t-8.5 -44.5t-3.5 -44q0 -54 30 -88t94.5 -50t167.5 -16l20 -30z
" />
    <glyph glyph-name="uni06AC.init" unicode="&#x6ac;" horiz-adv-x="368" 
d="M0 -5l7 51h80q52 0 84.5 8t50.5 21.5t25 32t7 40.5q0 37 -23.5 80.5t-69.5 93.5q-35 39 -61 64t-43 41t-25 24.5t-8 13.5q0 11 2 21.5t6 19.5t9 13q22 19 51 39.5t66.5 43.5t85.5 49t106 56l22 -45q-60 -30 -108.5 -56t-86 -49t-67.5 -44t-55 -42l6 22q45 -45 88 -87.5
t77.5 -85.5t55 -86t20.5 -89q0 -31 -10.5 -58t-36 -48t-68.5 -32.5t-107 -11.5h-80zM166 737q-16 0 -27 11t-11 26t11 26.5t27 11.5q15 0 26 -11.5t11 -26.5t-11 -26t-26 -11z" />
    <glyph glyph-name="uni06AC.medi" unicode="&#x6ac;" horiz-adv-x="446" 
d="M0 -5l7 51h75q65 0 102.5 11t53.5 33t16 56q0 26 -16.5 58t-43 65.5t-55.5 66t-55.5 59t-43 45.5t-16.5 26q0 11 2 21.5t6 19t10 13.5q22 20 55 42.5t73 46.5t86 49t94 49l22 -45q-47 -24 -92.5 -49t-86.5 -49t-75.5 -47t-60.5 -44l3 17q35 -36 70.5 -72.5t69 -75
t61.5 -80.5t47 -89q18 -42 39.5 -70t48 -42.5t56.5 -14.5q14 0 20.5 -6.5t6.5 -17.5q0 -10 -8.5 -18.5t-24.5 -8.5q-33 0 -66 14.5t-60 45.5t-44 82l23 -12q-6 -38 -24.5 -63t-47.5 -40t-66.5 -21t-83.5 -6h-77zM150 737q-16 0 -27 11t-11 26t11 26.5t27 11.5q15 0 26 -11.5
t11 -26.5t-11 -26t-26 -11z" />
    <glyph glyph-name="uni06AC.fina" unicode="&#x6ac;" horiz-adv-x="836" 
d="M360 -21l22 51q88 0 147.5 8t94 26t49.5 47t13 71l-19 528h51l20 -521q2 -51 12 -83t32.5 -46t60.5 -14q14 0 20 -6.5t6 -17.5q0 -10 -8.5 -18.5t-24.5 -8.5q-37 0 -64 11.5t-42.5 34.5t-17.5 61l17 -1q-15 -36 -45 -59.5t-76 -37t-107.5 -19.5t-140.5 -6zM336 207
l-13 41q49 13 75.5 23.5t37.5 20.5t11 18q0 13 -13.5 24t-31 22.5t-31 26t-13.5 35.5q0 15 10 33.5t35.5 40.5t73.5 45l19 -37q-43 -21 -69 -42.5t-26 -38.5q0 -13 13.5 -24.5t31 -23.5t31 -27.5t13.5 -36.5q0 -12 -7 -25t-24 -25.5t-47 -24.5t-76 -25zM360 -21
q-75 0 -134.5 11t-101.5 34t-64 60t-22 88q0 24 4 50t10 52t13 49l47 -13q-5 -16 -10 -37.5t-8.5 -44.5t-3.5 -44q0 -54 30 -88t94.5 -50t167.5 -16l20 -30zM421 650q-16 0 -27 11t-11 26t11 26.5t27 11.5q15 0 26 -11.5t11 -26.5t-11 -26t-26 -11z" />
    <glyph glyph-name="uni06AE.init" unicode="&#x6ae;" horiz-adv-x="368" 
d="M0 -5l7 51h80q52 0 84.5 8t50.5 21.5t25 32t7 40.5q0 37 -23.5 80.5t-69.5 93.5q-35 39 -61 64t-43 41t-25 24.5t-8 13.5q0 11 2 21.5t6 19.5t9 13q22 19 51 39.5t66.5 43.5t85.5 49t106 56l22 -45q-60 -30 -108.5 -56t-86 -49t-67.5 -44t-55 -42l6 22q45 -45 88 -87.5
t77.5 -85.5t55 -86t20.5 -89q0 -31 -10.5 -58t-36 -48t-68.5 -32.5t-107 -11.5h-80zM152 -274q-16 0 -27 11t-11 27q0 15 11 26.5t27 11.5q15 0 26 -11.5t11 -26.5q0 -16 -11 -27t-26 -11zM93 -177q-16 0 -27 11t-11 26t11 26.5t27 11.5q15 0 26 -11.5t11 -26.5t-11 -26
t-26 -11zM210 -177q-16 0 -27 11t-11 26t11 26.5t27 11.5q15 0 26 -11.5t11 -26.5t-11 -26t-26 -11z" />
    <glyph glyph-name="uni06AE.medi" unicode="&#x6ae;" horiz-adv-x="446" 
d="M0 -5l7 51h75q65 0 102.5 11t53.5 33t16 56q0 26 -16.5 58t-43 65.5t-55.5 66t-55.5 59t-43 45.5t-16.5 26q0 11 2 21.5t6 19t10 13.5q22 20 55 42.5t73 46.5t86 49t94 49l22 -45q-47 -24 -92.5 -49t-86.5 -49t-75.5 -47t-60.5 -44l3 17q35 -36 70.5 -72.5t69 -75
t61.5 -80.5t47 -89q18 -42 39.5 -70t48 -42.5t56.5 -14.5q14 0 20.5 -6.5t6.5 -17.5q0 -10 -8.5 -18.5t-24.5 -8.5q-33 0 -66 14.5t-60 45.5t-44 82l23 -12q-6 -38 -24.5 -63t-47.5 -40t-66.5 -21t-83.5 -6h-77zM148 -274q-16 0 -27 11t-11 27q0 15 11 26.5t27 11.5
q15 0 26 -11.5t11 -26.5q0 -16 -11 -27t-26 -11zM89 -177q-16 0 -27 11t-11 26t11 26.5t27 11.5q15 0 26 -11.5t11 -26.5t-11 -26t-26 -11zM206 -177q-16 0 -27 11t-11 26t11 26.5t27 11.5q15 0 26 -11.5t11 -26.5t-11 -26t-26 -11z" />
    <glyph glyph-name="uni06AE.fina" unicode="&#x6ae;" horiz-adv-x="836" 
d="M360 -21l22 51q88 0 147.5 8t94 26t49.5 47t13 71l-19 528h51l20 -521q2 -51 12 -83t32.5 -46t60.5 -14q14 0 20 -6.5t6 -17.5q0 -10 -8.5 -18.5t-24.5 -8.5q-37 0 -64 11.5t-42.5 34.5t-17.5 61l17 -1q-15 -36 -45 -59.5t-76 -37t-107.5 -19.5t-140.5 -6zM336 207
l-13 41q49 13 75.5 23.5t37.5 20.5t11 18q0 13 -13.5 24t-31 22.5t-31 26t-13.5 35.5q0 15 10 33.5t35.5 40.5t73.5 45l19 -37q-43 -21 -69 -42.5t-26 -38.5q0 -13 13.5 -24.5t31 -23.5t31 -27.5t13.5 -36.5q0 -12 -7 -25t-24 -25.5t-47 -24.5t-76 -25zM360 -21
q-75 0 -134.5 11t-101.5 34t-64 60t-22 88q0 24 4 50t10 52t13 49l47 -13q-5 -16 -10 -37.5t-8.5 -44.5t-3.5 -44q0 -54 30 -88t94.5 -50t167.5 -16l20 -30zM380 -295q-16 0 -27 11t-11 27q0 15 11 26.5t27 11.5q15 0 26 -11.5t11 -26.5q0 -16 -11 -27t-26 -11zM321 -198
q-16 0 -27 11t-11 26t11 26.5t27 11.5q15 0 26 -11.5t11 -26.5t-11 -26t-26 -11zM438 -198q-16 0 -27 11t-11 26t11 26.5t27 11.5q15 0 26 -11.5t11 -26.5t-11 -26t-26 -11z" />
    <glyph glyph-name="uni06B0.init" unicode="&#x6b0;" horiz-adv-x="367" 
d="M293 489q-33 0 -56 23t-23 56t23 56t56 23q32 0 55.5 -23t23.5 -56t-23.5 -56t-55.5 -23zM293 523q18 0 31.5 13.5t13.5 31.5q0 19 -13.5 32.5t-31.5 13.5q-19 0 -32.5 -13.5t-13.5 -32.5q0 -18 13.5 -31.5t32.5 -13.5zM7 579l-24 38q37 25 83 53.5t102.5 61.5t126.5 70
l20 -39q-69 -38 -124.5 -70.5t-100.5 -60t-83 -53.5zM0 -5l7 51h80q52 0 84.5 8t50.5 21.5t25 32t7 40.5q0 37 -23.5 80.5t-69.5 93.5q-35 39 -61 64t-43 41t-25 24.5t-8 13.5q0 11 2 21.5t6 19.5t9 13q22 19 51 39.5t66.5 43.5t85.5 49t106 56l22 -45q-60 -30 -108.5 -56
t-86 -49t-67.5 -44t-55 -42l6 22q45 -45 88 -87.5t77.5 -85.5t55 -86t20.5 -89q0 -31 -10.5 -58t-36 -48t-68.5 -32.5t-107 -11.5h-80z" />
    <glyph glyph-name="uni06B0.medi" unicode="&#x6b0;" horiz-adv-x="446" 
d="M293 489q-32 0 -55 23t-23 56t23 56t55 23q33 0 56.5 -23t23.5 -56t-23.5 -56t-56.5 -23zM293 523q19 0 32.5 13.5t13.5 31.5q0 19 -13.5 32t-32.5 13q-18 0 -31.5 -13t-13.5 -32q0 -18 13.5 -31.5t31.5 -13.5zM7 579l-24 38q38 25 83.5 53.5t102.5 61.5t126 70l21 -39
q-70 -38 -125.5 -70.5t-100 -60t-83.5 -53.5zM0 -5l7 51h75q65 0 102.5 11t53.5 33t16 56q0 26 -16.5 58t-43 65.5t-55.5 66t-55.5 59t-43 45.5t-16.5 26q0 11 2 21.5t6 19t10 13.5q22 20 55 42.5t73 46.5t86 49t94 49l22 -45q-47 -24 -92.5 -49t-86.5 -49t-75.5 -47
t-60.5 -44l3 17q35 -36 70.5 -72.5t69 -75t61.5 -80.5t47 -89q18 -42 39.5 -70t48 -42.5t56.5 -14.5q14 0 20.5 -6.5t6.5 -17.5q0 -10 -8.5 -18.5t-24.5 -8.5q-33 0 -66 14.5t-60 45.5t-44 82l23 -12q-6 -38 -24.5 -63t-47.5 -40t-66.5 -21t-83.5 -6h-77z" />
    <glyph glyph-name="uni06B0.fina" unicode="&#x6b0;" horiz-adv-x="903" 
d="M751 487q-33 0 -55.5 23.5t-22.5 56.5t22.5 56t55.5 23t56.5 -23t23.5 -56t-23.5 -56.5t-56.5 -23.5zM751 522q19 0 32.5 13t13.5 32t-13.5 32t-32.5 13q-18 0 -31.5 -13t-13.5 -32t13.5 -32t31.5 -13zM466 580l-24 37q38 26 83.5 54.5t102.5 61.5t127 70l20 -40
q-69 -38 -124.5 -70t-100.5 -60t-84 -53zM360 -21l22 51q79 0 141 7t104.5 21.5t65 36t22.5 49.5q0 30 -17 63t-43.5 66.5t-55.5 65t-55.5 58t-43.5 44.5t-17 25q0 11 2 21t6 19t10 14q29 26 76.5 57t108 64.5t123.5 65.5l23 -45q-62 -31 -122 -65t-110.5 -65.5t-84.5 -60.5
l4 19q34 -33 70 -69t70 -75t63 -82.5t48 -92.5q12 -28 26.5 -51t32.5 -39.5t39 -25.5t46 -9q13 0 19.5 -6.5t6.5 -17.5q0 -10 -8.5 -18.5t-24.5 -8.5q-34 0 -66 14.5t-59 46t-44 81.5l22 -12q-7 -39 -34.5 -67t-76.5 -45.5t-121 -25.5t-168 -8zM360 -21q-75 0 -134.5 11
t-101.5 34t-64 60t-22 88q0 24 4 50t10 52t13 49l47 -13q-5 -16 -10 -37.5t-8.5 -44.5t-3.5 -44q0 -54 30 -88t94.5 -50t167.5 -16l20 -30z" />
    <glyph glyph-name="uni06B2.init" unicode="&#x6b2;" horiz-adv-x="367" 
d="M7 579l-24 38q37 25 83 53.5t102.5 61.5t126.5 70l20 -39q-69 -38 -124.5 -70.5t-100.5 -60t-83 -53.5zM0 -5l7 51h80q52 0 84.5 8t50.5 21.5t25 32t7 40.5q0 37 -23.5 80.5t-69.5 93.5q-35 39 -61 64t-43 41t-25 24.5t-8 13.5q0 11 2 21.5t6 19.5t9 13q22 19 51 39.5
t66.5 43.5t85.5 49t106 56l22 -45q-60 -30 -108.5 -56t-86 -49t-67.5 -44t-55 -42l6 22q45 -45 88 -87.5t77.5 -85.5t55 -86t20.5 -89q0 -31 -10.5 -58t-36 -48t-68.5 -32.5t-107 -11.5h-80zM216 -176q-15 0 -26.5 11t-11.5 26t11 26.5t27 11.5t26.5 -11.5t10.5 -26.5
t-10.5 -26t-26.5 -11zM99 -176q-16 0 -27 11t-11 26t11 26.5t27 11.5q15 0 26 -11.5t11 -26.5t-11 -26t-26 -11z" />
    <glyph glyph-name="uni06B2.medi" unicode="&#x6b2;" horiz-adv-x="446" 
d="M7 579l-24 38q38 25 83.5 53.5t102.5 61.5t126 70l21 -39q-70 -38 -125.5 -70.5t-100 -60t-83.5 -53.5zM0 -5l7 51h75q65 0 102.5 11t53.5 33t16 56q0 26 -16.5 58t-43 65.5t-55.5 66t-55.5 59t-43 45.5t-16.5 26q0 11 2 21.5t6 19t10 13.5q22 20 55 42.5t73 46.5t86 49
t94 49l22 -45q-47 -24 -92.5 -49t-86.5 -49t-75.5 -47t-60.5 -44l3 17q35 -36 70.5 -72.5t69 -75t61.5 -80.5t47 -89q18 -42 39.5 -70t48 -42.5t56.5 -14.5q14 0 20.5 -6.5t6.5 -17.5q0 -10 -8.5 -18.5t-24.5 -8.5q-33 0 -66 14.5t-60 45.5t-44 82l23 -12q-6 -38 -24.5 -63
t-47.5 -40t-66.5 -21t-83.5 -6h-77zM219 -176q-15 0 -26.5 11t-11.5 26t11 26.5t27 11.5t26.5 -11.5t10.5 -26.5t-10.5 -26t-26.5 -11zM102 -176q-16 0 -27 11t-11 26t11 26.5t27 11.5q15 0 26 -11.5t11 -26.5t-11 -26t-26 -11z" />
    <glyph glyph-name="uni06B2.fina" unicode="&#x6b2;" horiz-adv-x="903" 
d="M466 580l-24 37q38 26 83.5 54.5t102.5 61.5t127 70l20 -40q-69 -38 -124.5 -70t-100.5 -60t-84 -53zM360 -21l22 51q79 0 141 7t104.5 21.5t65 36t22.5 49.5q0 30 -17 63t-43.5 66.5t-55.5 65t-55.5 58t-43.5 44.5t-17 25q0 11 2 21t6 19t10 14q29 26 76.5 57t108 64.5
t123.5 65.5l23 -45q-62 -31 -122 -65t-110.5 -65.5t-84.5 -60.5l4 19q34 -33 70 -69t70 -75t63 -82.5t48 -92.5q12 -28 26.5 -51t32.5 -39.5t39 -25.5t46 -9q13 0 19.5 -6.5t6.5 -17.5q0 -10 -8.5 -18.5t-24.5 -8.5q-34 0 -66 14.5t-59 46t-44 81.5l22 -12q-7 -39 -34.5 -67
t-76.5 -45.5t-121 -25.5t-168 -8zM360 -21q-75 0 -134.5 11t-101.5 34t-64 60t-22 88q0 24 4 50t10 52t13 49l47 -13q-5 -16 -10 -37.5t-8.5 -44.5t-3.5 -44q0 -54 30 -88t94.5 -50t167.5 -16l20 -30zM445 -197q-15 0 -26.5 11t-11.5 26t11 26.5t27 11.5t26.5 -11.5
t10.5 -26.5t-10.5 -26t-26.5 -11zM328 -197q-16 0 -27 11t-11 26t11 26.5t27 11.5q15 0 26 -11.5t11 -26.5t-11 -26t-26 -11z" />
    <glyph glyph-name="uni06B4.init" unicode="&#x6b4;" horiz-adv-x="367" 
d="M69 870q-15 0 -25.5 10.5t-10.5 24.5t10.5 25t25.5 11q14 0 24.5 -11t10.5 -25t-10.5 -24.5t-24.5 -10.5zM59 744q-15 0 -25.5 10.5t-10.5 24.5q0 15 10.5 25.5t25.5 10.5q14 0 24.5 -10.5t10.5 -25.5q0 -14 -10.5 -24.5t-24.5 -10.5zM171 796q-15 0 -25.5 10.5
t-10.5 24.5t10.5 25t25.5 11q14 0 24.5 -11t10.5 -25t-10.5 -24.5t-24.5 -10.5zM7 579l-24 38q37 25 83 53.5t102.5 61.5t126.5 70l20 -39q-69 -38 -124.5 -70.5t-100.5 -60t-83 -53.5zM0 -5l7 51h80q52 0 84.5 8t50.5 21.5t25 32t7 40.5q0 37 -23.5 80.5t-69.5 93.5
q-35 39 -61 64t-43 41t-25 24.5t-8 13.5q0 11 2 21.5t6 19.5t9 13q22 19 51 39.5t66.5 43.5t85.5 49t106 56l22 -45q-60 -30 -108.5 -56t-86 -49t-67.5 -44t-55 -42l6 22q45 -45 88 -87.5t77.5 -85.5t55 -86t20.5 -89q0 -31 -10.5 -58t-36 -48t-68.5 -32.5t-107 -11.5h-80z
" />
    <glyph glyph-name="uni06B4.medi" unicode="&#x6b4;" horiz-adv-x="446" 
d="M67 870q-15 0 -25.5 10.5t-10.5 24.5q0 15 10.5 25.5t25.5 10.5t25 -10.5t10 -25.5q0 -14 -10 -24.5t-25 -10.5zM57 744q-15 0 -25.5 10.5t-10.5 25.5q0 14 10.5 24.5t25.5 10.5t25 -10.5t10 -24.5q0 -15 -10 -25.5t-25 -10.5zM169 796q-15 0 -25.5 10.5t-10.5 24.5
q0 15 10.5 25.5t25.5 10.5t25 -10.5t10 -25.5q0 -14 -10 -24.5t-25 -10.5zM7 579l-24 38q38 25 83.5 53.5t102.5 61.5t126 70l21 -39q-70 -38 -125.5 -70.5t-100 -60t-83.5 -53.5zM0 -5l7 51h75q65 0 102.5 11t53.5 33t16 56q0 26 -16.5 58t-43 65.5t-55.5 66t-55.5 59
t-43 45.5t-16.5 26q0 11 2 21.5t6 19t10 13.5q22 20 55 42.5t73 46.5t86 49t94 49l22 -45q-47 -24 -92.5 -49t-86.5 -49t-75.5 -47t-60.5 -44l3 17q35 -36 70.5 -72.5t69 -75t61.5 -80.5t47 -89q18 -42 39.5 -70t48 -42.5t56.5 -14.5q14 0 20.5 -6.5t6.5 -17.5
q0 -10 -8.5 -18.5t-24.5 -8.5q-33 0 -66 14.5t-60 45.5t-44 82l23 -12q-6 -38 -24.5 -63t-47.5 -40t-66.5 -21t-83.5 -6h-77z" />
    <glyph glyph-name="uni06B4.fina" unicode="&#x6b4;" horiz-adv-x="903" 
d="M518 870q-15 0 -25.5 11t-10.5 25t10.5 25t25.5 11t25 -11t10 -25t-10 -25t-25 -11zM508 745q-15 0 -25.5 10.5t-10.5 24.5q0 15 10.5 25.5t25.5 10.5t25 -10.5t10 -25.5q0 -14 -10 -24.5t-25 -10.5zM620 796q-15 0 -25.5 11t-10.5 25t10.5 25t25.5 11t25 -11t10 -25
t-10 -25t-25 -11zM466 580l-24 37q38 26 83.5 54.5t102.5 61.5t127 70l20 -40q-69 -38 -124.5 -70t-100.5 -60t-84 -53zM360 -21l22 51q79 0 141 7t104.5 21.5t65 36t22.5 49.5q0 30 -17 63t-43.5 66.5t-55.5 65t-55.5 58t-43.5 44.5t-17 25q0 11 2 21t6 19t10 14
q29 26 76.5 57t108 64.5t123.5 65.5l23 -45q-62 -31 -122 -65t-110.5 -65.5t-84.5 -60.5l4 19q34 -33 70 -69t70 -75t63 -82.5t48 -92.5q12 -28 26.5 -51t32.5 -39.5t39 -25.5t46 -9q13 0 19.5 -6.5t6.5 -17.5q0 -10 -8.5 -18.5t-24.5 -8.5q-34 0 -66 14.5t-59 46t-44 81.5
l22 -12q-7 -39 -34.5 -67t-76.5 -45.5t-121 -25.5t-168 -8zM360 -21q-75 0 -134.5 11t-101.5 34t-64 60t-22 88q0 24 4 50t10 52t13 49l47 -13q-5 -16 -10 -37.5t-8.5 -44.5t-3.5 -44q0 -54 30 -88t94.5 -50t167.5 -16l20 -30z" />
    <glyph glyph-name="uni06B5.init" unicode="&#x6b5;" horiz-adv-x="219" 
d="M0 -5l7 51q51 0 73.5 13.5t27.5 45t3 85.5l-19 520h50l20 -514q2 -52 -3 -89.5t-22 -62.5t-50 -37t-87 -12zM95 842q-7 15 -17 39t-21.5 51t-23 51t-19.5 40l32 16q5 -10 15.5 -31.5t22 -48t22 -50.5t16.5 -38l13 -26zM135 845l-31 11q6 17 16.5 45t22.5 57.5t21.5 52.5
t12.5 31l32 -13q-4 -10 -14 -33.5t-21.5 -52.5t-22 -55.5t-16.5 -42.5z" />
    <glyph glyph-name="uni06B5.medi" unicode="&#x6b5;" horiz-adv-x="263" 
d="M0 -5l7 51q51 0 73 17t27 52.5t3 89.5l-17 505h52l16 -503q3 -63 14.5 -98t35 -49t58.5 -14q14 0 20.5 -6.5t6.5 -17.5q0 -10 -8.5 -18.5t-24.5 -8.5q-37 0 -63.5 14t-41.5 37.5t-20 51.5l17 -1q-8 -32 -26.5 -54.5t-49.5 -35t-79 -12.5zM99 842q-7 15 -17 39t-21.5 51
t-23 51t-19.5 40l32 16q5 -10 15.5 -31.5t22 -48t22 -50.5t16.5 -38l13 -26zM139 845l-31 11q6 17 16.5 45t22.5 57.5t21.5 52.5t12.5 31l32 -13q-4 -10 -14 -33.5t-21.5 -52.5t-22 -55.5t-16.5 -42.5z" />
    <glyph glyph-name="uni06B5.fina" unicode="&#x6b5;" horiz-adv-x="679" 
d="M41 -16q0 22 4.5 49.5t15 62t29.5 76.5l46 -20q-14 -30 -23.5 -58.5t-14 -55t-4.5 -49.5q0 -54 25 -92t67.5 -57t94.5 -19q87 0 137.5 38.5t72 110t17.5 171.5l-19 569h52l17 -520q2 -47 19.5 -79t46 -48.5t62.5 -16.5q13 0 19.5 -6.5t6.5 -17.5q0 -10 -8.5 -18.5
t-24.5 -8.5q-27 0 -50 8.5t-40 23.5t-28 33.5t-14 39.5l12 -15q-2 -61 -17.5 -117.5t-47.5 -101.5t-85 -71t-131 -26q-49 0 -92 14.5t-75.5 42t-51 67t-18.5 91.5zM264 589q-7 15 -17 39t-21.5 51t-23 51t-19.5 40l32 16q5 -10 15.5 -31.5t22 -48t22 -50.5t16.5 -38l13 -26z
M304 592l-31 11q6 17 16.5 45t22.5 57.5t21.5 52.5t12.5 31l32 -13q-4 -10 -14 -33.5t-21.5 -52.5t-22 -55.5t-16.5 -42.5z" />
    <glyph glyph-name="uni06B6.init" unicode="&#x6b6;" horiz-adv-x="219" 
d="M0 -5l7 51q51 0 73.5 13.5t27.5 45t3 85.5l-19 520h50l20 -514q2 -52 -3 -89.5t-22 -62.5t-50 -37t-87 -12zM114 829q-16 0 -27 11t-11 26t11 26.5t27 11.5q15 0 26 -11.5t11 -26.5t-11 -26t-26 -11z" />
    <glyph glyph-name="uni06B6.medi" unicode="&#x6b6;" horiz-adv-x="263" 
d="M0 -5l7 51q51 0 73 17t27 52.5t3 89.5l-17 505h52l16 -503q3 -63 14.5 -98t35 -49t58.5 -14q14 0 20.5 -6.5t6.5 -17.5q0 -10 -8.5 -18.5t-24.5 -8.5q-37 0 -63.5 14t-41.5 37.5t-20 51.5l17 -1q-8 -32 -26.5 -54.5t-49.5 -35t-79 -12.5zM118 829q-16 0 -27 11t-11 26
t11 26.5t27 11.5q15 0 26 -11.5t11 -26.5t-11 -26t-26 -11z" />
    <glyph glyph-name="uni06B6.fina" unicode="&#x6b6;" horiz-adv-x="679" 
d="M41 -16q0 22 4.5 49.5t15 62t29.5 76.5l46 -20q-14 -30 -23.5 -58.5t-14 -55t-4.5 -49.5q0 -54 25 -92t67.5 -57t94.5 -19q87 0 137.5 38.5t72 110t17.5 171.5l-19 569h52l17 -520q2 -47 19.5 -79t46 -48.5t62.5 -16.5q13 0 19.5 -6.5t6.5 -17.5q0 -10 -8.5 -18.5
t-24.5 -8.5q-27 0 -50 8.5t-40 23.5t-28 33.5t-14 39.5l12 -15q-2 -61 -17.5 -117.5t-47.5 -101.5t-85 -71t-131 -26q-49 0 -92 14.5t-75.5 42t-51 67t-18.5 91.5zM283 576q-16 0 -27 11t-11 26t11 26.5t27 11.5q15 0 26 -11.5t11 -26.5t-11 -26t-26 -11z" />
    <glyph glyph-name="uni06B7.init" unicode="&#x6b7;" horiz-adv-x="219" 
d="M0 -5l7 51q51 0 73.5 13.5t27.5 45t3 85.5l-19 520h50l20 -514q2 -52 -3 -89.5t-22 -62.5t-50 -37t-87 -12zM116 926q-15 0 -26 11t-11 26t11 26.5t26 11.5q16 0 27 -11.5t11 -26.5t-11 -26t-27 -11zM58 829q-15 0 -26 11t-11 26q0 16 11 27t26 11t26.5 -11t11.5 -26
q0 -16 -11.5 -27t-26.5 -11zM175 829q-15 0 -26 11t-11 26q0 16 11 27t26 11q16 0 27 -11t11 -26q0 -16 -11 -27t-27 -11z" />
    <glyph glyph-name="uni06B7.medi" unicode="&#x6b7;" horiz-adv-x="263" 
d="M0 -5l7 51q51 0 73 17t27 52.5t3 89.5l-17 505h52l16 -503q3 -63 14.5 -98t35 -49t58.5 -14q14 0 20.5 -6.5t6.5 -17.5q0 -10 -8.5 -18.5t-24.5 -8.5q-37 0 -63.5 14t-41.5 37.5t-20 51.5l17 -1q-8 -32 -26.5 -54.5t-49.5 -35t-79 -12.5zM119 926q-15 0 -26 11t-11 26
t11 26.5t26 11.5q16 0 27 -11.5t11 -26.5t-11 -26t-27 -11zM61 829q-15 0 -26 11t-11 26q0 16 11 27t26 11t26.5 -11t11.5 -26q0 -16 -11.5 -27t-26.5 -11zM178 829q-15 0 -26 11t-11 26q0 16 11 27t26 11q16 0 27 -11t11 -26q0 -16 -11 -27t-27 -11z" />
    <glyph glyph-name="uni06B7.fina" unicode="&#x6b7;" horiz-adv-x="679" 
d="M41 -16q0 22 4.5 49.5t15 62t29.5 76.5l46 -20q-14 -30 -23.5 -58.5t-14 -55t-4.5 -49.5q0 -54 25 -92t67.5 -57t94.5 -19q87 0 137.5 38.5t72 110t17.5 171.5l-19 569h52l17 -520q2 -47 19.5 -79t46 -48.5t62.5 -16.5q13 0 19.5 -6.5t6.5 -17.5q0 -10 -8.5 -18.5
t-24.5 -8.5q-27 0 -50 8.5t-40 23.5t-28 33.5t-14 39.5l12 -15q-2 -61 -17.5 -117.5t-47.5 -101.5t-85 -71t-131 -26q-49 0 -92 14.5t-75.5 42t-51 67t-18.5 91.5zM285 673q-15 0 -26 11t-11 26t11 26.5t26 11.5q16 0 27 -11.5t11 -26.5t-11 -26t-27 -11zM227 576
q-15 0 -26 11t-11 26q0 16 11 27t26 11t26.5 -11t11.5 -26q0 -16 -11.5 -27t-26.5 -11zM344 576q-15 0 -26 11t-11 26q0 16 11 27t26 11q16 0 27 -11t11 -26q0 -16 -11 -27t-27 -11z" />
    <glyph glyph-name="uni06B8.init" unicode="&#x6b8;" horiz-adv-x="219" 
d="M0 -5l7 51q51 0 73.5 13.5t27.5 45t3 85.5l-19 520h50l20 -514q2 -52 -3 -89.5t-22 -62.5t-50 -37t-87 -12zM103 -274q-16 0 -27 11t-11 27q0 15 11 26.5t27 11.5q15 0 26 -11.5t11 -26.5q0 -16 -11 -27t-26 -11zM44 -177q-16 0 -27 11t-11 26t11 26.5t27 11.5
q15 0 26 -11.5t11 -26.5t-11 -26t-26 -11zM161 -177q-16 0 -27 11t-11 26t11 26.5t27 11.5q15 0 26 -11.5t11 -26.5t-11 -26t-26 -11z" />
    <glyph glyph-name="uni06B8.medi" unicode="&#x6b8;" horiz-adv-x="263" 
d="M0 -5l7 51q51 0 73 17t27 52.5t3 89.5l-17 505h52l16 -503q3 -63 14.5 -98t35 -49t58.5 -14q14 0 20.5 -6.5t6.5 -17.5q0 -10 -8.5 -18.5t-24.5 -8.5q-37 0 -63.5 14t-41.5 37.5t-20 51.5l17 -1q-8 -32 -26.5 -54.5t-49.5 -35t-79 -12.5zM127 -274q-16 0 -27 11t-11 27
q0 15 11 26.5t27 11.5q15 0 26 -11.5t11 -26.5q0 -16 -11 -27t-26 -11zM68 -177q-16 0 -27 11t-11 26t11 26.5t27 11.5q15 0 26 -11.5t11 -26.5t-11 -26t-26 -11zM185 -177q-16 0 -27 11t-11 26t11 26.5t27 11.5q15 0 26 -11.5t11 -26.5t-11 -26t-26 -11z" />
    </font>
</defs>
</svg>
