<?xml version="1.0" standalone="no"?>
<!DOCTYPE svg PUBLIC "-//W3C//DTD SVG 1.1//EN" "http://www.w3.org/Graphics/SVG/1.1/DTD/svg11.dtd" >
<svg xmlns="http://www.w3.org/2000/svg" xmlns:xlink="http://www.w3.org/1999/xlink" version="1.1">
<metadata>
Created by FontForge 20170731 at Thu Nov 12 05:28:44 2020
 By Aleksey,,,
Copyright 2015-2020 Google LLC. All Rights Reserved.
</metadata>
<defs>
<font id="NotoSansArabicSemiCondensed-Medium" horiz-adv-x="0" >
  <font-face 
    font-family="Noto Sans Arabic SemiCondensed Medium"
    font-weight="500"
    font-stretch="semi-condensed"
    units-per-em="1000"
    panose-1="0 0 0 0 0 0 0 0 0 0"
    ascent="800"
    descent="-200"
    bbox="-220 -573 2253 1109"
    underline-thickness="50"
    underline-position="-175"
    unicode-range="U+000D-FEFC"
  />
<missing-glyph horiz-adv-x="600" 
d="M94 0v714h411v-714h-411zM145 51h309v612h-309v-612z" />
    <glyph glyph-name="uniFC43" unicode="&#xfedf;&#xfef0;" horiz-adv-x="969" arabic-form="isolated" 
d="M712 -5l9 96q47 0 66.5 11t23.5 39.5t2 79.5l-19 494h96l20 -491q2 -54 -3.5 -97t-26 -72.5t-61 -44.5t-107.5 -15zM34 1q0 25 4.5 55.5t15.5 66t29 74.5l84 -33q-12 -30 -20.5 -56t-12.5 -49t-4 -44q0 -42 17 -70.5t47 -46.5t68.5 -26t80.5 -8q56 0 101 10t77 27.5
t49.5 38.5t17.5 43q0 11 -8.5 21.5t-26.5 20.5t-45 20t-64 21l24 95q52 -20 91.5 -33.5t69.5 -21.5t53 -11.5t41 -3.5q25 0 36 -13t11 -33t-14.5 -35t-42.5 -15h-12h-12.5h-12.5q2 -8 3 -14.5t1 -14.5q0 -34 -22.5 -68.5t-67 -64t-110 -47t-151.5 -17.5q-89 0 -155.5 26.5
t-103 78.5t-36.5 127z" />
    <glyph glyph-name="uniFC86" unicode="&#xfee0;&#xfef0;" horiz-adv-x="1001" arabic-form="final" 
d="M712 -5l10 96q44 0 63 11t23 39.5t2 79.5l-17 494h97l17 -492q2 -52 13.5 -81t34.5 -40t55 -11q25 0 36.5 -13t11.5 -33t-14.5 -35t-42.5 -15q-38 0 -67.5 12t-48.5 35t-24 57l30 -2q-12 -35 -35 -58t-58.5 -33.5t-85.5 -10.5zM34 1q0 25 4.5 55.5t15.5 66t29 74.5
l84 -33q-12 -30 -20.5 -56t-12.5 -49t-4 -44q0 -42 17 -70.5t47 -46.5t68.5 -26t80.5 -8q56 0 101 10t77 27.5t49.5 38.5t17.5 43q0 11 -8.5 21.5t-26.5 20.5t-45 20t-64 21l24 95q52 -20 91.5 -33.5t69.5 -21.5t53 -11.5t41 -3.5q25 0 36 -13t11 -33t-14.5 -35t-42.5 -15
h-12h-12.5h-12.5q2 -8 3 -14.5t1 -14.5q0 -34 -22.5 -68.5t-67 -64t-110 -47t-151.5 -17.5q-89 0 -155.5 26.5t-103 78.5t-36.5 127z" />
    <glyph glyph-name="uniFD82" unicode="&#xfee0;&#xfea4;&#xfef0;" horiz-adv-x="1583" arabic-form="final" 
d="M1295 -5l10 96q44 0 63 11t23 39.5t2 79.5l-17 494h97l17 -492q2 -52 13.5 -81t34.5 -40t55 -11q25 0 36.5 -13t11.5 -33t-14.5 -35t-42.5 -15q-38 0 -67.5 12t-48.5 35t-24 57l30 -2q-12 -35 -35 -58t-58.5 -33.5t-85.5 -10.5zM1294 -5q-38 0 -70 6.5t-58.5 22.5
t-45.5 45t-30 75l62 40q14 -38 32.5 -58t47.5 -27.5t72 -7.5q26 0 37 -13t11 -33t-14.5 -35t-43.5 -15zM712 -5l9 96q50 0 96 8t89.5 22.5t85.5 36t83 49.5q-30 22 -62 38.5t-67 25.5t-77 9q-16 0 -30 -1t-27.5 -3t-29.5 -6l-18 90q26 8 52.5 12t51.5 4q50 0 90 -12.5
t72.5 -30.5t61 -35.5t55.5 -30t56 -12.5h22l10 -88q-40 -1 -73.5 -14t-66 -32.5t-69 -41t-80.5 -40.5t-101.5 -31.5t-132.5 -12.5zM34 1q0 25 4.5 55.5t15.5 66t29 74.5l84 -33q-12 -30 -20.5 -56t-12.5 -49t-4 -44q0 -42 17 -70.5t47 -46.5t68.5 -26t80.5 -8q56 0 101 10
t77 27.5t49.5 38.5t17.5 43q0 11 -8.5 21.5t-26.5 20.5t-45 20t-64 21l24 95q52 -20 91.5 -33.5t69.5 -21.5t53 -11.5t41 -3.5q25 0 36 -13t11 -33t-14.5 -35t-42.5 -15h-12h-12.5h-12.5q2 -8 3 -14.5t1 -14.5q0 -34 -22.5 -68.5t-67 -64t-110 -47t-151.5 -17.5
q-89 0 -155.5 26.5t-103 78.5t-36.5 127z" />
    <glyph glyph-name="uniFDF2" unicode="&#x627;&#xfedf;&#xfee0;&#xfeea;" horiz-adv-x="1265" arabic-form="isolated" 
d="M477 -5q-42 0 -77 9.5t-59.5 31.5t-38.5 60q-51 -11 -100.5 -8t-89 20t-63 48t-23.5 77q0 56 33 102t89 78.5t126 47.5l-4 77h96l17 -338q2 -46 13 -69.5t33.5 -31.5t57.5 -8q44 0 63 10.5t23 39t2 80.5l-13 370h97l13 -368q2 -52 13.5 -81.5t34 -40.5t55.5 -11
q45 0 65 11t23.5 39.5t1.5 80.5l-18 494h95l20 -491q3 -54 -3 -97t-26 -72.5t-60.5 -44.5t-107.5 -15q-30 0 -55 8t-43 23t-29 35q-22 -33 -61 -49.5t-100 -16.5zM287 186l-9 177q-49 -8 -84 -27t-54 -43t-19 -48q0 -21 16 -35t41 -20.5t53.5 -7t55.5 3.5zM1107 0l-20 715
h95l21 -715h-96zM526 644q-39 0 -51.5 26t-12.5 56q0 11 1 23t4 27l52 14q-3 -16 -4.5 -30.5t-1.5 -24.5q0 -18 5.5 -26t17.5 -8q14 0 22.5 14.5t9.5 58.5v30l49 17v-59q0 -13 5 -22.5t21 -9.5t21.5 10t5.5 26t-4 33t-10 34l46 13q10 -18 16 -42t6 -43q0 -33 -18 -59
t-57 -26q-28 0 -47 16.5t-19 39.5l22 -9q0 -34 -23 -56.5t-56 -22.5zM558 863l-6 168h62l6 -168h-62z" />
    <glyph glyph-name="uniFEF5" unicode="&#xfedf;&#xfe82;" horiz-adv-x="683" arabic-form="isolated" 
d="M374 536q0 25 -3 56.5t-7 62.5t-8 53l98 12q4 -20 7.5 -52.5t5.5 -65.5t2 -58q0 -48 -7 -92.5t-21 -86.5t-36 -81l-14 -24q-27 -44 -63.5 -85t-82.5 -78h96q34 0 52 7.5t24.5 19.5t6.5 26q0 26 -30.5 65t-85 87.5t-123.5 103t-147 110.5l54 76q95 -69 165.5 -126
t119.5 -103.5t80 -86t45 -73.5t14 -64q0 -25 -8 -49t-27 -44.5t-52 -33t-84 -12.5h-232v97q95 74 152 142.5t83 141t26 155.5zM194 649q-29 0 -52.5 10t-43 19.5t-35.5 9.5q-18 0 -32 -8.5t-30 -24.5l-39 35q23 30 48 46t52 16q25 0 45.5 -9.5t41 -19.5t45.5 -10
q15 0 28.5 5.5t33.5 17.5l30 -45q-32 -28 -54.5 -35t-37.5 -7z" />
    <glyph glyph-name="uniFEF6" unicode="&#xfee0;&#xfe82;" horiz-adv-x="633" arabic-form="final" 
d="M634 -5q-57 0 -95.5 10t-62 31.5t-34 54.5t-12.5 79l-18 550h96l20 -508q2 -49 9.5 -75.5t31.5 -36t74 -9.5q25 0 37 -13t12 -32q0 -20 -15.5 -35.5t-42.5 -15.5zM178 -5q-28 0 -55.5 4.5t-38.5 6.5l13 98q67 -9 127 -3t105 34t71 84t26 146l47 -131q-10 -63 -34 -105.5
t-55.5 -69t-67.5 -40.5t-71.5 -19t-66.5 -5zM377 132q-15 30 -42.5 71t-66 90t-87.5 102.5t-107 108.5l65 68q70 -70 120 -126t85.5 -101.5t59.5 -81.5t41 -67zM230 649q-29 0 -52.5 10t-43 19.5t-35.5 9.5q-18 0 -32 -8.5t-30 -24.5l-39 35q23 30 48 46t52 16
q25 0 45.5 -9.5t41 -19.5t45.5 -10q15 0 28.5 5.5t33.5 17.5l30 -45q-32 -28 -54.5 -35t-37.5 -7z" />
    <glyph glyph-name="uniFEF7" unicode="&#xfedf;&#xfe84;" horiz-adv-x="593" arabic-form="isolated" 
d="M374 536q0 25 -3 56.5t-7 62.5t-8 53l98 12q4 -20 7.5 -52.5t5.5 -65.5t2 -58q0 -48 -7 -92.5t-21 -86.5t-36 -81l-14 -24q-27 -44 -63.5 -85t-82.5 -78h96q34 0 52 7.5t24.5 19.5t6.5 26q0 26 -30.5 65t-85 87.5t-123.5 103t-147 110.5l54 76q95 -69 165.5 -126
t119.5 -103.5t80 -86t45 -73.5t14 -64q0 -25 -8 -49t-27 -44.5t-52 -33t-84 -12.5h-232v97q95 74 152 142.5t83 141t26 155.5zM29 642l-13 55q27 6 42.5 9.5t34.5 8.5l-6 -19q-25 8 -47 32t-22 56q0 30 14 49.5t36.5 29.5t47.5 10q11 0 23.5 -2t23.5 -6l-8 -52l-18 4t-19 2
q-20 0 -31.5 -9.5t-11.5 -24.5q0 -19 12.5 -32.5t28.5 -21t26 -8.5l-41 -5q25 6 47.5 13.5l40.5 13.5l16 -52q-23 -8 -53.5 -17.5t-62.5 -18t-60 -15.5z" />
    <glyph glyph-name="uniFEF8" unicode="&#xfee0;&#xfe84;" horiz-adv-x="607" arabic-form="final" 
d="M598 -5q-57 0 -95.5 10t-62 31.5t-34 54.5t-12.5 79l-18 550h96l20 -508q2 -49 9.5 -75.5t31.5 -36t74 -9.5q25 0 37 -13t12 -32q0 -20 -15.5 -35.5t-42.5 -15.5zM142 -5q-28 0 -55.5 4.5t-38.5 6.5l13 98q67 -9 127 -3t105 34t71 84t26 146l47 -131q-10 -63 -34 -105.5
t-55.5 -69t-67.5 -40.5t-71.5 -19t-66.5 -5zM341 132q-15 30 -42.5 71t-66 90t-87.5 102.5t-107 108.5l65 68q70 -70 120 -126t85.5 -101.5t59.5 -81.5t41 -67zM51 642l-13 55q27 6 42.5 9.5t34.5 8.5l-6 -19q-25 8 -47 32t-22 56q0 30 14 49.5t36.5 29.5t47.5 10
q11 0 23.5 -2t23.5 -6l-8 -52l-18 4t-19 2q-20 0 -31.5 -9.5t-11.5 -24.5q0 -19 12.5 -32.5t28.5 -21t26 -8.5l-41 -5q25 6 47.5 13.5l40.5 13.5l16 -52q-23 -8 -53.5 -17.5t-62.5 -18t-60 -15.5z" />
    <glyph glyph-name="uniFEF9" unicode="&#xfedf;&#xfe88;" horiz-adv-x="578" arabic-form="isolated" 
d="M374 536q0 25 -3 56.5t-7 62.5t-8 53l98 12q4 -20 7.5 -52.5t5.5 -65.5t2 -58q0 -48 -7 -92.5t-21 -86.5t-36 -81l-14 -24q-27 -44 -63.5 -85t-82.5 -78h96q34 0 52 7.5t24.5 19.5t6.5 26q0 26 -30.5 65t-85 87.5t-123.5 103t-147 110.5l54 76q95 -69 165.5 -126
t119.5 -103.5t80 -86t45 -73.5t14 -64q0 -25 -8 -49t-27 -44.5t-52 -33t-84 -12.5h-232v97q95 74 152 142.5t83 141t26 155.5zM98 -301l-13 55q27 6 42.5 9.5t34.5 8.5l-6 -19q-25 8 -47 32t-22 56q0 30 14 49.5t36.5 29.5t47.5 10q11 0 23.5 -2t23.5 -6l-8 -52l-18 4t-19 2
q-20 0 -31.5 -9.5t-11.5 -24.5q0 -19 12.5 -32.5t28.5 -21t26 -8.5l-41 -5q25 6 47.5 13.5l40.5 13.5l16 -52q-23 -8 -53.5 -17.5t-62.5 -18t-60 -15.5z" />
    <glyph glyph-name="uniFEFA" unicode="&#xfee0;&#xfe88;" horiz-adv-x="598" arabic-form="final" 
d="M598 -5q-57 0 -95.5 10t-62 31.5t-34 54.5t-12.5 79l-18 550h96l20 -508q2 -49 9.5 -75.5t31.5 -36t74 -9.5q25 0 37 -13t12 -32q0 -20 -15.5 -35.5t-42.5 -15.5zM142 -5q-28 0 -55.5 4.5t-38.5 6.5l13 98q67 -9 127 -3t105 34t71 84t26 146l47 -131q-10 -63 -34 -105.5
t-55.5 -69t-67.5 -40.5t-71.5 -19t-66.5 -5zM341 132q-15 30 -42.5 71t-66 90t-87.5 102.5t-107 108.5l65 68q70 -70 120 -126t85.5 -101.5t59.5 -81.5t41 -67zM97 -301l-13 55q27 6 42.5 9.5t34.5 8.5l-6 -19q-25 8 -47 32t-22 56q0 30 14 49.5t36.5 29.5t47.5 10
q11 0 23.5 -2t23.5 -6l-8 -52l-18 4t-19 2q-20 0 -31.5 -9.5t-11.5 -24.5q0 -19 12.5 -32.5t28.5 -21t26 -8.5l-41 -5q25 6 47.5 13.5l40.5 13.5l16 -52q-23 -8 -53.5 -17.5t-62.5 -18t-60 -15.5z" />
    <glyph glyph-name="uniFEFB" unicode="&#xfedf;&#xfe8e;" horiz-adv-x="578" arabic-form="isolated" 
d="M374 536q0 25 -3 56.5t-7 62.5t-8 53l98 12q4 -20 7.5 -52.5t5.5 -65.5t2 -58q0 -48 -7 -92.5t-21 -86.5t-36 -81l-14 -24q-27 -44 -63.5 -85t-82.5 -78h96q34 0 52 7.5t24.5 19.5t6.5 26q0 26 -30.5 65t-85 87.5t-123.5 103t-147 110.5l54 76q95 -69 165.5 -126
t119.5 -103.5t80 -86t45 -73.5t14 -64q0 -25 -8 -49t-27 -44.5t-52 -33t-84 -12.5h-232v97q95 74 152 142.5t83 141t26 155.5z" />
    <glyph glyph-name="uniFEFC" unicode="&#xfee0;&#xfe8e;" horiz-adv-x="598" arabic-form="final" 
d="M598 -5q-57 0 -95.5 10t-62 31.5t-34 54.5t-12.5 79l-18 550h96l20 -508q2 -49 9.5 -75.5t31.5 -36t74 -9.5q25 0 37 -13t12 -32q0 -20 -15.5 -35.5t-42.5 -15.5zM142 -5q-28 0 -55.5 4.5t-38.5 6.5l13 98q67 -9 127 -3t105 34t71 84t26 146l47 -131q-10 -63 -34 -105.5
t-55.5 -69t-67.5 -40.5t-71.5 -19t-66.5 -5zM341 132q-15 30 -42.5 71t-66 90t-87.5 102.5t-107 108.5l65 68q70 -70 120 -126t85.5 -101.5t59.5 -81.5t41 -67z" />
    <glyph glyph-name="lam_alefMaksura_meemar" unicode="&#xfedf;&#xfbe9;&#xfee2;" horiz-adv-x="1078" 
d="M822 -5l9 96q47 0 66.5 11t23.5 39.5t2 79.5l-19 494h96l20 -491q2 -54 -3.5 -97t-26 -72.5t-61 -44.5t-107.5 -15zM556 -5l10 96q39 0 63.5 6.5t37 25t12.5 54.5q0 26 -8 62t-20.5 76t-26.5 78l94 31q12 -33 24 -75t20 -85t8 -80q0 -42 -10 -73.5t-28.5 -53.5t-45 -36
t-59 -20t-71.5 -6zM78 -393q-22 79 -36.5 152.5t-22.5 131.5t-8 88q0 79 23.5 142.5t60 112t79.5 81t84 49t70 16.5q28 0 47.5 -13.5t37.5 -46.5t39 -92q20 -55 37 -85t35.5 -41t41.5 -11q25 0 36.5 -13t11.5 -33t-14.5 -35t-43.5 -15q-38 0 -68 17t-51 45l27 17
q-10 -29 -27 -49t-39.5 -30t-51.5 -10q-26 0 -55 8.5t-58 27t-56.5 48.5t-50.5 73l19 -1q-23 -38 -31.5 -81t-8.5 -81q0 -30 6 -72.5t15.5 -91t21 -96.5t21.5 -87zM350 79q17 0 28.5 6.5t15.5 19.5t-4 33q-13 38 -23.5 65t-19.5 44t-17.5 25t-17.5 8q-11 0 -27.5 -7
t-34.5 -18.5t-34 -26.5t-27 -32l-3 18q22 -44 50.5 -74.5t59 -45.5t54.5 -15z" />
    <glyph glyph-name="lam_alefWaslaar" unicode="&#xfedf;&#xfb51;" horiz-adv-x="516" 
d="M142 666q-21 0 -49.5 2t-54 5t-38.5 5l6 53q15 -2 38.5 -4.5t50 -4.5t47.5 -2q53 0 69.5 12t16.5 29q0 18 -11 26.5t-24 8.5q-15 0 -30 -10t-28.5 -28t-27.5 -43l-57 1q13 29 32.5 60.5t48 53t65.5 21.5q33 0 60 -20.5t27 -65.5q0 -24 -11.5 -47t-42 -37.5t-87.5 -14.5z
M374 536q0 25 -3 56.5t-7 62.5t-8 53l98 12q4 -20 7.5 -52.5t5.5 -65.5t2 -58q0 -48 -7 -92.5t-21 -86.5t-36 -81l-14 -24q-27 -44 -63.5 -85t-82.5 -78h96q34 0 52 7.5t24.5 19.5t6.5 26q0 25 -30.5 64.5t-85 88t-123.5 103t-147 110.5l54 76q95 -69 165.5 -126
t119.5 -103.5t80 -86t45 -73.5t14 -64q0 -25 -8 -49t-27 -44.5t-52 -33t-84 -12.5h-232v97q95 74 152 142.5t83 141t26 155.5z" />
    <glyph glyph-name="lam_alefWaslaar.fina" unicode="&#xfee0;&#xfb51;" horiz-adv-x="656" 
d="M142 666q-21 0 -49.5 2t-54 5t-38.5 5l6 53q15 -2 38.5 -4.5t50 -4.5t47.5 -2q53 0 69.5 12t16.5 29q0 18 -11 26.5t-24 8.5q-15 0 -30 -10t-28.5 -28t-27.5 -43l-57 1q13 29 32.5 60.5t48 53t65.5 21.5q33 0 60 -20.5t27 -65.5q0 -24 -11.5 -47t-42 -37.5t-87.5 -14.5z
M598 -5q-57 0 -95.5 10t-62 31.5t-34 54.5t-12.5 79l-18 550h96l20 -508q2 -49 9.5 -75.5t31.5 -36t74 -9.5q25 0 37 -13t12 -32q0 -20 -15.5 -35.5t-42.5 -15.5zM142 -5q-28 0 -55.5 4.5t-38.5 6.5l13 98q67 -9 127 -3t105 34t71 84t26 146l47 -131q-10 -63 -34 -105.5
t-55.5 -69t-67.5 -40.5t-71.5 -19t-66.5 -5zM341 132q-15 30 -42.5 71t-66 90t-87.5 102.5t-107 108.5l65 68q70 -70 120 -126t85.5 -101.5t59.5 -81.5t41 -67z" />
    <glyph glyph-name="uni0620.init" unicode="&#x620;" horiz-adv-x="301" 
d="M0 -5l10 96q54 0 85 5.5t44.5 24t13.5 56.5q0 26 -8 62t-20.5 76t-26.5 78l94 31q13 -32 24.5 -74.5t19.5 -84.5t8 -77q0 -55 -15.5 -92t-46.5 -59.5t-77 -32t-105 -9.5zM140 -110q-36 0 -61 25t-25 61t25 61.5t61 25.5t61 -25.5t25 -61.5t-25 -61t-61 -25zM140 -59
q15 0 26 10t11 25q0 16 -11 26t-26 10q-16 0 -26.5 -10t-10.5 -26q0 -15 10.5 -25t26.5 -10z" />
    <glyph glyph-name="uni0620.medi" unicode="&#x620;" horiz-adv-x="367" 
d="M0 -5l10 96q43 0 68.5 7.5t40 29.5t24 64t21.5 109l91 -17q-3 -17 -7.5 -38.5t-8 -42.5t-3.5 -38q0 -16 4.5 -29.5t18 -23.5t42 -15.5t76.5 -5.5q25 0 36.5 -13t11.5 -33t-15 -35t-43 -15q-53 0 -88 7t-56 21t-31 36t-14 51l34 -1q-16 -37 -37 -59.5t-46.5 -34.5
t-57.5 -16t-71 -4zM111 -116q-36 0 -61 25.5t-25 60.5q0 36 25 61.5t61 25.5t61.5 -25.5t25.5 -61.5t-25.5 -61t-61.5 -25zM111 -64q16 0 27 9.5t11 24.5q0 16 -11 26t-27 10q-15 0 -26 -10t-11 -26q0 -14 11 -24t26 -10z" />
    <glyph glyph-name="uni0620.fina" unicode="&#x620;" horiz-adv-x="712" 
d="M323 -354q-36 0 -61 25.5t-25 61.5t25 61t61 25t61.5 -25t25.5 -61t-25.5 -61.5t-61.5 -25.5zM323 -302q16 0 27 10t11 25t-11 25.5t-27 10.5q-15 0 -26 -10.5t-11 -25.5t11 -25t26 -10zM34 1q0 25 4.5 55.5t15.5 66t29 74.5l84 -33q-12 -30 -20.5 -56t-12.5 -49t-4 -44
q0 -42 17 -70.5t47 -46.5t68.5 -26t80.5 -8q56 0 101 10t77 27.5t49.5 38.5t17.5 43q0 11 -8.5 21.5t-26.5 20.5t-45 20t-64 21l24 95q52 -20 91.5 -33.5t69.5 -21.5t53 -11.5t41 -3.5q25 0 36 -13t11 -33t-14.5 -35t-42.5 -15h-12h-12.5h-12.5q2 -8 3 -14.5t1 -14.5
q0 -34 -22.5 -68.5t-67 -64t-110 -47t-151.5 -17.5q-89 0 -155.5 26.5t-103 78.5t-36.5 127z" />
    <glyph glyph-name="uni063B.init" unicode="&#x63b;" horiz-adv-x="394" 
d="M235 718q-21 0 -35.5 14.5t-14.5 34.5q0 21 14.5 35.5t35.5 14.5q20 0 34.5 -14.5t14.5 -35.5q0 -20 -14.5 -34.5t-34.5 -14.5zM119 663q-21 0 -35.5 14t-14.5 34q0 21 14.5 36t35.5 15q20 0 34.5 -15t14.5 -36q0 -20 -14.5 -34t-34.5 -14zM0 -5l10 96h97q42 0 68 5.5
t39 15.5t18 22.5t5 26.5q0 26 -18 60.5t-61 77.5q-27 28 -51.5 50.5t-43.5 40t-30 29t-11 18.5q0 14 2.5 30t7 30t11.5 21q15 16 42 35.5t66 42.5t91 50.5t118 60.5l42 -83q-66 -32 -114.5 -57t-84.5 -45.5t-64.5 -39t-54.5 -39.5l12 45q56 -49 99.5 -93t74.5 -84.5t47 -80
t16 -79.5q0 -25 -9.5 -52t-35 -51t-73.5 -38.5t-124 -14.5h-91z" />
    <glyph glyph-name="uni063B.medi" unicode="&#x63b;" horiz-adv-x="466" 
d="M222 718q-21 0 -35.5 14t-14.5 34q0 21 14.5 36t35.5 15q20 0 34.5 -15t14.5 -36q0 -20 -14.5 -34t-34.5 -14zM106 662q-21 0 -35.5 14.5t-14.5 34.5t14.5 35t35.5 15q20 0 34.5 -15t14.5 -35t-14.5 -34.5t-34.5 -14.5zM0 -5l10 96h85q58 0 88.5 7.5t41.5 22t11 35.5
t-15.5 48t-39.5 55.5t-51.5 57t-52 53t-40 42.5t-15.5 25q0 18 2.5 34t7.5 29t12 19q18 19 51 42t75.5 47t91 49t98.5 50l42 -83q-49 -24 -94 -47.5t-85 -45.5t-74.5 -43t-61.5 -42l4 39q38 -36 71.5 -68.5t63.5 -66.5t58 -73.5t54 -88.5q23 -41 46 -62t46.5 -28t45.5 -7
q25 0 36.5 -13t11.5 -33t-15 -35t-43 -15q-32 0 -66 10.5t-64 37.5t-51 75l37 -8q-12 -32 -31.5 -54t-48 -35.5t-66 -19.5t-86.5 -6h-90z" />
    <glyph glyph-name="uni063B.fina" unicode="&#x63b;" horiz-adv-x="916" 
d="M683 718q-21 0 -35.5 14.5t-14.5 34.5q0 21 14.5 35.5t35.5 14.5q20 0 34.5 -14.5t14.5 -35.5q0 -20 -14.5 -34.5t-34.5 -14.5zM567 663q-21 0 -35.5 14t-14.5 34q0 21 14.5 36t35.5 15q20 0 34.5 -15t14.5 -36q0 -20 -14.5 -34t-34.5 -14zM367 -21l26 96q81 0 137.5 5.5
t90.5 16t49.5 25t15.5 32.5q0 22 -15.5 49t-39.5 56t-51.5 57.5t-52 52.5t-40 42t-15.5 26q0 17 2.5 32.5t7.5 28.5t12 20q25 27 74 58t112.5 64t130.5 67l41 -83q-67 -35 -125.5 -65.5t-106 -58.5t-85.5 -57l6 42q37 -33 71 -67t66 -71t60 -77t51 -85q16 -30 33.5 -49
t35.5 -29t35 -13t33 -3q25 0 36.5 -13.5t11.5 -33.5t-14.5 -34.5t-43.5 -14.5q-32 0 -66.5 11t-64.5 38t-49 73l36 -7q-15 -36 -42.5 -61t-74 -40.5t-117 -22.5t-171.5 -7zM367 -21q-82 0 -144.5 12t-105 37.5t-64.5 64t-22 91.5q0 27 4.5 56t12 57.5t14.5 53.5l86 -22
q-4 -16 -9 -37t-9 -43t-4 -40q0 -44 23.5 -74t81.5 -45t162 -15l20 -64z" />
    <glyph glyph-name="uni063C.init" unicode="&#x63c;" horiz-adv-x="394" 
d="M0 -5l10 96h97q42 0 68 5.5t39 15.5t18 22.5t5 26.5q0 26 -18 60.5t-61 77.5q-27 28 -51.5 50.5t-43.5 40t-30 29t-11 18.5q0 14 2.5 30t7 30t11.5 21q15 16 42 35.5t66 42.5t91 50.5t118 60.5l42 -83q-66 -32 -114.5 -57t-84.5 -45.5t-64.5 -39t-54.5 -39.5l12 45
q56 -49 99.5 -93t74.5 -84.5t47 -80t16 -79.5q0 -25 -9.5 -52t-35 -51t-73.5 -38.5t-124 -14.5h-91zM166 -314q-22 0 -37.5 15t-15.5 37q0 21 15.5 37t37.5 16q21 0 36.5 -16t15.5 -37q0 -22 -15.5 -37t-36.5 -15zM96 -196q-22 0 -37.5 15t-15.5 36q0 22 15.5 38t37.5 16
q21 0 36.5 -16t15.5 -38q0 -21 -15.5 -36t-36.5 -15zM237 -196q-23 0 -38.5 15t-15.5 36q0 22 15.5 38t38.5 16q21 0 36 -16t15 -38q0 -21 -15 -36t-36 -15z" />
    <glyph glyph-name="uni063C.medi" unicode="&#x63c;" horiz-adv-x="466" 
d="M0 -5l10 96h85q58 0 88.5 7.5t41.5 22t11 35.5t-15.5 48t-39.5 55.5t-51.5 57t-52 53t-40 42.5t-15.5 25q0 18 2.5 34t7.5 29t12 19q18 19 51 42t75.5 47t91 49t98.5 50l42 -83q-49 -24 -94 -47.5t-85 -45.5t-74.5 -43t-61.5 -42l4 39q38 -36 71.5 -68.5t63.5 -66.5
t58 -73.5t54 -88.5q23 -41 46 -62t46.5 -28t45.5 -7q25 0 36.5 -13t11.5 -33t-15 -35t-43 -15q-32 0 -66 10.5t-64 37.5t-51 75l37 -8q-12 -32 -31.5 -54t-48 -35.5t-66 -19.5t-86.5 -6h-90zM167 -314q-22 0 -37.5 15t-15.5 37q0 21 15.5 37t37.5 16q21 0 36.5 -16t15.5 -37
q0 -22 -15.5 -37t-36.5 -15zM97 -196q-22 0 -37.5 15t-15.5 36q0 22 15.5 38t37.5 16q21 0 36.5 -16t15.5 -38q0 -21 -15.5 -36t-36.5 -15zM238 -196q-23 0 -38.5 15t-15.5 36q0 22 15.5 38t38.5 16q21 0 36 -16t15 -38q0 -21 -15 -36t-36 -15z" />
    <glyph glyph-name="uni063C.fina" unicode="&#x63c;" horiz-adv-x="916" 
d="M367 -21l26 96q81 0 137.5 5.5t90.5 16t49.5 25t15.5 32.5q0 22 -15.5 49t-39.5 56t-51.5 57.5t-52 52.5t-40 42t-15.5 26q0 17 2.5 32.5t7.5 28.5t12 20q25 27 74 58t112.5 64t130.5 67l41 -83q-67 -35 -125.5 -65.5t-106 -58.5t-85.5 -57l6 42q37 -33 71 -67t66 -71
t60 -77t51 -85q16 -30 33.5 -49t35.5 -29t35 -13t33 -3q25 0 36.5 -13.5t11.5 -33.5t-14.5 -34.5t-43.5 -14.5q-32 0 -66.5 11t-64.5 38t-49 73l36 -7q-15 -36 -42.5 -61t-74 -40.5t-117 -22.5t-171.5 -7zM367 -21q-82 0 -144.5 12t-105 37.5t-64.5 64t-22 91.5q0 27 4.5 56
t12 57.5t14.5 53.5l86 -22q-4 -16 -9 -37t-9 -43t-4 -40q0 -44 23.5 -74t81.5 -45t162 -15l20 -64zM395 -335q-22 0 -37.5 15t-15.5 37q0 21 15.5 37t37.5 16q21 0 36.5 -16t15.5 -37q0 -22 -15.5 -37t-36.5 -15zM325 -217q-22 0 -37.5 15t-15.5 36q0 22 15.5 38t37.5 16
q21 0 36.5 -16t15.5 -38q0 -21 -15.5 -36t-36.5 -15zM466 -217q-23 0 -38.5 15t-15.5 36q0 22 15.5 38t38.5 16q21 0 36 -16t15 -38q0 -21 -15 -36t-36 -15z" />
    <glyph glyph-name="uni063D.init" unicode="&#x63d;" horiz-adv-x="265" 
d="M0 -5l10 96q39 0 63.5 6.5t37 25t12.5 54.5q0 26 -8 62t-20.5 76t-26.5 78l94 31q12 -33 24 -75t20 -85t8 -80q0 -42 -10 -73.5t-28.5 -53.5t-45 -36t-59 -20t-71.5 -6zM139 742q7 -14 17.5 -38t22.5 -50.5t23.5 -50.5t19.5 -40l-47 -24q-6 10 -16 30.5t-21.5 44.5
t-22 46.5t-17.5 36.5l-20 40zM78 737l46 -18q-6 -16 -17 -43.5t-23 -56t-22 -51t-14 -30.5l-47 19q5 10 15 33t22.5 51t23.5 54t16 42zM186 -204q-23 0 -39 16t-16 38t16 38.5t39 16.5q22 0 37.5 -16.5t15.5 -38.5t-15.5 -38t-37.5 -16zM41 -204q-23 0 -38.5 16t-15.5 38
t15.5 38.5t38.5 16.5q22 0 38 -16.5t16 -38.5t-16 -38t-38 -16z" />
    <glyph glyph-name="uni063D.medi" unicode="&#x63d;" horiz-adv-x="325" 
d="M0 -5l10 96q35 0 56 7.5t33 29t21.5 63.5t21.5 110l91 -17q-4 -17 -8.5 -38.5t-7.5 -42.5t-3 -38q0 -21 9 -38t35 -26.5t77 -9.5q26 0 37 -13t11 -33t-14.5 -35t-43.5 -15q-58 0 -93.5 12t-53.5 38t-24 65l36 -1q-16 -39 -36.5 -61.5t-44.5 -34t-51.5 -15t-57.5 -3.5z
M184 624q7 -14 17.5 -38t22.5 -50.5t23.5 -50.5t19.5 -40l-47 -24q-6 10 -16 30.5t-21.5 44.5t-22 46.5t-17.5 36.5l-20 40zM123 619l46 -18q-6 -16 -17 -43.5t-23 -56t-22 -51t-14 -30.5l-47 19q5 10 15 33t22.5 51t23.5 54t16 42zM231 -204q-23 0 -39 16t-16 38t16 38.5
t39 16.5q22 0 37.5 -16.5t15.5 -38.5t-15.5 -38t-37.5 -16zM86 -204q-23 0 -38.5 16t-15.5 38t15.5 38.5t38.5 16.5q22 0 38 -16.5t16 -38.5t-16 -38t-38 -16z" />
    <glyph glyph-name="uni063D.fina" unicode="&#x63d;" horiz-adv-x="712" 
d="M34 1q0 25 4.5 55.5t15.5 66t29 74.5l84 -33q-12 -30 -20.5 -56t-12.5 -49t-4 -44q0 -42 17 -70.5t47 -46.5t68.5 -26t80.5 -8q56 0 101 10t77 27.5t49.5 38.5t17.5 43q0 11 -8.5 21.5t-26.5 20.5t-45 20t-64 21l24 95q52 -20 91.5 -33.5t69.5 -21.5t53 -11.5t41 -3.5
q25 0 36 -13t11 -33t-14.5 -35t-42.5 -15h-12h-12.5h-12.5q2 -8 3 -14.5t1 -14.5q0 -34 -22.5 -68.5t-67 -64t-110 -47t-151.5 -17.5q-89 0 -155.5 26.5t-103 78.5t-36.5 127zM242 494q7 -14 17.5 -38t22.5 -50.5t23.5 -50.5t19.5 -40l-47 -24q-6 10 -16 30.5t-21.5 44.5
t-22 46.5t-17.5 36.5l-20 40zM181 489l46 -18q-6 -16 -17 -43.5t-23 -56t-22 -51t-14 -30.5l-47 19q5 10 15 33t22.5 51t23.5 54t16 42z" />
    <glyph glyph-name="uni063E.init" unicode="&#x63e;" horiz-adv-x="301" 
d="M0 -5l10 96q54 0 85 5.5t44.5 24t13.5 56.5q0 26 -8 62t-20.5 76t-26.5 78l94 31q13 -32 24.5 -74.5t19.5 -84.5t8 -77q0 -55 -15.5 -92t-46.5 -59.5t-77 -32t-105 -9.5zM222 525q-23 0 -39 16t-16 38t16 38.5t39 16.5q22 0 37.5 -16.5t15.5 -38.5t-16 -38t-37 -16z
M77 526q-23 0 -39 15.5t-16 37.5t16 38.5t39 16.5q22 0 38 -16.5t16 -38.5t-16 -37.5t-38 -15.5zM193 -204q-23 0 -39 16t-16 38t16 38.5t39 16.5q22 0 37.5 -16.5t15.5 -38.5t-15.5 -38t-37.5 -16zM48 -204q-23 0 -38.5 16t-15.5 38t15.5 38.5t38.5 16.5q22 0 38 -16.5
t16 -38.5t-16 -38t-38 -16z" />
    <glyph glyph-name="uni063E.medi" unicode="&#x63e;" horiz-adv-x="367" 
d="M0 -5l10 96q43 0 68.5 7.5t40 29.5t24 64t21.5 109l91 -17q-3 -17 -7.5 -38.5t-8 -42.5t-3.5 -38q0 -16 4.5 -29.5t18 -23.5t42 -15.5t76.5 -5.5q25 0 36.5 -13t11.5 -33t-15 -35t-43 -15q-53 0 -88 7t-56 21t-31 36t-14 51l34 -1q-16 -37 -37 -59.5t-46.5 -34.5
t-57.5 -16t-71 -4zM273 426q-23 0 -39 15.5t-16 37.5t16 38.5t39 16.5q22 0 37.5 -16.5t15.5 -38.5t-15.5 -37.5t-37.5 -15.5zM128 426q-22 0 -38 15.5t-16 37.5q0 23 15.5 39t38.5 16q22 0 38 -16t16 -38q0 -23 -16 -38.5t-38 -15.5zM249 -204q-23 0 -39 16t-16 38t16 38.5
t39 16.5q22 0 37.5 -16.5t15.5 -38.5t-15.5 -38t-37.5 -16zM105 -204q-23 0 -39 16t-16 38t15.5 38.5t39.5 16.5q22 0 37.5 -16.5t15.5 -38.5t-16 -38t-37 -16z" />
    <glyph glyph-name="uni063E.fina" unicode="&#x63e;" horiz-adv-x="712" 
d="M34 1q0 25 4.5 55.5t15.5 66t29 74.5l84 -33q-12 -30 -20.5 -56t-12.5 -49t-4 -44q0 -42 17 -70.5t47 -46.5t68.5 -26t80.5 -8q56 0 101 10t77 27.5t49.5 38.5t17.5 43q0 11 -8.5 21.5t-26.5 20.5t-45 20t-64 21l24 95q52 -20 91.5 -33.5t69.5 -21.5t53 -11.5t41 -3.5
q25 0 36 -13t11 -33t-14.5 -35t-42.5 -15h-12h-12.5h-12.5q2 -8 3 -14.5t1 -14.5q0 -34 -22.5 -68.5t-67 -64t-110 -47t-151.5 -17.5q-89 0 -155.5 26.5t-103 78.5t-36.5 127zM299 295q-23 0 -38.5 15.5t-15.5 37.5q0 23 15.5 39t38.5 16q22 0 38 -16t16 -38
q0 -23 -16 -38.5t-38 -15.5zM155 295q-23 0 -39 16t-16 38t16 38.5t39 16.5q22 0 37.5 -16.5t15.5 -38.5t-15.5 -38t-37.5 -16z" />
    <glyph glyph-name="uni063F.init" unicode="&#x63f;" horiz-adv-x="301" 
d="M0 -5l10 96q54 0 85 5.5t44.5 24t13.5 56.5q0 26 -8 62t-20.5 76t-26.5 78l94 31q13 -32 24.5 -74.5t19.5 -84.5t8 -77q0 -55 -15.5 -92t-46.5 -59.5t-77 -32t-105 -9.5zM152 640q-22 0 -38 15.5t-16 37.5t15.5 37.5t38.5 15.5q21 0 36.5 -15.5t15.5 -37.5t-15.5 -37.5
t-36.5 -15.5zM81 522q-22 0 -37.5 16t-15.5 37q0 22 15.5 37.5t37.5 15.5t37.5 -15.5t15.5 -37.5t-15.5 -37.5t-37.5 -15.5zM222 522q-22 0 -37.5 16t-15.5 37q0 22 15.5 37.5t37.5 15.5t37 -15.5t15 -37.5t-15 -37.5t-37 -15.5zM193 -204q-23 0 -39 16t-16 38t16 38.5
t39 16.5q22 0 37.5 -16.5t15.5 -38.5t-15.5 -38t-37.5 -16zM48 -204q-23 0 -38.5 16t-15.5 38t15.5 38.5t38.5 16.5q22 0 38 -16.5t16 -38.5t-16 -38t-38 -16z" />
    <glyph glyph-name="uni063F.medi" unicode="&#x63f;" horiz-adv-x="367" 
d="M0 -5l10 96q43 0 68.5 7.5t40 29.5t24 64t21.5 109l91 -17q-3 -17 -7.5 -38.5t-8 -42.5t-3.5 -38q0 -16 4.5 -29.5t18 -23.5t42 -15.5t76.5 -5.5q25 0 36.5 -13t11.5 -33t-15 -35t-43 -15q-53 0 -88 7t-56 21t-31 36t-14 51l34 -1q-16 -37 -37 -59.5t-46.5 -34.5
t-57.5 -16t-71 -4zM199 540q-22 0 -37.5 16t-15.5 37q0 22 15.5 37.5t37.5 15.5t37 -15.5t15 -37.5q0 -21 -15 -37t-37 -16zM129 423q-22 0 -37.5 15.5t-15.5 36.5q0 22 15.5 38t37.5 16q21 0 36.5 -16t15.5 -38q0 -21 -15.5 -36.5t-36.5 -15.5zM270 423q-23 0 -38.5 15.5
t-15.5 36.5q0 22 15.5 38t38.5 16q21 0 36.5 -16t15.5 -38q0 -21 -15.5 -36.5t-36.5 -15.5zM249 -204q-23 0 -39 16t-16 38t16 38.5t39 16.5q22 0 37.5 -16.5t15.5 -38.5t-15.5 -38t-37.5 -16zM105 -204q-23 0 -39 16t-16 38t16 38.5t39 16.5q22 0 37.5 -16.5t15.5 -38.5
t-16 -38t-37 -16z" />
    <glyph glyph-name="uni063F.fina" unicode="&#x63f;" horiz-adv-x="712" 
d="M34 1q0 25 4.5 55.5t15.5 66t29 74.5l84 -33q-12 -30 -20.5 -56t-12.5 -49t-4 -44q0 -42 17 -70.5t47 -46.5t68.5 -26t80.5 -8q56 0 101 10t77 27.5t49.5 38.5t17.5 43q0 11 -8.5 21.5t-26.5 20.5t-45 20t-64 21l24 95q52 -20 91.5 -33.5t69.5 -21.5t53 -11.5t41 -3.5
q25 0 36 -13t11 -33t-14.5 -35t-42.5 -15h-12h-12.5h-12.5q2 -8 3 -14.5t1 -14.5q0 -34 -22.5 -68.5t-67 -64t-110 -47t-151.5 -17.5q-89 0 -155.5 26.5t-103 78.5t-36.5 127zM225 404q-23 0 -38.5 15.5t-15.5 37.5q0 21 15.5 37t38.5 16q21 0 36.5 -16t15.5 -37
q0 -22 -15.5 -37.5t-36.5 -15.5zM154 286q-22 0 -37.5 15.5t-15.5 37.5t15.5 37.5t37.5 15.5t37.5 -15.5t15.5 -37.5t-15.5 -37.5t-37.5 -15.5zM295 286q-22 0 -37.5 15.5t-15.5 37.5t15.5 37.5t37.5 15.5t37 -15.5t15 -37.5t-15.5 -37.5t-36.5 -15.5z" />
    <glyph glyph-name="uni066E.init" unicode="&#x66e;" horiz-adv-x="265" 
d="M0 -5l10 96q39 0 63.5 6.5t37 25t12.5 54.5q0 26 -8 62t-20.5 76t-26.5 78l94 31q12 -33 24 -75t20 -85t8 -80q0 -42 -10 -73.5t-28.5 -53.5t-45 -36t-59 -20t-71.5 -6z" />
    <glyph glyph-name="uni066E.medi" unicode="&#x66e;" horiz-adv-x="325" 
d="M0 -5l10 96q35 0 56 7.5t33 29t21.5 63.5t21.5 110l91 -17q-4 -17 -8.5 -38.5t-7.5 -42.5t-3 -38q0 -21 9 -38t35 -26.5t77 -9.5q26 0 37 -13t11 -33t-14.5 -35t-43.5 -15q-58 0 -93.5 12t-53.5 38t-24 65l36 -1q-16 -39 -36.5 -61.5t-44.5 -34t-51.5 -15t-57.5 -3.5z
" />
    <glyph glyph-name="uni066E.fina" unicode="&#x66e;" horiz-adv-x="1006" 
d="M368 -21l26 96q60 0 121 7.5t119 27t110 54.5t92 90l75 -40q-9 -23 -12.5 -37.5t-3.5 -25.5q0 -15 10.5 -29t37 -22.5t73.5 -8.5q26 0 37 -13t11 -33t-14.5 -35t-42.5 -15q-58 0 -103 14.5t-69 44t-19 74.5l27 -2q-35 -39 -86 -67t-113 -45.5t-132 -26t-144 -8.5z
M368 -21q-81 0 -144 12t-105.5 37.5t-64.5 64t-22 91.5q0 27 4.5 56t12 57.5t14.5 53.5l86 -22q-4 -16 -9 -37t-9 -43t-4 -40q0 -44 23.5 -74t82 -45t161.5 -15l20 -64z" />
    <glyph glyph-name="uni066F.init" unicode="&#x66f;" horiz-adv-x="436" 
d="M0 -5l10 96h66t60.5 2t51.5 6t39 11q28 11 44.5 30.5t23.5 51t7 77.5q0 45 -9 81t-26 57t-43 21q-18 0 -34.5 -15t-26 -40t-9.5 -54q0 -21 9 -35t26.5 -21t43.5 -7q24 0 49 5.5t44 15.5l4 -80q-14 -11 -33 -18t-39.5 -10.5t-40.5 -3.5q-51 0 -86 17t-52.5 47.5
t-17.5 70.5t12 79.5t34.5 71.5t54 51.5t70.5 19.5q55 0 91 -35t54 -94t18 -130q0 -73 -23.5 -128.5t-75.5 -89.5q-23 -15 -53.5 -25t-68 -15.5t-81 -7.5t-93.5 -2z" />
    <glyph glyph-name="uni066F.medi" unicode="&#x66f;" horiz-adv-x="469" 
d="M0 -5l10 96q26 -1 52.5 0.5t51 4.5t47 7.5t40.5 11.5q32 11 57 29t40 42.5t15 54.5q0 23 -9.5 45.5t-25.5 37.5t-37 15q-20 0 -37.5 -14.5t-28 -37.5t-10.5 -49q0 -30 14 -54t36.5 -42t46.5 -31l-100 -36q-19 16 -40.5 38.5t-37 54.5t-15.5 74q0 39 14.5 73.5t38.5 60.5
t55.5 41t66.5 15q49 0 86 -26t58 -68t21 -88q0 -42 -14.5 -76t-39 -61t-56 -47t-67.5 -34q-22 -10 -49.5 -17t-58 -11.5t-62 -6.5t-62.5 -2zM469 -5q-47 0 -96 6t-93 17t-75 26l68 64q29 -6 66.5 -10t74.5 -5.5t65 -1.5q25 0 36.5 -13t11.5 -33t-15 -35t-43 -15z" />
    <glyph glyph-name="uni066F.fina" unicode="&#x66f;" horiz-adv-x="782" 
d="M322 -272q-57 0 -109.5 13.5t-94 42t-65.5 74t-24 109.5q0 18 3.5 46.5t15.5 68.5t37 89l85 -37q-15 -33 -24.5 -59t-14 -48t-4.5 -46q0 -54 28.5 -89t76.5 -51.5t108 -16.5q41 0 76.5 6t65 17t53 26.5t40 35t25.5 41.5q13 30 18.5 67t5.5 71q0 51 -9.5 88t-27 57.5
t-40.5 20.5q-15 0 -28 -9.5t-22 -25t-14.5 -34t-5.5 -37.5q0 -18 7 -30t22.5 -18.5t41 -8.5t62.5 0h182q25 0 36.5 -13t11.5 -33q0 -21 -15.5 -35.5t-42.5 -14.5h-214q-43 0 -76.5 8t-58 25t-37 42.5t-13.5 60.5q0 39 12.5 77.5t36 70t55 50.5t68.5 19q49 0 86 -31.5
t57.5 -92t20.5 -146.5q0 -44 -12 -93.5t-33 -90.5q-23 -44 -58.5 -75.5t-81 -51.5t-99 -29.5t-113.5 -9.5z" />
    <glyph glyph-name="uni0672.fina" unicode="&#x672;" horiz-adv-x="282" 
d="M282 -5q-75 0 -117 18.5t-59.5 57t-20.5 99.5l-18 479h96l18 -437q2 -49 10 -75t31.5 -36t69.5 -10q26 0 37 -13t11 -33t-14.5 -35t-43.5 -15zM-33 727l-44 26q12 27 32.5 39t37.5 12q24 0 41 -10.5t34 -10.5q11 0 22 1t20 5l-10 -17q-26 10 -48.5 34.5t-22.5 56.5
q0 44 30.5 67t71.5 23q11 0 23.5 -2t23.5 -6l-8 -52l-18 4t-20 2q-22 0 -34 -9t-12 -25q0 -20 12.5 -34.5t29.5 -22.5t28 -8l-35 -8q26 7 46 15t38 15l17 -50q-8 -3 -25.5 -10.5t-40 -15.5t-45.5 -13t-40 -5q-26 0 -43.5 10.5t-30.5 10.5q-10 0 -16.5 -6t-13.5 -16z" />
    <glyph glyph-name="uni0673.fina" unicode="&#x673;" horiz-adv-x="285" 
d="M285 -5q-76 0 -118 18.5t-60 57t-20 99.5l-20 545h96l20 -503q2 -49 10 -75t31.5 -36t70.5 -10q25 0 36.5 -13t11.5 -33t-15 -35t-43 -15zM-8 -297l-43 27q12 27 32.5 39t37.5 12q24 0 41 -10.5t33 -10.5q12 0 23 1t19 5l-10 -18q-26 10 -48 35t-22 57q0 43 30.5 66
t70.5 23q12 0 24.5 -1.5t23.5 -5.5l-8 -52q-10 2 -18.5 4t-19.5 2q-22 0 -34.5 -9t-12.5 -25q0 -20 13 -34.5t30 -22.5t27 -8l-34 -8q26 7 46 15t38 15l17 -50q-8 -4 -26 -11.5t-40.5 -15t-45 -13t-40.5 -5.5q-25 0 -43 11t-30 11q-11 0 -17 -6t-14 -17z" />
    <glyph glyph-name="uni0675.fina" unicode="&#x675;" horiz-adv-x="446" 
d="M446 -5h-164q-74 0 -116 18.5t-59.5 57.5t-19.5 99l-20 545h96l20 -503q2 -48 10 -74t30.5 -36.5t68.5 -10.5h164q25 0 36.5 -13t11.5 -33t-14.5 -35t-43.5 -15zM233 581l-13 56q28 6 44 10l36 9l-7 -22q-26 8 -48.5 33.5t-22.5 57.5q0 31 14.5 51.5t37.5 30t49 9.5
q12 0 24.5 -2t23.5 -6l-8 -52q-9 2 -18.5 4t-20.5 2q-21 0 -33.5 -9t-12.5 -25q0 -20 13 -34.5t30 -22.5t27 -9l-40 -3q26 6 49 13.5t42 14.5l17 -53q-24 -9 -56 -18.5t-65 -18.5t-62 -16z" />
    <glyph glyph-name="uni0676.fina" unicode="&#x676;" horiz-adv-x="457" 
d="M52 -230l-21 93q65 10 114.5 27t82.5 44t50 67.5t17 96.5q1 69 -20 113t-57 44q-20 0 -36 -15.5t-25 -41t-9 -52.5q0 -17 7 -28.5t22 -18t40 -8.5t62 0h188q24 0 36 -12.5t12 -33.5q0 -22 -16 -36t-42 -14h-225q-54 0 -94 14.5t-62 44.5t-22 75q0 42 13 82t35.5 72.5
t54 52t69.5 19.5q49 0 86 -31.5t57 -89t20 -135.5q-1 -96 -40 -165t-114 -110t-183 -54zM280 403l-13 55q27 6 42.5 9.5t34.5 8.5l-6 -19q-25 8 -47 32t-22 56q0 30 14 49.5t36.5 29.5t47.5 10q11 0 23.5 -2t23.5 -6l-8 -52l-18 4t-19 2q-20 0 -31.5 -9.5t-11.5 -24.5
q0 -19 12.5 -32.5t28.5 -21t26 -8.5l-41 -5q25 6 47.5 13.5l40.5 13.5l16 -52q-23 -8 -53.5 -17.5t-62.5 -18t-60 -15.5z" />
    <glyph glyph-name="uni0677.fina" unicode="&#x677;" horiz-adv-x="495" 
d="M90 -230l-21 93q65 10 114.5 27t82.5 44t50 67.5t17 96.5q1 69 -20 113t-57 44q-20 0 -36 -15.5t-25 -41t-9 -52.5q0 -17 7 -28.5t22 -18t40 -8.5t62 0h188q24 0 36 -12.5t12 -33.5q0 -22 -16 -36t-42 -14h-225q-54 0 -94 14.5t-62 44.5t-22 75q0 42 13 82t35.5 72.5
t54 52t69.5 19.5q49 0 86 -31.5t57 -89t20 -135.5q-1 -96 -40 -165t-114 -110t-183 -54zM327 403l-13 55q27 6 42.5 9.5t34.5 8.5l-6 -19q-25 8 -47 32t-22 56q0 30 14 49.5t36.5 29.5t47.5 10q11 0 23.5 -2t23.5 -6l-8 -52l-18 4t-19 2q-20 0 -31.5 -9.5t-11.5 -24.5
q0 -19 12.5 -32.5t28.5 -21t26 -8.5l-41 -5q25 6 47.5 13.5l40.5 13.5l16 -52q-23 -8 -53.5 -17.5t-62.5 -18t-60 -15.5zM34 399l-9 50q62 4 104 19t63 37.5t21 44.5q0 17 -8 28t-23 11q-14 0 -23.5 -10t-9.5 -24q0 -19 15 -34.5t38 -23.5l-34 -32q-30 12 -52 34.5t-22 56.5
q0 35 25 60.5t65 25.5t61 -27.5t21 -62.5q0 -43 -29 -76.5t-81.5 -53t-121.5 -23.5z" />
    <glyph glyph-name="uni0678.init" unicode="&#x678;" horiz-adv-x="331" 
d="M0 -5l10 96q39 0 63.5 6.5t37 25t12.5 54.5q0 26 -8 62t-20.5 76t-26.5 78l94 31q12 -33 24 -75t20 -85t8 -80q0 -42 -10 -73.5t-28.5 -53.5t-45 -36t-59 -20t-71.5 -6zM152 581l-13 56q28 6 44 10l36 9l-7 -22q-26 8 -48.5 33.5t-22.5 57.5q0 31 14.5 51.5t37.5 30
t49 9.5q12 0 24.5 -2t23.5 -6l-8 -52q-9 2 -18.5 4t-20.5 2q-21 0 -33.5 -9t-12.5 -25q0 -20 13 -34.5t30 -22.5t27 -9l-40 -3q26 6 49 13.5t42 14.5l17 -53q-24 -9 -56 -18.5t-65 -18.5t-62 -16z" />
    <glyph glyph-name="uni0678.medi" unicode="&#x678;" horiz-adv-x="326" 
d="M0 -5l10 96q35 0 56 7.5t33 29t21.5 63.5t21.5 110l91 -17q-4 -17 -8.5 -38.5t-7.5 -42.5t-3 -38q0 -21 9 -38t35 -26.5t77 -9.5q26 0 37 -13t11 -33t-14.5 -35t-43.5 -15q-58 0 -93.5 12t-53.5 38t-24 65l36 -1q-16 -39 -36.5 -61.5t-44.5 -34t-51.5 -15t-57.5 -3.5z
M149 412l-13 56q28 6 44 10l36 9l-7 -22q-26 8 -48.5 33.5t-22.5 57.5q0 31 14.5 51.5t37.5 30t49 9.5q12 0 24.5 -2t23.5 -6l-8 -52q-9 2 -18.5 4t-20.5 2q-21 0 -33.5 -9t-12.5 -25q0 -20 13 -34.5t30 -22.5t27 -9l-40 -3q26 6 49 13.5t42 14.5l17 -53q-24 -9 -56 -18.5
t-65 -18.5t-62 -16z" />
    <glyph glyph-name="uni0678.fina" unicode="&#x678;" horiz-adv-x="712" 
d="M34 1q0 25 4.5 55.5t15.5 66t29 74.5l84 -33q-12 -30 -20.5 -56t-12.5 -49t-4 -44q0 -42 17 -70.5t47 -46.5t68.5 -26t80.5 -8q56 0 101 10t77 27.5t49.5 38.5t17.5 43q0 11 -8.5 21.5t-26.5 20.5t-45 20t-64 21l24 95q52 -20 91.5 -33.5t69.5 -21.5t53 -11.5t41 -3.5
q25 0 36 -13t11 -33t-14.5 -35t-42.5 -15h-12h-12.5h-12.5q2 -8 3 -14.5t1 -14.5q0 -34 -22.5 -68.5t-67 -64t-110 -47t-151.5 -17.5q-89 0 -155.5 26.5t-103 78.5t-36.5 127zM486 215l-13 56q28 6 44 10l36 9l-7 -22q-26 8 -48.5 33.5t-22.5 57.5q0 31 14.5 51.5t37.5 30
t49 9.5q12 0 24.5 -2t23.5 -6l-8 -52q-9 2 -18.5 4t-20.5 2q-21 0 -33.5 -9t-12.5 -25q0 -20 13 -34.5t30 -22.5t27 -9l-40 -3q26 6 49 13.5t42 14.5l17 -53q-24 -9 -56 -18.5t-65 -18.5t-62 -16z" />
    <glyph glyph-name="uni067C.init" unicode="&#x67c;" horiz-adv-x="301" 
d="M0 -5l10 96q54 0 85 5.5t44.5 24t13.5 56.5q0 26 -8 62t-20.5 76t-26.5 78l94 31q13 -32 24.5 -74.5t19.5 -84.5t8 -77q0 -55 -15.5 -92t-46.5 -59.5t-77 -32t-105 -9.5zM135 -113q-36 0 -61 25.5t-25 60.5q0 36 25 61.5t61 25.5t61.5 -25.5t25.5 -61.5
q0 -35 -25.5 -60.5t-61.5 -25.5zM135 -61q16 0 27 10t11 24q0 16 -11 26.5t-27 10.5q-15 0 -26 -10.5t-11 -26.5q0 -14 11 -24t26 -10zM223 522q-23 0 -39 16t-16 38t16 38.5t39 16.5q22 0 37.5 -16.5t15.5 -38.5t-16 -38t-37 -16zM78 522q-23 0 -39 16t-16 38t16 38.5
t39 16.5q22 0 38 -16.5t16 -38.5t-16 -38t-38 -16z" />
    <glyph glyph-name="uni067C.medi" unicode="&#x67c;" horiz-adv-x="325" 
d="M103 -115q-36 0 -61 25.5t-25 61.5q0 35 25 60.5t61 25.5t61.5 -25.5t25.5 -61.5q0 -35 -25 -60.5t-62 -25.5zM103 -63q16 0 27 10t11 24q0 16 -11 26.5t-26 10.5q-16 0 -27 -10.5t-11 -25.5t11 -25t26 -10zM0 -5l10 96q35 0 56 7.5t33 29t21.5 63.5t21.5 110l91 -17
q-4 -17 -8.5 -38.5t-7.5 -42.5t-3 -38q0 -21 9 -38t35 -26.5t77 -9.5q26 0 37 -13t11 -33t-14.5 -35t-43.5 -15q-58 0 -93.5 12t-53.5 38t-24 65l36 -1q-16 -39 -36.5 -61.5t-44.5 -34t-51.5 -15t-57.5 -3.5zM259 407q-23 0 -38.5 16t-15.5 38t15.5 38.5t38.5 16.5
q22 0 38 -16.5t16 -38.5t-16 -38t-38 -16zM115 408q-23 0 -39 15.5t-16 37.5t16 38.5t39 16.5q22 0 37.5 -16.5t15.5 -38.5t-15.5 -37.5t-37.5 -15.5z" />
    <glyph glyph-name="uni067C.fina" unicode="&#x67c;" horiz-adv-x="1006" 
d="M482 -141q-37 0 -62 25.5t-25 61.5t25 61.5t62 25.5q36 0 61 -25.5t25 -61.5t-25 -61.5t-61 -25.5zM482 -89q15 0 26 10t11 25q0 16 -11 26t-27 10q-15 0 -25.5 -10.5t-10.5 -25.5t10.5 -25t26.5 -10zM368 -21l26 96q60 0 121 7.5t119 27t110 54.5t92 90l75 -40
q-9 -23 -12.5 -37.5t-3.5 -25.5q0 -15 10.5 -29t37 -22.5t73.5 -8.5q26 0 37 -13t11 -33t-14.5 -35t-42.5 -15q-58 0 -103 14.5t-69 44t-19 74.5l27 -2q-35 -39 -86 -67t-113 -45.5t-132 -26t-144 -8.5zM368 -21q-81 0 -144 12t-105.5 37.5t-64.5 64t-22 91.5q0 27 4.5 56
t12 57.5t14.5 53.5l86 -22q-4 -16 -9 -37t-9 -43t-4 -40q0 -44 23.5 -74t82 -45t161.5 -15l20 -64zM533 413q-23 0 -39 16t-16 38t16 38.5t39 16.5q22 0 37.5 -16.5t15.5 -38.5t-15.5 -38t-37.5 -16zM388 413q-23 0 -39 16t-16 38t16 38.5t39 16.5q22 0 38 -16.5t16 -38.5
t-16 -38t-38 -16z" />
    <glyph glyph-name="uni067D.init" unicode="&#x67d;" horiz-adv-x="301" 
d="M0 -5l10 96q54 0 85 5.5t44.5 24t13.5 56.5q0 26 -8 62t-20.5 76t-26.5 78l94 31q13 -32 24.5 -74.5t19.5 -84.5t8 -77q0 -55 -15.5 -92t-46.5 -59.5t-77 -32t-105 -9.5zM150 522q-22 0 -37.5 15.5t-15.5 36.5q0 22 15.5 37.5t37.5 15.5q21 0 36.5 -16t15.5 -37
t-15.5 -36.5t-36.5 -15.5zM80 640q-22 0 -37.5 15t-15.5 36q0 22 15.5 38t37.5 16t37 -16t15 -37q0 -22 -15 -37t-37 -15zM221 640q-22 0 -37.5 15t-15.5 36q0 22 15.5 38t37.5 16q21 0 36.5 -16t15.5 -37q0 -22 -15.5 -37t-36.5 -15z" />
    <glyph glyph-name="uni067D.medi" unicode="&#x67d;" horiz-adv-x="367" 
d="M0 -5l10 96q43 0 68.5 7.5t40 29.5t24 64t21.5 109l91 -17q-3 -17 -7.5 -38.5t-8 -42.5t-3.5 -38q0 -16 4.5 -29.5t18 -23.5t42 -15.5t76.5 -5.5q25 0 36.5 -13t11.5 -33t-15 -35t-43 -15q-53 0 -88 7t-56 21t-31 36t-14 51l34 -1q-16 -37 -37 -59.5t-46.5 -34.5
t-57.5 -16t-71 -4zM200 422q-22 0 -37.5 15.5t-15.5 36.5q0 22 15.5 38t37.5 16q21 0 36.5 -16t15.5 -38q0 -21 -15.5 -36.5t-36.5 -15.5zM130 540q-22 0 -37.5 15t-15.5 37q0 21 15.5 37t37.5 16t37 -16t15 -37q0 -22 -15 -37t-37 -15zM271 540q-22 0 -37.5 15t-15.5 37
q0 21 15.5 37t37.5 16q21 0 36.5 -16t15.5 -37q0 -22 -15.5 -37t-36.5 -15z" />
    <glyph glyph-name="uni067D.fina" unicode="&#x67d;" horiz-adv-x="1006" 
d="M368 -21l26 96q60 0 121 7.5t119 27t110 54.5t92 90l75 -40q-9 -23 -12.5 -37.5t-3.5 -25.5q0 -15 10.5 -29t37 -22.5t73.5 -8.5q26 0 37 -13t11 -33t-14.5 -35t-42.5 -15q-58 0 -103 14.5t-69 44t-19 74.5l27 -2q-35 -39 -86 -67t-113 -45.5t-132 -26t-144 -8.5z
M368 -21q-81 0 -144 12t-105.5 37.5t-64.5 64t-22 91.5q0 27 4.5 56t12 57.5t14.5 53.5l86 -22q-4 -16 -9 -37t-9 -43t-4 -40q0 -44 23.5 -74t82 -45t161.5 -15l20 -64zM465 415q-22 0 -37.5 15t-15.5 37q0 21 15.5 37t37.5 16t37 -16t15 -37q0 -22 -15 -37t-37 -15z
M396 532q-22 0 -37.5 15.5t-15.5 36.5q0 22 15 38t38 16q21 0 36 -16t15 -38q0 -21 -15 -36.5t-36 -15.5zM536 532q-22 0 -37.5 15.5t-15.5 36.5q0 22 15.5 38t37.5 16q21 0 36.5 -16t15.5 -38q0 -21 -15.5 -36.5t-36.5 -15.5z" />
    <glyph glyph-name="uni0681.init" unicode="&#x681;" horiz-adv-x="554" 
d="M0 -5l9 96q50 0 96 8t89.5 22.5t85.5 36t83 49.5q-30 22 -62 38.5t-67 25.5t-77 9q-16 0 -30 -1t-27.5 -3t-29.5 -6l-18 90q26 8 52.5 12t51.5 4q50 0 90 -12.5t72.5 -30.5t61 -35.5t55.5 -30t56 -12.5h22l10 -88q-40 -1 -73.5 -14t-66 -32.5t-69 -41t-80.5 -40.5
t-101.5 -31.5t-132.5 -12.5zM74 459l-13 55q27 6 42.5 9.5t34.5 8.5l-6 -19q-25 8 -47 32t-22 56q0 30 14 49.5t36.5 29.5t47.5 10q11 0 23.5 -2t23.5 -6l-8 -52l-18 4t-19 2q-20 0 -31.5 -9.5t-11.5 -24.5q0 -19 12.5 -32.5t28.5 -21t26 -8.5l-41 -5q25 6 47.5 13.5
l40.5 13.5l16 -52q-23 -8 -53.5 -17.5t-62.5 -18t-60 -15.5z" />
    <glyph glyph-name="uni0681.medi" unicode="&#x681;" horiz-adv-x="582" 
d="M582 -5q-38 0 -70 6.5t-58.5 22.5t-45.5 45t-30 75l62 40q14 -38 32.5 -58t47.5 -27.5t72 -7.5q26 0 37 -13t11 -33t-14.5 -35t-43.5 -15zM0 -5l9 96q50 0 96 8t89.5 22.5t85.5 36t83 49.5q-30 22 -62 38.5t-67 25.5t-77 9q-16 0 -30 -1t-27.5 -3t-29.5 -6l-18 90
q26 8 52.5 12t51.5 4q50 0 90 -12.5t72.5 -30.5t61 -35.5t55.5 -30t56 -12.5h22l10 -88q-40 -1 -73.5 -14t-66 -32.5t-69 -41t-80.5 -40.5t-101.5 -31.5t-132.5 -12.5zM73 459l-13 55q27 6 42.5 9.5t34.5 8.5l-6 -19q-25 8 -47 32t-22 56q0 30 14 49.5t36.5 29.5t47.5 10
q11 0 23.5 -2t23.5 -6l-8 -52l-18 4t-19 2q-20 0 -31.5 -9.5t-11.5 -24.5q0 -19 12.5 -32.5t28.5 -21t26 -8.5l-41 -5q25 6 47.5 13.5l40.5 13.5l16 -52q-23 -8 -53.5 -17.5t-62.5 -18t-60 -15.5z" />
    <glyph glyph-name="uni0681.fina" unicode="&#x681;" horiz-adv-x="630" 
d="M630 -5q-44 0 -86.5 7.5t-77.5 32t-57 73t-27 130.5l73 33q6 -60 22 -96t40.5 -54t55.5 -24t67 -6q25 0 36.5 -13t11.5 -33t-14.5 -35t-43.5 -15zM349 -393q-67 0 -128 17t-108 51.5t-74 87.5t-27 124q0 57 17.5 109.5t49.5 98.5t78.5 85t104 69.5t124.5 51.5l-1 -17
q-25 8 -52.5 18t-57.5 20t-62.5 16t-67.5 6q-28 0 -52 -4.5t-44 -9.5l-16 89q25 9 55.5 15.5t62.5 6.5q44 0 81 -9.5t70.5 -23t68 -27.5t73.5 -23.5t88 -9.5h15l6 -98q-45 -1 -95.5 -13t-100 -33t-94.5 -51.5t-79.5 -69t-55 -85t-20.5 -100.5q0 -52 21 -89.5t56 -60.5
t80.5 -33.5t93.5 -10.5q44 0 91.5 9.5t97.5 28.5l31 -82q-61 -29 -120 -41t-110 -12zM208 534l-13 55q27 6 42.5 9.5t34.5 8.5l-6 -19q-25 8 -47 32t-22 56q0 30 14 49.5t36.5 29.5t47.5 10q11 0 23.5 -2t23.5 -6l-8 -52l-18 4t-19 2q-20 0 -31.5 -9.5t-11.5 -24.5
q0 -19 12.5 -32.5t28.5 -21t26 -8.5l-41 -5q25 6 47.5 13.5l40.5 13.5l16 -52q-23 -8 -53.5 -17.5t-62.5 -18t-60 -15.5z" />
    <glyph glyph-name="uni0682.init" unicode="&#x682;" horiz-adv-x="554" 
d="M0 -5l9 96q50 0 96 8t89.5 22.5t85.5 36t83 49.5q-30 22 -62 38.5t-67 25.5t-77 9q-16 0 -30 -1t-27.5 -3t-29.5 -6l-18 90q26 8 52.5 12t51.5 4q50 0 90 -12.5t72.5 -30.5t61 -35.5t55.5 -30t56 -12.5h22l10 -88q-40 -1 -73.5 -14t-66 -32.5t-69 -41t-80.5 -40.5
t-101.5 -31.5t-132.5 -12.5zM159 477q-23 0 -38 15.5t-15 36.5q0 22 15 37.5t38 15.5q21 0 36.5 -15.5t15.5 -37.5t-15.5 -37t-36.5 -15zM158 618q-22 0 -37.5 15t-15.5 36q0 22 15.5 38t37.5 16q21 0 36.5 -16t15.5 -38q0 -21 -15.5 -36t-36.5 -15z" />
    <glyph glyph-name="uni0682.medi" unicode="&#x682;" horiz-adv-x="582" 
d="M582 -5q-38 0 -70 6.5t-58.5 22.5t-45.5 45t-30 75l62 40q14 -38 32.5 -58t47.5 -27.5t72 -7.5q26 0 37 -13t11 -33t-14.5 -35t-43.5 -15zM0 -5l9 96q50 0 96 8t89.5 22.5t85.5 36t83 49.5q-30 22 -62 38.5t-67 25.5t-77 9q-16 0 -30 -1t-27.5 -3t-29.5 -6l-18 90
q26 8 52.5 12t51.5 4q50 0 90 -12.5t72.5 -30.5t61 -35.5t55.5 -30t56 -12.5h22l10 -88q-40 -1 -73.5 -14t-66 -32.5t-69 -41t-80.5 -40.5t-101.5 -31.5t-132.5 -12.5zM157 479q-23 0 -38 15.5t-15 36.5q0 22 15 37.5t38 15.5q21 0 36.5 -15.5t15.5 -37.5t-15.5 -37
t-36.5 -15zM156 620q-22 0 -37.5 15t-15.5 36q0 22 15.5 38t37.5 16q21 0 36.5 -16t15.5 -38q0 -21 -15.5 -36t-36.5 -15z" />
    <glyph glyph-name="uni0682.fina" unicode="&#x682;" horiz-adv-x="630" 
d="M630 -5q-44 0 -86.5 7.5t-77.5 32t-57 73t-27 130.5l73 33q6 -60 22 -96t40.5 -54t55.5 -24t67 -6q25 0 36.5 -13t11.5 -33t-14.5 -35t-43.5 -15zM349 -393q-67 0 -128 17t-108 51.5t-74 87.5t-27 124q0 57 17.5 109.5t49.5 98.5t78.5 85t104 69.5t124.5 51.5l-1 -17
q-25 8 -52.5 18t-57.5 20t-62.5 16t-67.5 6q-28 0 -52 -4.5t-44 -9.5l-16 89q25 9 55.5 15.5t62.5 6.5q44 0 81 -9.5t70.5 -23t68 -27.5t73.5 -23.5t88 -9.5h15l6 -98q-45 -1 -95.5 -13t-100 -33t-94.5 -51.5t-79.5 -69t-55 -85t-20.5 -100.5q0 -52 21 -89.5t56 -60.5
t80.5 -33.5t93.5 -10.5q44 0 91.5 9.5t97.5 28.5l31 -82q-61 -29 -120 -41t-110 -12zM309 541q-23 0 -38 15.5t-15 36.5q0 22 15 37.5t38 15.5q21 0 36.5 -15.5t15.5 -37.5t-15.5 -37t-36.5 -15zM308 682q-22 0 -37.5 15t-15.5 36q0 22 15.5 38t37.5 16q21 0 36.5 -16
t15.5 -38q0 -21 -15.5 -36t-36.5 -15z" />
    <glyph glyph-name="uni0685.init" unicode="&#x685;" horiz-adv-x="554" 
d="M0 -5l9 96q50 0 96 8t89.5 22.5t85.5 36t83 49.5q-30 22 -62 38.5t-67 25.5t-77 9q-16 0 -30 -1t-27.5 -3t-29.5 -6l-18 90q26 8 52.5 12t51.5 4q50 0 90 -12.5t72.5 -30.5t61 -35.5t55.5 -30t56 -12.5h22l10 -88q-40 -1 -73.5 -14t-66 -32.5t-69 -41t-80.5 -40.5
t-101.5 -31.5t-132.5 -12.5zM163 595q-23 0 -38.5 15.5t-15.5 37.5q0 21 15.5 37t38.5 16q21 0 36.5 -16t15.5 -37q0 -22 -15.5 -37.5t-36.5 -15.5zM92 477q-22 0 -37.5 15.5t-15.5 37.5t15.5 37.5t37.5 15.5t37.5 -15.5t15.5 -37.5t-15.5 -37.5t-37.5 -15.5zM233 477
q-22 0 -37.5 15.5t-15.5 37.5t15.5 37.5t37.5 15.5t37 -15.5t15 -37.5t-15.5 -37.5t-36.5 -15.5z" />
    <glyph glyph-name="uni0685.medi" unicode="&#x685;" horiz-adv-x="582" 
d="M582 -5q-38 0 -70 6.5t-58.5 22.5t-45.5 45t-30 75l62 40q14 -38 32.5 -58t47.5 -27.5t72 -7.5q26 0 37 -13t11 -33t-14.5 -35t-43.5 -15zM0 -5l9 96q50 0 96 8t89.5 22.5t85.5 36t83 49.5q-30 22 -62 38.5t-67 25.5t-77 9q-16 0 -30 -1t-27.5 -3t-29.5 -6l-18 90
q26 8 52.5 12t51.5 4q50 0 90 -12.5t72.5 -30.5t61 -35.5t55.5 -30t56 -12.5h22l10 -88q-40 -1 -73.5 -14t-66 -32.5t-69 -41t-80.5 -40.5t-101.5 -31.5t-132.5 -12.5zM161 595q-23 0 -38.5 15.5t-15.5 37.5q0 21 15.5 37t38.5 16q21 0 36.5 -16t15.5 -37q0 -22 -15.5 -37.5
t-36.5 -15.5zM90 477q-22 0 -37.5 15.5t-15.5 37.5t15.5 37.5t37.5 15.5t37.5 -15.5t15.5 -37.5t-15.5 -37.5t-37.5 -15.5zM231 477q-22 0 -37.5 15.5t-15.5 37.5t15.5 37.5t37.5 15.5t37 -15.5t15 -37.5t-15.5 -37.5t-36.5 -15.5z" />
    <glyph glyph-name="uni0685.fina" unicode="&#x685;" horiz-adv-x="630" 
d="M630 -5q-44 0 -86.5 7.5t-77.5 32t-57 73t-27 130.5l73 33q6 -60 22 -96t40.5 -54t55.5 -24t67 -6q25 0 36.5 -13t11.5 -33t-14.5 -35t-43.5 -15zM349 -393q-67 0 -128 17t-108 51.5t-74 87.5t-27 124q0 57 17.5 109.5t49.5 98.5t78.5 85t104 69.5t124.5 51.5l-1 -17
q-25 8 -52.5 18t-57.5 20t-62.5 16t-67.5 6q-28 0 -52 -4.5t-44 -9.5l-16 89q25 9 55.5 15.5t62.5 6.5q44 0 81 -9.5t70.5 -23t68 -27.5t73.5 -23.5t88 -9.5h15l6 -98q-45 -1 -95.5 -13t-100 -33t-94.5 -51.5t-79.5 -69t-55 -85t-20.5 -100.5q0 -52 21 -89.5t56 -60.5
t80.5 -33.5t93.5 -10.5q44 0 91.5 9.5t97.5 28.5l31 -82q-61 -29 -120 -41t-110 -12zM308 659q-23 0 -38.5 15.5t-15.5 37.5q0 21 15.5 37t38.5 16q21 0 36.5 -16t15.5 -37q0 -22 -15.5 -37.5t-36.5 -15.5zM237 541q-22 0 -37.5 15.5t-15.5 37.5t15.5 37.5t37.5 15.5
t37.5 -15.5t15.5 -37.5t-15.5 -37.5t-37.5 -15.5zM378 541q-22 0 -37.5 15.5t-15.5 37.5t15.5 37.5t37.5 15.5t37 -15.5t15 -37.5t-15.5 -37.5t-36.5 -15.5z" />
    <glyph glyph-name="uni0689.fina" unicode="&#x689;" horiz-adv-x="507" 
d="M202 -128q-36 0 -61 25t-25 61t25 61.5t61 25.5t61.5 -25.5t25.5 -61.5t-25.5 -61t-61.5 -25zM202 -76q16 0 26.5 10t10.5 24q0 16 -10.5 26.5t-26.5 10.5q-15 0 -26 -10.5t-11 -26.5q0 -14 11 -24t26 -10zM201 91q42 0 67 9t37 26.5t12 43.5q0 18 -9 45t-25.5 60.5
t-39.5 73t-52 82.5l83 53q39 -57 67.5 -110t48 -101t29.5 -92q11 -37 27 -57t34.5 -26.5t35.5 -6.5q25 0 37 -13t12 -33t-15 -35t-44 -15q-33 0 -63.5 11.5t-53 37.5t-33.5 68l39 8q-5 -33 -25 -61.5t-59.5 -46t-103.5 -17.5q-30 0 -62 4.5t-60.5 14t-49.5 23.5l35 85
q27 -13 61 -22t70 -9z" />
    <glyph glyph-name="uni068A.fina" unicode="&#x68a;" horiz-adv-x="507" 
d="M201 91q42 0 67 9t37 26.5t12 43.5q0 18 -9 45t-25.5 60.5t-39.5 73t-52 82.5l83 53q39 -57 67.5 -110t48 -101t29.5 -92q11 -37 27 -57t34.5 -26.5t35.5 -6.5q25 0 37 -13t12 -33t-15 -35t-44 -15q-33 0 -63.5 11.5t-53 37.5t-33.5 68l39 8q-5 -33 -25 -61.5t-59.5 -46
t-103.5 -17.5q-30 0 -62 4.5t-60.5 14t-49.5 23.5l35 85q27 -13 61 -22t70 -9zM207 -203q-23 0 -39 15.5t-16 37.5q0 23 16 39.5t39 16.5q22 0 38 -16.5t16 -39.5q0 -22 -16 -37.5t-38 -15.5z" />
    <glyph glyph-name="uni068B.fina" unicode="&#x68b;" horiz-adv-x="507" 
d="M201 91q42 0 67 9t37 26.5t12 43.5q0 18 -9 45t-25.5 60.5t-39.5 73t-52 82.5l83 53q39 -57 67.5 -110t48 -101t29.5 -92q11 -37 27 -57t34.5 -26.5t35.5 -6.5q25 0 37 -13t12 -33t-15 -35t-44 -15q-33 0 -63.5 11.5t-53 37.5t-33.5 68l39 8q-5 -33 -25 -61.5t-59.5 -46
t-103.5 -17.5q-30 0 -62 4.5t-60.5 14t-49.5 23.5l35 85q27 -13 61 -22t70 -9zM204 606q-17 0 -41 1.5t-45 3.5t-32 3l2 56q19 -3 50.5 -5.5t58.5 -2.5q34 0 54 5t29 14t9 19q0 13 -8.5 19.5t-21.5 6.5q-19 0 -37 -13t-32 -29.5t-22 -27.5l-55 6q17 33 41.5 60.5t53.5 44.5
t59 17q36 0 57.5 -22.5t21.5 -56.5q0 -20 -11 -43t-41.5 -39.5t-89.5 -16.5zM137 671l-6 187h54l7 -163zM207 -203q-23 0 -39 15.5t-16 37.5q0 23 16 39.5t39 16.5q22 0 38 -16.5t16 -39.5q0 -22 -16 -37.5t-38 -15.5z" />
    <glyph glyph-name="uni068F.fina" unicode="&#x68f;" horiz-adv-x="507" 
d="M201 91q42 0 67 9t37 26.5t12 43.5q0 18 -9 45t-25.5 60.5t-39.5 73t-52 82.5l83 53q39 -57 67.5 -110t48 -101t29.5 -92q11 -37 27 -57t34.5 -26.5t35.5 -6.5q25 0 37 -13t12 -33t-15 -35t-44 -15q-33 0 -63.5 11.5t-53 37.5t-33.5 68l39 8q-5 -33 -25 -61.5t-59.5 -46
t-103.5 -17.5q-30 0 -62 4.5t-60.5 14t-49.5 23.5l35 85q27 -13 61 -22t70 -9zM210 578q-22 0 -37.5 15t-15.5 37q0 21 15.5 37t37.5 16t37 -16t15 -37q0 -22 -15 -37t-37 -15zM141 695q-22 0 -37.5 15.5t-15.5 36.5q0 22 15 38t38 16q21 0 36 -16t15 -38q0 -21 -15 -36.5
t-36 -15.5zM281 695q-22 0 -37.5 15.5t-15.5 36.5q0 22 15.5 38t37.5 16q21 0 36.5 -16t15.5 -38q0 -21 -15.5 -36.5t-36.5 -15.5z" />
    <glyph glyph-name="uni0690.fina" unicode="&#x690;" horiz-adv-x="507" 
d="M201 91q42 0 67 9t37 26.5t12 43.5q0 18 -9 45t-25.5 60.5t-39.5 73t-52 82.5l83 53q39 -57 67.5 -110t48 -101t29.5 -92q11 -37 27 -57t34.5 -26.5t35.5 -6.5q25 0 37 -13t12 -33t-15 -35t-44 -15q-33 0 -63.5 11.5t-53 37.5t-33.5 68l39 8q-5 -33 -25 -61.5t-59.5 -46
t-103.5 -17.5q-30 0 -62 4.5t-60.5 14t-49.5 23.5l35 85q27 -13 61 -22t70 -9zM138 703q-21 0 -36 15t-15 35q0 21 15 36.5t36 15.5t36 -15.5t15 -36.5t-15 -35.5t-36 -14.5zM138 574q-21 0 -36 15t-15 35q0 21 15 36.5t36 15.5t36 -15.5t15 -36.5t-15 -35.5t-36 -14.5z
M273 703q-22 0 -37 15t-15 35q0 21 15 36.5t37 15.5q21 0 35.5 -15.5t14.5 -35.5q0 -21 -14.5 -36t-35.5 -15zM273 574q-22 0 -37 15t-15 35q0 21 15 36.5t37 15.5q21 0 35.5 -15.5t14.5 -36.5t-14.5 -35.5t-35.5 -14.5z" />
    <glyph glyph-name="uni0692.fina" unicode="&#x692;" horiz-adv-x="374" 
d="M13 -231l-42 87q62 26 104.5 56.5t68.5 63.5t37.5 67t11.5 66q0 46 -19.5 96t-48.5 102l90 45q18 -33 31.5 -66.5t23.5 -62.5t16 -51q14 -48 36.5 -64.5t60.5 -16.5q26 0 37 -13t11 -33t-14.5 -35t-43.5 -15q-37 0 -63.5 13.5t-41.5 38t-22 54.5l37 -7q-1 -58 -24.5 -109
t-62 -92.5t-86 -73t-97.5 -50.5zM128 474q-7 15 -17.5 38.5t-22.5 50t-24 51t-20 39.5l48 24q5 -9 15.5 -29.5t22 -44.5t22 -46.5t16.5 -36.5l20 -40zM188 480l-46 17q6 17 17 44t23.5 56t22 51.5t13.5 30.5l47 -19q-4 -10 -14.5 -33t-22.5 -51.5t-23 -54t-17 -41.5z" />
    <glyph glyph-name="uni0693.fina" unicode="&#x693;" horiz-adv-x="374" 
d="M226 -221q-36 0 -61 25t-25 61t25 61.5t61 25.5t61.5 -25.5t25.5 -61.5t-25.5 -61t-61.5 -25zM226 -169q16 0 26.5 10t10.5 24q0 16 -10.5 26t-26.5 10q-15 0 -26 -10t-11 -26q0 -14 11 -24t26 -10zM13 -231l-42 87q62 26 104.5 56.5t68.5 63.5t37.5 67t11.5 66
q0 46 -19.5 96t-48.5 102l90 45q18 -33 31.5 -66.5t23.5 -62.5t16 -51q14 -48 36.5 -64.5t60.5 -16.5q26 0 37 -13t11 -33t-14.5 -35t-43.5 -15q-37 0 -63.5 13.5t-41.5 38t-22 54.5l37 -7q-1 -58 -24.5 -109t-62 -92.5t-86 -73t-97.5 -50.5z" />
    <glyph glyph-name="uni0694.fina" unicode="&#x694;" horiz-adv-x="374" 
d="M13 -231l-42 87q62 26 104.5 56.5t68.5 63.5t37.5 67t11.5 66q0 46 -19.5 96t-48.5 102l90 45q18 -33 31.5 -66.5t23.5 -62.5t16 -51q14 -48 36.5 -64.5t60.5 -16.5q26 0 37 -13t11 -33t-14.5 -35t-43.5 -15q-37 0 -63.5 13.5t-41.5 38t-22 54.5l37 -7q-1 -58 -24.5 -109
t-62 -92.5t-86 -73t-97.5 -50.5zM114 -412q-23 0 -39 15.5t-16 37.5q0 23 16 39.5t39 16.5q22 0 38 -16.5t16 -39.5q0 -22 -16 -37.5t-38 -15.5z" />
    <glyph glyph-name="uni0695.fina" unicode="&#x695;" horiz-adv-x="374" 
d="M30 -44l-20.5 41t-26 51t-22.5 42l38 21q5 -8 13 -23.5t17.5 -33t17.5 -34t14 -27.5l16 -32zM77 -39l-37 14q5 13 14 33.5t18 42.5t17 39t12 23l38 -16l-12.5 -25t-18 -38.5t-18.5 -41t-13 -31.5zM13 -231l-42 87q62 26 104.5 56.5t68.5 63.5t37.5 67t11.5 66
q0 46 -19.5 96t-48.5 102l90 45q18 -33 31.5 -66.5t23.5 -62.5t16 -51q14 -48 36.5 -64.5t60.5 -16.5q26 0 37 -13t11 -33t-14.5 -35t-43.5 -15q-37 0 -63.5 13.5t-41.5 38t-22 54.5l37 -7q-1 -58 -24.5 -109t-62 -92.5t-86 -73t-97.5 -50.5z" />
    <glyph glyph-name="uni0696.fina" unicode="&#x696;" horiz-adv-x="374" 
d="M13 -231l-42 87q62 26 104.5 56.5t68.5 63.5t37.5 67t11.5 66q0 46 -19.5 96t-48.5 102l90 45q18 -33 31.5 -66.5t23.5 -62.5t16 -51q14 -48 36.5 -64.5t60.5 -16.5q26 0 37 -13t11 -33t-14.5 -35t-43.5 -15q-37 0 -63.5 13.5t-41.5 38t-22 54.5l37 -7q-1 -58 -24.5 -109
t-62 -92.5t-86 -73t-97.5 -50.5zM56 -3q-24 0 -40 16t-16 38q0 23 16 39.5t40 16.5q22 0 38 -16.5t16 -38.5q0 -23 -16 -39t-38 -16zM103 -412q-23 0 -39 15.5t-16 37.5q0 23 16 39.5t39 16.5q22 0 38 -16.5t16 -39.5q0 -22 -16 -37.5t-38 -15.5z" />
    <glyph glyph-name="uni0697.fina" unicode="&#x697;" horiz-adv-x="374" 
d="M13 -231l-42 87q62 26 104.5 56.5t68.5 63.5t37.5 67t11.5 66q0 46 -19.5 96t-48.5 102l90 45q18 -33 31.5 -66.5t23.5 -62.5t16 -51q14 -48 36.5 -64.5t60.5 -16.5q26 0 37 -13t11 -33t-14.5 -35t-43.5 -15q-37 0 -63.5 13.5t-41.5 38t-22 54.5l37 -7q-1 -58 -24.5 -109
t-62 -92.5t-86 -73t-97.5 -50.5zM237 464q-23 0 -38.5 15.5t-15.5 37.5q0 23 15.5 39t38.5 16q22 0 38 -16t16 -38q0 -23 -16 -38.5t-38 -15.5zM93 464q-23 0 -39 16t-16 38t16 38.5t39 16.5q22 0 37.5 -16.5t15.5 -38.5t-15.5 -38t-37.5 -16z" />
    <glyph glyph-name="uni0699.fina" unicode="&#x699;" horiz-adv-x="374" 
d="M13 -231l-42 87q62 26 104.5 56.5t68.5 63.5t37.5 67t11.5 66q0 46 -19.5 96t-48.5 102l90 45q18 -33 31.5 -66.5t23.5 -62.5t16 -51q14 -48 36.5 -64.5t60.5 -16.5q26 0 37 -13t11 -33t-14.5 -35t-43.5 -15q-37 0 -63.5 13.5t-41.5 38t-22 54.5l37 -7q-1 -58 -24.5 -109
t-62 -92.5t-86 -73t-97.5 -50.5zM93 593q-21 0 -36 15t-15 35q0 21 15 36.5t36 15.5t36 -15.5t15 -36.5t-15 -35.5t-36 -14.5zM93 464q-21 0 -36 15t-15 35q0 21 15 36.5t36 15.5t36 -15.5t15 -36.5t-15 -35.5t-36 -14.5zM228 593q-22 0 -37 15t-15 35q0 21 15 36.5t37 15.5
q21 0 35.5 -15.5t14.5 -35.5q0 -21 -14.5 -36t-35.5 -15zM228 464q-22 0 -37 15t-15 35q0 21 15 36.5t37 15.5q21 0 35.5 -15.5t14.5 -36.5t-14.5 -35.5t-35.5 -14.5z" />
    <glyph glyph-name="uni069A.init" unicode="&#x69a;" horiz-adv-x="792" 
d="M0 -5l10 96q31 0 51 5t33 24.5t24.5 60t26.5 111.5l88 -21q-5 -21 -9.5 -42t-7.5 -41.5t-4 -38.5q0 -28 16 -43t63 -15q26 0 43 5.5t28.5 25t21.5 62t21 115.5l90 -16q-4 -19 -8 -45t-7.5 -50.5t-3.5 -40.5q0 -15 6.5 -28t24.5 -20.5t52 -7.5q29 0 48.5 8t30 26.5
t10.5 48.5q0 40 -17.5 98t-39.5 118l95 33q14 -35 26 -78.5t20 -86t8 -75.5q0 -46 -13 -81.5t-36.5 -59t-56.5 -35.5t-73 -12q-44 0 -73.5 11t-46 34.5t-22.5 62.5h31q-17 -47 -39 -70t-52 -30.5t-76 -7.5q-27 0 -56 8t-50 32.5t-26 73.5l37 5q-19 -53 -45 -78.5t-61 -33
t-82 -7.5zM388 -203q-23 0 -39 15.5t-16 37.5q0 23 16 39.5t39 16.5q22 0 38 -16.5t16 -39.5q0 -22 -16 -37.5t-38 -15.5zM432 450q-24 0 -40 16t-16 38q0 23 16 39.5t40 16.5q22 0 38 -16.5t16 -38.5q0 -23 -16 -39t-38 -16z" />
    <glyph glyph-name="uni069A.medi" unicode="&#x69a;" horiz-adv-x="837" 
d="M0 -5l10 96q30 0 49 5t32.5 24.5t24.5 60t26 111.5l88 -21q-5 -24 -12.5 -59t-7.5 -63q0 -17 6 -30.5t23 -20.5t49 -7q26 0 43 5.5t29 25.5t22 62t20 115l90 -15q-3 -20 -7 -46t-7.5 -51t-3.5 -41t6 -29t24 -19.5t53 -6.5q43 0 64 19.5t21 66.5q0 23 -1 49t-3.5 58
t-7.5 74l88 6q6 -83 13.5 -136t21 -83t36 -42t58.5 -12q25 0 36.5 -13t11.5 -33t-14.5 -35t-43.5 -15q-31 0 -56.5 8t-45 24t-33 38.5t-20.5 52.5l21 -6q-11 -46 -33.5 -71.5t-53 -35.5t-66.5 -10q-41 0 -69.5 11t-44.5 35t-19 62h31q-17 -45 -38.5 -68.5t-52 -31.5
t-77.5 -8q-27 0 -56 8t-50 32t-26 74l37 5q-19 -53 -44.5 -78.5t-60 -33t-80.5 -7.5zM386 -203q-23 0 -39 15.5t-16 37.5q0 23 16 39.5t39 16.5q22 0 38 -16.5t16 -39.5q0 -22 -16 -37.5t-38 -15.5zM428 450q-24 0 -40 16t-16 38q0 23 16 39.5t40 16.5q22 0 38 -16.5
t16 -38.5q0 -23 -16 -39t-38 -16z" />
    <glyph glyph-name="uni069A.fina" unicode="&#x69a;" horiz-adv-x="1218" 
d="M306 -232q-58 0 -107 15.5t-86.5 45.5t-58 73t-20.5 99q0 21 4 50t15 65.5t30 78.5l84 -33q-12 -31 -20.5 -56.5t-12 -47.5t-3.5 -45q0 -46 21.5 -80t62 -51.5t94.5 -17.5q59 0 97.5 15t60.5 40.5t30.5 56t8.5 60.5q0 42 -6 80t-17 76.5t-25 82.5l96 26q15 -57 22 -84.5
t12 -43.5q10 -35 23 -52.5t30 -23.5t39 -6q19 0 34 5.5t27.5 25t22.5 62t19 115.5l90 -15q-3 -20 -7.5 -46t-7.5 -51t-3 -41q0 -14 6.5 -27t24.5 -20.5t52 -7.5q42 0 63.5 22t21.5 64q0 23 -1 49t-3.5 58t-7.5 74l89 6q6 -85 13.5 -138.5t21 -83t36 -40.5t57.5 -11
q25 0 36.5 -13t11.5 -33t-14.5 -35t-43.5 -15q-38 0 -70.5 13t-54.5 40.5t-32 68.5l26 -5q-12 -47 -36 -72.5t-54.5 -35t-62.5 -9.5q-41 0 -70 12t-46 36.5t-21 61.5h32q-16 -42 -36.5 -66t-47 -34t-61.5 -10q-27 0 -47.5 7.5t-35.5 20t-24 30t-13 37.5l37 -46
q-1 -55 -18 -104.5t-52 -88.5t-90.5 -61t-134.5 -22zM809 -198q-23 0 -39 15.5t-16 37.5q0 23 16 39.5t39 16.5q22 0 38 -16.5t16 -39.5q0 -22 -16 -37.5t-38 -15.5zM777 450q-24 0 -40 16t-16 38q0 23 16 39.5t40 16.5q22 0 38 -16.5t16 -38.5q0 -23 -16 -39t-38 -16z" />
    <glyph glyph-name="uni069B.init" unicode="&#x69b;" horiz-adv-x="792" 
d="M0 -5l10 96q31 0 51 5t33 24.5t24.5 60t26.5 111.5l88 -21q-5 -21 -9.5 -42t-7.5 -41.5t-4 -38.5q0 -28 16 -43t63 -15q26 0 43 5.5t28.5 25t21.5 62t21 115.5l90 -16q-4 -19 -8 -45t-7.5 -50.5t-3.5 -40.5q0 -15 6.5 -28t24.5 -20.5t52 -7.5q29 0 48.5 8t30 26.5
t10.5 48.5q0 40 -17.5 98t-39.5 118l95 33q14 -35 26 -78.5t20 -86t8 -75.5q0 -46 -13 -81.5t-36.5 -59t-56.5 -35.5t-73 -12q-44 0 -73.5 11t-46 34.5t-22.5 62.5h31q-17 -47 -39 -70t-52 -30.5t-76 -7.5q-27 0 -56 8t-50 32.5t-26 73.5l37 5q-19 -53 -45 -78.5t-61 -33
t-82 -7.5zM389 -319q-22 0 -37.5 15t-15.5 37q0 21 15.5 37t37.5 16q21 0 36.5 -16t15.5 -37q0 -22 -15.5 -37t-36.5 -15zM319 -201q-22 0 -37.5 15t-15.5 36q0 22 15.5 38t37.5 16q21 0 36.5 -16t15.5 -38q0 -21 -15.5 -36t-36.5 -15zM460 -201q-23 0 -38.5 15t-15.5 36
q0 22 15.5 38t38.5 16q21 0 36 -16t15 -38q0 -21 -15 -36t-36 -15z" />
    <glyph glyph-name="uni069B.medi" unicode="&#x69b;" horiz-adv-x="837" 
d="M0 -5l10 96q30 0 49 5t32.5 24.5t24.5 60t26 111.5l88 -21q-5 -24 -12.5 -59t-7.5 -63q0 -17 6 -30.5t23 -20.5t49 -7q26 0 43 5.5t29 25.5t22 62t20 115l90 -15q-3 -20 -7 -46t-7.5 -51t-3.5 -41t6 -29t24 -19.5t53 -6.5q43 0 64 19.5t21 66.5q0 23 -1 49t-3.5 58
t-7.5 74l88 6q6 -83 13.5 -136t21 -83t36 -42t58.5 -12q25 0 36.5 -13t11.5 -33t-14.5 -35t-43.5 -15q-31 0 -56.5 8t-45 24t-33 38.5t-20.5 52.5l21 -6q-11 -46 -33.5 -71.5t-53 -35.5t-66.5 -10q-41 0 -69.5 11t-44.5 35t-19 62h31q-17 -45 -38.5 -68.5t-52 -31.5
t-77.5 -8q-27 0 -56 8t-50 32t-26 74l37 5q-19 -53 -44.5 -78.5t-60 -33t-80.5 -7.5zM386 -319q-22 0 -37.5 15t-15.5 37q0 21 15.5 37t37.5 16q21 0 36.5 -16t15.5 -37q0 -22 -15.5 -37t-36.5 -15zM316 -201q-22 0 -37.5 15t-15.5 36q0 22 15.5 38t37.5 16q21 0 36.5 -16
t15.5 -38q0 -21 -15.5 -36t-36.5 -15zM457 -201q-23 0 -38.5 15t-15.5 36q0 22 15.5 38t38.5 16q21 0 36 -16t15 -38q0 -21 -15 -36t-36 -15z" />
    <glyph glyph-name="uni069B.fina" unicode="&#x69b;" horiz-adv-x="1218" 
d="M306 -232q-58 0 -107 15.5t-86.5 45.5t-58 73t-20.5 99q0 21 4 50t15 65.5t30 78.5l84 -33q-12 -31 -20.5 -56.5t-12 -47.5t-3.5 -45q0 -46 21.5 -80t62 -51.5t94.5 -17.5q59 0 97.5 15t60.5 40.5t30.5 56t8.5 60.5q0 42 -6 80t-17 76.5t-25 82.5l96 26q15 -57 22 -84.5
t12 -43.5q10 -35 23 -52.5t30 -23.5t39 -6q19 0 34 5.5t27.5 25t22.5 62t19 115.5l90 -15q-3 -20 -7.5 -46t-7.5 -51t-3 -41q0 -14 6.5 -27t24.5 -20.5t52 -7.5q42 0 63.5 22t21.5 64q0 23 -1 49t-3.5 58t-7.5 74l89 6q6 -85 13.5 -138.5t21 -83t36 -40.5t57.5 -11
q25 0 36.5 -13t11.5 -33t-14.5 -35t-43.5 -15q-38 0 -70.5 13t-54.5 40.5t-32 68.5l26 -5q-12 -47 -36 -72.5t-54.5 -35t-62.5 -9.5q-41 0 -70 12t-46 36.5t-21 61.5h32q-16 -42 -36.5 -66t-47 -34t-61.5 -10q-27 0 -47.5 7.5t-35.5 20t-24 30t-13 37.5l37 -46
q-1 -55 -18 -104.5t-52 -88.5t-90.5 -61t-134.5 -22zM699 -352q-22 0 -37.5 15t-15.5 37q0 21 15.5 37t37.5 16q21 0 36.5 -16t15.5 -37q0 -22 -15.5 -37t-36.5 -15zM629 -234q-22 0 -37.5 15t-15.5 36q0 22 15.5 38t37.5 16q21 0 36.5 -16t15.5 -38q0 -21 -15.5 -36
t-36.5 -15zM770 -234q-23 0 -38.5 15t-15.5 36q0 22 15.5 38t38.5 16q21 0 36 -16t15 -38q0 -21 -15 -36t-36 -15z" />
    <glyph glyph-name="uni069D.init" unicode="&#x69d;" horiz-adv-x="868" 
d="M460 -16q-83 0 -138.5 6.5t-90.5 20t-53.5 33.5t-27.5 47l25 8q-23 -46 -51.5 -68t-59 -29t-64.5 -7l10 96q31 0 49.5 9.5t31 32t23 61t24.5 96.5l88 -23q-6 -24 -11 -44.5t-7.5 -36t-2.5 -24.5q0 -23 9.5 -38.5t37 -25.5t79 -14t134.5 -4q69 0 119.5 8t83.5 23.5
t49.5 38.5t16.5 53q0 21 -10 41t-30.5 33t-52.5 13q-41 0 -81.5 -22.5t-78 -57t-68 -72t-50.5 -68.5l-102 5q33 56 76.5 111.5t94 100.5t105.5 72.5t111 27.5q55 0 95 -23t62 -63t22 -92q0 -63 -36 -114t-116.5 -81t-214.5 -30zM533 -215q-23 0 -39 16t-16 38t16 38.5
t39 16.5q22 0 37.5 -16.5t15.5 -38.5t-15.5 -38t-37.5 -16zM388 -215q-23 0 -38.5 16t-15.5 38t15.5 38.5t38.5 16.5q22 0 38 -16.5t16 -38.5t-16 -38t-38 -16z" />
    <glyph glyph-name="uni069D.medi" unicode="&#x69d;" horiz-adv-x="900" 
d="M900 -5q-32 0 -69.5 7.5t-72 22t-57.5 36.5l79 54q29 -13 62 -18.5t68 -5.5q25 0 36.5 -13t11.5 -33t-14.5 -35t-43.5 -15zM460 -16q-83 0 -138.5 6.5t-90.5 20t-53.5 33.5t-27.5 47l25 8q-23 -46 -51.5 -68t-59 -29t-64.5 -7l10 96q31 0 49.5 9.5t31 32t23 61t24.5 96.5
l88 -23q-6 -24 -11 -44.5t-7.5 -36t-2.5 -24.5q0 -23 9.5 -38.5t37 -25.5t79 -14t134.5 -4q69 0 119.5 8t83.5 23.5t49.5 38.5t16.5 53q0 21 -10 41t-30.5 33t-52.5 13q-41 0 -81.5 -22.5t-78 -57t-68 -72t-50.5 -68.5l-102 5q33 56 76.5 111.5t94 100.5t105.5 72.5
t111 27.5q55 0 95 -23t62 -63t22 -92q0 -63 -36 -114t-116.5 -81t-214.5 -30zM533 -215q-23 0 -39 16t-16 38t16 38.5t39 16.5q22 0 37.5 -16.5t15.5 -38.5t-15.5 -38t-37.5 -16zM388 -215q-23 0 -38.5 16t-15.5 38t15.5 38.5t38.5 16.5q22 0 38 -16.5t16 -38.5t-16 -38
t-38 -16z" />
    <glyph glyph-name="uni069D.fina" unicode="&#x69d;" horiz-adv-x="1282" 
d="M1282 -5q-33 0 -70.5 7.5t-72 22t-57.5 36.5l79 54q29 -13 62 -18.5t69 -5.5q25 0 36.5 -13t11.5 -33t-15 -35t-43 -15zM304 -232q-56 0 -104.5 15.5t-86 45.5t-58.5 73.5t-21 100.5q0 22 4 50t15 64t30 78l84 -33q-12 -30 -20.5 -55.5t-12 -48t-3.5 -44.5
q0 -47 22.5 -81t62.5 -51.5t92 -17.5q56 0 94.5 14.5t61.5 39.5t32.5 58.5t9.5 71.5q0 54 -14.5 109.5t-33.5 118.5l96 26q11 -39 16.5 -63.5t9.5 -39.5t8 -26q9 -23 26.5 -40t47.5 -28t76.5 -16.5t113.5 -5.5q53 0 95.5 5t74 15t53 25t32 34.5t10.5 43.5q0 22 -10 41.5
t-30.5 32.5t-52.5 13q-40 0 -79.5 -20.5t-76.5 -54.5t-68.5 -72t-55.5 -73l-98 7q22 39 53.5 82.5t69.5 84t81 72.5t88.5 51.5t92.5 19.5q55 0 95 -23t62.5 -62.5t22.5 -91.5q0 -48 -20.5 -89t-64 -71.5t-113 -48t-169.5 -17.5q-66 0 -116.5 9t-86 24.5t-56 34t-25.5 38.5
l42 -45q-2 -55 -18.5 -105t-51.5 -89.5t-91 -62.5t-137 -23zM928 -212q-23 0 -39 16t-16 38t16 38.5t39 16.5q22 0 37.5 -16.5t15.5 -38.5t-15.5 -38t-37.5 -16zM783 -212q-23 0 -38.5 16t-15.5 38t15.5 38.5t38.5 16.5q22 0 38 -16.5t16 -38.5t-16 -38t-38 -16z" />
    <glyph glyph-name="uni069E.init" unicode="&#x69e;" horiz-adv-x="868" 
d="M460 -16q-83 0 -138.5 6.5t-90.5 20t-53.5 33.5t-27.5 47l25 8q-23 -46 -51.5 -68t-59 -29t-64.5 -7l10 96q31 0 49.5 9.5t31 32t23 61t24.5 96.5l88 -23q-6 -24 -11 -44.5t-7.5 -36t-2.5 -24.5q0 -23 9.5 -38.5t37 -25.5t79 -14t134.5 -4q69 0 119.5 8t83.5 23.5
t49.5 38.5t16.5 53q0 21 -10 41t-30.5 33t-52.5 13q-41 0 -81.5 -22.5t-78 -57t-68 -72t-50.5 -68.5l-102 5q33 56 76.5 111.5t94 100.5t105.5 72.5t111 27.5q55 0 95 -23t62 -63t22 -92q0 -63 -36 -114t-116.5 -81t-214.5 -30zM622 606q-23 0 -38.5 15.5t-15.5 37.5
q0 21 15.5 37t38.5 16q21 0 36.5 -16t15.5 -37q0 -22 -15.5 -37.5t-36.5 -15.5zM551 488q-22 0 -37.5 15.5t-15.5 37.5t15.5 37.5t37.5 15.5t37.5 -15.5t15.5 -37.5t-15.5 -37.5t-37.5 -15.5zM692 488q-22 0 -37.5 15.5t-15.5 37.5t15.5 37.5t37.5 15.5t37 -15.5t15 -37.5
t-15.5 -37.5t-36.5 -15.5z" />
    <glyph glyph-name="uni069E.medi" unicode="&#x69e;" horiz-adv-x="900" 
d="M900 -5q-32 0 -69.5 7.5t-72 22t-57.5 36.5l79 54q29 -13 62 -18.5t68 -5.5q25 0 36.5 -13t11.5 -33t-14.5 -35t-43.5 -15zM460 -16q-83 0 -138.5 6.5t-90.5 20t-53.5 33.5t-27.5 47l25 8q-23 -46 -51.5 -68t-59 -29t-64.5 -7l10 96q31 0 49.5 9.5t31 32t23 61t24.5 96.5
l88 -23q-6 -24 -11 -44.5t-7.5 -36t-2.5 -24.5q0 -23 9.5 -38.5t37 -25.5t79 -14t134.5 -4q69 0 119.5 8t83.5 23.5t49.5 38.5t16.5 53q0 21 -10 41t-30.5 33t-52.5 13q-41 0 -81.5 -22.5t-78 -57t-68 -72t-50.5 -68.5l-102 5q33 56 76.5 111.5t94 100.5t105.5 72.5
t111 27.5q55 0 95 -23t62 -63t22 -92q0 -63 -36 -114t-116.5 -81t-214.5 -30zM622 606q-23 0 -38.5 15.5t-15.5 37.5q0 21 15.5 37t38.5 16q21 0 36.5 -16t15.5 -37q0 -22 -15.5 -37.5t-36.5 -15.5zM551 488q-22 0 -37.5 15.5t-15.5 37.5t15.5 37.5t37.5 15.5t37.5 -15.5
t15.5 -37.5t-15.5 -37.5t-37.5 -15.5zM692 488q-22 0 -37.5 15.5t-15.5 37.5t15.5 37.5t37.5 15.5t37 -15.5t15 -37.5t-15.5 -37.5t-36.5 -15.5z" />
    <glyph glyph-name="uni069E.fina" unicode="&#x69e;" horiz-adv-x="1282" 
d="M1282 -5q-33 0 -70.5 7.5t-72 22t-57.5 36.5l79 54q29 -13 62 -18.5t69 -5.5q25 0 36.5 -13t11.5 -33t-15 -35t-43 -15zM304 -232q-56 0 -104.5 15.5t-86 45.5t-58.5 73.5t-21 100.5q0 22 4 50t15 64t30 78l84 -33q-12 -30 -20.5 -55.5t-12 -48t-3.5 -44.5
q0 -47 22.5 -81t62.5 -51.5t92 -17.5q56 0 94.5 14.5t61.5 39.5t32.5 58.5t9.5 71.5q0 54 -14.5 109.5t-33.5 118.5l96 26q11 -39 16.5 -63.5t9.5 -39.5t8 -26q9 -23 26.5 -40t47.5 -28t76.5 -16.5t113.5 -5.5q53 0 95.5 5t74 15t53 25t32 34.5t10.5 43.5q0 22 -10 41.5
t-30.5 32.5t-52.5 13q-40 0 -79.5 -20.5t-76.5 -54.5t-68.5 -72t-55.5 -73l-98 7q22 39 53.5 82.5t69.5 84t81 72.5t88.5 51.5t92.5 19.5q55 0 95 -23t62.5 -62.5t22.5 -91.5q0 -48 -20.5 -89t-64 -71.5t-113 -48t-169.5 -17.5q-66 0 -116.5 9t-86 24.5t-56 34t-25.5 38.5
l42 -45q-2 -55 -18.5 -105t-51.5 -89.5t-91 -62.5t-137 -23zM1003 609q-23 0 -38.5 15.5t-15.5 37.5q0 21 15.5 37t38.5 16q21 0 36.5 -16t15.5 -37q0 -22 -15.5 -37.5t-36.5 -15.5zM932 491q-22 0 -37.5 15.5t-15.5 37.5t15.5 37.5t37.5 15.5t37.5 -15.5t15.5 -37.5
t-15.5 -37.5t-37.5 -15.5zM1073 491q-22 0 -37.5 15.5t-15.5 37.5t15.5 37.5t37.5 15.5t37 -15.5t15 -37.5t-15.5 -37.5t-36.5 -15.5z" />
    <glyph glyph-name="uni069F.init" unicode="&#x69f;" horiz-adv-x="656" 
d="M0 -5l10 96h204q78 0 136 7t96 21.5t57 37t19 53.5q0 19 -9.5 38t-29.5 32t-53 13q-42 0 -82.5 -22t-77.5 -56.5t-68 -72.5t-52 -70l-102 7q34 57 77.5 112.5t94 100.5t105.5 71.5t111 26.5q54 0 94.5 -23t62.5 -63t22 -91q0 -55 -33 -102t-107 -76q-36 -14 -82 -23
t-103.5 -13t-129.5 -4h-160zM97 96l-20 619h97l19 -523zM404 607q-23 0 -38.5 15.5t-15.5 37.5q0 21 15.5 37t38.5 16q21 0 36.5 -16t15.5 -37q0 -22 -15.5 -37.5t-36.5 -15.5zM333 489q-22 0 -37.5 15.5t-15.5 37.5t15.5 37.5t37.5 15.5t37.5 -15.5t15.5 -37.5t-15.5 -37.5
t-37.5 -15.5zM474 489q-22 0 -37.5 15.5t-15.5 37.5t15.5 37.5t37.5 15.5t37 -15.5t15 -37.5t-15.5 -37.5t-36.5 -15.5z" />
    <glyph glyph-name="uni069F.medi" unicode="&#x69f;" horiz-adv-x="678" 
d="M678 -5q-33 0 -70.5 7.5t-72 22t-57.5 36.5l80 54q28 -13 61 -18.5t69 -5.5q25 0 36.5 -13t11.5 -33t-15 -35t-43 -15zM0 -5l10 96h204q78 0 136 7t96 21.5t57 37t19 53.5q0 19 -9.5 38t-29.5 32t-53 13q-42 0 -82.5 -22t-77.5 -56.5t-68 -72.5t-52 -70l-102 7
q34 57 77.5 112.5t94 100.5t105.5 71.5t111 26.5q54 0 94.5 -23t62.5 -63t22 -91q0 -55 -33 -102t-107 -76q-36 -14 -82 -23t-103.5 -13t-129.5 -4h-160zM97 96l-20 619h97l19 -523zM404 607q-23 0 -38.5 15.5t-15.5 37.5q0 21 15.5 37t38.5 16q21 0 36.5 -16t15.5 -37
q0 -22 -15.5 -37.5t-36.5 -15.5zM333 489q-22 0 -37.5 15.5t-15.5 37.5t15.5 37.5t37.5 15.5t37.5 -15.5t15.5 -37.5t-15.5 -37.5t-37.5 -15.5zM474 489q-22 0 -37.5 15.5t-15.5 37.5t15.5 37.5t37.5 15.5t37 -15.5t15 -37.5t-15.5 -37.5t-36.5 -15.5z" />
    <glyph glyph-name="uni069F.fina" unicode="&#x69f;" horiz-adv-x="777" 
d="M777 -5q-33 0 -70.5 7.5t-72 22t-57.5 36.5l79 54q29 -13 62 -18.5t69 -5.5q25 0 36.5 -13t11.5 -33t-15 -35t-43 -15zM343 -13q-51 0 -98 1.5t-89.5 4t-78 6.5t-61.5 7l11 93q35 -4 71 -7t75 -5t83 -3t94 -1q66 0 116 8t83 23.5t50 38.5t17 52q0 22 -10 41.5t-30 33
t-53 13.5q-41 0 -81.5 -22.5t-78 -57t-68 -72t-50.5 -68.5l-102 7q34 56 77 111t93.5 100t105.5 72t111 27q53 0 93.5 -22.5t63 -62.5t22.5 -92q0 -65 -37 -116t-117.5 -80.5t-211.5 -29.5zM195 99l-20 616h96l19 -521zM501 607q-23 0 -38.5 15.5t-15.5 37.5q0 21 15.5 37
t38.5 16q21 0 36.5 -16t15.5 -37q0 -22 -15.5 -37.5t-36.5 -15.5zM430 489q-22 0 -37.5 15.5t-15.5 37.5t15.5 37.5t37.5 15.5t37.5 -15.5t15.5 -37.5t-15.5 -37.5t-37.5 -15.5zM571 489q-22 0 -37.5 15.5t-15.5 37.5t15.5 37.5t37.5 15.5t37 -15.5t15 -37.5t-15.5 -37.5
t-36.5 -15.5z" />
    <glyph glyph-name="uni06A0.init" unicode="&#x6a0;" horiz-adv-x="485" 
d="M0 -5l10 96q49 0 78 1t46.5 2.5t30.5 3.5q-18 11 -40.5 33t-39 55.5t-16.5 78.5q0 58 27 100.5t74 66t105 23.5q24 0 47.5 -3.5t47.5 -11.5l-17 -89q-19 5 -37.5 7.5t-35.5 2.5q-33 0 -59 -12.5t-41 -34.5t-15 -54q0 -24 10 -44.5t25.5 -37t34.5 -27.5t37.5 -17.5
t31.5 -6.5q15 4 26 7t23 7t28 11t42 18l31 -85q-65 -29 -133 -49t-146.5 -30.5t-174.5 -10.5zM252 674q-23 0 -38.5 15.5t-15.5 37.5q0 21 15.5 37t38.5 16q21 0 36.5 -16t15.5 -37q0 -22 -15.5 -37.5t-36.5 -15.5zM181 556q-22 0 -37.5 15.5t-15.5 37.5t15.5 37.5
t37.5 15.5t37.5 -15.5t15.5 -37.5t-15.5 -37.5t-37.5 -15.5zM322 556q-22 0 -37.5 15.5t-15.5 37.5t15.5 37.5t37.5 15.5t37 -15.5t15 -37.5t-15.5 -37.5t-36.5 -15.5z" />
    <glyph glyph-name="uni06A0.medi" unicode="&#x6a0;" horiz-adv-x="496" 
d="M-1 -5l10 96q58 0 108.5 11.5t92 30.5t71 44t45.5 52.5t16 53.5q0 16 -9 28.5t-27.5 19.5t-45.5 7q-19 0 -42 -5.5t-44.5 -15t-36.5 -22.5q22 -20 45 -42.5t46.5 -48t47.5 -55.5q20 -14 45 -25t54.5 -18.5t62.5 -11t68 -3.5q25 0 36.5 -13t11.5 -33q0 -22 -15.5 -36
t-42.5 -14q-59 0 -113 10.5t-99 32t-81 53.5q-18 26 -39.5 51t-44.5 47.5t-45 40.5q-5 4 -10 17t-8.5 27.5t-3.5 21.5q0 19 18.5 42t49.5 43.5t70.5 34t81.5 13.5q52 0 88.5 -15.5t55.5 -43.5t19 -67q0 -46 -21 -90.5t-60.5 -84t-93.5 -69.5t-120 -47t-141 -17zM266 647
q-23 0 -38.5 15.5t-15.5 37.5q0 21 15.5 37t38.5 16q21 0 36.5 -16t15.5 -37q0 -22 -15.5 -37.5t-36.5 -15.5zM195 529q-22 0 -37.5 15.5t-15.5 37.5t15.5 37.5t37.5 15.5t37.5 -15.5t15.5 -37.5t-15.5 -37.5t-37.5 -15.5zM336 529q-22 0 -37.5 15.5t-15.5 37.5t15.5 37.5
t37.5 15.5t37 -15.5t15 -37.5t-15.5 -37.5t-36.5 -15.5z" />
    <glyph glyph-name="uni06A0.fina" unicode="&#x6a0;" horiz-adv-x="505" 
d="M287 -388q-49 0 -99 10t-91.5 35t-67 67.5t-25.5 106.5t24.5 112.5t63.5 86.5t83 69.5t83 60t64 58t25 65.5q0 14 -8 26.5t-25 20.5t-44 8q-19 0 -42 -5.5t-44 -15t-37 -22.5q26 -23 49 -45.5t45.5 -47t45.5 -53.5q22 -14 45.5 -25t51 -18.5t59.5 -11t72 -3.5
q24 0 36 -13t12 -33q0 -21 -15.5 -35.5t-42.5 -14.5q-73 0 -125 11.5t-92 33.5t-77 53q-16 25 -37.5 49.5t-44.5 47t-44 40.5q-5 4 -10.5 17t-9 27.5t-3.5 20.5q0 20 18 43t49 43.5t71 34t83 13.5q79 0 118 -36.5t39 -89.5t-24.5 -95t-63 -77t-82 -67t-82 -65.5t-63 -71
t-24.5 -84.5q0 -42 18.5 -68.5t47 -41t61 -20t60.5 -5.5q30 0 61 3.5t66 13t74 25.5l30 -77q-31 -18 -70.5 -32t-81 -21.5t-80.5 -7.5zM281 647q-23 0 -38.5 15.5t-15.5 37.5q0 21 15.5 37t38.5 16q21 0 36.5 -16t15.5 -37q0 -22 -15.5 -37.5t-36.5 -15.5zM210 529
q-22 0 -37.5 15.5t-15.5 37.5t15.5 37.5t37.5 15.5t37.5 -15.5t15.5 -37.5t-15.5 -37.5t-37.5 -15.5zM351 529q-22 0 -37.5 15.5t-15.5 37.5t15.5 37.5t37.5 15.5t37 -15.5t15 -37.5t-15.5 -37.5t-36.5 -15.5z" />
    <glyph glyph-name="uni06A1.init" unicode="&#x6a1;" horiz-adv-x="436" 
d="M0 -5l10 96h66t60.5 2t51.5 6t39 11q28 11 44.5 30.5t23.5 51t7 77.5q0 45 -9 81t-26 57t-43 21q-18 0 -34.5 -15t-26 -40t-9.5 -54q0 -21 9 -35t26.5 -21t43.5 -7q24 0 49 5.5t44 15.5l4 -80q-14 -11 -33 -18t-39.5 -10.5t-40.5 -3.5q-51 0 -86 17t-52.5 47.5
t-17.5 70.5t12 79.5t34.5 71.5t54 51.5t70.5 19.5q55 0 91 -35t54 -94t18 -130q0 -73 -23.5 -128.5t-75.5 -89.5q-23 -15 -53.5 -25t-68 -15.5t-81 -7.5t-93.5 -2z" />
    <glyph glyph-name="uni06A1.medi" unicode="&#x6a1;" horiz-adv-x="469" 
d="M0 -5l10 96q26 -1 52.5 0.5t51 4.5t47 7.5t40.5 11.5q32 11 57 29t40 42.5t15 54.5q0 23 -9.5 45.5t-25.5 37.5t-37 15q-20 0 -37.5 -14.5t-28 -37.5t-10.5 -49q0 -30 14 -54t36.5 -42t46.5 -31l-100 -36q-19 16 -40.5 38.5t-37 54.5t-15.5 74q0 39 14.5 73.5t38.5 60.5
t55.5 41t66.5 15q49 0 86 -26t58 -68t21 -88q0 -42 -14.5 -76t-39 -61t-56 -47t-67.5 -34q-22 -10 -49.5 -17t-58 -11.5t-62 -6.5t-62.5 -2zM469 -5q-47 0 -96 6t-93 17t-75 26l68 64q29 -6 66.5 -10t74.5 -5.5t65 -1.5q25 0 36.5 -13t11.5 -33t-15 -35t-43 -15z" />
    <glyph glyph-name="uni06A1.fina" unicode="&#x6a1;" horiz-adv-x="1031" 
d="M367 -21l26 96q61 0 117 3t104.5 8.5t86 12.5t60.5 16q34 12 60 29.5t40.5 41t14.5 52.5q0 16 -5.5 34t-15 33t-23 24.5t-28.5 9.5q-21 0 -38.5 -15.5t-28 -40t-10.5 -50.5q0 -29 14 -51.5t36.5 -39.5t46.5 -29l-99 -38q-19 16 -40.5 37.5t-37 52t-15.5 71.5
q0 39 13.5 74.5t38 63t56.5 43t66 15.5q50 0 87 -27.5t58 -70.5t21 -90q0 -40 -14.5 -72.5t-39 -58.5t-56.5 -46t-67 -34q-29 -13 -75.5 -23t-104.5 -17t-121.5 -10.5t-126.5 -3.5zM1031 -5q-47 0 -94.5 5.5t-90.5 16.5t-78 27l68 63q28 -5 65 -9t74.5 -5.5t65.5 -1.5
q26 0 37 -13t11 -33t-14.5 -35t-43.5 -15zM367 -21q-82 0 -144.5 12t-105 37.5t-64.5 64t-22 91.5q0 27 4.5 56t12 57.5t14.5 53.5l86 -22q-4 -16 -9 -37t-9 -43t-4 -40q0 -44 23.5 -74t81.5 -45t162 -15l20 -64z" />
    <glyph glyph-name="fehDotMovedbelowar.init" unicode="&#x6a2;" horiz-adv-x="436" 
d="M0 -5l10 96h66t60.5 2t51.5 6t39 11q28 11 44.5 30.5t23.5 51t7 77.5q0 45 -9 81t-26 57t-43 21q-18 0 -34.5 -15t-26 -40t-9.5 -54q0 -21 9 -35t26.5 -21t43.5 -7q24 0 49 5.5t44 15.5l4 -80q-14 -11 -33 -18t-39.5 -10.5t-40.5 -3.5q-51 0 -86 17t-52.5 47.5
t-17.5 70.5t12 79.5t34.5 71.5t54 51.5t70.5 19.5q55 0 91 -35t54 -94t18 -130q0 -73 -23.5 -128.5t-75.5 -89.5q-23 -15 -53.5 -25t-68 -15.5t-81 -7.5t-93.5 -2zM191 -211q-23 0 -39 15.5t-16 37.5q0 23 16 39.5t39 16.5q22 0 38 -16.5t16 -39.5q0 -22 -16 -37.5
t-38 -15.5z" />
    <glyph glyph-name="fehDotMovedbelowar.medi" unicode="&#x6a2;" horiz-adv-x="469" 
d="M0 -5l10 96q26 -1 52.5 0.5t51 4.5t47 7.5t40.5 11.5q32 11 57 29t40 42.5t15 54.5q0 23 -9.5 45.5t-25.5 37.5t-37 15q-20 0 -37.5 -14.5t-28 -37.5t-10.5 -49q0 -30 14 -54t36.5 -42t46.5 -31l-100 -36q-19 16 -40.5 38.5t-37 54.5t-15.5 74q0 39 14.5 73.5t38.5 60.5
t55.5 41t66.5 15q49 0 86 -26t58 -68t21 -88q0 -42 -14.5 -76t-39 -61t-56 -47t-67.5 -34q-22 -10 -49.5 -17t-58 -11.5t-62 -6.5t-62.5 -2zM469 -5q-47 0 -96 6t-93 17t-75 26l68 64q29 -6 66.5 -10t74.5 -5.5t65 -1.5q25 0 36.5 -13t11.5 -33t-15 -35t-43 -15zM232 -211
q-23 0 -39 15.5t-16 37.5q0 23 16 39.5t39 16.5q22 0 38 -16.5t16 -39.5q0 -22 -16 -37.5t-38 -15.5z" />
    <glyph glyph-name="fehDotMovedbelowar.fina" unicode="&#x6a2;" horiz-adv-x="1031" 
d="M367 -21l26 96q61 0 117 3t104.5 8.5t86 12.5t60.5 16q34 12 60 29.5t40.5 41t14.5 52.5q0 16 -5.5 34t-15 33t-23 24.5t-28.5 9.5q-21 0 -38.5 -15.5t-28 -40t-10.5 -50.5q0 -29 14 -51.5t36.5 -39.5t46.5 -29l-99 -38q-19 16 -40.5 37.5t-37 52t-15.5 71.5
q0 39 13.5 74.5t38 63t56.5 43t66 15.5q50 0 87 -27.5t58 -70.5t21 -90q0 -40 -14.5 -72.5t-39 -58.5t-56.5 -46t-67 -34q-29 -13 -75.5 -23t-104.5 -17t-121.5 -10.5t-126.5 -3.5zM1031 -5q-47 0 -94.5 5.5t-90.5 16.5t-78 27l68 63q28 -5 65 -9t74.5 -5.5t65.5 -1.5
q26 0 37 -13t11 -33t-14.5 -35t-43.5 -15zM367 -21q-82 0 -144.5 12t-105 37.5t-64.5 64t-22 91.5q0 27 4.5 56t12 57.5t14.5 53.5l86 -22q-4 -16 -9 -37t-9 -43t-4 -40q0 -44 23.5 -74t81.5 -45t162 -15l20 -64zM441 -220q-23 0 -39 15.5t-16 37.5q0 23 16 39.5t39 16.5
q22 0 38 -16.5t16 -39.5q0 -22 -16 -37.5t-38 -15.5z" />
    <glyph glyph-name="uni06A3.init" unicode="&#x6a3;" horiz-adv-x="436" 
d="M0 -5l10 96h66t60.5 2t51.5 6t39 11q28 11 44.5 30.5t23.5 51t7 77.5q0 45 -9 81t-26 57t-43 21q-18 0 -34.5 -15t-26 -40t-9.5 -54q0 -21 9 -35t26.5 -21t43.5 -7q24 0 49 5.5t44 15.5l4 -80q-14 -11 -33 -18t-39.5 -10.5t-40.5 -3.5q-51 0 -86 17t-52.5 47.5
t-17.5 70.5t12 79.5t34.5 71.5t54 51.5t70.5 19.5q55 0 91 -35t54 -94t18 -130q0 -73 -23.5 -128.5t-75.5 -89.5q-23 -15 -53.5 -25t-68 -15.5t-81 -7.5t-93.5 -2zM218 623q-24 0 -40 16t-16 38q0 23 16 39.5t40 16.5q22 0 38 -16.5t16 -38.5q0 -23 -16 -39t-38 -16z
M191 -211q-23 0 -39 15.5t-16 37.5q0 23 16 39.5t39 16.5q22 0 38 -16.5t16 -39.5q0 -22 -16 -37.5t-38 -15.5z" />
    <glyph glyph-name="uni06A3.medi" unicode="&#x6a3;" horiz-adv-x="469" 
d="M0 -5l10 96q26 -1 52.5 0.5t51 4.5t47 7.5t40.5 11.5q32 11 57 29t40 42.5t15 54.5q0 23 -9.5 45.5t-25.5 37.5t-37 15q-20 0 -37.5 -14.5t-28 -37.5t-10.5 -49q0 -30 14 -54t36.5 -42t46.5 -31l-100 -36q-19 16 -40.5 38.5t-37 54.5t-15.5 74q0 39 14.5 73.5t38.5 60.5
t55.5 41t66.5 15q49 0 86 -26t58 -68t21 -88q0 -42 -14.5 -76t-39 -61t-56 -47t-67.5 -34q-22 -10 -49.5 -17t-58 -11.5t-62 -6.5t-62.5 -2zM469 -5q-47 0 -96 6t-93 17t-75 26l68 64q29 -6 66.5 -10t74.5 -5.5t65 -1.5q25 0 36.5 -13t11.5 -33t-15 -35t-43 -15zM240 533
q-24 0 -40 16t-16 38q0 23 16 39.5t40 16.5q22 0 38 -16.5t16 -38.5q0 -23 -16 -39t-38 -16zM232 -211q-23 0 -39 15.5t-16 37.5q0 23 16 39.5t39 16.5q22 0 38 -16.5t16 -39.5q0 -22 -16 -37.5t-38 -15.5z" />
    <glyph glyph-name="uni06A3.fina" unicode="&#x6a3;" horiz-adv-x="1031" 
d="M367 -21l26 96q61 0 117 3t104.5 8.5t86 12.5t60.5 16q34 12 60 29.5t40.5 41t14.5 52.5q0 16 -5.5 34t-15 33t-23 24.5t-28.5 9.5q-21 0 -38.5 -15.5t-28 -40t-10.5 -50.5q0 -29 14 -51.5t36.5 -39.5t46.5 -29l-99 -38q-19 16 -40.5 37.5t-37 52t-15.5 71.5
q0 39 13.5 74.5t38 63t56.5 43t66 15.5q50 0 87 -27.5t58 -70.5t21 -90q0 -40 -14.5 -72.5t-39 -58.5t-56.5 -46t-67 -34q-29 -13 -75.5 -23t-104.5 -17t-121.5 -10.5t-126.5 -3.5zM1031 -5q-47 0 -94.5 5.5t-90.5 16.5t-78 27l68 63q28 -5 65 -9t74.5 -5.5t65.5 -1.5
q26 0 37 -13t11 -33t-14.5 -35t-43.5 -15zM367 -21q-82 0 -144.5 12t-105 37.5t-64.5 64t-22 91.5q0 27 4.5 56t12 57.5t14.5 53.5l86 -22q-4 -16 -9 -37t-9 -43t-4 -40q0 -44 23.5 -74t81.5 -45t162 -15l20 -64zM803 533q-24 0 -40 16t-16 38q0 23 16 39.5t40 16.5
q22 0 38 -16.5t16 -38.5q0 -23 -16 -39t-38 -16zM441 -220q-23 0 -39 15.5t-16 37.5q0 23 16 39.5t39 16.5q22 0 38 -16.5t16 -39.5q0 -22 -16 -37.5t-38 -15.5z" />
    <glyph glyph-name="uni06A5.init" unicode="&#x6a5;" horiz-adv-x="436" 
d="M0 -5l10 96h66t60.5 2t51.5 6t39 11q28 11 44.5 30.5t23.5 51t7 77.5q0 45 -9 81t-26 57t-43 21q-18 0 -34.5 -15t-26 -40t-9.5 -54q0 -21 9 -35t26.5 -21t43.5 -7q24 0 49 5.5t44 15.5l4 -80q-14 -11 -33 -18t-39.5 -10.5t-40.5 -3.5q-51 0 -86 17t-52.5 47.5
t-17.5 70.5t12 79.5t34.5 71.5t54 51.5t70.5 19.5q55 0 91 -35t54 -94t18 -130q0 -73 -23.5 -128.5t-75.5 -89.5q-23 -15 -53.5 -25t-68 -15.5t-81 -7.5t-93.5 -2zM192 -326q-22 0 -37.5 15t-15.5 37q0 21 15.5 37t37.5 16q21 0 36.5 -16t15.5 -37q0 -22 -15.5 -37
t-36.5 -15zM122 -208q-22 0 -37.5 15t-15.5 36q0 22 15.5 38t37.5 16q21 0 36.5 -16t15.5 -38q0 -21 -15.5 -36t-36.5 -15zM263 -208q-23 0 -38.5 15t-15.5 36q0 22 15.5 38t38.5 16q21 0 36 -16t15 -38q0 -21 -15 -36t-36 -15z" />
    <glyph glyph-name="uni06A5.medi" unicode="&#x6a5;" horiz-adv-x="469" 
d="M0 -5l10 96q26 -1 52.5 0.5t51 4.5t47 7.5t40.5 11.5q32 11 57 29t40 42.5t15 54.5q0 23 -9.5 45.5t-25.5 37.5t-37 15q-20 0 -37.5 -14.5t-28 -37.5t-10.5 -49q0 -30 14 -54t36.5 -42t46.5 -31l-100 -36q-19 16 -40.5 38.5t-37 54.5t-15.5 74q0 39 14.5 73.5t38.5 60.5
t55.5 41t66.5 15q49 0 86 -26t58 -68t21 -88q0 -42 -14.5 -76t-39 -61t-56 -47t-67.5 -34q-22 -10 -49.5 -17t-58 -11.5t-62 -6.5t-62.5 -2zM469 -5q-47 0 -96 6t-93 17t-75 26l68 64q29 -6 66.5 -10t74.5 -5.5t65 -1.5q25 0 36.5 -13t11.5 -33t-15 -35t-43 -15zM233 -326
q-22 0 -37.5 15t-15.5 37q0 21 15.5 37t37.5 16q21 0 36.5 -16t15.5 -37q0 -22 -15.5 -37t-36.5 -15zM163 -208q-22 0 -37.5 15t-15.5 36q0 22 15.5 38t37.5 16q21 0 36.5 -16t15.5 -38q0 -21 -15.5 -36t-36.5 -15zM304 -208q-23 0 -38.5 15t-15.5 36q0 22 15.5 38t38.5 16
q21 0 36 -16t15 -38q0 -21 -15 -36t-36 -15z" />
    <glyph glyph-name="uni06A5.fina" unicode="&#x6a5;" horiz-adv-x="1031" 
d="M367 -21l26 96q61 0 117 3t104.5 8.5t86 12.5t60.5 16q34 12 60 29.5t40.5 41t14.5 52.5q0 16 -5.5 34t-15 33t-23 24.5t-28.5 9.5q-21 0 -38.5 -15.5t-28 -40t-10.5 -50.5q0 -29 14 -51.5t36.5 -39.5t46.5 -29l-99 -38q-19 16 -40.5 37.5t-37 52t-15.5 71.5
q0 39 13.5 74.5t38 63t56.5 43t66 15.5q50 0 87 -27.5t58 -70.5t21 -90q0 -40 -14.5 -72.5t-39 -58.5t-56.5 -46t-67 -34q-29 -13 -75.5 -23t-104.5 -17t-121.5 -10.5t-126.5 -3.5zM1031 -5q-47 0 -94.5 5.5t-90.5 16.5t-78 27l68 63q28 -5 65 -9t74.5 -5.5t65.5 -1.5
q26 0 37 -13t11 -33t-14.5 -35t-43.5 -15zM367 -21q-82 0 -144.5 12t-105 37.5t-64.5 64t-22 91.5q0 27 4.5 56t12 57.5t14.5 53.5l86 -22q-4 -16 -9 -37t-9 -43t-4 -40q0 -44 23.5 -74t81.5 -45t162 -15l20 -64zM442 -336q-22 0 -37.5 15t-15.5 37q0 21 15.5 37t37.5 16
q21 0 36.5 -16t15.5 -37q0 -22 -15.5 -37t-36.5 -15zM372 -218q-22 0 -37.5 15t-15.5 36q0 22 15.5 38t37.5 16q21 0 36.5 -16t15.5 -38q0 -21 -15.5 -36t-36.5 -15zM513 -218q-23 0 -38.5 15t-15.5 36q0 22 15.5 38t38.5 16q21 0 36 -16t15 -38q0 -21 -15 -36t-36 -15z" />
    <glyph glyph-name="uni06A7.fina" unicode="&#x6a7;" horiz-adv-x="782" 
d="M322 -272q-57 0 -109.5 13.5t-94 42t-65.5 74t-24 109.5q0 18 3.5 46.5t15.5 68.5t37 89l85 -37q-15 -33 -24.5 -59t-14 -48t-4.5 -46q0 -54 28.5 -89t76.5 -51.5t108 -16.5q41 0 76.5 6t65 17t53 26.5t40 35t25.5 41.5q13 30 18.5 67t5.5 71q0 51 -9.5 88t-27 57.5
t-40.5 20.5q-15 0 -28 -9.5t-22 -25t-14.5 -34t-5.5 -37.5q0 -18 7 -30t22.5 -18.5t41 -8.5t62.5 0h182q25 0 36.5 -13t11.5 -33q0 -21 -15.5 -35.5t-42.5 -14.5h-214q-43 0 -76.5 8t-58 25t-37 42.5t-13.5 60.5q0 39 12.5 77.5t36 70t55 50.5t68.5 19q49 0 86 -31.5
t57.5 -92t20.5 -146.5q0 -44 -12 -93.5t-33 -90.5q-23 -44 -58.5 -75.5t-81 -51.5t-99 -29.5t-113.5 -9.5zM554 448q-24 0 -40 16t-16 38q0 23 16 39.5t40 16.5q22 0 38 -16.5t16 -38.5q0 -23 -16 -39t-38 -16z" />
    <glyph glyph-name="uni06A8.init" unicode="&#x6a8;" horiz-adv-x="436" 
d="M0 -5l10 96h66t60.5 2t51.5 6t39 11q28 11 44.5 30.5t23.5 51t7 77.5q0 45 -9 81t-26 57t-43 21q-18 0 -34.5 -15t-26 -40t-9.5 -54q0 -21 9 -35t26.5 -21t43.5 -7q24 0 49 5.5t44 15.5l4 -80q-14 -11 -33 -18t-39.5 -10.5t-40.5 -3.5q-51 0 -86 17t-52.5 47.5
t-17.5 70.5t12 79.5t34.5 71.5t54 51.5t70.5 19.5q55 0 91 -35t54 -94t18 -130q0 -73 -23.5 -128.5t-75.5 -89.5q-23 -15 -53.5 -25t-68 -15.5t-81 -7.5t-93.5 -2zM220 741q-23 0 -38.5 15.5t-15.5 37.5q0 21 15.5 37t38.5 16q21 0 36.5 -16t15.5 -37q0 -22 -15.5 -37.5
t-36.5 -15.5zM149 623q-22 0 -37.5 15.5t-15.5 37.5t15.5 37.5t37.5 15.5t37.5 -15.5t15.5 -37.5t-15.5 -37.5t-37.5 -15.5zM290 623q-22 0 -37.5 15.5t-15.5 37.5t15.5 37.5t37.5 15.5t37 -15.5t15 -37.5t-15.5 -37.5t-36.5 -15.5z" />
    <glyph glyph-name="uni06A8.medi" unicode="&#x6a8;" horiz-adv-x="469" 
d="M0 -5l10 96q26 -1 52.5 0.5t51 4.5t47 7.5t40.5 11.5q32 11 57 29t40 42.5t15 54.5q0 23 -9.5 45.5t-25.5 37.5t-37 15q-20 0 -37.5 -14.5t-28 -37.5t-10.5 -49q0 -30 14 -54t36.5 -42t46.5 -31l-100 -36q-19 16 -40.5 38.5t-37 54.5t-15.5 74q0 39 14.5 73.5t38.5 60.5
t55.5 41t66.5 15q49 0 86 -26t58 -68t21 -88q0 -42 -14.5 -76t-39 -61t-56 -47t-67.5 -34q-22 -10 -49.5 -17t-58 -11.5t-62 -6.5t-62.5 -2zM469 -5q-47 0 -96 6t-93 17t-75 26l68 64q29 -6 66.5 -10t74.5 -5.5t65 -1.5q25 0 36.5 -13t11.5 -33t-15 -35t-43 -15zM242 651
q-23 0 -38.5 15.5t-15.5 37.5q0 21 15.5 37t38.5 16q21 0 36.5 -16t15.5 -37q0 -22 -15.5 -37.5t-36.5 -15.5zM171 533q-22 0 -37.5 15.5t-15.5 37.5t15.5 37.5t37.5 15.5t37.5 -15.5t15.5 -37.5t-15.5 -37.5t-37.5 -15.5zM312 533q-22 0 -37.5 15.5t-15.5 37.5t15.5 37.5
t37.5 15.5t37 -15.5t15 -37.5t-15.5 -37.5t-36.5 -15.5z" />
    <glyph glyph-name="uni06A8.fina" unicode="&#x6a8;" horiz-adv-x="782" 
d="M322 -272q-57 0 -109.5 13.5t-94 42t-65.5 74t-24 109.5q0 18 3.5 46.5t15.5 68.5t37 89l85 -37q-15 -33 -24.5 -59t-14 -48t-4.5 -46q0 -54 28.5 -89t76.5 -51.5t108 -16.5q41 0 76.5 6t65 17t53 26.5t40 35t25.5 41.5q13 30 18.5 67t5.5 71q0 51 -9.5 88t-27 57.5
t-40.5 20.5q-15 0 -28 -9.5t-22 -25t-14.5 -34t-5.5 -37.5q0 -18 7 -30t22.5 -18.5t41 -8.5t62.5 0h182q25 0 36.5 -13t11.5 -33q0 -21 -15.5 -35.5t-42.5 -14.5h-214q-43 0 -76.5 8t-58 25t-37 42.5t-13.5 60.5q0 39 12.5 77.5t36 70t55 50.5t68.5 19q49 0 86 -31.5
t57.5 -92t20.5 -146.5q0 -44 -12 -93.5t-33 -90.5q-23 -44 -58.5 -75.5t-81 -51.5t-99 -29.5t-113.5 -9.5zM557 566q-23 0 -38.5 15.5t-15.5 37.5q0 21 15.5 37t38.5 16q21 0 36.5 -16t15.5 -37q0 -22 -15.5 -37.5t-36.5 -15.5zM486 448q-22 0 -37.5 15.5t-15.5 37.5
t15.5 37.5t37.5 15.5t37.5 -15.5t15.5 -37.5t-15.5 -37.5t-37.5 -15.5zM627 448q-22 0 -37.5 15.5t-15.5 37.5t15.5 37.5t37.5 15.5t37 -15.5t15 -37.5t-15.5 -37.5t-36.5 -15.5z" />
    <glyph glyph-name="uni06AA.init" unicode="&#x6aa;" horiz-adv-x="764" 
d="M0 -5l10 96h291q80 0 141 1t102 6t61.5 16t20.5 31q0 14 -9.5 26t-34 22.5t-67 19t-108.5 14.5q-102 9 -162.5 22t-87 36.5t-26.5 62.5q0 43 27.5 79.5t76 66.5t112.5 54t136 40l20 -87q-88 -22 -150 -46t-94 -47.5t-32 -44.5q0 -13 16.5 -21t57 -14t113.5 -14
q90 -8 148.5 -22t92 -34t47.5 -47t14 -61q0 -47 -24 -77t-75 -47t-129 -24t-186 -7h-302z" />
    <glyph glyph-name="uni06AA.medi" unicode="&#x6aa;" horiz-adv-x="822" 
d="M822 -5q-33 0 -70.5 7.5t-71.5 22t-58 36.5l80 54q29 -13 61.5 -18.5t68.5 -5.5q25 0 36.5 -13t11.5 -33t-15 -35t-43 -15zM0 -5l10 96h291q80 0 141 1t102 6t61.5 16t20.5 31q0 14 -9.5 26t-34 22.5t-67 19t-108.5 14.5q-102 9 -162.5 22t-87 36.5t-26.5 62.5
q0 43 27.5 79.5t76 66.5t112.5 54t136 40l20 -87q-88 -22 -150 -46t-94 -47.5t-32 -44.5q0 -13 16.5 -21t57 -14t113.5 -14q90 -8 148.5 -22t92 -34t47.5 -47t14 -61q0 -47 -24 -77t-75 -47t-129 -24t-186 -7h-302z" />
    <glyph glyph-name="uni06AA.fina" unicode="&#x6aa;" horiz-adv-x="1046" 
d="M1046 -5q-33 0 -70.5 7.5t-72 22t-57.5 36.5l79 54q29 -13 62 -18.5t69 -5.5q25 0 36.5 -13t11.5 -33t-15 -35t-43 -15zM527 -15q-43 0 -104 1t-128.5 3t-131 6t-110.5 9l6 93q50 -3 107.5 -6t119 -5.5t122.5 -4t118 -1.5q80 0 140.5 3t101.5 10t62 19.5t21 31.5
q0 14 -9.5 26t-33.5 23t-66.5 19.5t-110.5 14.5q-101 9 -162 21.5t-87 36.5t-26 64q0 43 27.5 79.5t76.5 66.5t112.5 53.5t135.5 39.5l20 -87q-88 -22 -150.5 -46.5t-94.5 -48t-32 -43.5q0 -13 16.5 -21t57.5 -14t114 -14q90 -8 148 -22t92 -34t47.5 -47.5t13.5 -60.5
q0 -47 -24 -78.5t-74.5 -50.5t-128.5 -27.5t-186 -8.5z" />
    <glyph glyph-name="uni06AB.init" unicode="&#x6ab;" horiz-adv-x="394" 
d="M307 448q-36 0 -61 25.5t-25 61.5t25 61t61 25t61.5 -25t25.5 -61t-25.5 -61.5t-61.5 -25.5zM307 500q16 0 27 10t11 25t-11 25.5t-27 10.5q-15 0 -26 -10.5t-11 -25.5t11 -25t26 -10zM0 -5l10 96h97q42 0 68 5.5t39 15.5t18 22.5t5 26.5q0 26 -18 60.5t-61 77.5
q-27 28 -51.5 50.5t-43.5 40t-30 29t-11 18.5q0 14 2.5 30t7 30t11.5 21q15 16 42 35.5t66 42.5t91 50.5t118 60.5l42 -83q-66 -32 -114.5 -57t-84.5 -45.5t-64.5 -39t-54.5 -39.5l12 45q56 -49 99.5 -93t74.5 -84.5t47 -80t16 -79.5q0 -25 -9.5 -52t-35 -51t-73.5 -38.5
t-124 -14.5h-91z" />
    <glyph glyph-name="uni06AB.medi" unicode="&#x6ab;" horiz-adv-x="466" 
d="M309 448q-36 0 -61 25.5t-25 60.5q0 36 25 61.5t61 25.5t61.5 -25.5t25.5 -61.5q0 -35 -25.5 -60.5t-61.5 -25.5zM309 500q16 0 26.5 10t10.5 24q0 16 -10.5 26.5t-26.5 10.5q-15 0 -26 -10.5t-11 -26.5q0 -14 11 -24t26 -10zM0 -5l10 96h85q58 0 88.5 7.5t41.5 22
t11 35.5t-15.5 48t-39.5 55.5t-51.5 57t-52 53t-40 42.5t-15.5 25q0 18 2.5 34t7.5 29t12 19q18 19 51 42t75.5 47t91 49t98.5 50l42 -83q-49 -24 -94 -47.5t-85 -45.5t-74.5 -43t-61.5 -42l4 39q38 -36 71.5 -68.5t63.5 -66.5t58 -73.5t54 -88.5q23 -41 46 -62t46.5 -28
t45.5 -7q25 0 36.5 -13t11.5 -33t-15 -35t-43 -15q-32 0 -66 10.5t-64 37.5t-51 75l37 -8q-12 -32 -31.5 -54t-48 -35.5t-66 -19.5t-86.5 -6h-90z" />
    <glyph glyph-name="uni06AB.fina" unicode="&#x6ab;" horiz-adv-x="916" 
d="M758 446q-37 0 -62 25t-25 61t25 61.5t62 25.5q36 0 61 -25.5t25 -61.5t-25 -61t-61 -25zM757 498q16 0 27 10t11 24q0 16 -11 26t-27 10q-15 0 -26 -10t-11 -26q0 -14 11 -24t26 -10zM367 -21l26 96q81 0 137.5 5.5t90.5 16t49.5 25t15.5 32.5q0 22 -15.5 49t-39.5 56
t-51.5 57.5t-52 52.5t-40 42t-15.5 26q0 17 2.5 32.5t7.5 28.5t12 20q25 27 74 58t112.5 64t130.5 67l41 -83q-67 -35 -125.5 -65.5t-106 -58.5t-85.5 -57l6 42q37 -33 71 -67t66 -71t60 -77t51 -85q16 -30 33.5 -49t35.5 -29t35 -13t33 -3q25 0 36.5 -13.5t11.5 -33.5
t-14.5 -34.5t-43.5 -14.5q-32 0 -66.5 11t-64.5 38t-49 73l36 -7q-15 -36 -42.5 -61t-74 -40.5t-117 -22.5t-171.5 -7zM367 -21q-82 0 -144.5 12t-105 37.5t-64.5 64t-22 91.5q0 27 4.5 56t12 57.5t14.5 53.5l86 -22q-4 -16 -9 -37t-9 -43t-4 -40q0 -44 23.5 -74t81.5 -45
t162 -15l20 -64z" />
    <glyph glyph-name="uni06AC.init" unicode="&#x6ac;" horiz-adv-x="394" 
d="M0 -5l10 96h97q42 0 68 5.5t39 15.5t18 22.5t5 26.5q0 26 -18 60.5t-61 77.5q-27 28 -51.5 50.5t-43.5 40t-30 29t-11 18.5q0 14 2.5 30t7 30t11.5 21q15 16 42 35.5t66 42.5t91 50.5t118 60.5l42 -83q-66 -32 -114.5 -57t-84.5 -45.5t-64.5 -39t-54.5 -39.5l12 45
q56 -49 99.5 -93t74.5 -84.5t47 -80t16 -79.5q0 -25 -9.5 -52t-35 -51t-73.5 -38.5t-124 -14.5h-91zM171 712q-24 0 -40 16t-16 38q0 23 16 39.5t40 16.5q22 0 38 -16.5t16 -38.5q0 -23 -16 -39t-38 -16z" />
    <glyph glyph-name="uni06AC.medi" unicode="&#x6ac;" horiz-adv-x="466" 
d="M0 -5l10 96h85q58 0 88.5 7.5t41.5 22t11 35.5t-15.5 48t-39.5 55.5t-51.5 57t-52 53t-40 42.5t-15.5 25q0 18 2.5 34t7.5 29t12 19q18 19 51 42t75.5 47t91 49t98.5 50l42 -83q-49 -24 -94 -47.5t-85 -45.5t-74.5 -43t-61.5 -42l4 39q38 -36 71.5 -68.5t63.5 -66.5
t58 -73.5t54 -88.5q23 -41 46 -62t46.5 -28t45.5 -7q25 0 36.5 -13t11.5 -33t-15 -35t-43 -15q-32 0 -66 10.5t-64 37.5t-51 75l37 -8q-12 -32 -31.5 -54t-48 -35.5t-66 -19.5t-86.5 -6h-90zM154 712q-24 0 -40 16t-16 38q0 23 16 39.5t40 16.5q22 0 38 -16.5t16 -38.5
q0 -23 -16 -39t-38 -16z" />
    <glyph glyph-name="uni06AC.fina" unicode="&#x6ac;" horiz-adv-x="894" 
d="M367 -21l26 96q96 -1 156.5 6.5t93.5 24.5t45 46.5t10 72.5l-20 490h95l21 -486q2 -54 16 -84t38.5 -42t55.5 -12q25 0 36.5 -13t11.5 -33t-15 -35t-43 -15q-45 0 -75.5 13.5t-48.5 37.5t-24 54h31q-21 -37 -55.5 -60.5t-84 -37t-116.5 -18.5t-154 -5zM344 212l-21 72
q39 10 63.5 17.5t35.5 14.5t11 15q0 10 -10.5 19.5t-23.5 20.5t-23.5 25t-10.5 34t11 40t38.5 41t75.5 43l34 -64q-44 -20 -63 -34.5t-19 -26.5q0 -9 10.5 -19t24 -23t24 -28.5t10.5 -35.5q0 -14 -6 -28t-23.5 -28t-50.5 -27.5t-87 -27.5zM367 -21q-82 0 -144.5 12
t-105 37.5t-64.5 64t-22 91.5q0 27 4.5 56t12 57.5t14.5 53.5l86 -22q-4 -16 -9 -37t-9 -43t-4 -40q0 -44 23.5 -74t81.5 -45t162 -15l20 -64zM439 642q-24 0 -40 16t-16 38q0 23 16 39.5t40 16.5q22 0 38 -16.5t16 -38.5q0 -23 -16 -39t-38 -16z" />
    <glyph glyph-name="uni06AE.init" unicode="&#x6ae;" horiz-adv-x="394" 
d="M0 -5l10 96h97q42 0 68 5.5t39 15.5t18 22.5t5 26.5q0 26 -18 60.5t-61 77.5q-27 28 -51.5 50.5t-43.5 40t-30 29t-11 18.5q0 14 2.5 30t7 30t11.5 21q15 16 42 35.5t66 42.5t91 50.5t118 60.5l42 -83q-66 -32 -114.5 -57t-84.5 -45.5t-64.5 -39t-54.5 -39.5l12 45
q56 -49 99.5 -93t74.5 -84.5t47 -80t16 -79.5q0 -25 -9.5 -52t-35 -51t-73.5 -38.5t-124 -14.5h-91zM166 -314q-22 0 -37.5 15t-15.5 37q0 21 15.5 37t37.5 16q21 0 36.5 -16t15.5 -37q0 -22 -15.5 -37t-36.5 -15zM96 -196q-22 0 -37.5 15t-15.5 36q0 22 15.5 38t37.5 16
q21 0 36.5 -16t15.5 -38q0 -21 -15.5 -36t-36.5 -15zM237 -196q-23 0 -38.5 15t-15.5 36q0 22 15.5 38t38.5 16q21 0 36 -16t15 -38q0 -21 -15 -36t-36 -15z" />
    <glyph glyph-name="uni06AE.medi" unicode="&#x6ae;" horiz-adv-x="466" 
d="M0 -5l10 96h85q58 0 88.5 7.5t41.5 22t11 35.5t-15.5 48t-39.5 55.5t-51.5 57t-52 53t-40 42.5t-15.5 25q0 18 2.5 34t7.5 29t12 19q18 19 51 42t75.5 47t91 49t98.5 50l42 -83q-49 -24 -94 -47.5t-85 -45.5t-74.5 -43t-61.5 -42l4 39q38 -36 71.5 -68.5t63.5 -66.5
t58 -73.5t54 -88.5q23 -41 46 -62t46.5 -28t45.5 -7q25 0 36.5 -13t11.5 -33t-15 -35t-43 -15q-32 0 -66 10.5t-64 37.5t-51 75l37 -8q-12 -32 -31.5 -54t-48 -35.5t-66 -19.5t-86.5 -6h-90zM167 -314q-22 0 -37.5 15t-15.5 37q0 21 15.5 37t37.5 16q21 0 36.5 -16t15.5 -37
q0 -22 -15.5 -37t-36.5 -15zM97 -196q-22 0 -37.5 15t-15.5 36q0 22 15.5 38t37.5 16q21 0 36.5 -16t15.5 -38q0 -21 -15.5 -36t-36.5 -15zM238 -196q-23 0 -38.5 15t-15.5 36q0 22 15.5 38t38.5 16q21 0 36 -16t15 -38q0 -21 -15 -36t-36 -15z" />
    <glyph glyph-name="uni06AE.fina" unicode="&#x6ae;" horiz-adv-x="894" 
d="M367 -21l26 96q96 -1 156.5 6.5t93.5 24.5t45 46.5t10 72.5l-20 490h95l21 -486q2 -54 16 -84t38.5 -42t55.5 -12q25 0 36.5 -13t11.5 -33t-15 -35t-43 -15q-45 0 -75.5 13.5t-48.5 37.5t-24 54h31q-21 -37 -55.5 -60.5t-84 -37t-116.5 -18.5t-154 -5zM344 212l-21 72
q39 10 63.5 17.5t35.5 14.5t11 15q0 10 -10.5 19.5t-23.5 20.5t-23.5 25t-10.5 34t11 40t38.5 41t75.5 43l34 -64q-44 -20 -63 -34.5t-19 -26.5q0 -9 10.5 -19t24 -23t24 -28.5t10.5 -35.5q0 -14 -6 -28t-23.5 -28t-50.5 -27.5t-87 -27.5zM367 -21q-82 0 -144.5 12
t-105 37.5t-64.5 64t-22 91.5q0 27 4.5 56t12 57.5t14.5 53.5l86 -22q-4 -16 -9 -37t-9 -43t-4 -40q0 -44 23.5 -74t81.5 -45t162 -15l20 -64zM387 -335q-22 0 -37.5 15t-15.5 37q0 21 15.5 37t37.5 16q21 0 36.5 -16t15.5 -37q0 -22 -15.5 -37t-36.5 -15zM317 -217
q-22 0 -37.5 15t-15.5 36q0 22 15.5 38t37.5 16q21 0 36.5 -16t15.5 -38q0 -21 -15.5 -36t-36.5 -15zM458 -217q-23 0 -38.5 15t-15.5 36q0 22 15.5 38t38.5 16q21 0 36 -16t15 -38q0 -21 -15 -36t-36 -15z" />
    <glyph glyph-name="uni06B0.init" unicode="&#x6b0;" horiz-adv-x="393" 
d="M309 449q-36 0 -61 25.5t-25 61.5t25 61t61 25t61.5 -25t25.5 -61t-25.5 -61.5t-61.5 -25.5zM309 501q16 0 27 10t11 25t-11 25.5t-27 10.5q-15 0 -26 -10.5t-11 -25.5t11 -25t26 -10zM12 577l-41 65q41 25 89 53.5t107 62t131 71.5l36 -69q-73 -38 -130.5 -70.5
t-104 -60t-87.5 -52.5zM0 -5l10 96h97q42 0 68 5.5t39 15.5t18 22.5t5 26.5q0 26 -18 60.5t-61 77.5q-27 28 -51.5 50.5t-43.5 40t-30 29t-11 18.5q0 14 2.5 30t7 30t11.5 21q15 16 42 35.5t66 42.5t91 50.5t118 60.5l42 -83q-66 -32 -114.5 -57t-84.5 -45.5t-64.5 -39
t-54.5 -39.5l12 45q56 -49 99.5 -93t74.5 -84.5t47 -80t16 -79.5q0 -25 -9.5 -52t-35 -51t-73.5 -38.5t-124 -14.5h-91z" />
    <glyph glyph-name="uni06B0.medi" unicode="&#x6b0;" horiz-adv-x="466" 
d="M312 449q-37 0 -62 25.5t-25 61.5t25 61.5t62 25.5q36 0 61 -25.5t25 -61.5t-25 -61.5t-61 -25.5zM311 501q16 0 27 10t11 25q0 16 -11 26t-27 10q-15 0 -25.5 -10.5t-10.5 -25.5t10.5 -25t25.5 -10zM13 577l-41 65q41 25 89 53.5t106.5 62t130.5 71.5l37 -69
q-73 -38 -130.5 -70.5t-104.5 -60t-87 -52.5zM0 -5l10 96h85q58 0 88.5 7.5t41.5 22t11 35.5t-15.5 48t-39.5 55.5t-51.5 57t-52 53t-40 42.5t-15.5 25q0 18 2.5 34t7.5 29t12 19q18 19 51 42t75.5 47t91 49t98.5 50l42 -83q-49 -24 -94 -47.5t-85 -45.5t-74.5 -43
t-61.5 -42l4 39q38 -36 71.5 -68.5t63.5 -66.5t58 -73.5t54 -88.5q23 -41 46 -62t46.5 -28t45.5 -7q25 0 36.5 -13t11.5 -33t-15 -35t-43 -15q-32 0 -66 10.5t-64 37.5t-51 75l37 -8q-12 -32 -31.5 -54t-48 -35.5t-66 -19.5t-86.5 -6h-90z" />
    <glyph glyph-name="uni06B0.fina" unicode="&#x6b0;" horiz-adv-x="910" 
d="M762 448q-36 0 -61 25.5t-25 61.5t25 61t61 25t61 -25t25 -61t-25 -61.5t-61 -25.5zM762 500q15 0 26 10t11 25t-11 25.5t-26 10.5q-16 0 -26.5 -10.5t-10.5 -25.5t10.5 -25t26.5 -10zM462 577l-41 66q41 25 89 53.5t107 62t131 71.5l36 -69q-73 -38 -130 -70.5t-104 -60
t-88 -53.5zM367 -21l26 96q81 0 137.5 5.5t90.5 16t49.5 25t15.5 32.5q0 22 -15.5 49t-39.5 56t-51.5 57.5t-52 52.5t-40 42t-15.5 26q0 17 2.5 32.5t7.5 28.5t12 20q25 27 74 58t112.5 64t130.5 67l41 -83q-67 -35 -125.5 -65.5t-106 -58.5t-85.5 -57l6 42q37 -33 71 -67
t66 -71t60 -77t51 -85q16 -30 33.5 -49t35.5 -29t35 -13t33 -3q25 0 36.5 -13.5t11.5 -33.5t-14.5 -34.5t-43.5 -14.5q-32 0 -66.5 11t-64.5 38t-49 73l36 -7q-15 -36 -42.5 -61t-74 -40.5t-117 -22.5t-171.5 -7zM367 -21q-82 0 -144.5 12t-105 37.5t-64.5 64t-22 91.5
q0 27 4.5 56t12 57.5t14.5 53.5l86 -22q-4 -16 -9 -37t-9 -43t-4 -40q0 -44 23.5 -74t81.5 -45t162 -15l20 -64z" />
    <glyph glyph-name="uni06B2.init" unicode="&#x6b2;" horiz-adv-x="393" 
d="M12 577l-41 65q41 25 89 53.5t107 62t131 71.5l36 -69q-73 -38 -130.5 -70.5t-104 -60t-87.5 -52.5zM0 -5l10 96h97q42 0 68 5.5t39 15.5t18 22.5t5 26.5q0 26 -18 60.5t-61 77.5q-27 28 -51.5 50.5t-43.5 40t-30 29t-11 18.5q0 14 2.5 30t7 30t11.5 21q15 16 42 35.5
t66 42.5t91 50.5t118 60.5l42 -83q-66 -32 -114.5 -57t-84.5 -45.5t-64.5 -39t-54.5 -39.5l12 45q56 -49 99.5 -93t74.5 -84.5t47 -80t16 -79.5q0 -25 -9.5 -52t-35 -51t-73.5 -38.5t-124 -14.5h-91zM232 -199q-23 0 -39 16t-16 38t16 38.5t39 16.5q22 0 37.5 -16.5
t15.5 -38.5t-15.5 -38t-37.5 -16zM87 -199q-23 0 -38.5 16t-15.5 38t15.5 38.5t38.5 16.5q22 0 38 -16.5t16 -38.5t-16 -38t-38 -16z" />
    <glyph glyph-name="uni06B2.medi" unicode="&#x6b2;" horiz-adv-x="466" 
d="M13 577l-41 65q41 25 89 53.5t106.5 62t130.5 71.5l37 -69q-73 -38 -130.5 -70.5t-104.5 -60t-87 -52.5zM0 -5l10 96h85q58 0 88.5 7.5t41.5 22t11 35.5t-15.5 48t-39.5 55.5t-51.5 57t-52 53t-40 42.5t-15.5 25q0 18 2.5 34t7.5 29t12 19q18 19 51 42t75.5 47t91 49
t98.5 50l42 -83q-49 -24 -94 -47.5t-85 -45.5t-74.5 -43t-61.5 -42l4 39q38 -36 71.5 -68.5t63.5 -66.5t58 -73.5t54 -88.5q23 -41 46 -62t46.5 -28t45.5 -7q25 0 36.5 -13t11.5 -33t-15 -35t-43 -15q-32 0 -66 10.5t-64 37.5t-51 75l37 -8q-12 -32 -31.5 -54t-48 -35.5
t-66 -19.5t-86.5 -6h-90zM230 -199q-23 0 -39 16t-16 38t16 38.5t39 16.5q22 0 37.5 -16.5t15.5 -38.5t-15.5 -38t-37.5 -16zM85 -199q-23 0 -38.5 16t-15.5 38t15.5 38.5t38.5 16.5q22 0 38 -16.5t16 -38.5t-16 -38t-38 -16z" />
    <glyph glyph-name="uni06B2.fina" unicode="&#x6b2;" horiz-adv-x="910" 
d="M462 577l-41 66q41 25 89 53.5t107 62t131 71.5l36 -69q-73 -38 -130 -70.5t-104 -60t-88 -53.5zM367 -21l26 96q81 0 137.5 5.5t90.5 16t49.5 25t15.5 32.5q0 22 -15.5 49t-39.5 56t-51.5 57.5t-52 52.5t-40 42t-15.5 26q0 17 2.5 32.5t7.5 28.5t12 20q25 27 74 58
t112.5 64t130.5 67l41 -83q-67 -35 -125.5 -65.5t-106 -58.5t-85.5 -57l6 42q37 -33 71 -67t66 -71t60 -77t51 -85q16 -30 33.5 -49t35.5 -29t35 -13t33 -3q25 0 36.5 -13.5t11.5 -33.5t-14.5 -34.5t-43.5 -14.5q-32 0 -66.5 11t-64.5 38t-49 73l36 -7q-15 -36 -42.5 -61
t-74 -40.5t-117 -22.5t-171.5 -7zM367 -21q-82 0 -144.5 12t-105 37.5t-64.5 64t-22 91.5q0 27 4.5 56t12 57.5t14.5 53.5l86 -22q-4 -16 -9 -37t-9 -43t-4 -40q0 -44 23.5 -74t81.5 -45t162 -15l20 -64zM464 -220q-23 0 -39 16t-16 38t16 38.5t39 16.5q22 0 37.5 -16.5
t15.5 -38.5t-15.5 -38t-37.5 -16zM319 -220q-23 0 -38.5 16t-15.5 38t15.5 38.5t38.5 16.5q22 0 38 -16.5t16 -38.5t-16 -38t-38 -16z" />
    <glyph glyph-name="uni06B4.init" unicode="&#x6b4;" horiz-adv-x="393" 
d="M60 892q-21 0 -35.5 14t-14.5 34q0 21 14.5 36t35.5 15q20 0 34 -15t14 -36q0 -20 -14 -34t-34 -14zM51 767q-21 0 -35.5 14t-14.5 35q0 20 14.5 35t35.5 15q20 0 34.5 -15t14.5 -35q0 -21 -14.5 -35t-34.5 -14zM165 820q-21 0 -35.5 14.5t-14.5 34.5t14.5 35t35.5 15
q20 0 34.5 -15t14.5 -35t-14.5 -34.5t-34.5 -14.5zM12 577l-41 65q41 25 89 53.5t107 62t131 71.5l36 -69q-73 -38 -130.5 -70.5t-104 -60t-87.5 -52.5zM0 -5l10 96h97q42 0 68 5.5t39 15.5t18 22.5t5 26.5q0 26 -18 60.5t-61 77.5q-27 28 -51.5 50.5t-43.5 40t-30 29
t-11 18.5q0 14 2.5 30t7 30t11.5 21q15 16 42 35.5t66 42.5t91 50.5t118 60.5l42 -83q-66 -32 -114.5 -57t-84.5 -45.5t-64.5 -39t-54.5 -39.5l12 45q56 -49 99.5 -93t74.5 -84.5t47 -80t16 -79.5q0 -25 -9.5 -52t-35 -51t-73.5 -38.5t-124 -14.5h-91z" />
    <glyph glyph-name="uni06B4.medi" unicode="&#x6b4;" horiz-adv-x="466" 
d="M56 892q-21 0 -35.5 14t-14.5 34q0 21 14.5 36t35.5 15q20 0 34.5 -15t14.5 -36q0 -20 -14.5 -34t-34.5 -14zM48 767q-21 0 -35.5 14t-14.5 35q0 20 14.5 35t35.5 15q20 0 34.5 -15t14.5 -35q0 -21 -14.5 -35t-34.5 -14zM162 820q-21 0 -36 14.5t-15 34.5t15 35t36 15
q20 0 34 -15t14 -35t-14 -34.5t-34 -14.5zM13 577l-41 65q41 25 89 53.5t106.5 62t130.5 71.5l37 -69q-73 -38 -130.5 -70.5t-104.5 -60t-87 -52.5zM0 -5l10 96h85q58 0 88.5 7.5t41.5 22t11 35.5t-15.5 48t-39.5 55.5t-51.5 57t-52 53t-40 42.5t-15.5 25q0 18 2.5 34
t7.5 29t12 19q18 19 51 42t75.5 47t91 49t98.5 50l42 -83q-49 -24 -94 -47.5t-85 -45.5t-74.5 -43t-61.5 -42l4 39q38 -36 71.5 -68.5t63.5 -66.5t58 -73.5t54 -88.5q23 -41 46 -62t46.5 -28t45.5 -7q25 0 36.5 -13t11.5 -33t-15 -35t-43 -15q-32 0 -66 10.5t-64 37.5
t-51 75l37 -8q-12 -32 -31.5 -54t-48 -35.5t-66 -19.5t-86.5 -6h-90z" />
    <glyph glyph-name="uni06B4.fina" unicode="&#x6b4;" horiz-adv-x="910" 
d="M500 893q-21 0 -35.5 14.5t-14.5 34.5q0 21 14.5 36t35.5 15q20 0 34.5 -15t14.5 -36q0 -20 -14.5 -34.5t-34.5 -14.5zM492 769q-21 0 -35.5 14t-14.5 35q0 20 14.5 35t35.5 15q20 0 34.5 -15t14.5 -35q0 -21 -14.5 -35t-34.5 -14zM606 822q-22 0 -36.5 14.5t-14.5 34.5
t14.5 35t36.5 15q20 0 34 -15t14 -35t-14 -34.5t-34 -14.5zM462 577l-41 66q41 25 89 53.5t107 62t131 71.5l36 -69q-73 -38 -130 -70.5t-104 -60t-88 -53.5zM367 -21l26 96q81 0 137.5 5.5t90.5 16t49.5 25t15.5 32.5q0 22 -15.5 49t-39.5 56t-51.5 57.5t-52 52.5t-40 42
t-15.5 26q0 17 2.5 32.5t7.5 28.5t12 20q25 27 74 58t112.5 64t130.5 67l41 -83q-67 -35 -125.5 -65.5t-106 -58.5t-85.5 -57l6 42q37 -33 71 -67t66 -71t60 -77t51 -85q16 -30 33.5 -49t35.5 -29t35 -13t33 -3q25 0 36.5 -13.5t11.5 -33.5t-14.5 -34.5t-43.5 -14.5
q-32 0 -66.5 11t-64.5 38t-49 73l36 -7q-15 -36 -42.5 -61t-74 -40.5t-117 -22.5t-171.5 -7zM367 -21q-82 0 -144.5 12t-105 37.5t-64.5 64t-22 91.5q0 27 4.5 56t12 57.5t14.5 53.5l86 -22q-4 -16 -9 -37t-9 -43t-4 -40q0 -44 23.5 -74t81.5 -45t162 -15l20 -64z" />
    <glyph glyph-name="uni06B5.init" unicode="&#x6b5;" horiz-adv-x="257" 
d="M0 -5l9 96q47 0 66.5 11t23.5 39.5t2 79.5l-19 494h96l20 -491q2 -54 -3.5 -97t-26 -72.5t-61 -44.5t-107.5 -15zM101 837q-7 15 -17.5 38.5t-22.5 50t-24 51t-20 39.5l48 24q5 -9 15.5 -29.5t22 -44.5t22 -46.5t16.5 -36.5l20 -40zM161 843l-46 17q6 17 17 44t23.5 56
t22 51.5t13.5 30.5l47 -19q-4 -10 -14.5 -33t-22.5 -51.5t-23 -54t-17 -41.5z" />
    <glyph glyph-name="uni06B5.medi" unicode="&#x6b5;" horiz-adv-x="288" 
d="M0 -5l10 96q44 0 63 11t23 39.5t2 79.5l-17 494h97l17 -492q2 -52 13.5 -81t34.5 -40t55 -11q25 0 36.5 -13t11.5 -33t-14.5 -35t-42.5 -15q-38 0 -67.5 12t-48.5 35t-24 57l30 -2q-12 -35 -35 -58t-58.5 -33.5t-85.5 -10.5zM106 840q-7 15 -17.5 38.5t-22.5 50t-24 51
t-20 39.5l48 24q5 -9 15.5 -29.5t22 -44.5t22 -46.5t16.5 -36.5l20 -40zM166 846l-46 17q6 17 17 44t23.5 56t22 51.5t13.5 30.5l47 -19q-4 -10 -14.5 -33t-22.5 -51.5t-23 -54t-17 -41.5z" />
    <glyph glyph-name="uni06B5.fina" unicode="&#x6b5;" horiz-adv-x="706" 
d="M34 3q0 21 4 49.5t15 64.5t30 79l84 -34q-12 -30 -20.5 -56t-12.5 -48t-4 -43q0 -49 23.5 -83t62 -51.5t85.5 -17.5q86 0 133 32.5t65 93.5t14 145l-20 581h98l15 -495q2 -51 16 -79.5t38.5 -39t55.5 -10.5q25 0 36.5 -13t11.5 -33q0 -21 -14.5 -35.5t-42.5 -14.5
q-26 0 -48 7t-38.5 20t-27 32t-15.5 43l32 -16q-3 -66 -21.5 -123t-55.5 -99.5t-95.5 -66t-140.5 -23.5q-52 0 -99.5 15t-84 44.5t-58 73t-21.5 101.5zM254 582q-7 15 -17.5 38.5t-22.5 50t-24 51t-20 39.5l48 24q5 -9 15.5 -29.5t22 -44.5t22 -46.5t16.5 -36.5l20 -40z
M314 588l-46 17q6 17 17 44t23.5 56t22 51.5t13.5 30.5l47 -19q-4 -10 -14.5 -33t-22.5 -51.5t-23 -54t-17 -41.5z" />
    <glyph glyph-name="uni06B6.init" unicode="&#x6b6;" horiz-adv-x="257" 
d="M0 -5l9 96q47 0 66.5 11t23.5 39.5t2 79.5l-19 494h96l20 -491q2 -54 -3.5 -97t-26 -72.5t-61 -44.5t-107.5 -15zM130 812q-24 0 -40 16t-16 38q0 23 16 39.5t40 16.5q22 0 38 -16.5t16 -38.5q0 -23 -16 -39t-38 -16z" />
    <glyph glyph-name="uni06B6.medi" unicode="&#x6b6;" horiz-adv-x="288" 
d="M0 -5l10 96q44 0 63 11t23 39.5t2 79.5l-17 494h97l17 -492q2 -52 13.5 -81t34.5 -40t55 -11q25 0 36.5 -13t11.5 -33t-14.5 -35t-42.5 -15q-38 0 -67.5 12t-48.5 35t-24 57l30 -2q-12 -35 -35 -58t-58.5 -33.5t-85.5 -10.5zM135 812q-24 0 -40 16t-16 38q0 23 16 39.5
t40 16.5q22 0 38 -16.5t16 -38.5q0 -23 -16 -39t-38 -16z" />
    <glyph glyph-name="uni06B6.fina" unicode="&#x6b6;" horiz-adv-x="706" 
d="M34 3q0 21 4 49.5t15 64.5t30 79l84 -34q-12 -30 -20.5 -56t-12.5 -48t-4 -43q0 -49 23.5 -83t62 -51.5t85.5 -17.5q86 0 133 32.5t65 93.5t14 145l-20 581h98l15 -495q2 -51 16 -79.5t38.5 -39t55.5 -10.5q25 0 36.5 -13t11.5 -33q0 -21 -14.5 -35.5t-42.5 -14.5
q-26 0 -48 7t-38.5 20t-27 32t-15.5 43l32 -16q-3 -66 -21.5 -123t-55.5 -99.5t-95.5 -66t-140.5 -23.5q-52 0 -99.5 15t-84 44.5t-58 73t-21.5 101.5zM284 558q-24 0 -40 16t-16 38q0 23 16 39.5t40 16.5q22 0 38 -16.5t16 -38.5q0 -23 -16 -39t-38 -16z" />
    <glyph glyph-name="uni06B7.init" unicode="&#x6b7;" horiz-adv-x="257" 
d="M0 -5l9 96q47 0 66.5 11t23.5 39.5t2 79.5l-19 494h96l20 -491q2 -54 -3.5 -97t-26 -72.5t-61 -44.5t-107.5 -15zM132 930q-23 0 -38.5 15.5t-15.5 37.5q0 21 15.5 37t38.5 16q21 0 36.5 -16t15.5 -37q0 -22 -15.5 -37.5t-36.5 -15.5zM61 812q-22 0 -37.5 15.5
t-15.5 37.5t15.5 37.5t37.5 15.5t37.5 -15.5t15.5 -37.5t-15.5 -37.5t-37.5 -15.5zM202 812q-22 0 -37.5 15.5t-15.5 37.5t15.5 37.5t37.5 15.5t37 -15.5t15 -37.5t-15.5 -37.5t-36.5 -15.5z" />
    </font>
</defs>
</svg>
