<?xml version="1.0" standalone="no"?>
<!DOCTYPE svg PUBLIC "-//W3C//DTD SVG 1.1//EN" "http://www.w3.org/Graphics/SVG/1.1/DTD/svg11.dtd" >
<svg xmlns="http://www.w3.org/2000/svg" xmlns:xlink="http://www.w3.org/1999/xlink" version="1.1">
<metadata>
Created by FontForge 20170731 at Thu Nov 12 05:28:44 2020
 By Aleksey,,,
Copyright 2015-2020 Google LLC. All Rights Reserved.
</metadata>
<defs>
<font id="NotoSansArabicExtraCondensed-ExtraLight" horiz-adv-x="0" >
  <font-face 
    font-family="Noto Sans Arabic ExtraCondensed ExtraLight"
    font-weight="250"
    font-stretch="extra-condensed"
    units-per-em="1000"
    panose-1="0 0 0 0 0 0 0 0 0 0"
    ascent="800"
    descent="-200"
    bbox="-215 -573 1906 1055"
    underline-thickness="50"
    underline-position="-175"
    unicode-range="U+000D-FEFC"
  />
<missing-glyph horiz-adv-x="600" 
d="M104 0v714h391v-714h-391zM134 29h331v656h-331v-656z" />
    <glyph glyph-name="uniFC43" unicode="&#xfedf;&#xfef0;" horiz-adv-x="793" arabic-form="isolated" 
d="M615 -5l5 33q42 0 61.5 15t25 48.5t3.5 89.5l-19 529h33l20 -525q2 -51 -2 -87t-18 -58.5t-40.5 -33.5t-68.5 -11zM42 -15q0 19 3.5 47.5t15.5 66.5t37 84l30 -14q-17 -32 -29 -63.5t-17.5 -61.5t-5.5 -59q0 -44 14 -78t41.5 -56.5t66 -34.5t86.5 -12q62 0 109 16.5
t78.5 42t47 53.5t15.5 50q0 19 -10.5 32.5t-30.5 24t-48.5 20.5t-64.5 22l8 34q38 -14 71.5 -27t63 -22.5t54 -15.5t43.5 -6q10 0 15.5 -3.5t5.5 -12.5q0 -8 -6 -12.5t-20 -4.5q-8 0 -18 1t-21 4t-23 8q9 -11 12.5 -24.5t3.5 -22.5q0 -27 -18.5 -60t-55 -62.5t-89.5 -49
t-122 -19.5q-71 0 -126 24t-85.5 72t-30.5 119z" />
    <glyph glyph-name="uniFC86" unicode="&#xfee0;&#xfef0;" horiz-adv-x="831" arabic-form="final" 
d="M615 -5l5 33q40 0 60 20t25.5 59.5t3.5 97.5l-17 505h35l16 -503q3 -73 14 -111.5t31 -53t49 -14.5q10 0 15.5 -3.5t5.5 -12.5q0 -8 -6 -12.5t-20 -4.5q-28 0 -50.5 14.5t-36.5 39.5t-19 54h13q-8 -33 -22.5 -57t-39 -37.5t-62.5 -13.5zM42 -15q0 19 3.5 47.5t15.5 66.5
t37 84l30 -14q-17 -32 -29 -63.5t-17.5 -61.5t-5.5 -59q0 -44 14 -78t41.5 -56.5t66 -34.5t86.5 -12q62 0 109 16.5t78.5 42t47 53.5t15.5 50q0 19 -10.5 32.5t-30.5 24t-48.5 20.5t-64.5 22l8 34q38 -14 71.5 -27t63 -22.5t54 -15.5t43.5 -6q10 0 15.5 -3.5t5.5 -12.5
q0 -8 -6 -12.5t-20 -4.5q-8 0 -18 1t-21 4t-23 8q9 -11 12.5 -24.5t3.5 -22.5q0 -27 -18.5 -60t-55 -62.5t-89.5 -49t-122 -19.5q-71 0 -126 24t-85.5 72t-30.5 119z" />
    <glyph glyph-name="uniFD82" unicode="&#xfee0;&#xfea4;&#xfef0;" horiz-adv-x="1304" arabic-form="final" 
d="M1088 -5l5 33q40 0 60 20t25.5 59.5t3.5 97.5l-17 505h35l16 -503q3 -73 14 -111.5t31 -53t49 -14.5q10 0 15.5 -3.5t5.5 -12.5q0 -8 -6 -12.5t-20 -4.5q-28 0 -50.5 14.5t-36.5 39.5t-19 54h13q-8 -33 -22.5 -57t-39 -37.5t-62.5 -13.5zM1088 -5q-20 0 -43 3.5t-44 16.5
t-39 42t-29 79l26 12q15 -58 35.5 -83t45.5 -31t53 -6q13 0 17 -5t4 -11q0 -8 -5.5 -12.5t-20.5 -4.5zM615 -5l5 33q42 0 78.5 7.5t74 23.5t80.5 42t96 64q-44 32 -78.5 58.5t-66 42t-68.5 15.5q-12 0 -22.5 -0.5t-21.5 -2t-24 -5.5l-7 31q18 6 37.5 8t37.5 2
q41 0 73.5 -13.5t60 -32.5t51 -38.5t45 -33t43.5 -13.5h15l4 -33q-28 0 -54 -11.5t-52.5 -29t-57 -37.5t-66.5 -37.5t-81.5 -28.5t-101.5 -11zM42 -15q0 19 3.5 47.5t15.5 66.5t37 84l30 -14q-17 -32 -29 -63.5t-17.5 -61.5t-5.5 -59q0 -44 14 -78t41.5 -56.5t66 -34.5
t86.5 -12q62 0 109 16.5t78.5 42t47 53.5t15.5 50q0 19 -10.5 32.5t-30.5 24t-48.5 20.5t-64.5 22l8 34q38 -14 71.5 -27t63 -22.5t54 -15.5t43.5 -6q10 0 15.5 -3.5t5.5 -12.5q0 -8 -6 -12.5t-20 -4.5q-8 0 -18 1t-21 4t-23 8q9 -11 12.5 -24.5t3.5 -22.5q0 -27 -18.5 -60
t-55 -62.5t-89.5 -49t-122 -19.5q-71 0 -126 24t-85.5 72t-30.5 119z" />
    <glyph glyph-name="uniFDF2" unicode="&#x627;&#xfedf;&#xfee0;&#xfeea;" horiz-adv-x="991" arabic-form="isolated" 
d="M389 -5q-23 0 -46.5 7.5t-41 30t-24.5 65.5q-48 -9 -91.5 -6t-77 17.5t-53 40.5t-19.5 62q0 47 27 92t77 81t118 54l-4 77h34l18 -359q3 -51 11 -79t26 -39t51 -11q41 0 60.5 20t25.5 59.5t4 97.5l-16 363h35l14 -361q4 -73 15 -111.5t31 -53t48 -14.5q42 0 61.5 15
t25 48.5t3.5 89.5l-19 529h33l20 -525q2 -51 -2 -87t-18 -58.5t-40 -33.5t-69 -11q-24 0 -43.5 11.5t-34 30.5t-22.5 42q-14 -39 -40.5 -61.5t-76.5 -22.5zM272 131l-12 271q-57 -14 -99.5 -43.5t-66 -66.5t-23.5 -74q0 -32 18 -52t47.5 -29.5t65 -10.5t70.5 5zM884 0
l-19 710h33l20 -710h-34zM416 604q-30 0 -44 21.5t-14 56.5q0 11 1.5 24.5t4.5 29.5l26 8q-3 -18 -4.5 -33t-1.5 -26q0 -22 8 -38t26 -16q14 0 27 17t13 60v55l27 10v-76q0 -13 9.5 -23.5t25.5 -10.5q19 0 27.5 15t8.5 40q0 21 -4 39.5t-11 35.5l24 8q7 -14 12.5 -38
t5.5 -46q0 -33 -15 -57t-48 -24q-23 0 -38 14.5t-15 37.5l13 -2q0 -33 -17.5 -57.5t-46.5 -24.5zM455 836l-5 149h27l5 -149h-27z" />
    <glyph glyph-name="uniFEF5" unicode="&#xfedf;&#xfe82;" horiz-adv-x="588" arabic-form="isolated" 
d="M328 529q0 31 -3 65.5t-7.5 66t-8.5 51.5l34 6q4 -19 8 -52t7.5 -69.5t3.5 -67.5q0 -40 -6 -78.5t-15.5 -75.5t-24.5 -72l-5 -12q-30 -72 -75 -136.5t-97 -118.5h148q44 0 67.5 13t32 32.5t8.5 39.5q0 40 -26 82.5t-73.5 91t-113 108t-143.5 134.5l19 28
q77 -71 137.5 -126.5t104 -101t72.5 -82t43 -69.5t14 -65q0 -19 -6 -40t-22 -39.5t-44 -30t-73 -11.5h-186v46q75 71 126 150.5t77.5 164t26.5 168.5zM159 608q-25 0 -46.5 10.5t-39.5 20t-34 9.5q-14 0 -28.5 -8.5t-30.5 -24.5l-19 17q18 20 37.5 33t41.5 13t41 -10
t39.5 -20t40.5 -10q18 0 36 8t39 25l15 -21q-26 -23 -49 -32.5t-43 -9.5z" />
    <glyph glyph-name="uniFEF6" unicode="&#xfee0;&#xfe82;" horiz-adv-x="475" arabic-form="final" 
d="M480 -5q-36 0 -60.5 9.5t-40.5 31.5t-24.5 58.5t-10.5 90.5l-18 529h33l19 -502q2 -63 8 -104t27.5 -60.5t70.5 -19.5q9 0 13 -4.5t4 -10.5q0 -7 -6 -12.5t-15 -5.5zM134 -10q-27 0 -54.5 4.5t-38.5 6.5l6 36q61 -16 114 -7.5t93.5 44.5t63.5 100.5t23 161.5l21 -44
q-1 -75 -17.5 -127.5t-42 -87t-55 -53.5t-59.5 -26.5t-54 -7.5zM318 150q-22 39 -50 86.5t-61.5 99t-70.5 101.5t-75 95l25 24q44 -51 81 -102t68.5 -100.5t57.5 -94.5t47 -83zM159 608q-25 0 -46.5 10.5t-39.5 20t-34 9.5q-14 0 -28.5 -8.5t-30.5 -24.5l-19 17
q18 20 37.5 33t41.5 13t41 -10t39.5 -20t40.5 -10q18 0 36 8t39 25l15 -21q-26 -23 -49 -32.5t-43 -9.5z" />
    <glyph glyph-name="uniFEF7" unicode="&#xfedf;&#xfe84;" horiz-adv-x="507" arabic-form="isolated" 
d="M328 529q0 31 -3 65.5t-7.5 66t-8.5 51.5l34 6q4 -19 8 -52t7.5 -69.5t3.5 -67.5q0 -40 -6 -78.5t-15.5 -75.5t-24.5 -72l-5 -12q-30 -72 -75 -136.5t-97 -118.5h148q44 0 67.5 13t32 32.5t8.5 39.5q0 40 -26 82.5t-73.5 91t-113 108t-143.5 134.5l19 28
q77 -71 137.5 -126.5t104 -101t72.5 -82t43 -69.5t14 -65q0 -19 -6 -40t-22 -39.5t-44 -30t-73 -11.5h-186v46q75 71 126 150.5t77.5 164t26.5 168.5zM17 603l-6 26q23 6 41 11.5t33 9.5l21 -9q-37 6 -63 32t-26 59q0 26 12 43.5t31 27t38 9.5q12 0 23 -2t21 -6l-5 -24
q-10 2 -19.5 3.5t-19.5 1.5q-27 0 -40.5 -15.5t-13.5 -37.5q0 -20 12.5 -36t31 -25.5t38.5 -13.5l-37 -5q26 7 46.5 13.5t39.5 13.5l8 -24q-23 -9 -51.5 -18.5t-58 -18.5t-56.5 -15z" />
    <glyph glyph-name="uniFEF8" unicode="&#xfee0;&#xfe84;" horiz-adv-x="480" arabic-form="final" 
d="M480 -5q-36 0 -60.5 9.5t-40.5 31.5t-24.5 58.5t-10.5 90.5l-18 529h33l19 -502q2 -63 8 -104t27.5 -60.5t70.5 -19.5q9 0 13 -4.5t4 -10.5q0 -7 -6 -12.5t-15 -5.5zM134 -10q-27 0 -54.5 4.5t-38.5 6.5l6 36q61 -16 114 -7.5t93.5 44.5t63.5 100.5t23 161.5l21 -44
q-1 -75 -17.5 -127.5t-42 -87t-55 -53.5t-59.5 -26.5t-54 -7.5zM318 150q-22 39 -50 86.5t-61.5 99t-70.5 101.5t-75 95l25 24q44 -51 81 -102t68.5 -100.5t57.5 -94.5t47 -83zM45 603l-6 26q23 6 41 11.5t33 9.5l21 -9q-37 6 -63 32t-26 59q0 26 12 43.5t31 27t38 9.5
q12 0 23 -2t21 -6l-5 -24q-10 2 -19.5 3.5t-19.5 1.5q-27 0 -40.5 -15.5t-13.5 -37.5q0 -20 12.5 -36t31 -25.5t38.5 -13.5l-37 -5q26 7 46.5 13.5t39.5 13.5l8 -24q-23 -9 -51.5 -18.5t-58 -18.5t-56.5 -15z" />
    <glyph glyph-name="uniFEF9" unicode="&#xfedf;&#xfe88;" horiz-adv-x="502" arabic-form="isolated" 
d="M328 529q0 31 -3 65.5t-7.5 66t-8.5 51.5l34 6q4 -19 8 -52t7.5 -69.5t3.5 -67.5q0 -40 -6 -78.5t-15.5 -75.5t-24.5 -72l-5 -12q-30 -72 -75 -136.5t-97 -118.5h148q44 0 67.5 13t32 32.5t8.5 39.5q0 40 -26 82.5t-73.5 91t-113 108t-143.5 134.5l19 28
q77 -71 137.5 -126.5t104 -101t72.5 -82t43 -69.5t14 -65q0 -19 -6 -40t-22 -39.5t-44 -30t-73 -11.5h-186v46q75 71 126 150.5t77.5 164t26.5 168.5zM82 -280l-6 26q23 6 41 11.5t33 9.5l21 -9q-37 6 -63 32t-26 59q0 26 12 43.5t31 27t38 9.5q12 0 23 -2t21 -6l-5 -24
q-10 2 -19.5 3.5t-19.5 1.5q-27 0 -40.5 -15.5t-13.5 -37.5q0 -20 12.5 -36t31 -25.5t38.5 -13.5l-37 -5q26 7 46.5 13.5t39.5 13.5l8 -24q-23 -9 -51.5 -18.5t-58 -18.5t-56.5 -15z" />
    <glyph glyph-name="uniFEFA" unicode="&#xfee0;&#xfe88;" horiz-adv-x="475" arabic-form="final" 
d="M480 -5q-36 0 -60.5 9.5t-40.5 31.5t-24.5 58.5t-10.5 90.5l-18 529h33l19 -502q2 -63 8 -104t27.5 -60.5t70.5 -19.5q9 0 13 -4.5t4 -10.5q0 -7 -6 -12.5t-15 -5.5zM134 -10q-27 0 -54.5 4.5t-38.5 6.5l6 36q61 -16 114 -7.5t93.5 44.5t63.5 100.5t23 161.5l21 -44
q-1 -75 -17.5 -127.5t-42 -87t-55 -53.5t-59.5 -26.5t-54 -7.5zM318 150q-22 39 -50 86.5t-61.5 99t-70.5 101.5t-75 95l25 24q44 -51 81 -102t68.5 -100.5t57.5 -94.5t47 -83zM90 -280l-6 26q23 6 41 11.5t33 9.5l21 -9q-37 6 -63 32t-26 59q0 26 12 43.5t31 27t38 9.5
q12 0 23 -2t21 -6l-5 -24q-10 2 -19.5 3.5t-19.5 1.5q-27 0 -40.5 -15.5t-13.5 -37.5q0 -20 12.5 -36t31 -25.5t38.5 -13.5l-37 -5q26 7 46.5 13.5t39.5 13.5l8 -24q-23 -9 -51.5 -18.5t-58 -18.5t-56.5 -15z" />
    <glyph glyph-name="uniFEFB" unicode="&#xfedf;&#xfe8e;" horiz-adv-x="502" arabic-form="isolated" 
d="M328 529q0 31 -3 65.5t-7.5 66t-8.5 51.5l34 6q4 -19 8 -52t7.5 -69.5t3.5 -67.5q0 -40 -6 -78.5t-15.5 -75.5t-24.5 -72l-5 -12q-30 -72 -75 -136.5t-97 -118.5h148q44 0 67.5 13t32 32.5t8.5 39.5q0 40 -26 82.5t-73.5 91t-113 108t-143.5 134.5l19 28
q77 -71 137.5 -126.5t104 -101t72.5 -82t43 -69.5t14 -65q0 -19 -6 -40t-22 -39.5t-44 -30t-73 -11.5h-186v46q75 71 126 150.5t77.5 164t26.5 168.5z" />
    <glyph glyph-name="uniFEFC" unicode="&#xfee0;&#xfe8e;" horiz-adv-x="475" arabic-form="final" 
d="M480 -5q-36 0 -60.5 9.5t-40.5 31.5t-24.5 58.5t-10.5 90.5l-18 529h33l19 -502q2 -63 8 -104t27.5 -60.5t70.5 -19.5q9 0 13 -4.5t4 -10.5q0 -7 -6 -12.5t-15 -5.5zM134 -10q-27 0 -54.5 4.5t-38.5 6.5l6 36q61 -16 114 -7.5t93.5 44.5t63.5 100.5t23 161.5l21 -44
q-1 -75 -17.5 -127.5t-42 -87t-55 -53.5t-59.5 -26.5t-54 -7.5zM318 150q-22 39 -50 86.5t-61.5 99t-70.5 101.5t-75 95l25 24q44 -51 81 -102t68.5 -100.5t57.5 -94.5t47 -83z" />
    <glyph glyph-name="lam_alefMaksura_meemar" unicode="&#xfedf;&#xfbe9;&#xfee2;" horiz-adv-x="848" 
d="M670 -5l5 33q42 0 61.5 15t25 48.5t3.5 89.5l-19 529h33l20 -525q2 -51 -2 -87t-18 -58.5t-40.5 -33.5t-68.5 -11zM459 -5l5 33q43 0 66 13t31.5 36.5t8.5 56.5q0 35 -6 69.5t-17 72.5t-28 82l33 13q15 -41 26.5 -80t18 -77t6.5 -77q0 -25 -4.5 -46.5t-15 -39
t-27.5 -30.5t-41 -19.5t-56 -6.5zM85 -393q-21 81 -36 155t-23 131t-8 85q0 75 14 133.5t37.5 103t52.5 73.5t58 43.5t53 14.5q21 0 35 -14t31 -52.5t45 -114.5q18 -52 37 -82t39.5 -42.5t43.5 -12.5q10 0 15.5 -3.5t5.5 -12.5q0 -8 -6 -12.5t-20 -4.5q-34 0 -67 25.5
t-49 67.5l18 -4q1 -25 -8 -46t-27.5 -33.5t-44.5 -12.5t-54 11t-55 34.5t-51 59t-41 82.5l8 -1q-20 -43 -29 -95t-9 -105q0 -28 5 -69t14 -89.5t21 -100.5t25 -104zM282 24q19 0 32.5 11.5t16.5 35t-9 56.5q-16 44 -28 78t-22.5 57.5t-20.5 36t-21 12.5q-14 0 -31 -7
t-34.5 -21t-34 -34.5t-29.5 -46.5v11q16 -52 44 -94.5t63.5 -68.5t73.5 -26z" />
    <glyph glyph-name="lam_alefWaslaar" unicode="&#xfedf;&#xfb51;" horiz-adv-x="427" 
d="M127 631q-20 0 -45 1.5t-47 4.5t-35 5l3 26q15 -2 36 -4.5t44 -4.5t43 -2q52 0 72 20t20 43q0 21 -11.5 30.5t-27.5 9.5q-22 0 -44 -16t-40 -40t-30 -50l-26 3q14 32 35 61.5t48.5 49t59.5 19.5q29 0 45.5 -18.5t16.5 -47.5q0 -23 -12 -43.5t-38 -33.5t-67 -13zM328 529
q0 31 -3 65.5t-7.5 66t-8.5 51.5l34 6q4 -19 8 -52t7.5 -69.5t3.5 -67.5q0 -40 -6 -78.5t-15.5 -75.5t-24.5 -72l-5 -12q-30 -72 -75 -136.5t-97 -118.5h148q44 0 67.5 13t32 32.5t8.5 39.5q0 40 -26 82.5t-74 91t-113 108t-143 134.5l19 28q77 -71 137.5 -126.5t104 -101
t72.5 -82t43 -69.5t14 -65q0 -19 -6 -40t-22 -39.5t-44 -30t-73 -11.5h-186v46q75 71 126 150.5t77.5 164t26.5 168.5z" />
    <glyph glyph-name="lam_alefWaslaar.fina" unicode="&#xfee0;&#xfb51;" horiz-adv-x="500" 
d="M126 663q-19 0 -43.5 1.5t-47 4.5t-35.5 5l3 26q15 -2 36 -4.5t44 -4.5t43 -2q52 0 72 19.5t20 42.5q0 22 -11.5 31.5t-27.5 9.5q-22 0 -44 -16t-40 -40t-30 -50l-26 3q14 32 35 61.5t48.5 49t58.5 19.5q30 0 46.5 -18.5t16.5 -47.5q0 -23 -12.5 -44t-38 -33.5
t-67.5 -12.5zM480 -5q-36 0 -60.5 9.5t-40.5 31.5t-24.5 58.5t-10.5 90.5l-18 529h33l19 -502q2 -63 8 -104t27.5 -60.5t70.5 -19.5q9 0 13 -4.5t4 -10.5q0 -7 -6 -12.5t-15 -5.5zM134 -10q-27 0 -54.5 4.5t-38.5 6.5l6 36q61 -16 114 -7.5t93.5 44.5t63.5 100.5t23 161.5
l21 -44q-1 -75 -17.5 -127.5t-42 -87t-55 -53.5t-59.5 -26.5t-54 -7.5zM318 150q-22 39 -50 86.5t-61.5 99t-70.5 101.5t-75 95l25 24q44 -51 81 -102t68.5 -100.5t57.5 -94.5t47 -83z" />
    <glyph glyph-name="uni0620.init" unicode="&#x620;" horiz-adv-x="239" 
d="M0 -5l5 33q42 0 71 8.5t43.5 32t14.5 65.5q0 34 -6.5 69t-17.5 73t-27 82l33 13q15 -40 26.5 -79t18 -76t6.5 -74q0 -38 -9.5 -66t-30 -46t-52.5 -26.5t-75 -8.5zM123 -100q-29 0 -49.5 21t-20.5 51q0 29 20.5 50t49.5 21q30 0 51 -21t21 -50q0 -30 -21 -51t-51 -21z
M123 -75q19 0 33 13.5t14 33.5q0 19 -14 32.5t-33 13.5q-18 0 -31.5 -13.5t-13.5 -32.5t13.5 -33t31.5 -14z" />
    <glyph glyph-name="uni0620.medi" unicode="&#x620;" horiz-adv-x="255" 
d="M0 -5l5 33q27 0 47.5 8t36.5 32t30.5 72t28.5 128l33 -7q-6 -33 -11.5 -56.5t-8.5 -43t-3 -39.5q0 -22 4.5 -39t15 -29.5t31 -19t51.5 -6.5q14 0 17.5 -5t3.5 -11q0 -7 -5.5 -12t-20.5 -5q-35 0 -58 7t-36.5 21t-20 36t-7.5 51h7q-11 -38 -24.5 -60.5t-30.5 -34.5
t-38 -16t-47 -4zM77 -112q-29 0 -49.5 21t-20.5 50q0 30 20.5 50.5t49.5 20.5q30 0 51 -20.5t21 -50.5q0 -29 -21 -50t-51 -21zM78 -88q18 0 32 14t14 33t-14 33t-33 14q-18 0 -31.5 -14t-13.5 -33t13.5 -33t32.5 -14z" />
    <glyph glyph-name="uni0620.fina" unicode="&#x620;" horiz-adv-x="615" 
d="M275 -348q-29 0 -50 21t-21 50q0 30 21 50.5t50 20.5t50.5 -20.5t21.5 -50.5q0 -29 -21.5 -50t-50.5 -21zM275 -324q19 0 33 14t14 33t-14 33t-33 14t-32.5 -14t-13.5 -33t13.5 -33t32.5 -14zM42 -15q0 19 3.5 47.5t15.5 66.5t37 84l30 -14q-17 -32 -29 -63.5
t-17.5 -61.5t-5.5 -59q0 -44 14 -78t41.5 -56.5t66 -34.5t86.5 -12q62 0 109 16.5t78.5 42t47 53.5t15.5 50q0 19 -10.5 32.5t-30.5 24t-48.5 20.5t-64.5 22l8 34q38 -14 71.5 -27t63 -22.5t54 -15.5t43.5 -6q10 0 15.5 -3.5t5.5 -12.5q0 -8 -6 -12.5t-20 -4.5q-8 0 -18 1
t-21 4t-23 8q9 -11 12.5 -24.5t3.5 -22.5q0 -27 -18.5 -60t-55 -62.5t-89.5 -49t-122 -19.5q-71 0 -126 24t-85.5 72t-30.5 119z" />
    <glyph glyph-name="uni063B.init" unicode="&#x63b;" horiz-adv-x="327" 
d="M211 733q-12 0 -20 8.5t-8 19.5t8 19t20 8q11 0 19 -8t8 -19t-8 -19.5t-19 -8.5zM101 681q-12 0 -20 8.5t-8 19.5t8 19t20 8q11 0 19 -8t8 -19t-8 -19.5t-19 -8.5zM0 -5l5 33h78q51 0 80.5 10.5t43.5 28.5t17.5 39t3.5 41q0 42 -21 88.5t-62 97.5q-38 48 -61 76.5
t-35.5 43.5t-17 21.5t-4.5 10.5q0 9 2.5 16.5t6 14.5t7.5 10q25 20 51.5 41.5t58 44t70.5 48t88 55.5l17 -28q-45 -28 -85 -54t-74.5 -51t-64.5 -48.5t-55 -44.5l1 15q37 -48 74 -92.5t67.5 -87.5t50 -87t19.5 -93q0 -29 -7.5 -55.5t-27.5 -48t-56 -33.5t-91 -12h-79z" />
    <glyph glyph-name="uni063B.medi" unicode="&#x63b;" horiz-adv-x="388" 
d="M212 733q-12 0 -20 8.5t-8 19.5t8 19t20 8q11 0 19 -8t8 -19t-8 -19.5t-19 -8.5zM102 681q-12 0 -20.5 8t-8.5 20q0 11 8.5 19t20.5 8q11 0 18.5 -8t7.5 -19q0 -12 -7.5 -20t-18.5 -8zM0 -5l5 33h78q51 0 83 12t47.5 38t15.5 69q0 32 -14.5 67t-37 70.5t-48 68.5
t-48.5 60.5t-37.5 46t-14.5 25.5q0 10 2 17.5t6 14t8 10.5q23 21 53.5 44t65 47t72 48.5t75.5 48.5l17 -29q-39 -24 -78.5 -50t-76.5 -52t-68 -50t-53 -44l2 10q24 -34 52 -67.5t57 -71t53.5 -81t41.5 -96.5q17 -51 36.5 -85.5t44 -52.5t55.5 -18q9 0 14.5 -3.5t5.5 -12.5
q0 -8 -6 -12.5t-20 -4.5q-31 0 -60 18.5t-51 53t-35 83.5l17 -12q-1 -42 -15.5 -70t-39 -44t-56 -22.5t-66.5 -6.5h-82z" />
    <glyph glyph-name="uni063B.fina" unicode="&#x63b;" horiz-adv-x="785" 
d="M586 733q-12 0 -20 8.5t-8 19.5t8 19t20 8q11 0 19 -8t8 -19t-8 -19.5t-19 -8.5zM476 681q-12 0 -20 8.5t-8 19.5t8 19t20 8q11 0 19 -8t8 -19t-8 -19.5t-19 -8.5zM290 -21l10 33q72 0 131.5 6.5t103 21.5t66.5 40.5t23 63.5q0 31 -15 66.5t-38.5 71t-50 68.5t-50 61
t-38.5 47.5t-15 26.5q0 9 2 16.5t5.5 14.5t8.5 11q32 26 73.5 57t90.5 64.5t102 66.5l17 -28q-55 -35 -108.5 -72t-97 -69.5t-72.5 -57.5l3 12q24 -32 55.5 -69t62.5 -78.5t57 -84.5t39 -86q7 -22 17.5 -48t26.5 -50.5t38 -40t53 -15.5q10 0 15.5 -3.5t5.5 -12.5
q0 -8 -6 -12.5t-20 -4.5q-33 0 -61.5 18t-50.5 53t-36 84l19 -12q-3 -47 -29.5 -77.5t-74.5 -48.5t-114 -25.5t-148 -7.5zM290 -21q-56 0 -102 11.5t-79.5 34.5t-52 57.5t-18.5 82.5q0 24 4 50.5t10 52t12 47.5l31 -9q-5 -18 -10 -41.5t-9 -48t-4 -47.5q0 -52 25.5 -87
t76.5 -52.5t126 -17.5l20 -19z" />
    <glyph glyph-name="uni063C.init" unicode="&#x63c;" horiz-adv-x="327" 
d="M0 -5l5 33h78q51 0 80.5 10.5t43.5 28.5t17.5 39t3.5 41q0 42 -21 88.5t-62 97.5q-38 48 -61 76.5t-35.5 43.5t-17 21.5t-4.5 10.5q0 9 2.5 16.5t6 14.5t7.5 10q25 20 51.5 41.5t58 44t70.5 48t88 55.5l17 -28q-45 -28 -85 -54t-74.5 -51t-64.5 -48.5t-55 -44.5l1 15
q37 -48 74 -92.5t67.5 -87.5t50 -87t19.5 -93q0 -29 -7.5 -55.5t-27.5 -48t-56 -33.5t-91 -12h-79zM130 -259q-13 0 -22 9t-9 21q0 13 9 22t22 9q12 0 21 -9t9 -22q0 -12 -9 -21t-21 -9zM79 -170q-13 0 -22.5 8.5t-9.5 21.5q0 12 9 21.5t23 9.5q12 0 21 -9.5t9 -21.5
q0 -13 -9 -21.5t-21 -8.5zM180 -170q-13 0 -22 8.5t-9 21.5q0 12 9 21.5t22 9.5t21.5 -9.5t8.5 -21.5q0 -13 -8.5 -21.5t-21.5 -8.5z" />
    <glyph glyph-name="uni063C.medi" unicode="&#x63c;" horiz-adv-x="388" 
d="M0 -5l5 33h78q51 0 83 12t47.5 38t15.5 69q0 32 -14.5 67t-37 70.5t-48 68.5t-48.5 60.5t-37.5 46t-14.5 25.5q0 10 2 17.5t6 14t8 10.5q23 21 53.5 44t65 47t72 48.5t75.5 48.5l17 -29q-39 -24 -78.5 -50t-76.5 -52t-68 -50t-53 -44l2 10q24 -34 52 -67.5t57 -71
t53.5 -81t41.5 -96.5q17 -51 36.5 -85.5t44 -52.5t55.5 -18q9 0 14.5 -3.5t5.5 -12.5q0 -8 -6 -12.5t-20 -4.5q-31 0 -60 18.5t-51 53t-35 83.5l17 -12q-1 -42 -15.5 -70t-39 -44t-56 -22.5t-66.5 -6.5h-82zM131 -259q-13 0 -22 9t-9 21q0 13 9 22t22 9q12 0 21 -9t9 -22
q0 -12 -9 -21t-21 -9zM80 -170q-13 0 -22.5 8.5t-9.5 21.5q0 12 9 21.5t23 9.5q12 0 21 -9.5t9 -21.5q0 -13 -9 -21.5t-21 -8.5zM181 -170q-13 0 -22 8.5t-9 21.5q0 12 9 21.5t22 9.5t21.5 -9.5t8.5 -21.5q0 -13 -8.5 -21.5t-21.5 -8.5z" />
    <glyph glyph-name="uni063C.fina" unicode="&#x63c;" horiz-adv-x="785" 
d="M290 -21l10 33q72 0 131.5 6.5t103 21.5t66.5 40.5t23 63.5q0 31 -15 66.5t-38.5 71t-50 68.5t-50 61t-38.5 47.5t-15 26.5q0 9 2 16.5t5.5 14.5t8.5 11q32 26 73.5 57t90.5 64.5t102 66.5l17 -28q-55 -35 -108.5 -72t-97 -69.5t-72.5 -57.5l3 12q24 -32 55.5 -69
t62.5 -78.5t57 -84.5t39 -86q7 -22 17.5 -48t26.5 -50.5t38 -40t53 -15.5q10 0 15.5 -3.5t5.5 -12.5q0 -8 -6 -12.5t-20 -4.5q-33 0 -61.5 18t-50.5 53t-36 84l19 -12q-3 -47 -29.5 -77.5t-74.5 -48.5t-114 -25.5t-148 -7.5zM290 -21q-56 0 -102 11.5t-79.5 34.5t-52 57.5
t-18.5 82.5q0 24 4 50.5t10 52t12 47.5l31 -9q-5 -18 -10 -41.5t-9 -48t-4 -47.5q0 -52 25.5 -87t76.5 -52.5t126 -17.5l20 -19zM338 -280q-13 0 -22 9t-9 21q0 13 9 22t22 9q12 0 21 -9t9 -22q0 -12 -9 -21t-21 -9zM287 -191q-13 0 -22.5 8.5t-9.5 21.5q0 12 9 21.5t23 9.5
q12 0 21 -9.5t9 -21.5q0 -13 -9 -21.5t-21 -8.5zM388 -191q-13 0 -22 8.5t-9 21.5q0 12 9 21.5t22 9.5t21.5 -9.5t8.5 -21.5q0 -13 -8.5 -21.5t-21.5 -8.5z" />
    <glyph glyph-name="uni063D.init" unicode="&#x63d;" horiz-adv-x="211" 
d="M0 -5l5 33q43 0 66 13t31.5 36.5t8.5 56.5q0 35 -6 69.5t-17 72.5t-28 82l33 13q15 -41 26.5 -80t18 -77t6.5 -77q0 -25 -4.5 -46.5t-15 -39t-27.5 -30.5t-41 -19.5t-56 -6.5zM98 700q6 -14 14.5 -40t18 -55t18 -55t15.5 -41l-24 -11q-5 10 -13 34t-18 53t-18 55t-13 40
l-10 18zM68 698l24 -8q-6 -17 -14.5 -46t-17.5 -60.5l-16 -56t-10 -31.5l-25 8q4 10 11.5 35t16.5 56t17.5 59t13.5 44zM141 -174q-13 0 -22 9t-9 21q0 13 9 22t22 9t21.5 -9t8.5 -21q0 -13 -9 -22t-21 -9zM39 -174q-13 0 -22 9t-9 21q0 13 9 22t22 9t21.5 -9t8.5 -21
q0 -13 -9 -22t-21 -9z" />
    <glyph glyph-name="uni063D.medi" unicode="&#x63d;" horiz-adv-x="227" 
d="M0 -5l5 33q18 0 34 8t31 32t29 72t27 127l34 -6q-7 -33 -12 -56.5t-8 -43t-3 -39.5q0 -28 8 -49.5t28 -33t59 -11.5q13 0 17 -5t4 -11q0 -8 -5.5 -12.5t-20.5 -4.5q-42 0 -67 12t-36 38t-13 65h8q-11 -39 -24.5 -62t-29 -34.5t-32 -15t-33.5 -3.5zM148 593
q6 -14 14.5 -40t18 -55t18 -55t15.5 -41l-24 -11q-5 10 -13 34t-18 53t-18 55t-13 40l-10 18zM118 591l24 -8q-6 -17 -14.5 -46t-17.5 -60.5l-16 -56t-10 -31.5l-25 8q4 10 11.5 35t16.5 56t17.5 59t13.5 44zM156 -174q-13 0 -22 9t-9 21q0 13 9 22t22 9t21.5 -9t8.5 -21
q0 -13 -9 -22t-21 -9zM54 -174q-13 0 -22 9t-9 21q0 13 9 22t22 9t21.5 -9t8.5 -21q0 -13 -9 -22t-21 -9z" />
    <glyph glyph-name="uni063D.fina" unicode="&#x63d;" horiz-adv-x="615" 
d="M42 -15q0 19 3.5 47.5t15.5 66.5t37 84l30 -14q-17 -32 -29 -63.5t-17.5 -61.5t-5.5 -59q0 -44 14 -78t41.5 -56.5t66 -34.5t86.5 -12q62 0 109 16.5t78.5 42t47 53.5t15.5 50q0 19 -10.5 32.5t-30.5 24t-48.5 20.5t-64.5 22l8 34q38 -14 71.5 -27t63 -22.5t54 -15.5
t43.5 -6q10 0 15.5 -3.5t5.5 -12.5q0 -8 -6 -12.5t-20 -4.5q-8 0 -18 1t-21 4t-23 8q9 -11 12.5 -24.5t3.5 -22.5q0 -27 -18.5 -60t-55 -62.5t-89.5 -49t-122 -19.5q-71 0 -126 24t-85.5 72t-30.5 119zM211 463q6 -14 14.5 -40t18 -55t18 -55t15.5 -41l-24 -11q-5 10 -13 34
t-18 53t-18 55t-13 40l-10 18zM181 461l24 -8q-6 -17 -14.5 -46t-17.5 -60.5l-16 -56t-10 -31.5l-25 8q4 10 11.5 35t16.5 56t17.5 59t13.5 44z" />
    <glyph glyph-name="uni063E.init" unicode="&#x63e;" horiz-adv-x="239" 
d="M0 -5l5 33q42 0 71 8.5t43.5 32t14.5 65.5q0 34 -6.5 69t-17.5 73t-27 82l33 13q15 -40 26.5 -79t18 -76t6.5 -74q0 -38 -9.5 -66t-30 -46t-52.5 -26.5t-75 -8.5zM161 500q-13 0 -22 9t-9 21q0 13 9 22t22 9t21.5 -9t8.5 -22q0 -12 -9 -21t-21 -9zM59 500q-13 0 -22 9
t-9 21q0 13 9 22t22 9t21.5 -9t8.5 -22q0 -12 -9 -21t-21 -9zM147 -174q-13 0 -22.5 9t-9.5 21q0 13 9.5 22t22.5 9q12 0 21 -9t9 -21q0 -13 -9 -22t-21 -9zM45 -174q-13 0 -22.5 9t-9.5 21q0 13 9.5 22t22.5 9q12 0 21 -9t9 -21q0 -13 -9 -22t-21 -9z" />
    <glyph glyph-name="uni063E.medi" unicode="&#x63e;" horiz-adv-x="255" 
d="M0 -5l5 33q27 0 47.5 8t36.5 32t30.5 72t28.5 128l33 -7q-6 -33 -11.5 -56.5t-8.5 -43t-3 -40.5t4.5 -38t15 -29.5t31 -19t51.5 -6.5q13 0 17 -5t4 -11q0 -7 -5.5 -12t-20.5 -5q-35 0 -58 7t-36.5 21t-20 36t-7.5 51h7q-11 -38 -24.5 -60.5t-30.5 -34.5t-38 -16t-47 -4z
M207 429q-13 0 -22 9t-9 21q0 13 9 22t22 9t21.5 -9t8.5 -22q0 -12 -8.5 -21t-21.5 -9zM105 429q-12 0 -21.5 9t-9.5 21q0 13 9 22t22 9t21.5 -9t8.5 -22q0 -12 -8.5 -21t-21.5 -9zM180 -170q-13 0 -22 9t-9 21q0 13 9 22t22 9t21.5 -9t8.5 -21q0 -13 -9 -22t-21 -9z
M78 -170q-13 0 -22 9t-9 21q0 13 9 22t22 9t21.5 -9t8.5 -21q0 -13 -8.5 -22t-21.5 -9z" />
    <glyph glyph-name="uni063E.fina" unicode="&#x63e;" horiz-adv-x="615" 
d="M42 -15q0 19 3.5 47.5t15.5 66.5t37 84l30 -14q-17 -32 -29 -63.5t-17.5 -61.5t-5.5 -59q0 -44 14 -78t41.5 -56.5t66 -34.5t86.5 -12q62 0 109 16.5t78.5 42t47 53.5t15.5 50q0 19 -10.5 32.5t-30.5 24t-48.5 20.5t-64.5 22l8 34q38 -14 71.5 -27t63 -22.5t54 -15.5
t43.5 -6q10 0 15.5 -3.5t5.5 -12.5q0 -8 -6 -12.5t-20 -4.5q-8 0 -18 1t-21 4t-23 8q9 -11 12.5 -24.5t3.5 -22.5q0 -27 -18.5 -60t-55 -62.5t-89.5 -49t-122 -19.5q-71 0 -126 24t-85.5 72t-30.5 119zM256 272q-12 0 -21.5 8.5t-9.5 21.5q0 12 9 21.5t23 9.5q12 0 21 -9.5
t9 -21.5q0 -13 -9 -21.5t-22 -8.5zM155 272q-13 0 -22.5 8.5t-9.5 21.5q0 12 9 21.5t23 9.5q12 0 21 -9.5t9 -21.5q0 -13 -9 -21.5t-21 -8.5z" />
    <glyph glyph-name="uni063F.init" unicode="&#x63f;" horiz-adv-x="239" 
d="M0 -5l5 33q42 0 71 8.5t43.5 32t14.5 65.5q0 34 -6.5 69t-17.5 73t-27 82l33 13q15 -40 26.5 -79t18 -76t6.5 -74q0 -38 -9.5 -66t-30 -46t-52.5 -26.5t-75 -8.5zM110 588q-12 0 -21.5 9t-9.5 22t9.5 21.5t21.5 8.5t21.5 -8.5t9.5 -21.5t-9.5 -22t-21.5 -9zM59 500
q-12 0 -21 9t-9 21q0 13 9 22t21 9q13 0 22 -9t9 -21q0 -13 -9 -22t-22 -9zM161 500q-12 0 -21 9t-9 21q0 13 9 22t21 9q13 0 22 -9t9 -21q0 -13 -9 -22t-22 -9zM147 -174q-13 0 -22.5 9t-9.5 21q0 13 9.5 22t22.5 9q12 0 21 -9t9 -21q0 -13 -9 -22t-21 -9zM45 -174
q-13 0 -22.5 9t-9.5 21q0 13 9.5 22t22.5 9q12 0 21 -9t9 -21q0 -13 -9 -22t-21 -9z" />
    <glyph glyph-name="uni063F.medi" unicode="&#x63f;" horiz-adv-x="255" 
d="M0 -5l5 33q27 0 47.5 8t36.5 32t30.5 72t28.5 128l33 -7q-6 -33 -11.5 -56.5t-8.5 -43t-3 -40.5t4.5 -38t15 -29.5t31 -19t51.5 -6.5q13 0 17 -5t4 -11q0 -7 -5.5 -12t-20.5 -5q-35 0 -58 7t-36.5 21t-20 36t-7.5 51h7q-11 -38 -24.5 -60.5t-30.5 -34.5t-38 -16t-47 -4z
M156 517q-12 0 -21 9t-9 22t9 22t21 9q13 0 22 -9t9 -22t-9 -22t-22 -9zM106 429q-12 0 -21.5 9t-9.5 22q0 12 9.5 21t21.5 9t21 -9t9 -21q0 -13 -9 -22t-21 -9zM207 429q-12 0 -21 9t-9 22q0 12 9 21t21 9q13 0 22 -9t9 -21q0 -13 -9 -22t-22 -9zM180 -170q-13 0 -22 9
t-9 21q0 13 9 22t22 9t21.5 -9t8.5 -21q0 -13 -9 -22t-21 -9zM78 -170q-13 0 -22 9t-9 21q0 13 9 22t22 9t21.5 -9t8.5 -21q0 -13 -8.5 -22t-21.5 -9z" />
    <glyph glyph-name="uni063F.fina" unicode="&#x63f;" horiz-adv-x="615" 
d="M42 -15q0 19 3.5 47.5t15.5 66.5t37 84l30 -14q-17 -32 -29 -63.5t-17.5 -61.5t-5.5 -59q0 -44 14 -78t41.5 -56.5t66 -34.5t86.5 -12q62 0 109 16.5t78.5 42t47 53.5t15.5 50q0 19 -10.5 32.5t-30.5 24t-48.5 20.5t-64.5 22l8 34q38 -14 71.5 -27t63 -22.5t54 -15.5
t43.5 -6q10 0 15.5 -3.5t5.5 -12.5q0 -8 -6 -12.5t-20 -4.5q-8 0 -18 1t-21 4t-23 8q9 -11 12.5 -24.5t3.5 -22.5q0 -27 -18.5 -60t-55 -62.5t-89.5 -49t-122 -19.5q-71 0 -126 24t-85.5 72t-30.5 119zM205 360q-12 0 -21 9t-9 22t9 21.5t21 8.5q13 0 22 -8.5t9 -21.5
t-9 -22t-22 -9zM155 272q-12 0 -21.5 9t-9.5 21q0 13 9.5 22t21.5 9t21.5 -9t9.5 -22q0 -12 -9.5 -21t-21.5 -9zM256 272q-12 0 -21 9t-9 21q0 13 9 22t21 9q13 0 22 -9t9 -22q0 -12 -9 -21t-22 -9z" />
    <glyph glyph-name="uni066E.init" unicode="&#x66e;" horiz-adv-x="211" 
d="M0 -5l5 33q43 0 66 13t31.5 36.5t8.5 56.5q0 35 -6 69.5t-17 72.5t-28 82l33 13q15 -41 26.5 -80t18 -77t6.5 -77q0 -25 -4.5 -46.5t-15 -39t-27.5 -30.5t-41 -19.5t-56 -6.5z" />
    <glyph glyph-name="uni066E.medi" unicode="&#x66e;" horiz-adv-x="227" 
d="M0 -5l5 33q18 0 34 8t31 32t29 72t27 127l34 -6q-7 -33 -12 -56.5t-8 -43t-3 -39.5q0 -28 8 -49.5t28 -33t59 -11.5q13 0 17 -5t4 -11q0 -8 -5.5 -12.5t-20.5 -4.5q-42 0 -67 12t-36 38t-13 65h8q-11 -39 -24.5 -62t-29 -34.5t-32 -15t-33.5 -3.5z" />
    <glyph glyph-name="uni066E.fina" unicode="&#x66e;" horiz-adv-x="720" 
d="M290 -21l10 33q55 0 106 8.5t95.5 29.5t79.5 59.5t58 98.5l30 -13q-11 -27 -20.5 -54t-9.5 -53q0 -14 6.5 -28t25.5 -23t54 -9q13 0 17 -5t4 -11q0 -8 -5.5 -12.5t-20.5 -4.5q-36 0 -63.5 12.5t-40 39.5t-2.5 71l13 1q-29 -47 -71.5 -75.5t-89 -42t-93 -18t-83.5 -4.5z
M290 -21q-56 0 -102 11.5t-79.5 34.5t-52 57.5t-18.5 82.5q0 24 4 50.5t10 52t12 47.5l31 -9q-6 -18 -11 -41.5t-8.5 -48t-3.5 -47.5q0 -52 25 -87t76 -52.5t127 -17.5l20 -19z" />
    <glyph glyph-name="uni066F.init" unicode="&#x66f;" horiz-adv-x="367" 
d="M0 -5l5 33q28 0 57.5 1.5t57.5 5.5t53 11.5t45 19.5q18 11 34.5 30.5t26.5 55.5t10 93q0 49 -10.5 96.5t-31 78t-53.5 30.5q-26 0 -47 -24.5t-33 -61.5t-12 -78q0 -38 14.5 -59t37.5 -29t47 -8q22 0 48.5 6.5t46.5 17.5l4 -30q-14 -10 -34.5 -16t-39.5 -8.5t-30 -2.5
q-36 0 -65 13.5t-46 42t-17 70.5q0 34 9 69.5t25.5 65.5t40.5 48.5t56 18.5q41 0 68.5 -34t41.5 -90t14 -122q0 -62 -17.5 -112t-64.5 -83q-19 -13 -43.5 -22.5t-55 -15.5t-66 -8.5t-76.5 -2.5z" />
    <glyph glyph-name="uni066F.medi" unicode="&#x66f;" horiz-adv-x="350" 
d="M0 -5l5 33q20 0 41.5 2t42 7.5t40 13t37.5 18.5q31 17 54 41t36.5 54t13.5 63q0 29 -9.5 59t-28.5 51t-48 21q-24 0 -46 -18.5t-35.5 -48.5t-13.5 -66q0 -37 13.5 -68t37 -53.5t51.5 -36.5l-38 -13q-21 14 -43.5 37t-38 56.5t-15.5 77.5q0 34 10 63.5t28 53t41.5 36.5
t49.5 13q36 0 62.5 -22.5t41 -59t14.5 -77.5q0 -30 -8.5 -57t-23.5 -51t-35.5 -44t-45.5 -36q-21 -13 -44 -22.5t-47.5 -15.5t-49.5 -8.5t-49 -2.5zM350 -5q-25 0 -61.5 7t-71.5 19t-56 26l33 17q20 -9 46 -17t56 -13.5t60 -5.5q9 0 14.5 -3.5t5.5 -12.5q0 -8 -6 -12.5
t-20 -4.5z" />
    <glyph glyph-name="uni066F.fina" unicode="&#x66f;" horiz-adv-x="702" 
d="M296 -272q-53 0 -99.5 13.5t-82 41t-56 72t-20.5 105.5q0 11 3 40t15 70.5t39 88.5l30 -14q-14 -25 -26 -53t-19.5 -60t-7.5 -68q0 -76 33 -120t85.5 -63t111.5 -19q30 0 64.5 4.5t69 16t65 33t54 55.5t34.5 82q7 22 10.5 50.5t3.5 57.5q0 62 -11 111.5t-32 79t-51 29.5
q-22 0 -39 -15t-29 -40t-18.5 -54t-6.5 -57q0 -29 9 -46.5t26.5 -26.5t41.5 -11.5t54 -2.5h160q10 0 15.5 -3.5t5.5 -12.5t-6.5 -13t-19.5 -4h-160q-30 0 -59 5t-51.5 17.5t-36 35t-13.5 57.5q0 34 8.5 70t24.5 67t41 50t57 19q41 0 68.5 -34t41.5 -91.5t14 -129.5
q0 -36 -5 -69t-13 -59q-18 -64 -53.5 -104.5t-81 -62t-94.5 -30t-94 -8.5z" />
    <glyph glyph-name="uni0672.fina" unicode="&#x672;" horiz-adv-x="212" 
d="M212 -5q-40 0 -64.5 14t-36.5 49t-15 99l-17 487h32l18 -472q3 -59 10.5 -90t26 -42.5t51.5 -11.5q13 0 17 -5t4 -11q0 -8 -5.5 -12.5t-20.5 -4.5zM-74 722l-21 13q12 22 27 32t31 10q21 0 36.5 -11t34.5 -11q11 0 24 3t21 7l9 -8q-37 6 -63.5 32.5t-26.5 61.5
q0 38 26 58.5t57 20.5q12 0 23.5 -2t21.5 -6l-6 -25q-10 3 -19 4.5t-19 1.5q-29 0 -43 -15t-14 -37q0 -21 11.5 -37.5t30 -26.5t42.5 -14l-25 -5q26 7 42.5 14t32.5 14l9 -23q-9 -5 -27 -13t-38.5 -15t-39 -12t-31.5 -5q-23 0 -39 11t-30 11q-12 0 -20.5 -8.5t-16.5 -19.5z
" />
    <glyph glyph-name="uni0673.fina" unicode="&#x673;" horiz-adv-x="222" 
d="M222 -5q-44 0 -70.5 13.5t-38.5 49t-15 99.5l-19 553h32l20 -538q3 -63 11 -93.5t28 -40.5t57 -10q13 0 17 -5t4 -11q0 -8 -5.5 -12.5t-20.5 -4.5zM-5 -291l-21 13q13 22 27.5 32t30.5 10q21 0 36.5 -11t34.5 -11q12 0 24.5 3t20.5 7l10 -8q-38 6 -64.5 32.5t-26.5 61.5
q0 38 26 58.5t57 20.5q12 0 23.5 -2t21.5 -6l-6 -25q-9 3 -18.5 4.5t-19.5 1.5q-29 0 -43 -15t-14 -37q0 -21 11.5 -37.5t30 -26.5t42.5 -14l-25 -5q26 7 42.5 14t32.5 14l9 -23q-9 -5 -26.5 -13t-38.5 -15t-39.5 -12t-30.5 -5q-24 0 -40 11t-30 11q-12 0 -20.5 -8.5
t-16.5 -19.5z" />
    <glyph glyph-name="uni0675.fina" unicode="&#x675;" horiz-adv-x="366" 
d="M366 -5h-145q-44 0 -70 13.5t-38 49t-15 99.5l-19 553h32l20 -538q3 -62 11 -93t27.5 -41t56.5 -10h145q13 0 17 -5t4 -11q0 -8 -5.5 -12.5t-20.5 -4.5zM197 591l-6 27q25 6 40 10.5t35 9.5l21 -8q-44 5 -68 32t-24 60q0 27 13 45t32 27t39 9q12 0 24.5 -2t22.5 -6
l-6 -25q-9 3 -18.5 5t-20.5 2q-27 0 -43 -15.5t-16 -38.5q0 -21 11.5 -37t31 -26t42.5 -14l-39 -6q26 7 49.5 14.5t41.5 14.5l9 -25q-24 -9 -53.5 -18.5t-60 -18.5t-57.5 -16z" />
    <glyph glyph-name="uni0676.fina" unicode="&#x676;" horiz-adv-x="381" 
d="M48 -230l-9 33q44 12 87.5 31.5t78.5 50.5t55.5 77.5t21.5 112.5q0 96 -26.5 150t-68.5 54q-26 0 -47 -24t-33.5 -60.5t-12.5 -74.5q0 -31 7.5 -49.5t24.5 -28t44 -12t65 -2.5h151q9 0 15 -3.5t6 -12.5q0 -10 -7 -13.5t-19 -3.5h-148q-61 0 -99.5 10t-56 36.5t-17.5 75.5
q0 34 9 69t26.5 64.5t42 47.5t53.5 18q40 0 67.5 -31.5t42.5 -86.5t15 -126q-1 -82 -32 -141.5t-90.5 -98t-145.5 -62.5zM246 354l-6 26q23 6 41 11.5t33 9.5l21 -9q-37 6 -63 32t-26 59q0 26 12 43.5t31 27t38 9.5q12 0 23 -2t21 -6l-5 -24q-10 2 -19.5 3.5t-19.5 1.5
q-27 0 -40.5 -15.5t-13.5 -37.5q0 -20 12.5 -36t31 -25.5t38.5 -13.5l-37 -5q26 7 46.5 13.5t39.5 13.5l8 -24q-23 -9 -51.5 -18.5t-58 -18.5t-56.5 -15z" />
    <glyph glyph-name="uni0677.fina" unicode="&#x677;" horiz-adv-x="431" 
d="M81 -230l-9 33q44 12 87.5 31.5t78.5 50.5t55.5 77.5t21.5 112.5q0 96 -26.5 150t-68.5 54q-26 0 -47 -24t-33.5 -60.5t-12.5 -74.5q0 -31 7.5 -49.5t24.5 -28t44 -12t65 -2.5h151q9 0 15 -3.5t6 -12.5q0 -10 -7 -13.5t-19 -3.5h-148q-61 0 -99.5 10t-56 36.5t-17.5 75.5
q0 34 9 69t26.5 64.5t42 47.5t53.5 18q40 0 67.5 -31.5t42.5 -86.5t15 -126q-1 -82 -32 -141.5t-90.5 -98t-145.5 -62.5zM282 396l-6 26q23 6 41 11.5t33 9.5l21 -9q-37 6 -63 32t-26 59q0 26 12 43.5t31 27t38 9.5q12 0 23 -2t21 -6l-5 -24q-10 2 -19.5 3.5t-19.5 1.5
q-27 0 -40.5 -15.5t-13.5 -37.5q0 -20 12.5 -36t31 -25.5t38.5 -13.5l-37 -5q26 7 46.5 13.5t39.5 13.5l8 -24q-23 -9 -51.5 -18.5t-58 -18.5t-56.5 -15zM44 394l-5 25q48 5 77 21.5t42.5 40t13.5 50.5q0 22 -8 39.5t-29 17.5q-18 0 -28.5 -14t-10.5 -32q0 -29 23.5 -46
t49.5 -22l-15 -20q-38 7 -61.5 31t-23.5 56q0 31 19.5 52t47.5 21q24 0 43.5 -19.5t19.5 -61.5q0 -39 -19 -68.5t-54 -47.5t-82 -23z" />
    <glyph glyph-name="uni0678.init" unicode="&#x678;" horiz-adv-x="274" 
d="M0 -5l5 33q43 0 66 13t31.5 36.5t8.5 56.5q0 35 -6 69.5t-17 72.5t-28 82l33 13q15 -41 26.5 -80t18 -77t6.5 -77q0 -25 -4.5 -46.5t-15 -39t-27.5 -30.5t-41 -19.5t-56 -6.5zM103 591l-6 27q25 6 40 10.5t35 9.5l22 -8q-45 5 -69 32t-24 60q0 27 13 45t32.5 27t38.5 9
q13 0 25 -2t22 -6l-5 -25q-10 3 -19.5 5t-20.5 2q-27 0 -43 -15.5t-16 -38.5q0 -21 11.5 -37t31 -26t43.5 -14l-40 -6q27 7 50 14.5t41 14.5l9 -25q-23 -9 -53 -18.5t-60 -18.5t-58 -16z" />
    <glyph glyph-name="uni0678.medi" unicode="&#x678;" horiz-adv-x="243" 
d="M0 -5l5 33q18 0 34 8t31 32t29 72t27 127l34 -6q-7 -33 -12 -56.5t-8 -43t-3 -39.5q0 -28 8 -49.5t28 -33t59 -11.5q13 0 17 -5t4 -11q0 -8 -5.5 -12.5t-20.5 -4.5q-42 0 -67 12t-36 38t-13 65h8q-11 -39 -24.5 -62t-29 -34.5t-32 -15t-33.5 -3.5zM117 422l-6 27
q25 6 40 10.5t35 9.5l22 -8q-45 5 -69 32t-24 60q0 27 13 45t32.5 27t38.5 9q13 0 25 -2t22 -6l-5 -25q-10 3 -19.5 5t-20.5 2q-27 0 -43 -15.5t-16 -38.5q0 -21 11.5 -37t31 -26t43.5 -14l-40 -6q27 7 50 14.5t41 14.5l9 -25q-23 -9 -53 -18.5t-60 -18.5t-58 -16z" />
    <glyph glyph-name="uni0678.fina" unicode="&#x678;" horiz-adv-x="615" 
d="M42 -15q0 19 3.5 47.5t15.5 66.5t37 84l30 -14q-17 -32 -29 -63.5t-17.5 -61.5t-5.5 -59q0 -44 14 -78t41.5 -56.5t66 -34.5t86.5 -12q62 0 109 16.5t78.5 42t47 53.5t15.5 50q0 19 -10.5 32.5t-30.5 24t-48.5 20.5t-64.5 22l8 34q38 -14 71.5 -27t63 -22.5t54 -15.5
t43.5 -6q10 0 15.5 -3.5t5.5 -12.5q0 -8 -6 -12.5t-20 -4.5q-8 0 -18 1t-21 4t-23 8q9 -11 12.5 -24.5t3.5 -22.5q0 -27 -18.5 -60t-55 -62.5t-89.5 -49t-122 -19.5q-71 0 -126 24t-85.5 72t-30.5 119zM421 212l-6 27q25 6 40 10.5t35 9.5l22 -8q-45 5 -69 32t-24 60
q0 27 13 45t32.5 27t38.5 9q13 0 25 -2t22 -6l-5 -25q-10 3 -19.5 5t-20.5 2q-27 0 -43 -15.5t-16 -38.5q0 -21 11.5 -37t31 -26t43.5 -14l-40 -6q27 7 50 14.5t41 14.5l9 -25q-23 -9 -53 -18.5t-60 -18.5t-58 -16z" />
    <glyph glyph-name="uni067C.init" unicode="&#x67c;" horiz-adv-x="239" 
d="M0 -5l5 33q42 0 71 8.5t43.5 32t14.5 65.5q0 34 -6.5 69t-17.5 73t-27 82l33 13q15 -40 26.5 -79t18 -76t6.5 -74q0 -38 -9.5 -66t-30 -46t-52.5 -26.5t-75 -8.5zM100 -105q-29 0 -49.5 21t-20.5 50q0 30 20.5 50.5t49.5 20.5q30 0 51 -20.5t21 -50.5q0 -29 -21 -50
t-51 -21zM100 -81q19 0 33 14t14 33q0 20 -14 33.5t-33 13.5t-32 -13.5t-13 -33.5q0 -19 13 -33t32 -14zM161 500q-13 0 -22 9t-9 21q0 13 9 22t22 9t21.5 -9t8.5 -22q0 -12 -9 -21t-21 -9zM59 500q-13 0 -22 9t-9 21q0 13 9 22t22 9t21.5 -9t8.5 -22q0 -12 -9 -21t-21 -9z
" />
    <glyph glyph-name="uni067C.medi" unicode="&#x67c;" horiz-adv-x="227" 
d="M76 -107q-30 0 -50.5 20.5t-20.5 50.5t20.5 50.5t50.5 20.5q29 0 50 -20.5t21 -50.5q0 -29 -21 -50t-50 -21zM76 -83q18 0 32 14t14 33t-14 33t-33 14q-18 0 -31.5 -14t-13.5 -33t13.5 -33t32.5 -14zM0 -5l5 33q18 0 34 8t31 32t29 72t27 127l34 -6q-7 -33 -12 -56.5
t-8 -43t-3 -40.5q0 -27 8 -48.5t28 -33t59 -11.5q13 0 17 -5t4 -11q0 -7 -5.5 -12t-20.5 -5q-42 0 -67 12t-36 38t-13 65h8q-11 -39 -24.5 -62t-29 -34.5t-32 -15t-33.5 -3.5zM223 419q-13 0 -22 8.5t-9 21.5q0 12 9 21.5t22 9.5t21.5 -9.5t8.5 -21.5q0 -13 -9 -21.5
t-21 -8.5zM121 419q-13 0 -22 8.5t-9 21.5q0 12 9 21.5t22 9.5t21.5 -9.5t8.5 -21.5q0 -13 -9 -21.5t-21 -8.5z" />
    <glyph glyph-name="uni067C.fina" unicode="&#x67c;" horiz-adv-x="720" 
d="M339 -139q-30 0 -50.5 21t-20.5 51q0 29 20.5 49.5t50.5 20.5q29 0 50 -20.5t21 -50.5q0 -29 -21 -50t-50 -21zM339 -115q19 0 32.5 14t13.5 33q0 20 -14 33.5t-32 13.5q-19 0 -32.5 -13.5t-13.5 -32.5q0 -20 13.5 -34t32.5 -14zM290 -21l10 33q55 0 106 8.5t95.5 29.5
t79.5 59.5t58 98.5l30 -13q-11 -27 -20.5 -53.5t-9.5 -53.5q0 -14 6.5 -28t25.5 -23t54 -9q13 0 17 -5t4 -11q0 -8 -5.5 -12.5t-20.5 -4.5q-36 0 -63.5 12.5t-40 39.5t-2.5 71l13 1q-29 -47 -71.5 -75.5t-89 -42t-93 -18t-83.5 -4.5zM290 -21q-56 0 -102 11.5t-79.5 34.5
t-52 57.5t-18.5 82.5q0 24 4 50t10 52t12 48l31 -9q-6 -18 -11 -41.5t-8.5 -48t-3.5 -47.5q0 -52 25 -87t76 -52.5t127 -17.5l20 -19zM389 427q-12 0 -21.5 9t-9.5 22q0 12 9 21.5t23 9.5q12 0 21 -9.5t9 -21.5q0 -13 -9 -22t-22 -9zM288 427q-13 0 -22.5 9t-9.5 22
q0 12 9 21.5t23 9.5q12 0 21 -9.5t9 -21.5q0 -13 -9 -22t-21 -9z" />
    <glyph glyph-name="uni067D.init" unicode="&#x67d;" horiz-adv-x="239" 
d="M0 -5l5 33q42 0 71 8.5t43.5 32t14.5 65.5q0 34 -6.5 69t-17.5 73t-27 82l33 13q15 -40 26.5 -79t18 -76t6.5 -74q0 -38 -9.5 -66t-30 -46t-52.5 -26.5t-75 -8.5zM111 500q-13 0 -22.5 9t-9.5 21q0 13 9.5 22t22.5 9q12 0 21 -9t9 -22q0 -12 -9 -21t-21 -9zM59 588
q-12 0 -21.5 9t-9.5 21q0 13 9 22t22 9t21.5 -9t8.5 -22q0 -12 -8.5 -21t-21.5 -9zM161 588q-13 0 -22 9t-9 21q0 13 9 22t22 9t21.5 -9t8.5 -22q0 -12 -9 -21t-21 -9z" />
    <glyph glyph-name="uni067D.medi" unicode="&#x67d;" horiz-adv-x="255" 
d="M0 -5l5 33q27 0 47.5 8t36.5 32t30.5 72t28.5 128l33 -7q-6 -33 -11.5 -56.5t-8.5 -43t-3 -40.5t4.5 -38t15 -29.5t31 -19t51.5 -6.5q13 0 17 -5t4 -11q0 -7 -5.5 -12t-20.5 -5q-35 0 -58 7t-36.5 21t-20 36t-7.5 51h7q-11 -38 -24.5 -60.5t-30.5 -34.5t-38 -16t-47 -4z
M159 429q-13 0 -22 9t-9 21q0 13 9 22t22 9t21.5 -9t8.5 -22q0 -12 -9 -21t-21 -9zM108 517q-13 0 -22.5 9t-9.5 21q0 13 9.5 22.5t22.5 9.5q12 0 21 -9.5t9 -21.5q0 -13 -9 -22t-21 -9zM209 517q-12 0 -21.5 9t-9.5 21q0 13 9 22.5t22 9.5t21.5 -9.5t8.5 -21.5
q0 -13 -8.5 -22t-21.5 -9z" />
    <glyph glyph-name="uni067D.fina" unicode="&#x67d;" horiz-adv-x="720" 
d="M290 -21l10 33q55 0 106 8.5t95.5 29.5t79.5 59.5t58 98.5l30 -13q-11 -27 -20.5 -54t-9.5 -53q0 -14 6.5 -28t25.5 -23t54 -9q13 0 17 -5t4 -11q0 -8 -5.5 -12.5t-20.5 -4.5q-36 0 -63.5 12.5t-40 39.5t-2.5 71l13 1q-29 -47 -71.5 -75.5t-89 -42t-93 -18t-83.5 -4.5z
M290 -21q-56 0 -102 11.5t-79.5 34.5t-52 57.5t-18.5 82.5q0 24 4 50.5t10 52t12 47.5l31 -9q-6 -18 -11 -41.5t-8.5 -48t-3.5 -47.5q0 -52 25 -87t76 -52.5t127 -17.5l20 -19zM347 428q-13 0 -22 8.5t-9 21.5q0 12 9 21.5t22 9.5t21.5 -9.5t8.5 -21.5q0 -13 -9 -21.5
t-21 -8.5zM296 516q-13 0 -22.5 9t-9.5 21q0 13 9.5 22t22.5 9q12 0 21 -9t9 -22q0 -12 -9 -21t-21 -9zM397 516q-12 0 -21.5 9t-9.5 21q0 13 9 22t23 9q12 0 21 -9t9 -22q0 -12 -9 -21t-22 -9z" />
    <glyph glyph-name="uni0681.init" unicode="&#x681;" horiz-adv-x="458" 
d="M0 -5l5 33q42 0 78.5 7.5t74 23.5t80.5 42t96 64q-44 32 -78.5 58.5t-66 42t-68.5 15.5q-12 0 -22.5 -0.5t-21.5 -2t-24 -5.5l-7 31q18 6 37.5 8t37.5 2q41 0 73.5 -13.5t60 -32.5t51 -38.5t45 -33t43.5 -13.5h15l4 -33q-28 0 -54 -11.5t-52.5 -29t-57 -37.5t-66.5 -37.5
t-81.5 -28.5t-101.5 -11zM50 376l-6 26q23 6 41 11.5t33 9.5l21 -9q-37 6 -63 32t-26 59q0 26 12 43.5t31 27t38 9.5q12 0 23 -2t21 -6l-5 -24q-10 2 -19.5 3.5t-19.5 1.5q-27 0 -40.5 -15.5t-13.5 -37.5q0 -20 12.5 -36t31 -25.5t38.5 -13.5l-37 -5q26 7 46.5 13.5
t39.5 13.5l8 -24q-23 -9 -51.5 -18.5t-58 -18.5t-56.5 -15z" />
    <glyph glyph-name="uni0681.medi" unicode="&#x681;" horiz-adv-x="473" 
d="M473 -5q-20 0 -43 3.5t-44 16.5t-39 42t-29 79l26 12q15 -58 35.5 -83t45.5 -31t53 -6q13 0 17 -5t4 -11q0 -8 -5.5 -12.5t-20.5 -4.5zM0 -5l5 33q42 0 78.5 7.5t74 23.5t80.5 42t96 64q-44 32 -78.5 58.5t-66 42t-68.5 15.5q-12 0 -22.5 -0.5t-21.5 -2t-24 -5.5l-7 31
q18 6 37.5 8t37.5 2q41 0 73.5 -13.5t60 -32.5t51 -38.5t45 -33t43.5 -13.5h15l4 -33q-28 0 -54 -11.5t-52.5 -29t-57 -37.5t-66.5 -37.5t-81.5 -28.5t-101.5 -11zM51 376l-6 26q23 6 41 11.5t33 9.5l21 -9q-37 6 -63 32t-26 59q0 26 12 43.5t31 27t38 9.5q12 0 23 -2t21 -6
l-5 -24q-10 2 -19.5 3.5t-19.5 1.5q-27 0 -40.5 -15.5t-13.5 -37.5q0 -20 12.5 -36t31 -25.5t38.5 -13.5l-37 -5q26 7 46.5 13.5t39.5 13.5l8 -24q-23 -9 -51.5 -18.5t-58 -18.5t-56.5 -15z" />
    <glyph glyph-name="uni0681.fina" unicode="&#x681;" horiz-adv-x="516" 
d="M516 -5q-41 0 -75.5 12.5t-61 40t-42.5 73t-21 111.5l30 10q4 -59 17 -99.5t35.5 -66t53.5 -37t69 -11.5q13 0 17 -5t4 -11q0 -8 -5.5 -12.5t-20.5 -4.5zM294 -394q-52 0 -99 16.5t-83.5 50t-58 83.5t-21.5 117t20.5 123t55.5 101.5t79.5 80t92 57.5t94.5 34l3 -10
q-24 6 -50.5 17.5t-56 25.5t-64 23t-76.5 9q-20 0 -35.5 -2.5t-34.5 -9.5l-6 32q21 8 41.5 11t38.5 3q38 0 71 -9t62.5 -21.5t57 -25t55 -21.5t56.5 -9h6v-35q-39 -1 -82 -13t-85 -35t-79.5 -55t-66.5 -73.5t-45.5 -91.5t-16.5 -107q0 -62 19.5 -106t52.5 -71.5t74.5 -41
t84.5 -13.5q42 0 78.5 6t71.5 19l12 -30q-41 -17 -86 -23t-80 -6zM171 485l-6 26q23 6 41 11.5t33 9.5l21 -9q-37 6 -63 32t-26 59q0 26 12 43.5t31 27t38 9.5q12 0 23 -2t21 -6l-5 -24q-10 2 -19.5 3.5t-19.5 1.5q-27 0 -40.5 -15.5t-13.5 -37.5q0 -20 12.5 -36t31 -25.5
t38.5 -13.5l-37 -5q26 7 46.5 13.5t39.5 13.5l8 -24q-23 -9 -51.5 -18.5t-58 -18.5t-56.5 -15z" />
    <glyph glyph-name="uni0682.init" unicode="&#x682;" horiz-adv-x="458" 
d="M0 -5l5 33q42 0 78.5 7.5t74 23.5t80.5 42t96 64q-44 32 -78.5 58.5t-66 42t-68.5 15.5q-12 0 -22.5 -0.5t-21.5 -2t-24 -5.5l-7 31q18 6 37.5 8t37.5 2q41 0 73.5 -13.5t60 -32.5t51 -38.5t45 -33t43.5 -13.5h15l4 -33q-28 0 -54 -11.5t-52.5 -29t-57 -37.5t-66.5 -37.5
t-81.5 -28.5t-101.5 -11zM125 443q-13 0 -22 8.5t-9 21.5q0 12 9 21.5t22 9.5t21.5 -9.5t8.5 -21.5q0 -13 -9 -21.5t-21 -8.5zM124 556q-13 0 -22 9t-9 21q0 13 9 22t22 9t21.5 -9t8.5 -22q0 -12 -9 -21t-21 -9z" />
    <glyph glyph-name="uni0682.medi" unicode="&#x682;" horiz-adv-x="473" 
d="M473 -5q-20 0 -43 3.5t-44 16.5t-39 42t-29 79l26 12q15 -58 35.5 -83t45.5 -31t53 -6q13 0 17 -5t4 -11q0 -8 -5.5 -12.5t-20.5 -4.5zM0 -5l5 33q42 0 78.5 7.5t74 23.5t80.5 42t96 64q-44 32 -78.5 58.5t-66 42t-68.5 15.5q-12 0 -22.5 -0.5t-21.5 -2t-24 -5.5l-7 31
q18 6 37.5 8t37.5 2q41 0 73.5 -13.5t60 -32.5t51 -38.5t45 -33t43.5 -13.5h15l4 -33q-28 0 -54 -11.5t-52.5 -29t-57 -37.5t-66.5 -37.5t-81.5 -28.5t-101.5 -11zM125 443q-13 0 -22 8.5t-9 21.5q0 12 9 21.5t22 9.5t21.5 -9.5t8.5 -21.5q0 -13 -9 -21.5t-21 -8.5zM124 556
q-13 0 -22 9t-9 21q0 13 9 22t22 9t21.5 -9t8.5 -22q0 -12 -9 -21t-21 -9z" />
    <glyph glyph-name="uni0682.fina" unicode="&#x682;" horiz-adv-x="516" 
d="M516 -5q-41 0 -75.5 12.5t-61 40t-42.5 73t-21 111.5l30 10q4 -59 17 -99.5t35.5 -66t53.5 -37t69 -11.5q13 0 17 -5t4 -11q0 -8 -5.5 -12.5t-20.5 -4.5zM294 -394q-52 0 -99 16.5t-83.5 50t-58 83.5t-21.5 117t20.5 123t55.5 101.5t79.5 80t92 57.5t94.5 34l3 -10
q-24 6 -50.5 17.5t-56 25.5t-64 23t-76.5 9q-20 0 -35.5 -2.5t-34.5 -9.5l-6 32q21 8 41.5 11t38.5 3q38 0 71 -9t62.5 -21.5t57 -25t55 -21.5t56.5 -9h6v-35q-39 -1 -82 -13t-85 -35t-79.5 -55t-66.5 -73.5t-45.5 -91.5t-16.5 -107q0 -62 19.5 -106t52.5 -71.5t74.5 -41
t84.5 -13.5q42 0 78.5 6t71.5 19l12 -30q-41 -17 -86 -23t-80 -6zM259 508q-13 0 -22 8.5t-9 21.5q0 12 9 21.5t22 9.5t21.5 -9.5t8.5 -21.5q0 -13 -9 -21.5t-21 -8.5zM258 621q-13 0 -22 9t-9 21q0 13 9 22t22 9t21.5 -9t8.5 -22q0 -12 -9 -21t-21 -9z" />
    <glyph glyph-name="uni0685.init" unicode="&#x685;" horiz-adv-x="458" 
d="M0 -5l5 33q42 0 78.5 7.5t74 23.5t80.5 42t96 64q-44 32 -78.5 58.5t-66 42t-68.5 15.5q-12 0 -22.5 -0.5t-21.5 -2t-24 -5.5l-7 31q18 6 37.5 8t37.5 2q41 0 73.5 -13.5t60 -32.5t51 -38.5t45 -33t43.5 -13.5h15l4 -33q-28 0 -54 -11.5t-52.5 -29t-57 -37.5t-66.5 -37.5
t-81.5 -28.5t-101.5 -11zM126 515q-12 0 -21 9t-9 22t9 21.5t21 8.5q13 0 22 -8.5t9 -21.5t-9 -22t-22 -9zM76 427q-12 0 -21.5 9t-9.5 21q0 13 9.5 22t21.5 9t21.5 -9t9.5 -22q0 -12 -9.5 -21t-21.5 -9zM177 427q-12 0 -21 9t-9 21q0 13 9 22t21 9q13 0 22 -9t9 -22
q0 -12 -9 -21t-22 -9z" />
    <glyph glyph-name="uni0685.medi" unicode="&#x685;" horiz-adv-x="473" 
d="M473 -5q-20 0 -43 3.5t-44 16.5t-39 42t-29 79l26 12q15 -58 35.5 -83t45.5 -31t53 -6q13 0 17 -5t4 -11q0 -8 -5.5 -12.5t-20.5 -4.5zM0 -5l5 33q42 0 78.5 7.5t74 23.5t80.5 42t96 64q-44 32 -78.5 58.5t-66 42t-68.5 15.5q-12 0 -22.5 -0.5t-21.5 -2t-24 -5.5l-7 31
q18 6 37.5 8t37.5 2q41 0 73.5 -13.5t60 -32.5t51 -38.5t45 -33t43.5 -13.5h15l4 -33q-28 0 -54 -11.5t-52.5 -29t-57 -37.5t-66.5 -37.5t-81.5 -28.5t-101.5 -11zM126 515q-12 0 -21 9t-9 22t9 21.5t21 8.5q13 0 22 -8.5t9 -21.5t-9 -22t-22 -9zM76 427q-12 0 -21.5 9
t-9.5 21q0 13 9.5 22t21.5 9t21.5 -9t9.5 -22q0 -12 -9.5 -21t-21.5 -9zM177 427q-12 0 -21 9t-9 21q0 13 9 22t21 9q13 0 22 -9t9 -22q0 -12 -9 -21t-22 -9z" />
    <glyph glyph-name="uni0685.fina" unicode="&#x685;" horiz-adv-x="516" 
d="M516 -5q-41 0 -75.5 12.5t-61 40t-42.5 73t-21 111.5l30 10q4 -59 17 -99.5t35.5 -66t53.5 -37t69 -11.5q13 0 17 -5t4 -11q0 -8 -5.5 -12.5t-20.5 -4.5zM294 -394q-52 0 -99 16.5t-83.5 50t-58 83.5t-21.5 117t20.5 123t55.5 101.5t79.5 80t92 57.5t94.5 34l3 -10
q-24 6 -50.5 17.5t-56 25.5t-64 23t-76.5 9q-20 0 -35.5 -2.5t-34.5 -9.5l-6 32q21 8 41.5 11t38.5 3q38 0 71 -9t62.5 -21.5t57 -25t55 -21.5t56.5 -9h6v-35q-39 -1 -82 -13t-85 -35t-79.5 -55t-66.5 -73.5t-45.5 -91.5t-16.5 -107q0 -62 19.5 -106t52.5 -71.5t74.5 -41
t84.5 -13.5q42 0 78.5 6t71.5 19l12 -30q-41 -17 -86 -23t-80 -6zM276 596q-12 0 -21 9t-9 22t9 21.5t21 8.5q13 0 22 -8.5t9 -21.5t-9 -22t-22 -9zM226 508q-12 0 -21.5 9t-9.5 21q0 13 9.5 22t21.5 9t21.5 -9t9.5 -22q0 -12 -9.5 -21t-21.5 -9zM327 508q-12 0 -21 9t-9 21
q0 13 9 22t21 9q13 0 22 -9t9 -22q0 -12 -9 -21t-22 -9z" />
    <glyph glyph-name="uni0689.fina" unicode="&#x689;" horiz-adv-x="384" 
d="M173 -121q-30 0 -50.5 21t-20.5 50q0 30 20.5 50.5t50.5 20.5q29 0 50 -20.5t21 -50.5q0 -29 -21 -50t-50 -21zM173 -97q18 0 32 14t14 33t-14 33t-32 14q-19 0 -32.5 -14t-13.5 -33t13.5 -33t32.5 -14zM147 28q37 0 58.5 13t31 35t9.5 47q0 19 -3 44.5t-14.5 60
t-36 82.5t-66.5 112l29 19q36 -56 60 -104t39 -87.5t21 -72.5q11 -49 24 -82.5t34 -50t57 -16.5q13 0 16.5 -5t3.5 -11q0 -8 -5.5 -12.5t-20.5 -4.5q-33 0 -58 15t-41.5 44.5t-25.5 72.5l13 -18q-3 -27 -15 -53t-38 -43.5t-73 -17.5q-20 0 -41 3t-39.5 8t-32.5 11l10 31
q22 -9 47.5 -14.5t56.5 -5.5z" />
    <glyph glyph-name="uni068A.fina" unicode="&#x68a;" horiz-adv-x="384" 
d="M147 28q37 0 58.5 13t31 35t9.5 47q0 19 -3 44.5t-14.5 60t-36 82.5t-66.5 112l29 19q36 -56 60 -104t39 -87.5t21 -72.5q11 -49 24 -82.5t34 -50t57 -16.5q13 0 16.5 -5t3.5 -11q0 -8 -5.5 -12.5t-20.5 -4.5q-33 0 -58 15t-41.5 44.5t-25.5 72.5l13 -18q-3 -27 -15 -53
t-38 -43.5t-73 -17.5q-20 0 -41 3t-39.5 8t-32.5 11l10 31q22 -9 47.5 -14.5t56.5 -5.5zM131 -174q-13 0 -22.5 9t-9.5 21q0 13 9.5 22t22.5 9q12 0 21 -9t9 -22q0 -12 -9 -21t-21 -9z" />
    <glyph glyph-name="uni068B.fina" unicode="&#x68b;" horiz-adv-x="384" 
d="M147 28q37 0 58.5 13t31 35t9.5 47q0 19 -3 44.5t-14.5 60t-36 82.5t-66.5 112l29 19q36 -56 60 -104t39 -87.5t21 -72.5q11 -49 24 -82.5t34 -50t57 -16.5q13 0 16.5 -5t3.5 -11q0 -8 -5.5 -12.5t-20.5 -4.5q-33 0 -58 15t-41.5 44.5t-25.5 72.5l13 -18q-3 -27 -15 -53
t-38 -43.5t-73 -17.5q-20 0 -41 3t-39.5 8t-32.5 11l10 31q22 -9 47.5 -14.5t56.5 -5.5zM107 613q-13 0 -31.5 1t-35.5 3t-29 3l1 24q30 -4 54 -5.5t44 -1.5q33 0 56 8.5t34.5 23t11.5 31.5q0 19 -10 31t-28 12q-24 0 -45 -16.5t-38.5 -41.5t-30.5 -48l-23 3q16 31 37.5 60
t47.5 48t53 19q29 0 45 -18t16 -47q0 -25 -14.5 -45.5t-43 -32t-71.5 -11.5zM61 671l-6 191h22l7 -169zM131 -174q-13 0 -22.5 9t-9.5 21q0 13 9.5 22t22.5 9q12 0 21 -9t9 -22q0 -12 -9 -21t-21 -9z" />
    <glyph glyph-name="uni068F.fina" unicode="&#x68f;" horiz-adv-x="384" 
d="M147 28q37 0 58.5 13t31 35t9.5 47q0 19 -3 44.5t-14.5 60t-36 82.5t-66.5 112l29 19q36 -56 60 -104t39 -87.5t21 -72.5q11 -49 24 -82.5t34 -50t57 -16.5q13 0 16.5 -5t3.5 -11q0 -8 -5.5 -12.5t-20.5 -4.5q-33 0 -58 15t-41.5 44.5t-25.5 72.5l13 -18q-3 -27 -15 -53
t-38 -43.5t-73 -17.5q-20 0 -41 3t-39.5 8t-32.5 11l10 31q22 -9 47.5 -14.5t56.5 -5.5zM133 603q-13 0 -22 8.5t-9 21.5q0 12 9 21.5t22 9.5t21.5 -9.5t8.5 -21.5q0 -13 -9 -21.5t-21 -8.5zM82 691q-13 0 -22.5 9t-9.5 21q0 13 9.5 22t22.5 9q12 0 21 -9t9 -22
q0 -12 -9 -21t-21 -9zM183 691q-12 0 -21.5 9t-9.5 21q0 13 9 22t23 9q12 0 21 -9t9 -22q0 -12 -9 -21t-22 -9z" />
    <glyph glyph-name="uni0690.fina" unicode="&#x690;" horiz-adv-x="384" 
d="M147 28q37 0 58.5 13t31 35t9.5 47q0 19 -3 44.5t-14.5 60t-36 82.5t-66.5 112l29 19q36 -56 60 -104t39 -87.5t21 -72.5q11 -49 24 -82.5t34 -50t57 -16.5q13 0 16.5 -5t3.5 -11q0 -8 -5.5 -12.5t-20.5 -4.5q-33 0 -58 15t-41.5 44.5t-25.5 72.5l13 -18q-3 -27 -15 -53
t-38 -43.5t-73 -17.5q-20 0 -41 3t-39.5 8t-32.5 11l10 31q22 -9 47.5 -14.5t56.5 -5.5zM83 714q-12 0 -21.5 9t-9.5 21q0 13 9 22t22 9t21.5 -9t8.5 -22q0 -12 -8.5 -21t-21.5 -9zM82 603q-13 0 -22.5 8.5t-9.5 21.5q0 12 9.5 21.5t22.5 9.5q12 0 21 -9.5t9 -21.5
q0 -13 -9 -21.5t-21 -8.5zM185 714q-13 0 -22 9t-9 21q0 13 9 22t22 9t21.5 -9t8.5 -22q0 -12 -9 -21t-21 -9zM183 603q-12 0 -21.5 8.5t-9.5 21.5q0 12 9 21.5t23 9.5q12 0 21 -9.5t9 -21.5q0 -13 -9 -21.5t-22 -8.5z" />
    <glyph glyph-name="uni0692.fina" unicode="&#x692;" horiz-adv-x="270" 
d="M6 -230l-21 29q35 24 66.5 57.5t56 73.5t37.5 82t13 82q0 51 -19.5 102.5t-56.5 116.5l33 18q21 -36 35 -67.5t23 -60t16 -56.5q14 -64 31.5 -91.5t54.5 -27.5q13 0 17 -5t4 -11q0 -8 -5.5 -12.5t-20.5 -4.5q-26 0 -45.5 12t-32.5 34t-19 52l20 3q0 -52 -17.5 -101.5
t-44.5 -93t-60 -77.5t-65 -54zM87 479q-6 15 -14.5 40.5t-18 54.5t-18 55t-15.5 42l24 10q5 -10 13 -34t18 -53t18 -55t14 -40l9 -17zM117 482l-24 8q6 16 14.5 45.5t17.5 61t16 55.5t10 32l25 -8q-4 -10 -11.5 -35t-16.5 -56t-17.5 -59t-13.5 -44z" />
    <glyph glyph-name="uni0693.fina" unicode="&#x693;" horiz-adv-x="270" 
d="M155 -217q-29 0 -49.5 21t-20.5 50q0 30 20.5 50.5t49.5 20.5q30 0 51 -20.5t21 -50.5q0 -29 -21 -50t-51 -21zM155 -193q19 0 33 14t14 33t-14 33t-33 14q-18 0 -31.5 -14t-13.5 -33t13.5 -33t31.5 -14zM6 -230l-21 29q35 24 66.5 57.5t56 73.5t37.5 82t13 82
q0 51 -19.5 102.5t-56.5 116.5l33 18q21 -36 35 -67.5t23 -60t16 -56.5q14 -64 31.5 -91.5t54.5 -27.5q13 0 17 -5t4 -11q0 -8 -5.5 -12.5t-20.5 -4.5q-26 0 -45.5 12t-32.5 34t-19 52l20 3q0 -52 -17.5 -101.5t-44.5 -93t-60 -77.5t-65 -54z" />
    <glyph glyph-name="uni0694.fina" unicode="&#x694;" horiz-adv-x="270" 
d="M6 -230l-21 29q35 24 66.5 57.5t56 73.5t37.5 82t13 82q0 51 -19.5 102.5t-56.5 116.5l33 18q21 -36 35 -67.5t23 -60t16 -56.5q14 -64 31.5 -91.5t54.5 -27.5q13 0 17 -5t4 -11q0 -8 -5.5 -12.5t-20.5 -4.5q-26 0 -45.5 12t-32.5 34t-19 52l20 3q0 -52 -17.5 -101.5
t-44.5 -93t-60 -77.5t-65 -54zM86 -387q-13 0 -22.5 9t-9.5 21q0 13 9.5 22t22.5 9q12 0 21 -9t9 -22q0 -12 -9 -21t-21 -9z" />
    <glyph glyph-name="uni0695.fina" unicode="&#x695;" horiz-adv-x="270" 
d="M23 -85q-6 16 -16.5 43t-20.5 54.5t-17 43.5l21 9q4 -8 10 -25.5t13.5 -38.5t14.5 -40t11 -30l7 -15zM46 -84l-19 7q4 14 11 35t13.5 44t12 41t7.5 24l20 -8q-3 -8 -8.5 -26t-12.5 -40.5t-13.5 -43t-10.5 -33.5zM6 -230l-21 29q35 24 66.5 57.5t56 73.5t37.5 82t13 82
q0 51 -19.5 102.5t-56.5 116.5l33 18q21 -36 35 -67.5t23 -60t16 -56.5q14 -64 31.5 -91.5t54.5 -27.5q13 0 17 -5t4 -11q0 -8 -5.5 -12.5t-20.5 -4.5q-26 0 -45.5 12t-32.5 34t-19 52l20 3q0 -52 -17.5 -101.5t-44.5 -93t-60 -77.5t-65 -54z" />
    <glyph glyph-name="uni0696.fina" unicode="&#x696;" horiz-adv-x="270" 
d="M6 -230l-21 29q35 24 66.5 57.5t56 73.5t37.5 82t13 82q0 51 -19.5 102.5t-56.5 116.5l33 18q21 -36 35 -67.5t23 -60t16 -56.5q14 -64 31.5 -91.5t54.5 -27.5q13 0 17 -5t4 -11q0 -8 -5.5 -12.5t-20.5 -4.5q-26 0 -45.5 12t-32.5 34t-19 52l20 3q0 -52 -17.5 -101.5
t-44.5 -93t-60 -77.5t-65 -54zM16 19q-13 0 -22.5 8.5t-9.5 21.5q0 12 9.5 21.5t22.5 9.5q12 0 21 -9.5t9 -21.5q0 -13 -9 -21.5t-21 -8.5zM40 -387q-13 0 -22.5 9t-9.5 21q0 13 9.5 22t22.5 9q12 0 21 -9t9 -22q0 -12 -9 -21t-21 -9z" />
    <glyph glyph-name="uni0697.fina" unicode="&#x697;" horiz-adv-x="270" 
d="M6 -230l-21 29q35 24 66.5 57.5t56 73.5t37.5 82t13 82q0 51 -19.5 102.5t-56.5 116.5l33 18q21 -36 35 -67.5t23 -60t16 -56.5q14 -64 31.5 -91.5t54.5 -27.5q13 0 17 -5t4 -11q0 -8 -5.5 -12.5t-20.5 -4.5q-26 0 -45.5 12t-32.5 34t-19 52l20 3q0 -52 -17.5 -101.5
t-44.5 -93t-60 -77.5t-65 -54zM152 481q-12 0 -21.5 8.5t-9.5 21.5q0 12 9 21.5t23 9.5q12 0 21 -9.5t9 -21.5q0 -13 -9 -21.5t-22 -8.5zM51 481q-13 0 -22.5 8.5t-9.5 21.5q0 12 9 21.5t23 9.5q12 0 21 -9.5t9 -21.5q0 -13 -9 -21.5t-21 -8.5z" />
    <glyph glyph-name="uni0699.fina" unicode="&#x699;" horiz-adv-x="270" 
d="M6 -230l-21 29q35 24 66.5 57.5t56 73.5t37.5 82t13 82q0 51 -19.5 102.5t-56.5 116.5l33 18q21 -36 35 -67.5t23 -60t16 -56.5q14 -64 31.5 -91.5t54.5 -27.5q13 0 17 -5t4 -11q0 -8 -5.5 -12.5t-20.5 -4.5q-26 0 -45.5 12t-32.5 34t-19 52l20 3q0 -52 -17.5 -101.5
t-44.5 -93t-60 -77.5t-65 -54zM52 592q-12 0 -21.5 9t-9.5 21q0 13 9 22t22 9t21.5 -9t8.5 -22q0 -12 -8.5 -21t-21.5 -9zM51 481q-13 0 -22.5 8.5t-9.5 21.5q0 12 9.5 21.5t22.5 9.5q12 0 21 -9.5t9 -21.5q0 -13 -9 -21.5t-21 -8.5zM154 592q-13 0 -22 9t-9 21q0 13 9 22
t22 9t21.5 -9t8.5 -22q0 -12 -9 -21t-21 -9zM152 481q-12 0 -21.5 8.5t-9.5 21.5q0 12 9 21.5t23 9.5q12 0 21 -9.5t9 -21.5q0 -13 -9 -21.5t-22 -8.5z" />
    <glyph glyph-name="uni069A.init" unicode="&#x69a;" horiz-adv-x="612" 
d="M0 -5l5 33q23 0 39 7t28.5 29.5t24.5 68t26 120.5l31 -9q-5 -20 -10 -42.5t-8.5 -45t-3.5 -44.5q0 -49 20 -66.5t56 -17.5q27 0 44.5 9t29.5 33t21.5 70.5t19.5 122.5l32 -6q-4 -25 -8.5 -52.5t-7 -51.5t-2.5 -43q0 -31 9.5 -49t28 -25.5t44.5 -7.5q21 0 42 8t35.5 32.5
t14.5 75.5q0 52 -15 105t-33 108l34 14q12 -36 23 -74t18 -76.5t7 -74.5q0 -46 -12 -75.5t-31.5 -46t-42 -23t-43.5 -6.5q-42 0 -63.5 14t-30 37.5t-13.5 51.5h15q-11 -39 -25.5 -61.5t-36 -32t-57.5 -9.5q-27 0 -50 8t-37 32.5t-14 73.5l13 1q-9 -47 -25 -72t-38.5 -34
t-53.5 -9zM282 -175q-13 0 -22.5 9t-9.5 21q0 13 9.5 22t22.5 9q12 0 21 -9t9 -22q0 -12 -9 -21t-21 -9zM328 461q-13 0 -22.5 8.5t-9.5 21.5q0 12 9.5 21.5t22.5 9.5q12 0 21 -9.5t9 -21.5q0 -13 -9 -21.5t-21 -8.5z" />
    <glyph glyph-name="uni069A.medi" unicode="&#x69a;" horiz-adv-x="615" 
d="M0 -5l5 33q20 0 36 5.5t29.5 27t26.5 67.5t28 125l32 -9q-6 -25 -14 -62.5t-8 -67.5q0 -31 4.5 -50t18.5 -27.5t42 -8.5q25 0 42.5 7.5t30.5 30.5t24 70t22 127l33 -6q-3 -18 -8 -45t-8.5 -54t-3.5 -44q0 -30 5.5 -49t21.5 -28t45 -9q49 0 69.5 23.5t20.5 81.5
q0 23 -1.5 58t-4 71t-5.5 62l34 3q5 -99 11.5 -158.5t18 -89.5t29.5 -40.5t44 -10.5q14 0 17.5 -5t3.5 -11q0 -8 -5.5 -12.5t-20.5 -4.5q-26 0 -44 7t-30 21t-20 34.5t-13 46.5l11 -1q-6 -45 -21.5 -68t-39 -31.5t-54.5 -8.5q-34 0 -54.5 11.5t-30.5 34t-13 57.5h11
q-11 -34 -24.5 -57t-35 -34.5t-57.5 -11.5q-26 0 -47.5 8t-33.5 32.5t-11 73.5l14 1q-15 -51 -32.5 -75.5t-39.5 -32t-50 -7.5zM279 -175q-13 0 -22.5 9t-9.5 21q0 13 9.5 22t22.5 9q12 0 21 -9t9 -22q0 -12 -9 -21t-21 -9zM336 461q-13 0 -22.5 8.5t-9.5 21.5
q0 12 9.5 21.5t22.5 9.5q12 0 21 -9.5t9 -21.5q0 -13 -9 -21.5t-21 -8.5z" />
    <glyph glyph-name="uni069A.fina" unicode="&#x69a;" horiz-adv-x="918" 
d="M233 -232q-39 0 -73.5 11.5t-61 35t-41.5 61t-15 88.5q0 25 4 53.5t16.5 64.5t36.5 82l29 -17q-16 -31 -27 -61t-17.5 -59t-6.5 -58q0 -59 21 -96t57 -54t79 -17q54 0 87.5 19t52 50.5t25 71t6.5 80.5q0 38 -5.5 76t-15 77.5t-20.5 80.5l35 11q14 -57 21.5 -89t15.5 -60
q10 -34 19.5 -53.5t24 -28.5t37.5 -9q18 0 33 6t27.5 29t23.5 71t21 132l33 -6q-6 -35 -10.5 -62t-7.5 -47.5t-3 -38.5q0 -28 5 -47t21.5 -28t48.5 -9q39 0 62.5 27t23.5 78q0 23 -1 58.5t-3.5 72.5t-5.5 63l34 3q6 -93 11 -152t15 -91.5t28.5 -45.5t49.5 -13q13 0 17 -5
t4 -11q0 -8 -5.5 -12.5t-20.5 -4.5q-30 0 -51.5 11t-35.5 32.5t-21 52.5l8 -1q-6 -31 -21.5 -52t-38.5 -32t-50 -11q-37 0 -58 11.5t-30 34.5t-11 58l12 1q-11 -41 -25.5 -63.5t-33.5 -32t-46 -9.5q-25 0 -42 8.5t-28 22t-16.5 30.5t-9.5 34l19 -33q1 -63 -8 -116t-31.5 -92
t-63.5 -60t-103 -21zM612 -170q-13 0 -22.5 9t-9.5 21q0 13 9.5 22t22.5 9q12 0 21 -9t9 -22q0 -12 -9 -21t-21 -9zM612 461q-13 0 -22.5 8.5t-9.5 21.5q0 12 9.5 21.5t22.5 9.5q12 0 21 -9.5t9 -21.5q0 -13 -9 -21.5t-21 -8.5z" />
    <glyph glyph-name="uni069B.init" unicode="&#x69b;" horiz-adv-x="612" 
d="M0 -5l5 33q23 0 39 7t28.5 29.5t24.5 68t26 120.5l31 -9q-5 -20 -10 -42.5t-8.5 -45t-3.5 -44.5q0 -49 20 -66.5t56 -17.5q27 0 44.5 9t29.5 33t21.5 70.5t19.5 122.5l32 -6q-4 -25 -8.5 -52.5t-7 -51.5t-2.5 -43q0 -31 9.5 -49t28 -25.5t44.5 -7.5q21 0 42 8t35.5 32.5
t14.5 75.5q0 52 -15 105t-33 108l34 14q12 -36 23 -74t18 -76.5t7 -74.5q0 -46 -12 -75.5t-31.5 -46t-42 -23t-43.5 -6.5q-42 0 -63.5 14t-30 37.5t-13.5 51.5h15q-11 -39 -25.5 -61.5t-36 -32t-57.5 -9.5q-27 0 -50 8t-37 32.5t-14 73.5l13 1q-9 -47 -25 -72t-38.5 -34
t-53.5 -9zM282 -264q-13 0 -22 9t-9 21q0 13 9 22t22 9q12 0 21 -9t9 -22q0 -12 -9 -21t-21 -9zM231 -175q-13 0 -22.5 8.5t-9.5 21.5q0 12 9 21.5t23 9.5q12 0 21 -9.5t9 -21.5q0 -13 -9 -21.5t-21 -8.5zM332 -175q-13 0 -22 8.5t-9 21.5q0 12 9 21.5t22 9.5t21.5 -9.5
t8.5 -21.5q0 -13 -8.5 -21.5t-21.5 -8.5z" />
    <glyph glyph-name="uni069B.medi" unicode="&#x69b;" horiz-adv-x="615" 
d="M0 -5l5 33q20 0 36 5.5t29.5 27t26.5 67.5t28 125l32 -9q-6 -25 -14 -62.5t-8 -67.5q0 -31 4.5 -50t18.5 -27.5t42 -8.5q25 0 42.5 7.5t30.5 30.5t24 70t22 127l33 -6q-3 -18 -8 -45t-8.5 -54t-3.5 -44q0 -30 5.5 -49t21.5 -28t45 -9q49 0 69.5 23.5t20.5 81.5
q0 23 -1.5 58t-4 71t-5.5 62l34 3q5 -99 11.5 -158.5t18 -89.5t29.5 -40.5t44 -10.5q14 0 17.5 -5t3.5 -11q0 -8 -5.5 -12.5t-20.5 -4.5q-26 0 -44 7t-30 21t-20 34.5t-13 46.5l11 -1q-6 -45 -21.5 -68t-39 -31.5t-54.5 -8.5q-34 0 -54.5 11.5t-30.5 34t-13 57.5h11
q-11 -34 -24.5 -57t-35 -34.5t-57.5 -11.5q-26 0 -47.5 8t-33.5 32.5t-11 73.5l14 1q-15 -51 -32.5 -75.5t-39.5 -32t-50 -7.5zM279 -264q-13 0 -22 9t-9 21q0 13 9 22t22 9q12 0 21 -9t9 -22q0 -12 -9 -21t-21 -9zM228 -175q-13 0 -22.5 8.5t-9.5 21.5q0 12 9 21.5t23 9.5
q12 0 21 -9.5t9 -21.5q0 -13 -9 -21.5t-21 -8.5zM329 -175q-13 0 -22 8.5t-9 21.5q0 12 9 21.5t22 9.5t21.5 -9.5t8.5 -21.5q0 -13 -8.5 -21.5t-21.5 -8.5z" />
    <glyph glyph-name="uni069B.fina" unicode="&#x69b;" horiz-adv-x="918" 
d="M233 -232q-39 0 -73.5 11.5t-61 35t-41.5 61t-15 88.5q0 25 4 53.5t16.5 64.5t36.5 82l29 -17q-16 -31 -27 -61t-17.5 -59t-6.5 -58q0 -59 21 -96t57 -54t79 -17q54 0 87.5 19t52 50.5t25 71t6.5 80.5q0 38 -5.5 76t-15 77.5t-20.5 80.5l35 11q14 -57 21.5 -89t15.5 -60
q10 -34 19.5 -53.5t24 -28.5t37.5 -9q18 0 33 6t27.5 29t23.5 71t21 132l33 -6q-6 -35 -10.5 -62t-7.5 -47.5t-3 -38.5q0 -28 5 -47t21.5 -28t48.5 -9q39 0 62.5 27t23.5 78q0 23 -1 58.5t-3.5 72.5t-5.5 63l34 3q6 -93 11 -152t15 -91.5t28.5 -45.5t49.5 -13q13 0 17 -5
t4 -11q0 -8 -5.5 -12.5t-20.5 -4.5q-30 0 -51.5 11t-35.5 32.5t-21 52.5l8 -1q-6 -31 -21.5 -52t-38.5 -32t-50 -11q-37 0 -58 11.5t-30 34.5t-11 58l12 1q-11 -41 -25.5 -63.5t-33.5 -32t-46 -9.5q-25 0 -42 8.5t-28 22t-16.5 30.5t-9.5 34l19 -33q1 -63 -8 -116t-31.5 -92
t-63.5 -60t-103 -21zM611 -259q-13 0 -22 9t-9 21q0 13 9 22t22 9q12 0 21 -9t9 -22q0 -12 -9 -21t-21 -9zM560 -170q-13 0 -22.5 8.5t-9.5 21.5q0 12 9 21.5t23 9.5q12 0 21 -9.5t9 -21.5q0 -13 -9 -21.5t-21 -8.5zM661 -170q-13 0 -22 8.5t-9 21.5q0 12 9 21.5t22 9.5
t21.5 -9.5t8.5 -21.5q0 -13 -8.5 -21.5t-21.5 -8.5z" />
    <glyph glyph-name="uni069D.init" unicode="&#x69d;" horiz-adv-x="711" 
d="M369 -17q-42 0 -86 5.5t-81 19t-60.5 37.5t-26.5 62l11 1q-15 -49 -34.5 -73t-42.5 -32t-49 -8l4 33q23 0 39.5 6.5t30 30.5t28.5 72.5t33 131.5l33 -9q-4 -18 -10.5 -42.5t-11 -48t-4.5 -42.5q0 -27 13.5 -47.5t42 -34.5t71.5 -21t101 -7q60 0 108.5 10.5t83 30.5
t53 50.5t18.5 70.5q0 36 -13.5 62t-38 39.5t-57.5 13.5q-44 0 -87 -24t-81 -64.5t-68 -89t-48 -96.5l-32 8q27 67 63 122.5t77.5 95t86.5 61.5t91 22q40 0 72 -17t50.5 -50t18.5 -80q0 -63 -35 -107.5t-101.5 -68t-161.5 -23.5zM419 -186q-13 0 -22 9t-9 21q0 13 9 22t22 9
t21.5 -9t8.5 -21q0 -13 -9 -22t-21 -9zM317 -186q-13 0 -22 9t-9 21q0 13 9 22t22 9t21.5 -9t8.5 -21q0 -13 -9 -22t-21 -9z" />
    <glyph glyph-name="uni069D.medi" unicode="&#x69d;" horiz-adv-x="746" 
d="M746 -5q-34 0 -61.5 6t-51 19t-45.5 32l27 18q27 -21 58.5 -31.5t77.5 -10.5q13 0 17 -5t4 -11q0 -8 -6 -12.5t-20 -4.5zM369 -17q-42 0 -86 5.5t-81 19t-60.5 37.5t-26.5 62l11 1q-15 -49 -34.5 -73t-42.5 -32t-49 -8l4 33q23 0 39.5 6.5t30 30.5t28.5 72.5t33 131.5
l33 -9q-4 -18 -10.5 -42.5t-11 -48t-4.5 -42.5q0 -27 13.5 -47.5t42 -34.5t71.5 -21t101 -7q60 0 108.5 10.5t83 30.5t53 50.5t18.5 70.5q0 36 -13.5 62t-38 39.5t-57.5 13.5q-44 0 -87 -24t-81 -64.5t-68 -89t-48 -96.5l-32 8q27 67 63 122.5t77.5 95t86.5 61.5t91 22
q40 0 72 -17t50.5 -50t18.5 -80q0 -63 -35 -107.5t-101.5 -68t-161.5 -23.5zM419 -186q-13 0 -22 9t-9 21q0 13 9 22t22 9t21.5 -9t8.5 -21q0 -13 -9 -22t-21 -9zM317 -186q-13 0 -22 9t-9 21q0 13 9 22t22 9t21.5 -9t8.5 -21q0 -13 -9 -22t-21 -9z" />
    <glyph glyph-name="uni069D.fina" unicode="&#x69d;" horiz-adv-x="1065" 
d="M1065 -5q-33 0 -61 6t-51.5 19t-44.5 32l27 18q27 -21 58 -31.5t77 -10.5q13 0 17 -5t4 -11q0 -8 -6 -12.5t-20 -4.5zM231 -232q-40 0 -74.5 11.5t-60 36t-40 62.5t-14.5 91q0 23 4 50.5t16.5 63t36.5 81.5l29 -17q-16 -31 -27.5 -62t-17.5 -59t-6 -53q0 -62 21 -99.5
t56 -54.5t77 -17q54 0 88 17.5t53 48.5t26 71t7 86q0 55 -12.5 114t-28.5 119l35 10q9 -38 14.5 -64t10 -43.5t9.5 -30.5q9 -25 25.5 -45t44.5 -34.5t71 -22t105 -7.5q35 0 72.5 4t72 15t62 29.5t43.5 46.5t16 68q0 33 -12.5 59.5t-37.5 40.5t-60 14q-38 0 -78 -20t-78 -57
t-70.5 -87t-57.5 -111l-32 9q21 51 47 96.5t58 83t67 64.5t71.5 42t73.5 15q46 0 77.5 -19.5t48 -53t16.5 -74.5q0 -57 -26 -95.5t-70 -61t-97 -32.5t-107 -10q-64 0 -108 8t-73.5 22t-47 31.5t-30.5 37.5l19 -17q3 -67 -5.5 -122.5t-31.5 -95.5t-64.5 -61.5t-105.5 -21.5z
M741 -182q-13 0 -22 9t-9 21q0 13 9 22t22 9t21.5 -9t8.5 -21q0 -13 -9 -22t-21 -9zM639 -182q-13 0 -22 9t-9 21q0 13 9 22t22 9t21.5 -9t8.5 -21q0 -13 -9 -22t-21 -9z" />
    <glyph glyph-name="uni069E.init" unicode="&#x69e;" horiz-adv-x="711" 
d="M369 -17q-42 0 -86 5.5t-81 19t-60.5 37.5t-26.5 62l11 1q-15 -49 -34.5 -73t-42.5 -32t-49 -8l4 33q23 0 39.5 6.5t30 30.5t28.5 72.5t33 131.5l33 -9q-4 -18 -10.5 -42.5t-11 -48t-4.5 -42.5q0 -27 13.5 -47.5t42 -34.5t71.5 -21t101 -7q60 0 108.5 10.5t83 30.5
t53 50.5t18.5 70.5q0 36 -13.5 62t-38 39.5t-57.5 13.5q-44 0 -87 -24t-81 -64.5t-68 -89t-48 -96.5l-32 8q27 67 63 122.5t77.5 95t86.5 61.5t91 22q40 0 72 -17t50.5 -50t18.5 -80q0 -63 -35 -107.5t-101.5 -68t-161.5 -23.5zM498 546q-12 0 -21 9t-9 22t9 21.5t21 8.5
q13 0 22 -8.5t9 -21.5t-9 -22t-22 -9zM448 458q-12 0 -21.5 9t-9.5 21q0 13 9.5 22t21.5 9t21.5 -9t9.5 -22q0 -12 -9.5 -21t-21.5 -9zM549 458q-12 0 -21 9t-9 21q0 13 9 22t21 9q13 0 22 -9t9 -22q0 -12 -9 -21t-22 -9z" />
    <glyph glyph-name="uni069E.medi" unicode="&#x69e;" horiz-adv-x="746" 
d="M746 -5q-34 0 -61.5 6t-51 19t-45.5 32l27 18q27 -21 58.5 -31.5t77.5 -10.5q13 0 17 -5t4 -11q0 -8 -6 -12.5t-20 -4.5zM369 -17q-42 0 -86 5.5t-81 19t-60.5 37.5t-26.5 62l11 1q-15 -49 -34.5 -73t-42.5 -32t-49 -8l4 33q23 0 39.5 6.5t30 30.5t28.5 72.5t33 131.5
l33 -9q-4 -18 -10.5 -42.5t-11 -48t-4.5 -42.5q0 -27 13.5 -47.5t42 -34.5t71.5 -21t101 -7q60 0 108.5 10.5t83 30.5t53 50.5t18.5 70.5q0 36 -13.5 62t-38 39.5t-57.5 13.5q-44 0 -87 -24t-81 -64.5t-68 -89t-48 -96.5l-32 8q27 67 63 122.5t77.5 95t86.5 61.5t91 22
q40 0 72 -17t50.5 -50t18.5 -80q0 -63 -35 -107.5t-101.5 -68t-161.5 -23.5zM498 546q-12 0 -21 9t-9 22t9 21.5t21 8.5q13 0 22 -8.5t9 -21.5t-9 -22t-22 -9zM448 458q-12 0 -21.5 9t-9.5 21q0 13 9.5 22t21.5 9t21.5 -9t9.5 -22q0 -12 -9.5 -21t-21.5 -9zM549 458
q-12 0 -21 9t-9 21q0 13 9 22t21 9q13 0 22 -9t9 -22q0 -12 -9 -21t-22 -9z" />
    <glyph glyph-name="uni069E.fina" unicode="&#x69e;" horiz-adv-x="1065" 
d="M1065 -5q-33 0 -61 6t-51.5 19t-44.5 32l27 18q27 -21 58 -31.5t77 -10.5q13 0 17 -5t4 -11q0 -8 -6 -12.5t-20 -4.5zM231 -232q-40 0 -74.5 11.5t-60 36t-40 62.5t-14.5 91q0 23 4 50.5t16.5 63t36.5 81.5l29 -17q-16 -31 -27.5 -62t-17.5 -59t-6 -53q0 -62 21 -99.5
t56 -54.5t77 -17q54 0 88 17.5t53 48.5t26 71t7 86q0 55 -12.5 114t-28.5 119l35 10q9 -38 14.5 -64t10 -43.5t9.5 -30.5q9 -25 25.5 -45t44.5 -34.5t71 -22t105 -7.5q35 0 72.5 4t72 15t62 29.5t43.5 46.5t16 68q0 33 -12.5 59.5t-37.5 40.5t-60 14q-38 0 -78 -20t-78 -57
t-70.5 -87t-57.5 -111l-32 9q21 51 47 96.5t58 83t67 64.5t71.5 42t73.5 15q46 0 77.5 -19.5t48 -53t16.5 -74.5q0 -57 -26 -95.5t-70 -61t-97 -32.5t-107 -10q-64 0 -108 8t-73.5 22t-47 31.5t-30.5 37.5l19 -17q3 -67 -5.5 -122.5t-31.5 -95.5t-64.5 -61.5t-105.5 -21.5z
M807 550q-12 0 -21 9t-9 22t9 21.5t21 8.5q13 0 22 -8.5t9 -21.5t-9 -22t-22 -9zM757 462q-12 0 -21.5 9t-9.5 21q0 13 9.5 22t21.5 9t21.5 -9t9.5 -22q0 -12 -9.5 -21t-21.5 -9zM858 462q-12 0 -21 9t-9 21q0 13 9 22t21 9q13 0 22 -9t9 -22q0 -12 -9 -21t-22 -9z" />
    <glyph glyph-name="uni069F.init" unicode="&#x69f;" horiz-adv-x="563" 
d="M0 -5l5 33h218q59 0 107.5 9.5t83 28.5t53.5 48.5t19 69.5q0 31 -11.5 57t-35.5 41.5t-63 15.5q-44 0 -86 -24.5t-79 -65t-67 -89.5t-52 -96l-40 -9q29 64 64.5 121.5t77.5 102t88 70t95 25.5q46 0 78 -19.5t48 -53t16 -74.5q0 -61 -35.5 -105t-113.5 -66
q-30 -9 -73.5 -13.5t-88.5 -5.5t-82 -1h-126zM99 82l-18 628h34l17 -585zM341 550q-12 0 -21 9t-9 22t9 21.5t21 8.5q13 0 22 -8.5t9 -21.5t-9 -22t-22 -9zM291 462q-12 0 -21.5 9t-9.5 21q0 13 9.5 22t21.5 9t21.5 -9t9.5 -22q0 -12 -9.5 -21t-21.5 -9zM392 462
q-12 0 -21 9t-9 21q0 13 9 22t21 9q13 0 22 -9t9 -22q0 -12 -9 -21t-22 -9z" />
    <glyph glyph-name="uni069F.medi" unicode="&#x69f;" horiz-adv-x="575" 
d="M575 -5q-33 0 -61 6t-51.5 19t-44.5 32l27 18q27 -21 58 -31.5t77 -10.5q13 0 17 -5t4 -11q0 -8 -5.5 -12.5t-20.5 -4.5zM0 -5l5 33h218q59 0 107.5 9.5t83 28.5t53.5 48.5t19 69.5q0 31 -11.5 57t-35.5 41.5t-63 15.5q-44 0 -86 -24.5t-79 -65t-67 -89.5t-52 -96l-40 -9
q29 64 64.5 121.5t77.5 102t88 70t95 25.5q46 0 78 -19.5t48 -53t16 -74.5q0 -61 -35.5 -105t-113.5 -66q-30 -9 -73.5 -13.5t-88.5 -5.5t-82 -1h-126zM99 82l-18 628h34l17 -585zM341 550q-12 0 -21 9t-9 22t9 21.5t21 8.5q13 0 22 -8.5t9 -21.5t-9 -22t-22 -9zM291 462
q-12 0 -21.5 9t-9.5 21q0 13 9.5 22t21.5 9t21.5 -9t9.5 -22q0 -12 -9.5 -21t-21.5 -9zM392 462q-12 0 -21 9t-9 21q0 13 9 22t21 9q13 0 22 -9t9 -22q0 -12 -9 -21t-22 -9z" />
    <glyph glyph-name="uni069F.fina" unicode="&#x69f;" horiz-adv-x="672" 
d="M672 -5q-33 0 -61 6t-51.5 19t-44.5 32l27 18q27 -21 58 -31.5t77 -10.5q13 0 17 -5t4 -11q0 -8 -5.5 -12.5t-20.5 -4.5zM300 -13q-27 0 -64.5 2t-76.5 4.5t-72 6t-54 6.5l4 33q25 -3 59 -6.5t71.5 -6t74 -4t64.5 -1.5q52 0 98.5 9t82.5 28.5t56.5 50.5t20.5 75
q0 33 -12.5 58.5t-36.5 40.5t-61 15q-43 0 -85.5 -23.5t-80.5 -63t-68.5 -88.5t-49.5 -100l-39 -9q28 72 64.5 130t79 100.5t88 65.5t91.5 23q45 0 77 -19t49.5 -52t17.5 -76q0 -67 -38.5 -111.5t-105.5 -66t-154 -21.5zM178 77l-20 633h34l21 -589zM418 550q-12 0 -21 9
t-9 22t9 21.5t21 8.5q13 0 22 -8.5t9 -21.5t-9 -22t-22 -9zM368 462q-12 0 -21.5 9t-9.5 21q0 13 9.5 22t21.5 9t21.5 -9t9.5 -22q0 -12 -9.5 -21t-21.5 -9zM469 462q-12 0 -21 9t-9 21q0 13 9 22t21 9q13 0 22 -9t9 -22q0 -12 -9 -21t-22 -9z" />
    <glyph glyph-name="uni06A0.init" unicode="&#x6a0;" horiz-adv-x="368" 
d="M0 -5l4 33q38 0 70 2.5t63.5 7.5t64.5 13q-37 15 -70.5 43t-54.5 66.5t-21 83.5q0 46 19 82t56.5 57t89.5 21q16 0 34.5 -3t38.5 -10l-7 -31q-18 6 -34.5 8t-32.5 2q-40 0 -69.5 -16.5t-45.5 -44.5t-16 -64q0 -29 10 -54t27 -45t38 -36t43.5 -27t42.5 -17q10 2 16.5 3.5
t14 4t20 7t34.5 13.5l12 -31q-60 -25 -114.5 -40t-111 -21.5t-121.5 -6.5zM202 621q-12 0 -21 9t-9 22t9 21.5t21 8.5q13 0 22 -8.5t9 -21.5t-9 -22t-22 -9zM152 533q-12 0 -21.5 9t-9.5 21q0 13 9.5 22t21.5 9t21.5 -9t9.5 -22q0 -12 -9.5 -21t-21.5 -9zM253 533
q-12 0 -21 9t-9 21q0 13 9 22t21 9q13 0 22 -9t9 -22q0 -12 -9 -21t-22 -9z" />
    <glyph glyph-name="uni06A0.medi" unicode="&#x6a0;" horiz-adv-x="385" 
d="M0 -5l5 33q41 0 82 16t77.5 43t65.5 60.5t45 69t16 68.5q0 18 -9 34t-28.5 26t-51.5 10q-26 0 -51 -9.5t-44 -24.5t-30 -31q21 -26 42.5 -56t42.5 -62.5t40 -67.5q16 -22 34 -36.5t39.5 -23t49.5 -12.5t65 -4q9 0 15 -3.5t6 -12.5t-6.5 -13t-19.5 -4q-51 0 -88.5 9
t-66.5 29t-55 53q-22 44 -46 79.5t-43.5 61.5t-29.5 39q0 1 -1.5 6l-3 10t-1.5 7q0 14 13 31.5t35 33t49 25.5t56 10q38 0 65 -10.5t42 -32.5t15 -55q0 -39 -17.5 -81t-49.5 -80t-73.5 -69t-88.5 -48.5t-96 -17.5zM205 606q-12 0 -21 9t-9 22t9 21.5t21 8.5q13 0 22 -8.5
t9 -21.5t-9 -22t-22 -9zM155 518q-12 0 -21.5 9t-9.5 21q0 13 9.5 22t21.5 9t21.5 -9t9.5 -22q0 -12 -9.5 -21t-21.5 -9zM256 518q-12 0 -21 9t-9 21q0 13 9 22t21 9q13 0 22 -9t9 -22q0 -12 -9 -21t-22 -9z" />
    <glyph glyph-name="uni06A0.fina" unicode="&#x6a0;" horiz-adv-x="401" 
d="M248 -390q-33 0 -73 9t-77 31.5t-60.5 63.5t-23.5 105q0 53 21.5 98t54.5 83.5t71 74t71 69t54.5 68.5t21.5 73q0 20 -9.5 35.5t-29 25t-49.5 9.5q-28 0 -52.5 -9.5t-43.5 -24.5t-30 -31q18 -22 39 -51t43 -63t42 -71q18 -22 37.5 -37t42.5 -24t50 -12.5t58 -3.5
q7 0 14 -3t7 -13t-7 -13.5t-19 -3.5q-41 0 -78.5 8t-71 28t-61.5 57q-16 34 -39 69t-44 64t-33 44q-1 2 -2.5 6.5t-3 10t-1.5 7.5q0 14 13 31t35 33t49.5 26t56.5 10q59 0 90 -26t31 -72q0 -45 -21.5 -83.5t-54.5 -74t-71 -70.5t-71.5 -72.5t-54.5 -78.5t-21 -89
q0 -47 16 -81t44 -55.5t65 -32t79 -10.5q29 0 55.5 2.5t53 9.5t55.5 19l11 -28q-32 -14 -62 -22t-58.5 -11.5t-58.5 -3.5zM224 606q-12 0 -21 9t-9 22t9 21.5t21 8.5q13 0 22 -8.5t9 -21.5t-9 -22t-22 -9zM174 518q-12 0 -21.5 9t-9.5 21q0 13 9.5 22t21.5 9t21.5 -9
t9.5 -22q0 -12 -9.5 -21t-21.5 -9zM275 518q-12 0 -21 9t-9 21q0 13 9 22t21 9q13 0 22 -9t9 -22q0 -12 -9 -21t-22 -9z" />
    <glyph glyph-name="uni06A1.init" unicode="&#x6a1;" horiz-adv-x="367" 
d="M0 -5l5 33q28 0 57.5 1.5t57.5 5.5t53 11.5t45 19.5q18 11 34.5 30.5t26.5 55.5t10 93q0 49 -10.5 96.5t-31 78t-53.5 30.5q-26 0 -47 -24.5t-33 -61.5t-12 -78q0 -38 14.5 -59t37.5 -29t47 -8q22 0 48.5 6.5t46.5 17.5l4 -30q-14 -10 -34.5 -16t-39.5 -8.5t-30 -2.5
q-36 0 -65 13.5t-46 42t-17 70.5q0 34 9 69.5t25.5 65.5t40.5 48.5t56 18.5q41 0 68.5 -34t41.5 -90t14 -122q0 -62 -17.5 -112t-64.5 -83q-19 -13 -43.5 -22.5t-55 -15.5t-66 -8.5t-76.5 -2.5z" />
    <glyph glyph-name="uni06A1.medi" unicode="&#x6a1;" horiz-adv-x="350" 
d="M0 -5l5 33q20 0 41.5 2t42 7.5t40 13t37.5 18.5q31 17 54 41t36.5 54t13.5 63q0 29 -9.5 59t-28.5 51t-48 21q-24 0 -46 -18.5t-35.5 -48.5t-13.5 -66q0 -37 13.5 -68t37 -53.5t51.5 -36.5l-38 -13q-21 14 -43.5 37t-38 56.5t-15.5 77.5q0 34 10 63.5t28 53t41.5 36.5
t49.5 13q36 0 62.5 -22.5t41 -59t14.5 -77.5q0 -30 -8.5 -57t-23.5 -51t-35.5 -44t-45.5 -36q-21 -13 -44 -22.5t-47.5 -15.5t-49.5 -8.5t-49 -2.5zM350 -5q-25 0 -61.5 7t-71.5 19t-56 26l33 17q20 -9 46 -17t56 -13.5t60 -5.5q9 0 14.5 -3.5t5.5 -12.5q0 -8 -6 -12.5
t-20 -4.5z" />
    <glyph glyph-name="uni06A1.fina" unicode="&#x6a1;" horiz-adv-x="824" 
d="M289 -21l11 33q49 0 96.5 4t91 11t80.5 17.5t65 25.5q37 20 62 43t37 50t12 60q0 23 -5 47t-16 44t-27 32t-38 12q-26 0 -48 -19.5t-34.5 -52t-12.5 -70.5q0 -37 14 -65.5t37.5 -49t49.5 -33.5l-39 -14q-20 14 -42 35t-37.5 52.5t-15.5 74.5q0 35 9.5 66t27 56t41 39
t51.5 14q36 0 62 -22.5t41 -60.5t15 -85q0 -27 -7.5 -51t-22 -46t-36.5 -41t-50 -36q-31 -18 -72 -31.5t-90 -22t-102 -12.5t-108 -4zM824 -5q-33 0 -66.5 6.5t-65.5 18t-58 27.5l34 17q19 -9 44 -17t54.5 -13.5t62.5 -5.5q10 0 15.5 -3.5t5.5 -12.5q0 -8 -6 -12.5t-20 -4.5
zM290 -21q-56 0 -102 11.5t-79.5 34.5t-52 57.5t-18.5 82.5q0 24 4 50.5t10 52t12 47.5l31 -9q-5 -18 -10 -41.5t-9 -48t-4 -47.5q0 -52 25.5 -87t76.5 -52.5t126 -17.5l20 -19z" />
    <glyph glyph-name="fehDotMovedbelowar.init" unicode="&#x6a2;" horiz-adv-x="367" 
d="M0 -5l5 33q28 0 57.5 1.5t57.5 5.5t53 11.5t45 19.5q18 11 34.5 30.5t26.5 55.5t10 93q0 49 -10.5 96.5t-31 78t-53.5 30.5q-26 0 -47 -24.5t-33 -61.5t-12 -78q0 -38 14.5 -59t37.5 -29t47 -8q22 0 48.5 6.5t46.5 17.5l4 -30q-14 -10 -34.5 -16t-39.5 -8.5t-30 -2.5
q-36 0 -65 13.5t-46 42t-17 70.5q0 34 9 69.5t25.5 65.5t40.5 48.5t56 18.5q41 0 68.5 -34t41.5 -90t14 -122q0 -62 -17.5 -112t-64.5 -83q-19 -13 -43.5 -22.5t-55 -15.5t-66 -8.5t-76.5 -2.5zM174 -194q-13 0 -22.5 9t-9.5 21q0 13 9.5 22t22.5 9q12 0 21 -9t9 -22
q0 -12 -9 -21t-21 -9z" />
    <glyph glyph-name="fehDotMovedbelowar.medi" unicode="&#x6a2;" horiz-adv-x="350" 
d="M0 -5l5 33q20 0 41.5 2t42 7.5t40 13t37.5 18.5q31 17 54 41t36.5 54t13.5 63q0 29 -9.5 59t-28.5 51t-48 21q-24 0 -46 -18.5t-35.5 -48.5t-13.5 -66q0 -37 13.5 -68t37 -53.5t51.5 -36.5l-38 -13q-21 14 -43.5 37t-38 56.5t-15.5 77.5q0 34 10 63.5t28 53t41.5 36.5
t49.5 13q36 0 62.5 -22.5t41 -59t14.5 -77.5q0 -30 -8.5 -57t-23.5 -51t-35.5 -44t-45.5 -36q-21 -13 -44 -22.5t-47.5 -15.5t-49.5 -8.5t-49 -2.5zM350 -5q-25 0 -61.5 7t-71.5 19t-56 26l33 17q20 -9 46 -17t56 -13.5t60 -5.5q9 0 14.5 -3.5t5.5 -12.5q0 -8 -6 -12.5
t-20 -4.5zM178 -195q-13 0 -22.5 9t-9.5 21q0 13 9.5 22t22.5 9q12 0 21 -9t9 -22q0 -12 -9 -21t-21 -9z" />
    <glyph glyph-name="fehDotMovedbelowar.fina" unicode="&#x6a2;" horiz-adv-x="824" 
d="M289 -21l11 33q49 0 96.5 4t91 11t80.5 17.5t65 25.5q37 20 62 43t37 50t12 60q0 23 -5 47t-16 44t-27 32t-38 12q-26 0 -48 -19.5t-34.5 -52t-12.5 -70.5q0 -37 14 -65.5t37.5 -49t49.5 -33.5l-39 -14q-20 14 -42 35t-37.5 52.5t-15.5 74.5q0 35 9.5 66t27 56t41 39
t51.5 14q36 0 62 -22.5t41 -60.5t15 -85q0 -27 -7.5 -51t-22 -46t-36.5 -41t-50 -36q-31 -18 -72 -31.5t-90 -22t-102 -12.5t-108 -4zM824 -5q-33 0 -66.5 6.5t-65.5 18t-58 27.5l34 17q19 -9 44 -17t54.5 -13.5t62.5 -5.5q10 0 15.5 -3.5t5.5 -12.5q0 -8 -6 -12.5t-20 -4.5
zM290 -21q-56 0 -102 11.5t-79.5 34.5t-52 57.5t-18.5 82.5q0 24 4 50.5t10 52t12 47.5l31 -9q-5 -18 -10 -41.5t-9 -48t-4 -47.5q0 -52 25.5 -87t76.5 -52.5t126 -17.5l20 -19zM332 -194q-13 0 -22.5 9t-9.5 21q0 13 9.5 22t22.5 9q12 0 21 -9t9 -22q0 -12 -9 -21t-21 -9z
" />
    <glyph glyph-name="uni06A3.init" unicode="&#x6a3;" horiz-adv-x="367" 
d="M0 -5l5 33q28 0 57.5 1.5t57.5 5.5t53 11.5t45 19.5q18 11 34.5 30.5t26.5 55.5t10 93q0 49 -10.5 96.5t-31 78t-53.5 30.5q-26 0 -47 -24.5t-33 -61.5t-12 -78q0 -38 14.5 -59t37.5 -29t47 -8q22 0 48.5 6.5t46.5 17.5l4 -30q-14 -10 -34.5 -16t-39.5 -8.5t-30 -2.5
q-36 0 -65 13.5t-46 42t-17 70.5q0 34 9 69.5t25.5 65.5t40.5 48.5t56 18.5q41 0 68.5 -34t41.5 -90t14 -122q0 -62 -17.5 -112t-64.5 -83q-19 -13 -43.5 -22.5t-55 -15.5t-66 -8.5t-76.5 -2.5zM187 614q-13 0 -22.5 8.5t-9.5 21.5q0 12 9.5 21.5t22.5 9.5q12 0 21 -9.5
t9 -21.5q0 -13 -9 -21.5t-21 -8.5zM174 -194q-13 0 -22.5 9t-9.5 21q0 13 9.5 22t22.5 9q12 0 21 -9t9 -22q0 -12 -9 -21t-21 -9z" />
    <glyph glyph-name="uni06A3.medi" unicode="&#x6a3;" horiz-adv-x="350" 
d="M0 -5l5 33q20 0 41.5 2t42 7.5t40 13t37.5 18.5q31 17 54 41t36.5 54t13.5 63q0 29 -9.5 59t-28.5 51t-48 21q-24 0 -46 -18.5t-35.5 -48.5t-13.5 -66q0 -37 13.5 -68t37 -53.5t51.5 -36.5l-38 -13q-21 14 -43.5 37t-38 56.5t-15.5 77.5q0 34 10 63.5t28 53t41.5 36.5
t49.5 13q36 0 62.5 -22.5t41 -59t14.5 -77.5q0 -30 -8.5 -57t-23.5 -51t-35.5 -44t-45.5 -36q-21 -13 -44 -22.5t-47.5 -15.5t-49.5 -8.5t-49 -2.5zM350 -5q-25 0 -61.5 7t-71.5 19t-56 26l33 17q20 -9 46 -17t56 -13.5t60 -5.5q9 0 14.5 -3.5t5.5 -12.5q0 -8 -6 -12.5
t-20 -4.5zM185 520q-13 0 -22.5 8.5t-9.5 21.5q0 12 9.5 21.5t22.5 9.5q12 0 21 -9.5t9 -21.5q0 -13 -9 -21.5t-21 -8.5zM178 -195q-13 0 -22.5 9t-9.5 21q0 13 9.5 22t22.5 9q12 0 21 -9t9 -22q0 -12 -9 -21t-21 -9z" />
    <glyph glyph-name="uni06A3.fina" unicode="&#x6a3;" horiz-adv-x="824" 
d="M289 -21l11 33q49 0 96.5 4t91 11t80.5 17.5t65 25.5q37 20 62 43t37 50t12 60q0 23 -5 47t-16 44t-27 32t-38 12q-26 0 -48 -19.5t-34.5 -52t-12.5 -70.5q0 -37 14 -65.5t37.5 -49t49.5 -33.5l-39 -14q-20 14 -42 35t-37.5 52.5t-15.5 74.5q0 35 9.5 66t27 56t41 39
t51.5 14q36 0 62 -22.5t41 -60.5t15 -85q0 -27 -7.5 -51t-22 -46t-36.5 -41t-50 -36q-31 -18 -72 -31.5t-90 -22t-102 -12.5t-108 -4zM824 -5q-33 0 -66.5 6.5t-65.5 18t-58 27.5l34 17q19 -9 44 -17t54.5 -13.5t62.5 -5.5q10 0 15.5 -3.5t5.5 -12.5q0 -8 -6 -12.5t-20 -4.5
zM290 -21q-56 0 -102 11.5t-79.5 34.5t-52 57.5t-18.5 82.5q0 24 4 50.5t10 52t12 47.5l31 -9q-5 -18 -10 -41.5t-9 -48t-4 -47.5q0 -52 25.5 -87t76.5 -52.5t126 -17.5l20 -19zM660 520q-13 0 -22.5 8.5t-9.5 21.5q0 12 9.5 21.5t22.5 9.5q12 0 21 -9.5t9 -21.5
q0 -13 -9 -21.5t-21 -8.5zM332 -194q-13 0 -22.5 9t-9.5 21q0 13 9.5 22t22.5 9q12 0 21 -9t9 -22q0 -12 -9 -21t-21 -9z" />
    <glyph glyph-name="uni06A5.init" unicode="&#x6a5;" horiz-adv-x="367" 
d="M0 -5l5 33q28 0 57.5 1.5t57.5 5.5t53 11.5t45 19.5q18 11 34.5 30.5t26.5 55.5t10 93q0 49 -10.5 96.5t-31 78t-53.5 30.5q-26 0 -47 -24.5t-33 -61.5t-12 -78q0 -38 14.5 -59t37.5 -29t47 -8q22 0 48.5 6.5t46.5 17.5l4 -30q-14 -10 -34.5 -16t-39.5 -8.5t-30 -2.5
q-36 0 -65 13.5t-46 42t-17 70.5q0 34 9 69.5t25.5 65.5t40.5 48.5t56 18.5q41 0 68.5 -34t41.5 -90t14 -122q0 -62 -17.5 -112t-64.5 -83q-19 -13 -43.5 -22.5t-55 -15.5t-66 -8.5t-76.5 -2.5zM174 -283q-13 0 -22 9t-9 21q0 13 9 22t22 9q12 0 21 -9t9 -22q0 -12 -9 -21
t-21 -9zM123 -194q-13 0 -22.5 8.5t-9.5 21.5q0 12 9 21.5t23 9.5q12 0 21 -9.5t9 -21.5q0 -13 -9 -21.5t-21 -8.5zM224 -194q-13 0 -22 8.5t-9 21.5q0 12 9 21.5t22 9.5t21.5 -9.5t8.5 -21.5q0 -13 -8.5 -21.5t-21.5 -8.5z" />
    <glyph glyph-name="uni06A5.medi" unicode="&#x6a5;" horiz-adv-x="350" 
d="M0 -5l5 33q20 0 41.5 2t42 7.5t40 13t37.5 18.5q31 17 54 41t36.5 54t13.5 63q0 29 -9.5 59t-28.5 51t-48 21q-24 0 -46 -18.5t-35.5 -48.5t-13.5 -66q0 -37 13.5 -68t37 -53.5t51.5 -36.5l-38 -13q-21 14 -43.5 37t-38 56.5t-15.5 77.5q0 34 10 63.5t28 53t41.5 36.5
t49.5 13q36 0 62.5 -22.5t41 -59t14.5 -77.5q0 -30 -8.5 -57t-23.5 -51t-35.5 -44t-45.5 -36q-21 -13 -44 -22.5t-47.5 -15.5t-49.5 -8.5t-49 -2.5zM350 -5q-25 0 -61.5 7t-71.5 19t-56 26l33 17q20 -9 46 -17t56 -13.5t60 -5.5q9 0 14.5 -3.5t5.5 -12.5q0 -8 -6 -12.5
t-20 -4.5zM177 -284q-13 0 -22 9t-9 21q0 13 9 22t22 9q12 0 21 -9t9 -22q0 -12 -9 -21t-21 -9zM126 -195q-13 0 -22.5 8.5t-9.5 21.5q0 12 9 21.5t23 9.5q12 0 21 -9.5t9 -21.5q0 -13 -9 -21.5t-21 -8.5zM227 -195q-13 0 -22 8.5t-9 21.5q0 12 9 21.5t22 9.5t21.5 -9.5
t8.5 -21.5q0 -13 -8.5 -21.5t-21.5 -8.5z" />
    <glyph glyph-name="uni06A5.fina" unicode="&#x6a5;" horiz-adv-x="824" 
d="M289 -21l11 33q49 0 96.5 4t91 11t80.5 17.5t65 25.5q37 20 62 43t37 50t12 60q0 23 -5 47t-16 44t-27 32t-38 12q-26 0 -48 -19.5t-34.5 -52t-12.5 -70.5q0 -37 14 -65.5t37.5 -49t49.5 -33.5l-39 -14q-20 14 -42 35t-37.5 52.5t-15.5 74.5q0 35 9.5 66t27 56t41 39
t51.5 14q36 0 62 -22.5t41 -60.5t15 -85q0 -27 -7.5 -51t-22 -46t-36.5 -41t-50 -36q-31 -18 -72 -31.5t-90 -22t-102 -12.5t-108 -4zM824 -5q-33 0 -66.5 6.5t-65.5 18t-58 27.5l34 17q19 -9 44 -17t54.5 -13.5t62.5 -5.5q10 0 15.5 -3.5t5.5 -12.5q0 -8 -6 -12.5t-20 -4.5
zM290 -21q-56 0 -102 11.5t-79.5 34.5t-52 57.5t-18.5 82.5q0 24 4 50.5t10 52t12 47.5l31 -9q-5 -18 -10 -41.5t-9 -48t-4 -47.5q0 -52 25.5 -87t76.5 -52.5t126 -17.5l20 -19zM332 -284q-13 0 -22 9t-9 21q0 13 9 22t22 9q12 0 21 -9t9 -22q0 -12 -9 -21t-21 -9zM281 -195
q-13 0 -22.5 8.5t-9.5 21.5q0 12 9 21.5t23 9.5q12 0 21 -9.5t9 -21.5q0 -13 -9 -21.5t-21 -8.5zM382 -195q-13 0 -22 8.5t-9 21.5q0 12 9 21.5t22 9.5t21.5 -9.5t8.5 -21.5q0 -13 -8.5 -21.5t-21.5 -8.5z" />
    <glyph glyph-name="uni06A7.fina" unicode="&#x6a7;" horiz-adv-x="702" 
d="M296 -272q-53 0 -99.5 13.5t-82 41t-56 72t-20.5 105.5q0 11 3 40t15 70.5t39 88.5l30 -14q-14 -25 -26 -53t-19.5 -60t-7.5 -68q0 -76 33 -120t85.5 -63t111.5 -19q30 0 64.5 4.5t69 16t65 33t54 55.5t34.5 82q7 22 10.5 50.5t3.5 57.5q0 62 -11 111.5t-32 79t-51 29.5
q-22 0 -39 -15t-29 -40t-18.5 -54t-6.5 -57q0 -29 9 -46.5t26.5 -26.5t41.5 -11.5t54 -2.5h160q10 0 15.5 -3.5t5.5 -12.5t-6.5 -13t-19.5 -4h-160q-30 0 -59 5t-51.5 17.5t-36 35t-13.5 57.5q0 34 8.5 70t24.5 67t41 50t57 19q41 0 68.5 -34t41.5 -91.5t14 -129.5
q0 -36 -5 -69t-13 -59q-18 -64 -53.5 -104.5t-81 -62t-94.5 -30t-94 -8.5zM514 445q-13 0 -22.5 8.5t-9.5 21.5q0 12 9.5 21.5t22.5 9.5q12 0 21 -9.5t9 -21.5q0 -13 -9 -21.5t-21 -8.5z" />
    <glyph glyph-name="uni06A8.init" unicode="&#x6a8;" horiz-adv-x="367" 
d="M0 -5l5 33q28 0 57.5 1.5t57.5 5.5t53 11.5t45 19.5q18 11 34.5 30.5t26.5 55.5t10 93q0 49 -10.5 96.5t-31 78t-53.5 30.5q-26 0 -47 -24.5t-33 -61.5t-12 -78q0 -38 14.5 -59t37.5 -29t47 -8q22 0 48.5 6.5t46.5 17.5l4 -30q-14 -10 -34.5 -16t-39.5 -8.5t-30 -2.5
q-36 0 -65 13.5t-46 42t-17 70.5q0 34 9 69.5t25.5 65.5t40.5 48.5t56 18.5q41 0 68.5 -34t41.5 -90t14 -122q0 -62 -17.5 -112t-64.5 -83q-19 -13 -43.5 -22.5t-55 -15.5t-66 -8.5t-76.5 -2.5zM188 702q-12 0 -21 9t-9 22t9 21.5t21 8.5q13 0 22 -8.5t9 -21.5t-9 -22
t-22 -9zM138 614q-12 0 -21.5 9t-9.5 21q0 13 9.5 22t21.5 9t21.5 -9t9.5 -22q0 -12 -9.5 -21t-21.5 -9zM239 614q-12 0 -21 9t-9 21q0 13 9 22t21 9q13 0 22 -9t9 -22q0 -12 -9 -21t-22 -9z" />
    <glyph glyph-name="uni06A8.medi" unicode="&#x6a8;" horiz-adv-x="350" 
d="M0 -5l5 33q20 0 41.5 2t42 7.5t40 13t37.5 18.5q31 17 54 41t36.5 54t13.5 63q0 29 -9.5 59t-28.5 51t-48 21q-24 0 -46 -18.5t-35.5 -48.5t-13.5 -66q0 -37 13.5 -68t37 -53.5t51.5 -36.5l-38 -13q-21 14 -43.5 37t-38 56.5t-15.5 77.5q0 34 10 63.5t28 53t41.5 36.5
t49.5 13q36 0 62.5 -22.5t41 -59t14.5 -77.5q0 -30 -8.5 -57t-23.5 -51t-35.5 -44t-45.5 -36q-21 -13 -44 -22.5t-47.5 -15.5t-49.5 -8.5t-49 -2.5zM350 -5q-25 0 -61.5 7t-71.5 19t-56 26l33 17q20 -9 46 -17t56 -13.5t60 -5.5q9 0 14.5 -3.5t5.5 -12.5q0 -8 -6 -12.5
t-20 -4.5zM186 608q-12 0 -21 9t-9 22t9 21.5t21 8.5q13 0 22 -8.5t9 -21.5t-9 -22t-22 -9zM136 520q-12 0 -21.5 9t-9.5 21q0 13 9.5 22t21.5 9t21.5 -9t9.5 -22q0 -12 -9.5 -21t-21.5 -9zM237 520q-12 0 -21 9t-9 21q0 13 9 22t21 9q13 0 22 -9t9 -22q0 -12 -9 -21t-22 -9
z" />
    <glyph glyph-name="uni06A8.fina" unicode="&#x6a8;" horiz-adv-x="702" 
d="M296 -272q-53 0 -99.5 13.5t-82 41t-56 72t-20.5 105.5q0 11 3 40t15 70.5t39 88.5l30 -14q-14 -25 -26 -53t-19.5 -60t-7.5 -68q0 -76 33 -120t85.5 -63t111.5 -19q30 0 64.5 4.5t69 16t65 33t54 55.5t34.5 82q7 22 10.5 50.5t3.5 57.5q0 62 -11 111.5t-32 79t-51 29.5
q-22 0 -39 -15t-29 -40t-18.5 -54t-6.5 -57q0 -29 9 -46.5t26.5 -26.5t41.5 -11.5t54 -2.5h160q10 0 15.5 -3.5t5.5 -12.5t-6.5 -13t-19.5 -4h-160q-30 0 -59 5t-51.5 17.5t-36 35t-13.5 57.5q0 34 8.5 70t24.5 67t41 50t57 19q41 0 68.5 -34t41.5 -91.5t14 -129.5
q0 -36 -5 -69t-13 -59q-18 -64 -53.5 -104.5t-81 -62t-94.5 -30t-94 -8.5zM514 533q-12 0 -21 9t-9 22t9 21.5t21 8.5q13 0 22 -8.5t9 -21.5t-9 -22t-22 -9zM464 445q-12 0 -21.5 9t-9.5 21q0 13 9.5 22t21.5 9t21.5 -9t9.5 -22q0 -12 -9.5 -21t-21.5 -9zM565 445
q-12 0 -21 9t-9 21q0 13 9 22t21 9q13 0 22 -9t9 -22q0 -12 -9 -21t-22 -9z" />
    <glyph glyph-name="uni06AA.init" unicode="&#x6aa;" horiz-adv-x="688" 
d="M0 -5l5 33h250q81 0 145 6t108.5 18t67.5 31.5t23 45.5q0 18 -9 34.5t-32 31t-64 27t-106 22.5q-90 13 -145.5 23t-81 27t-26.5 50q0 37 26.5 70.5t71 62.5t99 53t110.5 41l8 -32q-95 -29 -157.5 -63.5t-93 -67.5t-30.5 -60q0 -21 22 -32.5t71 -19.5t128 -20
q50 -6 93 -17t76.5 -27t52 -40t18.5 -59q0 -43 -31 -70.5t-84 -42t-120 -20t-139 -5.5h-256z" />
    <glyph glyph-name="uni06AA.medi" unicode="&#x6aa;" horiz-adv-x="718" 
d="M718 -5q-33 0 -61 6t-51.5 19t-44.5 32l27 18q26 -21 57.5 -31.5t77.5 -10.5q13 0 17 -5t4 -11q0 -8 -6 -12.5t-20 -4.5zM0 -5l5 33h250q81 0 145 6t108.5 18t67.5 31.5t23 45.5q0 18 -9 34.5t-32 31t-64 27t-106 22.5q-90 13 -145.5 23t-81 27t-26.5 50q0 37 26.5 70.5
t71 62.5t99 53t110.5 41l8 -32q-95 -29 -157.5 -63.5t-93 -67.5t-30.5 -60q0 -21 22 -32.5t71 -19.5t128 -20q50 -6 93 -17t76.5 -27t52 -40t18.5 -59q0 -43 -31 -70.5t-84 -42t-120 -20t-139 -5.5h-256z" />
    <glyph glyph-name="uni06AA.fina" unicode="&#x6aa;" horiz-adv-x="933" 
d="M933 -5q-34 0 -61.5 6t-51 19t-45.5 32l27 18q27 -21 58.5 -31.5t77.5 -10.5q13 0 17 -5t4 -11q0 -8 -6 -12.5t-20 -4.5zM471 -15q-29 0 -77.5 1t-107 3t-116.5 5.5t-107 9.5l3 32q49 -5 107.5 -8.5t116 -5.5t105.5 -3.5t75 -1.5q81 0 144.5 8t108.5 22t68 35t23 47
q0 18 -9 34.5t-32 31t-64 27t-106 22.5q-90 13 -145.5 23t-81 27t-26.5 50q0 37 26.5 70.5t70.5 62.5t99 53t111 41l8 -32q-95 -29 -157.5 -63.5t-93 -67.5t-30.5 -60q0 -21 22 -32.5t70.5 -19.5t128.5 -20q50 -6 93 -17t76.5 -27t52 -40t18.5 -59q0 -43 -31 -72t-84 -45.5
t-120 -23.5t-139 -7z" />
    <glyph glyph-name="uni06AB.init" unicode="&#x6ab;" horiz-adv-x="327" 
d="M252 511q-29 0 -50 21t-21 50q0 30 21 50.5t50 20.5t50.5 -20.5t21.5 -50.5q0 -29 -21.5 -50t-50.5 -21zM252 535q19 0 33 14t14 33t-14 33t-33 14t-32.5 -14t-13.5 -33t13.5 -33t32.5 -14zM0 -5l5 33h78q51 0 80.5 10.5t43.5 28.5t17.5 39t3.5 41q0 42 -21 88.5
t-62 97.5q-38 48 -61 76.5t-35.5 43.5t-17 21.5t-4.5 10.5q0 9 2.5 16.5t6 14.5t7.5 10q25 20 51.5 41.5t58 44t70.5 48t88 55.5l17 -28q-45 -28 -85 -54t-74.5 -51t-64.5 -48.5t-55 -44.5l1 15q37 -48 74 -92.5t67.5 -87.5t50 -87t19.5 -93q0 -29 -7.5 -55.5t-27.5 -48
t-56 -33.5t-91 -12h-79z" />
    <glyph glyph-name="uni06AB.medi" unicode="&#x6ab;" horiz-adv-x="388" 
d="M251 509q-30 0 -50.5 21t-20.5 50q0 30 20.5 50.5t50.5 20.5q29 0 50 -20.5t21 -50.5q0 -29 -21 -50t-50 -21zM251 533q19 0 33 14t14 33t-14 33t-33 14t-32.5 -14t-13.5 -33t13.5 -33t32.5 -14zM0 -5l5 33h78q51 0 83 12t47.5 38t15.5 69q0 32 -14.5 67t-37 70.5
t-48 68.5t-48.5 60.5t-37.5 46t-14.5 25.5q0 10 2 17.5t6 14t8 10.5q23 21 53.5 44t65 47t72 48.5t75.5 48.5l17 -29q-39 -24 -78.5 -50t-76.5 -52t-68 -50t-53 -44l2 10q24 -34 52 -67.5t57 -71t53.5 -81t41.5 -96.5q17 -51 36.5 -85.5t44 -52.5t55.5 -18q9 0 14.5 -3.5
t5.5 -12.5q0 -8 -6 -12.5t-20 -4.5q-31 0 -60 18.5t-51 53t-35 83.5l17 -12q-1 -42 -15.5 -70t-39 -44t-56 -22.5t-66.5 -6.5h-82z" />
    <glyph glyph-name="uni06AB.fina" unicode="&#x6ab;" horiz-adv-x="785" 
d="M640 509q-30 0 -50.5 21.5t-20.5 50.5t20.5 50t50.5 21q29 0 50 -21t21 -50t-21 -50.5t-50 -21.5zM640 534q18 0 32 14t14 33t-14 33t-32 14q-19 0 -32.5 -14t-13.5 -33t13.5 -33t32.5 -14zM290 -21l10 33q72 0 131.5 6.5t103 21.5t66.5 40.5t23 63.5q0 31 -15 66.5
t-38.5 71t-50 68.5t-50 61t-38.5 47.5t-15 26.5q0 9 2 16.5t5.5 14.5t8.5 11q32 26 73.5 57t90.5 64.5t102 66.5l17 -28q-55 -35 -108.5 -72t-97 -69.5t-72.5 -57.5l3 12q24 -32 55.5 -69t62.5 -78.5t57 -84.5t39 -86q7 -22 17.5 -48t26.5 -50.5t38 -40t53 -15.5
q10 0 15.5 -3.5t5.5 -12.5q0 -8 -6 -12.5t-20 -4.5q-33 0 -61.5 18t-50.5 53t-36 84l19 -12q-3 -47 -29.5 -77.5t-74.5 -48.5t-114 -25.5t-148 -7.5zM290 -21q-56 0 -102 11.5t-79.5 34.5t-52 57.5t-18.5 82.5q0 24 4 50.5t10 52t12 47.5l31 -9q-5 -18 -10 -41.5t-9 -48
t-4 -47.5q0 -52 25.5 -87t76.5 -52.5t126 -17.5l20 -19z" />
    <glyph glyph-name="uni06AC.init" unicode="&#x6ac;" horiz-adv-x="327" 
d="M0 -5l5 33h78q51 0 80.5 10.5t43.5 28.5t17.5 39t3.5 41q0 42 -21 88.5t-62 97.5q-38 48 -61 76.5t-35.5 43.5t-17 21.5t-4.5 10.5q0 9 2.5 16.5t6 14.5t7.5 10q25 20 51.5 41.5t58 44t70.5 48t88 55.5l17 -28q-45 -28 -85 -54t-74.5 -51t-64.5 -48.5t-55 -44.5l1 15
q37 -48 74 -92.5t67.5 -87.5t50 -87t19.5 -93q0 -29 -7.5 -55.5t-27.5 -48t-56 -33.5t-91 -12h-79zM150 754q-13 0 -22.5 8.5t-9.5 21.5q0 12 9.5 21.5t22.5 9.5q12 0 21 -9.5t9 -21.5q0 -13 -9 -21.5t-21 -8.5z" />
    <glyph glyph-name="uni06AC.medi" unicode="&#x6ac;" horiz-adv-x="388" 
d="M0 -5l5 33h78q51 0 83 12t47.5 38t15.5 69q0 32 -14.5 67t-37 70.5t-48 68.5t-48.5 60.5t-37.5 46t-14.5 25.5q0 10 2 17.5t6 14t8 10.5q23 21 53.5 44t65 47t72 48.5t75.5 48.5l17 -29q-39 -24 -78.5 -50t-76.5 -52t-68 -50t-53 -44l2 10q24 -34 52 -67.5t57 -71
t53.5 -81t41.5 -96.5q17 -51 36.5 -85.5t44 -52.5t55.5 -18q9 0 14.5 -3.5t5.5 -12.5q0 -8 -6 -12.5t-20 -4.5q-31 0 -60 18.5t-51 53t-35 83.5l17 -12q-1 -42 -15.5 -70t-39 -44t-56 -22.5t-66.5 -6.5h-82zM151 754q-13 0 -22.5 8.5t-9.5 21.5q0 12 9.5 21.5t22.5 9.5
q12 0 21 -9.5t9 -21.5q0 -13 -9 -21.5t-21 -8.5z" />
    <glyph glyph-name="uni06AC.fina" unicode="&#x6ac;" horiz-adv-x="706" 
d="M290 -21l10 33q83 0 138 8.5t88 27.5t47 49.5t12 73.5l-18 539h33l20 -532q2 -52 8.5 -85.5t25.5 -49t57 -15.5q10 0 15.5 -3.5t5.5 -12.5q0 -8 -6 -12.5t-20 -4.5q-26 0 -50 9.5t-39 33.5t-16 69h15q-12 -39 -38.5 -64t-67 -39t-95.5 -19.5t-125 -5.5zM284 207l-8 29
q48 14 73.5 26.5t35 23.5t9.5 19q0 15 -13 27t-30.5 23.5t-30.5 26.5t-13 37q0 14 9 32t32 40t65 46l14 -26q-39 -21 -64.5 -45.5t-25.5 -45.5q0 -16 13 -28.5t30 -24.5t30.5 -27t13.5 -37q0 -12 -7 -24t-23.5 -24t-43 -24t-66.5 -24zM290 -21q-56 0 -102 11.5t-79.5 34.5
t-52 57.5t-18.5 82.5q0 24 4 50.5t10 52t12 47.5l31 -9q-5 -18 -10 -41.5t-9 -48t-4 -47.5q0 -52 25.5 -87t76.5 -52.5t126 -17.5l20 -19zM354 657q-13 0 -22.5 8.5t-9.5 21.5q0 12 9.5 21.5t22.5 9.5q12 0 21 -9.5t9 -21.5q0 -13 -9 -21.5t-21 -8.5z" />
    <glyph glyph-name="uni06AE.init" unicode="&#x6ae;" horiz-adv-x="327" 
d="M0 -5l5 33h78q51 0 80.5 10.5t43.5 28.5t17.5 39t3.5 41q0 42 -21 88.5t-62 97.5q-38 48 -61 76.5t-35.5 43.5t-17 21.5t-4.5 10.5q0 9 2.5 16.5t6 14.5t7.5 10q25 20 51.5 41.5t58 44t70.5 48t88 55.5l17 -28q-45 -28 -85 -54t-74.5 -51t-64.5 -48.5t-55 -44.5l1 15
q37 -48 74 -92.5t67.5 -87.5t50 -87t19.5 -93q0 -29 -7.5 -55.5t-27.5 -48t-56 -33.5t-91 -12h-79zM138 -259q-13 0 -22 9t-9 21q0 13 9 22t22 9q12 0 21 -9t9 -22q0 -12 -9 -21t-21 -9zM87 -170q-13 0 -22.5 8.5t-9.5 21.5q0 12 9 21.5t23 9.5q12 0 21 -9.5t9 -21.5
q0 -13 -9 -21.5t-21 -8.5zM188 -170q-13 0 -22 8.5t-9 21.5q0 12 9 21.5t22 9.5t21.5 -9.5t8.5 -21.5q0 -13 -8.5 -21.5t-21.5 -8.5z" />
    <glyph glyph-name="uni06AE.medi" unicode="&#x6ae;" horiz-adv-x="388" 
d="M0 -5l5 33h78q51 0 83 12t47.5 38t15.5 69q0 32 -14.5 67t-37 70.5t-48 68.5t-48.5 60.5t-37.5 46t-14.5 25.5q0 10 2 17.5t6 14t8 10.5q23 21 53.5 44t65 47t72 48.5t75.5 48.5l17 -29q-39 -24 -78.5 -50t-76.5 -52t-68 -50t-53 -44l2 10q24 -34 52 -67.5t57 -71
t53.5 -81t41.5 -96.5q17 -51 36.5 -85.5t44 -52.5t55.5 -18q9 0 14.5 -3.5t5.5 -12.5q0 -8 -6 -12.5t-20 -4.5q-31 0 -60 18.5t-51 53t-35 83.5l17 -12q-1 -42 -15.5 -70t-39 -44t-56 -22.5t-66.5 -6.5h-82zM115 -259q-13 0 -22 9t-9 21q0 13 9 22t22 9q12 0 21 -9t9 -22
q0 -12 -9 -21t-21 -9zM64 -170q-13 0 -22.5 8.5t-9.5 21.5q0 12 9 21.5t23 9.5q12 0 21 -9.5t9 -21.5q0 -13 -9 -21.5t-21 -8.5zM165 -170q-13 0 -22 8.5t-9 21.5q0 12 9 21.5t22 9.5t21.5 -9.5t8.5 -21.5q0 -13 -8.5 -21.5t-21.5 -8.5z" />
    <glyph glyph-name="uni06AE.fina" unicode="&#x6ae;" horiz-adv-x="706" 
d="M290 -21l10 33q83 0 138 8.5t88 27.5t47 49.5t12 73.5l-18 539h33l20 -532q2 -52 8.5 -85.5t25.5 -49t57 -15.5q10 0 15.5 -3.5t5.5 -12.5q0 -8 -6 -12.5t-20 -4.5q-26 0 -50 9.5t-39 33.5t-16 69h15q-12 -39 -38.5 -64t-67 -39t-95.5 -19.5t-125 -5.5zM284 207l-8 29
q48 14 73.5 26.5t35 23.5t9.5 19q0 15 -13 27t-30.5 23.5t-30.5 26.5t-13 37q0 14 9 32t32 40t65 46l14 -26q-39 -21 -64.5 -45.5t-25.5 -45.5q0 -16 13 -28.5t30 -24.5t30.5 -27t13.5 -37q0 -12 -7 -24t-23.5 -24t-43 -24t-66.5 -24zM290 -21q-56 0 -102 11.5t-79.5 34.5
t-52 57.5t-18.5 82.5q0 24 4 50.5t10 52t12 47.5l31 -9q-5 -18 -10 -41.5t-9 -48t-4 -47.5q0 -52 25.5 -87t76.5 -52.5t126 -17.5l20 -19zM306 -280q-13 0 -22 9t-9 21q0 13 9 22t22 9q12 0 21 -9t9 -22q0 -12 -9 -21t-21 -9zM255 -191q-13 0 -22.5 8.5t-9.5 21.5
q0 12 9 21.5t23 9.5q12 0 21 -9.5t9 -21.5q0 -13 -9 -21.5t-21 -8.5zM356 -191q-13 0 -22 8.5t-9 21.5q0 12 9 21.5t22 9.5t21.5 -9.5t8.5 -21.5q0 -13 -8.5 -21.5t-21.5 -8.5z" />
    <glyph glyph-name="uni06B0.init" unicode="&#x6b0;" horiz-adv-x="326" 
d="M255 512q-30 0 -50.5 21.5t-20.5 50.5t20.5 50t50.5 21q29 0 50 -21t21 -50t-21 -50.5t-50 -21.5zM255 537q18 0 32 14t14 33t-14 33t-32 14q-19 0 -32.5 -14t-13.5 -33t13.5 -33t32.5 -14zM14 592l-18 25q39 29 77.5 56.5t82.5 57t99 64.5l17 -26q-56 -35 -100 -65.5
t-82 -57t-76 -54.5zM0 -5l5 33h78q51 0 80.5 10.5t43.5 28.5t17.5 39t3.5 41q0 42 -21 88.5t-62 97.5q-38 48 -61 76.5t-35.5 43.5t-17 21.5t-4.5 10.5q0 9 2.5 16.5t6 14.5t7.5 10q25 20 51.5 41.5t58 44t70.5 48t88 55.5l17 -28q-45 -28 -85 -54t-74.5 -51t-64.5 -48.5
t-55 -44.5l1 15q37 -48 74 -92.5t67.5 -87.5t50 -87t19.5 -93q0 -29 -7.5 -55.5t-27.5 -48t-56 -33.5t-91 -12h-79z" />
    <glyph glyph-name="uni06B0.medi" unicode="&#x6b0;" horiz-adv-x="388" 
d="M254 511q-30 0 -50.5 21t-20.5 50q0 30 20.5 50.5t50.5 20.5q29 0 50 -20.5t21 -50.5q0 -29 -21 -50t-50 -21zM254 535q19 0 33 14t14 33t-14 33t-33 14t-32.5 -14t-13.5 -33t13.5 -33t32.5 -14zM11 592l-18 25q39 29 77 56.5t82.5 57t99.5 64.5l16 -26
q-55 -35 -99 -65.5t-82 -57t-76 -54.5zM0 -5l5 33h78q51 0 83 12t47.5 38t15.5 69q0 32 -14.5 67t-37 70.5t-48 68.5t-48.5 60.5t-37.5 46t-14.5 25.5q0 10 2 17.5t6 14t8 10.5q23 21 53.5 44t65 47t72 48.5t75.5 48.5l17 -29q-39 -24 -78.5 -50t-76.5 -52t-68 -50t-53 -44
l2 10q24 -34 52 -67.5t57 -71t53.5 -81t41.5 -96.5q17 -51 36.5 -85.5t44 -52.5t55.5 -18q9 0 14.5 -3.5t5.5 -12.5q0 -8 -6 -12.5t-20 -4.5q-31 0 -60 18.5t-51 53t-35 83.5l17 -12q-1 -42 -15.5 -70t-39 -44t-56 -22.5t-66.5 -6.5h-82z" />
    <glyph glyph-name="uni06B0.fina" unicode="&#x6b0;" horiz-adv-x="780" 
d="M638 508q-29 0 -49.5 21.5t-20.5 50.5t20.5 50t49.5 21q30 0 51 -21t21 -50t-21 -50.5t-51 -21.5zM638 533q19 0 33 14t14 33t-14 33t-33 14t-32.5 -14t-13.5 -33t13.5 -33t32.5 -14zM399 592l-18 26q39 29 77 56t82.5 56.5t99.5 65.5l16 -27q-55 -35 -99 -65t-82 -57
t-76 -55zM290 -21l10 33q72 0 131.5 6.5t103 21.5t66.5 40.5t23 63.5q0 31 -15 66.5t-38.5 71t-50 68.5t-50 61t-38.5 47.5t-15 26.5q0 9 2 16.5t5.5 14.5t8.5 11q32 26 73.5 57t90.5 64.5t102 66.5l17 -28q-55 -35 -108.5 -72t-97 -69.5t-72.5 -57.5l3 12q24 -32 55.5 -69
t62.5 -78.5t57 -84.5t39 -86q7 -22 17.5 -48t26.5 -50.5t38 -40t53 -15.5q10 0 15.5 -3.5t5.5 -12.5q0 -8 -6 -12.5t-20 -4.5q-33 0 -61.5 18t-50.5 53t-36 84l19 -12q-3 -47 -29.5 -77.5t-74.5 -48.5t-114 -25.5t-148 -7.5zM290 -21q-56 0 -102 11.5t-79.5 34.5t-52 57.5
t-18.5 82.5q0 24 4 50.5t10 52t12 47.5l31 -9q-5 -18 -10 -41.5t-9 -48t-4 -47.5q0 -52 25.5 -87t76.5 -52.5t126 -17.5l20 -19z" />
    <glyph glyph-name="uni06B2.init" unicode="&#x6b2;" horiz-adv-x="326" 
d="M14 592l-18 25q39 29 77.5 56.5t82.5 57t99 64.5l17 -26q-56 -35 -100 -65.5t-82 -57t-76 -54.5zM0 -5l5 33h78q51 0 80.5 10.5t43.5 28.5t17.5 39t3.5 41q0 42 -21 88.5t-62 97.5q-38 48 -61 76.5t-35.5 43.5t-17 21.5t-4.5 10.5q0 9 2.5 16.5t6 14.5t7.5 10
q25 20 51.5 41.5t58 44t70.5 48t88 55.5l17 -28q-45 -28 -85 -54t-74.5 -51t-64.5 -48.5t-55 -44.5l1 15q37 -48 74 -92.5t67.5 -87.5t50 -87t19.5 -93q0 -29 -7.5 -55.5t-27.5 -48t-56 -33.5t-91 -12h-79zM193 -169q-13 0 -22 9t-9 21q0 13 9 22t22 9t21.5 -9t8.5 -21
q0 -13 -9 -22t-21 -9zM91 -169q-13 0 -22 9t-9 21q0 13 9 22t22 9t21.5 -9t8.5 -21q0 -13 -9 -22t-21 -9z" />
    <glyph glyph-name="uni06B2.medi" unicode="&#x6b2;" horiz-adv-x="388" 
d="M11 592l-18 25q39 29 77 56.5t82.5 57t99.5 64.5l16 -26q-55 -35 -99 -65.5t-82 -57t-76 -54.5zM0 -5l5 33h78q51 0 83 12t47.5 38t15.5 69q0 32 -14.5 67t-37 70.5t-48 68.5t-48.5 60.5t-37.5 46t-14.5 25.5q0 10 2 17.5t6 14t8 10.5q23 21 53.5 44t65 47t72 48.5
t75.5 48.5l17 -29q-39 -24 -78.5 -50t-76.5 -52t-68 -50t-53 -44l2 10q24 -34 52 -67.5t57 -71t53.5 -81t41.5 -96.5q17 -51 36.5 -85.5t44 -52.5t55.5 -18q9 0 14.5 -3.5t5.5 -12.5q0 -8 -6 -12.5t-20 -4.5q-31 0 -60 18.5t-51 53t-35 83.5l17 -12q-1 -42 -15.5 -70
t-39 -44t-56 -22.5t-66.5 -6.5h-82zM208 -169q-13 0 -22 9t-9 21q0 13 9 22t22 9t21.5 -9t8.5 -21q0 -13 -9 -22t-21 -9zM106 -169q-13 0 -22 9t-9 21q0 13 9 22t22 9t21.5 -9t8.5 -21q0 -13 -9 -22t-21 -9z" />
    <glyph glyph-name="uni06B2.fina" unicode="&#x6b2;" horiz-adv-x="780" 
d="M399 592l-18 26q39 29 77 56t82.5 56.5t99.5 65.5l16 -27q-55 -35 -99 -65t-82 -57t-76 -55zM290 -21l10 33q72 0 131.5 6.5t103 21.5t66.5 40.5t23 63.5q0 31 -15 66.5t-38.5 71t-50 68.5t-50 61t-38.5 47.5t-15 26.5q0 9 2 16.5t5.5 14.5t8.5 11q32 26 73.5 57
t90.5 64.5t102 66.5l17 -28q-55 -35 -108.5 -72t-97 -69.5t-72.5 -57.5l3 12q24 -32 55.5 -69t62.5 -78.5t57 -84.5t39 -86q7 -22 17.5 -48t26.5 -50.5t38 -40t53 -15.5q10 0 15.5 -3.5t5.5 -12.5q0 -8 -6 -12.5t-20 -4.5q-33 0 -61.5 18t-50.5 53t-36 84l19 -12
q-3 -47 -29.5 -77.5t-74.5 -48.5t-114 -25.5t-148 -7.5zM290 -21q-56 0 -102 11.5t-79.5 34.5t-52 57.5t-18.5 82.5q0 24 4 50.5t10 52t12 47.5l31 -9q-5 -18 -10 -41.5t-9 -48t-4 -47.5q0 -52 25.5 -87t76.5 -52.5t126 -17.5l20 -19zM390 -190q-13 0 -22 9t-9 21q0 13 9 22
t22 9t21.5 -9t8.5 -21q0 -13 -9 -22t-21 -9zM288 -190q-13 0 -22 9t-9 21q0 13 9 22t22 9t21.5 -9t8.5 -21q0 -13 -9 -22t-21 -9z" />
    <glyph glyph-name="uni06B4.init" unicode="&#x6b4;" horiz-adv-x="326" 
d="M57 866q-12 0 -20 8.5t-8 19.5t8 19t20 8q11 0 19 -8t8 -19t-8 -19.5t-19 -8.5zM47 740q-12 0 -20 8.5t-8 19.5t8 19t20 8q11 0 19 -8t8 -19t-8 -19.5t-19 -8.5zM157 792q-12 0 -20 8.5t-8 19.5t8 19t20 8q11 0 19 -8t8 -19t-8 -19.5t-19 -8.5zM14 592l-18 25
q39 29 77.5 56.5t82.5 57t99 64.5l17 -26q-56 -35 -100 -65.5t-82 -57t-76 -54.5zM0 -5l5 33h78q51 0 80.5 10.5t43.5 28.5t17.5 39t3.5 41q0 42 -21 88.5t-62 97.5q-38 48 -61 76.5t-35.5 43.5t-17 21.5t-4.5 10.5q0 9 2.5 16.5t6 14.5t7.5 10q25 20 51.5 41.5t58 44
t70.5 48t88 55.5l17 -28q-45 -28 -85 -54t-74.5 -51t-64.5 -48.5t-55 -44.5l1 15q37 -48 74 -92.5t67.5 -87.5t50 -87t19.5 -93q0 -29 -7.5 -55.5t-27.5 -48t-56 -33.5t-91 -12h-79z" />
    <glyph glyph-name="uni06B4.medi" unicode="&#x6b4;" horiz-adv-x="388" 
d="M57 865q-12 0 -20 8.5t-8 19.5t8 19t20 8q11 0 19 -8t8 -19t-8 -19.5t-19 -8.5zM47 739q-12 0 -20 8.5t-8 19.5t8 19t20 8q11 0 19 -8t8 -19t-8 -19.5t-19 -8.5zM157 791q-12 0 -20 8.5t-8 19.5t8 19t20 8q11 0 19 -8t8 -19t-8 -19.5t-19 -8.5zM11 592l-18 25
q39 29 77 56.5t82.5 57t99.5 64.5l16 -26q-55 -35 -99 -65.5t-82 -57t-76 -54.5zM0 -5l5 33h78q51 0 83 12t47.5 38t15.5 69q0 32 -14.5 67t-37 70.5t-48 68.5t-48.5 60.5t-37.5 46t-14.5 25.5q0 10 2 17.5t6 14t8 10.5q23 21 53.5 44t65 47t72 48.5t75.5 48.5l17 -29
q-39 -24 -78.5 -50t-76.5 -52t-68 -50t-53 -44l2 10q24 -34 52 -67.5t57 -71t53.5 -81t41.5 -96.5q17 -51 36.5 -85.5t44 -52.5t55.5 -18q9 0 14.5 -3.5t5.5 -12.5q0 -8 -6 -12.5t-20 -4.5q-31 0 -60 18.5t-51 53t-35 83.5l17 -12q-1 -42 -15.5 -70t-39 -44t-56 -22.5
t-66.5 -6.5h-82z" />
    <glyph glyph-name="uni06B4.fina" unicode="&#x6b4;" horiz-adv-x="780" 
d="M438 866q-12 0 -20 8.5t-8 19.5t8 19t20 8q11 0 19 -8t8 -19t-8 -19.5t-19 -8.5zM428 740q-12 0 -20 8.5t-8 19.5t8 19t20 8q11 0 19 -8t8 -19t-8 -19.5t-19 -8.5zM538 792q-12 0 -20 8.5t-8 19.5t8 19t20 8q11 0 19 -8t8 -19t-8 -19.5t-19 -8.5zM399 592l-18 26
q39 29 77 56t82.5 56.5t99.5 65.5l16 -27q-55 -35 -99 -65t-82 -57t-76 -55zM290 -21l10 33q72 0 131.5 6.5t103 21.5t66.5 40.5t23 63.5q0 31 -15 66.5t-38.5 71t-50 68.5t-50 61t-38.5 47.5t-15 26.5q0 9 2 16.5t5.5 14.5t8.5 11q32 26 73.5 57t90.5 64.5t102 66.5l17 -28
q-55 -35 -108.5 -72t-97 -69.5t-72.5 -57.5l3 12q24 -32 55.5 -69t62.5 -78.5t57 -84.5t39 -86q7 -22 17.5 -48t26.5 -50.5t38 -40t53 -15.5q10 0 15.5 -3.5t5.5 -12.5q0 -8 -6 -12.5t-20 -4.5q-33 0 -61.5 18t-50.5 53t-36 84l19 -12q-3 -47 -29.5 -77.5t-74.5 -48.5
t-114 -25.5t-148 -7.5zM290 -21q-56 0 -102 11.5t-79.5 34.5t-52 57.5t-18.5 82.5q0 24 4 50.5t10 52t12 47.5l31 -9q-5 -18 -10 -41.5t-9 -48t-4 -47.5q0 -52 25.5 -87t76.5 -52.5t126 -17.5l20 -19z" />
    <glyph glyph-name="uni06B5.init" unicode="&#x6b5;" horiz-adv-x="178" 
d="M0 -5l5 33q42 0 61.5 15t25 48.5t3.5 89.5l-19 529h33l20 -525q2 -51 -2 -87t-18 -58.5t-40.5 -33.5t-68.5 -11zM79 838q-6 15 -14.5 40.5t-18 54.5t-18 55t-15.5 42l24 10q5 -10 13 -34t18 -53t18 -55t14 -40l9 -17zM109 841l-24 8q6 16 14.5 45.5t17.5 61t16 55.5
t10 32l25 -8q-4 -10 -11.5 -35t-16.5 -56t-17.5 -59t-13.5 -44z" />
    <glyph glyph-name="uni06B5.medi" unicode="&#x6b5;" horiz-adv-x="217" 
d="M0 -5l5 33q40 0 60 20t25.5 59.5t3.5 97.5l-17 505h35l16 -503q3 -73 14 -111.5t31 -53t49 -14.5q10 0 15.5 -3.5t5.5 -12.5q0 -8 -6 -12.5t-20 -4.5q-28 0 -50.5 14.5t-36.5 39.5t-19 54h13q-8 -33 -22.5 -57t-39 -37.5t-62.5 -13.5zM79 838q-6 15 -14.5 40.5t-18 54.5
t-18 55t-15.5 42l24 10q5 -10 13 -34t18 -53t18 -55t14 -40l9 -17zM109 841l-24 8q6 16 14.5 45.5t17.5 61t16 55.5t10 32l25 -8q-4 -10 -11.5 -35t-16.5 -56t-17.5 -59t-13.5 -44z" />
    <glyph glyph-name="uni06B5.fina" unicode="&#x6b5;" horiz-adv-x="573" 
d="M42 -28q0 19 3.5 46.5t14 64t31.5 80.5l30 -15q-15 -32 -25 -62t-15 -58.5t-5 -56.5q0 -52 19.5 -90t56.5 -57.5t90 -19.5q70 0 111.5 36t59 116t13.5 213l-18 541h35l17 -530q2 -44 19 -78.5t44 -54t56 -19.5q9 0 14.5 -3.5t5.5 -12.5q0 -8 -6 -12.5t-19 -4.5
q-22 0 -43 9t-37.5 24.5t-27 35t-11.5 41.5l4 -15q-2 -67 -12.5 -125t-34.5 -102t-66 -68.5t-106 -24.5q-47 0 -84 13.5t-62.5 39.5t-38.5 63.5t-13 85.5zM215 585q-6 15 -14.5 40.5t-18 54.5t-18 55t-15.5 42l24 10q5 -10 13 -34t18 -53t18 -55t14 -40l9 -17zM245 588
l-24 8q6 16 14.5 45.5t17.5 61t16 55.5t10 32l25 -8q-4 -10 -11.5 -35t-16.5 -56t-17.5 -59t-13.5 -44z" />
    <glyph glyph-name="uni06B6.init" unicode="&#x6b6;" horiz-adv-x="178" 
d="M0 -5l5 33q42 0 61.5 15t25 48.5t3.5 89.5l-19 529h33l20 -525q2 -51 -2 -87t-18 -58.5t-40.5 -33.5t-68.5 -11zM93 839q-13 0 -22.5 8.5t-9.5 21.5q0 12 9.5 21.5t22.5 9.5q12 0 21 -9.5t9 -21.5q0 -13 -9 -21.5t-21 -8.5z" />
    <glyph glyph-name="uni06B6.medi" unicode="&#x6b6;" horiz-adv-x="217" 
d="M0 -5l5 33q40 0 60 20t25.5 59.5t3.5 97.5l-17 505h35l16 -503q3 -73 14 -111.5t31 -53t49 -14.5q10 0 15.5 -3.5t5.5 -12.5q0 -8 -6 -12.5t-20 -4.5q-28 0 -50.5 14.5t-36.5 39.5t-19 54h13q-8 -33 -22.5 -57t-39 -37.5t-62.5 -13.5zM93 839q-13 0 -22.5 8.5t-9.5 21.5
q0 12 9.5 21.5t22.5 9.5q12 0 21 -9.5t9 -21.5q0 -13 -9 -21.5t-21 -8.5z" />
    <glyph glyph-name="uni06B6.fina" unicode="&#x6b6;" horiz-adv-x="573" 
d="M42 -28q0 19 3.5 46.5t14 64t31.5 80.5l30 -15q-15 -32 -25 -62t-15 -58.5t-5 -56.5q0 -52 19.5 -90t56.5 -57.5t90 -19.5q70 0 111.5 36t59 116t13.5 213l-18 541h35l17 -530q2 -44 19 -78.5t44 -54t56 -19.5q9 0 14.5 -3.5t5.5 -12.5q0 -8 -6 -12.5t-19 -4.5
q-22 0 -43 9t-37.5 24.5t-27 35t-11.5 41.5l4 -15q-2 -67 -12.5 -125t-34.5 -102t-66 -68.5t-106 -24.5q-47 0 -84 13.5t-62.5 39.5t-38.5 63.5t-13 85.5zM228 586q-13 0 -22.5 8.5t-9.5 21.5q0 12 9.5 21.5t22.5 9.5q12 0 21 -9.5t9 -21.5q0 -13 -9 -21.5t-21 -8.5z" />
    <glyph glyph-name="uni06B7.init" unicode="&#x6b7;" horiz-adv-x="178" 
d="M0 -5l5 33q42 0 61.5 15t25 48.5t3.5 89.5l-19 529h33l20 -525q2 -51 -2 -87t-18 -58.5t-40.5 -33.5t-68.5 -11zM93 927q-12 0 -21 9t-9 22t9 21.5t21 8.5q13 0 22 -8.5t9 -21.5t-9 -22t-22 -9zM43 839q-12 0 -21.5 9t-9.5 21q0 13 9.5 22t21.5 9t21.5 -9t9.5 -22
q0 -12 -9.5 -21t-21.5 -9zM144 839q-12 0 -21 9t-9 21q0 13 9 22t21 9q13 0 22 -9t9 -22q0 -12 -9 -21t-22 -9z" />
    <glyph glyph-name="uni06B7.medi" unicode="&#x6b7;" horiz-adv-x="217" 
d="M0 -5l5 33q40 0 60 20t25.5 59.5t3.5 97.5l-17 505h35l16 -503q3 -73 14 -111.5t31 -53t49 -14.5q10 0 15.5 -3.5t5.5 -12.5q0 -8 -6 -12.5t-20 -4.5q-28 0 -50.5 14.5t-36.5 39.5t-19 54h13q-8 -33 -22.5 -57t-39 -37.5t-62.5 -13.5zM93 927q-12 0 -21 9t-9 22t9 21.5
t21 8.5q13 0 22 -8.5t9 -21.5t-9 -22t-22 -9zM43 839q-12 0 -21.5 9t-9.5 21q0 13 9.5 22t21.5 9t21.5 -9t9.5 -22q0 -12 -9.5 -21t-21.5 -9zM144 839q-12 0 -21 9t-9 21q0 13 9 22t21 9q13 0 22 -9t9 -22q0 -12 -9 -21t-22 -9z" />
    <glyph glyph-name="uni06B7.fina" unicode="&#x6b7;" horiz-adv-x="573" 
d="M42 -28q0 19 3.5 46.5t14 64t31.5 80.5l30 -15q-15 -32 -25 -62t-15 -58.5t-5 -56.5q0 -52 19.5 -90t56.5 -57.5t90 -19.5q70 0 111.5 36t59 116t13.5 213l-18 541h35l17 -530q2 -44 19 -78.5t44 -54t56 -19.5q9 0 14.5 -3.5t5.5 -12.5q0 -8 -6 -12.5t-19 -4.5
q-22 0 -43 9t-37.5 24.5t-27 35t-11.5 41.5l4 -15q-2 -67 -12.5 -125t-34.5 -102t-66 -68.5t-106 -24.5q-47 0 -84 13.5t-62.5 39.5t-38.5 63.5t-13 85.5zM229 674q-12 0 -21 9t-9 22t9 21.5t21 8.5q13 0 22 -8.5t9 -21.5t-9 -22t-22 -9zM179 586q-12 0 -21.5 9t-9.5 21
q0 13 9.5 22t21.5 9t21.5 -9t9.5 -22q0 -12 -9.5 -21t-21.5 -9zM280 586q-12 0 -21 9t-9 21q0 13 9 22t21 9q13 0 22 -9t9 -22q0 -12 -9 -21t-22 -9z" />
    <glyph glyph-name="uni06B8.init" unicode="&#x6b8;" horiz-adv-x="178" 
d="M0 -5l5 33q42 0 61.5 15t25 48.5t3.5 89.5l-19 529h33l20 -525q2 -51 -2 -87t-18 -58.5t-40.5 -33.5t-68.5 -11zM84 -259q-13 0 -22 9t-9 21q0 13 9 22t22 9q12 0 21 -9t9 -22q0 -12 -9 -21t-21 -9zM33 -170q-13 0 -22.5 8.5t-9.5 21.5q0 12 9 21.5t23 9.5q12 0 21 -9.5
t9 -21.5q0 -13 -9 -21.5t-21 -8.5zM134 -170q-13 0 -22 8.5t-9 21.5q0 12 9 21.5t22 9.5t21.5 -9.5t8.5 -21.5q0 -13 -8.5 -21.5t-21.5 -8.5z" />
    <glyph glyph-name="uni06B8.medi" unicode="&#x6b8;" horiz-adv-x="217" 
d="M0 -5l5 33q40 0 60 20t25.5 59.5t3.5 97.5l-17 505h35l16 -503q3 -73 14 -111.5t31 -53t49 -14.5q10 0 15.5 -3.5t5.5 -12.5q0 -8 -6 -12.5t-20 -4.5q-28 0 -50.5 14.5t-36.5 39.5t-19 54h13q-8 -33 -22.5 -57t-39 -37.5t-62.5 -13.5zM99 -259q-13 0 -22 9t-9 21
q0 13 9 22t22 9q12 0 21 -9t9 -22q0 -12 -9 -21t-21 -9zM48 -170q-13 0 -22.5 8.5t-9.5 21.5q0 12 9 21.5t23 9.5q12 0 21 -9.5t9 -21.5q0 -13 -9 -21.5t-21 -8.5zM149 -170q-13 0 -22 8.5t-9 21.5q0 12 9 21.5t22 9.5t21.5 -9.5t8.5 -21.5q0 -13 -8.5 -21.5t-21.5 -8.5z
" />
    </font>
</defs>
</svg>
