<?xml version="1.0" standalone="no"?>
<!DOCTYPE svg PUBLIC "-//W3C//DTD SVG 1.1//EN" "http://www.w3.org/Graphics/SVG/1.1/DTD/svg11.dtd" >
<svg xmlns="http://www.w3.org/2000/svg" xmlns:xlink="http://www.w3.org/1999/xlink" version="1.1">
<metadata>
Created by FontForge 20170731 at Thu Nov 12 05:28:44 2020
 By Aleksey,,,
Copyright 2015-2020 Google LLC. All Rights Reserved.
</metadata>
<defs>
<font id="NotoSansArabicExtraCondensed-SemiBold" horiz-adv-x="0" >
  <font-face 
    font-family="Noto Sans Arabic ExtraCondensed SemiBold"
    font-weight="600"
    font-stretch="extra-condensed"
    units-per-em="1000"
    panose-1="0 0 0 0 0 0 0 0 0 0"
    ascent="800"
    descent="-200"
    bbox="-220 -616 2056 1099"
    underline-thickness="50"
    underline-position="-175"
    unicode-range="U+000D-FEFC"
  />
<missing-glyph horiz-adv-x="600" 
d="M94 0v714h411v-714h-411zM145 51h309v612h-309v-612z" />
    <glyph glyph-name="uniFC43" unicode="&#xfedf;&#xfef0;" horiz-adv-x="904" arabic-form="isolated" 
d="M655 -5l9 108q34 0 49.5 11.5t19.5 41.5t2 83l-19 482h111l20 -486q3 -56 -3 -100.5t-26 -75.5t-59 -47.5t-104 -16.5zM38 0q0 25 4.5 58.5t17 74t33.5 86.5l97 -39q-14 -35 -23.5 -63t-13.5 -52t-4 -45q0 -40 13.5 -67t37.5 -43.5t54.5 -24.5t63.5 -8q53 0 91.5 12
t63.5 30t37 38t12 35q0 8 -6.5 17t-22.5 18.5t-42 20t-65 22.5l30 103q51 -19 89.5 -32.5t68 -21.5t51.5 -12t41 -4q26 0 39.5 -15t13.5 -37q0 -25 -15 -40.5t-48 -15.5h-9.5t-11 0.5t-10.5 0.5q2 -6 3.5 -13.5t1.5 -15.5q0 -32 -19.5 -66t-58.5 -64t-98 -48.5t-137 -18.5
q-91 0 -153 27.5t-94 79t-32 123.5z" />
    <glyph glyph-name="uniFC86" unicode="&#xfee0;&#xfef0;" horiz-adv-x="919" arabic-form="final" 
d="M655 -5l10 108q28 0 42.5 12t18.5 42t2 83l-17 481h112l18 -479q2 -55 10.5 -85.5t27.5 -42t51 -11.5q27 0 40 -15t13 -37q0 -25 -15 -40.5t-47 -15.5q-31 0 -61.5 11.5t-52.5 36.5t-27 66l39 -1q-15 -39 -38 -64.5t-54 -37t-72 -11.5zM38 0q0 25 4.5 58.5t17 74
t33.5 86.5l97 -39q-14 -35 -23.5 -63t-13.5 -52t-4 -45q0 -40 13.5 -67t37.5 -43.5t54.5 -24.5t63.5 -8q53 0 91.5 12t63.5 30t37 38t12 35q0 8 -6.5 17t-22.5 18.5t-42 20t-65 22.5l30 103q51 -19 89.5 -32.5t68 -21.5t51.5 -12t41 -4q26 0 39.5 -15t13.5 -37
q0 -25 -15 -40.5t-48 -15.5h-9.5t-11 0.5t-10.5 0.5q2 -6 3.5 -13.5t1.5 -15.5q0 -32 -19.5 -66t-58.5 -64t-98 -48.5t-137 -18.5q-91 0 -153 27.5t-94 79t-32 123.5z" />
    <glyph glyph-name="uniFD82" unicode="&#xfee0;&#xfea4;&#xfef0;" horiz-adv-x="1423" arabic-form="final" 
d="M1159 -5l10 108q28 0 42.5 12t18.5 42t2 83l-17 481h112l18 -479q2 -55 10.5 -85.5t27.5 -42t51 -11.5q27 0 40 -15t13 -37q0 -25 -15 -40.5t-47 -15.5q-31 0 -61.5 11.5t-52.5 36.5t-27 66l39 -1q-15 -39 -38 -64.5t-54 -37t-72 -11.5zM1159 -5q-28 0 -53.5 7t-48 24
t-40 47t-29.5 75l67 45q13 -37 28.5 -56.5t36.5 -26.5t49 -7t40.5 -15t12.5 -37q0 -25 -15 -40.5t-48 -15.5zM655 -5l9 108q44 0 84 8t78.5 23.5t77.5 38t82 50.5q-34 21 -64 36t-58 24t-61 9q-16 0 -29 -1t-25.5 -3t-26.5 -6l-21 105q24 8 48.5 11.5t49.5 3.5q50 0 88 -12
t68 -29.5t55 -35.5t48.5 -30t48.5 -12h19l12 -100q-31 -2 -60 -16.5t-58.5 -36t-64 -45t-77 -44t-97 -33.5t-126.5 -13zM38 0q0 25 4.5 58.5t17 74t33.5 86.5l97 -39q-14 -35 -23.5 -63t-13.5 -52t-4 -45q0 -40 13.5 -67t37.5 -43.5t54.5 -24.5t63.5 -8q53 0 91.5 12
t63.5 30t37 38t12 35q0 8 -6.5 17t-22.5 18.5t-42 20t-65 22.5l30 103q51 -19 89.5 -32.5t68 -21.5t51.5 -12t41 -4q26 0 39.5 -15t13.5 -37q0 -25 -15 -40.5t-48 -15.5h-9.5t-11 0.5t-10.5 0.5q2 -6 3.5 -13.5t1.5 -15.5q0 -32 -19.5 -66t-58.5 -64t-98 -48.5t-137 -18.5
q-91 0 -153 27.5t-94 79t-32 123.5z" />
    <glyph glyph-name="uniFDF2" unicode="&#x627;&#xfedf;&#xfee0;&#xfeea;" horiz-adv-x="1210" arabic-form="isolated" 
d="M455 -5q-39 0 -71 9.5t-56 31.5t-37 59q-48 -8 -95.5 -4.5t-86.5 20.5t-63 50t-24 83q0 59 31.5 106.5t85 81.5t121.5 53l-4 78h109l17 -351q2 -44 9.5 -68t25 -32.5t48.5 -8.5q26 0 39.5 12t17.5 42t2 83l-12 360h112l13 -358q3 -55 11 -85.5t26.5 -42t49.5 -11.5
q32 0 47 11.5t19 41.5t2 83l-19 482h111l20 -486q3 -56 -3 -100.5t-25.5 -75.5t-58 -47.5t-103.5 -16.5q-22 0 -45.5 6.5t-44 21.5t-33.5 38q-23 -34 -57 -50t-79 -16zM273 196l-8 177q-40 -10 -70 -28.5t-46.5 -41.5t-16.5 -47q0 -21 13 -34.5t34 -20t46 -7.5t48 2zM1038 0
l-21 721h111l21 -721h-111zM474 667q-39 0 -51 25.5t-12 58.5q0 11 1 21.5t4 25.5l53 13q-3 -16 -4.5 -29t-1.5 -23q0 -18 4.5 -26t15.5 -8q13 0 20.5 14.5t8.5 55.5v29l47 16v-56q0 -14 5 -22.5t18 -8.5q15 0 19.5 9.5t4.5 25.5t-4 31.5t-9 31.5l48 13q9 -18 15 -40t6 -41
q0 -34 -17.5 -60t-56.5 -26q-24 0 -42.5 16t-18.5 43l20 -9q0 -36 -22 -58t-51 -22zM504 900l-5 157h62l6 -157h-63z" />
    <glyph glyph-name="uniFEF5" unicode="&#xfedf;&#xfe82;" horiz-adv-x="686" arabic-form="isolated" 
d="M346 536q0 29 -3.5 61t-8 62t-8.5 52l111 17q4 -20 8 -53t6.5 -68t2.5 -63q0 -44 -7.5 -85.5t-22 -81t-34.5 -78.5l-18 -29q-24 -41 -56.5 -81t-70.5 -78h64q35 0 53.5 6.5t25.5 17t7 24.5q0 24 -28.5 62t-78.5 85t-115 100t-138 108l59 89q95 -71 164.5 -130t116.5 -107
t75.5 -88t41 -73.5t12.5 -62.5q0 -26 -8.5 -51.5t-28 -46t-52 -32.5t-81.5 -12h-228v114q84 74 137 141.5t78 136t25 144.5zM191 668q-28 0 -51 9.5t-41.5 18.5t-34.5 9q-17 0 -31 -8.5t-29 -22.5l-39 39q23 30 47.5 45t50.5 15q24 0 44 -9t40 -18.5t43 -9.5q15 0 28.5 5
t32.5 17l30 -48q-32 -27 -54 -34.5t-36 -7.5z" />
    <glyph glyph-name="uniFEF6" unicode="&#xfee0;&#xfe82;" horiz-adv-x="580" arabic-form="final" 
d="M581 -5q-48 0 -85.5 10.5t-63 32t-39 55t-15.5 80.5l-19 556h109l22 -503q2 -51 10 -77.5t28 -36t58 -9.5q31 0 44.5 -14t13.5 -34q0 -26 -15 -43t-48 -17zM142 -5q-31 0 -58.5 4.5t-38.5 6.5l16 116q66 -9 123 -3t99.5 34t66.5 82.5t24 141.5l48 -143
q-10 -61 -32.5 -103.5t-53.5 -69t-65.5 -41t-67.5 -20t-61 -5.5zM317 132q-14 30 -39 70t-60 89t-80.5 103t-102.5 110l76 81q71 -79 118.5 -137t78 -101t50 -76t33.5 -61zM191 668q-28 0 -51 9.5t-41.5 18.5t-34.5 9q-17 0 -31 -8.5t-29 -22.5l-39 39q23 30 47.5 45
t50.5 15q24 0 44 -9t40 -18.5t43 -9.5q15 0 28.5 5t32.5 17l30 -48q-32 -27 -54 -34.5t-36 -7.5z" />
    <glyph glyph-name="uniFEF7" unicode="&#xfedf;&#xfe84;" horiz-adv-x="592" arabic-form="isolated" 
d="M346 536q0 29 -3.5 61t-8 62t-8.5 52l111 17q4 -20 8 -53t6.5 -68t2.5 -63q0 -44 -7.5 -85.5t-22 -81t-34.5 -78.5l-18 -29q-24 -41 -56.5 -81t-70.5 -78h64q35 0 53.5 6.5t25.5 17t7 24.5q0 24 -28.5 62t-78.5 85t-115 100t-138 108l59 89q95 -71 164.5 -130t116.5 -107
t75.5 -88t41 -73.5t12.5 -62.5q0 -26 -8.5 -51.5t-28 -46t-52 -32.5t-81.5 -12h-228v114q84 74 137 141.5t78 136t25 144.5zM31 663l-12 53q28 5 43 8.5t32 7.5l-9 -19q-22 8 -43 29.5t-21 54.5q0 27 12.5 45t33.5 28t46 10q10 0 22.5 -2t22.5 -6l-7 -48q-9 2 -18 3.5
t-17 1.5q-20 0 -29.5 -9t-9.5 -23q0 -17 11 -30t25.5 -19.5t24.5 -7.5l-37 -6q23 7 43.5 13.5t37.5 12.5l16 -50q-22 -8 -50.5 -17t-58.5 -16.5t-58 -13.5z" />
    <glyph glyph-name="uniFEF8" unicode="&#xfee0;&#xfe84;" horiz-adv-x="603" arabic-form="final" 
d="M581 -5q-48 0 -85.5 10.5t-63 32t-39 55t-15.5 80.5l-19 556h109l22 -503q2 -51 10 -77.5t28 -36t58 -9.5q31 0 44.5 -14t13.5 -34q0 -26 -15 -43t-48 -17zM142 -5q-31 0 -58.5 4.5t-38.5 6.5l16 116q66 -9 123 -3t99.5 34t66.5 82.5t24 141.5l48 -143
q-10 -61 -32.5 -103.5t-53.5 -69t-65.5 -41t-67.5 -20t-61 -5.5zM317 132q-14 30 -39 70t-60 89t-80.5 103t-102.5 110l76 81q71 -79 118.5 -137t78 -101t50 -76t33.5 -61zM47 663l-12 53q28 5 43 8.5t32 7.5l-9 -19q-22 8 -43 29.5t-21 54.5q0 27 12.5 45t33.5 28t46 10
q10 0 22.5 -2t22.5 -6l-7 -48q-9 2 -18 3.5t-17 1.5q-20 0 -29.5 -9t-9.5 -23q0 -17 11 -30t25.5 -19.5t24.5 -7.5l-37 -6q23 7 43.5 13.5t37.5 12.5l16 -50q-22 -8 -50.5 -17t-58.5 -16.5t-58 -13.5z" />
    <glyph glyph-name="uniFEF9" unicode="&#xfedf;&#xfe88;" horiz-adv-x="565" arabic-form="isolated" 
d="M346 536q0 29 -3.5 61t-8 62t-8.5 52l111 17q4 -20 8 -53t6.5 -68t2.5 -63q0 -44 -7.5 -85.5t-22 -81t-34.5 -78.5l-18 -29q-24 -41 -56.5 -81t-70.5 -78h64q35 0 53.5 6.5t25.5 17t7 24.5q0 24 -28.5 62t-78.5 85t-115 100t-138 108l59 89q95 -71 164.5 -130t116.5 -107
t75.5 -88t41 -73.5t12.5 -62.5q0 -26 -8.5 -51.5t-28 -46t-52 -32.5t-81.5 -12h-228v114q84 74 137 141.5t78 136t25 144.5zM95 -295l-12 53q28 5 43 8.5t32 7.5l-9 -19q-22 8 -43 29.5t-21 54.5q0 27 12.5 45t33.5 28t46 10q10 0 22.5 -2t22.5 -6l-7 -48q-9 2 -18 3.5
t-17 1.5q-20 0 -29.5 -9t-9.5 -23q0 -17 11 -30t25.5 -19.5t24.5 -7.5l-37 -6q23 7 43.5 13.5t37.5 12.5l16 -50q-22 -8 -50.5 -17t-58.5 -16.5t-58 -13.5z" />
    <glyph glyph-name="uniFEFA" unicode="&#xfee0;&#xfe88;" horiz-adv-x="580" arabic-form="final" 
d="M581 -5q-48 0 -85.5 10.5t-63 32t-39 55t-15.5 80.5l-19 556h109l22 -503q2 -51 10 -77.5t28 -36t58 -9.5q31 0 44.5 -14t13.5 -34q0 -26 -15 -43t-48 -17zM142 -5q-31 0 -58.5 4.5t-38.5 6.5l16 116q66 -9 123 -3t99.5 34t66.5 82.5t24 141.5l48 -143
q-10 -61 -32.5 -103.5t-53.5 -69t-65.5 -41t-67.5 -20t-61 -5.5zM317 132q-14 30 -39 70t-60 89t-80.5 103t-102.5 110l76 81q71 -79 118.5 -137t78 -101t50 -76t33.5 -61zM94 -295l-12 53q28 5 43 8.5t32 7.5l-9 -19q-22 8 -43 29.5t-21 54.5q0 27 12.5 45t33.5 28t46 10
q10 0 22.5 -2t22.5 -6l-7 -48q-9 2 -18 3.5t-17 1.5q-20 0 -29.5 -9t-9.5 -23q0 -17 11 -30t25.5 -19.5t24.5 -7.5l-37 -6q23 7 43.5 13.5t37.5 12.5l16 -50q-22 -8 -50.5 -17t-58.5 -16.5t-58 -13.5z" />
    <glyph glyph-name="uniFEFB" unicode="&#xfedf;&#xfe8e;" horiz-adv-x="565" arabic-form="isolated" 
d="M346 536q0 29 -3.5 61t-8 62t-8.5 52l111 17q4 -20 8 -53t6.5 -68t2.5 -63q0 -44 -7.5 -85.5t-22 -81t-34.5 -78.5l-18 -29q-24 -41 -56.5 -81t-70.5 -78h64q35 0 53.5 6.5t25.5 17t7 24.5q0 24 -28.5 62t-78.5 85t-115 100t-138 108l59 89q95 -71 164.5 -130t116.5 -107
t75.5 -88t41 -73.5t12.5 -62.5q0 -26 -8.5 -51.5t-28 -46t-52 -32.5t-81.5 -12h-228v114q84 74 137 141.5t78 136t25 144.5z" />
    <glyph glyph-name="uniFEFC" unicode="&#xfee0;&#xfe8e;" horiz-adv-x="580" arabic-form="final" 
d="M581 -5q-48 0 -85.5 10.5t-63 32t-39 55t-15.5 80.5l-19 556h109l22 -503q2 -51 10 -77.5t28 -36t58 -9.5q31 0 44.5 -14t13.5 -34q0 -26 -15 -43t-48 -17zM142 -5q-31 0 -58.5 4.5t-38.5 6.5l16 116q66 -9 123 -3t99.5 34t66.5 82.5t24 141.5l48 -143
q-10 -61 -32.5 -103.5t-53.5 -69t-65.5 -41t-67.5 -20t-61 -5.5zM317 132q-14 30 -39 70t-60 89t-80.5 103t-102.5 110l76 81q71 -79 118.5 -137t78 -101t50 -76t33.5 -61z" />
    <glyph glyph-name="lam_alefMaksura_meemar" unicode="&#xfedf;&#xfbe9;&#xfee2;" horiz-adv-x="1026" 
d="M777 -5l9 108q34 0 49.5 11.5t19.5 41.5t2 83l-19 482h111l20 -486q3 -56 -3 -100.5t-26 -75.5t-59 -47.5t-104 -16.5zM531 -5l10 108q22 0 40 7.5t28.5 27t10.5 52.5q0 29 -7.5 67.5t-19.5 80t-25 77.5l104 33q13 -33 25 -77t20 -90.5t8 -90.5q0 -45 -11.5 -77.5
t-31 -55.5t-44.5 -36.5t-52 -19.5t-55 -6zM78 -390q-22 80 -36.5 153t-22 129.5t-7.5 85.5q0 88 22 156.5t57 118.5t75.5 83t79.5 49t66 16q32 0 52 -17t36 -52t37 -88q21 -54 37.5 -85t32.5 -43.5t35 -12.5q26 0 39.5 -15t13.5 -37q0 -24 -15.5 -40t-47.5 -16
q-35 0 -65 19.5t-52 50.5l27 10q-7 -27 -23 -47t-39.5 -31t-53.5 -11q-19 0 -44 4.5t-52.5 20t-56.5 47t-56 83.5l29 -2q-18 -41 -24.5 -80.5t-6.5 -76.5q0 -31 6 -73t15 -89t20 -93t22 -86zM330 89q16 0 26 7t12.5 20t-3.5 30q-17 46 -28.5 75t-19 44.5t-13 21t-12.5 5.5
q-10 0 -26.5 -9.5t-34 -24t-31.5 -31t-20 -30.5l-5 29q23 -41 49 -72t53 -48t53 -17z" />
    <glyph glyph-name="lam_alefWaslaar" unicode="&#xfedf;&#xfb51;" horiz-adv-x="520" 
d="M130 681q-20 0 -46 2t-49 4.5t-35 4.5l6 53q12 -1 34 -3.5t46 -4.5t44 -2q48 0 63 11t15 26q0 17 -9.5 24.5t-21.5 7.5q-13 0 -26.5 -9t-26 -25.5t-24.5 -40.5l-59 1q12 28 30.5 57.5t45.5 50t63 20.5q33 0 57.5 -21t24.5 -61q0 -25 -11.5 -46.5t-40 -35t-80.5 -13.5z
M346 536q0 29 -3.5 61t-8 62t-8.5 52l112 17q3 -20 7 -53t6.5 -68t2.5 -63q0 -44 -7.5 -85.5t-22 -81t-34.5 -78.5l-18 -29q-24 -41 -56.5 -81t-70.5 -78h64q36 0 54 6.5t25 17t7 24.5q0 24 -28.5 62t-78.5 85t-115 100t-138 108l59 89q95 -71 164.5 -130t116.5 -107
t75.5 -88t41 -73.5t12.5 -62.5q0 -26 -8.5 -51.5t-28 -46t-52 -32.5t-81.5 -12h-228v114q84 74 137 141.5t78 136t25 144.5z" />
    <glyph glyph-name="lam_alefWaslaar.fina" unicode="&#xfee0;&#xfb51;" horiz-adv-x="660" 
d="M130 681q-20 0 -46 2t-49 4.5t-35 4.5l6 53q13 -1 34.5 -3.5t45.5 -4.5t44 -2q48 0 63 11t15 26q0 17 -9.5 24.5t-21.5 7.5q-13 0 -26.5 -9t-26 -25.5t-24.5 -40.5l-59 1q12 28 30.5 57.5t45.5 50t62 20.5q34 0 58.5 -21t24.5 -61q0 -25 -11.5 -46.5t-40 -35t-80.5 -13.5
zM581 -5q-48 0 -85.5 10.5t-63 32t-39 55t-15.5 80.5l-19 556h109l22 -503q2 -51 10 -77.5t28 -36t58 -9.5q31 0 44.5 -14t13.5 -34q0 -26 -15 -43t-48 -17zM142 -5q-31 0 -58.5 4.5t-38.5 6.5l16 116q66 -9 123 -3t99.5 34t66.5 82.5t24 141.5l48 -143
q-10 -61 -32.5 -103.5t-53.5 -69t-65.5 -41t-67.5 -20t-61 -5.5zM317 132q-14 30 -39 70t-60 89t-80.5 103t-102.5 110l76 81q71 -79 118.5 -137t78 -101t50 -76t33.5 -61z" />
    <glyph glyph-name="uni0620.init" unicode="&#x620;" horiz-adv-x="303" 
d="M0 -5l10 108q50 0 79.5 6.5t42.5 25.5t13 54q0 30 -8 68.5t-20 79.5t-25 78l104 33q13 -33 25 -76.5t20 -89t8 -84.5q0 -61 -18 -100.5t-51 -62t-79 -31.5t-101 -9zM166 -90q-34 0 -57 23.5t-23 56.5t23 56t57 23q33 0 55.5 -23t22.5 -56t-22.5 -56.5t-55.5 -23.5z
M166 -40q13 0 22.5 8t9.5 22t-9.5 22.5t-23.5 8.5q-13 0 -22 -9t-9 -22t9 -21.5t23 -8.5z" />
    <glyph glyph-name="uni0620.medi" unicode="&#x620;" horiz-adv-x="353" 
d="M0 -5l10 108q36 0 57.5 7.5t35 30t23 65.5t20.5 114l104 -19q-3 -17 -7 -37.5t-7 -41t-3 -38.5t6 -33t20 -26t39.5 -16.5t65.5 -5.5q27 0 40 -15t13 -37q0 -25 -15.5 -40.5t-47.5 -15.5q-50 0 -84.5 8t-56 24t-33.5 40t-15 56l38 -1q-17 -42 -39 -67.5t-48 -38t-55 -17
t-61 -4.5zM112 -100q-33 0 -56 23.5t-23 56.5t23 56t56 23q34 0 56.5 -23t22.5 -56t-22.5 -56.5t-56.5 -23.5zM113 -50q13 0 22.5 8t9.5 22t-9.5 22.5t-22.5 8.5q-14 0 -23 -9t-9 -22t9.5 -21.5t22.5 -8.5z" />
    <glyph glyph-name="uni0620.fina" unicode="&#x620;" horiz-adv-x="655" 
d="M310 -341q-33 0 -56 23.5t-23 56.5t23 56t56 23q34 0 56.5 -23t22.5 -56t-22.5 -56.5t-56.5 -23.5zM310 -291q14 0 23.5 8.5t9.5 21.5q0 14 -9.5 22.5t-23.5 8.5q-13 0 -22 -9t-9 -22t9 -21.5t22 -8.5zM38 0q0 25 4.5 58.5t17 74t33.5 86.5l97 -39q-14 -35 -23.5 -63
t-13.5 -52t-4 -45q0 -40 13.5 -67t37.5 -43.5t54.5 -24.5t63.5 -8q53 0 91.5 12t63.5 30t37 38t12 35q0 8 -6.5 17t-22.5 18.5t-42 20t-65 22.5l30 103q51 -19 89.5 -32.5t68 -21.5t51.5 -12t41 -4q26 0 39.5 -15t13.5 -37q0 -25 -15 -40.5t-48 -15.5h-9.5t-11 0.5
t-10.5 0.5q2 -6 3.5 -13.5t1.5 -15.5q0 -32 -19.5 -66t-58.5 -64t-98 -48.5t-137 -18.5q-91 0 -153 27.5t-94 79t-32 123.5z" />
    <glyph glyph-name="uni063B.init" unicode="&#x63b;" horiz-adv-x="363" 
d="M215 712q-22 0 -36.5 14.5t-14.5 34.5q0 22 14.5 36.5t36.5 14.5q20 0 34 -14.5t14 -36.5q0 -20 -14 -34.5t-34 -14.5zM92 654q-21 0 -36 14t-15 35q0 20 15 35.5t36 15.5q20 0 34.5 -15.5t14.5 -35.5q0 -21 -14.5 -35t-34.5 -14zM0 -5l10 108h79q28 0 46.5 6.5t28 17.5
t13.5 25t4 27q0 36 -22.5 73.5t-51.5 71.5q-22 25 -38.5 43.5t-28 32.5t-17.5 23.5t-6 16.5q0 13 2.5 31t7 35t10.5 24q12 13 33 30.5t53.5 40t80 51.5t113.5 64l53 -89q-56 -31 -98.5 -55t-75.5 -44.5t-58 -39.5t-46 -38l7 50q39 -45 74 -86.5t63 -81t44 -80t16 -84.5
q0 -30 -10 -60t-34.5 -56t-66 -41.5t-104.5 -15.5h-81z" />
    <glyph glyph-name="uni063B.medi" unicode="&#x63b;" horiz-adv-x="404" 
d="M220 711q-22 0 -37 14.5t-15 34.5q0 22 15 36.5t37 14.5q20 0 34 -14.5t14 -36.5q0 -20 -14 -34.5t-34 -14.5zM96 653q-21 0 -35.5 14t-14.5 35q0 20 14.5 35.5t35.5 15.5t35.5 -15.5t14.5 -35.5q0 -21 -14.5 -35t-35.5 -14zM0 -5l9 108h74q35 0 56 8.5t31.5 26
t10.5 41.5q0 18 -12 42.5t-30.5 51t-39.5 53t-39.5 49.5t-30.5 39.5t-12 23.5q0 15 2.5 34t7 35.5t11.5 23.5q18 18 47 40t66 46.5t79 49.5t86 48l53 -89q-45 -24 -85 -47.5t-74.5 -45t-62.5 -41t-49 -38.5l-3 47q26 -32 51 -62.5t49.5 -64t48 -73t46.5 -88.5q23 -46 41 -70
t37.5 -32t46.5 -8t40 -15t13 -37q0 -24 -15 -40t-48 -16q-39 0 -69.5 12.5t-53.5 40t-41 74.5l38 -5q-8 -34 -26 -57.5t-44 -38t-59.5 -20.5t-72.5 -6h-77z" />
    <glyph glyph-name="uni063B.fina" unicode="&#x63b;" horiz-adv-x="832" 
d="M633 712q-21 0 -36 14.5t-15 34.5q0 22 15 36.5t36 14.5t35 -14.5t14 -36.5q0 -20 -14 -34.5t-35 -14.5zM510 654q-21 0 -35.5 14t-14.5 35q0 20 14.5 35.5t35.5 15.5t35 -15.5t14 -35.5q0 -21 -14 -35t-35 -14zM332 -21l25 108q60 0 107 4t79 14t48.5 27.5t16.5 44.5
q0 20 -12 44.5t-30.5 51.5t-39 53t-39 48.5t-30.5 39.5t-12 25q0 14 2.5 32t7 34.5t10.5 23.5q25 26 68.5 57t98 64.5t112.5 65.5l53 -89q-64 -36 -115 -66.5t-90.5 -57.5t-69.5 -53v51q26 -28 52.5 -61.5t53 -71t50.5 -77.5t43 -82q15 -34 28.5 -55t27 -32t29.5 -15t37 -4
q27 0 40 -15t13 -37q0 -24 -15 -40t-47 -16q-37 0 -69.5 13.5t-56 41.5t-36.5 72l35 2q-12 -46 -42 -74.5t-77 -44t-111 -21t-145 -5.5zM332 -21q-72 0 -128 13t-94.5 39.5t-58 65.5t-19.5 92q0 28 5.5 59.5t14 62.5t16.5 56l95 -26q-5 -17 -10.5 -38.5t-9.5 -45t-4 -44.5
q0 -36 17.5 -65t65 -45t135.5 -16l20 -77z" />
    <glyph glyph-name="uni063C.init" unicode="&#x63c;" horiz-adv-x="363" 
d="M0 -5l10 108h79q28 0 46.5 6.5t28 17.5t13.5 25t4 27q0 36 -22.5 73.5t-51.5 71.5q-22 25 -38.5 43.5t-28 32.5t-17.5 23.5t-6 16.5q0 13 2.5 31t7 35t10.5 24q12 13 33 30.5t53.5 40t80 51.5t113.5 64l53 -89q-56 -31 -98.5 -55t-75.5 -44.5t-58 -39.5t-46 -38l7 50
q39 -45 74 -86.5t63 -81t44 -80t16 -84.5q0 -30 -10 -60t-34.5 -56t-66 -41.5t-104.5 -15.5h-81zM162 -333q-23 0 -39.5 16t-16.5 39t16.5 40t39.5 17q22 0 38.5 -17t16.5 -40t-16.5 -39t-38.5 -16zM88 -203q-23 0 -39.5 16t-16.5 39t16.5 40t39.5 17t39 -17t16 -40
t-16.5 -39t-38.5 -16zM238 -203q-23 0 -39.5 16t-16.5 39t16.5 40t39.5 17q22 0 38.5 -17t16.5 -40t-16.5 -39t-38.5 -16z" />
    <glyph glyph-name="uni063C.medi" unicode="&#x63c;" horiz-adv-x="404" 
d="M0 -5l9 108h74q35 0 56 8.5t31.5 26t10.5 41.5q0 18 -12 42.5t-30.5 51t-39.5 53t-39.5 49.5t-30.5 39.5t-12 23.5q0 15 2.5 34t7 35.5t11.5 23.5q18 18 47 40t66 46.5t79 49.5t86 48l53 -89q-45 -24 -85 -47.5t-74.5 -45t-62.5 -41t-49 -38.5l-3 47q26 -32 51 -62.5
t49.5 -64t48 -73t46.5 -88.5q23 -46 41 -70t37.5 -32t46.5 -8t40 -15t13 -37q0 -24 -15 -40t-48 -16q-39 0 -69.5 12.5t-53.5 40t-41 74.5l38 -5q-8 -34 -26 -57.5t-44 -38t-59.5 -20.5t-72.5 -6h-77zM160 -333q-23 0 -39.5 16t-16.5 39t16.5 40t39.5 17q22 0 38.5 -17
t16.5 -40t-16.5 -39t-38.5 -16zM86 -203q-23 0 -39.5 16t-16.5 39t16.5 40t39.5 17t39 -17t16 -40t-16.5 -39t-38.5 -16zM236 -203q-23 0 -39.5 16t-16.5 39t16.5 40t39.5 17q22 0 38.5 -17t16.5 -40t-16.5 -39t-38.5 -16z" />
    <glyph glyph-name="uni063C.fina" unicode="&#x63c;" horiz-adv-x="832" 
d="M332 -21l25 108q60 0 107 4t79 14t48.5 27.5t16.5 44.5q0 20 -12 44.5t-30.5 51.5t-39 53t-39 48.5t-30.5 39.5t-12 25q0 14 2.5 32t7 34.5t10.5 23.5q25 26 68.5 57t98 64.5t112.5 65.5l53 -89q-64 -36 -115 -66.5t-90.5 -57.5t-69.5 -53v51q26 -28 52.5 -61.5t53 -71
t50.5 -77.5t43 -82q15 -34 28.5 -55t27 -32t29.5 -15t37 -4q27 0 40 -15t13 -37q0 -24 -15 -40t-47 -16q-37 0 -69.5 13.5t-56 41.5t-36.5 72l35 2q-12 -46 -42 -74.5t-77 -44t-111 -21t-145 -5.5zM332 -21q-72 0 -128 13t-94.5 39.5t-58 65.5t-19.5 92q0 28 5.5 59.5
t14 62.5t16.5 56l95 -26q-5 -17 -10.5 -38.5t-9.5 -45t-4 -44.5q0 -36 17.5 -65t65 -45t135.5 -16l20 -77zM367 -354q-23 0 -39.5 16t-16.5 39t16.5 40t39.5 17q22 0 38.5 -17t16.5 -40t-16.5 -39t-38.5 -16zM293 -224q-23 0 -39.5 16t-16.5 39t16.5 40t39.5 17t39 -17
t16 -40t-16.5 -39t-38.5 -16zM443 -224q-23 0 -39.5 16t-16.5 39t16.5 40t39.5 17q22 0 38.5 -17t16.5 -40t-16.5 -39t-38.5 -16z" />
    <glyph glyph-name="uni063D.init" unicode="&#x63d;" horiz-adv-x="246" 
d="M0 -5l10 108q22 0 40 7.5t28.5 27t10.5 52.5q0 29 -7.5 67.5t-19.5 80t-25 77.5l104 33q13 -33 25 -77t20 -90.5t8 -90.5q0 -45 -11.5 -77.5t-31 -55.5t-44.5 -36.5t-52 -19.5t-55 -6zM99 733q7 -13 16.5 -38.5t20.5 -54t20.5 -54t16.5 -40.5l-48 -21q-4 9 -12.5 30.5
t-18.5 47.5t-19.5 49.5t-16.5 36.5l-19 39zM40 728l43 -18q-5 -16 -15 -43.5t-20.5 -57.5t-18.5 -54t-11 -31l-47 16q3 9 12 34t20 55t21 57.5t16 41.5zM184 -210q-25 0 -42 16.5t-17 40.5t16.5 41.5t42.5 17.5q23 0 39.5 -17.5t16.5 -41.5t-16.5 -40.5t-39.5 -16.5z
M34 -210q-25 0 -42 16.5t-17 40.5t16.5 41.5t42.5 17.5q23 0 39.5 -17.5t16.5 -41.5t-16.5 -40.5t-39.5 -16.5z" />
    <glyph glyph-name="uni063D.medi" unicode="&#x63d;" horiz-adv-x="285" 
d="M0 -5l10 108q23 0 39 7t27.5 29t21 65t20.5 114l104 -17q-3 -17 -7 -37.5t-7 -41t-3 -38.5q0 -24 9 -42.5t29 -28.5t53 -10q27 0 40 -15t13 -37q0 -25 -15 -40.5t-47 -15.5q-46 0 -78 14t-50.5 42.5t-23.5 71.5l40 -1q-15 -46 -37.5 -72t-47.5 -37.5t-49 -14.5t-41 -3z
M170 643q7 -13 16.5 -38.5t20.5 -54t20.5 -54t16.5 -40.5l-48 -21q-4 9 -12.5 30.5t-18.5 47.5t-19.5 49.5t-16.5 36.5l-19 39zM111 638l43 -18q-5 -16 -15 -43.5t-20.5 -57.5t-18.5 -54t-11 -31l-47 16q3 9 12 34t20 55t21 57.5t16 41.5zM208 -210q-25 0 -42 16.5t-17 40.5
t16.5 41.5t42.5 17.5q23 0 39.5 -17.5t16.5 -41.5t-16.5 -40.5t-39.5 -16.5zM58 -210q-25 0 -42 16.5t-17 40.5t16.5 41.5t42.5 17.5q23 0 39.5 -17.5t16.5 -41.5t-16.5 -40.5t-39.5 -16.5z" />
    <glyph glyph-name="uni063D.fina" unicode="&#x63d;" horiz-adv-x="655" 
d="M38 0q0 25 4.5 58.5t17 74t33.5 86.5l97 -39q-14 -35 -23.5 -63t-13.5 -52t-4 -45q0 -40 13.5 -67t37.5 -43.5t54.5 -24.5t63.5 -8q53 0 91.5 12t63.5 30t37 38t12 35q0 8 -6.5 17t-22.5 18.5t-42 20t-65 22.5l30 103q51 -19 89.5 -32.5t68 -21.5t51.5 -12t41 -4
q26 0 39.5 -15t13.5 -37q0 -25 -15 -40.5t-48 -15.5h-9.5t-11 0.5t-10.5 0.5q2 -6 3.5 -13.5t1.5 -15.5q0 -32 -19.5 -66t-58.5 -64t-98 -48.5t-137 -18.5q-91 0 -153 27.5t-94 79t-32 123.5zM232 510q7 -13 16.5 -38.5t20.5 -54t20.5 -54t16.5 -40.5l-48 -21
q-4 9 -12.5 30.5t-18.5 47.5t-19.5 49.5t-16.5 36.5l-19 39zM173 505l43 -18q-5 -16 -15 -43.5t-20.5 -57.5t-18.5 -54t-11 -31l-47 16q3 9 12 34t20 55t21 57.5t16 41.5z" />
    <glyph glyph-name="uni063E.init" unicode="&#x63e;" horiz-adv-x="303" 
d="M0 -5l10 108q50 0 79.5 6.5t42.5 25.5t13 54q0 30 -8 68.5t-20 79.5t-25 78l104 33q13 -33 25 -76.5t20 -88.5t8 -85q0 -61 -18 -100.5t-51 -62t-79 -31.5t-101 -9zM219 562q-25 0 -41.5 17t-16.5 40q0 24 16.5 41.5t41.5 17.5q24 0 40.5 -17.5t16.5 -41.5t-17 -40.5
t-40 -16.5zM69 562q-25 0 -42 17t-17 40q0 24 17 41.5t42 17.5q23 0 40 -17.5t17 -41.5t-17 -40.5t-40 -16.5zM199 -210q-25 0 -41.5 16.5t-16.5 40.5t16.5 41.5t41.5 17.5q23 0 40 -17.5t17 -41.5t-17 -40.5t-40 -16.5zM49 -210q-25 0 -42 16.5t-17 40.5t16.5 41.5
t42.5 17.5q23 0 40 -17.5t17 -41.5t-17 -40.5t-40 -16.5z" />
    <glyph glyph-name="uni063E.medi" unicode="&#x63e;" horiz-adv-x="353" 
d="M0 -5l10 108q36 0 57.5 7.5t35 30t23 65.5t20.5 114l104 -19q-3 -17 -7 -37.5t-7 -41t-3 -38.5t6 -33t20 -26t39.5 -16.5t65.5 -5.5q27 0 40 -15t13 -37q0 -25 -15.5 -40.5t-47.5 -15.5q-50 0 -84.5 8t-56 24t-33.5 40t-15 56l38 -1q-17 -42 -39 -67.5t-48 -38t-55 -17
t-61 -4.5zM278 479q-25 0 -42 16.5t-17 40.5t16.5 41.5t42.5 17.5q23 0 39.5 -17.5t16.5 -41.5t-16.5 -40.5t-39.5 -16.5zM127 479q-24 0 -41 16.5t-17 40.5t16.5 41.5t41.5 17.5q24 0 40.5 -17.5t16.5 -41.5t-17 -40.5t-40 -16.5zM242 -210q-25 0 -42 16.5t-17 40.5
t16.5 41.5t42.5 17.5q23 0 39.5 -17.5t16.5 -41.5t-16.5 -40.5t-39.5 -16.5zM91 -210q-24 0 -41 16.5t-17 40.5t16.5 41.5t41.5 17.5q24 0 40.5 -17.5t16.5 -41.5t-16.5 -40.5t-40.5 -16.5z" />
    <glyph glyph-name="uni063E.fina" unicode="&#x63e;" horiz-adv-x="655" 
d="M38 0q0 25 4.5 58.5t17 74t33.5 86.5l97 -39q-14 -35 -23.5 -63t-13.5 -52t-4 -45q0 -40 13.5 -67t37.5 -43.5t54.5 -24.5t63.5 -8q53 0 91.5 12t63.5 30t37 38t12 35q0 8 -6.5 17t-22.5 18.5t-42 20t-65 22.5l30 103q51 -19 89.5 -32.5t68 -21.5t51.5 -12t41 -4
q26 0 39.5 -15t13.5 -37q0 -25 -15 -40.5t-48 -15.5h-9.5t-11 0.5t-10.5 0.5q2 -6 3.5 -13.5t1.5 -15.5q0 -32 -19.5 -66t-58.5 -64t-98 -48.5t-137 -18.5q-91 0 -153 27.5t-94 79t-32 123.5zM298 336q-25 0 -41.5 16.5t-16.5 40.5t16.5 41.5t41.5 17.5q24 0 40.5 -17.5
t16.5 -41.5t-17 -40.5t-40 -16.5zM148 336q-25 0 -41.5 16.5t-16.5 40.5t16.5 41.5t41.5 17.5q23 0 40 -17.5t17 -41.5t-17 -40.5t-40 -16.5z" />
    <glyph glyph-name="uni063F.init" unicode="&#x63f;" horiz-adv-x="303" 
d="M0 -5l10 108q50 0 79.5 6.5t42.5 25.5t13 54q0 30 -8 68.5t-20 79.5t-25 78l104 33q13 -33 25 -76.5t20 -88.5t8 -85q0 -61 -18 -100.5t-51 -62t-79 -31.5t-101 -9zM148 675q-25 0 -41.5 16.5t-16.5 40.5t16.5 41t41.5 17q24 0 40.5 -17t16.5 -41t-17 -40.5t-40 -16.5z
M75 543q-24 0 -41 17t-17 40q0 24 17 41.5t42 17.5q23 0 40 -17.5t17 -41.5t-17 -40.5t-41 -16.5zM227 543q-25 0 -41.5 17t-16.5 40q0 25 16.5 42t41.5 17q24 0 40.5 -17t16.5 -42q0 -24 -17 -40.5t-40 -16.5zM199 -210q-25 0 -41.5 16.5t-16.5 40.5t16.5 41.5t41.5 17.5
q23 0 40 -17.5t17 -41.5t-17 -40.5t-40 -16.5zM49 -210q-25 0 -42 16.5t-17 40.5t16.5 41.5t42.5 17.5q23 0 40 -17.5t17 -41.5t-17 -40.5t-40 -16.5z" />
    <glyph glyph-name="uni063F.medi" unicode="&#x63f;" horiz-adv-x="353" 
d="M0 -5l10 108q36 0 57.5 7.5t35 30t23 65.5t20.5 114l104 -19q-3 -17 -7 -37.5t-7 -41t-3 -38.5t6 -33t20 -26t39.5 -16.5t65.5 -5.5q27 0 40 -15t13 -37q0 -25 -15.5 -40.5t-47.5 -15.5q-50 0 -84.5 8t-56 24t-33.5 40t-15 56l38 -1q-17 -42 -39 -67.5t-48 -38t-55 -17
t-61 -4.5zM185 591q-25 0 -42 17t-17 41t17 41t42 17q23 0 40 -17t17 -41t-17 -41t-40 -17zM112 460q-24 0 -41 17t-17 40q0 24 17 41.5t41 17.5t41 -17.5t17 -41.5t-17.5 -40.5t-40.5 -16.5zM264 460q-25 0 -42 17t-17 40q0 25 17 42t42 17q23 0 40 -17t17 -42
q0 -24 -17 -40.5t-40 -16.5zM242 -210q-25 0 -42 16.5t-17 39.5q0 25 17 42.5t42 17.5q23 0 39.5 -17.5t16.5 -41.5t-16.5 -40.5t-39.5 -16.5zM91 -210q-24 0 -41 16.5t-17 39.5q0 25 16.5 42.5t41.5 17.5q24 0 40.5 -17.5t16.5 -41.5t-16.5 -40.5t-40.5 -16.5z" />
    <glyph glyph-name="uni063F.fina" unicode="&#x63f;" horiz-adv-x="655" 
d="M38 0q0 25 4.5 58.5t17 74t33.5 86.5l97 -39q-14 -35 -23.5 -63t-13.5 -52t-4 -45q0 -40 13.5 -67t37.5 -43.5t54.5 -24.5t63.5 -8q53 0 91.5 12t63.5 30t37 38t12 35q0 8 -6.5 17t-22.5 18.5t-42 20t-65 22.5l30 103q51 -19 89.5 -32.5t68 -21.5t51.5 -12t41 -4
q26 0 39.5 -15t13.5 -37q0 -25 -15 -40.5t-48 -15.5h-9.5t-11 0.5t-10.5 0.5q2 -6 3.5 -13.5t1.5 -15.5q0 -32 -19.5 -66t-58.5 -64t-98 -48.5t-137 -18.5q-91 0 -153 27.5t-94 79t-32 123.5zM220 467q-25 0 -41.5 17t-16.5 40q0 25 16.5 42t41.5 17q23 0 40 -17t17 -41
q0 -25 -17 -41.5t-40 -16.5zM147 336q-24 0 -41 16.5t-17 40.5t17 41.5t41 17.5t41 -17.5t17 -41.5t-17.5 -40.5t-40.5 -16.5zM299 336q-25 0 -42 16.5t-17 40.5q0 25 17 42t42 17q23 0 40 -17t17 -42q0 -24 -17 -40.5t-40 -16.5z" />
    <glyph glyph-name="uni066E.init" unicode="&#x66e;" horiz-adv-x="246" 
d="M0 -5l10 108q22 0 40 7.5t28.5 27t10.5 52.5q0 29 -7.5 67.5t-19.5 80t-25 77.5l104 33q13 -33 25 -77t20 -90.5t8 -90.5q0 -45 -11.5 -77.5t-31 -55.5t-44.5 -36.5t-52 -19.5t-55 -6z" />
    <glyph glyph-name="uni066E.medi" unicode="&#x66e;" horiz-adv-x="285" 
d="M0 -5l10 108q23 0 39 7t27.5 29t21 65t20.5 114l104 -17q-3 -17 -7 -37.5t-7 -41t-3 -38.5q0 -24 9 -42.5t29 -28.5t53 -10q27 0 40 -15t13 -37q0 -25 -15 -40.5t-47 -15.5q-46 0 -78 14t-50.5 42.5t-23.5 71.5l40 -1q-15 -46 -37.5 -72t-47.5 -37.5t-49 -14.5t-41 -3z
" />
    <glyph glyph-name="uni066E.fina" unicode="&#x66e;" horiz-adv-x="878" 
d="M339 -21l27 108q52 0 101.5 8.5t95.5 28t87 54t76 86.5l84 -45q-8 -21 -11.5 -35.5t-3.5 -25.5q0 -14 9.5 -27t30 -20.5t53.5 -7.5q27 0 40 -15t13 -37q0 -25 -15 -40.5t-48 -15.5q-46 0 -87 14.5t-63.5 45.5t-14.5 77l31 2q-27 -41 -69 -70.5t-95.5 -48t-114.5 -27.5
t-126 -9zM340 -21q-72 0 -127.5 13t-94 39.5t-58.5 65.5t-20 92q0 28 5.5 59.5t14.5 62.5t16 56l95 -26q-4 -17 -10 -38.5t-10 -45t-4 -44.5q0 -36 17.5 -65t65 -45t136.5 -16l20 -77z" />
    <glyph glyph-name="uni066F.init" unicode="&#x66f;" horiz-adv-x="410" 
d="M0 -5l9 108h50.5t52.5 1.5t49.5 6t41.5 12.5q24 10 38.5 30t21 51t6.5 74q0 48 -7.5 84.5t-21.5 56.5t-34 20q-15 0 -28 -13.5t-21 -37t-8 -55.5q0 -23 9 -36.5t24 -19.5t32 -6q18 0 37.5 5t36.5 15l4 -81q-13 -12 -30 -19.5t-35 -11t-37 -3.5q-47 0 -80 19t-49.5 51
t-16.5 72q0 42 11.5 81t34 70.5t53.5 50t69 18.5q52 0 88 -34t55 -94.5t19 -140.5q0 -77 -24 -137t-78 -93q-25 -15 -56 -23.5t-66 -13t-72.5 -6t-77.5 -1.5z" />
    <glyph glyph-name="uni066F.medi" unicode="&#x66f;" horiz-adv-x="420" 
d="M0 -5l9 108q21 0 44.5 1.5t47.5 5t46.5 9.5t40.5 15q27 13 47 30.5t30 41t10 51.5q0 23 -8 44t-20.5 34t-27.5 13q-13 0 -27 -12.5t-22.5 -33.5t-8.5 -47q0 -28 11 -51t30.5 -41t43.5 -33l-100 -43q-23 20 -44 44t-34.5 56t-13.5 73q0 36 13 69.5t36 60.5t53.5 43
t65.5 16q47 0 83.5 -26.5t56.5 -68t20 -86.5q0 -41 -11.5 -75t-32 -61t-46.5 -47.5t-55 -37.5q-25 -14 -55 -24.5t-61.5 -16.5t-63 -8.5t-57.5 -2.5zM421 -5q-38 0 -80.5 6t-82 18t-69.5 28l67 76q27 -8 60 -12.5t63.5 -6t51.5 -1.5q26 0 39.5 -15t13.5 -37q0 -24 -15.5 -40
t-47.5 -16z" />
    <glyph glyph-name="uni066F.fina" unicode="&#x66f;" horiz-adv-x="730" 
d="M310 -272q-52 0 -102.5 13.5t-91 42.5t-64.5 75t-24 111q0 20 4 50.5t16 72t36 91.5l97 -40q-14 -35 -23.5 -61t-13.5 -49.5t-4 -49.5q0 -49 23.5 -82t65 -50t96.5 -17q32 0 61.5 5t55 14t46.5 22.5t37 30.5t27 39q14 28 20.5 66.5t6.5 87.5q0 47 -7.5 84t-21 58.5
t-32.5 21.5q-14 0 -24.5 -9.5t-18 -25t-11 -33t-3.5 -33.5q0 -21 6 -34t22 -20t43 -8.5t69 2.5h139q27 0 40 -15t13 -37q0 -25 -15 -40.5t-47 -15.5h-168q-49 0 -87.5 8t-65.5 26t-41 46t-14 67q0 41 12.5 80.5t34.5 71t53.5 50.5t70.5 19q49 0 85 -34.5t55 -94.5t19 -139
q0 -62 -13 -113.5t-35 -90.5q-23 -42 -57 -72.5t-76.5 -51t-91.5 -30t-102 -9.5z" />
    <glyph glyph-name="uni0672.fina" unicode="&#x672;" horiz-adv-x="265" 
d="M265 -5q-64 0 -103.5 18.5t-58 57.5t-21.5 101l-18 484h110l18 -429q3 -51 11 -78t25 -36.5t47 -9.5q28 0 40.5 -14.5t12.5 -37.5q0 -25 -15 -40.5t-48 -15.5zM-34 735l-44 29q11 26 30.5 37t35.5 11q21 0 39 -10t32 -10q10 0 20.5 1t17.5 5l-8 -18q-26 9 -47 33t-21 55
q0 41 29 63.5t69 22.5q11 0 23.5 -2t22.5 -6l-8 -52q-9 2 -17 4t-18 2q-22 0 -32.5 -8.5t-10.5 -23.5q0 -18 11.5 -32t27 -21t26.5 -8l-32 -5q25 6 43 13.5t35 14.5l17 -50q-7 -4 -24.5 -11t-39.5 -14.5t-43 -12.5t-37 -5q-22 0 -39.5 10t-28.5 10q-9 0 -16 -6.5t-13 -15.5z
" />
    <glyph glyph-name="uni0673.fina" unicode="&#x673;" horiz-adv-x="267" 
d="M268 -5q-64 0 -103.5 18.5t-58.5 57.5t-21 101l-21 549h110l20 -494q2 -51 10.5 -78t26 -36.5t47.5 -9.5q27 0 40 -14.5t13 -37.5q0 -25 -15 -40.5t-48 -15.5zM7 -295l-44 28q11 26 30.5 37t35.5 11q21 0 38.5 -10t32.5 -10q10 0 20.5 1t17.5 5l-8 -18q-26 9 -47 33
t-21 55q0 41 29 63.5t69 22.5q11 0 23.5 -2t22.5 -6l-8 -51q-9 2 -17 3.5t-19 1.5q-21 0 -32 -8.5t-11 -23.5q0 -18 12 -31.5t27.5 -21t26.5 -7.5l-33 -6q26 6 44 13.5t35 14.5l17 -50q-7 -4 -24.5 -11t-39.5 -14.5t-43 -12.5t-37 -5q-23 0 -40 10t-28 10q-9 0 -16 -6
t-13 -15z" />
    <glyph glyph-name="uni0675.fina" unicode="&#x675;" horiz-adv-x="465" 
d="M465 -5h-200q-63 0 -102 18.5t-57.5 58t-20.5 100.5l-21 549h110l20 -494q2 -49 10 -76.5t25 -37.5t46 -10h200q28 0 40.5 -14.5t12.5 -37.5q0 -25 -15 -40.5t-48 -15.5zM260 585l-14 58q31 5 47 9t35 9l-9 -24q-26 8 -48 33t-22 58q0 32 14.5 52.5t37.5 30t49 9.5
q13 0 25.5 -2t23.5 -6l-8 -54q-9 2 -18.5 3.5t-20.5 1.5q-21 0 -32.5 -9t-11.5 -24q0 -19 12 -33t28.5 -21.5t27.5 -8.5l-41 -3q26 6 49 13t41 14l18 -55q-24 -9 -55 -18.5t-64.5 -18t-63.5 -14.5z" />
    <glyph glyph-name="uni0676.fina" unicode="&#x676;" horiz-adv-x="430" 
d="M47 -230l-24 100q65 12 112 30t77.5 45.5t45.5 64.5t15 85q1 76 -15.5 122t-47.5 46q-17 0 -29.5 -15t-19.5 -39t-7 -49q0 -19 6 -32t19.5 -19.5t38.5 -7.5t63 2h159q24 0 39 -14t15 -38q0 -28 -16.5 -42t-46.5 -14h-186q-65 0 -108.5 18t-65.5 51t-22 78q0 40 12 81
t34.5 76t53.5 55.5t70 20.5q52 0 88 -35t54 -96.5t18 -141.5q-1 -99 -42.5 -167.5t-115.5 -108.5t-174 -56zM253 419l-12 53q28 5 43 8.5t32 7.5l-9 -19q-22 8 -43 29.5t-21 54.5q0 27 12.5 45t33.5 28t46 10q10 0 22.5 -2t22.5 -6l-7 -48q-9 2 -18 3.5t-17 1.5
q-20 0 -29.5 -9t-9.5 -23q0 -17 11 -30t25.5 -19.5t24.5 -7.5l-37 -6q23 7 43.5 13.5t37.5 12.5l16 -50q-22 -8 -50.5 -17t-58.5 -16.5t-58 -13.5z" />
    <glyph glyph-name="uni0677.fina" unicode="&#x677;" horiz-adv-x="457" 
d="M74 -230l-24 100q65 12 112 30t77.5 45.5t45.5 64.5t15 85q1 76 -15.5 122t-47.5 46q-17 0 -29.5 -15t-19.5 -39t-7 -49q0 -19 6 -32t19.5 -19.5t38.5 -7.5t63 2h159q24 0 39 -14t15 -38q0 -28 -16.5 -42t-46.5 -14h-186q-65 0 -108.5 18t-65.5 51t-22 78q0 40 12 81
t34.5 76t53.5 55.5t70 20.5q52 0 88 -35t54 -96.5t18 -141.5q-1 -99 -42.5 -167.5t-115.5 -108.5t-174 -56zM291 418l-12 53q28 5 43 8.5t32 7.5l-9 -19q-22 8 -43 29.5t-21 54.5q0 27 12.5 45t33.5 28t46 10q10 0 22.5 -2t22.5 -6l-7 -48q-9 2 -18 3.5t-17 1.5
q-20 0 -29.5 -9t-9.5 -23q0 -17 11 -30t25.5 -19.5t24.5 -7.5l-37 -6q23 7 43.5 13.5t37.5 12.5l16 -50q-22 -8 -50.5 -17t-58.5 -16.5t-58 -13.5zM32 409l-9 51q59 2 98.5 16.5t59 36t19.5 42.5q0 15 -7 25.5t-22 10.5q-14 0 -22.5 -9t-8.5 -23q0 -18 14.5 -32t34.5 -22
l-35 -32q-28 11 -48.5 32.5t-20.5 55.5q0 35 24.5 59t62.5 24q41 0 61.5 -26.5t20.5 -61.5q0 -40 -27 -72t-76.5 -51t-118.5 -24z" />
    <glyph glyph-name="uni0678.init" unicode="&#x678;" horiz-adv-x="323" 
d="M0 -5l10 108q22 0 40 7.5t28.5 27t10.5 52.5q0 29 -7.5 67.5t-19.5 80t-25 77.5l104 33q13 -33 25 -77t20 -90.5t8 -90.5q0 -45 -11.5 -77.5t-31 -55.5t-44.5 -36.5t-52 -19.5t-55 -6zM140 585l-14 58q31 5 47 9t35 9l-9 -24q-26 8 -48 33t-22 58q0 32 14.5 52.5t37.5 30
t49 9.5q13 0 25.5 -2t23.5 -6l-8 -54q-9 2 -18.5 3.5t-20.5 1.5q-21 0 -32.5 -9t-11.5 -24q0 -19 12 -33t28.5 -21.5t27.5 -8.5l-41 -3q26 6 49 13t41 14l18 -55q-24 -9 -55 -18.5t-64.5 -18t-63.5 -14.5z" />
    <glyph glyph-name="uni0678.medi" unicode="&#x678;" horiz-adv-x="287" 
d="M0 -5l10 108q23 0 39 7t27.5 29t21 65t20.5 114l104 -17q-3 -17 -7 -37.5t-7 -41t-3 -38.5q0 -24 9 -42.5t29 -28.5t53 -10q27 0 40 -15t13 -37q0 -25 -15 -40.5t-47 -15.5q-46 0 -78 14t-50.5 42.5t-23.5 71.5l40 -1q-15 -46 -37.5 -72t-47.5 -37.5t-49 -14.5t-41 -3z
M128 416l-14 58q31 5 47 9t35 9l-9 -24q-26 8 -48 33t-22 58q0 32 14.5 52.5t37.5 30t49 9.5q13 0 25.5 -2t23.5 -6l-8 -54q-9 2 -18.5 3.5t-20.5 1.5q-21 0 -32.5 -9t-11.5 -24q0 -19 12 -33t28.5 -21.5t27.5 -8.5l-41 -3q26 6 49 13t41 14l18 -55q-24 -9 -55 -18.5
t-64.5 -18t-63.5 -14.5z" />
    <glyph glyph-name="uni0678.fina" unicode="&#x678;" horiz-adv-x="655" 
d="M38 0q0 25 4.5 58.5t17 74t33.5 86.5l97 -39q-14 -35 -23.5 -63t-13.5 -52t-4 -45q0 -40 13.5 -67t37.5 -43.5t54.5 -24.5t63.5 -8q53 0 91.5 12t63.5 30t37 38t12 35q0 8 -6.5 17t-22.5 18.5t-42 20t-65 22.5l30 103q51 -19 89.5 -32.5t68 -21.5t51.5 -12t41 -4
q26 0 39.5 -15t13.5 -37q0 -25 -15 -40.5t-48 -15.5h-9.5t-11 0.5t-10.5 0.5q2 -6 3.5 -13.5t1.5 -15.5q0 -32 -19.5 -66t-58.5 -64t-98 -48.5t-137 -18.5q-91 0 -153 27.5t-94 79t-32 123.5zM430 216l-14 58q31 5 47 9t35 9l-9 -24q-26 8 -48 33t-22 58q0 32 14.5 52.5
t37.5 30t49 9.5q13 0 25.5 -2t23.5 -6l-8 -54q-9 2 -18.5 3.5t-20.5 1.5q-21 0 -32.5 -9t-11.5 -24q0 -19 12 -33t28.5 -21.5t27.5 -8.5l-41 -3q26 6 49 13t41 14l18 -55q-24 -9 -55 -18.5t-64.5 -18t-63.5 -14.5z" />
    <glyph glyph-name="uni067C.init" unicode="&#x67c;" horiz-adv-x="303" 
d="M0 -5l10 108q50 0 79.5 6.5t42.5 25.5t13 54q0 30 -8 68.5t-20 79.5t-25 78l104 33q13 -33 25 -76.5t20 -89t8 -84.5q0 -61 -18 -100.5t-51 -62t-79 -31.5t-101 -9zM149 -96q-34 0 -56.5 23.5t-22.5 56.5t22.5 56t56.5 23q33 0 56 -23t23 -56t-23 -56.5t-56 -23.5z
M149 -46q13 0 22.5 8t9.5 22t-9.5 22.5t-22.5 8.5q-14 0 -23 -9t-9 -22t9.5 -21.5t22.5 -8.5zM225 543q-25 0 -42 17t-17 40q0 24 16.5 41.5t42.5 17.5q23 0 39.5 -17.5t16.5 -41.5q0 -23 -16.5 -40t-39.5 -17zM75 543q-25 0 -42 17t-17 40q0 24 16.5 41.5t42.5 17.5
q23 0 39.5 -17.5t16.5 -41.5q0 -23 -16.5 -40t-39.5 -17z" />
    <glyph glyph-name="uni067C.medi" unicode="&#x67c;" horiz-adv-x="285" 
d="M91 -102q-33 0 -56 23.5t-23 56.5t23 56.5t56 23.5q34 0 57 -23.5t23 -56.5t-23 -56.5t-57 -23.5zM92 -52q13 0 22.5 8.5t9.5 21.5q0 14 -9.5 22.5t-22.5 8.5q-14 0 -23 -9t-9 -22t9.5 -21.5t22.5 -8.5zM0 -5l10 108q23 0 39 7t27.5 29.5t21 65t20.5 113.5l104 -17
q-3 -17 -7 -37.5t-7 -41t-3 -38.5q0 -24 9 -42.5t29 -28.5t53 -10q27 0 40 -15t13 -37q0 -25 -15 -40.5t-47 -15.5q-46 0 -78 14t-50.5 42.5t-23.5 71.5l40 -1q-15 -46 -37.5 -72t-47.5 -37.5t-49 -14.5t-41 -3zM252 430q-25 0 -41.5 17t-16.5 40q0 24 16.5 41.5t41.5 17.5
q24 0 40.5 -17.5t16.5 -41.5t-17 -40.5t-40 -16.5zM102 430q-25 0 -42 17t-17 40q0 24 17 41.5t42 17.5q23 0 40 -17.5t17 -41.5t-17 -40.5t-40 -16.5z" />
    <glyph glyph-name="uni067C.fina" unicode="&#x67c;" horiz-adv-x="878" 
d="M440 -128q-33 0 -56 23.5t-23 56.5t23 56t56 23t56 -23t23 -57q0 -32 -23 -55.5t-56 -23.5zM440 -79q13 0 22.5 8.5t9.5 22.5t-9 22.5t-23 8.5q-13 0 -22.5 -9t-9.5 -22t9.5 -22t22.5 -9zM339 -21l27 108q52 0 101.5 8.5t95.5 28t87 54t76 86.5l84 -45
q-8 -21 -11.5 -35.5t-3.5 -25.5q0 -14 9.5 -27t30 -20.5t53.5 -7.5q27 0 40 -15t13 -37q0 -25 -15 -40.5t-48 -15.5q-46 0 -87 14.5t-63.5 45.5t-14.5 77l31 2q-27 -41 -69 -70.5t-95.5 -48t-114.5 -27.5t-126 -9zM340 -21q-72 0 -127.5 13t-94 39.5t-58.5 65.5t-20 92
q0 27 5.5 59t14.5 63t16 56l95 -26q-4 -17 -10 -38.5t-10 -45t-4 -44.5q0 -36 17.5 -65t65 -45t136.5 -16l20 -77zM502 429q-25 0 -41.5 16.5t-16.5 39.5q0 25 16.5 42t41.5 17q24 0 40.5 -17t16.5 -41t-17 -40.5t-40 -16.5zM352 429q-25 0 -41.5 16.5t-16.5 39.5
q0 25 16.5 42t41.5 17q24 0 40.5 -17t16.5 -41t-17 -40.5t-40 -16.5z" />
    <glyph glyph-name="uni067D.init" unicode="&#x67d;" horiz-adv-x="303" 
d="M0 -5l10 108q50 0 79.5 6.5t42.5 25.5t13 54q0 30 -8 68.5t-20 79.5t-25 78l104 33q13 -33 25 -76.5t20 -89t8 -84.5q0 -61 -18 -100.5t-51 -62t-79 -31.5t-101 -9zM147 542q-23 0 -39.5 16t-16.5 39t16.5 40t39.5 17t39 -17t16 -40t-16 -39t-39 -16zM73 672
q-23 0 -39.5 16t-16.5 39t16.5 40t39.5 17t39 -17t16 -40t-16 -39t-39 -16zM223 672q-23 0 -39.5 16t-16.5 39t16.5 40t39.5 17q22 0 38.5 -17t16.5 -40t-16.5 -39t-38.5 -16z" />
    <glyph glyph-name="uni067D.medi" unicode="&#x67d;" horiz-adv-x="353" 
d="M0 -5l10 108q36 0 57.5 7.5t35 30t23 65.5t20.5 114l104 -19q-3 -17 -7 -37.5t-7 -41t-3 -38.5t6 -33t20 -26t39.5 -16.5t65.5 -5.5q27 0 40 -15t13 -37q0 -25 -15.5 -40.5t-47.5 -15.5q-50 0 -84.5 8t-56 24t-33.5 40t-15 56l38 -1q-17 -42 -39 -67.5t-48 -38t-55 -17
t-61 -4.5zM187 459q-23 0 -39 16t-16 39t16 39.5t39 16.5t39 -16.5t16 -39.5t-16 -39t-39 -16zM113 589q-22 0 -38.5 16t-16.5 39t16 39.5t39 16.5t39 -16.5t16 -39.5t-16 -39t-39 -16zM263 589q-23 0 -39.5 16t-16.5 39t16.5 39.5t39.5 16.5t39 -16.5t16 -39.5t-16 -39
t-39 -16z" />
    <glyph glyph-name="uni067D.fina" unicode="&#x67d;" horiz-adv-x="878" 
d="M339 -21l27 108q52 0 101.5 8.5t95.5 28t87 54t76 86.5l84 -45q-8 -21 -11.5 -35.5t-3.5 -25.5q0 -14 9.5 -27t30 -20.5t53.5 -7.5q27 0 40 -15t13 -37q0 -25 -15 -40.5t-48 -15.5q-46 0 -87 14.5t-63.5 45.5t-14.5 77l31 2q-27 -41 -69 -70.5t-95.5 -48t-114.5 -27.5
t-126 -9zM340 -21q-72 0 -127.5 13t-94 39.5t-58.5 65.5t-20 92q0 28 5.5 59.5t14.5 62.5t16 56l95 -26q-4 -17 -10 -38.5t-10 -45t-4 -44.5q0 -36 17.5 -65t65 -45t136.5 -16l20 -77zM425 428q-23 0 -39.5 16t-16.5 39t16.5 39.5t39.5 16.5q22 0 38.5 -17t16.5 -39
q0 -23 -16.5 -39t-38.5 -16zM351 558q-23 0 -39.5 16t-16.5 38q0 24 16.5 40.5t39.5 16.5q22 0 38.5 -17t16.5 -39q0 -23 -16.5 -39t-38.5 -16zM501 558q-23 0 -39.5 16t-16.5 38q0 24 16 40.5t40 16.5q22 0 38 -17t16 -39q0 -23 -16 -39t-38 -16z" />
    <glyph glyph-name="uni0681.init" unicode="&#x681;" horiz-adv-x="503" 
d="M0 -5l9 108q44 0 84 8t78.5 23.5t77.5 38t82 50.5q-34 21 -64 36t-58 24t-61 9q-16 0 -29 -1t-25.5 -3t-26.5 -6l-21 105q24 8 48.5 11.5t49.5 3.5q50 0 88 -12t68 -29.5t55 -35.5t48.5 -30t48.5 -12h19l12 -100q-31 -2 -60 -16.5t-58.5 -36t-64 -45t-77 -44t-97 -33.5
t-126.5 -13zM88 472l-12 53q28 5 43 8.5t32 7.5l-9 -19q-22 8 -43 29.5t-21 54.5q0 27 12.5 45t33.5 28t46 10q10 0 22.5 -2t22.5 -6l-7 -48q-9 2 -18 3.5t-17 1.5q-20 0 -29.5 -9t-9.5 -23q0 -17 11 -30t25.5 -19.5t24.5 -7.5l-37 -6q23 7 43.5 13.5t37.5 12.5l16 -50
q-22 -8 -50.5 -17t-58.5 -16.5t-58 -13.5z" />
    <glyph glyph-name="uni0681.medi" unicode="&#x681;" horiz-adv-x="504" 
d="M504 -5q-28 0 -53.5 7t-48 24t-40 47t-29.5 75l67 45q13 -37 28.5 -56.5t36.5 -26.5t49 -7t40.5 -15t12.5 -37q0 -25 -15 -40.5t-48 -15.5zM0 -5l9 108q44 0 84 8t78.5 23.5t77.5 38t82 50.5q-34 21 -64 36t-58 24t-61 9q-16 0 -29 -1t-25.5 -3t-26.5 -6l-21 105
q24 8 48.5 11.5t49.5 3.5q50 0 88 -12t68 -29.5t55 -35.5t48.5 -30t48.5 -12h19l12 -100q-31 -2 -60 -16.5t-58.5 -36t-64 -45t-77 -44t-97 -33.5t-126.5 -13zM100 472l-12 53q28 5 43 8.5t32 7.5l-9 -19q-22 8 -43 29.5t-21 54.5q0 27 12.5 45t33.5 28t46 10q10 0 22.5 -2
t22.5 -6l-7 -48q-9 2 -18 3.5t-17 1.5q-20 0 -29.5 -9t-9.5 -23q0 -17 11 -30t25.5 -19.5t24.5 -7.5l-37 -6q23 7 43.5 13.5t37.5 12.5l16 -50q-22 -8 -50.5 -17t-58.5 -16.5t-58 -13.5z" />
    <glyph glyph-name="uni0681.fina" unicode="&#x681;" horiz-adv-x="563" 
d="M564 -5q-39 0 -76 9.5t-67.5 35t-51.5 73.5t-28 126l83 34q6 -54 20 -88t33.5 -51.5t44 -24t52.5 -6.5q26 0 39.5 -15t13.5 -37q0 -25 -15.5 -40.5t-47.5 -15.5zM332 -390q-61 0 -117.5 17t-101.5 52.5t-71.5 90t-26.5 127.5q0 57 18 110t50.5 99.5t76.5 86.5t97 72
t110 54l10 -30q-24 8 -52 19.5t-58 22.5t-60.5 18t-60.5 7q-22 0 -46 -3.5t-44 -9.5l-17 106q24 7 51.5 13t54.5 6q40 0 76 -10.5t69.5 -25.5t65.5 -30.5t63.5 -26t65.5 -10.5h14l9 -114q-44 -4 -89 -17.5t-87.5 -34.5t-79.5 -50t-65 -65t-44 -78.5t-16 -90.5q0 -53 19 -90
t50 -60t69.5 -33.5t75.5 -10.5t75 8t83 27l34 -97q-60 -30 -111.5 -39.5t-89.5 -9.5zM180 530l-12 53q28 5 43 8.5t32 7.5l-9 -19q-22 8 -43 29.5t-21 54.5q0 27 12.5 45t33.5 28t46 10q10 0 22.5 -2t22.5 -6l-7 -48q-9 2 -18 3.5t-17 1.5q-20 0 -29.5 -9t-9.5 -23
q0 -17 11 -30t25.5 -19.5t24.5 -7.5l-37 -6q23 7 43.5 13.5t37.5 12.5l16 -50q-22 -8 -50.5 -17t-58.5 -16.5t-58 -13.5z" />
    <glyph glyph-name="uni0682.init" unicode="&#x682;" horiz-adv-x="503" 
d="M0 -5l9 108q44 0 84 8t78.5 23.5t77.5 38t82 50.5q-34 21 -64 36t-58 24t-61 9q-16 0 -29 -1t-25.5 -3t-26.5 -6l-21 105q24 8 48.5 11.5t49.5 3.5q50 0 88 -12t68 -29.5t55 -35.5t48.5 -30t48.5 -12h19l12 -100q-31 -2 -60 -16.5t-58.5 -36t-64 -45t-77 -44t-97 -33.5
t-126.5 -13zM140 503q-24 0 -40 15.5t-16 38.5t16 39.5t40 16.5q23 0 38.5 -16.5t15.5 -39.5t-16 -38.5t-38 -15.5zM139 651q-23 0 -39.5 15.5t-16.5 38.5q0 24 16 40.5t40 16.5q23 0 39 -17t16 -40t-16 -38.5t-39 -15.5z" />
    <glyph glyph-name="uni0682.medi" unicode="&#x682;" horiz-adv-x="504" 
d="M504 -5q-28 0 -53.5 7t-48 24t-40 47t-29.5 75l67 45q13 -37 28.5 -56.5t36.5 -26.5t49 -7t40.5 -15t12.5 -37q0 -25 -15 -40.5t-48 -15.5zM0 -5l9 108q44 0 84 8t78.5 23.5t77.5 38t82 50.5q-34 21 -64 36t-58 24t-61 9q-16 0 -29 -1t-25.5 -3t-26.5 -6l-21 105
q24 8 48.5 11.5t49.5 3.5q50 0 88 -12t68 -29.5t55 -35.5t48.5 -30t48.5 -12h19l12 -100q-31 -2 -60 -16.5t-58.5 -36t-64 -45t-77 -44t-97 -33.5t-126.5 -13zM157 503q-24 0 -40 15.5t-16 38.5t16 39.5t40 16.5q23 0 38.5 -16.5t15.5 -39.5t-16 -38.5t-38 -15.5zM156 651
q-23 0 -39.5 15.5t-16.5 38.5q0 24 16 40.5t40 16.5q23 0 39 -17t16 -40t-16 -38.5t-39 -15.5z" />
    <glyph glyph-name="uni0682.fina" unicode="&#x682;" horiz-adv-x="563" 
d="M564 -5q-39 0 -76 9.5t-67.5 35t-51.5 73.5t-28 126l83 34q6 -54 20 -88t33.5 -51.5t44 -24t52.5 -6.5q26 0 39.5 -15t13.5 -37q0 -25 -15.5 -40.5t-47.5 -15.5zM332 -390q-61 0 -117.5 17t-101.5 52.5t-71.5 90t-26.5 127.5q0 57 18 110t50.5 99.5t76.5 86.5t97 72
t110 54l10 -30q-24 8 -52 19.5t-58 22.5t-60.5 18t-60.5 7q-22 0 -46 -3.5t-44 -9.5l-17 106q24 7 51.5 13t54.5 6q40 0 76 -10.5t69.5 -25.5t65.5 -30.5t63.5 -26t65.5 -10.5h14l9 -114q-44 -4 -89 -17.5t-87.5 -34.5t-79.5 -50t-65 -65t-44 -78.5t-16 -90.5q0 -53 19 -90
t50 -60t69.5 -33.5t75.5 -10.5t75 8t83 27l34 -97q-60 -30 -111.5 -39.5t-89.5 -9.5zM302 565q-24 0 -40 15.5t-16 38.5t16 39.5t40 16.5q23 0 38.5 -16.5t15.5 -39.5t-16 -38.5t-38 -15.5zM301 713q-23 0 -39.5 15.5t-16.5 38.5q0 24 16 40.5t40 16.5q23 0 39 -17t16 -40
t-16 -38.5t-39 -15.5z" />
    <glyph glyph-name="uni0685.init" unicode="&#x685;" horiz-adv-x="503" 
d="M0 -5l9 108q44 0 84 8t78.5 23.5t77.5 38t82 50.5q-34 21 -64 36t-58 24t-61 9q-16 0 -29 -1t-25.5 -3t-26.5 -6l-21 105q24 8 48.5 11.5t49.5 3.5q50 0 88 -12t68 -29.5t55 -35.5t48.5 -30t48.5 -12h19l12 -100q-31 -2 -60 -16.5t-58.5 -36t-64 -45t-77 -44t-97 -33.5
t-126.5 -13zM140 633q-25 0 -41.5 17t-16.5 40q0 25 16.5 42t41.5 17q23 0 40 -17t17 -41q0 -25 -17 -41.5t-40 -16.5zM67 502q-24 0 -41 16.5t-17 40.5t17 41.5t41 17.5t41 -17.5t17 -41.5t-17.5 -40.5t-40.5 -16.5zM219 502q-25 0 -42 16.5t-17 40.5q0 25 17 42t42 17
q23 0 40 -17t17 -42q0 -24 -17 -40.5t-40 -16.5z" />
    <glyph glyph-name="uni0685.medi" unicode="&#x685;" horiz-adv-x="504" 
d="M504 -5q-28 0 -53.5 7t-48 24t-40 47t-29.5 75l67 45q13 -37 28.5 -56.5t36.5 -26.5t49 -7t40.5 -15t12.5 -37q0 -25 -15 -40.5t-48 -15.5zM0 -5l9 108q44 0 84 8t78.5 23.5t77.5 38t82 50.5q-34 21 -64 36t-58 24t-61 9q-16 0 -29 -1t-25.5 -3t-26.5 -6l-21 105
q24 8 48.5 11.5t49.5 3.5q50 0 88 -12t68 -29.5t55 -35.5t48.5 -30t48.5 -12h19l12 -100q-31 -2 -60 -16.5t-58.5 -36t-64 -45t-77 -44t-97 -33.5t-126.5 -13zM157 633q-25 0 -41.5 17t-16.5 40q0 25 16.5 42t41.5 17q23 0 40 -17t17 -41q0 -25 -17 -41.5t-40 -16.5zM84 502
q-24 0 -41 16.5t-17 40.5t17 41.5t41 17.5t41 -17.5t17 -41.5t-17.5 -40.5t-40.5 -16.5zM236 502q-25 0 -42 16.5t-17 40.5q0 25 17 42t42 17q23 0 40 -17t17 -42q0 -24 -17 -40.5t-40 -16.5z" />
    <glyph glyph-name="uni0685.fina" unicode="&#x685;" horiz-adv-x="563" 
d="M564 -5q-39 0 -76 9.5t-67.5 35t-51.5 73.5t-28 126l83 34q6 -54 20 -88t33.5 -51.5t44 -24t52.5 -6.5q26 0 39.5 -15t13.5 -37q0 -25 -15.5 -40.5t-47.5 -15.5zM332 -390q-61 0 -117.5 17t-101.5 52.5t-71.5 90t-26.5 127.5q0 57 18 110t50.5 99.5t76.5 86.5t97 72
t110 54l10 -30q-24 8 -52 19.5t-58 22.5t-60.5 18t-60.5 7q-22 0 -46 -3.5t-44 -9.5l-17 106q24 7 51.5 13t54.5 6q40 0 76 -10.5t69.5 -25.5t65.5 -30.5t63.5 -26t65.5 -10.5h14l9 -114q-44 -4 -89 -17.5t-87.5 -34.5t-79.5 -50t-65 -65t-44 -78.5t-16 -90.5q0 -53 19 -90
t50 -60t69.5 -33.5t75.5 -10.5t75 8t83 27l34 -97q-60 -30 -111.5 -39.5t-89.5 -9.5zM291 700q-25 0 -41.5 17t-16.5 40q0 25 16.5 42t41.5 17q23 0 40 -17t17 -41q0 -25 -17 -41.5t-40 -16.5zM218 569q-24 0 -41 16.5t-17 40.5t17 41.5t41 17.5t41 -17.5t17 -41.5
t-17.5 -40.5t-40.5 -16.5zM370 569q-25 0 -42 16.5t-17 40.5q0 25 17 42t42 17q23 0 40 -17t17 -42q0 -24 -17 -40.5t-40 -16.5z" />
    <glyph glyph-name="uni0689.fina" unicode="&#x689;" horiz-adv-x="462" 
d="M182 -116q-33 0 -56 23.5t-23 56.5t23 56t56 23q34 0 56.5 -23t22.5 -56t-22.5 -56.5t-56.5 -23.5zM182 -67q14 0 23 9t9 22q0 14 -9 22.5t-23 8.5q-13 0 -22.5 -9t-9.5 -22t9.5 -22t22.5 -9zM178 105q27 0 46 7t29.5 23t10.5 43q0 18 -6 42.5t-19 56.5t-35.5 74
t-56.5 96l103 59q35 -54 61.5 -107t44 -101.5t27.5 -89.5q11 -38 25.5 -61.5t31 -33.5t33.5 -10q27 0 40 -15t13 -37q0 -25 -15 -40.5t-48 -15.5q-30 0 -61.5 11t-56 35t-35.5 62l33 -9q-9 -29 -28.5 -51.5t-50.5 -35t-78 -12.5q-24 0 -53 3t-55 10t-43 15l21 102
q30 -9 63.5 -14.5t58.5 -5.5z" />
    <glyph glyph-name="uni068A.fina" unicode="&#x68a;" horiz-adv-x="462" 
d="M178 105q27 0 46 7t29.5 23t10.5 43q0 18 -6 42.5t-19 56.5t-35.5 74t-56.5 96l103 59q35 -54 61.5 -107t44 -101.5t27.5 -89.5q11 -38 25.5 -61.5t31 -33.5t33.5 -10q27 0 40 -15t13 -37q0 -25 -15 -40.5t-48 -15.5q-30 0 -61.5 11t-56 35t-35.5 62l33 -9
q-9 -29 -28.5 -51.5t-50.5 -35t-78 -12.5q-24 0 -53 3t-55 10t-43 15l21 102q30 -9 63.5 -14.5t58.5 -5.5zM157 -213q-25 0 -41.5 16.5t-16.5 40.5t16.5 41.5t41.5 17.5q24 0 40.5 -17.5t16.5 -41.5t-17 -40.5t-40 -16.5z" />
    <glyph glyph-name="uni068B.fina" unicode="&#x68b;" horiz-adv-x="462" 
d="M178 105q27 0 46 7t29.5 23t10.5 43q0 18 -6 42.5t-19 56.5t-35.5 74t-56.5 96l103 59q35 -54 61.5 -107t44 -101.5t27.5 -89.5q11 -38 25.5 -61.5t31 -33.5t33.5 -10q27 0 40 -15t13 -37q0 -25 -15 -40.5t-48 -15.5q-30 0 -61.5 11t-56 35t-35.5 62l33 -9
q-9 -29 -28.5 -51.5t-50.5 -35t-78 -12.5q-24 0 -53 3t-55 10t-43 15l21 102q30 -9 63.5 -14.5t58.5 -5.5zM193 619q-17 0 -39.5 1.5t-42 3.5t-29.5 3l3 52q18 -3 47.5 -5t54.5 -2q34 0 53.5 5.5t28 14.5t8.5 19q0 12 -8 19t-21 7q-18 0 -35 -12.5t-30.5 -28.5t-21.5 -28
l-51 6q16 33 39.5 59t51 42.5t54.5 16.5q35 0 56 -22t21 -55q0 -19 -11.5 -41.5t-41 -38.5t-86.5 -16zM129 684l-6 175h52l7 -154zM157 -213q-25 0 -41.5 16.5t-16.5 40.5t16.5 41.5t41.5 17.5q24 0 40.5 -17.5t16.5 -41.5t-17 -40.5t-40 -16.5z" />
    <glyph glyph-name="uni068F.fina" unicode="&#x68f;" horiz-adv-x="462" 
d="M178 105q27 0 46 7t29.5 23t10.5 43q0 18 -6 42.5t-19 56.5t-35.5 74t-56.5 96l103 59q35 -54 61.5 -107t44 -101.5t27.5 -89.5q11 -38 25.5 -61.5t31 -33.5t33.5 -10q27 0 40 -15t13 -37q0 -25 -15 -40.5t-48 -15.5q-30 0 -61.5 11t-56 35t-35.5 62l33 -9
q-9 -29 -28.5 -51.5t-50.5 -35t-78 -12.5q-24 0 -53 3t-55 10t-43 15l21 102q30 -9 63.5 -14.5t58.5 -5.5zM208 615q-23 0 -39.5 16t-16.5 39t16.5 39.5t39.5 16.5q22 0 38.5 -17t16.5 -39q0 -23 -16.5 -39t-38.5 -16zM134 745q-23 0 -39.5 16t-16.5 38q0 24 16.5 40.5
t39.5 16.5q22 0 38.5 -17t16.5 -39q0 -23 -16.5 -39t-38.5 -16zM284 745q-23 0 -39.5 16t-16.5 38q0 24 16 40.5t40 16.5q22 0 38 -17t16 -39q0 -23 -16 -39t-38 -16z" />
    <glyph glyph-name="uni0690.fina" unicode="&#x690;" horiz-adv-x="462" 
d="M178 105q27 0 46 7t29.5 23t10.5 43q0 18 -6 42.5t-19 56.5t-35.5 74t-56.5 96l103 59q35 -54 61.5 -107t44 -101.5t27.5 -89.5q11 -38 25.5 -61.5t31 -33.5t33.5 -10q27 0 40 -15t13 -37q0 -25 -15 -40.5t-48 -15.5q-30 0 -61.5 11t-56 35t-35.5 62l33 -9
q-9 -29 -28.5 -51.5t-50.5 -35t-78 -12.5q-24 0 -53 3t-55 10t-43 15l21 102q30 -9 63.5 -14.5t58.5 -5.5zM108 723q-22 0 -37.5 15t-15.5 36q0 22 15.5 37.5t37.5 15.5t36.5 -16t14.5 -37t-14.5 -36t-36.5 -15zM108 590q-22 0 -37.5 15t-15.5 36q0 22 15.5 37.5t37.5 15.5
t36.5 -16t14.5 -37t-14.5 -36t-36.5 -15zM242 724q-22 0 -37 15t-15 36q0 22 15 37.5t37 15.5t36.5 -15.5t14.5 -37.5q0 -21 -14.5 -36t-36.5 -15zM242 590q-22 0 -37 15t-15 36q0 22 15 37.5t37 15.5t36.5 -16t14.5 -37t-14.5 -36t-36.5 -15z" />
    <glyph glyph-name="uni0692.fina" unicode="&#x692;" horiz-adv-x="326" 
d="M29 -230l-65 102q49 29 82.5 59t54 60.5t29 61t8.5 59.5q0 45 -18 94t-49 107l105 53q16 -31 28.5 -61.5t22 -58.5t16.5 -52q14 -53 37.5 -72t56.5 -19q26 0 39.5 -15t13.5 -37q0 -25 -15.5 -40.5t-47.5 -15.5q-30 0 -54 12.5t-40.5 35.5t-24.5 55l41 24
q0 -53 -12.5 -102.5t-39.5 -94t-68.5 -84t-99.5 -71.5zM82 492q-6 14 -16 39t-20.5 53.5t-20 54t-16.5 40.5l47 21q5 -9 13 -30.5t18.5 -47.5t20 -49.5t15.5 -36.5l20 -39zM142 497l-44 18q6 16 16 43.5t20 57.5t18.5 54t10.5 31l48 -16q-3 -9 -12 -34t-20.5 -55
t-21.5 -57.5t-15 -41.5z" />
    <glyph glyph-name="uni0693.fina" unicode="&#x693;" horiz-adv-x="326" 
d="M186 -217q-33 0 -56 23t-23 56q0 34 23 57t56 23q34 0 56.5 -23t22.5 -57q0 -33 -22.5 -56t-56.5 -23zM186 -168q13 0 22.5 8.5t9.5 21.5q0 14 -9.5 22.5t-22.5 8.5t-22.5 -8.5t-9.5 -22.5q0 -13 9.5 -21.5t22.5 -8.5zM29 -230l-65 102q49 29 82.5 59t54 60.5t29 61
t8.5 59.5q0 45 -18 94t-49 107l105 53q16 -31 28.5 -61.5t22 -58.5t16.5 -52q14 -53 37.5 -72t56.5 -19q26 0 39.5 -15t13.5 -37q0 -25 -15.5 -40.5t-47.5 -15.5q-30 0 -54 12.5t-40.5 35.5t-24.5 55l41 24q0 -53 -12.5 -102.5t-39.5 -94t-68.5 -84t-99.5 -71.5z" />
    <glyph glyph-name="uni0694.fina" unicode="&#x694;" horiz-adv-x="326" 
d="M29 -230l-65 102q49 29 82.5 59t54 60.5t29 61t8.5 59.5q0 45 -18 94t-49 107l105 53q16 -31 28.5 -61.5t22 -58.5t16.5 -52q14 -53 37.5 -72t56.5 -19q26 0 39.5 -15t13.5 -37q0 -25 -15.5 -40.5t-47.5 -15.5q-30 0 -54 12.5t-40.5 35.5t-24.5 55l41 24
q0 -53 -12.5 -102.5t-39.5 -94t-68.5 -84t-99.5 -71.5zM149 -412q-25 0 -41.5 16.5t-16.5 40.5t16.5 41.5t41.5 17.5q24 0 40.5 -17.5t16.5 -41.5t-17 -40.5t-40 -16.5z" />
    <glyph glyph-name="uni0695.fina" unicode="&#x695;" horiz-adv-x="326" 
d="M-2 -47q-7 15 -19 40t-24 51t-21 43l39 20q4 -8 11 -23.5t15.5 -33.5t16 -34.5l12.5 -27.5l15 -31zM43 -43l-38 15q5 13 13 33.5t16.5 42t15 39t9.5 22.5l38 -16q-3 -7 -10 -24.5t-15.5 -39t-16.5 -41t-12 -31.5zM29 -230l-65 102q49 29 82.5 59t54 60.5t29 61t8.5 59.5
q0 45 -18 94t-49 107l105 53q16 -31 28.5 -61.5t22 -58.5t16.5 -52q14 -53 37.5 -72t56.5 -19q26 0 39.5 -15t13.5 -37q0 -25 -15.5 -40.5t-47.5 -15.5q-30 0 -54 12.5t-40.5 35.5t-24.5 55l41 24q0 -53 -12.5 -102.5t-39.5 -94t-68.5 -84t-99.5 -71.5z" />
    <glyph glyph-name="uni0696.fina" unicode="&#x696;" horiz-adv-x="326" 
d="M29 -230l-65 102q49 29 82.5 59t54 60.5t29 61t8.5 59.5q0 45 -18 94t-49 107l105 53q16 -31 28.5 -61.5t22 -58.5t16.5 -52q14 -53 37.5 -72t56.5 -19q26 0 39.5 -15t13.5 -37q0 -25 -15.5 -40.5t-47.5 -15.5q-30 0 -54 12.5t-40.5 35.5t-24.5 55l41 24
q0 -53 -12.5 -102.5t-39.5 -94t-68.5 -84t-99.5 -71.5zM27 9q-25 0 -42 16.5t-17 40.5t16.5 41.5t42.5 17.5q23 0 39.5 -17.5t16.5 -41.5t-16.5 -40.5t-39.5 -16.5zM119 -412q-25 0 -41.5 16.5t-16.5 40.5t16.5 41.5t41.5 17.5q24 0 40.5 -17.5t16.5 -41.5t-17 -40.5
t-40 -16.5z" />
    <glyph glyph-name="uni0697.fina" unicode="&#x697;" horiz-adv-x="326" 
d="M29 -230l-65 102q49 29 82.5 59t54 60.5t29 61t8.5 59.5q0 45 -18 94t-49 107l105 53q16 -31 28.5 -61.5t22 -58.5t16.5 -52q14 -53 37.5 -72t56.5 -19q26 0 39.5 -15t13.5 -37q0 -25 -15.5 -40.5t-47.5 -15.5q-30 0 -54 12.5t-40.5 35.5t-24.5 55l41 24
q0 -53 -12.5 -102.5t-39.5 -94t-68.5 -84t-99.5 -71.5zM225 480q-25 0 -41.5 16.5t-16.5 40.5t16.5 41.5t41.5 17.5q24 0 40.5 -17.5t16.5 -41.5t-17 -40.5t-40 -16.5zM75 480q-25 0 -41.5 16.5t-16.5 40.5t16.5 41.5t41.5 17.5q23 0 40 -17.5t17 -41.5t-17 -40.5t-40 -16.5
z" />
    <glyph glyph-name="uni0699.fina" unicode="&#x699;" horiz-adv-x="326" 
d="M29 -230l-65 102q49 29 82.5 59t54 60.5t29 61t8.5 59.5q0 45 -18 94t-49 107l105 53q16 -31 28.5 -61.5t22 -58.5t16.5 -52q14 -53 37.5 -72t56.5 -19q26 0 39.5 -15t13.5 -37q0 -25 -15.5 -40.5t-47.5 -15.5q-30 0 -54 12.5t-40.5 35.5t-24.5 55l41 24
q0 -53 -12.5 -102.5t-39.5 -94t-68.5 -84t-99.5 -71.5zM45 612q-22 0 -37.5 15t-15.5 36q0 22 15.5 37.5t37.5 15.5t36.5 -16t14.5 -37t-14.5 -36t-36.5 -15zM45 479q-22 0 -37.5 15t-15.5 36q0 22 15.5 37.5t37.5 15.5t36.5 -16t14.5 -37t-14.5 -36t-36.5 -15zM179 613
q-22 0 -37 15t-15 36q0 22 15 37.5t37 15.5t36.5 -15.5t14.5 -37.5q0 -21 -14.5 -36t-36.5 -15zM179 479q-22 0 -37 15t-15 36q0 22 15 37.5t37 15.5t36.5 -16t14.5 -37t-14.5 -36t-36.5 -15z" />
    <glyph glyph-name="uni069A.init" unicode="&#x69a;" horiz-adv-x="764" 
d="M0 -5l10 108q27 0 44 6t29 26.5t23 62.5t25 114l101 -21q-5 -25 -9.5 -46t-7 -40t-2.5 -39q-1 -30 11 -46.5t51 -16.5q21 0 35 6t24.5 27t19.5 65t20 118l104 -18q-4 -19 -8.5 -45.5t-7.5 -51t-3 -40.5q0 -17 6.5 -31.5t21.5 -22t39 -7.5q27 0 44 9t25.5 27t8.5 46
q0 44 -16.5 103t-38.5 122l106 36q14 -40 27 -85.5t21.5 -90.5t8.5 -82q0 -47 -14 -83t-39.5 -60.5t-58.5 -37t-71 -12.5q-36 0 -63 11.5t-44 37t-23 68.5h28q-16 -51 -38.5 -75.5t-50.5 -33t-64 -8.5q-28 0 -56 8.5t-49 34t-28 77.5l45 3q-20 -55 -47.5 -81t-62 -34
t-76.5 -8zM369 -213q-25 0 -41.5 16.5t-16.5 40.5t16.5 41.5t41.5 17.5q24 0 40.5 -17.5t16.5 -41.5t-17 -40.5t-40 -16.5zM413 471q-25 0 -42 16.5t-17 40.5t16.5 41.5t42.5 17.5q23 0 39.5 -17.5t16.5 -41.5t-16.5 -40.5t-39.5 -16.5z" />
    <glyph glyph-name="uni069A.medi" unicode="&#x69a;" horiz-adv-x="785" 
d="M0 -5l10 108q24 0 40.5 6t28 26.5t22 62.5t24.5 114l102 -21q-5 -23 -12 -58.5t-7 -62.5q0 -20 4 -35.5t17.5 -23.5t42.5 -8q20 0 34 6t24.5 27.5t20 65t19.5 117.5l104 -17q-4 -22 -8 -48t-7.5 -50.5t-3.5 -40.5q0 -20 5.5 -33.5t21 -20t43.5 -6.5q33 0 51.5 19t18.5 72
q0 23 -1 50t-3.5 60t-8.5 75l104 8q7 -87 14.5 -143t18.5 -86.5t29.5 -42.5t46.5 -12q27 0 40.5 -15t13.5 -37q0 -25 -15.5 -40.5t-47.5 -15.5q-25 0 -47 7t-41.5 22.5t-34.5 39.5t-25 57l24 -5q-9 -45 -30.5 -71.5t-49.5 -38t-61 -11.5q-35 0 -62.5 11.5t-44.5 37.5t-18 68
h27q-16 -49 -36.5 -74t-48.5 -34t-69 -9q-26 0 -55 8.5t-50.5 34t-28.5 77.5l46 3q-22 -57 -48 -83t-58 -33t-75 -7zM366 -213q-25 0 -41.5 16.5t-16.5 40.5t16.5 41.5t41.5 17.5q24 0 40.5 -17.5t16.5 -41.5t-17 -40.5t-40 -16.5zM408 471q-25 0 -42 16.5t-17 40.5
t16.5 41.5t42.5 17.5q23 0 39.5 -17.5t16.5 -41.5t-16.5 -40.5t-39.5 -16.5z" />
    <glyph glyph-name="uni069A.fina" unicode="&#x69a;" horiz-adv-x="1106" 
d="M281 -232q-49 0 -93 15t-78 44t-53 72.5t-19 101.5q0 20 3.5 49.5t15.5 70t37 91.5l96 -39q-15 -35 -24 -61.5t-13 -49.5t-4 -49q0 -45 17.5 -75.5t48.5 -46t72 -15.5q43 0 71 13.5t43 36t21 51.5t6 60q0 43 -6.5 82t-18 81t-26.5 91l111 30q14 -58 22 -87t12 -46
q11 -34 21 -53t23.5 -25.5t31.5 -6.5t31 6t23.5 27t19.5 65t18 118l105 -17q-4 -23 -8 -49t-7.5 -50t-3.5 -41q0 -15 6 -29t22 -22t42 -8q31 0 50.5 23.5t19.5 67.5q0 23 -1 50t-3.5 60t-7.5 75l105 8q7 -92 15 -148t19.5 -85.5t29 -40t43.5 -10.5q28 0 40.5 -15t12.5 -37
q0 -25 -14.5 -40.5t-47.5 -15.5q-27 0 -57.5 10.5t-55.5 38t-38 77.5l26 -6q-13 -46 -36 -72.5t-50 -37t-51 -10.5q-36 0 -64.5 13t-45 40t-19.5 67h29q-16 -47 -36.5 -73t-45 -36.5t-55.5 -10.5q-19 0 -36.5 6t-32.5 18t-24.5 29.5t-12.5 40.5l34 -47q1 -59 -15.5 -109
t-50 -87t-81 -57.5t-108.5 -20.5zM729 -207q-25 0 -41.5 16.5t-16.5 40.5t16.5 41.5t41.5 17.5q24 0 40.5 -17.5t16.5 -41.5t-17 -40.5t-40 -16.5zM690 471q-25 0 -42 16.5t-17 40.5t16.5 41.5t42.5 17.5q23 0 39.5 -17.5t16.5 -41.5t-16.5 -40.5t-39.5 -16.5z" />
    <glyph glyph-name="uni069B.init" unicode="&#x69b;" horiz-adv-x="764" 
d="M0 -5l10 108q27 0 44 6t29 26.5t23 62.5t25 114l101 -21q-5 -25 -9.5 -46t-7 -40t-2.5 -39q-1 -30 11 -46.5t51 -16.5q21 0 35 6t24.5 27t19.5 65t20 118l104 -18q-4 -19 -8.5 -45.5t-7.5 -51t-3 -40.5q0 -17 6.5 -31.5t21.5 -22t39 -7.5q27 0 44 9t25.5 27t8.5 46
q0 44 -16.5 103t-38.5 122l106 36q14 -40 27 -85.5t21.5 -90.5t8.5 -82q0 -47 -14 -83t-39.5 -60.5t-58.5 -37t-71 -12.5q-36 0 -63 11.5t-44 37t-23 68.5h28q-16 -51 -38.5 -75.5t-50.5 -33t-64 -8.5q-28 0 -56 8.5t-49 34t-28 77.5l45 3q-20 -55 -47.5 -81t-62 -34
t-76.5 -8zM370 -338q-23 0 -39.5 16t-16.5 39t16.5 40t39.5 17q22 0 38.5 -17t16.5 -40t-16.5 -39t-38.5 -16zM296 -208q-23 0 -39.5 16t-16.5 39t16.5 40t39.5 17t39 -17t16 -40t-16.5 -39t-38.5 -16zM446 -208q-23 0 -39.5 16t-16.5 39t16.5 40t39.5 17q22 0 38.5 -17
t16.5 -40t-16.5 -39t-38.5 -16z" />
    <glyph glyph-name="uni069B.medi" unicode="&#x69b;" horiz-adv-x="785" 
d="M0 -5l10 108q24 0 40.5 6t28 26.5t22 62.5t24.5 114l102 -21q-5 -23 -12 -58.5t-7 -62.5q0 -20 4 -35.5t17.5 -23.5t42.5 -8q20 0 34 6t24.5 27.5t20 65t19.5 117.5l104 -17q-4 -22 -8 -48t-7.5 -50.5t-3.5 -40.5q0 -20 5.5 -33.5t21 -20t43.5 -6.5q33 0 51.5 19t18.5 72
q0 23 -1 50t-3.5 60t-8.5 75l104 8q7 -87 14.5 -143t18.5 -86.5t29.5 -42.5t46.5 -12q27 0 40.5 -15t13.5 -37q0 -25 -15.5 -40.5t-47.5 -15.5q-25 0 -47 7t-41.5 22.5t-34.5 39.5t-25 57l24 -5q-9 -45 -30.5 -71.5t-49.5 -38t-61 -11.5q-35 0 -62.5 11.5t-44.5 37.5t-18 68
h27q-16 -49 -36.5 -74t-48.5 -34t-69 -9q-26 0 -55 8.5t-50.5 34t-28.5 77.5l46 3q-22 -57 -48 -83t-58 -33t-75 -7zM367 -338q-23 0 -39.5 16t-16.5 39t16.5 40t39.5 17q22 0 38.5 -17t16.5 -40t-16.5 -39t-38.5 -16zM293 -208q-23 0 -39.5 16t-16.5 39t16.5 40t39.5 17
t39 -17t16 -40t-16.5 -39t-38.5 -16zM443 -208q-23 0 -39.5 16t-16.5 39t16.5 40t39.5 17q22 0 38.5 -17t16.5 -40t-16.5 -39t-38.5 -16z" />
    <glyph glyph-name="uni069B.fina" unicode="&#x69b;" horiz-adv-x="1106" 
d="M281 -232q-49 0 -93 15t-78 44t-53 72.5t-19 101.5q0 20 3.5 49.5t15.5 70t37 91.5l96 -39q-15 -35 -24 -61.5t-13 -49.5t-4 -49q0 -45 17.5 -75.5t48.5 -46t72 -15.5q43 0 71 13.5t43 36t21 51.5t6 60q0 43 -6.5 82t-18 81t-26.5 91l111 30q14 -58 22 -87t12 -46
q11 -34 21 -53t23.5 -25.5t31.5 -6.5t31 6t23.5 27t19.5 65t18 118l105 -17q-4 -23 -8 -49t-7.5 -50t-3.5 -41q0 -15 6 -29t22 -22t42 -8q31 0 50.5 23.5t19.5 67.5q0 23 -1 50t-3.5 60t-7.5 75l105 8q7 -92 15 -148t19.5 -85.5t29 -40t43.5 -10.5q28 0 40.5 -15t12.5 -37
q0 -25 -14.5 -40.5t-47.5 -15.5q-27 0 -57.5 10.5t-55.5 38t-38 77.5l26 -6q-13 -46 -36 -72.5t-50 -37t-51 -10.5q-36 0 -64.5 13t-45 40t-19.5 67h29q-16 -47 -36.5 -73t-45 -36.5t-55.5 -10.5q-19 0 -36.5 6t-32.5 18t-24.5 29.5t-12.5 40.5l34 -47q1 -59 -15.5 -109
t-50 -87t-81 -57.5t-108.5 -20.5zM730 -332q-23 0 -39.5 16t-16.5 39t16.5 40t39.5 17q22 0 38.5 -17t16.5 -40t-16.5 -39t-38.5 -16zM656 -202q-23 0 -39.5 16t-16.5 39t16.5 40t39.5 17t39 -17t16 -40t-16.5 -39t-38.5 -16zM806 -202q-23 0 -39.5 16t-16.5 39t16.5 40
t39.5 17q22 0 38.5 -17t16.5 -40t-16.5 -39t-38.5 -16z" />
    <glyph glyph-name="uni069D.init" unicode="&#x69d;" horiz-adv-x="807" 
d="M428 -14q-75 0 -125.5 7t-83.5 20.5t-52 34t-31 46.5l28 7q-22 -43 -49 -66t-56 -31.5t-59 -8.5l10 108q25 0 39 9t23.5 32t19 63t25.5 101l105 -27q-7 -25 -11.5 -45.5t-7 -35.5t-2.5 -25q0 -22 8 -37.5t31 -25t67 -14t115 -4.5q66 0 111.5 8.5t74 24t41.5 38t13 50.5
q0 21 -9.5 39t-26 29t-40.5 11q-32 0 -64 -19.5t-62.5 -51t-57 -67.5t-47.5 -69l-111 9q33 61 74 116.5t86.5 99t93.5 69t97 25.5q52 0 91.5 -23.5t62 -65.5t22.5 -97q0 -68 -37 -121t-113.5 -83t-192.5 -30zM498 -219q-25 0 -42 16.5t-17 40.5t16.5 41.5t42.5 17.5
q23 0 39.5 -17.5t16.5 -41.5t-16.5 -40.5t-39.5 -16.5zM348 -219q-25 0 -42 16.5t-17 40.5t16.5 41.5t42.5 17.5q23 0 39.5 -17.5t16.5 -41.5t-16.5 -40.5t-39.5 -16.5z" />
    <glyph glyph-name="uni069D.medi" unicode="&#x69d;" horiz-adv-x="829" 
d="M829 -5q-32 0 -64.5 9.5t-60 25.5t-45.5 35l76 65q21 -14 48 -20.5t56 -6.5q27 0 40 -15t13 -37q0 -25 -15.5 -40.5t-47.5 -15.5zM428 -14q-75 0 -125.5 7t-83.5 20.5t-52 34t-31 46.5l28 7q-22 -43 -49 -66t-56 -31.5t-59 -8.5l10 108q25 0 39 9t23.5 32t19 63t25.5 101
l105 -27q-7 -25 -11.5 -45.5t-7 -35.5t-2.5 -25q0 -22 8 -37.5t31 -25t67 -14t115 -4.5q66 0 111.5 8.5t74 24t41.5 38t13 50.5q0 21 -9.5 39t-26 29t-40.5 11q-32 0 -64 -19.5t-62.5 -51t-57 -67.5t-47.5 -69l-111 9q33 61 74 116.5t86.5 99t93.5 69t97 25.5
q52 0 91.5 -23.5t62 -65.5t22.5 -97q0 -68 -37 -121t-113.5 -83t-192.5 -30zM498 -219q-25 0 -42 16.5t-17 40.5t16.5 41.5t42.5 17.5q23 0 39.5 -17.5t16.5 -41.5t-16.5 -40.5t-39.5 -16.5zM348 -219q-25 0 -42 16.5t-17 40.5t16.5 41.5t42.5 17.5q23 0 39.5 -17.5
t16.5 -41.5t-16.5 -40.5t-39.5 -16.5z" />
    <glyph glyph-name="uni069D.fina" unicode="&#x69d;" horiz-adv-x="1166" 
d="M1167 -5q-32 0 -65 9.5t-60 25.5t-46 35l76 65q22 -14 48.5 -20.5t55.5 -6.5q28 0 41 -15t13 -37q0 -25 -15.5 -40.5t-47.5 -15.5zM278 -232q-48 0 -91.5 14.5t-76.5 44t-52.5 74t-19.5 103.5q0 22 4 50.5t16 68t36 90.5l96 -40q-15 -34 -24 -60.5t-13 -50t-4 -48.5
q0 -45 17.5 -76t48 -46.5t71.5 -15.5q40 0 67 12t43.5 34t24 52.5t7.5 66.5q0 63 -15 123.5t-35 127.5l111 30q11 -38 17 -64t10.5 -42t7.5 -27q8 -21 22 -38t40 -29.5t69.5 -19t109.5 -6.5q48 0 86 5t65.5 15t46 24.5t27.5 33.5t9 42q0 22 -9 40t-26 28.5t-41 10.5
q-29 0 -58 -16t-59 -44.5t-58.5 -66t-55.5 -79.5l-110 13q22 38 50 80t62.5 82.5t73 73t80 52t84.5 19.5q50 0 90 -24t63 -66t23 -97q0 -52 -21.5 -95t-63.5 -74t-105.5 -48.5t-147.5 -17.5q-54 0 -101.5 8.5t-84 23t-59 32.5t-27.5 39l38 -43q1 -57 -14.5 -107.5t-48 -89
t-81 -60.5t-114.5 -22zM849 -218q-25 0 -42 16.5t-17 40.5t16.5 41.5t42.5 17.5q23 0 39.5 -17.5t16.5 -41.5t-16.5 -40.5t-39.5 -16.5zM699 -218q-25 0 -42 16.5t-17 40.5t16.5 41.5t42.5 17.5q23 0 39.5 -17.5t16.5 -41.5t-16.5 -40.5t-39.5 -16.5z" />
    <glyph glyph-name="uni069E.init" unicode="&#x69e;" horiz-adv-x="807" 
d="M428 -14q-75 0 -125.5 7t-83.5 20.5t-52 34t-31 46.5l28 7q-22 -43 -49 -66t-56 -31.5t-59 -8.5l10 108q25 0 39 9t23.5 32t19 63t25.5 101l105 -27q-7 -25 -11.5 -45.5t-7 -35.5t-2.5 -25q0 -22 8 -37.5t31 -25t67 -14t115 -4.5q66 0 111.5 8.5t74 24t41.5 38t13 50.5
q0 21 -9.5 39t-26 29t-40.5 11q-32 0 -64 -19.5t-62.5 -51t-57 -67.5t-47.5 -69l-111 9q33 61 74 116.5t86.5 99t93.5 69t97 25.5q52 0 91.5 -23.5t62 -65.5t22.5 -97q0 -68 -37 -121t-113.5 -83t-192.5 -30zM566 638q-25 0 -41.5 17t-16.5 40q0 25 16.5 42t41.5 17
q23 0 40 -17t17 -41q0 -25 -17 -41.5t-40 -16.5zM493 507q-24 0 -41 16.5t-17 40.5t17 41.5t41 17.5t41 -17.5t17 -41.5t-17.5 -40.5t-40.5 -16.5zM645 507q-25 0 -42 16.5t-17 40.5q0 25 17 42t42 17q23 0 40 -17t17 -42q0 -24 -17 -40.5t-40 -16.5z" />
    <glyph glyph-name="uni069E.medi" unicode="&#x69e;" horiz-adv-x="829" 
d="M829 -5q-32 0 -64.5 9.5t-60 25.5t-45.5 35l76 65q21 -14 48 -20.5t56 -6.5q27 0 40 -15t13 -37q0 -25 -15.5 -40.5t-47.5 -15.5zM428 -14q-75 0 -125.5 7t-83.5 20.5t-52 34t-31 46.5l28 7q-22 -43 -49 -66t-56 -31.5t-59 -8.5l10 108q25 0 39 9t23.5 32t19 63t25.5 101
l105 -27q-7 -25 -11.5 -45.5t-7 -35.5t-2.5 -25q0 -22 8 -37.5t31 -25t67 -14t115 -4.5q66 0 111.5 8.5t74 24t41.5 38t13 50.5q0 21 -9.5 39t-26 29t-40.5 11q-32 0 -64 -19.5t-62.5 -51t-57 -67.5t-47.5 -69l-111 9q33 61 74 116.5t86.5 99t93.5 69t97 25.5
q52 0 91.5 -23.5t62 -65.5t22.5 -97q0 -68 -37 -121t-113.5 -83t-192.5 -30zM566 638q-25 0 -41.5 17t-16.5 40q0 25 16.5 42t41.5 17q23 0 40 -17t17 -41q0 -25 -17 -41.5t-40 -16.5zM493 507q-24 0 -41 16.5t-17 40.5t17 41.5t41 17.5t41 -17.5t17 -41.5t-17.5 -40.5
t-40.5 -16.5zM645 507q-25 0 -42 16.5t-17 40.5q0 25 17 42t42 17q23 0 40 -17t17 -42q0 -24 -17 -40.5t-40 -16.5z" />
    <glyph glyph-name="uni069E.fina" unicode="&#x69e;" horiz-adv-x="1166" 
d="M1167 -5q-32 0 -65 9.5t-60 25.5t-46 35l76 65q22 -14 48.5 -20.5t55.5 -6.5q28 0 41 -15t13 -37q0 -25 -15.5 -40.5t-47.5 -15.5zM278 -232q-48 0 -91.5 14.5t-76.5 44t-52.5 74t-19.5 103.5q0 22 4 50.5t16 68t36 90.5l96 -40q-15 -34 -24 -60.5t-13 -50t-4 -48.5
q0 -45 17.5 -76t48 -46.5t71.5 -15.5q40 0 67 12t43.5 34t24 52.5t7.5 66.5q0 63 -15 123.5t-35 127.5l111 30q11 -38 17 -64t10.5 -42t7.5 -27q8 -21 22 -38t40 -29.5t69.5 -19t109.5 -6.5q48 0 86 5t65.5 15t46 24.5t27.5 33.5t9 42q0 22 -9 40t-26 28.5t-41 10.5
q-29 0 -58 -16t-59 -44.5t-58.5 -66t-55.5 -79.5l-110 13q22 38 50 80t62.5 82.5t73 73t80 52t84.5 19.5q50 0 90 -24t63 -66t23 -97q0 -52 -21.5 -95t-63.5 -74t-105.5 -48.5t-147.5 -17.5q-54 0 -101.5 8.5t-84 23t-59 32.5t-27.5 39l38 -43q1 -57 -14.5 -107.5t-48 -89
t-81 -60.5t-114.5 -22zM901 641q-25 0 -41.5 17t-16.5 40q0 25 16.5 42t41.5 17q23 0 40 -17t17 -41q0 -25 -17 -41.5t-40 -16.5zM828 510q-24 0 -41 16.5t-17 40.5t17 41.5t41 17.5t41 -17.5t17 -41.5t-17.5 -40.5t-40.5 -16.5zM980 510q-25 0 -42 16.5t-17 40.5
q0 25 17 42t42 17q23 0 40 -17t17 -42q0 -24 -17 -40.5t-40 -16.5z" />
    <glyph glyph-name="uni069F.init" unicode="&#x69f;" horiz-adv-x="616" 
d="M0 -5l9 108h202q63 0 111.5 6.5t81.5 20.5t50 37t17 54q0 21 -8.5 38.5t-24.5 28.5t-42 11q-33 0 -65 -18.5t-62 -49t-58 -67t-51 -73.5l-114 7q36 64 77.5 120.5t87 100t94 68.5t99.5 25t91 -24t62.5 -65.5t22.5 -94.5q0 -65 -33.5 -113t-94.5 -77q-28 -13 -65 -22.5
t-80.5 -14.5t-91.5 -5zM100 98l-19 623h112l18 -498zM391 632q-25 0 -41.5 17t-16.5 40q0 25 16.5 42t41.5 17q23 0 40 -17t17 -41q0 -25 -17 -41.5t-40 -16.5zM318 501q-24 0 -41 16.5t-17 40.5t17 41.5t41 17.5t41 -17.5t17 -41.5t-17.5 -40.5t-40.5 -16.5zM470 501
q-25 0 -42 16.5t-17 40.5q0 25 17 42t42 17q23 0 40 -17t17 -42q0 -24 -17 -40.5t-40 -16.5z" />
    <glyph glyph-name="uni069F.medi" unicode="&#x69f;" horiz-adv-x="624" 
d="M625 -5q-33 0 -65.5 9.5t-59.5 25.5t-46 35l76 65q21 -14 48 -20.5t56 -6.5q27 0 40.5 -15t13.5 -37q0 -25 -15.5 -40.5t-47.5 -15.5zM0 -5l9 108h202q63 0 111.5 6.5t81.5 20.5t50 37t17 54q0 21 -8.5 38.5t-24.5 28.5t-42 11q-33 0 -65 -18.5t-62 -49t-58 -67
t-51 -73.5l-114 7q36 64 77.5 120.5t87 100t94 68.5t99.5 25t91 -24t62.5 -65.5t22.5 -94.5q0 -65 -33.5 -113t-94.5 -77q-28 -13 -65 -22.5t-80.5 -14.5t-91.5 -5zM100 98l-19 623h112l18 -498zM391 632q-25 0 -41.5 17t-16.5 40q0 25 16.5 42t41.5 17q23 0 40 -17t17 -41
q0 -25 -17 -41.5t-40 -16.5zM318 501q-24 0 -41 16.5t-17 40.5t17 41.5t41 17.5t41 -17.5t17 -41.5t-17.5 -40.5t-40.5 -16.5zM470 501q-25 0 -42 16.5t-17 40.5q0 25 17 42t42 17q23 0 40 -17t17 -42q0 -24 -17 -40.5t-40 -16.5z" />
    <glyph glyph-name="uni069F.fina" unicode="&#x69f;" horiz-adv-x="698" 
d="M699 -5q-33 0 -65.5 9.5t-59.5 25.5t-46 35l76 65q22 -14 48.5 -20.5t55.5 -6.5q28 0 41 -15t13 -37q0 -25 -15.5 -40.5t-47.5 -15.5zM310 -13q-37 0 -77.5 1t-81 4t-76 6.5t-63.5 7.5l14 108q39 -5 72.5 -8t65.5 -5.5t66.5 -3.5t75.5 -1q60 0 104 7.5t73 22.5t43.5 37.5
t14.5 51.5q0 21 -9 39.5t-26 29.5t-43 11q-29 0 -61 -19t-63 -50t-58.5 -67t-48.5 -71l-112 11q34 61 75.5 116.5t87.5 99t94.5 68.5t95.5 25q50 0 90 -23t63.5 -64.5t23.5 -98.5q0 -71 -39 -124t-114.5 -82t-186.5 -29zM169 98l-19 623h112l18 -498zM465 628
q-25 0 -41.5 17t-16.5 40q0 25 16.5 42t41.5 17q23 0 40 -17t17 -41q0 -25 -17 -41.5t-40 -16.5zM392 497q-24 0 -41 16.5t-17 40.5t17 41.5t41 17.5t41 -17.5t17 -41.5t-17.5 -40.5t-40.5 -16.5zM544 497q-25 0 -42 16.5t-17 40.5q0 25 17 42t42 17q23 0 40 -17t17 -42
q0 -24 -17 -40.5t-40 -16.5z" />
    <glyph glyph-name="uni06A0.init" unicode="&#x6a0;" horiz-adv-x="446" 
d="M0 -5l10 108q29 0 51 1t42.5 3t44.5 6q-19 12 -40.5 35.5t-37 58.5t-15.5 80q0 59 27 101t71.5 64t97.5 22q22 0 42 -3t44 -11l-18 -98q-17 5 -30 6.5t-28 1.5q-26 0 -47.5 -11t-34 -31t-12.5 -49q0 -24 8.5 -44.5t22.5 -36.5t30 -28t32 -19.5t27 -9.5q12 3 19.5 5.5
t16 5t21.5 8t35 14.5l34 -91q-64 -30 -130 -49.5t-136 -29t-147 -9.5zM221 706q-25 0 -41.5 17t-16.5 40q0 25 16.5 42t41.5 17q23 0 40 -17t17 -41q0 -25 -17 -41.5t-40 -16.5zM148 575q-24 0 -41 16.5t-17 40.5t17 41.5t41 17.5t41 -17.5t17 -41.5t-17.5 -40.5
t-40.5 -16.5zM300 575q-25 0 -42 16.5t-17 40.5q0 25 17 42t42 17q23 0 40 -17t17 -42q0 -24 -17 -40.5t-40 -16.5z" />
    <glyph glyph-name="uni06A0.medi" unicode="&#x6a0;" horiz-adv-x="463" 
d="M0 -5l10 108q53 0 100 11.5t84.5 32.5t64 46.5t41 52.5t14.5 53q0 18 -9.5 29t-25.5 16t-33 5q-18 0 -38 -5t-38.5 -14t-32.5 -23q21 -21 41.5 -44t39.5 -48t38 -53q18 -14 41 -25t50.5 -18.5t60 -11.5t66.5 -4q26 0 39.5 -14.5t13.5 -38.5q0 -26 -16.5 -40.5
t-46.5 -14.5q-53 0 -99.5 8.5t-88.5 27.5t-83 51q-27 36 -50.5 64.5t-44.5 52.5t-40 44q-3 3 -6.5 15t-6.5 25.5t-3 20.5q0 23 17.5 48.5t47 47t67.5 35.5t77 14q47 0 84.5 -13.5t60 -42.5t22.5 -78t-22 -96.5t-61 -88t-91.5 -71t-114.5 -47.5t-129 -17zM241 681
q-25 0 -41.5 17t-16.5 40q0 25 16.5 42t41.5 17q23 0 40 -17t17 -41q0 -25 -17 -41.5t-40 -16.5zM168 550q-24 0 -41 16.5t-17 40.5t17 41.5t41 17.5t41 -17.5t17 -41.5t-17.5 -40.5t-40.5 -16.5zM320 550q-25 0 -42 16.5t-17 40.5q0 25 17 42t42 17q23 0 40 -17t17 -42
q0 -24 -17 -40.5t-40 -16.5z" />
    <glyph glyph-name="uni06A0.fina" unicode="&#x6a0;" horiz-adv-x="467" 
d="M270 -383q-51 0 -99 12t-87 38.5t-62 68.5t-23 103q0 59 23.5 106t59 86t77 72.5t78 64.5t60.5 62.5t25 66.5q0 15 -8.5 27t-24.5 18.5t-38 6.5q-17 0 -36 -5t-37.5 -14.5t-33.5 -22.5l44 -46t43 -49t43 -57q20 -15 43 -25t49 -16t53.5 -8.5t56.5 -2.5q25 0 39.5 -14
t14.5 -38q0 -26 -16 -41t-47 -15q-54 0 -104 10t-94.5 32.5t-84.5 60.5q-19 29 -40.5 55.5t-41.5 49t-36 39.5q-3 4 -7 16t-6.5 25.5t-2.5 19.5q0 24 17.5 49.5t47.5 47.5t67.5 35.5t77.5 13.5q79 0 121.5 -37t43.5 -98q2 -52 -20.5 -94.5t-58.5 -79t-76.5 -70t-76.5 -67
t-58.5 -71t-22.5 -82.5q0 -37 14 -61.5t37 -38.5t51.5 -19.5t56.5 -5.5q24 0 48.5 2.5t53.5 10.5t64 23l35 -89q-30 -19 -66 -31t-71 -18t-65 -6zM248 681q-25 0 -41.5 17t-16.5 40q0 25 16.5 42t41.5 17q23 0 40 -17t17 -41q0 -25 -17 -41.5t-40 -16.5zM175 550
q-24 0 -41 16.5t-17 40.5t17 41.5t41 17.5t41 -17.5t17 -41.5t-17.5 -40.5t-40.5 -16.5zM327 550q-25 0 -42 16.5t-17 40.5q0 25 17 42t42 17q23 0 40 -17t17 -42q0 -24 -17 -40.5t-40 -16.5z" />
    <glyph glyph-name="uni06A1.init" unicode="&#x6a1;" horiz-adv-x="410" 
d="M0 -5l9 108h50.5t52.5 1.5t49.5 6t41.5 12.5q24 10 38.5 30t21 51t6.5 74q0 48 -7.5 84.5t-21.5 56.5t-34 20q-15 0 -28 -13.5t-21 -37t-8 -55.5q0 -23 9 -36.5t24 -19.5t32 -6q18 0 37.5 5t36.5 15l4 -81q-13 -12 -30 -19.5t-35 -11t-37 -3.5q-47 0 -80 19t-49.5 51
t-16.5 72q0 42 11.5 81t34 70.5t53.5 50t69 18.5q52 0 88 -34t55 -94.5t19 -140.5q0 -77 -24 -137t-78 -93q-25 -15 -56 -23.5t-66 -13t-72.5 -6t-77.5 -1.5z" />
    <glyph glyph-name="uni06A1.medi" unicode="&#x6a1;" horiz-adv-x="420" 
d="M0 -5l9 108q21 0 44.5 1.5t47.5 5t46.5 9.5t40.5 15q27 13 47 30.5t30 41t10 51.5q0 23 -8 44t-20.5 34t-27.5 13q-13 0 -27 -12.5t-22.5 -33.5t-8.5 -47q0 -28 11 -51t30.5 -41t43.5 -33l-100 -43q-23 20 -44 44t-34.5 56t-13.5 73q0 36 13 69.5t36 60.5t53.5 43
t65.5 16q47 0 83.5 -26.5t56.5 -68t20 -86.5q0 -41 -11.5 -75t-32 -61t-46.5 -47.5t-55 -37.5q-25 -14 -55 -24.5t-61.5 -16.5t-63 -8.5t-57.5 -2.5zM421 -5q-38 0 -80.5 6t-82 18t-69.5 28l67 76q27 -8 60 -12.5t63.5 -6t51.5 -1.5q26 0 39.5 -15t13.5 -37q0 -24 -15.5 -40
t-47.5 -16z" />
    <glyph glyph-name="uni06A1.fina" unicode="&#x6a1;" horiz-adv-x="934" 
d="M332 -21l25 108q46 0 94 2.5t94.5 8.5t85.5 14.5t66 20.5q33 14 54 32t30.5 40t9.5 47q0 17 -4 33.5t-11.5 31t-17.5 23t-23 8.5q-16 0 -30.5 -14.5t-22 -37t-7.5 -48.5t10.5 -47t30 -38.5t43.5 -31.5l-101 -44q-21 20 -42 43t-35 53.5t-14 70.5q0 37 13 72t36 62.5
t54 44t67 16.5q49 0 85 -27t56 -70t20 -91q0 -36 -12 -67.5t-32.5 -58t-47 -47.5t-54.5 -37q-34 -20 -84 -33.5t-107 -22t-116.5 -12.5t-112.5 -4zM935 -5q-39 0 -81.5 6t-81 17.5t-68.5 27.5l67 77q25 -7 56.5 -11.5t63 -6.5t53.5 -2q28 0 41 -15t13 -37q0 -24 -15.5 -40
t-47.5 -16zM332 -21q-72 0 -128 13t-94.5 39.5t-58 65.5t-19.5 92q0 28 5.5 59.5t14 62.5t16.5 56l95 -26q-5 -17 -10.5 -38.5t-9.5 -45t-4 -44.5q0 -36 17.5 -65t65 -45t135.5 -16l20 -77z" />
    <glyph glyph-name="fehDotMovedbelowar.init" unicode="&#x6a2;" horiz-adv-x="410" 
d="M0 -5l9 108h50.5t52.5 1.5t49.5 6t41.5 12.5q24 10 38.5 30t21 51t6.5 74q0 48 -7.5 84.5t-21.5 56.5t-34 20q-15 0 -28 -13.5t-21 -37t-8 -55.5q0 -23 9 -36.5t24 -19.5t32 -6q18 0 37.5 5t36.5 15l4 -81q-13 -12 -30 -19.5t-35 -11t-37 -3.5q-47 0 -80 19t-49.5 51
t-16.5 72q0 42 11.5 81t34 70.5t53.5 50t69 18.5q52 0 88 -34t55 -94.5t19 -140.5q0 -77 -24 -137t-78 -93q-25 -15 -56 -23.5t-66 -13t-72.5 -6t-77.5 -1.5zM167 -227q-25 0 -41.5 16.5t-16.5 40.5t16.5 41.5t41.5 17.5q24 0 40.5 -17.5t16.5 -41.5t-17 -40.5t-40 -16.5z
" />
    <glyph glyph-name="fehDotMovedbelowar.medi" unicode="&#x6a2;" horiz-adv-x="420" 
d="M0 -5l9 108q21 0 44.5 1.5t47.5 5t46.5 9.5t40.5 15q27 13 47 30.5t30 41t10 51.5q0 23 -8 44t-20.5 34t-27.5 13q-13 0 -27 -12.5t-22.5 -33.5t-8.5 -47q0 -28 11 -51t30.5 -41t43.5 -33l-100 -43q-23 20 -44 44t-34.5 56t-13.5 73q0 36 13 69.5t36 60.5t53.5 43
t65.5 16q47 0 83.5 -26.5t56.5 -68t20 -86.5q0 -41 -11.5 -75t-32 -61t-46.5 -47.5t-55 -37.5q-25 -14 -55 -24.5t-61.5 -16.5t-63 -8.5t-57.5 -2.5zM421 -5q-38 0 -80.5 6t-82 18t-69.5 28l67 76q27 -8 60 -12.5t63.5 -6t51.5 -1.5q26 0 39.5 -15t13.5 -37q0 -24 -15.5 -40
t-47.5 -16zM211 -227q-25 0 -41.5 16.5t-16.5 40.5t16.5 41.5t41.5 17.5q24 0 40.5 -17.5t16.5 -41.5t-17 -40.5t-40 -16.5z" />
    <glyph glyph-name="fehDotMovedbelowar.fina" unicode="&#x6a2;" horiz-adv-x="934" 
d="M332 -21l25 108q46 0 94 2.5t94.5 8.5t85.5 14.5t66 20.5q33 14 54 32t30.5 40t9.5 47q0 17 -4 33.5t-11.5 31t-17.5 23t-23 8.5q-16 0 -30.5 -14.5t-22 -37t-7.5 -48.5t10.5 -47t30 -38.5t43.5 -31.5l-101 -44q-21 20 -42 43t-35 53.5t-14 70.5q0 37 13 72t36 62.5
t54 44t67 16.5q49 0 85 -27t56 -70t20 -91q0 -36 -12 -67.5t-32.5 -58t-47 -47.5t-54.5 -37q-34 -20 -84 -33.5t-107 -22t-116.5 -12.5t-112.5 -4zM935 -5q-39 0 -81.5 6t-81 17.5t-68.5 27.5l67 77q25 -7 56.5 -11.5t63 -6.5t53.5 -2q28 0 41 -15t13 -37q0 -24 -15.5 -40
t-47.5 -16zM332 -21q-72 0 -128 13t-94.5 39.5t-58 65.5t-19.5 92q0 28 5.5 59.5t14 62.5t16.5 56l95 -26q-5 -17 -10.5 -38.5t-9.5 -45t-4 -44.5q0 -36 17.5 -65t65 -45t135.5 -16l20 -77zM406 -231q-25 0 -41.5 16.5t-16.5 40.5t16.5 41.5t41.5 17.5q24 0 40.5 -17.5
t16.5 -41.5t-17 -40.5t-40 -16.5z" />
    <glyph glyph-name="uni06A3.init" unicode="&#x6a3;" horiz-adv-x="410" 
d="M0 -5l9 108h50.5t52.5 1.5t49.5 6t41.5 12.5q24 10 38.5 30t21 51t6.5 74q0 48 -7.5 84.5t-21.5 56.5t-34 20q-15 0 -28 -13.5t-21 -37t-8 -55.5q0 -23 9 -36.5t24 -19.5t32 -6q18 0 37.5 5t36.5 15l4 -81q-13 -12 -30 -19.5t-35 -11t-37 -3.5q-47 0 -80 19t-49.5 51
t-16.5 72q0 42 11.5 81t34 70.5t53.5 50t69 18.5q52 0 88 -34t55 -94.5t19 -140.5q0 -77 -24 -137t-78 -93q-25 -15 -56 -23.5t-66 -13t-72.5 -6t-77.5 -1.5zM202 639q-25 0 -42 16.5t-17 40.5t16.5 41.5t42.5 17.5q23 0 39.5 -17.5t16.5 -41.5t-16.5 -40.5t-39.5 -16.5z
M167 -227q-25 0 -41.5 16.5t-16.5 40.5t16.5 41.5t41.5 17.5q24 0 40.5 -17.5t16.5 -41.5t-17 -40.5t-40 -16.5z" />
    <glyph glyph-name="uni06A3.medi" unicode="&#x6a3;" horiz-adv-x="420" 
d="M0 -5l9 108q21 0 44.5 1.5t47.5 5t46.5 9.5t40.5 15q27 13 47 30.5t30 41t10 51.5q0 23 -8 44t-20.5 34t-27.5 13q-13 0 -27 -12.5t-22.5 -33.5t-8.5 -47q0 -28 11 -51t30.5 -41t43.5 -33l-100 -43q-23 20 -44 44t-34.5 56t-13.5 73q0 36 13 69.5t36 60.5t53.5 43
t65.5 16q47 0 83.5 -26.5t56.5 -68t20 -86.5q0 -41 -11.5 -75t-32 -61t-46.5 -47.5t-55 -37.5q-25 -14 -55 -24.5t-61.5 -16.5t-63 -8.5t-57.5 -2.5zM421 -5q-38 0 -80.5 6t-82 18t-69.5 28l67 76q27 -8 60 -12.5t63.5 -6t51.5 -1.5q26 0 39.5 -15t13.5 -37q0 -24 -15.5 -40
t-47.5 -16zM222 550q-25 0 -42 16.5t-17 40.5t16.5 41.5t42.5 17.5q23 0 39.5 -17.5t16.5 -41.5t-16.5 -40.5t-39.5 -16.5zM211 -227q-25 0 -41.5 16.5t-16.5 40.5t16.5 41.5t41.5 17.5q24 0 40.5 -17.5t16.5 -41.5t-17 -40.5t-40 -16.5z" />
    <glyph glyph-name="uni06A3.fina" unicode="&#x6a3;" horiz-adv-x="934" 
d="M332 -21l25 108q46 0 94 2.5t94.5 8.5t85.5 14.5t66 20.5q33 14 54 32t30.5 40t9.5 47q0 17 -4 33.5t-11.5 31t-17.5 23t-23 8.5q-16 0 -30.5 -14.5t-22 -37t-7.5 -48.5t10.5 -47t30 -38.5t43.5 -31.5l-101 -44q-21 20 -42 43t-35 53.5t-14 70.5q0 37 13 72t36 62.5
t54 44t67 16.5q49 0 85 -27t56 -70t20 -91q0 -36 -12 -67.5t-32.5 -58t-47 -47.5t-54.5 -37q-34 -20 -84 -33.5t-107 -22t-116.5 -12.5t-112.5 -4zM935 -5q-39 0 -81.5 6t-81 17.5t-68.5 27.5l67 77q25 -7 56.5 -11.5t63 -6.5t53.5 -2q28 0 41 -15t13 -37q0 -24 -15.5 -40
t-47.5 -16zM332 -21q-72 0 -128 13t-94.5 39.5t-58 65.5t-19.5 92q0 28 5.5 59.5t14 62.5t16.5 56l95 -26q-5 -17 -10.5 -38.5t-9.5 -45t-4 -44.5q0 -36 17.5 -65t65 -45t135.5 -16l20 -77zM737 550q-25 0 -42 16.5t-17 40.5t16.5 41.5t42.5 17.5q23 0 39.5 -17.5
t16.5 -41.5t-16.5 -40.5t-39.5 -16.5zM406 -231q-25 0 -41.5 16.5t-16.5 40.5t16.5 41.5t41.5 17.5q24 0 40.5 -17.5t16.5 -41.5t-17 -40.5t-40 -16.5z" />
    <glyph glyph-name="uni06A5.init" unicode="&#x6a5;" horiz-adv-x="410" 
d="M0 -5l9 108h50.5t52.5 1.5t49.5 6t41.5 12.5q24 10 38.5 30t21 51t6.5 74q0 48 -7.5 84.5t-21.5 56.5t-34 20q-15 0 -28 -13.5t-21 -37t-8 -55.5q0 -23 9 -36.5t24 -19.5t32 -6q18 0 37.5 5t36.5 15l4 -81q-13 -12 -30 -19.5t-35 -11t-37 -3.5q-47 0 -80 19t-49.5 51
t-16.5 72q0 42 11.5 81t34 70.5t53.5 50t69 18.5q52 0 88 -34t55 -94.5t19 -140.5q0 -77 -24 -137t-78 -93q-25 -15 -56 -23.5t-66 -13t-72.5 -6t-77.5 -1.5zM169 -352q-23 0 -39.5 16t-16.5 39t16.5 40t39.5 17q22 0 38.5 -17t16.5 -40t-16.5 -39t-38.5 -16zM95 -222
q-23 0 -39.5 16t-16.5 39t16.5 40t39.5 17t39 -17t16 -40t-16.5 -39t-38.5 -16zM245 -222q-23 0 -39.5 16t-16.5 39t16.5 40t39.5 17q22 0 38.5 -17t16.5 -40t-16.5 -39t-38.5 -16z" />
    <glyph glyph-name="uni06A5.medi" unicode="&#x6a5;" horiz-adv-x="420" 
d="M0 -5l9 108q21 0 44.5 1.5t47.5 5t46.5 9.5t40.5 15q27 13 47 30.5t30 41t10 51.5q0 23 -8 44t-20.5 34t-27.5 13q-13 0 -27 -12.5t-22.5 -33.5t-8.5 -47q0 -28 11 -51t30.5 -41t43.5 -33l-100 -43q-23 20 -44 44t-34.5 56t-13.5 73q0 36 13 69.5t36 60.5t53.5 43
t65.5 16q47 0 83.5 -26.5t56.5 -68t20 -86.5q0 -41 -11.5 -75t-32 -61t-46.5 -47.5t-55 -37.5q-25 -14 -55 -24.5t-61.5 -16.5t-63 -8.5t-57.5 -2.5zM421 -5q-38 0 -80.5 6t-82 18t-69.5 28l67 76q27 -8 60 -12.5t63.5 -6t51.5 -1.5q26 0 39.5 -15t13.5 -37q0 -24 -15.5 -40
t-47.5 -16zM213 -352q-23 0 -39.5 16t-16.5 39t16.5 40t39.5 17q22 0 38.5 -17t16.5 -40t-16.5 -39t-38.5 -16zM139 -222q-23 0 -39.5 16t-16.5 39t16.5 40t39.5 17t39 -17t16 -40t-16.5 -39t-38.5 -16zM289 -222q-23 0 -39.5 16t-16.5 39t16.5 40t39.5 17q22 0 38.5 -17
t16.5 -40t-16.5 -39t-38.5 -16z" />
    <glyph glyph-name="uni06A5.fina" unicode="&#x6a5;" horiz-adv-x="934" 
d="M332 -21l25 108q46 0 94 2.5t94.5 8.5t85.5 14.5t66 20.5q33 14 54 32t30.5 40t9.5 47q0 17 -4 33.5t-11.5 31t-17.5 23t-23 8.5q-16 0 -30.5 -14.5t-22 -37t-7.5 -48.5t10.5 -47t30 -38.5t43.5 -31.5l-101 -44q-21 20 -42 43t-35 53.5t-14 70.5q0 37 13 72t36 62.5
t54 44t67 16.5q49 0 85 -27t56 -70t20 -91q0 -36 -12 -67.5t-32.5 -58t-47 -47.5t-54.5 -37q-34 -20 -84 -33.5t-107 -22t-116.5 -12.5t-112.5 -4zM935 -5q-39 0 -81.5 6t-81 17.5t-68.5 27.5l67 77q25 -7 56.5 -11.5t63 -6.5t53.5 -2q28 0 41 -15t13 -37q0 -24 -15.5 -40
t-47.5 -16zM332 -21q-72 0 -128 13t-94.5 39.5t-58 65.5t-19.5 92q0 28 5.5 59.5t14 62.5t16.5 56l95 -26q-5 -17 -10.5 -38.5t-9.5 -45t-4 -44.5q0 -36 17.5 -65t65 -45t135.5 -16l20 -77zM407 -356q-23 0 -39.5 16t-16.5 39t16.5 40t39.5 17q22 0 38.5 -17t16.5 -40
t-16.5 -39t-38.5 -16zM333 -226q-23 0 -39.5 16t-16.5 39t16.5 40t39.5 17t39 -17t16 -40t-16.5 -39t-38.5 -16zM483 -226q-23 0 -39.5 16t-16.5 39t16.5 40t39.5 17q22 0 38.5 -17t16.5 -40t-16.5 -39t-38.5 -16z" />
    <glyph glyph-name="uni06A7.fina" unicode="&#x6a7;" horiz-adv-x="730" 
d="M310 -272q-52 0 -102.5 13.5t-91 42.5t-64.5 75t-24 111q0 20 4 50.5t16 72t36 91.5l97 -40q-14 -35 -23.5 -61t-13.5 -49.5t-4 -49.5q0 -49 23.5 -82t65 -50t96.5 -17q32 0 61.5 5t55 14t46.5 22.5t37 30.5t27 39q14 28 20.5 66.5t6.5 87.5q0 47 -7.5 84t-21 58.5
t-32.5 21.5q-14 0 -24.5 -9.5t-18 -25t-11 -33t-3.5 -33.5q0 -21 6 -34t22 -20t43 -8.5t69 2.5h139q27 0 40 -15t13 -37q0 -25 -15 -40.5t-47 -15.5h-168q-49 0 -87.5 8t-65.5 26t-41 46t-14 67q0 41 12.5 80.5t34.5 71t53.5 50.5t70.5 19q49 0 85 -34.5t55 -94.5t19 -139
q0 -62 -13 -113.5t-35 -90.5q-23 -42 -57 -72.5t-76.5 -51t-91.5 -30t-102 -9.5zM524 464q-25 0 -42 16.5t-17 40.5t16.5 41.5t42.5 17.5q23 0 39.5 -17.5t16.5 -41.5t-16.5 -40.5t-39.5 -16.5z" />
    <glyph glyph-name="uni06A8.init" unicode="&#x6a8;" horiz-adv-x="410" 
d="M0 -5l9 108h50.5t52.5 1.5t49.5 6t41.5 12.5q24 10 38.5 30t21 51t6.5 74q0 48 -7.5 84.5t-21.5 56.5t-34 20q-15 0 -28 -13.5t-21 -37t-8 -55.5q0 -23 9 -36.5t24 -19.5t32 -6q18 0 37.5 5t36.5 15l4 -81q-13 -12 -30 -19.5t-35 -11t-37 -3.5q-47 0 -80 19t-49.5 51
t-16.5 72q0 42 11.5 81t34 70.5t53.5 50t69 18.5q52 0 88 -34t55 -94.5t19 -140.5q0 -77 -24 -137t-78 -93q-25 -15 -56 -23.5t-66 -13t-72.5 -6t-77.5 -1.5zM202 770q-25 0 -41.5 17t-16.5 40q0 25 16.5 42t41.5 17q23 0 40 -17t17 -41q0 -25 -17 -41.5t-40 -16.5zM129 639
q-24 0 -41 16.5t-17 40.5t17 41.5t41 17.5t41 -17.5t17 -41.5t-17.5 -40.5t-40.5 -16.5zM281 639q-25 0 -42 16.5t-17 40.5q0 25 17 42t42 17q23 0 40 -17t17 -42q0 -24 -17 -40.5t-40 -16.5z" />
    <glyph glyph-name="uni06A8.medi" unicode="&#x6a8;" horiz-adv-x="420" 
d="M0 -5l9 108q21 0 44.5 1.5t47.5 5t46.5 9.5t40.5 15q27 13 47 30.5t30 41t10 51.5q0 23 -8 44t-20.5 34t-27.5 13q-13 0 -27 -12.5t-22.5 -33.5t-8.5 -47q0 -28 11 -51t30.5 -41t43.5 -33l-100 -43q-23 20 -44 44t-34.5 56t-13.5 73q0 36 13 69.5t36 60.5t53.5 43
t65.5 16q47 0 83.5 -26.5t56.5 -68t20 -86.5q0 -41 -11.5 -75t-32 -61t-46.5 -47.5t-55 -37.5q-25 -14 -55 -24.5t-61.5 -16.5t-63 -8.5t-57.5 -2.5zM421 -5q-38 0 -80.5 6t-82 18t-69.5 28l67 76q27 -8 60 -12.5t63.5 -6t51.5 -1.5q26 0 39.5 -15t13.5 -37q0 -24 -15.5 -40
t-47.5 -16zM221 681q-25 0 -41.5 17t-16.5 40q0 25 16.5 42t41.5 17q23 0 40 -17t17 -41q0 -25 -17 -41.5t-40 -16.5zM148 550q-24 0 -41 16.5t-17 40.5t17 41.5t41 17.5t41 -17.5t17 -41.5t-17.5 -40.5t-40.5 -16.5zM300 550q-25 0 -42 16.5t-17 40.5q0 25 17 42t42 17
q23 0 40 -17t17 -42q0 -24 -17 -40.5t-40 -16.5z" />
    <glyph glyph-name="uni06A8.fina" unicode="&#x6a8;" horiz-adv-x="730" 
d="M310 -272q-52 0 -102.5 13.5t-91 42.5t-64.5 75t-24 111q0 20 4 50.5t16 72t36 91.5l97 -40q-14 -35 -23.5 -61t-13.5 -49.5t-4 -49.5q0 -49 23.5 -82t65 -50t96.5 -17q32 0 61.5 5t55 14t46.5 22.5t37 30.5t27 39q14 28 20.5 66.5t6.5 87.5q0 47 -7.5 84t-21 58.5
t-32.5 21.5q-14 0 -24.5 -9.5t-18 -25t-11 -33t-3.5 -33.5q0 -21 6 -34t22 -20t43 -8.5t69 2.5h139q27 0 40 -15t13 -37q0 -25 -15 -40.5t-47 -15.5h-168q-49 0 -87.5 8t-65.5 26t-41 46t-14 67q0 41 12.5 80.5t34.5 71t53.5 50.5t70.5 19q49 0 85 -34.5t55 -94.5t19 -139
q0 -62 -13 -113.5t-35 -90.5q-23 -42 -57 -72.5t-76.5 -51t-91.5 -30t-102 -9.5zM524 595q-25 0 -41.5 17t-16.5 40q0 25 16.5 42t41.5 17q23 0 40 -17t17 -41q0 -25 -17 -41.5t-40 -16.5zM451 464q-24 0 -41 16.5t-17 40.5t17 41.5t41 17.5t41 -17.5t17 -41.5t-17.5 -40.5
t-40.5 -16.5zM603 464q-25 0 -42 16.5t-17 40.5q0 25 17 42t42 17q23 0 40 -17t17 -42q0 -24 -17 -40.5t-40 -16.5z" />
    <glyph glyph-name="uni06AA.init" unicode="&#x6aa;" horiz-adv-x="749" 
d="M0 -5l10 108h291q78 0 134.5 1.5t93.5 7t55 16t18 28.5q0 13 -9 24t-31.5 19.5t-59.5 16t-92 14.5q-95 12 -150 27.5t-78 40t-23 63.5q0 46 25 84t68.5 68.5t99.5 54.5t118 41l24 -95q-76 -24 -126 -47t-74.5 -44.5t-24.5 -41.5q0 -13 11.5 -21t45.5 -15t101 -16
q79 -10 132 -25t84.5 -35.5t45.5 -48.5t14 -65q0 -46 -24 -76.5t-73.5 -49t-124.5 -26t-178 -7.5z" />
    <glyph glyph-name="uni06AA.medi" unicode="&#x6aa;" horiz-adv-x="770" 
d="M771 -5q-33 0 -65.5 9.5t-59.5 25.5t-46 35l76 65q22 -14 48.5 -20.5t55.5 -6.5q28 0 41 -15t13 -37q0 -25 -15.5 -40.5t-47.5 -15.5zM0 -5l10 108h291q78 0 134.5 1.5t93.5 7t55 16t18 28.5q0 13 -9 24t-31.5 19.5t-59.5 16t-92 14.5q-95 12 -150 27.5t-78 40t-23 63.5
q0 46 25 84t68.5 68.5t99.5 54.5t118 41l24 -95q-76 -24 -126 -47t-74.5 -44.5t-24.5 -41.5q0 -13 11.5 -21t45.5 -15t101 -16q79 -10 132 -25t84.5 -35.5t45.5 -48.5t14 -65q0 -46 -24 -76.5t-73.5 -49t-124.5 -26t-178 -7.5z" />
    <glyph glyph-name="uni06AA.fina" unicode="&#x6aa;" horiz-adv-x="958" 
d="M958 -5q-32 0 -64.5 9.5t-60 25.5t-45.5 35l76 65q21 -14 48 -20.5t56 -6.5q27 0 40 -15t13 -37q0 -25 -15.5 -40.5t-47.5 -15.5zM490 -15q-32 0 -86.5 1t-118 3t-125.5 6t-109 9l6 103q50 -3 106.5 -6t114 -5.5t111.5 -4t99 -1.5q78 0 135 3.5t94 10.5t55 19t18 30
q0 14 -9.5 25.5t-32 20.5t-59.5 16.5t-92 14.5q-95 12 -150 27.5t-78 40t-23 63.5q0 46 25.5 84t68.5 68.5t99.5 54.5t117.5 41l25 -95q-77 -24 -127 -47.5t-74.5 -45t-24.5 -40.5q0 -13 11.5 -21t45.5 -15t101 -16q79 -10 132 -25t84.5 -35.5t45.5 -48.5t14 -65
q0 -46 -23.5 -78t-73.5 -52.5t-125 -30t-178 -9.5z" />
    <glyph glyph-name="uni06AB.init" unicode="&#x6ab;" horiz-adv-x="363" 
d="M273 455q-33 0 -56 23.5t-23 56.5t23 56t56 23q34 0 56.5 -23t22.5 -56t-22.5 -56.5t-56.5 -23.5zM273 505q13 0 22.5 8.5t9.5 21.5q0 14 -9.5 22.5t-22.5 8.5t-22.5 -9t-9.5 -22t9.5 -21.5t22.5 -8.5zM0 -5l10 108h79q28 0 46.5 6.5t28 17.5t13.5 25t4 27
q0 36 -22.5 73.5t-51.5 71.5q-22 25 -38.5 43.5t-28 32.5t-17.5 23.5t-6 16.5q0 13 2.5 31t7 35t10.5 24q12 13 33 30.5t53.5 40t80 51.5t113.5 64l53 -89q-56 -31 -98.5 -55t-75.5 -44.5t-58 -39.5t-46 -38l7 50q39 -45 74 -86.5t63 -81t44 -80t16 -84.5q0 -30 -10 -60
t-34.5 -56t-66 -41.5t-104.5 -15.5h-81z" />
    <glyph glyph-name="uni06AB.medi" unicode="&#x6ab;" horiz-adv-x="404" 
d="M273 454q-34 0 -57 23t-23 56q0 34 23 57t57 23q33 0 56 -23t23 -57q0 -33 -23 -56t-56 -23zM273 503q13 0 22.5 8.5t9.5 21.5q0 14 -9.5 22.5t-22.5 8.5q-14 0 -23 -8.5t-9 -22.5q0 -13 9 -21.5t23 -8.5zM0 -5l9 108h74q35 0 56 8.5t31.5 26t10.5 41.5q0 18 -12 42.5
t-30.5 51t-39.5 53t-39.5 49.5t-30.5 39.5t-12 23.5q0 15 2.5 34t7 35.5t11.5 23.5q18 18 47 40t66 46.5t79 49.5t86 48l53 -89q-45 -24 -85 -47.5t-74.5 -45t-62.5 -41t-49 -38.5l-3 47q26 -32 51 -62.5t49.5 -64t48 -73t46.5 -88.5q23 -46 41 -70t37.5 -32t46.5 -8t40 -15
t13 -37q0 -24 -15 -40t-48 -16q-39 0 -69.5 12.5t-53.5 40t-41 74.5l38 -5q-8 -34 -26 -57.5t-44 -38t-59.5 -20.5t-72.5 -6h-77z" />
    <glyph glyph-name="uni06AB.fina" unicode="&#x6ab;" horiz-adv-x="832" 
d="M696 450q-34 0 -57 23.5t-23 56.5t23 56t57 23q33 0 56 -23t23 -56t-23 -56.5t-56 -23.5zM696 500q13 0 22.5 8.5t9.5 21.5q0 14 -9.5 22.5t-22.5 8.5q-14 0 -23 -9t-9 -22t9 -21.5t23 -8.5zM332 -21l25 108q60 0 107 4t79 14t48.5 27.5t16.5 44.5q0 20 -12 44.5
t-30.5 51.5t-39 53t-39 48.5t-30.5 39.5t-12 25q0 14 2.5 32t7 34.5t10.5 23.5q25 26 68.5 57t98 64.5t112.5 65.5l53 -89q-64 -36 -115 -66.5t-90.5 -57.5t-69.5 -53v51q26 -28 52.5 -61.5t53 -71t50.5 -77.5t43 -82q15 -34 28.5 -55t27 -32t29.5 -15t37 -4q27 0 40 -15
t13 -37q0 -24 -15 -40t-47 -16q-37 0 -69.5 13.5t-56 41.5t-36.5 72l35 2q-12 -46 -42 -74.5t-77 -44t-111 -21t-145 -5.5zM332 -21q-72 0 -128 13t-94.5 39.5t-58 65.5t-19.5 92q0 28 5.5 59.5t14 62.5t16.5 56l95 -26q-5 -17 -10.5 -38.5t-9.5 -45t-4 -44.5
q0 -36 17.5 -65t65 -45t135.5 -16l20 -77z" />
    <glyph glyph-name="uni06AC.init" unicode="&#x6ac;" horiz-adv-x="363" 
d="M0 -5l10 108h79q28 0 46.5 6.5t28 17.5t13.5 25t4 27q0 36 -22.5 73.5t-51.5 71.5q-22 25 -38.5 43.5t-28 32.5t-17.5 23.5t-6 16.5q0 13 2.5 31t7 35t10.5 24q12 13 33 30.5t53.5 40t80 51.5t113.5 64l53 -89q-56 -31 -98.5 -55t-75.5 -44.5t-58 -39.5t-46 -38l7 50
q39 -45 74 -86.5t63 -81t44 -80t16 -84.5q0 -30 -10 -60t-34.5 -56t-66 -41.5t-104.5 -15.5h-81zM143 720q-25 0 -42 16.5t-17 40.5t16.5 41.5t42.5 17.5q23 0 39.5 -17.5t16.5 -41.5t-16.5 -40.5t-39.5 -16.5z" />
    <glyph glyph-name="uni06AC.medi" unicode="&#x6ac;" horiz-adv-x="404" 
d="M0 -5l9 108h74q35 0 56 8.5t31.5 26t10.5 41.5q0 18 -12 42.5t-30.5 51t-39.5 53t-39.5 49.5t-30.5 39.5t-12 23.5q0 15 2.5 34t7 35.5t11.5 23.5q18 18 47 40t66 46.5t79 49.5t86 48l53 -89q-45 -24 -85 -47.5t-74.5 -45t-62.5 -41t-49 -38.5l-3 47q26 -32 51 -62.5
t49.5 -64t48 -73t46.5 -88.5q23 -46 41 -70t37.5 -32t46.5 -8t40 -15t13 -37q0 -24 -15 -40t-48 -16q-39 0 -69.5 12.5t-53.5 40t-41 74.5l38 -5q-8 -34 -26 -57.5t-44 -38t-59.5 -20.5t-72.5 -6h-77zM144 720q-25 0 -42 16.5t-17 40.5t16.5 41.5t42.5 17.5q23 0 39.5 -17.5
t16.5 -41.5t-16.5 -40.5t-39.5 -16.5z" />
    <glyph glyph-name="uni06AC.fina" unicode="&#x6ac;" horiz-adv-x="848" 
d="M332 -21l25 108q91 -1 147.5 6t88 26t42.5 52t9 83l-22 467h110l21 -468q3 -59 16.5 -91.5t36 -45.5t52.5 -13q28 0 41 -15t13 -37q0 -24 -15.5 -40t-47.5 -16q-41 0 -72.5 13.5t-51.5 39.5t-27 63l41 -1q-22 -41 -58 -67t-86 -40t-115.5 -19.5t-147.5 -4.5zM317 220
l-22 79q37 10 60.5 17t34 14.5t10.5 16.5t-9.5 18.5t-23 21.5t-23 26.5t-9.5 33.5q0 22 12 42.5t39.5 41t73.5 41.5l37 -72q-41 -17 -59 -31t-18 -27q0 -9 10 -20t23 -24t23 -28.5t10 -34.5q0 -15 -5.5 -30t-23 -29.5t-51 -28t-89.5 -27.5zM332 -21q-72 0 -128 13
t-94.5 39.5t-58 65.5t-19.5 92q0 27 5.5 59t14 63t16.5 56l95 -26q-5 -17 -10.5 -38.5t-9.5 -45t-4 -44.5q0 -36 17.5 -65t65 -45t135.5 -16l20 -77zM413 647q-25 0 -42 16.5t-17 40.5t16.5 41.5t42.5 17.5q23 0 39.5 -17.5t16.5 -41.5t-16.5 -40.5t-39.5 -16.5z" />
    <glyph glyph-name="uni06AE.init" unicode="&#x6ae;" horiz-adv-x="363" 
d="M0 -5l10 108h79q28 0 46.5 6.5t28 17.5t13.5 25t4 27q0 36 -22.5 73.5t-51.5 71.5q-22 25 -38.5 43.5t-28 32.5t-17.5 23.5t-6 16.5q0 13 2.5 31t7 35t10.5 24q12 13 33 30.5t53.5 40t80 51.5t113.5 64l53 -89q-56 -31 -98.5 -55t-75.5 -44.5t-58 -39.5t-46 -38l7 50
q39 -45 74 -86.5t63 -81t44 -80t16 -84.5q0 -30 -10 -60t-34.5 -56t-66 -41.5t-104.5 -15.5h-81zM162 -333q-23 0 -39.5 16t-16.5 39t16.5 40t39.5 17q22 0 38.5 -17t16.5 -40t-16.5 -39t-38.5 -16zM88 -203q-23 0 -39.5 16t-16.5 39t16.5 40t39.5 17t39 -17t16 -40
t-16.5 -39t-38.5 -16zM238 -203q-23 0 -39.5 16t-16.5 39t16.5 40t39.5 17q22 0 38.5 -17t16.5 -40t-16.5 -39t-38.5 -16z" />
    <glyph glyph-name="uni06AE.medi" unicode="&#x6ae;" horiz-adv-x="404" 
d="M0 -5l9 108h74q35 0 56 8.5t31.5 26t10.5 41.5q0 18 -12 42.5t-30.5 51t-39.5 53t-39.5 49.5t-30.5 39.5t-12 23.5q0 15 2.5 34t7 35.5t11.5 23.5q18 18 47 40t66 46.5t79 49.5t86 48l53 -89q-45 -24 -85 -47.5t-74.5 -45t-62.5 -41t-49 -38.5l-3 47q26 -32 51 -62.5
t49.5 -64t48 -73t46.5 -88.5q23 -46 41 -70t37.5 -32t46.5 -8t40 -15t13 -37q0 -24 -15 -40t-48 -16q-39 0 -69.5 12.5t-53.5 40t-41 74.5l38 -5q-8 -34 -26 -57.5t-44 -38t-59.5 -20.5t-72.5 -6h-77zM160 -333q-23 0 -39.5 16t-16.5 39t16.5 40t39.5 17q22 0 38.5 -17
t16.5 -40t-16.5 -39t-38.5 -16zM86 -203q-23 0 -39.5 16t-16.5 39t16.5 40t39.5 17t39 -17t16 -40t-16.5 -39t-38.5 -16zM236 -203q-23 0 -39.5 16t-16.5 39t16.5 40t39.5 17q22 0 38.5 -17t16.5 -40t-16.5 -39t-38.5 -16z" />
    <glyph glyph-name="uni06AE.fina" unicode="&#x6ae;" horiz-adv-x="848" 
d="M332 -21l25 108q91 -1 147.5 6t88 26t42.5 52t9 83l-22 467h110l21 -468q3 -59 16.5 -91.5t36 -45.5t52.5 -13q28 0 41 -15t13 -37q0 -24 -15.5 -40t-47.5 -16q-41 0 -72.5 13.5t-51.5 39.5t-27 63l41 -1q-22 -41 -58 -67t-86 -40t-115.5 -19.5t-147.5 -4.5zM317 220
l-22 79q37 10 60.5 17t34 14.5t10.5 16.5t-9.5 18.5t-23 21.5t-23 26.5t-9.5 33.5q0 22 12 42.5t39.5 41t73.5 41.5l37 -72q-41 -17 -59 -31t-18 -27q0 -9 10 -20t23 -24t23 -28.5t10 -34.5q0 -15 -5.5 -30t-23 -29.5t-51 -28t-89.5 -27.5zM332 -21q-72 0 -128 13
t-94.5 39.5t-58 65.5t-19.5 92q0 27 5.5 59t14 63t16.5 56l95 -26q-5 -17 -10.5 -38.5t-9.5 -45t-4 -44.5q0 -36 17.5 -65t65 -45t135.5 -16l20 -77zM363 -354q-23 0 -39.5 16t-16.5 39t16.5 40t39.5 17q22 0 38.5 -17t16.5 -40t-16.5 -39t-38.5 -16zM289 -224
q-23 0 -39.5 16t-16.5 39t16.5 40t39.5 17t39 -17t16 -40t-16.5 -39t-38.5 -16zM439 -224q-23 0 -39.5 16t-16.5 39t16.5 40t39.5 17q22 0 38.5 -17t16.5 -40t-16.5 -39t-38.5 -16z" />
    <glyph glyph-name="uni06B0.init" unicode="&#x6b0;" horiz-adv-x="361" 
d="M274 455q-33 0 -56 23.5t-23 56.5q0 34 23 57t56 23q34 0 56.5 -23t22.5 -57q0 -33 -22.5 -56.5t-56.5 -23.5zM274 505q13 0 22.5 8.5t9.5 21.5q0 14 -9.5 22.5t-22.5 8.5t-22.5 -9t-9.5 -22t9.5 -21.5t22.5 -8.5zM31 611l-48 78q38 24 78 48.5t84.5 51.5t95.5 57l47 -79
q-50 -29 -95 -56t-85 -52t-77 -48zM0 -5l10 108h79q28 0 46.5 6.5t28 17.5t13.5 25t4 27q0 36 -22.5 73.5t-51.5 71.5q-22 25 -38.5 43.5t-28 32.5t-17.5 23.5t-6 16.5q0 13 2.5 31t7 35t10.5 24q12 13 33 30.5t53.5 40t80 51.5t113.5 64l53 -89q-56 -31 -98.5 -55
t-75.5 -44.5t-58 -39.5t-46 -38l7 50q39 -45 74 -86.5t63 -81t44 -80t16 -84.5q0 -30 -10 -60t-34.5 -56t-66 -41.5t-104.5 -15.5h-81z" />
    <glyph glyph-name="uni06B0.medi" unicode="&#x6b0;" horiz-adv-x="404" 
d="M280 458q-34 0 -56.5 23t-22.5 56q0 34 22.5 57t56.5 23q33 0 56 -23t23 -57q0 -33 -23 -56t-56 -23zM280 507q13 0 22.5 8.5t9.5 21.5q0 14 -9.5 22.5t-22.5 8.5q-14 0 -23 -8.5t-9 -22.5q0 -13 9 -21.5t23 -8.5zM30 611l-48 78q38 24 77.5 48.5t84.5 51.5t96 57l47 -79
q-51 -29 -96 -56t-84.5 -52t-76.5 -48zM0 -5l9 108h74q35 0 56 8.5t31.5 26t10.5 41.5q0 18 -12 42.5t-30.5 51t-39.5 53t-39.5 49.5t-30.5 39.5t-12 23.5q0 15 2.5 34t7 35.5t11.5 23.5q18 18 47 40t66 46.5t79 49.5t86 48l53 -89q-45 -24 -85 -47.5t-74.5 -45t-62.5 -41
t-49 -38.5l-3 47q26 -32 51 -62.5t49.5 -64t48 -73t46.5 -88.5q23 -46 41 -70t37.5 -32t46.5 -8t40 -15t13 -37q0 -24 -15 -40t-48 -16q-39 0 -69.5 12.5t-53.5 40t-41 74.5l38 -5q-8 -34 -26 -57.5t-44 -38t-59.5 -20.5t-72.5 -6h-77z" />
    <glyph glyph-name="uni06B0.fina" unicode="&#x6b0;" horiz-adv-x="824" 
d="M699 452q-33 0 -56 23.5t-23 56.5q0 34 23 57t56 23q34 0 56.5 -23t22.5 -57q0 -33 -22.5 -56.5t-56.5 -23.5zM699 502q14 0 23 8.5t9 21.5q0 14 -9 22.5t-23 8.5q-13 0 -22 -9t-9 -22t9 -21.5t22 -8.5zM462 613l-48 77q38 24 78 48.5t84.5 51.5t95.5 57l47 -79
q-51 -29 -95.5 -55.5t-84.5 -51.5t-77 -48zM332 -21l25 108q60 0 107 4t79 14t48.5 27.5t16.5 44.5q0 20 -12 44.5t-30.5 51.5t-39 53t-39 48.5t-30.5 39.5t-12 25q0 14 2.5 32t7 34.5t10.5 23.5q25 26 68.5 57t98 64.5t112.5 65.5l53 -89q-64 -36 -115 -66.5t-90.5 -57.5
t-69.5 -53v51q26 -28 52.5 -61.5t53 -71t50.5 -77.5t43 -82q15 -34 28.5 -55t27 -32t29.5 -15t37 -4q27 0 40 -15t13 -37q0 -24 -15 -40t-47 -16q-37 0 -69.5 13.5t-56 41.5t-36.5 72l35 2q-12 -46 -42 -74.5t-77 -44t-111 -21t-145 -5.5zM332 -21q-72 0 -128 13t-94.5 39.5
t-58 65.5t-19.5 92q0 28 5.5 59.5t14 62.5t16.5 56l95 -26q-5 -17 -10.5 -38.5t-9.5 -45t-4 -44.5q0 -36 17.5 -65t65 -45t135.5 -16l20 -77z" />
    <glyph glyph-name="uni06B2.init" unicode="&#x6b2;" horiz-adv-x="361" 
d="M31 611l-48 78q38 24 78 48.5t84.5 51.5t95.5 57l47 -79q-50 -29 -95 -56t-85 -52t-77 -48zM0 -5l10 108h79q28 0 46.5 6.5t28 17.5t13.5 25t4 27q0 36 -22.5 73.5t-51.5 71.5q-22 25 -38.5 43.5t-28 32.5t-17.5 23.5t-6 16.5q0 13 2.5 31t7 35t10.5 24q12 13 33 30.5
t53.5 40t80 51.5t113.5 64l53 -89q-56 -31 -98.5 -55t-75.5 -44.5t-58 -39.5t-46 -38l7 50q39 -45 74 -86.5t63 -81t44 -80t16 -84.5q0 -30 -10 -60t-34.5 -56t-66 -41.5t-104.5 -15.5h-81zM233 -205q-25 0 -42 16.5t-17 40.5t16.5 41.5t42.5 17.5q23 0 39.5 -17.5
t16.5 -41.5t-16.5 -40.5t-39.5 -16.5zM83 -205q-25 0 -42 16.5t-17 40.5t16.5 41.5t42.5 17.5q23 0 39.5 -17.5t16.5 -41.5t-16.5 -40.5t-39.5 -16.5z" />
    <glyph glyph-name="uni06B2.medi" unicode="&#x6b2;" horiz-adv-x="404" 
d="M30 611l-48 78q38 24 77.5 48.5t84.5 51.5t96 57l47 -79q-51 -29 -96 -56t-84.5 -52t-76.5 -48zM0 -5l9 108h74q35 0 56 8.5t31.5 26t10.5 41.5q0 18 -12 42.5t-30.5 51t-39.5 53t-39.5 49.5t-30.5 39.5t-12 23.5q0 15 2.5 34t7 35.5t11.5 23.5q18 18 47 40t66 46.5
t79 49.5t86 48l53 -89q-45 -24 -85 -47.5t-74.5 -45t-62.5 -41t-49 -38.5l-3 47q26 -32 51 -62.5t49.5 -64t48 -73t46.5 -88.5q23 -46 41 -70t37.5 -32t46.5 -8t40 -15t13 -37q0 -24 -15 -40t-48 -16q-39 0 -69.5 12.5t-53.5 40t-41 74.5l38 -5q-8 -34 -26 -57.5t-44 -38
t-59.5 -20.5t-72.5 -6h-77zM230 -205q-25 0 -42 16.5t-17 40.5t16.5 41.5t42.5 17.5q23 0 39.5 -17.5t16.5 -41.5t-16.5 -40.5t-39.5 -16.5zM80 -205q-25 0 -42 16.5t-17 40.5t16.5 41.5t42.5 17.5q23 0 39.5 -17.5t16.5 -41.5t-16.5 -40.5t-39.5 -16.5z" />
    <glyph glyph-name="uni06B2.fina" unicode="&#x6b2;" horiz-adv-x="824" 
d="M462 613l-48 77q38 24 78 48.5t84.5 51.5t95.5 57l47 -79q-51 -29 -95.5 -55.5t-84.5 -51.5t-77 -48zM332 -21l25 108q60 0 107 4t79 14t48.5 27.5t16.5 44.5q0 20 -12 44.5t-30.5 51.5t-39 53t-39 48.5t-30.5 39.5t-12 25q0 14 2.5 32t7 34.5t10.5 23.5q25 26 68.5 57
t98 64.5t112.5 65.5l53 -89q-64 -36 -115 -66.5t-90.5 -57.5t-69.5 -53v51q26 -28 52.5 -61.5t53 -71t50.5 -77.5t43 -82q15 -34 28.5 -55t27 -32t29.5 -15t37 -4q27 0 40 -15t13 -37q0 -24 -15 -40t-47 -16q-37 0 -69.5 13.5t-56 41.5t-36.5 72l35 2q-12 -46 -42 -74.5
t-77 -44t-111 -21t-145 -5.5zM332 -21q-72 0 -128 13t-94.5 39.5t-58 65.5t-19.5 92q0 28 5.5 59.5t14 62.5t16.5 56l95 -26q-5 -17 -10.5 -38.5t-9.5 -45t-4 -44.5q0 -36 17.5 -65t65 -45t135.5 -16l20 -77zM444 -226q-25 0 -42 16.5t-17 40.5t16.5 41.5t42.5 17.5
q23 0 39.5 -17.5t16.5 -41.5t-16.5 -40.5t-39.5 -16.5zM294 -226q-25 0 -42 16.5t-17 40.5t16.5 41.5t42.5 17.5q23 0 39.5 -17.5t16.5 -41.5t-16.5 -40.5t-39.5 -16.5z" />
    <glyph glyph-name="uni06B4.init" unicode="&#x6b4;" horiz-adv-x="361" 
d="M35 919q-22 0 -36.5 14.5t-14.5 34.5q0 22 14.5 36.5t36.5 14.5q20 0 34 -14.5t14 -36.5q0 -20 -14 -34.5t-34 -14.5zM22 791q-21 0 -36 14.5t-15 34.5q0 22 15 36.5t36 14.5q20 0 34.5 -14.5t14.5 -36.5q0 -20 -14.5 -34.5t-34.5 -14.5zM141 843q-22 0 -36.5 14.5
t-14.5 35.5q0 20 14.5 35.5t36.5 15.5q20 0 34.5 -15.5t14.5 -35.5q0 -21 -14.5 -35.5t-34.5 -14.5zM31 611l-48 78q38 24 78 48.5t84.5 51.5t95.5 57l47 -79q-50 -29 -95 -56t-85 -52t-77 -48zM0 -5l10 108h79q28 0 46.5 6.5t28 17.5t13.5 25t4 27q0 36 -22.5 73.5
t-51.5 71.5q-22 25 -38.5 43.5t-28 32.5t-17.5 23.5t-6 16.5q0 13 2.5 31t7 35t10.5 24q12 13 33 30.5t53.5 40t80 51.5t113.5 64l53 -89q-56 -31 -98.5 -55t-75.5 -44.5t-58 -39.5t-46 -38l7 50q39 -45 74 -86.5t63 -81t44 -80t16 -84.5q0 -30 -10 -60t-34.5 -56t-66 -41.5
t-104.5 -15.5h-81z" />
    <glyph glyph-name="uni06B4.medi" unicode="&#x6b4;" horiz-adv-x="404" 
d="M27 919q-21 0 -36 14.5t-15 34.5q0 22 15 36.5t36 14.5t35 -14.5t14 -36.5q0 -20 -14 -34.5t-35 -14.5zM14 791q-21 0 -35.5 14.5t-14.5 34.5q0 22 14.5 36.5t35.5 14.5t35 -14.5t14 -36.5q0 -20 -14 -34.5t-35 -14.5zM133 843q-21 0 -35.5 14.5t-14.5 35.5
q0 20 14.5 35.5t35.5 15.5q20 0 34.5 -15.5t14.5 -35.5q0 -21 -14.5 -35.5t-34.5 -14.5zM30 611l-48 78q38 24 77.5 48.5t84.5 51.5t96 57l47 -79q-51 -29 -96 -56t-84.5 -52t-76.5 -48zM0 -5l9 108h74q35 0 56 8.5t31.5 26t10.5 41.5q0 18 -12 42.5t-30.5 51t-39.5 53
t-39.5 49.5t-30.5 39.5t-12 23.5q0 15 2.5 34t7 35.5t11.5 23.5q18 18 47 40t66 46.5t79 49.5t86 48l53 -89q-45 -24 -85 -47.5t-74.5 -45t-62.5 -41t-49 -38.5l-3 47q26 -32 51 -62.5t49.5 -64t48 -73t46.5 -88.5q23 -46 41 -70t37.5 -32t46.5 -8t40 -15t13 -37
q0 -24 -15 -40t-48 -16q-39 0 -69.5 12.5t-53.5 40t-41 74.5l38 -5q-8 -34 -26 -57.5t-44 -38t-59.5 -20.5t-72.5 -6h-77z" />
    <glyph glyph-name="uni06B4.fina" unicode="&#x6b4;" horiz-adv-x="824" 
d="M459 920q-22 0 -36.5 14.5t-14.5 34.5q0 21 14.5 36t36.5 15q20 0 34 -15t14 -36q0 -20 -14 -34.5t-34 -14.5zM446 792q-21 0 -36 14.5t-15 34.5q0 21 15 36t36 15q20 0 34.5 -15t14.5 -36q0 -20 -14.5 -34.5t-34.5 -14.5zM565 844q-22 0 -36.5 14t-14.5 35t14.5 36
t36.5 15q20 0 34.5 -15t14.5 -36t-14.5 -35t-34.5 -14zM462 613l-48 77q38 24 78 48.5t84.5 51.5t95.5 57l47 -79q-51 -29 -95.5 -55.5t-84.5 -51.5t-77 -48zM332 -21l25 108q60 0 107 4t79 14t48.5 27.5t16.5 44.5q0 20 -12 44.5t-30.5 51.5t-39 53t-39 48.5t-30.5 39.5
t-12 25q0 14 2.5 32t7 34.5t10.5 23.5q25 26 68.5 57t98 64.5t112.5 65.5l53 -89q-64 -36 -115 -66.5t-90.5 -57.5t-69.5 -53v51q26 -28 52.5 -61.5t53 -71t50.5 -77.5t43 -82q15 -34 28.5 -55t27 -32t29.5 -15t37 -4q27 0 40 -15t13 -37q0 -24 -15 -40t-47 -16
q-37 0 -69.5 13.5t-56 41.5t-36.5 72l35 2q-12 -46 -42 -74.5t-77 -44t-111 -21t-145 -5.5zM332 -21q-72 0 -128 13t-94.5 39.5t-58 65.5t-19.5 92q0 28 5.5 59.5t14 62.5t16.5 56l95 -26q-5 -17 -10.5 -38.5t-9.5 -45t-4 -44.5q0 -36 17.5 -65t65 -45t135.5 -16l20 -77z
" />
    <glyph glyph-name="uni06B5.init" unicode="&#x6b5;" horiz-adv-x="249" 
d="M0 -5l9 108q34 0 49.5 11.5t19.5 41.5t2 83l-19 482h111l20 -486q3 -56 -3 -100.5t-26 -75.5t-59 -47.5t-104 -16.5zM90 816q-6 14 -16 39t-20.5 53.5t-20 54t-16.5 40.5l47 21q5 -9 13 -30.5t18.5 -47.5t20 -49.5t15.5 -36.5l20 -39zM150 821l-44 18q6 16 16 43.5
t20 57.5t18.5 54t10.5 31l48 -16q-3 -9 -12 -34t-20.5 -55t-21.5 -57.5t-15 -41.5z" />
    <glyph glyph-name="uni06B5.medi" unicode="&#x6b5;" horiz-adv-x="264" 
d="M0 -5l10 108q28 0 42.5 12t18.5 42t2 83l-17 481h112l18 -479q2 -55 10.5 -85.5t27.5 -42t51 -11.5q27 0 40 -15t13 -37q0 -25 -15 -40.5t-47 -15.5q-31 0 -61.5 11.5t-52.5 36.5t-27 66l39 -1q-15 -39 -38 -64.5t-54 -37t-72 -11.5zM92 835q-6 14 -16 39t-20.5 53.5
t-20 54t-16.5 40.5l47 21q5 -9 13 -30.5t18.5 -47.5t20 -49.5t15.5 -36.5l20 -39zM152 840l-44 18q6 16 16 43.5t20 57.5t18.5 54t10.5 31l48 -16q-3 -9 -12 -34t-20.5 -55t-21.5 -57.5t-15 -41.5z" />
    <glyph glyph-name="uni06B5.fina" unicode="&#x6b5;" horiz-adv-x="652" 
d="M38 5q0 21 4 49.5t15.5 68.5t36.5 91l95 -40q-14 -34 -23 -60.5t-13 -49t-4 -46.5q0 -46 17.5 -78t49 -47.5t71.5 -15.5q67 0 103 31t48.5 95t8.5 163l-19 555h113l15 -485q2 -54 15.5 -83t36.5 -39.5t54 -10.5q27 0 40 -15t13 -37q0 -26 -15 -41t-47 -15
q-20 0 -41.5 5.5t-40 18t-32 33t-19.5 51.5l36 -13q-2 -67 -19 -125t-50 -102t-84 -68.5t-121 -24.5q-47 0 -90.5 14t-78 43t-55 73t-20.5 105zM200 571q-6 14 -16 39t-20.5 53.5t-20 54t-16.5 40.5l47 21q5 -9 13 -30.5t18.5 -47.5t20 -49.5t15.5 -36.5l20 -39zM260 576
l-44 18q6 16 16 43.5t20 57.5t18.5 54t10.5 31l48 -16q-3 -9 -12 -34t-20.5 -55t-21.5 -57.5t-15 -41.5z" />
    <glyph glyph-name="uni06B6.init" unicode="&#x6b6;" horiz-adv-x="249" 
d="M0 -5l9 108q34 0 49.5 11.5t19.5 41.5t2 83l-19 482h111l20 -486q3 -56 -3 -100.5t-26 -75.5t-59 -47.5t-104 -16.5zM119 803q-25 0 -42 16.5t-17 40.5t16.5 41.5t42.5 17.5q23 0 39.5 -17.5t16.5 -41.5t-16.5 -40.5t-39.5 -16.5z" />
    <glyph glyph-name="uni06B6.medi" unicode="&#x6b6;" horiz-adv-x="264" 
d="M0 -5l10 108q28 0 42.5 12t18.5 42t2 83l-17 481h112l18 -479q2 -55 10.5 -85.5t27.5 -42t51 -11.5q27 0 40 -15t13 -37q0 -25 -15 -40.5t-47 -15.5q-31 0 -61.5 11.5t-52.5 36.5t-27 66l39 -1q-15 -39 -38 -64.5t-54 -37t-72 -11.5zM119 804q-25 0 -42 16.5t-17 40.5
t16.5 41.5t42.5 17.5q23 0 39.5 -17.5t16.5 -41.5t-16.5 -40.5t-39.5 -16.5z" />
    <glyph glyph-name="uni06B6.fina" unicode="&#x6b6;" horiz-adv-x="652" 
d="M38 5q0 21 4 49.5t15.5 68.5t36.5 91l95 -40q-14 -34 -23 -60.5t-13 -49t-4 -46.5q0 -46 17.5 -78t49 -47.5t71.5 -15.5q67 0 103 31t48.5 95t8.5 163l-19 555h113l15 -485q2 -54 15.5 -83t36.5 -39.5t54 -10.5q27 0 40 -15t13 -37q0 -26 -15 -41t-47 -15
q-20 0 -41.5 5.5t-40 18t-32 33t-19.5 51.5l36 -13q-2 -67 -19 -125t-50 -102t-84 -68.5t-121 -24.5q-47 0 -90.5 14t-78 43t-55 73t-20.5 105zM230 558q-25 0 -42 16.5t-17 40.5t16.5 41.5t42.5 17.5q23 0 39.5 -17.5t16.5 -41.5t-16.5 -40.5t-39.5 -16.5z" />
    <glyph glyph-name="uni06B7.init" unicode="&#x6b7;" horiz-adv-x="249" 
d="M0 -5l9 108q34 0 49.5 11.5t19.5 41.5t2 83l-19 482h111l20 -486q3 -56 -3 -100.5t-26 -75.5t-59 -47.5t-104 -16.5zM119 934q-25 0 -41.5 17t-16.5 40q0 25 16.5 42t41.5 17q23 0 40 -17t17 -41q0 -25 -17 -41.5t-40 -16.5zM46 803q-24 0 -41 16.5t-17 40.5t17 41.5
t41 17.5t41 -17.5t17 -41.5t-17.5 -40.5t-40.5 -16.5zM198 803q-25 0 -42 16.5t-17 40.5q0 25 17 42t42 17q23 0 40 -17t17 -42q0 -24 -17 -40.5t-40 -16.5z" />
    </font>
</defs>
</svg>
