<?xml version="1.0" standalone="no"?>
<!DOCTYPE svg PUBLIC "-//W3C//DTD SVG 1.1//EN" "http://www.w3.org/Graphics/SVG/1.1/DTD/svg11.dtd" >
<svg xmlns="http://www.w3.org/2000/svg" xmlns:xlink="http://www.w3.org/1999/xlink" version="1.1">
<metadata>
Created by FontForge 20170731 at Thu Nov 12 05:28:44 2020
 By Aleksey,,,
Copyright 2015-2020 Google LLC. All Rights Reserved.
</metadata>
<defs>
<font id="NotoSansArabic-Black" horiz-adv-x="0" >
  <font-face 
    font-family="Noto Sans Arabic Black"
    font-weight="900"
    font-stretch="normal"
    units-per-em="1000"
    panose-1="0 0 0 0 0 0 0 0 0 0"
    ascent="800"
    descent="-200"
    bbox="-220 -738 2785 1180"
    underline-thickness="50"
    underline-position="-175"
    unicode-range="U+000D-FEFC"
  />
<missing-glyph horiz-adv-x="600" 
d="M94 0v714h411v-714h-411zM145 51h309v612h-309v-612z" />
    <glyph glyph-name="uniFC43" unicode="&#xfedf;&#xfef0;" horiz-adv-x="1166" arabic-form="isolated" 
d="M841 -5l10 168q40 0 58.5 9t23 36.5t1.5 83.5l-19 468h173l21 -490q3 -61 -3.5 -111.5t-32.5 -87t-81.5 -56.5t-150.5 -20zM24 35q0 28 4 58.5t16 71.5t36 100l155 -55q-14 -39 -21.5 -63.5t-10 -42.5t-2.5 -38q0 -25 9.5 -47.5t32.5 -40.5t62 -28.5t98 -10.5
q70 0 113 10.5t66 25.5t31.5 30t8.5 23q0 9 -7.5 17.5t-22 17.5t-36 18t-49.5 19l47 144q37 -16 75.5 -31t76.5 -26t74.5 -17.5t70.5 -6.5q48 0 69 -24t21 -58q0 -38 -25 -62t-75 -24h-18h-17.5h-17.5q1 -4 1.5 -9t0.5 -10q0 -30 -23.5 -65.5t-72 -68t-124 -53t-179.5 -20.5
q-109 0 -191.5 28.5t-129 87.5t-46.5 150z" />
    <glyph glyph-name="uniFC86" unicode="&#xfee0;&#xfef0;" horiz-adv-x="1193" arabic-form="final" 
d="M841 -5l10 168q40 0 58.5 9t22.5 36.5t2 83.5l-15 468h173l17 -467q2 -55 10 -83t28 -37.5t56 -9.5q48 0 69 -24t21 -58q0 -38 -25 -62t-75 -24q-41 0 -80.5 11t-68.5 42t-38 89h59q-21 -53 -51.5 -84.5t-72.5 -44.5t-100 -13zM24 35q0 28 4 58.5t16 71.5t36 100l155 -55
q-14 -39 -21.5 -63.5t-10 -42.5t-2.5 -38q0 -25 9.5 -47.5t32.5 -40.5t62 -28.5t98 -10.5q70 0 113 10.5t66 25.5t31.5 30t8.5 23q0 9 -7.5 17.5t-22 17.5t-36 18t-49.5 19l47 144q37 -16 75.5 -31t76.5 -26t74.5 -17.5t70.5 -6.5q48 0 69 -24t21 -58q0 -38 -25 -62t-75 -24
h-18h-17.5h-17.5q1 -4 1.5 -9t0.5 -10q0 -30 -23.5 -65.5t-72 -68t-124 -53t-179.5 -20.5q-109 0 -191.5 28.5t-129 87.5t-46.5 150z" />
    <glyph glyph-name="uniFD82" unicode="&#xfee0;&#xfea4;&#xfef0;" horiz-adv-x="1921" arabic-form="final" 
d="M1569 -5l10 168q40 0 58.5 9t22.5 36.5t2 83.5l-15 468h173l17 -467q2 -55 10 -83t28 -37.5t56 -9.5q48 0 69 -24t21 -58q0 -38 -25 -62t-75 -24q-41 0 -80.5 11t-68.5 42t-38 89h59q-21 -53 -51.5 -84.5t-72.5 -44.5t-100 -13zM1569 -5q-55 0 -98.5 8.5t-76.5 27.5
t-56.5 51t-38.5 79l92 72q13 -27 36 -42.5t60 -21.5t92 -6q48 0 69 -24t21 -58q0 -38 -25 -62t-75 -24zM841 -5l10 168q63 0 123 6t114.5 19t102 33t87.5 48q-33 11 -69 18.5t-74.5 11.5t-81.5 4q-16 0 -41 -1t-50.5 -3.5t-43.5 -6.5l-22 176q30 8 72 11.5t75 3.5
q55 0 103 -11.5t89 -28.5t76.5 -34t67 -28.5t59.5 -11.5h41l21 -152q-39 -4 -74 -21.5t-71.5 -43t-81.5 -52.5t-104.5 -51t-139.5 -39t-188 -15zM24 35q0 28 4 58.5t16 71.5t36 100l155 -55q-14 -39 -21.5 -63.5t-10 -42.5t-2.5 -38q0 -25 9.5 -47.5t32.5 -40.5t62 -28.5
t98 -10.5q70 0 113 10.5t66 25.5t31.5 30t8.5 23q0 9 -7.5 17.5t-22 17.5t-36 18t-49.5 19l47 144q37 -16 75.5 -31t76.5 -26t74.5 -17.5t70.5 -6.5q48 0 69 -24t21 -58q0 -38 -25 -62t-75 -24h-18h-17.5h-17.5q1 -4 1.5 -9t0.5 -10q0 -30 -23.5 -65.5t-72 -68t-124 -53
t-179.5 -20.5q-109 0 -191.5 28.5t-129 87.5t-46.5 150z" />
    <glyph glyph-name="uniFDF2" unicode="&#x627;&#xfedf;&#xfee0;&#xfeea;" horiz-adv-x="1609" arabic-form="isolated" 
d="M611 -5q-56 0 -100.5 9t-76.5 28.5t-52 50.5q-70 -10 -132.5 -5t-111 27.5t-76 64.5t-27.5 105q0 75 38 130t105.5 92.5t154.5 58.5l-4 78h173l17 -370q2 -41 11.5 -63t31 -30t59.5 -8q40 0 58 9t22.5 36.5t2.5 83.5l-9 356h179l11 -355q2 -55 9 -83t30 -37.5t69 -9.5
q40 0 58.5 9t23 36.5t1.5 83.5l-19 468h179l21 -490q3 -61 -4.5 -111.5t-34.5 -87t-83.5 -56.5t-151.5 -20q-35 0 -70 6.5t-64.5 23t-49.5 46.5q-31 -42 -77 -59t-111 -17zM347 242l-7 143q-39 -7 -69.5 -20.5t-47.5 -33t-17 -43.5q0 -15 11 -26t30 -17.5t44.5 -7t55.5 4.5z
M1381 0l-21 760h178l21 -760h-178zM689 721q-46 0 -60.5 30t-14.5 73q0 11 1.5 23.5t4.5 28.5l72 14q-2 -17 -3.5 -31.5t-1.5 -25.5q0 -19 4 -26t12 -7q12 0 17.5 15t6.5 59v30l60 18v-61q0 -17 4 -24t14 -7q12 0 16 9.5t4 25.5q0 17 -4 34.5t-10 34.5l67 14
q10 -19 16.5 -43.5t6.5 -44.5q0 -46 -20 -76t-68 -30q-23 0 -44.5 19t-21.5 57l23 -9q0 -49 -25.5 -74.5t-55.5 -25.5zM692 983l-6 173h115l6 -173h-115z" />
    <glyph glyph-name="uniFEF5" unicode="&#xfedf;&#xfe82;" horiz-adv-x="667" arabic-form="isolated" 
d="M383 560q0 18 -3.5 50.5t-8.5 65.5t-9 54l167 20q4 -20 8 -51t7 -65t3 -66q0 -55 -11 -103t-33.5 -91t-55.5 -82l-22 -16q-30 -32 -66.5 -63t-80.5 -61h82q34 0 52 5t24.5 14t6.5 21q0 17 -31 50t-86.5 76.5t-129.5 92.5t-161 98l77 144q131 -75 219.5 -136.5t143.5 -112
t83.5 -92.5t38.5 -78.5t10 -70.5q0 -25 -10 -53t-32 -53t-57.5 -41t-86.5 -16h-318v187q103 68 164.5 129.5t88.5 121t27 122.5zM215 701q-30 0 -54 10.5t-44 20.5t-37 10q-18 0 -32.5 -9t-30.5 -25l-52 52q30 37 58.5 54.5t56.5 17.5q25 0 46 -10t42.5 -20t46.5 -10
q16 0 30 5.5t34 17.5l39 -65q-38 -33 -62.5 -41t-40.5 -8z" />
    <glyph glyph-name="uniFEF6" unicode="&#xfee0;&#xfe82;" horiz-adv-x="698" arabic-form="final" 
d="M707 -5q-70 0 -120.5 20.5t-83 55t-49 78t-18.5 90.5l-26 521h175l21 -489q2 -46 15.5 -69t37.5 -31t54 -8q35 0 60 -20t25 -64q0 -37 -26 -60.5t-65 -23.5zM134 -5q-27 0 -55 4.5t-39 6.5l19 173q69 -9 135 -7t118.5 25.5t83.5 76.5t31 145l68 -185q-12 -68 -42 -112.5
t-70.5 -70t-85.5 -37.5t-87.5 -15.5t-75.5 -3.5zM347 138q-19 28 -46 64t-64.5 80.5t-87 99.5t-114.5 122l113 119q50 -53 98.5 -108.5t90 -107.5t70.5 -95.5t40 -72.5zM215 701q-30 0 -54 10.5t-44 20.5t-37 10q-18 0 -32.5 -9t-30.5 -25l-52 52q30 37 58.5 54.5t56.5 17.5
q25 0 46 -10t42.5 -20t46.5 -10q16 0 30 5.5t34 17.5l39 -65q-38 -33 -62.5 -41t-40.5 -8z" />
    <glyph glyph-name="uniFEF7" unicode="&#xfedf;&#xfe84;" horiz-adv-x="667" arabic-form="isolated" 
d="M383 560q0 18 -3.5 50.5t-8.5 65.5t-9 54l167 20q4 -20 8 -51t7 -65t3 -66q0 -55 -11 -103t-33.5 -91t-55.5 -82l-22 -16q-30 -32 -66.5 -63t-80.5 -61h82q34 0 52 5t24.5 14t6.5 21q0 17 -31 50t-86.5 76.5t-129.5 92.5t-161 98l77 144q131 -75 219.5 -136.5t143.5 -112
t83.5 -92.5t38.5 -78.5t10 -70.5q0 -25 -10 -53t-32 -53t-57.5 -41t-86.5 -16h-318v187q103 68 164.5 129.5t88.5 121t27 122.5zM37 673l-18 74q41 6 59.5 10t38.5 9l-19 -31q-26 9 -49.5 36t-23.5 62q0 39 17 62t43 33.5t54 10.5q17 0 31 -2t25 -6l-8 -70q-10 2 -20.5 4
t-22.5 2q-19 0 -30 -9t-11 -23q0 -19 12 -32.5t28 -21t27 -8.5l-45 -4q27 7 51 14.5t46 15.5l22 -71q-26 -9 -60 -19.5t-71.5 -19.5t-75.5 -16z" />
    <glyph glyph-name="uniFEF8" unicode="&#xfee0;&#xfe84;" horiz-adv-x="698" arabic-form="final" 
d="M707 -5q-70 0 -120.5 20.5t-83 55t-49 78t-18.5 90.5l-26 521h175l21 -489q2 -46 15.5 -69t37.5 -31t54 -8q35 0 60 -20t25 -64q0 -37 -26 -60.5t-65 -23.5zM134 -5q-27 0 -55 4.5t-39 6.5l19 173q69 -9 135 -7t118.5 25.5t83.5 76.5t31 145l68 -185q-12 -68 -42 -112.5
t-70.5 -70t-85.5 -37.5t-87.5 -15.5t-75.5 -3.5zM347 138q-19 28 -46 64t-64.5 80.5t-87 99.5t-114.5 122l113 119q50 -53 98.5 -108.5t90 -107.5t70.5 -95.5t40 -72.5zM68 673l-18 74q41 6 59.5 10t38.5 9l-19 -31q-26 9 -49.5 36t-23.5 62q0 39 17 62t43 33.5t54 10.5
q17 0 31 -2t25 -6l-8 -70q-10 2 -20.5 4t-22.5 2q-19 0 -30 -9t-11 -23q0 -19 12 -32.5t28 -21t27 -8.5l-45 -4q27 7 51 14.5t46 15.5l22 -71q-26 -9 -60 -19.5t-71.5 -19.5t-75.5 -16z" />
    <glyph glyph-name="uniFEF9" unicode="&#xfedf;&#xfe88;" horiz-adv-x="667" arabic-form="isolated" 
d="M383 560q0 18 -3.5 50.5t-8.5 65.5t-9 54l167 20q4 -20 8 -51t7 -65t3 -66q0 -55 -11 -103t-33.5 -91t-55.5 -82l-22 -16q-30 -32 -66.5 -63t-80.5 -61h82q34 0 52 5t24.5 14t6.5 21q0 17 -31 50t-86.5 76.5t-129.5 92.5t-161 98l77 144q131 -75 219.5 -136.5t143.5 -112
t83.5 -92.5t38.5 -78.5t10 -70.5q0 -25 -10 -53t-32 -53t-57.5 -41t-86.5 -16h-318v187q103 68 164.5 129.5t88.5 121t27 122.5zM95 -313l-18 74q41 6 59.5 10t38.5 9l-19 -31q-26 9 -49.5 36t-23.5 62q0 39 17 62t43 33.5t54 10.5q17 0 31 -2t25 -6l-8 -70q-10 2 -20.5 4
t-22.5 2q-19 0 -30 -9t-11 -23q0 -19 12 -32.5t28 -21t27 -8.5l-45 -4q27 7 51 14.5t46 15.5l22 -71q-26 -9 -60 -19.5t-71.5 -19.5t-75.5 -16z" />
    <glyph glyph-name="uniFEFA" unicode="&#xfee0;&#xfe88;" horiz-adv-x="698" arabic-form="final" 
d="M707 -5q-70 0 -120.5 20.5t-83 55t-49 78t-18.5 90.5l-26 521h175l21 -489q2 -46 15.5 -69t37.5 -31t54 -8q35 0 60 -20t25 -64q0 -37 -26 -60.5t-65 -23.5zM134 -5q-27 0 -55 4.5t-39 6.5l19 173q69 -9 135 -7t118.5 25.5t83.5 76.5t31 145l68 -185q-12 -68 -42 -112.5
t-70.5 -70t-85.5 -37.5t-87.5 -15.5t-75.5 -3.5zM347 138q-19 28 -46 64t-64.5 80.5t-87 99.5t-114.5 122l113 119q50 -53 98.5 -108.5t90 -107.5t70.5 -95.5t40 -72.5zM95 -313l-18 74q41 6 59.5 10t38.5 9l-19 -31q-26 9 -49.5 36t-23.5 62q0 39 17 62t43 33.5t54 10.5
q17 0 31 -2t25 -6l-8 -70q-10 2 -20.5 4t-22.5 2q-19 0 -30 -9t-11 -23q0 -19 12 -32.5t28 -21t27 -8.5l-45 -4q27 7 51 14.5t46 15.5l22 -71q-26 -9 -60 -19.5t-71.5 -19.5t-75.5 -16z" />
    <glyph glyph-name="uniFEFB" unicode="&#xfedf;&#xfe8e;" horiz-adv-x="667" arabic-form="isolated" 
d="M383 560q0 18 -3.5 50.5t-8.5 65.5t-9 54l167 20q4 -20 8 -51t7 -65t3 -66q0 -55 -11 -103t-33.5 -91t-55.5 -82l-22 -16q-30 -32 -66.5 -63t-80.5 -61h82q34 0 52 5t24.5 14t6.5 21q0 17 -31 50t-86.5 76.5t-129.5 92.5t-161 98l77 144q131 -75 219.5 -136.5t143.5 -112
t83.5 -92.5t38.5 -78.5t10 -70.5q0 -25 -10 -53t-32 -53t-57.5 -41t-86.5 -16h-318v187q103 68 164.5 129.5t88.5 121t27 122.5z" />
    <glyph glyph-name="uniFEFC" unicode="&#xfee0;&#xfe8e;" horiz-adv-x="698" arabic-form="final" 
d="M707 -5q-70 0 -120.5 20.5t-83 55t-49 78t-18.5 90.5l-26 521h175l21 -489q2 -46 15.5 -69t37.5 -31t54 -8q35 0 60 -20t25 -64q0 -37 -26 -60.5t-65 -23.5zM134 -5q-27 0 -55 4.5t-39 6.5l19 173q69 -9 135 -7t118.5 25.5t83.5 76.5t31 145l68 -185q-12 -68 -42 -112.5
t-70.5 -70t-85.5 -37.5t-87.5 -15.5t-75.5 -3.5zM347 138q-19 28 -46 64t-64.5 80.5t-87 99.5t-114.5 122l113 119q50 -53 98.5 -108.5t90 -107.5t70.5 -95.5t40 -72.5z" />
    <glyph glyph-name="lam_alefMaksura_meemar" unicode="&#xfedf;&#xfbe9;&#xfee2;" horiz-adv-x="1377" 
d="M1052 -5l10 168q40 0 58.5 9t23 36.5t1.5 83.5l-19 468h173l21 -490q3 -61 -3.5 -111.5t-32.5 -87t-81.5 -56.5t-150.5 -20zM707 -5l10 168q41 0 65 8t35 25.5t11 45.5q0 32 -8.5 73.5t-20 84.5t-22.5 77l161 43q12 -35 26 -81.5t23.5 -98.5t9.5 -104q0 -64 -17.5 -107
t-47.5 -69.5t-68 -40.5t-78.5 -19t-78.5 -5zM82 -393q-23 81 -38 156.5t-22 133.5t-7 86q0 104 31.5 183t81 135t106 91t107.5 51.5t85 16.5q45 0 70.5 -17.5t44.5 -54.5t43 -94q25 -58 46 -86t42 -36.5t45 -8.5q48 0 69 -24t21 -58q0 -38 -25 -62t-75 -24t-89.5 19
t-74.5 57l21 1q-6 -25 -24.5 -45.5t-45 -32.5t-56.5 -12q-25 0 -56.5 6.5t-65.5 23.5t-68.5 48t-65.5 80l43 -2q-18 -36 -26.5 -74.5t-9.5 -76.5q-1 -30 4 -70t14 -85.5t20 -91t23 -85.5zM431 143q13 0 21.5 6t11.5 17t-3 24q-8 21 -16 40.5t-15.5 35t-15 24.5t-16.5 9
q-12 0 -28.5 -8.5t-32.5 -21t-28.5 -23.5t-15.5 -17l-7 39q19 -38 44 -66.5t51.5 -43.5t49.5 -15z" />
    <glyph glyph-name="lam_alefWaslaar" unicode="&#xfedf;&#xfb51;" horiz-adv-x="613" 
d="M151 691q-22 0 -52.5 2t-57.5 5.5t-41 5.5l7 75q15 -2 40 -5t53 -5t51 -2q54 0 71 12t17 28q0 17 -9.5 26t-23.5 9q-10 0 -25 -8.5t-29.5 -27t-25.5 -47.5l-89 1q11 34 34.5 71t58.5 63t78 26q47 0 78 -30t31 -77q0 -34 -13 -62t-48.5 -44t-104.5 -16zM383 560
q0 18 -3.5 50.5t-8.5 65.5t-9 54l167 20q4 -20 8 -51t7 -65t3 -66q0 -55 -11 -103t-33.5 -91t-55.5 -82l-22 -16q-30 -32 -66.5 -63t-80.5 -61h82q34 0 52 5t24.5 14t6.5 21q0 17 -31 50t-86.5 76.5t-129.5 92.5t-161 98l77 144q131 -75 219.5 -136.5t143.5 -112t83.5 -92.5
t38.5 -78.5t10 -70.5q0 -25 -10 -53t-32 -53t-57.5 -41t-86.5 -16h-318v187q103 68 164.5 129.5t88.5 121t27 122.5z" />
    <glyph glyph-name="lam_alefWaslaar.fina" unicode="&#xfee0;&#xfb51;" horiz-adv-x="804" 
d="M151 691q-22 0 -52.5 2t-57.5 5.5t-41 5.5l7 75q15 -2 40 -5t53 -5t51 -2q54 0 71 12t17 28q0 17 -9.5 26t-23.5 9q-10 0 -25 -8.5t-29.5 -27t-25.5 -47.5l-89 1q11 34 34.5 71t58.5 63t78 26q47 0 78 -30t31 -77q0 -34 -13 -62t-48.5 -44t-104.5 -16zM707 -5
q-70 0 -120.5 20.5t-83 55t-49 78t-18.5 90.5l-26 521h175l21 -489q2 -46 15.5 -69t37.5 -31t54 -8q35 0 60 -20t25 -64q0 -37 -26 -60.5t-65 -23.5zM134 -5q-27 0 -55 4.5t-39 6.5l19 173q69 -9 135 -7t118.5 25.5t83.5 76.5t31 145l68 -185q-12 -68 -42 -112.5t-70.5 -70
t-85.5 -37.5t-87.5 -15.5t-75.5 -3.5zM347 138q-19 28 -46 64t-64.5 80.5t-87 99.5t-114.5 122l113 119q50 -53 98.5 -108.5t90 -107.5t70.5 -95.5t40 -72.5z" />
    <glyph glyph-name="uni0620.init" unicode="&#x620;" horiz-adv-x="403" 
d="M0 -5l10 168q63 0 96.5 9t45.5 27.5t12 46.5q0 32 -8 72.5t-19 82.5t-22 76l161 43q12 -35 25.5 -80.5t22.5 -96.5t9 -103q0 -79 -27.5 -128t-74.5 -74t-106.5 -34t-124.5 -9zM237 -104q-44 0 -75 31.5t-31 75.5t31 75.5t75 31.5q45 0 76 -31.5t31 -75.5t-31 -75.5
t-76 -31.5zM237 -29q14 0 24 9t10 23q0 15 -10 24t-24 9q-13 0 -23.5 -9.5t-10.5 -23.5t10.5 -23t23.5 -9z" />
    <glyph glyph-name="uni0620.medi" unicode="&#x620;" horiz-adv-x="445" 
d="M0 -5l10 168q42 0 68 6.5t42.5 28t26 64t18.5 114.5l165 -26q-1 -14 -3.5 -32t-4.5 -38t-2 -39q0 -20 6 -34.5t20.5 -24.5t41 -14.5t67.5 -4.5q48 0 69 -24t21 -58q0 -38 -25 -62t-75 -24q-61 0 -103.5 9.5t-69.5 29.5t-41.5 50.5t-18.5 72.5h59q-18 -56 -47 -89
t-65 -48.5t-76.5 -20t-82.5 -4.5zM148 -128q-44 0 -75 31.5t-31 75.5t31 75.5t75 31.5q45 0 76 -31.5t31 -75.5t-31 -75.5t-76 -31.5zM148 -53q14 0 24 9t10 23q0 15 -10 24t-24 9q-13 0 -23.5 -9.5t-10.5 -23.5t10.5 -23t23.5 -9z" />
    <glyph glyph-name="uni0620.fina" unicode="&#x620;" horiz-adv-x="841" 
d="M372 -371q-44 0 -75 31.5t-31 75.5t31 75.5t75 31.5q45 0 76 -31.5t31 -75.5t-31 -75.5t-76 -31.5zM372 -296q14 0 24 9t10 23q0 15 -10 24t-24 9q-13 0 -23.5 -9.5t-10.5 -23.5t10.5 -23t23.5 -9zM24 35q0 28 4 58.5t16 71.5t36 100l155 -55q-14 -39 -21.5 -63.5
t-10 -42.5t-2.5 -38q0 -25 9.5 -47.5t32.5 -40.5t62 -28.5t98 -10.5q70 0 113 10.5t66 25.5t31.5 30t8.5 23q0 9 -7.5 17.5t-22 17.5t-36 18t-49.5 19l47 144q37 -16 75.5 -31t76.5 -26t74.5 -17.5t70.5 -6.5q48 0 69 -24t21 -58q0 -38 -25 -62t-75 -24h-18h-17.5h-17.5
q1 -4 1.5 -9t0.5 -10q0 -30 -23.5 -65.5t-72 -68t-124 -53t-179.5 -20.5q-109 0 -191.5 28.5t-129 87.5t-46.5 150z" />
    <glyph glyph-name="uni063B.init" unicode="&#x63b;" horiz-adv-x="493" 
d="M251 744q-23 0 -39 16t-16 39t16 40t39 17q22 0 38.5 -17t16.5 -40t-16.5 -39t-38.5 -16zM124 681q-23 0 -39 16t-16 39t16 40t39 17t39 -17t16 -40t-16 -39t-39 -16zM0 -5l10 168h154q15 0 25 2t16.5 7t9 13t2.5 19q0 26 -24.5 56.5t-56.5 59.5q-20 18 -40 35.5t-37 33
t-27 28t-10 21.5q0 15 2.5 37t7 42t11.5 27q17 19 59.5 46t98 56t115 56.5t111.5 47.5l66 -148q-61 -25 -113 -48t-94 -44t-74 -40.5t-54 -37.5l-10 92q60 -42 107 -87t80 -90t50 -87t17 -79q0 -36 -15.5 -69.5t-48.5 -59.5t-84.5 -41.5t-122.5 -15.5h-131z" />
    <glyph glyph-name="uni063B.medi" unicode="&#x63b;" horiz-adv-x="532" 
d="M262 746q-23 0 -39 16t-16 39t16 40t39 17q22 0 38.5 -17t16.5 -40t-16.5 -39t-38.5 -16zM135 683q-23 0 -39 16t-16 39t16 40t39 17t39 -17t16 -40t-16 -39t-39 -16zM0 -5l10 168h141q20 0 34.5 2.5t23 11.5t8.5 27q0 17 -14 38.5t-36 44.5t-47 46.5t-47 44.5t-36 38
t-14 27q0 25 2.5 45.5t7 34.5t11.5 21q17 19 53 42.5t86 50t112 55t132 58.5l66 -148q-75 -32 -128 -56t-90.5 -43t-65 -36t-50.5 -35l-7 88q27 -22 59.5 -51.5t65 -64t61.5 -75t51 -85.5q17 -35 35.5 -52.5t46 -23t71.5 -5.5q48 0 69 -24t21 -58q0 -38 -25 -62t-75 -24
q-64 0 -109.5 12t-73 38.5t-37.5 71.5h59q-15 -29 -37 -52t-51.5 -38.5t-67.5 -23.5t-84 -8h-131z" />
    <glyph glyph-name="uni063B.fina" unicode="&#x63b;" horiz-adv-x="1020" 
d="M758 762q-23 0 -39 16t-16 39t16 40t39 17q22 0 38.5 -17t16.5 -40t-16.5 -39t-38.5 -16zM631 699q-23 0 -39 16t-16 39t16 40t39 17t39 -17t16 -40t-16 -39t-39 -16zM454 -21l26 168q53 0 94.5 1t70.5 6t44.5 17t15.5 33q0 17 -14 38t-36.5 44.5t-47 47t-47 44.5
t-36.5 37.5t-14 26.5q0 26 2.5 46.5t7 35t11.5 21.5q24 26 75.5 56.5t128.5 67.5t179 81l66 -148q-51 -22 -113 -49t-120.5 -57t-99.5 -64l-7 88q29 -25 59 -52t61 -59.5t60.5 -73t56.5 -92.5q14 -27 27.5 -43.5t30.5 -24t40 -10t57 -2.5q47 0 67.5 -24t20.5 -58
q0 -38 -24.5 -62t-73.5 -24q-54 0 -100.5 9t-78.5 35.5t-43 77.5h59q-25 -49 -66.5 -77t-95 -41t-115.5 -16.5t-128 -3.5zM454 -21q-126 0 -208 20t-128 54t-65 77t-19 89q0 40 6.5 77.5t16 70.5t17.5 58l147 -35q-5 -20 -9.5 -41t-7.5 -41.5t-3 -39.5q0 -36 25.5 -63
t86.5 -42.5t167 -15.5l20 -136z" />
    <glyph glyph-name="uni063C.init" unicode="&#x63c;" horiz-adv-x="493" 
d="M0 -5l10 168h154q15 0 25 2t16.5 7t9 13t2.5 19q0 26 -24.5 56.5t-56.5 59.5q-20 18 -40 35.5t-37 33t-27 28t-10 21.5q0 15 2.5 37t7 42t11.5 27q17 19 59.5 46t98 56t115 56.5t111.5 47.5l66 -148q-61 -25 -113 -48t-94 -44t-74 -40.5t-54 -37.5l-10 92q60 -42 107 -87
t80 -90t50 -87t17 -79q0 -36 -15.5 -69.5t-48.5 -59.5t-84.5 -41.5t-122.5 -15.5h-131zM216 -390q-31 0 -52 21t-21 52q0 30 21 52.5t52 22.5q30 0 51 -22.5t21 -52.5q0 -31 -21 -52t-51 -21zM124 -234q-31 0 -52 21t-21 52q0 30 21 52.5t52 22.5t52 -22.5t21 -52.5
q0 -31 -21 -52t-52 -21zM312 -234q-31 0 -52 21t-21 52q0 30 21 52.5t52 22.5q32 0 52.5 -22.5t20.5 -52.5q0 -31 -20.5 -52t-52.5 -21z" />
    <glyph glyph-name="uni063C.medi" unicode="&#x63c;" horiz-adv-x="532" 
d="M0 -5l10 168h141q20 0 34.5 2.5t23 11.5t8.5 27q0 17 -14 38.5t-36 44.5t-47 46.5t-47 44.5t-36 38t-14 27q0 25 2.5 45.5t7 34.5t11.5 21q17 19 53 42.5t86 50t112 55t132 58.5l66 -148q-75 -32 -128 -56t-90.5 -43t-65 -36t-50.5 -35l-7 88q27 -22 59.5 -51.5t65 -64
t61.5 -75t51 -85.5q17 -35 35.5 -52.5t46 -23t71.5 -5.5q48 0 69 -24t21 -58q0 -38 -25 -62t-75 -24q-64 0 -109.5 12t-73 38.5t-37.5 71.5h59q-15 -29 -37 -52t-51.5 -38.5t-67.5 -23.5t-84 -8h-131zM216 -390q-31 0 -52 21t-21 52q0 30 21 52.5t52 22.5q30 0 51 -22.5
t21 -52.5q0 -31 -21 -52t-51 -21zM124 -234q-31 0 -52 21t-21 52q0 30 21 52.5t52 22.5t52 -22.5t21 -52.5q0 -31 -21 -52t-52 -21zM312 -234q-31 0 -52 21t-21 52q0 30 21 52.5t52 22.5q32 0 52.5 -22.5t20.5 -52.5q0 -31 -20.5 -52t-52.5 -21z" />
    <glyph glyph-name="uni063C.fina" unicode="&#x63c;" horiz-adv-x="1020" 
d="M454 -21l26 168q53 0 94.5 1t70.5 6t44.5 17t15.5 33q0 17 -14 38t-36.5 44.5t-47 47t-47 44.5t-36.5 37.5t-14 26.5q0 26 2.5 46.5t7 35t11.5 21.5q24 26 75.5 56.5t128.5 67.5t179 81l66 -148q-51 -22 -113 -49t-120.5 -57t-99.5 -64l-7 88q29 -25 59 -52t61 -59.5
t60.5 -73t56.5 -92.5q14 -27 27.5 -43.5t30.5 -24t40 -10t57 -2.5q47 0 67.5 -24t20.5 -58q0 -38 -24.5 -62t-73.5 -24q-54 0 -100.5 9t-78.5 35.5t-43 77.5h59q-25 -49 -66.5 -77t-95 -41t-115.5 -16.5t-128 -3.5zM454 -21q-126 0 -208 20t-128 54t-65 77t-19 89
q0 40 6.5 77.5t16 70.5t17.5 58l147 -35q-5 -20 -9.5 -41t-7.5 -41.5t-3 -39.5q0 -36 25.5 -63t86.5 -42.5t167 -15.5l20 -136zM471 -411q-31 0 -52 21t-21 52q0 30 21 52.5t52 22.5q30 0 51 -22.5t21 -52.5q0 -31 -21 -52t-51 -21zM379 -255q-31 0 -52 21t-21 52
q0 30 21 52.5t52 22.5t52 -22.5t21 -52.5q0 -31 -21 -52t-52 -21zM567 -255q-31 0 -52 21t-21 52q0 30 21 52.5t52 22.5q32 0 52.5 -22.5t20.5 -52.5q0 -31 -20.5 -52t-52.5 -21z" />
    <glyph glyph-name="uni063D.init" unicode="&#x63d;" horiz-adv-x="345" 
d="M0 -5l10 168q41 0 65 8t35 25.5t11 45.5q0 32 -8.5 73.5t-20 84.5t-22.5 77l161 43q12 -35 26 -81.5t23.5 -98.5t9.5 -104q0 -64 -17.5 -107t-47.5 -69.5t-68 -40.5t-78.5 -19t-78.5 -5zM178 831q8 -15 20 -38.5t25.5 -49.5t26 -49.5t21.5 -39.5l-66 -35q-7 13 -18 35.5
t-23 47.5t-23.5 48t-19.5 37l-23 38zM98 825l61 -20q-7 -17 -18.5 -45.5t-23.5 -58.5t-22 -53.5t-14 -31.5l-66 28q5 10 15.5 33.5t24 51.5t25.5 54t18 42zM208 -237q-31 0 -51.5 21t-20.5 52t20.5 52t51.5 21t53 -21t22 -52t-22 -52t-53 -21zM31 -237q-32 0 -53 21t-21 52
t21 52t52 21q30 0 52 -21t22 -52t-21.5 -52t-51.5 -21z" />
    <glyph glyph-name="uni063D.medi" unicode="&#x63d;" horiz-adv-x="410" 
d="M0 -5l10 168q34 0 56.5 6.5t36.5 28t23.5 64t18.5 114.5l165 -26q-1 -14 -3.5 -32t-4.5 -38t-2 -39q0 -26 11 -43.5t37.5 -26t71.5 -8.5q48 0 69 -24t21 -58q0 -38 -25 -62t-75 -24q-72 0 -118.5 17t-70 53t-29.5 92h59q-18 -56 -46.5 -89t-63 -48.5t-71 -20t-70.5 -4.5z
M238 703q8 -15 20 -38.5t25.5 -49.5t26 -49.5t21.5 -39.5l-66 -35q-7 13 -18 35.5t-23 47.5t-23.5 48t-19.5 37l-23 38zM158 697l61 -20q-7 -17 -18.5 -45.5t-23.5 -58.5t-22 -53.5t-14 -31.5l-66 28q5 10 15.5 33.5t24 51.5t25.5 54t18 42zM269 -237q-31 0 -51.5 21
t-20.5 52t20.5 52t51.5 21t53 -21t22 -52t-22 -52t-53 -21zM92 -237q-32 0 -53 21t-21 52t21 52t52 21q30 0 52 -21t22 -52t-21.5 -52t-51.5 -21z" />
    <glyph glyph-name="uni063D.fina" unicode="&#x63d;" horiz-adv-x="841" 
d="M24 35q0 28 4 58.5t16 71.5t36 100l155 -55q-14 -39 -21.5 -63.5t-10 -42.5t-2.5 -38q0 -25 9.5 -47.5t32.5 -40.5t62 -28.5t98 -10.5q70 0 113 10.5t66 25.5t31.5 30t8.5 23q0 9 -7.5 17.5t-22 17.5t-36 18t-49.5 19l47 144q37 -16 75.5 -31t76.5 -26t74.5 -17.5
t70.5 -6.5q48 0 69 -24t21 -58q0 -38 -25 -62t-75 -24h-18h-17.5h-17.5q1 -4 1.5 -9t0.5 -10q0 -30 -23.5 -65.5t-72 -68t-124 -53t-179.5 -20.5q-109 0 -191.5 28.5t-129 87.5t-46.5 150zM280 526q8 -15 20 -38.5t25.5 -49.5t26 -49.5t21.5 -39.5l-66 -35q-7 13 -18 35.5
t-23 47.5t-23.5 48t-19.5 37l-23 38zM200 520l61 -20q-7 -17 -18.5 -45.5t-23.5 -58.5t-22 -53.5t-14 -31.5l-66 28q5 10 15.5 33.5t24 51.5t25.5 54t18 42z" />
    <glyph glyph-name="uni063E.init" unicode="&#x63e;" horiz-adv-x="403" 
d="M0 -5l10 168q63 0 96.5 9t45.5 27.5t12 46.5q0 32 -8 72.5t-19 82.5t-22 76l161 43q12 -35 25.5 -80.5t22.5 -96.5t9 -103q0 -79 -27.5 -128t-74.5 -74t-106.5 -34t-124.5 -9zM292 614q-31 0 -51.5 21.5t-20.5 51.5q0 32 20.5 52.5t51.5 20.5t53 -20.5t22 -52.5
q0 -30 -22 -51.5t-53 -21.5zM114 614q-31 0 -52 21.5t-21 51.5q0 32 21 52.5t52 20.5q30 0 52 -20.5t22 -52.5q0 -30 -22 -51.5t-52 -21.5zM279 -237q-31 0 -51.5 21t-20.5 52t20.5 52t51.5 21t53 -21t22 -52t-22 -52t-53 -21zM101 -237q-31 0 -52 21t-21 52t21 52t52 21
q30 0 52 -21t22 -52t-22 -52t-52 -21z" />
    <glyph glyph-name="uni063E.medi" unicode="&#x63e;" horiz-adv-x="445" 
d="M0 -5l10 168q42 0 68 6.5t42.5 28t26 64t18.5 114.5l165 -26q-1 -14 -3.5 -32t-4.5 -38t-2 -39q0 -20 6 -34.5t20.5 -24.5t41 -14.5t67.5 -4.5q48 0 69 -24t21 -58q0 -38 -25 -62t-75 -24q-61 0 -103.5 9.5t-69.5 29.5t-41.5 50.5t-18.5 72.5h59q-18 -56 -47 -89
t-65 -48.5t-76.5 -20t-82.5 -4.5zM398 505q-31 0 -51.5 21.5t-20.5 51.5q0 32 20.5 52.5t51.5 20.5t53 -20.5t22 -52.5q0 -30 -22 -51.5t-53 -21.5zM220 505q-31 0 -52 21.5t-21 51.5q0 32 21 52.5t52 20.5q30 0 52 -20.5t22 -52.5q0 -30 -22 -51.5t-52 -21.5zM365 -237
q-31 0 -51.5 21t-20.5 52t20.5 52t51.5 21t53 -21t22 -52t-22 -52t-53 -21zM187 -237q-31 0 -52 21t-21 52t21 52t52 21q30 0 52 -21t22 -52t-22 -52t-52 -21z" />
    <glyph glyph-name="uni063E.fina" unicode="&#x63e;" horiz-adv-x="841" 
d="M24 35q0 28 4 58.5t16 71.5t36 100l155 -55q-14 -39 -21.5 -63.5t-10 -42.5t-2.5 -38q0 -25 9.5 -47.5t32.5 -40.5t62 -28.5t98 -10.5q70 0 113 10.5t66 25.5t31.5 30t8.5 23q0 9 -7.5 17.5t-22 17.5t-36 18t-49.5 19l47 144q37 -16 75.5 -31t76.5 -26t74.5 -17.5
t70.5 -6.5q48 0 69 -24t21 -58q0 -38 -25 -62t-75 -24h-18h-17.5h-17.5q1 -4 1.5 -9t0.5 -10q0 -30 -23.5 -65.5t-72 -68t-124 -53t-179.5 -20.5q-109 0 -191.5 28.5t-129 87.5t-46.5 150zM361 353q-31 0 -51.5 21.5t-20.5 51.5q0 32 20.5 52.5t51.5 20.5t53 -20.5t22 -52.5
q0 -30 -22 -51.5t-53 -21.5zM184 353q-32 0 -53 21.5t-21 51.5q0 32 21 52.5t52 20.5q30 0 52 -20.5t22 -52.5q0 -30 -21.5 -51.5t-51.5 -21.5z" />
    <glyph glyph-name="uni063F.init" unicode="&#x63f;" horiz-adv-x="403" 
d="M0 -5l10 168q63 0 96.5 9t45.5 27.5t12 46.5q0 32 -8 72.5t-19 82.5t-22 76l161 43q12 -35 25.5 -80.5t22.5 -96.5t9 -103q0 -79 -27.5 -128t-74.5 -74t-106.5 -34t-124.5 -9zM200 767q-32 0 -53 21.5t-21 50.5q0 31 21 53t53 22q31 0 52.5 -22t21.5 -53
q0 -29 -21.5 -50.5t-52.5 -21.5zM115 610q-31 0 -53.5 23t-22.5 53q0 29 22.5 52t53.5 23q29 0 50.5 -23t21.5 -52q0 -30 -21.5 -53t-50.5 -23zM288 610q-30 0 -50 23t-20 53q0 29 20 52t50 23q31 0 53 -23t22 -52q0 -30 -22 -53t-53 -23zM279 -237q-31 0 -51.5 21t-20.5 52
t20.5 52t51.5 21t53 -21t22 -52t-22 -52t-53 -21zM102 -237q-32 0 -53 21t-21 52t21 52t52 21q30 0 52 -21t22 -52t-21.5 -52t-51.5 -21z" />
    <glyph glyph-name="uni063F.medi" unicode="&#x63f;" horiz-adv-x="445" 
d="M0 -5l10 168q42 0 68 6.5t42.5 28t26 64t18.5 114.5l165 -26q-1 -14 -3.5 -32t-4.5 -38t-2 -39q0 -20 6 -34.5t20.5 -24.5t41 -14.5t67.5 -4.5q48 0 69 -24t21 -58q0 -38 -25 -62t-75 -24q-61 0 -103.5 9.5t-69.5 29.5t-41.5 50.5t-18.5 72.5h59q-18 -56 -47 -89
t-65 -48.5t-76.5 -20t-82.5 -4.5zM239 639q-32 0 -53 21.5t-21 50.5q0 31 21 53t53 22q31 0 52.5 -22t21.5 -53q0 -29 -21.5 -50.5t-52.5 -21.5zM154 482q-31 0 -53.5 23t-22.5 53q0 29 22.5 52t53.5 23q29 0 50.5 -23t21.5 -52q0 -30 -21.5 -53t-50.5 -23zM327 482
q-30 0 -50 23t-20 53q0 29 20 52t50 23q31 0 53 -23t22 -52q0 -30 -22 -53t-53 -23zM301 -237q-31 0 -51.5 21t-20.5 52t20.5 52t51.5 21t53 -21t22 -52t-22 -52t-53 -21zM123 -237q-31 0 -52 21t-21 52t21 52t52 21q30 0 52 -21t22 -52t-22 -52t-52 -21z" />
    <glyph glyph-name="uni063F.fina" unicode="&#x63f;" horiz-adv-x="841" 
d="M24 35q0 28 4 58.5t16 71.5t36 100l155 -55q-14 -39 -21.5 -63.5t-10 -42.5t-2.5 -38q0 -25 9.5 -47.5t32.5 -40.5t62 -28.5t98 -10.5q70 0 113 10.5t66 25.5t31.5 30t8.5 23q0 9 -7.5 17.5t-22 17.5t-36 18t-49.5 19l47 144q37 -16 75.5 -31t76.5 -26t74.5 -17.5
t70.5 -6.5q48 0 69 -24t21 -58q0 -38 -25 -62t-75 -24h-18h-17.5h-17.5q1 -4 1.5 -9t0.5 -10q0 -30 -23.5 -65.5t-72 -68t-124 -53t-179.5 -20.5q-109 0 -191.5 28.5t-129 87.5t-46.5 150zM270 507q-32 0 -53 21.5t-21 50.5q0 31 21 53t53 22q31 0 52.5 -22t21.5 -53
q0 -29 -21.5 -50.5t-52.5 -21.5zM185 350q-31 0 -53.5 23t-22.5 53q0 29 22.5 52t53.5 23q29 0 50.5 -23t21.5 -52q0 -30 -21.5 -53t-50.5 -23zM358 350q-30 0 -50 23t-20 53q0 29 20 52t50 23q31 0 53 -23t22 -52q0 -30 -22 -53t-53 -23z" />
    <glyph glyph-name="uni066E.init" unicode="&#x66e;" horiz-adv-x="345" 
d="M0 -5l10 168q41 0 65 8t35 25.5t11 45.5q0 32 -8.5 73.5t-20 84.5t-22.5 77l161 43q12 -35 26 -81.5t23.5 -98.5t9.5 -104q0 -64 -17.5 -107t-47.5 -69.5t-68 -40.5t-78.5 -19t-78.5 -5z" />
    <glyph glyph-name="uni066E.medi" unicode="&#x66e;" horiz-adv-x="410" 
d="M0 -5l10 168q34 0 56.5 6.5t36.5 28t23.5 64t18.5 114.5l165 -26q-1 -14 -3.5 -32t-4.5 -38t-2 -39q0 -26 11 -43.5t37.5 -26t71.5 -8.5q48 0 69 -24t21 -58q0 -38 -25 -62t-75 -24q-72 0 -118.5 17t-70 53t-29.5 92h59q-18 -56 -46.5 -89t-63 -48.5t-71 -20t-70.5 -4.5z
" />
    <glyph glyph-name="uni066E.fina" unicode="&#x66e;" horiz-adv-x="1192" 
d="M478 -21l26 168q117 0 194.5 15t127 43t80.5 66t55 84l138 -59q-8 -20 -12.5 -36t-4.5 -31q0 -20 14 -35t40.5 -23t65.5 -8q48 0 69 -24t21 -58q0 -38 -25 -62t-75 -24q-72 0 -121.5 17t-76.5 48.5t-33 76.5l49 22q-27 -47 -74.5 -81t-114.5 -56t-153 -32.5t-190 -10.5z
M478 -21q-126 0 -208 20t-128 54t-65 77t-19 89q0 40 6.5 77.5t16 70.5t17.5 58l147 -35q-5 -20 -9.5 -41t-7.5 -41.5t-3 -39.5q0 -36 25.5 -63t86.5 -42.5t167 -15.5l20 -136z" />
    <glyph glyph-name="uni066F.init" unicode="&#x66f;" horiz-adv-x="550" 
d="M0 -5l10 168h88t75 1t58.5 3.5t38.5 7.5q23 9 35.5 26.5t17.5 44t5 61.5q0 53 -8 86t-21.5 48t-30.5 15q-13 0 -24 -9t-17 -25t-6 -38q0 -14 6.5 -25t18.5 -17t29 -6q16 0 37.5 5t42.5 16l4 -118q-16 -13 -37.5 -23t-45.5 -15t-49 -5q-47 0 -85 18.5t-60 53.5t-22 85
q0 46 15.5 89t44 77.5t68.5 54.5t90 20q66 0 114.5 -36.5t75.5 -103.5t27 -161q0 -90 -27 -152t-84 -95q-30 -18 -69.5 -28t-87.5 -15t-105 -6.5t-122 -1.5z" />
    <glyph glyph-name="uni066F.medi" unicode="&#x66f;" horiz-adv-x="549" 
d="M0 -5l10 168q17 0 46.5 2t63 5.5t64 8.5t49.5 11q33 11 53.5 26.5t30 33.5t9.5 38q0 16 -6.5 30t-17.5 22.5t-23 8.5t-24 -8.5t-20 -23.5t-8 -36q0 -13 6 -28t20.5 -30.5t40.5 -33.5l-151 -64q-26 27 -44.5 53t-28 54.5t-9.5 62.5q0 44 19.5 81.5t51.5 65.5t71 43.5
t79 15.5q59 0 106.5 -28.5t75.5 -73.5t28 -96q0 -52 -18.5 -92.5t-48.5 -71t-66 -53.5t-71 -41q-27 -14 -67.5 -23.5t-84 -15.5t-80 -8.5t-56.5 -2.5zM549 -5q-63 0 -122.5 7t-108.5 19.5t-80 30.5l69 136q30 -12 70.5 -17.5t87 -6.5t94.5 -1t69 -24t21 -58q0 -38 -25 -62
t-75 -24z" />
    <glyph glyph-name="uni066F.fina" unicode="&#x66f;" horiz-adv-x="865" 
d="M364 -272q-71 0 -133 15t-108.5 47.5t-72.5 83t-26 120.5q0 28 4 58.5t16 71.5t36 100l155 -55q-14 -39 -21.5 -63.5t-10 -42.5t-2.5 -38q0 -37 20.5 -66.5t62.5 -46t106 -16.5q43 0 78.5 6.5t64 17.5t50.5 26t36 32.5t21 36.5q9 23 12 52.5t3 74.5q0 48 -4.5 77
t-14.5 42t-28 13q-12 0 -21.5 -6t-16 -15t-10 -20t-3.5 -20q0 -18 7 -31t28 -20t62 -7t110 8h111q48 0 69 -24t21 -58q0 -38 -25 -62t-75 -24h-178q-57 0 -110.5 8t-95.5 28t-67 55t-25 90q0 47 17 89.5t48.5 75.5t74 52t92.5 19q69 0 114 -37.5t67 -102.5t22 -148
q0 -58 -16 -110.5t-37 -90.5q-25 -46 -63.5 -82t-89.5 -61.5t-115 -38.5t-139 -13z" />
    <glyph glyph-name="uni0672.fina" unicode="&#x672;" horiz-adv-x="341" 
d="M341 -5q-102 0 -157.5 20t-78 61t-25.5 105l-20 509h172l20 -419q3 -49 12.5 -72t30.5 -29.5t56 -6.5q48 0 69 -24t21 -58q0 -38 -25 -62t-75 -24zM14 747l-63 44q12 28 34.5 40.5t40.5 12.5q20 0 38.5 -11t29.5 -11q16 0 28.5 1t21.5 5l-16 -26q-29 11 -48.5 38.5
t-19.5 60.5q0 46 32 74t81 28q17 0 31.5 -2t25.5 -6l-8 -70q-10 2 -19 4t-20 2q-22 0 -33.5 -8t-11.5 -24q0 -19 12.5 -33t29.5 -21.5t28 -7.5l-36 -4q26 7 45.5 15.5t38.5 15.5l23 -68q-8 -4 -28 -12t-45 -16t-47.5 -14t-35.5 -6q-31 0 -48.5 11t-27.5 11q-9 0 -16.5 -5.5
t-16.5 -17.5z" />
    <glyph glyph-name="uni0673.fina" unicode="&#x673;" horiz-adv-x="344" 
d="M344 -5q-102 0 -157.5 20t-78 61t-25.5 105l-23 579h172l23 -489q3 -49 12.5 -72t30.5 -29.5t56 -6.5q48 0 69 -24t21 -58q0 -38 -25 -62t-75 -24zM43 -321l-63 44q12 28 34.5 40.5t40.5 12.5q20 0 38.5 -11t29.5 -11q16 0 28.5 1t21.5 5l-16 -26q-29 11 -48.5 38.5
t-19.5 60.5q0 46 32 74t81 28q17 0 31.5 -2t25.5 -6l-8 -70q-10 2 -19 4t-20 2q-22 0 -33.5 -8t-11.5 -24q0 -19 12.5 -33t29.5 -21.5t28 -7.5l-36 -4q26 7 45.5 15.5t38.5 15.5l23 -68q-8 -4 -28 -12t-45 -16t-47.5 -14t-35.5 -6q-31 0 -48.5 11t-27.5 11q-9 0 -16.5 -5.5
t-16.5 -17.5z" />
    <glyph glyph-name="uni0675.fina" unicode="&#x675;" horiz-adv-x="494" 
d="M494 -5h-138q-99 0 -158 20.5t-85.5 62t-29.5 103.5l-23 579h172l23 -489q2 -43 11 -66.5t31.5 -32.5t63.5 -9h143q48 0 69 -24t21 -58q0 -38 -25 -62t-75 -24zM293 578l-18 74q41 6 59.5 10t38.5 9l-19 -31q-26 9 -49.5 36t-23.5 62q0 39 17 62t43.5 33.5t53.5 10.5
q17 0 31 -2t25 -6l-8 -70q-10 2 -20.5 4t-22.5 2q-19 0 -30 -9t-11 -23q0 -19 12 -32.5t28 -21t27 -8.5l-45 -4q27 7 51 14.5t46 15.5l22 -71q-26 -9 -60 -19.5t-71.5 -19.5t-75.5 -16z" />
    <glyph glyph-name="uni0676.fina" unicode="&#x676;" horiz-adv-x="530" 
d="M49 -231l-26 153q75 5 132.5 19.5t96 39t58 60.5t19.5 84q0 74 -18.5 116t-47.5 42q-16 0 -26.5 -13t-16 -31.5t-5.5 -33.5q0 -16 6.5 -28.5t27.5 -19.5t64 -6.5t116 12.5h111q48 0 69 -24t21 -58q0 -38 -25 -62t-75 -24h-219q-81 0 -138.5 21.5t-88 62t-30.5 96.5
q0 45 15.5 90t44 83t67.5 61t86 23q72 0 121.5 -41t75 -108.5t25.5 -147.5q0 -103 -48 -181.5t-145.5 -126.5t-246.5 -58zM349 437l-18 74q41 6 59.5 10t38.5 9l-19 -31q-26 9 -49.5 36t-23.5 62q0 39 17 62t43 33.5t54 10.5q17 0 31 -2t25 -6l-8 -70q-10 2 -20.5 4t-22.5 2
q-19 0 -30 -9t-11 -23q0 -19 12 -32.5t28 -21t27 -8.5l-45 -4q27 7 51 14.5t46 15.5l22 -71q-26 -9 -60 -19.5t-71.5 -19.5t-75.5 -16z" />
    <glyph glyph-name="uni0677.fina" unicode="&#x677;" horiz-adv-x="530" 
d="M49 -231l-26 153q75 5 132.5 19.5t96 39t58 60.5t19.5 84q0 74 -18.5 116t-47.5 42q-16 0 -26.5 -13t-16 -31.5t-5.5 -33.5q0 -16 6.5 -28.5t27.5 -19.5t64 -6.5t116 12.5h111q48 0 69 -24t21 -58q0 -38 -25 -62t-75 -24h-219q-81 0 -138.5 21.5t-88 62t-30.5 96.5
q0 45 15.5 90t44 83t67.5 61t86 23q72 0 121.5 -41t75 -108.5t25.5 -147.5q0 -103 -48 -181.5t-145.5 -126.5t-246.5 -58zM361 437l-18 74q41 6 59.5 10t38.5 9l-19 -31q-26 9 -49.5 36t-23.5 62q0 39 17 62t43 33.5t54 10.5q17 0 31 -2t25 -6l-8 -70q-10 2 -20.5 4t-22.5 2
q-19 0 -30 -9t-11 -23q0 -19 12 -32.5t28 -21t27 -8.5l-45 -4q27 7 51 14.5t46 15.5l22 -71q-26 -9 -60 -19.5t-71.5 -19.5t-75.5 -16zM47 428l-13 69q62 1 107.5 17t71 39t25.5 45q0 13 -8 24t-23 11q-13 0 -22.5 -9.5t-9.5 -24.5q0 -19 14.5 -32t33.5 -23l-51 -42
q-28 14 -49.5 39.5t-21.5 62.5q0 45 30.5 72.5t76.5 27.5q52 0 77.5 -32t25.5 -73q0 -46 -31 -82.5t-90 -59.5t-143 -29z" />
    <glyph glyph-name="uni0678.init" unicode="&#x678;" horiz-adv-x="390" 
d="M0 -5l10 168q41 0 65 8t35 25.5t11 45.5q0 32 -8.5 73.5t-20 84.5t-22.5 77l161 43q12 -35 26 -81.5t23.5 -98.5t9.5 -104q0 -64 -17.5 -107t-47.5 -69.5t-68 -40.5t-78.5 -19t-78.5 -5zM183 578l-18 74q41 6 59.5 10t38.5 9l-19 -31q-26 9 -49.5 36t-23.5 62q0 39 17 62
t43.5 33.5t53.5 10.5q17 0 31 -2t25 -6l-8 -70q-10 2 -20.5 4t-22.5 2q-19 0 -30 -9t-11 -23q0 -19 12 -32.5t28 -21t27 -8.5l-45 -4q27 7 51 14.5t46 15.5l22 -71q-26 -9 -60 -19.5t-71.5 -19.5t-75.5 -16z" />
    <glyph glyph-name="uni0678.medi" unicode="&#x678;" horiz-adv-x="409" 
d="M0 -5l10 168q34 0 56.5 6.5t36.5 28t23.5 64t18.5 114.5l165 -26q-1 -14 -3.5 -32t-4.5 -38t-2 -39q0 -26 11 -43.5t37.5 -26t71.5 -8.5q48 0 69 -24t21 -58q0 -38 -25 -62t-75 -24q-72 0 -118.5 17t-70 53t-29.5 92h59q-18 -56 -46.5 -89t-63 -48.5t-71 -20t-70.5 -4.5z
M212 409l-18 74q41 6 59.5 10t38.5 9l-19 -31q-26 9 -49.5 36t-23.5 62q0 39 17 62t43.5 33.5t53.5 10.5q17 0 31 -2t25 -6l-8 -70q-10 2 -20.5 4t-22.5 2q-19 0 -30 -9t-11 -23q0 -19 12 -32.5t28 -21t27 -8.5l-45 -4q27 7 51 14.5t46 15.5l22 -71q-26 -9 -60 -19.5
t-71.5 -19.5t-75.5 -16z" />
    <glyph glyph-name="uni0678.fina" unicode="&#x678;" horiz-adv-x="841" 
d="M24 35q0 28 4 58.5t16 71.5t36 100l155 -55q-14 -39 -21.5 -63.5t-10 -42.5t-2.5 -38q0 -25 9.5 -47.5t32.5 -40.5t62 -28.5t98 -10.5q70 0 113 10.5t66 25.5t31.5 30t8.5 23q0 9 -7.5 17.5t-22 17.5t-36 18t-49.5 19l47 144q37 -16 75.5 -31t76.5 -26t74.5 -17.5
t70.5 -6.5q48 0 69 -24t21 -58q0 -38 -25 -62t-75 -24h-18h-17.5h-17.5q1 -4 1.5 -9t0.5 -10q0 -30 -23.5 -65.5t-72 -68t-124 -53t-179.5 -20.5q-109 0 -191.5 28.5t-129 87.5t-46.5 150zM615 255l-18 74q41 6 59.5 10t38.5 9l-19 -31q-26 9 -49.5 36t-23.5 62q0 39 17 62
t43.5 33.5t53.5 10.5q17 0 31 -2t25 -6l-8 -70q-10 2 -20.5 4t-22.5 2q-19 0 -30 -9t-11 -23q0 -19 12 -32.5t28 -21t27 -8.5l-45 -4q27 7 51 14.5t46 15.5l22 -71q-26 -9 -60 -19.5t-71.5 -19.5t-75.5 -16z" />
    <glyph glyph-name="uni067C.init" unicode="&#x67c;" horiz-adv-x="403" 
d="M0 -5l10 168q63 0 96.5 9t45.5 27.5t12 46.5q0 32 -8 72.5t-19 82.5t-22 76l161 43q12 -35 25.5 -80.5t22.5 -96.5t9 -103q0 -79 -27.5 -128t-74.5 -74t-106.5 -34t-124.5 -9zM209 -119q-44 0 -75 31.5t-31 75.5t31 75.5t75 31.5q45 0 76 -31.5t31 -75.5t-31 -75.5
t-76 -31.5zM210 -44q13 0 23 9t10 23q0 15 -10 24t-24 9q-13 0 -23.5 -9.5t-10.5 -23.5t10.5 -23t24.5 -9zM292 614q-31 0 -51.5 21.5t-20.5 51.5q0 32 20.5 52.5t51.5 20.5t53 -20.5t22 -52.5q0 -30 -22 -51.5t-53 -21.5zM115 614q-32 0 -53 21.5t-21 51.5q0 32 21 52.5
t52 20.5q30 0 52 -20.5t22 -52.5q0 -30 -21.5 -51.5t-51.5 -21.5z" />
    <glyph glyph-name="uni067C.medi" unicode="&#x67c;" horiz-adv-x="410" 
d="M123 -131q-44 0 -75 31.5t-31 75.5t31 75.5t75 31.5q45 0 76 -31.5t31 -75.5t-31 -75.5t-76 -31.5zM123 -56q14 0 24 9t10 23q0 15 -10 24t-24 9q-13 0 -23.5 -9.5t-10.5 -23.5t10.5 -23t23.5 -9zM0 -5l10 168q34 0 56.5 6.5t36.5 28t23.5 64t18.5 114.5l165 -26
q-1 -14 -3.5 -32t-4.5 -38t-2 -39q0 -26 11 -43.5t37.5 -26t71.5 -8.5q48 0 69 -24t21 -58q0 -38 -25 -62t-75 -24q-72 0 -118.5 17t-70 53t-29.5 92h59q-18 -56 -46.5 -89t-63 -48.5t-71 -20t-70.5 -4.5zM301 486q-31 0 -51.5 21.5t-20.5 51.5q0 32 20.5 52.5t51.5 20.5
t53 -20.5t22 -52.5q0 -30 -22 -51.5t-53 -21.5zM123 486q-31 0 -52 21.5t-21 51.5q0 32 21 52.5t52 20.5q30 0 52 -20.5t22 -52.5q0 -30 -22 -51.5t-52 -21.5z" />
    <glyph glyph-name="uni067C.fina" unicode="&#x67c;" horiz-adv-x="1192" 
d="M591 -160q-44 0 -75 31.5t-31 75.5t31 75.5t75 31.5q45 0 76 -31.5t31 -75.5t-31 -75.5t-76 -31.5zM591 -85q14 0 24 9t10 23q0 15 -10 24t-24 9q-13 0 -23.5 -9.5t-10.5 -23.5t10.5 -23t23.5 -9zM478 -21l26 168q117 0 194.5 15t127 43t80.5 66t55 84l138 -59
q-8 -20 -12.5 -36t-4.5 -31q0 -20 14 -35t40.5 -23t65.5 -8q48 0 69 -24t21 -58q0 -38 -25 -62t-75 -24q-72 0 -121.5 17t-76.5 48.5t-33 76.5l49 22q-27 -47 -74.5 -81t-114.5 -56t-153 -32.5t-190 -10.5zM478 -21q-126 0 -208 20t-128 54t-65 77t-19 89q0 40 6.5 77.5
t16 70.5t17.5 58l147 -35q-5 -20 -9.5 -41t-7.5 -41.5t-3 -39.5q0 -36 25.5 -63t86.5 -42.5t167 -15.5l20 -136zM654 461q-31 0 -51.5 21.5t-20.5 51.5q0 32 20.5 52.5t51.5 20.5t53 -20.5t22 -52.5q0 -30 -22 -51.5t-53 -21.5zM476 461q-31 0 -52 21.5t-21 51.5
q0 32 21 52.5t52 20.5q30 0 52 -20.5t22 -52.5q0 -30 -22 -51.5t-52 -21.5z" />
    <glyph glyph-name="uni067D.init" unicode="&#x67d;" horiz-adv-x="403" 
d="M0 -5l10 168q63 0 96.5 9t45.5 27.5t12 46.5q0 32 -8 72.5t-19 82.5t-22 76l161 43q12 -35 25.5 -80.5t22.5 -96.5t9 -103q0 -79 -27.5 -128t-74.5 -74t-106.5 -34t-124.5 -9zM192 609q-31 0 -52 21.5t-21 51.5q0 31 21 53t52 22q30 0 51.5 -22t21.5 -53
q0 -30 -21.5 -51.5t-51.5 -21.5zM106 765q-31 0 -52 21t-21 52t21 53t52 22q30 0 51 -22t21 -53t-21 -52t-51 -21zM283 765q-30 0 -51 21t-21 52t21 53t51 22q32 0 52.5 -22t20.5 -53t-20.5 -52t-52.5 -21z" />
    <glyph glyph-name="uni067D.medi" unicode="&#x67d;" horiz-adv-x="445" 
d="M0 -5l10 168q42 0 68 6.5t42.5 28t26 64t18.5 114.5l165 -26q-1 -14 -3.5 -32t-4.5 -38t-2 -39q0 -20 6 -34.5t20.5 -24.5t41 -14.5t67.5 -4.5q48 0 69 -24t21 -58q0 -38 -25 -62t-75 -24q-61 0 -103.5 9.5t-69.5 29.5t-41.5 50.5t-18.5 72.5h59q-18 -56 -47 -89
t-65 -48.5t-76.5 -20t-82.5 -4.5zM231 481q-31 0 -52 21.5t-21 51.5q0 31 21 53t52 22q30 0 51.5 -22t21.5 -53q0 -30 -21.5 -51.5t-51.5 -21.5zM145 637q-31 0 -52 21t-21 52t21 53t52 22q30 0 51 -22t21 -53t-21 -52t-51 -21zM322 637q-30 0 -51 21t-21 52t21 53t51 22
q32 0 52.5 -22t20.5 -53t-20.5 -52t-52.5 -21z" />
    <glyph glyph-name="uni067D.fina" unicode="&#x67d;" horiz-adv-x="1192" 
d="M478 -21l26 168q117 0 194.5 15t127 43t80.5 66t55 84l138 -59q-8 -20 -12.5 -36t-4.5 -31q0 -20 14 -35t40.5 -23t65.5 -8q48 0 69 -24t21 -58q0 -38 -25 -62t-75 -24q-72 0 -121.5 17t-76.5 48.5t-33 76.5l49 22q-27 -47 -74.5 -81t-114.5 -56t-153 -32.5t-190 -10.5z
M478 -21q-126 0 -208 20t-128 54t-65 77t-19 89q0 40 6.5 77.5t16 70.5t17.5 58l147 -35q-5 -20 -9.5 -41t-7.5 -41.5t-3 -39.5q0 -36 25.5 -63t86.5 -42.5t167 -15.5l20 -136zM554 456q-31 0 -52 21.5t-21 51.5q0 31 21 53t52 22q30 0 51.5 -22t21.5 -52q0 -31 -21.5 -52.5
t-51.5 -21.5zM468 612q-31 0 -52 21t-21 52t21 53t52 22q30 0 51 -22t21 -53t-21 -52t-51 -21zM645 612q-30 0 -51 21t-21 52t21 53t51 22q32 0 52.5 -22t20.5 -53t-20.5 -52t-52.5 -21z" />
    <glyph glyph-name="uni0681.init" unicode="&#x681;" horiz-adv-x="684" 
d="M0 -5l10 168q63 0 123 6t114.5 19t102 33t87.5 48q-33 11 -69 18.5t-74.5 11.5t-81.5 4q-16 0 -41 -1t-50.5 -3.5t-43.5 -6.5l-22 176q30 8 72 11.5t75 3.5q55 0 103 -11.5t89 -28.5t76.5 -34t67 -28.5t59.5 -11.5h41l21 -152q-39 -4 -74 -21.5t-71.5 -43t-81.5 -52.5
t-104.5 -51t-139.5 -39t-188 -15zM80 602l-18 74q41 6 59.5 10t38.5 9l-19 -31q-26 9 -49.5 36t-23.5 62q0 39 17 62t43 33.5t54 10.5q17 0 31 -2t25 -6l-8 -70q-10 2 -20.5 4t-22.5 2q-19 0 -30 -9t-11 -23q0 -19 12 -32.5t28 -21t27 -8.5l-45 -4q27 7 51 14.5t46 15.5
l22 -71q-26 -9 -60 -19.5t-71.5 -19.5t-75.5 -16z" />
    <glyph glyph-name="uni0681.medi" unicode="&#x681;" horiz-adv-x="728" 
d="M728 -5q-55 0 -98.5 8.5t-76.5 27.5t-56.5 51t-38.5 79l92 72q13 -27 36 -42.5t60 -21.5t92 -6q48 0 69 -24t21 -58q0 -38 -25 -62t-75 -24zM0 -5l10 168q63 0 123 6t114.5 19t102 33t87.5 48q-33 11 -69 18.5t-74.5 11.5t-81.5 4q-16 0 -41 -1t-50.5 -3.5t-43.5 -6.5
l-22 176q30 8 72 11.5t75 3.5q55 0 103 -11.5t89 -28.5t76.5 -34t67 -28.5t59.5 -11.5h41l21 -152q-39 -4 -74 -21.5t-71.5 -43t-81.5 -52.5t-104.5 -51t-139.5 -39t-188 -15zM69 623l-18 74q41 6 59.5 10t38.5 9l-19 -31q-26 9 -49.5 36t-23.5 62q0 39 17 62t43 33.5
t54 10.5q17 0 31 -2t25 -6l-8 -70q-10 2 -20.5 4t-22.5 2q-19 0 -30 -9t-11 -23q0 -19 12 -32.5t28 -21t27 -8.5l-45 -4q27 7 51 14.5t46 15.5l22 -71q-26 -9 -60 -19.5t-71.5 -19.5t-75.5 -16z" />
    <glyph glyph-name="uni0681.fina" unicode="&#x681;" horiz-adv-x="771" 
d="M771 -5q-66 0 -118 9t-90 32.5t-62 66.5t-35 110l122 70q8 -40 22.5 -64t37 -36t55.5 -16t78 -4q48 0 69 -24t21 -58q0 -38 -25 -62t-75 -24zM398 -394q-80 0 -147.5 21t-117 61.5t-76.5 99.5t-27 135q0 75 24 136t67 109t99.5 83.5t122 58.5t135.5 34l11 -20
q-22 6 -53 14t-68 15t-77 12t-82 5q-40 0 -77.5 -4t-64.5 -11l-25 175q30 8 65 14t72 6q62 0 113.5 -10t95 -24.5t81 -29.5t71 -25t64.5 -10h52l20 -192q-31 0 -77.5 -9t-99.5 -27t-104.5 -44.5t-93.5 -61t-67.5 -76.5t-25.5 -92q0 -46 15.5 -77.5t43 -51t65 -28.5t81.5 -9
q59 0 119 12t121 37l50 -157q-82 -37 -161 -53t-144 -16zM239 670l-18 74q41 6 59.5 10t38.5 9l-19 -31q-26 9 -49.5 36t-23.5 62q0 39 17 62t43 33.5t54 10.5q17 0 31 -2t25 -6l-8 -70q-10 2 -20.5 4t-22.5 2q-19 0 -30 -9t-11 -23q0 -19 12 -32.5t28 -21t27 -8.5l-45 -4
q27 7 51 14.5t46 15.5l22 -71q-26 -9 -60 -19.5t-71.5 -19.5t-75.5 -16z" />
    <glyph glyph-name="uni0682.init" unicode="&#x682;" horiz-adv-x="684" 
d="M0 -5l10 168q63 0 123 6t114.5 19t102 33t87.5 48q-33 11 -69 18.5t-74.5 11.5t-81.5 4q-16 0 -41 -1t-50.5 -3.5t-43.5 -6.5l-22 176q30 8 72 11.5t75 3.5q55 0 103 -11.5t89 -28.5t76.5 -34t67 -28.5t59.5 -11.5h41l21 -152q-39 -4 -74 -21.5t-71.5 -43t-81.5 -52.5
t-104.5 -51t-139.5 -39t-188 -15zM192 577q-31 0 -52 21.5t-21 51.5q0 31 21 53t52 22q30 0 51.5 -22t21.5 -52q0 -31 -21.5 -52.5t-51.5 -21.5zM192 756q-31 0 -52 21t-21 52t21 53t52 22q30 0 51.5 -22t21.5 -53t-21.5 -52t-51.5 -21z" />
    <glyph glyph-name="uni0682.medi" unicode="&#x682;" horiz-adv-x="728" 
d="M728 -5q-55 0 -98.5 8.5t-76.5 27.5t-56.5 51t-38.5 79l92 72q13 -27 36 -42.5t60 -21.5t92 -6q48 0 69 -24t21 -58q0 -38 -25 -62t-75 -24zM0 -5l10 168q63 0 123 6t114.5 19t102 33t87.5 48q-33 11 -69 18.5t-74.5 11.5t-81.5 4q-16 0 -41 -1t-50.5 -3.5t-43.5 -6.5
l-22 176q30 8 72 11.5t75 3.5q55 0 103 -11.5t89 -28.5t76.5 -34t67 -28.5t59.5 -11.5h41l21 -152q-39 -4 -74 -21.5t-71.5 -43t-81.5 -52.5t-104.5 -51t-139.5 -39t-188 -15zM181 598q-31 0 -52 21.5t-21 51.5q0 31 21 53t52 22q30 0 51.5 -22t21.5 -52q0 -31 -21.5 -52.5
t-51.5 -21.5zM181 777q-31 0 -52 21t-21 52t21 53t52 22q30 0 51.5 -22t21.5 -53t-21.5 -52t-51.5 -21z" />
    <glyph glyph-name="uni0682.fina" unicode="&#x682;" horiz-adv-x="771" 
d="M771 -5q-66 0 -118 9t-90 32.5t-62 66.5t-35 110l122 70q8 -40 22.5 -64t37 -36t55.5 -16t78 -4q48 0 69 -24t21 -58q0 -38 -25 -62t-75 -24zM398 -394q-80 0 -147.5 21t-117 61.5t-76.5 99.5t-27 135q0 75 24 136t67 109t99.5 83.5t122 58.5t135.5 34l11 -20
q-22 6 -53 14t-68 15t-77 12t-82 5q-40 0 -77.5 -4t-64.5 -11l-25 175q30 8 65 14t72 6q62 0 113.5 -10t95 -24.5t81 -29.5t71 -25t64.5 -10h52l20 -192q-31 0 -77.5 -9t-99.5 -27t-104.5 -44.5t-93.5 -61t-67.5 -76.5t-25.5 -92q0 -46 15.5 -77.5t43 -51t65 -28.5t81.5 -9
q59 0 119 12t121 37l50 -157q-82 -37 -161 -53t-144 -16zM351 645q-31 0 -52 21.5t-21 51.5q0 31 21 53t52 22q30 0 51.5 -22t21.5 -52q0 -31 -21.5 -52.5t-51.5 -21.5zM351 824q-31 0 -52 21t-21 52t21 53t52 22q30 0 51.5 -22t21.5 -53t-21.5 -52t-51.5 -21z" />
    <glyph glyph-name="uni0685.init" unicode="&#x685;" horiz-adv-x="684" 
d="M0 -5l10 168q63 0 123 6t114.5 19t102 33t87.5 48q-33 11 -69 18.5t-74.5 11.5t-81.5 4q-16 0 -41 -1t-50.5 -3.5t-43.5 -6.5l-22 176q30 8 72 11.5t75 3.5q55 0 103 -11.5t89 -28.5t76.5 -34t67 -28.5t59.5 -11.5h41l21 -152q-39 -4 -74 -21.5t-71.5 -43t-81.5 -52.5
t-104.5 -51t-139.5 -39t-188 -15zM195 730q-32 0 -53 21.5t-21 50.5q0 31 21 53t53 22q31 0 52.5 -22t21.5 -53q0 -29 -21.5 -50.5t-52.5 -21.5zM110 573q-31 0 -53.5 23t-22.5 53q0 29 22.5 52t53.5 23q29 0 50.5 -23t21.5 -52q0 -30 -21.5 -53t-50.5 -23zM283 573
q-30 0 -50 23t-20 53q0 29 20 52t50 23q31 0 53 -23t22 -52q0 -30 -22 -53t-53 -23z" />
    <glyph glyph-name="uni0685.medi" unicode="&#x685;" horiz-adv-x="728" 
d="M728 -5q-55 0 -98.5 8.5t-76.5 27.5t-56.5 51t-38.5 79l92 72q13 -27 36 -42.5t60 -21.5t92 -6q48 0 69 -24t21 -58q0 -38 -25 -62t-75 -24zM0 -5l10 168q63 0 123 6t114.5 19t102 33t87.5 48q-33 11 -69 18.5t-74.5 11.5t-81.5 4q-16 0 -41 -1t-50.5 -3.5t-43.5 -6.5
l-22 176q30 8 72 11.5t75 3.5q55 0 103 -11.5t89 -28.5t76.5 -34t67 -28.5t59.5 -11.5h41l21 -152q-39 -4 -74 -21.5t-71.5 -43t-81.5 -52.5t-104.5 -51t-139.5 -39t-188 -15zM184 751q-32 0 -53 21.5t-21 50.5q0 31 21 53t53 22q31 0 52.5 -22t21.5 -53q0 -29 -21.5 -50.5
t-52.5 -21.5zM99 594q-31 0 -53.5 23t-22.5 53q0 29 22.5 52t53.5 23q29 0 50.5 -23t21.5 -52q0 -30 -21.5 -53t-50.5 -23zM272 594q-30 0 -50 23t-20 53q0 29 20 52t50 23q31 0 53 -23t22 -52q0 -30 -22 -53t-53 -23z" />
    <glyph glyph-name="uni0685.fina" unicode="&#x685;" horiz-adv-x="771" 
d="M771 -5q-66 0 -118 9t-90 32.5t-62 66.5t-35 110l122 70q8 -40 22.5 -64t37 -36t55.5 -16t78 -4q48 0 69 -24t21 -58q0 -38 -25 -62t-75 -24zM398 -394q-80 0 -147.5 21t-117 61.5t-76.5 99.5t-27 135q0 75 24 136t67 109t99.5 83.5t122 58.5t135.5 34l11 -20
q-22 6 -53 14t-68 15t-77 12t-82 5q-40 0 -77.5 -4t-64.5 -11l-25 175q30 8 65 14t72 6q62 0 113.5 -10t95 -24.5t81 -29.5t71 -25t64.5 -10h52l20 -192q-31 0 -77.5 -9t-99.5 -27t-104.5 -44.5t-93.5 -61t-67.5 -76.5t-25.5 -92q0 -46 15.5 -77.5t43 -51t65 -28.5t81.5 -9
q59 0 119 12t121 37l50 -157q-82 -37 -161 -53t-144 -16zM354 798q-32 0 -53 21.5t-21 50.5q0 31 21 53t53 22q31 0 52.5 -22t21.5 -53q0 -29 -21.5 -50.5t-52.5 -21.5zM269 641q-31 0 -53.5 23t-22.5 53q0 29 22.5 52t53.5 23q29 0 50.5 -23t21.5 -52q0 -30 -21.5 -53
t-50.5 -23zM442 641q-30 0 -50 23t-20 53q0 29 20 52t50 23q31 0 53 -23t22 -52q0 -30 -22 -53t-53 -23z" />
    <glyph glyph-name="uni0689.fina" unicode="&#x689;" horiz-adv-x="599" 
d="M238 -145q-44 0 -75 31.5t-31 75.5t31 75.5t75 31.5q45 0 76 -31.5t31 -75.5t-31 -75.5t-76 -31.5zM238 -70q14 0 24 9t10 23q0 15 -10 24t-24 9q-13 0 -23.5 -9.5t-10.5 -23.5t10.5 -23t23.5 -9zM229 177q27 0 43 5.5t23.5 18t7.5 33.5q0 14 -4.5 33t-16.5 45
t-33.5 63.5t-56.5 89.5l160 99q46 -67 74.5 -122.5t45 -100.5t25.5 -82q9 -36 23.5 -57t36.5 -30t52 -9q48 0 69 -24t21 -58q0 -38 -25 -62t-75 -24q-41 0 -77.5 12t-65 38.5t-48.5 68.5l53 -12q-15 -33 -45 -57t-72.5 -37t-97.5 -13q-38 0 -75.5 5.5t-73 17.5t-67.5 32
l64 161q29 -14 63.5 -24t71.5 -10z" />
    <glyph glyph-name="uni068A.fina" unicode="&#x68a;" horiz-adv-x="599" 
d="M229 177q27 0 43 5.5t23.5 18t7.5 33.5q0 14 -4.5 33t-16.5 45t-33.5 63.5t-56.5 89.5l160 99q46 -67 74.5 -122.5t45 -100.5t25.5 -82q9 -36 23.5 -57t36.5 -30t52 -9q48 0 69 -24t21 -58q0 -38 -25 -62t-75 -24q-41 0 -77.5 12t-65 38.5t-48.5 68.5l53 -12
q-15 -33 -45 -57t-72.5 -37t-97.5 -13q-38 0 -75.5 5.5t-73 17.5t-67.5 32l64 161q29 -14 63.5 -24t71.5 -10zM240 -253q-34 0 -58 23.5t-24 57.5q0 35 24 59.5t58 24.5q35 0 58 -24.5t23 -59.5q0 -34 -23 -57.5t-58 -23.5z" />
    <glyph glyph-name="uni068B.fina" unicode="&#x68b;" horiz-adv-x="599" 
d="M229 177q27 0 43 5.5t23.5 18t7.5 33.5q0 14 -4.5 33t-16.5 45t-33.5 63.5t-56.5 89.5l160 99q46 -67 74.5 -122.5t45 -100.5t25.5 -82q9 -36 23.5 -57t36.5 -30t52 -9q48 0 69 -24t21 -58q0 -38 -25 -62t-75 -24q-41 0 -77.5 12t-65 38.5t-48.5 68.5l53 -12
q-15 -33 -45 -57t-72.5 -37t-97.5 -13q-38 0 -75.5 5.5t-73 17.5t-67.5 32l64 161q29 -14 63.5 -24t71.5 -10zM231 679q-19 0 -44 1.5t-47 3t-33 2.5l4 73q20 -3 52 -5.5t60 -2.5q43 0 65 6.5t29.5 16t7.5 19.5t-7 17.5t-20 7.5q-15 0 -32.5 -12.5t-32.5 -30.5t-23 -34
l-72 13q19 42 47 73.5t60.5 48.5t63.5 17q42 0 67 -28.5t25 -69.5q0 -24 -12.5 -51t-49 -46t-108.5 -19zM154 761l-7 192h74l8 -171zM240 -253q-34 0 -58 23.5t-24 57.5q0 35 24 59.5t58 24.5q35 0 58 -24.5t23 -59.5q0 -34 -23 -57.5t-58 -23.5z" />
    <glyph glyph-name="uni068F.fina" unicode="&#x68f;" horiz-adv-x="599" 
d="M229 177q27 0 43 5.5t23.5 18t7.5 33.5q0 14 -4.5 33t-16.5 45t-33.5 63.5t-56.5 89.5l160 99q46 -67 74.5 -122.5t45 -100.5t25.5 -82q9 -36 23.5 -57t36.5 -30t52 -9q48 0 69 -24t21 -58q0 -38 -25 -62t-75 -24q-41 0 -77.5 12t-65 38.5t-48.5 68.5l53 -12
q-15 -33 -45 -57t-72.5 -37t-97.5 -13q-38 0 -75.5 5.5t-73 17.5t-67.5 32l64 161q29 -14 63.5 -24t71.5 -10zM231 631q-31 0 -52 21.5t-21 51.5q0 31 21 53t52 22q30 0 51.5 -22t21.5 -52q0 -31 -21.5 -52.5t-51.5 -21.5zM145 787q-31 0 -52 21t-21 52t21 53t52 22
q30 0 51 -22t21 -53t-21 -52t-51 -21zM322 787q-30 0 -51 21t-21 52t21 53t51 22q32 0 52.5 -22t20.5 -53t-20.5 -52t-52.5 -21z" />
    <glyph glyph-name="uni0690.fina" unicode="&#x690;" horiz-adv-x="599" 
d="M229 177q27 0 43 5.5t23.5 18t7.5 33.5q0 14 -4.5 33t-16.5 45t-33.5 63.5t-56.5 89.5l160 99q46 -67 74.5 -122.5t45 -100.5t25.5 -82q9 -36 23.5 -57t36.5 -30t52 -9q48 0 69 -24t21 -58q0 -38 -25 -62t-75 -24q-41 0 -77.5 12t-65 38.5t-48.5 68.5l53 -12
q-15 -33 -45 -57t-72.5 -37t-97.5 -13q-38 0 -75.5 5.5t-73 17.5t-67.5 32l64 161q29 -14 63.5 -24t71.5 -10zM159 787q-27 0 -46 19t-19 46q0 28 19 48t46 20t46 -20t19 -47q0 -28 -19 -47t-46 -19zM160 631q-27 0 -46 19t-19 46q0 28 19 48t46 20t46 -20t19 -47
q0 -28 -19 -47t-46 -19zM323 787q-27 0 -46 19t-19 46q0 28 19 48t46 20t46 -20t19 -47q0 -28 -19 -47t-46 -19zM320 631q-27 0 -46 19t-19 46q0 28 19 48t46 20t46 -20t19 -47q0 -28 -19 -47t-46 -19z" />
    <glyph glyph-name="uni0692.fina" unicode="&#x692;" horiz-adv-x="460" 
d="M17 -231l-54 155q71 18 119 43t76.5 53.5t40.5 57.5t12 55q0 41 -22 94t-58 114l154 76q17 -29 31.5 -60t26.5 -62t21 -61q13 -40 37 -55.5t69 -15.5q48 0 69 -24t21 -58q0 -38 -25 -62t-75 -24q-36 0 -64.5 11.5t-46 34.5t-22.5 56l51 44q0 -54 -20 -110t-63 -106.5
t-111.5 -91t-166.5 -64.5zM154 525q-8 15 -20 38.5t-25.5 49.5t-26 49.5t-21.5 39.5l66 35q7 -13 18 -35.5t23 -47.5t23.5 -48t19.5 -37l23 -38zM234 531l-61 20q7 17 18.5 45.5t23.5 58.5t22 53.5t14 31.5l66 -28q-4 -10 -15 -33.5t-24.5 -51.5t-25.5 -54t-18 -42z" />
    <glyph glyph-name="uni0693.fina" unicode="&#x693;" horiz-adv-x="460" 
d="M309 -219q-44 0 -75 31.5t-31 75.5t31 75.5t75 31.5q45 0 76 -31.5t31 -75.5t-31 -75.5t-76 -31.5zM309 -144q14 0 24 9t10 23q0 15 -10 24t-24 9q-13 0 -23.5 -9.5t-10.5 -23.5t10.5 -23t23.5 -9zM17 -231l-54 155q71 18 119 43t76.5 53.5t40.5 57.5t12 55q0 41 -22 94
t-58 114l154 76q17 -29 31.5 -60t26.5 -62t21 -61q13 -40 37 -55.5t69 -15.5q48 0 69 -24t21 -58q0 -38 -25 -62t-75 -24q-36 0 -64.5 11.5t-46 34.5t-22.5 56l51 44q0 -54 -20 -110t-63 -106.5t-111.5 -91t-166.5 -64.5z" />
    <glyph glyph-name="uni0694.fina" unicode="&#x694;" horiz-adv-x="460" 
d="M17 -231l-54 155q71 18 119 43t76.5 53.5t40.5 57.5t12 55q0 41 -22 94t-58 114l154 76q17 -29 31.5 -60t26.5 -62t21 -61q13 -40 37 -55.5t69 -15.5q48 0 69 -24t21 -58q0 -38 -25 -62t-75 -24q-36 0 -64.5 11.5t-46 34.5t-22.5 56l51 44q0 -54 -20 -110t-63 -106.5
t-111.5 -91t-166.5 -64.5zM177 -462q-34 0 -58 23.5t-24 57.5q0 35 24 59.5t58 24.5q35 0 58 -24.5t23 -59.5q0 -34 -23 -57.5t-58 -23.5z" />
    <glyph glyph-name="uni0695.fina" unicode="&#x695;" horiz-adv-x="460" 
d="M12 26q-8 16 -21.5 40.5t-27.5 49.5t-25 42l53 28q6 -8 14.5 -24t18.5 -35t19.5 -36.5t16.5 -28.5l16 -32zM76 30l-47 20q6 14 14.5 34.5t17.5 42t17 38.5t12 23l53 -22q-5 -8 -13.5 -25.5t-19 -38t-19.5 -40zM17 -231l-54 155q71 18 119 43t76.5 53.5t40.5 57.5t12 55
q0 41 -22 94t-58 114l154 76q17 -29 31.5 -60t26.5 -62t21 -61q13 -40 37 -55.5t69 -15.5q48 0 69 -24t21 -58q0 -38 -25 -62t-75 -24q-36 0 -64.5 11.5t-46 34.5t-22.5 56l51 44q0 -54 -20 -110t-63 -106.5t-111.5 -91t-166.5 -64.5z" />
    <glyph glyph-name="uni0696.fina" unicode="&#x696;" horiz-adv-x="460" 
d="M17 -231l-54 155q71 18 119 43t76.5 53.5t40.5 57.5t12 55q0 41 -22 94t-58 114l154 76q17 -29 31.5 -60t26.5 -62t21 -61q13 -40 37 -55.5t69 -15.5q48 0 69 -24t21 -58q0 -38 -25 -62t-75 -24q-36 0 -64.5 11.5t-46 34.5t-22.5 56l51 44q0 -54 -20 -110t-63 -106.5
t-111.5 -91t-166.5 -64.5zM99 25q-34 0 -58 24t-24 58q0 35 24 60t58 25t57.5 -25t23.5 -60q0 -34 -23.5 -58t-57.5 -24zM177 -462q-34 0 -58 23.5t-24 57.5q0 35 24 59.5t58 24.5q35 0 58 -24.5t23 -59.5q0 -34 -23 -57.5t-58 -23.5z" />
    <glyph glyph-name="uni0697.fina" unicode="&#x697;" horiz-adv-x="460" 
d="M17 -231l-54 155q71 18 119 43t76.5 53.5t40.5 57.5t12 55q0 41 -22 94t-58 114l154 76q17 -29 31.5 -60t26.5 -62t21 -61q13 -40 37 -55.5t69 -15.5q48 0 69 -24t21 -58q0 -38 -25 -62t-75 -24q-36 0 -64.5 11.5t-46 34.5t-22.5 56l51 44q0 -54 -20 -110t-63 -106.5
t-111.5 -91t-166.5 -64.5zM287 514q-31 0 -51.5 21.5t-20.5 51.5q0 32 20.5 52.5t51.5 20.5t53 -20.5t22 -52.5q0 -30 -22 -51.5t-53 -21.5zM110 514q-32 0 -53 21.5t-21 51.5q0 32 21 52.5t52 20.5q30 0 52 -20.5t22 -52.5q0 -30 -21.5 -51.5t-51.5 -21.5z" />
    <glyph glyph-name="uni0699.fina" unicode="&#x699;" horiz-adv-x="460" 
d="M17 -231l-54 155q71 18 119 43t76.5 53.5t40.5 57.5t12 55q0 41 -22 94t-58 114l154 76q17 -29 31.5 -60t26.5 -62t21 -61q13 -40 37 -55.5t69 -15.5q48 0 69 -24t21 -58q0 -38 -25 -62t-75 -24q-36 0 -64.5 11.5t-46 34.5t-22.5 56l51 44q0 -54 -20 -110t-63 -106.5
t-111.5 -91t-166.5 -64.5zM115 665q-27 0 -46 19t-19 46q0 28 19 48t46 20t46 -20t19 -47q0 -28 -19 -47t-46 -19zM116 509q-27 0 -46 19t-19 46q0 28 19 48t46 20t46 -20t19 -47q0 -28 -19 -47t-46 -19zM279 665q-27 0 -46 19t-19 46q0 28 19 48t46 20t46 -20t19 -47
q0 -28 -19 -47t-46 -19zM276 509q-27 0 -46 19t-19 46q0 28 19 48t46 20t46 -20t19 -47q0 -28 -19 -47t-46 -19z" />
    <glyph glyph-name="uni069A.init" unicode="&#x69a;" horiz-adv-x="1050" 
d="M0 -5l10 168q34 0 55.5 6.5t34.5 27t23 61.5t21 110l165 -26q-2 -13 -5.5 -34t-6 -43t-2.5 -42q0 -25 16.5 -42t62.5 -17q32 0 51.5 6t31.5 27t21 63.5t20 115.5l168 -26q-4 -22 -8.5 -48t-7.5 -49t-3 -37t8 -26.5t27 -19.5t51 -7q35 0 55 7t28.5 22t8.5 39
q0 40 -15 101.5t-40 134.5l166 49q18 -50 31.5 -103.5t20.5 -102.5t7 -85q0 -55 -18.5 -97.5t-52 -72t-80 -45t-102.5 -15.5q-54 0 -91.5 13t-59.5 45t-31 88h35q-22 -67 -52.5 -98t-70 -39.5t-89.5 -8.5q-39 0 -77 9t-69 39t-50 94h70q-24 -60 -63 -90.5t-88 -41
t-106 -10.5zM526 -253q-34 0 -58 23.5t-24 57.5q0 35 24 59.5t58 24.5q35 0 58 -24.5t23 -59.5q0 -34 -23 -57.5t-58 -23.5zM571 517q-34 0 -58 24t-24 58q0 35 24 60t58 25t57.5 -25t23.5 -60q0 -34 -23.5 -58t-57.5 -24z" />
    <glyph glyph-name="uni069A.medi" unicode="&#x69a;" horiz-adv-x="1116" 
d="M0 -5l10 168q34 0 55.5 6.5t34.5 27t23 61.5t21 110l165 -26q-3 -20 -8.5 -52t-5.5 -57q0 -22 7 -37.5t25.5 -23.5t50.5 -8q29 0 48 6t32 27t22 63.5t18 115.5l168 -26q-5 -27 -9.5 -52.5t-7 -46.5t-2.5 -35t8.5 -26.5t29 -19.5t56.5 -7q50 0 67.5 21t17.5 64q0 22 -1 49
t-4 62t-9 79l165 13q8 -93 17.5 -150t25 -87t41 -40.5t65.5 -10.5q48 0 69 -24t21 -58q0 -38 -25 -62t-75 -24q-20 0 -48.5 4t-58.5 17.5t-57 41.5t-44 76l18 -6q-15 -45 -39 -74.5t-61.5 -44t-94.5 -14.5q-46 0 -85.5 14t-62.5 46t-22 86h34q-22 -64 -48.5 -95.5t-65.5 -41
t-99 -9.5q-39 0 -77.5 10.5t-69 41t-48.5 90.5h70q-24 -55 -63 -86t-88 -43.5t-106 -12.5zM498 -253q-34 0 -58 23.5t-24 57.5q0 35 24 59.5t58 24.5q35 0 58 -24.5t23 -59.5q0 -34 -23 -57.5t-58 -23.5zM555 517q-34 0 -58 24t-24 58q0 35 24 60t58 25t57.5 -25t23.5 -60
q0 -34 -23.5 -58t-57.5 -24z" />
    <glyph glyph-name="uni069A.fina" unicode="&#x69a;" horiz-adv-x="1546" 
d="M370 -232q-70 0 -132.5 15t-110.5 47t-75.5 82t-27.5 120q0 28 4 59t15.5 72t35.5 99l156 -53q-14 -39 -21.5 -63.5t-10 -43t-2.5 -39.5q0 -36 18.5 -64.5t55.5 -45.5t92 -17q48 0 84.5 9t61.5 27t37.5 46.5t12.5 67.5q0 26 -8 65t-20.5 86.5t-28.5 97.5l178 45
q14 -59 23.5 -95t14.5 -51q10 -29 20 -44.5t26.5 -20.5t43.5 -5t45 6.5t30.5 27t22 63t18.5 115.5l168 -26q-5 -27 -9.5 -52.5t-7 -46.5t-2.5 -35t8.5 -26.5t29 -19.5t56.5 -7q50 0 67.5 21t17.5 64q0 22 -1 49t-4 62t-9 79l165 13q9 -104 20.5 -162.5t28.5 -85.5
t41.5 -33.5t58.5 -6.5q48 0 69 -24t21 -58q0 -38 -25 -62t-75 -24q-36 0 -77 11t-76 41t-55 87l18 -6q-14 -51 -43.5 -80t-66.5 -41t-76 -12q-62 0 -102 16.5t-58.5 49.5t-18.5 80h34q-19 -63 -46 -94t-62.5 -41.5t-79.5 -10.5q-15 0 -37.5 3t-45.5 12t-40 28t-22 50l51 -45
q-3 -67 -35.5 -118.5t-85.5 -86t-118.5 -52.5t-133.5 -18zM1002 -248q-34 0 -58 23.5t-24 57.5q0 35 24 59.5t58 24.5q35 0 58 -24.5t23 -59.5q0 -34 -23 -57.5t-58 -23.5zM929 517q-34 0 -58 24t-24 58q0 35 24 60t58 25t57.5 -25t23.5 -60q0 -34 -23.5 -58t-57.5 -24z" />
    <glyph glyph-name="uni069B.init" unicode="&#x69b;" horiz-adv-x="1050" 
d="M0 -5l10 168q34 0 55.5 6.5t34.5 27t23 61.5t21 110l165 -26q-2 -13 -5.5 -34t-6 -43t-2.5 -42q0 -25 16.5 -42t62.5 -17q32 0 51.5 6t31.5 27t21 63.5t20 115.5l168 -26q-4 -22 -8.5 -48t-7.5 -49t-3 -37t8 -26.5t27 -19.5t51 -7q35 0 55 7t28.5 22t8.5 39
q0 40 -15 101.5t-40 134.5l166 49q18 -50 31.5 -103.5t20.5 -102.5t7 -85q0 -55 -18.5 -97.5t-52 -72t-80 -45t-102.5 -15.5q-54 0 -91.5 13t-59.5 45t-31 88h35q-22 -67 -52.5 -98t-70 -39.5t-89.5 -8.5q-39 0 -77 9t-69 39t-50 94h70q-24 -60 -63 -90.5t-88 -41
t-106 -10.5zM526 -395q-31 0 -52 21t-21 52q0 30 21 52.5t52 22.5q30 0 51 -22.5t21 -52.5q0 -31 -21 -52t-51 -21zM434 -239q-31 0 -52 21t-21 52q0 30 21 52.5t52 22.5t52 -22.5t21 -52.5q0 -31 -21 -52t-52 -21zM622 -239q-31 0 -52 21t-21 52q0 30 21 52.5t52 22.5
q32 0 52.5 -22.5t20.5 -52.5q0 -31 -20.5 -52t-52.5 -21z" />
    <glyph glyph-name="uni069B.medi" unicode="&#x69b;" horiz-adv-x="1116" 
d="M0 -5l10 168q34 0 55.5 6.5t34.5 27t23 61.5t21 110l165 -26q-3 -20 -8.5 -52t-5.5 -57q0 -22 7 -37.5t25.5 -23.5t50.5 -8q29 0 48 6t32 27t22 63.5t18 115.5l168 -26q-5 -27 -9.5 -52.5t-7 -46.5t-2.5 -35t8.5 -26.5t29 -19.5t56.5 -7q50 0 67.5 21t17.5 64q0 22 -1 49
t-4 62t-9 79l165 13q8 -93 17.5 -150t25 -87t41 -40.5t65.5 -10.5q48 0 69 -24t21 -58q0 -38 -25 -62t-75 -24q-20 0 -48.5 4t-58.5 17.5t-57 41.5t-44 76l18 -6q-15 -45 -39 -74.5t-61.5 -44t-94.5 -14.5q-46 0 -85.5 14t-62.5 46t-22 86h34q-22 -64 -48.5 -95.5t-65.5 -41
t-99 -9.5q-39 0 -77.5 10.5t-69 41t-48.5 90.5h70q-24 -55 -63 -86t-88 -43.5t-106 -12.5zM498 -395q-31 0 -52 21t-21 52q0 30 21 52.5t52 22.5q30 0 51 -22.5t21 -52.5q0 -31 -21 -52t-51 -21zM406 -239q-31 0 -52 21t-21 52q0 30 21 52.5t52 22.5t52 -22.5t21 -52.5
q0 -31 -21 -52t-52 -21zM594 -239q-31 0 -52 21t-21 52q0 30 21 52.5t52 22.5q32 0 52.5 -22.5t20.5 -52.5q0 -31 -20.5 -52t-52.5 -21z" />
    <glyph glyph-name="uni069B.fina" unicode="&#x69b;" horiz-adv-x="1546" 
d="M370 -232q-70 0 -132.5 15t-110.5 47t-75.5 82t-27.5 120q0 28 4 59t15.5 72t35.5 99l156 -53q-14 -39 -21.5 -63.5t-10 -43t-2.5 -39.5q0 -36 18.5 -64.5t55.5 -45.5t92 -17q48 0 84.5 9t61.5 27t37.5 46.5t12.5 67.5q0 26 -8 65t-20.5 86.5t-28.5 97.5l178 45
q14 -59 23.5 -95t14.5 -51q10 -29 20 -44.5t26.5 -20.5t43.5 -5t45 6.5t30.5 27t22 63t18.5 115.5l168 -26q-5 -27 -9.5 -52.5t-7 -46.5t-2.5 -35t8.5 -26.5t29 -19.5t56.5 -7q50 0 67.5 21t17.5 64q0 22 -1 49t-4 62t-9 79l165 13q9 -104 20.5 -162.5t28.5 -85.5
t41.5 -33.5t58.5 -6.5q48 0 69 -24t21 -58q0 -38 -25 -62t-75 -24q-36 0 -77 11t-76 41t-55 87l18 -6q-14 -51 -43.5 -80t-66.5 -41t-76 -12q-62 0 -102 16.5t-58.5 49.5t-18.5 80h34q-19 -63 -46 -94t-62.5 -41.5t-79.5 -10.5q-15 0 -37.5 3t-45.5 12t-40 28t-22 50l51 -45
q-3 -67 -35.5 -118.5t-85.5 -86t-118.5 -52.5t-133.5 -18zM1002 -390q-31 0 -52 21t-21 52q0 30 21 52.5t52 22.5q30 0 51 -22.5t21 -52.5q0 -31 -21 -52t-51 -21zM910 -234q-31 0 -52 21t-21 52q0 30 21 52.5t52 22.5t52 -22.5t21 -52.5q0 -31 -21 -52t-52 -21zM1098 -234
q-31 0 -52 21t-21 52q0 30 21 52.5t52 22.5q32 0 52.5 -22.5t20.5 -52.5q0 -31 -20.5 -52t-52.5 -21z" />
    <glyph glyph-name="uni069D.init" unicode="&#x69d;" horiz-adv-x="1035" 
d="M540 -18q-96 0 -159 9.5t-102 25.5t-63 37t-42 45l32 8q-25 -48 -59 -72t-71.5 -32t-75.5 -8l10 168q28 0 43.5 10.5t25 34t18.5 63t24 98.5l162 -40q-7 -29 -12 -49t-7 -33t-2 -22q0 -19 7.5 -33.5t30.5 -23t68 -13t120 -4.5q100 0 162.5 6.5t96.5 18t46.5 27.5t12.5 36
q0 18 -8 32t-24 22t-41 8q-27 0 -59 -12.5t-66.5 -36t-68 -54.5t-62.5 -69l-179 26q46 69 100.5 127t113.5 101t120 66.5t120 23.5q72 0 123 -28.5t78 -78.5t27 -115q0 -82 -44.5 -142.5t-141.5 -93.5t-254 -33zM624 -250q-31 0 -51.5 21t-20.5 52t20.5 52t51.5 21t53 -21
t22 -52t-22 -52t-53 -21zM447 -250q-32 0 -53 21t-21 52t21 52t52 21q30 0 52 -21t22 -52t-21.5 -52t-51.5 -21z" />
    <glyph glyph-name="uni069D.medi" unicode="&#x69d;" horiz-adv-x="1056" 
d="M1056 -5q-68 0 -119.5 12t-87.5 29.5t-57 34.5l95 122q37 -16 75.5 -23t102.5 -7q49 0 70 -24t21 -58q0 -38 -25 -62t-75 -24zM540 -18q-96 0 -159 9.5t-102 25.5t-63 37t-42 45l32 8q-25 -48 -59 -72t-71.5 -32t-75.5 -8l10 168q28 0 43.5 10.5t25 34t18.5 63t24 98.5
l162 -40q-7 -29 -12 -49t-7 -33t-2 -22q0 -19 7.5 -33.5t30.5 -23t68 -13t120 -4.5q100 0 162.5 6.5t96.5 18t46.5 27.5t12.5 36q0 18 -8 32t-24 22t-41 8q-27 0 -59 -12.5t-66.5 -36t-68 -54.5t-62.5 -69l-179 26q46 69 100.5 127t113.5 101t120 66.5t120 23.5
q72 0 123 -28.5t78 -78.5t27 -115q0 -82 -44.5 -142.5t-141.5 -93.5t-254 -33zM624 -250q-31 0 -51.5 21t-20.5 52t20.5 52t51.5 21t53 -21t22 -52t-22 -52t-53 -21zM447 -250q-32 0 -53 21t-21 52t21 52t52 21q30 0 52 -21t22 -52t-21.5 -52t-51.5 -21z" />
    <glyph glyph-name="uni069D.fina" unicode="&#x69d;" horiz-adv-x="1528" 
d="M1528 -5q-68 0 -119.5 12t-87.5 29.5t-57 34.5l95 122q37 -16 75.5 -23t102.5 -7q49 0 70 -24t21 -58q0 -38 -25 -62t-75 -24zM368 -232q-70 0 -132 15t-110 47t-75 82.5t-27 120.5q0 28 4 58.5t15.5 71.5t35.5 99l156 -54q-14 -39 -21.5 -63.5t-10 -42.5t-2.5 -39
q0 -37 18.5 -65.5t55 -45t91.5 -16.5q48 0 84.5 9t61.5 27t38 45t13 64q0 49 -17.5 115t-39.5 139l178 45q9 -38 16.5 -67.5t13 -49t8.5 -29.5q7 -20 18.5 -35t38 -24.5t77.5 -14t137 -4.5q74 0 125.5 4t85 11.5t52.5 18.5t26.5 24.5t7.5 29.5t-7.5 30t-23 23t-41.5 9
q-32 0 -65.5 -14.5t-67 -39t-65 -55t-59.5 -61.5l-178 26q35 50 75.5 96.5t85.5 86.5t93 70t98.5 46.5t101.5 16.5q71 0 122 -29.5t78.5 -79.5t27.5 -113q0 -61 -25 -111t-77.5 -85t-136 -54t-201.5 -19q-46 0 -100.5 4.5t-106.5 16t-91.5 32t-55.5 51.5l72 -48
q-3 -67 -35.5 -118.5t-86 -86.5t-119 -52.5t-134.5 -17.5zM1078 -245q-31 0 -51.5 21t-20.5 52t20.5 52t51.5 21t53 -21t22 -52t-22 -52t-53 -21zM901 -245q-32 0 -53 21t-21 52t21 52t52 21q30 0 52 -21t22 -52t-21.5 -52t-51.5 -21z" />
    <glyph glyph-name="uni069E.init" unicode="&#x69e;" horiz-adv-x="1035" 
d="M540 -18q-96 0 -159 9.5t-102 25.5t-63 37t-42 45l32 8q-25 -48 -59 -72t-71.5 -32t-75.5 -8l10 168q28 0 43.5 10.5t25 34t18.5 63t24 98.5l162 -40q-7 -29 -12 -49t-7 -33t-2 -22q0 -19 7.5 -33.5t30.5 -23t68 -13t120 -4.5q100 0 162.5 6.5t96.5 18t46.5 27.5t12.5 36
q0 18 -8 32t-24 22t-41 8q-27 0 -59 -12.5t-66.5 -36t-68 -54.5t-62.5 -69l-179 26q46 69 100.5 127t113.5 101t120 66.5t120 23.5q72 0 123 -28.5t78 -78.5t27 -115q0 -82 -44.5 -142.5t-141.5 -93.5t-254 -33zM725 721q-32 0 -53 21.5t-21 50.5q0 31 21 53t53 22
q31 0 52.5 -22t21.5 -53q0 -29 -21.5 -50.5t-52.5 -21.5zM640 564q-31 0 -53.5 23t-22.5 53q0 29 22.5 52t53.5 23q29 0 50.5 -23t21.5 -52q0 -30 -21.5 -53t-50.5 -23zM813 564q-30 0 -50 23t-20 53q0 29 20 52t50 23q31 0 53 -23t22 -52q0 -30 -22 -53t-53 -23z" />
    <glyph glyph-name="uni069E.medi" unicode="&#x69e;" horiz-adv-x="1056" 
d="M1056 -5q-68 0 -119.5 12t-87.5 29.5t-57 34.5l95 122q37 -16 75.5 -23t102.5 -7q49 0 70 -24t21 -58q0 -38 -25 -62t-75 -24zM540 -18q-96 0 -159 9.5t-102 25.5t-63 37t-42 45l32 8q-25 -48 -59 -72t-71.5 -32t-75.5 -8l10 168q28 0 43.5 10.5t25 34t18.5 63t24 98.5
l162 -40q-7 -29 -12 -49t-7 -33t-2 -22q0 -19 7.5 -33.5t30.5 -23t68 -13t120 -4.5q100 0 162.5 6.5t96.5 18t46.5 27.5t12.5 36q0 18 -8 32t-24 22t-41 8q-27 0 -59 -12.5t-66.5 -36t-68 -54.5t-62.5 -69l-179 26q46 69 100.5 127t113.5 101t120 66.5t120 23.5
q72 0 123 -28.5t78 -78.5t27 -115q0 -82 -44.5 -142.5t-141.5 -93.5t-254 -33zM725 721q-32 0 -53 21.5t-21 50.5q0 31 21 53t53 22q31 0 52.5 -22t21.5 -53q0 -29 -21.5 -50.5t-52.5 -21.5zM640 564q-31 0 -53.5 23t-22.5 53q0 29 22.5 52t53.5 23q29 0 50.5 -23t21.5 -52
q0 -30 -21.5 -53t-50.5 -23zM813 564q-30 0 -50 23t-20 53q0 29 20 52t50 23q31 0 53 -23t22 -52q0 -30 -22 -53t-53 -23z" />
    <glyph glyph-name="uni069E.fina" unicode="&#x69e;" horiz-adv-x="1528" 
d="M1528 -5q-68 0 -119.5 12t-87.5 29.5t-57 34.5l95 122q37 -16 75.5 -23t102.5 -7q49 0 70 -24t21 -58q0 -38 -25 -62t-75 -24zM368 -232q-70 0 -132 15t-110 47t-75 82.5t-27 120.5q0 28 4 58.5t15.5 71.5t35.5 99l156 -54q-14 -39 -21.5 -63.5t-10 -42.5t-2.5 -39
q0 -37 18.5 -65.5t55 -45t91.5 -16.5q48 0 84.5 9t61.5 27t38 45t13 64q0 49 -17.5 115t-39.5 139l178 45q9 -38 16.5 -67.5t13 -49t8.5 -29.5q7 -20 18.5 -35t38 -24.5t77.5 -14t137 -4.5q74 0 125.5 4t85 11.5t52.5 18.5t26.5 24.5t7.5 29.5t-7.5 30t-23 23t-41.5 9
q-32 0 -65.5 -14.5t-67 -39t-65 -55t-59.5 -61.5l-178 26q35 50 75.5 96.5t85.5 86.5t93 70t98.5 46.5t101.5 16.5q71 0 122 -29.5t78.5 -79.5t27.5 -113q0 -61 -25 -111t-77.5 -85t-136 -54t-201.5 -19q-46 0 -100.5 4.5t-106.5 16t-91.5 32t-55.5 51.5l72 -48
q-3 -67 -35.5 -118.5t-86 -86.5t-119 -52.5t-134.5 -17.5zM1202 726q-32 0 -53 21.5t-21 50.5q0 31 21 53t53 22q31 0 52.5 -22t21.5 -53q0 -29 -21.5 -50.5t-52.5 -21.5zM1117 569q-31 0 -53.5 23t-22.5 53q0 29 22.5 52t53.5 23q29 0 50.5 -23t21.5 -52q0 -30 -21.5 -53
t-50.5 -23zM1290 569q-30 0 -50 23t-20 53q0 29 20 52t50 23q31 0 53 -23t22 -52q0 -30 -22 -53t-53 -23z" />
    <glyph glyph-name="uni069F.init" unicode="&#x69f;" horiz-adv-x="790" 
d="M0 -5l10 168h233q99 0 161.5 6.5t96 18t46.5 28t13 37.5q0 17 -7.5 31t-22.5 22.5t-39 8.5q-27 0 -59 -13t-66.5 -36t-69 -54.5t-66.5 -69.5l-182 18q49 73 104.5 133t115 103t120 66.5t119.5 23.5q71 0 122 -29.5t78.5 -80t27.5 -112.5q0 -77 -38.5 -134t-122.5 -91
q-34 -14 -77 -23.5t-94.5 -14.5t-112.5 -5zM108 99l-21 661h173l16 -452zM506 708q-32 0 -53 21.5t-21 50.5q0 31 21 53t53 22q31 0 52.5 -22t21.5 -53q0 -29 -21.5 -50.5t-52.5 -21.5zM421 551q-31 0 -53.5 23t-22.5 53q0 29 22.5 52t53.5 23q29 0 50.5 -23t21.5 -52
q0 -30 -21.5 -53t-50.5 -23zM594 551q-30 0 -50 23t-20 53q0 29 20 52t50 23q31 0 53 -23t22 -52q0 -30 -22 -53t-53 -23z" />
    <glyph glyph-name="uni069F.medi" unicode="&#x69f;" horiz-adv-x="804" 
d="M804 -5q-68 0 -119.5 12t-87.5 29.5t-57 34.5l95 122q37 -16 75.5 -23t102.5 -7q49 0 70 -24t21 -58q0 -38 -25 -62t-75 -24zM0 -5l10 168h233q99 0 161.5 6.5t96 18t46.5 28t13 37.5q0 17 -7.5 31t-22.5 22.5t-39 8.5q-27 0 -59 -13t-66.5 -36t-69 -54.5t-66.5 -69.5
l-182 18q49 73 104.5 133t115 103t120 66.5t119.5 23.5q71 0 122 -29.5t78.5 -80t27.5 -112.5q0 -77 -38.5 -134t-122.5 -91q-34 -14 -77 -23.5t-94.5 -14.5t-112.5 -5zM108 99l-21 661h173l16 -452zM506 708q-32 0 -53 21.5t-21 50.5q0 31 21 53t53 22q31 0 52.5 -22
t21.5 -53q0 -29 -21.5 -50.5t-52.5 -21.5zM421 551q-31 0 -53.5 23t-22.5 53q0 29 22.5 52t53.5 23q29 0 50.5 -23t21.5 -52q0 -30 -21.5 -53t-50.5 -23zM594 551q-30 0 -50 23t-20 53q0 29 20 52t50 23q31 0 53 -23t22 -52q0 -30 -22 -53t-53 -23z" />
    <glyph glyph-name="uni069F.fina" unicode="&#x69f;" horiz-adv-x="908" 
d="M908 -5q-68 0 -119.5 12t-87.5 29.5t-57 34.5l95 122q37 -16 75.5 -23t102.5 -7q49 0 70 -24t21 -58q0 -38 -25 -62t-75 -24zM399 -13q-46 0 -93.5 1t-96 3t-96.5 5.5t-93 9.5l20 166q63 -6 110.5 -9.5t84.5 -5t69 -2t63 -0.5q92 0 150.5 6.5t90.5 18t44 27.5t12 35
t-7.5 33t-22.5 22t-40 8q-32 0 -65.5 -14t-67.5 -38t-65.5 -55t-60.5 -64l-178 22q47 71 100.5 129.5t112.5 101.5t120 66.5t122 23.5q68 0 119 -27.5t79.5 -77.5t28.5 -117q0 -81 -44.5 -141.5t-141.5 -93.5t-254 -33zM213 99l-21 661h173l16 -452zM611 699q-32 0 -53 21.5
t-21 50.5q0 31 21 53t53 22q31 0 52.5 -22t21.5 -53q0 -29 -21.5 -50.5t-52.5 -21.5zM526 542q-31 0 -53.5 23t-22.5 53q0 29 22.5 52t53.5 23q29 0 50.5 -23t21.5 -52q0 -30 -21.5 -53t-50.5 -23zM699 542q-30 0 -50 23t-20 53q0 29 20 52t50 23q31 0 53 -23t22 -52
q0 -30 -22 -53t-53 -23z" />
    <glyph glyph-name="uni06A0.init" unicode="&#x6a0;" horiz-adv-x="600" 
d="M0 -5l10 168q40 0 62 1t35.5 3t27.5 3q-11 11 -25.5 30.5t-24.5 48.5t-10 69q0 65 34.5 113t93.5 75t130 27q37 0 65.5 -4t60.5 -12l-25 -157q-21 6 -43.5 8.5t-37.5 2.5q-30 0 -52.5 -8.5t-34.5 -25t-12 -40.5q0 -15 5 -29t14 -26t21.5 -21.5t27.5 -15.5t31 -7l8 2.5
t26 8.5t47.5 17t72.5 29l48 -147q-94 -42 -182.5 -67t-179.5 -35.5t-193 -10.5zM283 781q-32 0 -53 21.5t-21 50.5q0 31 21 53t53 22q31 0 52.5 -22t21.5 -53q0 -29 -21.5 -50.5t-52.5 -21.5zM198 624q-31 0 -53.5 23t-22.5 53q0 29 22.5 52t53.5 23q29 0 50.5 -23t21.5 -52
q0 -30 -21.5 -53t-50.5 -23zM371 624q-30 0 -50 23t-20 53q0 29 20 52t50 23q31 0 53 -23t22 -52q0 -30 -22 -53t-53 -23z" />
    <glyph glyph-name="uni06A0.medi" unicode="&#x6a0;" horiz-adv-x="577" 
d="M0 -5l10 168q66 0 121 7.5t98 21t72.5 32.5t45 42.5t15.5 49.5q0 13 -6 24t-20.5 18t-41.5 7q-12 0 -29 -3t-34.5 -9t-33.5 -15q28 -27 52 -52t44 -48.5t37 -45.5q19 -8 40.5 -13.5t50.5 -9t69.5 -5t96.5 -1.5q48 0 69 -24t21 -58q0 -38 -25 -62t-75 -24q-70 0 -137 12
t-130.5 38t-121.5 68q-14 23 -35 47.5t-44.5 49t-47.5 47.5q-2 3 -7.5 18t-9.5 32.5t-4 26.5q0 31 21 61.5t58.5 56t89 40.5t111.5 15q74 0 120.5 -19.5t68.5 -54.5t22 -83q0 -57 -28.5 -109.5t-78.5 -97t-117.5 -78t-145.5 -52t-161 -18.5zM322 755q-32 0 -53 21.5
t-21 50.5q0 31 21 53t53 22q31 0 52.5 -22t21.5 -53q0 -29 -21.5 -50.5t-52.5 -21.5zM237 598q-31 0 -53.5 23t-22.5 53q0 29 22.5 52t53.5 23q29 0 50.5 -23t21.5 -52q0 -30 -21.5 -53t-50.5 -23zM410 598q-30 0 -50 23t-20 53q0 29 20 52t50 23q31 0 53 -23t22 -52
q0 -30 -22 -53t-53 -23z" />
    <glyph glyph-name="uni06A0.fina" unicode="&#x6a0;" horiz-adv-x="628" 
d="M368 -394q-78 0 -140 17.5t-106.5 50.5t-68 79.5t-23.5 104.5q0 67 27 116t69 86t90 67t90 58t69 59.5t27 71.5q0 15 -7 26t-20.5 17t-33.5 6t-38 -3t-34.5 -9t-31.5 -15q23 -21 46 -45t45 -49t41 -51q23 -12 55 -18t69 -8.5t74 -3t71 -0.5q48 0 69 -24t21 -58
q0 -38 -25 -62t-75 -24q-70 0 -135.5 4t-126.5 23t-118 64q-27 42 -53 72.5t-49.5 54l-42.5 42.5q-5 5 -10.5 21.5t-9 33.5t-3.5 24q0 29 20 59.5t57 56t90 41.5t119 16q103 0 154 -43t51 -114q0 -64 -26 -112.5t-67 -86t-87 -69.5t-87 -62.5t-67 -63.5t-26 -75
q0 -29 13.5 -49.5t36 -33t51.5 -18.5t59 -6q29 0 60 4.5t66 15t73 26.5l53 -147q-43 -22 -87.5 -37t-86.5 -22.5t-81 -7.5zM357 759q-32 0 -53 21.5t-21 50.5q0 31 21 53t53 22q31 0 52.5 -22t21.5 -53q0 -29 -21.5 -50.5t-52.5 -21.5zM272 602q-31 0 -53.5 23t-22.5 53
q0 29 22.5 52t53.5 23q29 0 50.5 -23t21.5 -52q0 -30 -21.5 -53t-50.5 -23zM445 602q-30 0 -50 23t-20 53q0 29 20 52t50 23q31 0 53 -23t22 -52q0 -30 -22 -53t-53 -23z" />
    <glyph glyph-name="uni06A1.init" unicode="&#x6a1;" horiz-adv-x="550" 
d="M0 -5l10 168h88t75 1t58.5 3.5t38.5 7.5q23 9 35.5 26.5t17.5 44t5 61.5q0 53 -8 86t-21.5 48t-30.5 15q-13 0 -24 -9t-17 -25t-6 -38q0 -14 6.5 -25t18.5 -17t29 -6q16 0 37.5 5t42.5 16l4 -118q-16 -13 -37.5 -23t-45.5 -15t-49 -5q-47 0 -85 18.5t-60 53.5t-22 85
q0 46 15.5 89t44 77.5t68.5 54.5t90 20q66 0 114.5 -36.5t75.5 -103.5t27 -161q0 -90 -27 -152t-84 -95q-30 -18 -69.5 -28t-87.5 -15t-105 -6.5t-122 -1.5z" />
    <glyph glyph-name="uni06A1.medi" unicode="&#x6a1;" horiz-adv-x="549" 
d="M0 -5l10 168q17 0 46.5 2t63 5.5t64 8.5t49.5 11q33 11 53.5 26.5t30 33.5t9.5 38q0 16 -6.5 30t-17.5 22.5t-23 8.5t-24 -8.5t-20 -23.5t-8 -36q0 -13 6 -28t20.5 -30.5t40.5 -33.5l-151 -64q-26 27 -44.5 53t-28 54.5t-9.5 62.5q0 44 19.5 81.5t51.5 65.5t71 43.5
t79 15.5q59 0 106.5 -28.5t75.5 -73.5t28 -96q0 -52 -18.5 -92.5t-48.5 -71t-66 -53.5t-71 -41q-27 -14 -67.5 -23.5t-84 -15.5t-80 -8.5t-56.5 -2.5zM549 -5q-63 0 -122.5 7t-108.5 19.5t-80 30.5l69 136q30 -12 70.5 -17.5t87 -6.5t94.5 -1t69 -24t21 -58q0 -38 -25 -62
t-75 -24z" />
    <glyph glyph-name="uni06A1.fina" unicode="&#x6a1;" horiz-adv-x="1125" 
d="M454 -21l26 168q46 0 95.5 4t95.5 11t82.5 14.5t55.5 13.5q33 11 53.5 25.5t30 32t9.5 36.5q0 11 -3.5 22.5t-9.5 21t-14.5 15.5t-19.5 6q-13 0 -25 -9.5t-19.5 -25t-7.5 -34.5q0 -14 6 -28.5t20.5 -29.5t40.5 -33l-151 -64q-26 27 -44.5 53t-28 54.5t-9.5 62.5
q0 41 18 78t49 66t70.5 45.5t83.5 16.5q62 0 109 -29.5t74 -75t27 -93.5q0 -52 -18.5 -92.5t-48.5 -71t-66 -53.5t-71 -41q-27 -14 -76 -26t-108 -21t-118.5 -14t-107.5 -5zM1125 -5q-63 0 -122.5 7t-108.5 19.5t-80 30.5l69 136q30 -10 70.5 -15.5t87 -7.5t94.5 -2t69 -24
t21 -58q0 -38 -25 -62t-75 -24zM454 -21q-126 0 -208 20t-128 54t-65 77t-19 89q0 40 6.5 77.5t16 70.5t17.5 58l147 -35q-5 -20 -9.5 -41t-7.5 -41.5t-3 -39.5q0 -36 25.5 -63t86.5 -42.5t167 -15.5l20 -136z" />
    <glyph glyph-name="fehDotMovedbelowar.init" unicode="&#x6a2;" horiz-adv-x="550" 
d="M0 -5l10 168h88t75 1t58.5 3.5t38.5 7.5q23 9 35.5 26.5t17.5 44t5 61.5q0 53 -8 86t-21.5 48t-30.5 15q-13 0 -24 -9t-17 -25t-6 -38q0 -14 6.5 -25t18.5 -17t29 -6q16 0 37.5 5t42.5 16l4 -118q-16 -13 -37.5 -23t-45.5 -15t-49 -5q-47 0 -85 18.5t-60 53.5t-22 85
q0 46 15.5 89t44 77.5t68.5 54.5t90 20q66 0 114.5 -36.5t75.5 -103.5t27 -161q0 -90 -27 -152t-84 -95q-30 -18 -69.5 -28t-87.5 -15t-105 -6.5t-122 -1.5zM230 -273q-34 0 -58 23.5t-24 57.5q0 35 24 59.5t58 24.5q35 0 58 -24.5t23 -59.5q0 -34 -23 -57.5t-58 -23.5z" />
    <glyph glyph-name="fehDotMovedbelowar.medi" unicode="&#x6a2;" horiz-adv-x="549" 
d="M0 -5l10 168q17 0 46.5 2t63 5.5t64 8.5t49.5 11q33 11 53.5 26.5t30 33.5t9.5 38q0 16 -6.5 30t-17.5 22.5t-23 8.5t-24 -8.5t-20 -23.5t-8 -36q0 -13 6 -28t20.5 -30.5t40.5 -33.5l-151 -64q-26 27 -44.5 53t-28 54.5t-9.5 62.5q0 44 19.5 81.5t51.5 65.5t71 43.5
t79 15.5q59 0 106.5 -28.5t75.5 -73.5t28 -96q0 -52 -18.5 -92.5t-48.5 -71t-66 -53.5t-71 -41q-27 -14 -67.5 -23.5t-84 -15.5t-80 -8.5t-56.5 -2.5zM549 -5q-63 0 -122.5 7t-108.5 19.5t-80 30.5l69 136q30 -12 70.5 -17.5t87 -6.5t94.5 -1t69 -24t21 -58q0 -38 -25 -62
t-75 -24zM273 -272q-34 0 -58 23.5t-24 57.5q0 35 24 59.5t58 24.5q35 0 58 -24.5t23 -59.5q0 -34 -23 -57.5t-58 -23.5z" />
    <glyph glyph-name="fehDotMovedbelowar.fina" unicode="&#x6a2;" horiz-adv-x="1125" 
d="M454 -21l26 168q46 0 95.5 4t95.5 11t82.5 14.5t55.5 13.5q33 11 53.5 25.5t30 32t9.5 36.5q0 11 -3.5 22.5t-9.5 21t-14.5 15.5t-19.5 6q-13 0 -25 -9.5t-19.5 -25t-7.5 -34.5q0 -14 6 -28.5t20.5 -29.5t40.5 -33l-151 -64q-26 27 -44.5 53t-28 54.5t-9.5 62.5
q0 41 18 78t49 66t70.5 45.5t83.5 16.5q62 0 109 -29.5t74 -75t27 -93.5q0 -52 -18.5 -92.5t-48.5 -71t-66 -53.5t-71 -41q-27 -14 -76 -26t-108 -21t-118.5 -14t-107.5 -5zM1125 -5q-63 0 -122.5 7t-108.5 19.5t-80 30.5l69 136q30 -10 70.5 -15.5t87 -7.5t94.5 -2t69 -24
t21 -58q0 -38 -25 -62t-75 -24zM454 -21q-126 0 -208 20t-128 54t-65 77t-19 89q0 40 6.5 77.5t16 70.5t17.5 58l147 -35q-5 -20 -9.5 -41t-7.5 -41.5t-3 -39.5q0 -36 25.5 -63t86.5 -42.5t167 -15.5l20 -136zM477 -273q-34 0 -58 23.5t-24 57.5q0 35 24 59.5t58 24.5
q35 0 58 -24.5t23 -59.5q0 -34 -23 -57.5t-58 -23.5z" />
    <glyph glyph-name="uni06A3.init" unicode="&#x6a3;" horiz-adv-x="550" 
d="M0 -5l10 168h88t75 1t58.5 3.5t38.5 7.5q23 9 35.5 26.5t17.5 44t5 61.5q0 53 -8 86t-21.5 48t-30.5 15q-13 0 -24 -9t-17 -25t-6 -38q0 -14 6.5 -25t18.5 -17t29 -6q16 0 37.5 5t42.5 16l4 -118q-16 -13 -37.5 -23t-45.5 -15t-49 -5q-47 0 -85 18.5t-60 53.5t-22 85
q0 46 15.5 89t44 77.5t68.5 54.5t90 20q66 0 114.5 -36.5t75.5 -103.5t27 -161q0 -90 -27 -152t-84 -95q-30 -18 -69.5 -28t-87.5 -15t-105 -6.5t-122 -1.5zM269 685q-34 0 -58 24t-24 58q0 35 24 60t58 25t57.5 -25t23.5 -60q0 -34 -23.5 -58t-57.5 -24zM230 -273
q-34 0 -58 23.5t-24 57.5q0 35 24 59.5t58 24.5q35 0 58 -24.5t23 -59.5q0 -34 -23 -57.5t-58 -23.5z" />
    <glyph glyph-name="uni06A3.medi" unicode="&#x6a3;" horiz-adv-x="549" 
d="M0 -5l10 168q17 0 46.5 2t63 5.5t64 8.5t49.5 11q33 11 53.5 26.5t30 33.5t9.5 38q0 16 -6.5 30t-17.5 22.5t-23 8.5t-24 -8.5t-20 -23.5t-8 -36q0 -13 6 -28t20.5 -30.5t40.5 -33.5l-151 -64q-26 27 -44.5 53t-28 54.5t-9.5 62.5q0 44 19.5 81.5t51.5 65.5t71 43.5
t79 15.5q59 0 106.5 -28.5t75.5 -73.5t28 -96q0 -52 -18.5 -92.5t-48.5 -71t-66 -53.5t-71 -41q-27 -14 -67.5 -23.5t-84 -15.5t-80 -8.5t-56.5 -2.5zM549 -5q-63 0 -122.5 7t-108.5 19.5t-80 30.5l69 136q30 -12 70.5 -17.5t87 -6.5t94.5 -1t69 -24t21 -58q0 -38 -25 -62
t-75 -24zM283 592q-34 0 -58 24t-24 58q0 35 24 60t58 25t57.5 -25t23.5 -60q0 -34 -23.5 -58t-57.5 -24zM273 -272q-34 0 -58 23.5t-24 57.5q0 35 24 59.5t58 24.5q35 0 58 -24.5t23 -59.5q0 -34 -23 -57.5t-58 -23.5z" />
    <glyph glyph-name="uni06A3.fina" unicode="&#x6a3;" horiz-adv-x="1125" 
d="M454 -21l26 168q46 0 95.5 4t95.5 11t82.5 14.5t55.5 13.5q33 11 53.5 25.5t30 32t9.5 36.5q0 11 -3.5 22.5t-9.5 21t-14.5 15.5t-19.5 6q-13 0 -25 -9.5t-19.5 -25t-7.5 -34.5q0 -14 6 -28.5t20.5 -29.5t40.5 -33l-151 -64q-26 27 -44.5 53t-28 54.5t-9.5 62.5
q0 41 18 78t49 66t70.5 45.5t83.5 16.5q62 0 109 -29.5t74 -75t27 -93.5q0 -52 -18.5 -92.5t-48.5 -71t-66 -53.5t-71 -41q-27 -14 -76 -26t-108 -21t-118.5 -14t-107.5 -5zM1125 -5q-63 0 -122.5 7t-108.5 19.5t-80 30.5l69 136q30 -10 70.5 -15.5t87 -7.5t94.5 -2t69 -24
t21 -58q0 -38 -25 -62t-75 -24zM454 -21q-126 0 -208 20t-128 54t-65 77t-19 89q0 40 6.5 77.5t16 70.5t17.5 58l147 -35q-5 -20 -9.5 -41t-7.5 -41.5t-3 -39.5q0 -36 25.5 -63t86.5 -42.5t167 -15.5l20 -136zM859 592q-34 0 -58 24t-24 58q0 35 24 60t58 25t57.5 -25
t23.5 -60q0 -34 -23.5 -58t-57.5 -24zM477 -273q-34 0 -58 23.5t-24 57.5q0 35 24 59.5t58 24.5q35 0 58 -24.5t23 -59.5q0 -34 -23 -57.5t-58 -23.5z" />
    <glyph glyph-name="uni06A5.init" unicode="&#x6a5;" horiz-adv-x="550" 
d="M0 -5l10 168h88t75 1t58.5 3.5t38.5 7.5q23 9 35.5 26.5t17.5 44t5 61.5q0 53 -8 86t-21.5 48t-30.5 15q-13 0 -24 -9t-17 -25t-6 -38q0 -14 6.5 -25t18.5 -17t29 -6q16 0 37.5 5t42.5 16l4 -118q-16 -13 -37.5 -23t-45.5 -15t-49 -5q-47 0 -85 18.5t-60 53.5t-22 85
q0 46 15.5 89t44 77.5t68.5 54.5t90 20q66 0 114.5 -36.5t75.5 -103.5t27 -161q0 -90 -27 -152t-84 -95q-30 -18 -69.5 -28t-87.5 -15t-105 -6.5t-122 -1.5zM230 -415q-31 0 -52 21t-21 52q0 30 21 52.5t52 22.5q30 0 51 -22.5t21 -52.5q0 -31 -21 -52t-51 -21zM138 -259
q-31 0 -52 21t-21 52q0 30 21 52.5t52 22.5t52 -22.5t21 -52.5q0 -31 -21 -52t-52 -21zM326 -259q-31 0 -52 21t-21 52q0 30 21 52.5t52 22.5q32 0 52.5 -22.5t20.5 -52.5q0 -31 -20.5 -52t-52.5 -21z" />
    <glyph glyph-name="uni06A5.medi" unicode="&#x6a5;" horiz-adv-x="549" 
d="M0 -5l10 168q17 0 46.5 2t63 5.5t64 8.5t49.5 11q33 11 53.5 26.5t30 33.5t9.5 38q0 16 -6.5 30t-17.5 22.5t-23 8.5t-24 -8.5t-20 -23.5t-8 -36q0 -13 6 -28t20.5 -30.5t40.5 -33.5l-151 -64q-26 27 -44.5 53t-28 54.5t-9.5 62.5q0 44 19.5 81.5t51.5 65.5t71 43.5
t79 15.5q59 0 106.5 -28.5t75.5 -73.5t28 -96q0 -52 -18.5 -92.5t-48.5 -71t-66 -53.5t-71 -41q-27 -14 -67.5 -23.5t-84 -15.5t-80 -8.5t-56.5 -2.5zM549 -5q-63 0 -122.5 7t-108.5 19.5t-80 30.5l69 136q30 -12 70.5 -17.5t87 -6.5t94.5 -1t69 -24t21 -58q0 -38 -25 -62
t-75 -24zM273 -414q-31 0 -52 21t-21 52q0 30 21 52.5t52 22.5q30 0 51 -22.5t21 -52.5q0 -31 -21 -52t-51 -21zM181 -258q-31 0 -52 21t-21 52q0 30 21 52.5t52 22.5t52 -22.5t21 -52.5q0 -31 -21 -52t-52 -21zM369 -258q-31 0 -52 21t-21 52q0 30 21 52.5t52 22.5
q32 0 52.5 -22.5t20.5 -52.5q0 -31 -20.5 -52t-52.5 -21z" />
    <glyph glyph-name="uni06A5.fina" unicode="&#x6a5;" horiz-adv-x="1125" 
d="M454 -21l26 168q46 0 95.5 4t95.5 11t82.5 14.5t55.5 13.5q33 11 53.5 25.5t30 32t9.5 36.5q0 11 -3.5 22.5t-9.5 21t-14.5 15.5t-19.5 6q-13 0 -25 -9.5t-19.5 -25t-7.5 -34.5q0 -14 6 -28.5t20.5 -29.5t40.5 -33l-151 -64q-26 27 -44.5 53t-28 54.5t-9.5 62.5
q0 41 18 78t49 66t70.5 45.5t83.5 16.5q62 0 109 -29.5t74 -75t27 -93.5q0 -52 -18.5 -92.5t-48.5 -71t-66 -53.5t-71 -41q-27 -14 -76 -26t-108 -21t-118.5 -14t-107.5 -5zM1125 -5q-63 0 -122.5 7t-108.5 19.5t-80 30.5l69 136q30 -10 70.5 -15.5t87 -7.5t94.5 -2t69 -24
t21 -58q0 -38 -25 -62t-75 -24zM454 -21q-126 0 -208 20t-128 54t-65 77t-19 89q0 40 6.5 77.5t16 70.5t17.5 58l147 -35q-5 -20 -9.5 -41t-7.5 -41.5t-3 -39.5q0 -36 25.5 -63t86.5 -42.5t167 -15.5l20 -136zM477 -415q-31 0 -52 21t-21 52q0 30 21 52.5t52 22.5
q30 0 51 -22.5t21 -52.5q0 -31 -21 -52t-51 -21zM385 -259q-31 0 -52 21t-21 52q0 30 21 52.5t52 22.5t52 -22.5t21 -52.5q0 -31 -21 -52t-52 -21zM573 -259q-31 0 -52 21t-21 52q0 30 21 52.5t52 22.5q32 0 52.5 -22.5t20.5 -52.5q0 -31 -20.5 -52t-52.5 -21z" />
    <glyph glyph-name="uni06A7.fina" unicode="&#x6a7;" horiz-adv-x="865" 
d="M364 -272q-71 0 -133 15t-108.5 47.5t-72.5 83t-26 120.5q0 28 4 58.5t16 71.5t36 100l155 -55q-14 -39 -21.5 -63.5t-10 -42.5t-2.5 -38q0 -37 20.5 -66.5t62.5 -46t106 -16.5q43 0 78.5 6.5t64 17.5t50.5 26t36 32.5t21 36.5q9 23 12 52.5t3 74.5q0 48 -4.5 77
t-14.5 42t-28 13q-12 0 -21.5 -6t-16 -15t-10 -20t-3.5 -20q0 -18 7 -31t28 -20t62 -7t110 8h111q48 0 69 -24t21 -58q0 -38 -25 -62t-75 -24h-178q-57 0 -110.5 8t-95.5 28t-67 55t-25 90q0 47 17 89.5t48.5 75.5t74 52t92.5 19q69 0 114 -37.5t67 -102.5t22 -148
q0 -58 -16 -110.5t-37 -90.5q-25 -46 -63.5 -82t-89.5 -61.5t-115 -38.5t-139 -13zM622 503q-34 0 -58 24t-24 58q0 35 24 60t58 25t57.5 -25t23.5 -60q0 -34 -23.5 -58t-57.5 -24z" />
    <glyph glyph-name="uni06A8.init" unicode="&#x6a8;" horiz-adv-x="550" 
d="M0 -5l10 168h88t75 1t58.5 3.5t38.5 7.5q23 9 35.5 26.5t17.5 44t5 61.5q0 53 -8 86t-21.5 48t-30.5 15q-13 0 -24 -9t-17 -25t-6 -38q0 -14 6.5 -25t18.5 -17t29 -6q16 0 37.5 5t42.5 16l4 -118q-16 -13 -37.5 -23t-45.5 -15t-49 -5q-47 0 -85 18.5t-60 53.5t-22 85
q0 46 15.5 89t44 77.5t68.5 54.5t90 20q66 0 114.5 -36.5t75.5 -103.5t27 -161q0 -90 -27 -152t-84 -95q-30 -18 -69.5 -28t-87.5 -15t-105 -6.5t-122 -1.5zM271 842q-32 0 -53 21.5t-21 50.5q0 31 21 53t53 22q31 0 52.5 -22t21.5 -53q0 -29 -21.5 -50.5t-52.5 -21.5z
M186 685q-31 0 -53.5 23t-22.5 53q0 29 22.5 52t53.5 23q29 0 50.5 -23t21.5 -52q0 -30 -21.5 -53t-50.5 -23zM359 685q-30 0 -50 23t-20 53q0 29 20 52t50 23q31 0 53 -23t22 -52q0 -30 -22 -53t-53 -23z" />
    <glyph glyph-name="uni06A8.medi" unicode="&#x6a8;" horiz-adv-x="549" 
d="M0 -5l10 168q17 0 46.5 2t63 5.5t64 8.5t49.5 11q33 11 53.5 26.5t30 33.5t9.5 38q0 16 -6.5 30t-17.5 22.5t-23 8.5t-24 -8.5t-20 -23.5t-8 -36q0 -13 6 -28t20.5 -30.5t40.5 -33.5l-151 -64q-26 27 -44.5 53t-28 54.5t-9.5 62.5q0 44 19.5 81.5t51.5 65.5t71 43.5
t79 15.5q59 0 106.5 -28.5t75.5 -73.5t28 -96q0 -52 -18.5 -92.5t-48.5 -71t-66 -53.5t-71 -41q-27 -14 -67.5 -23.5t-84 -15.5t-80 -8.5t-56.5 -2.5zM549 -5q-63 0 -122.5 7t-108.5 19.5t-80 30.5l69 136q30 -12 70.5 -17.5t87 -6.5t94.5 -1t69 -24t21 -58q0 -38 -25 -62
t-75 -24zM285 749q-32 0 -53 21.5t-21 50.5q0 31 21 53t53 22q31 0 52.5 -22t21.5 -53q0 -29 -21.5 -50.5t-52.5 -21.5zM200 592q-31 0 -53.5 23t-22.5 53q0 29 22.5 52t53.5 23q29 0 50.5 -23t21.5 -52q0 -30 -21.5 -53t-50.5 -23zM373 592q-30 0 -50 23t-20 53q0 29 20 52
t50 23q31 0 53 -23t22 -52q0 -30 -22 -53t-53 -23z" />
    <glyph glyph-name="uni06A8.fina" unicode="&#x6a8;" horiz-adv-x="865" 
d="M364 -272q-71 0 -133 15t-108.5 47.5t-72.5 83t-26 120.5q0 28 4 58.5t16 71.5t36 100l155 -55q-14 -39 -21.5 -63.5t-10 -42.5t-2.5 -38q0 -37 20.5 -66.5t62.5 -46t106 -16.5q43 0 78.5 6.5t64 17.5t50.5 26t36 32.5t21 36.5q9 23 12 52.5t3 74.5q0 48 -4.5 77
t-14.5 42t-28 13q-12 0 -21.5 -6t-16 -15t-10 -20t-3.5 -20q0 -18 7 -31t28 -20t62 -7t110 8h111q48 0 69 -24t21 -58q0 -38 -25 -62t-75 -24h-178q-57 0 -110.5 8t-95.5 28t-67 55t-25 90q0 47 17 89.5t48.5 75.5t74 52t92.5 19q69 0 114 -37.5t67 -102.5t22 -148
q0 -58 -16 -110.5t-37 -90.5q-25 -46 -63.5 -82t-89.5 -61.5t-115 -38.5t-139 -13zM624 660q-32 0 -53 21.5t-21 50.5q0 31 21 53t53 22q31 0 52.5 -22t21.5 -53q0 -29 -21.5 -50.5t-52.5 -21.5zM539 503q-31 0 -53.5 23t-22.5 53q0 29 22.5 52t53.5 23q29 0 50.5 -23
t21.5 -52q0 -30 -21.5 -53t-50.5 -23zM712 503q-30 0 -50 23t-20 53q0 29 20 52t50 23q31 0 53 -23t22 -52q0 -30 -22 -53t-53 -23z" />
    <glyph glyph-name="uni06AA.init" unicode="&#x6aa;" horiz-adv-x="845" 
d="M0 -5l10 168h327h158t94.5 1.5t46.5 6.5t13 16q0 8 -9 14t-32.5 11t-67.5 10.5t-114 14.5q-118 15 -187.5 33t-99.5 48t-30 79q0 57 34 100t93.5 75t137 54.5t164.5 38.5l34 -146q-88 -14 -153.5 -30.5t-101 -32.5t-35.5 -30q0 -8 17 -14t58 -12t111 -14
q94 -11 158.5 -26.5t104 -39.5t57 -59t17.5 -86q0 -53 -23.5 -87.5t-77.5 -54.5t-144 -28.5t-223 -8.5z" />
    <glyph glyph-name="uni06AA.medi" unicode="&#x6aa;" horiz-adv-x="961" 
d="M961 -5q-68 0 -119.5 12t-87.5 29.5t-57 34.5l95 122q37 -16 75.5 -23t102.5 -7q49 0 70 -24t21 -58q0 -38 -25 -62t-75 -24zM0 -5l10 168h327h158t94.5 1.5t46.5 6.5t13 16q0 8 -9 14t-32.5 11t-67.5 10.5t-114 14.5q-118 15 -187.5 33t-99.5 48t-30 79q0 57 34 100
t93.5 75t137 54.5t164.5 38.5l34 -146q-88 -14 -153.5 -30.5t-101 -32.5t-35.5 -30q0 -8 17 -14t58 -12t111 -14q94 -11 158.5 -26.5t104 -39.5t57 -59t17.5 -86q0 -53 -23.5 -87.5t-77.5 -54.5t-144 -28.5t-223 -8.5z" />
    <glyph glyph-name="uni06AA.fina" unicode="&#x6aa;" horiz-adv-x="1161" 
d="M1161 -5q-68 0 -119.5 12t-87.5 29.5t-57 34.5l95 122q37 -16 75.5 -23t102.5 -7q49 0 70 -24t21 -58q0 -38 -25 -62t-75 -24zM536 -15q-48 0 -112.5 1t-134 3t-133.5 6t-111 9l6 160q50 -3 108 -6t121 -5.5t128 -4t128 -1.5q97 0 158 1t94.5 4.5t46.5 11t13 19.5
q0 10 -9 16.5t-32.5 11.5t-67.5 11t-114 15q-118 15 -187.5 33t-99.5 48t-30 79q0 57 34 100t93.5 75t137 54.5t164.5 38.5l34 -146q-88 -14 -153.5 -30.5t-101 -32.5t-35.5 -30q0 -8 17 -14t58 -12t111 -14q94 -11 158.5 -26.5t104 -39.5t57 -59t17.5 -86
q0 -53 -23.5 -89.5t-77.5 -58.5t-144 -32t-223 -10z" />
    <glyph glyph-name="uni06AB.init" unicode="&#x6ab;" horiz-adv-x="493" 
d="M378 409q-44 0 -75 31.5t-31 75.5t31 75.5t75 31.5q45 0 76 -31.5t31 -75.5t-31 -75.5t-76 -31.5zM378 484q14 0 24 9t10 23q0 15 -10 24t-24 9q-13 0 -23.5 -9.5t-10.5 -23.5t10.5 -23t23.5 -9zM0 -5l10 168h154q15 0 25 2t16.5 7t9 13t2.5 19q0 26 -24.5 56.5
t-56.5 59.5q-20 18 -40 35.5t-37 33t-27 28t-10 21.5q0 15 2.5 37t7 42t11.5 27q17 19 59.5 46t98 56t115 56.5t111.5 47.5l66 -148q-61 -25 -113 -48t-94 -44t-74 -40.5t-54 -37.5l-10 92q60 -42 107 -87t80 -90t50 -87t17 -79q0 -36 -15.5 -69.5t-48.5 -59.5t-84.5 -41.5
t-122.5 -15.5h-131z" />
    <glyph glyph-name="uni06AB.medi" unicode="&#x6ab;" horiz-adv-x="532" 
d="M382 409q-44 0 -75 31.5t-31 75.5t31 75.5t75 31.5q45 0 76 -31.5t31 -75.5t-31 -75.5t-76 -31.5zM382 484q14 0 24 9t10 23q0 15 -10 24t-24 9q-13 0 -23.5 -9.5t-10.5 -23.5t10.5 -23t23.5 -9zM0 -5l10 168h141q20 0 34.5 2.5t23 11.5t8.5 27q0 17 -14 38.5t-36 44.5
t-47 46.5t-47 44.5t-36 38t-14 27q0 25 2.5 45.5t7 34.5t11.5 21q17 19 53 42.5t86 50t112 55t132 58.5l66 -148q-75 -32 -128 -56t-90.5 -43t-65 -36t-50.5 -35l-7 88q27 -22 59.5 -51.5t65 -64t61.5 -75t51 -85.5q17 -35 35.5 -52.5t46 -23t71.5 -5.5q48 0 69 -24t21 -58
q0 -38 -25 -62t-75 -24q-64 0 -109.5 12t-73 38.5t-37.5 71.5h59q-15 -29 -37 -52t-51.5 -38.5t-67.5 -23.5t-84 -8h-131z" />
    <glyph glyph-name="uni06AB.fina" unicode="&#x6ab;" horiz-adv-x="1020" 
d="M870 411q-44 0 -75 31.5t-31 75.5t31 75.5t75 31.5q45 0 76 -31.5t31 -75.5t-31 -75.5t-76 -31.5zM870 486q14 0 24 9t10 23q0 15 -10 24t-24 9q-13 0 -23.5 -9.5t-10.5 -23.5t10.5 -23t23.5 -9zM454 -21l26 168q53 0 94.5 1t70.5 6t44.5 17t15.5 33q0 17 -14 38
t-36.5 44.5t-47 47t-47 44.5t-36.5 37.5t-14 26.5q0 26 2.5 46.5t7 35t11.5 21.5q24 26 75.5 56.5t128.5 67.5t179 81l66 -148q-51 -22 -113 -49t-120.5 -57t-99.5 -64l-7 88q29 -25 59 -52t61 -59.5t60.5 -73t56.5 -92.5q14 -27 27.5 -43.5t30.5 -24t40 -10t57 -2.5
q47 0 67.5 -24t20.5 -58q0 -38 -24.5 -62t-73.5 -24q-54 0 -100.5 9t-78.5 35.5t-43 77.5h59q-25 -49 -66.5 -77t-95 -41t-115.5 -16.5t-128 -3.5zM454 -21q-126 0 -208 20t-128 54t-65 77t-19 89q0 40 6.5 77.5t16 70.5t17.5 58l147 -35q-5 -20 -9.5 -41t-7.5 -41.5
t-3 -39.5q0 -36 25.5 -63t86.5 -42.5t167 -15.5l20 -136z" />
    <glyph glyph-name="uni06AC.init" unicode="&#x6ac;" horiz-adv-x="493" 
d="M0 -5l10 168h154q15 0 25 2t16.5 7t9 13t2.5 19q0 26 -24.5 56.5t-56.5 59.5q-20 18 -40 35.5t-37 33t-27 28t-10 21.5q0 15 2.5 37t7 42t11.5 27q17 19 59.5 46t98 56t115 56.5t111.5 47.5l66 -148q-61 -25 -113 -48t-94 -44t-74 -40.5t-54 -37.5l-10 92q60 -42 107 -87
t80 -90t50 -87t17 -79q0 -36 -15.5 -69.5t-48.5 -59.5t-84.5 -41.5t-122.5 -15.5h-131zM186 728q-34 0 -58 24t-24 58q0 35 24 60t58 25t57.5 -25t23.5 -60q0 -34 -23.5 -58t-57.5 -24z" />
    <glyph glyph-name="uni06AC.medi" unicode="&#x6ac;" horiz-adv-x="532" 
d="M0 -5l10 168h141q20 0 34.5 2.5t23 11.5t8.5 27q0 17 -14 38.5t-36 44.5t-47 46.5t-47 44.5t-36 38t-14 27q0 25 2.5 45.5t7 34.5t11.5 21q17 19 53 42.5t86 50t112 55t132 58.5l66 -148q-75 -32 -128 -56t-90.5 -43t-65 -36t-50.5 -35l-7 88q27 -22 59.5 -51.5t65 -64
t61.5 -75t51 -85.5q17 -35 35.5 -52.5t46 -23t71.5 -5.5q48 0 69 -24t21 -58q0 -38 -25 -62t-75 -24q-64 0 -109.5 12t-73 38.5t-37.5 71.5h59q-15 -29 -37 -52t-51.5 -38.5t-67.5 -23.5t-84 -8h-131zM244 723q-34 0 -58 24t-24 58q0 35 24 60t58 25t57.5 -25t23.5 -60
q0 -34 -23.5 -58t-57.5 -24z" />
    <glyph glyph-name="uni06AC.fina" unicode="&#x6ac;" horiz-adv-x="1002" 
d="M454 -21l26 168q79 0 130.5 6.5t80.5 26.5t40 60.5t9 108.5l-14 411h172l13 -428q2 -70 11 -106.5t30 -49.5t60 -13q48 0 69 -24t21 -58q0 -38 -25 -62t-75 -24q-39 0 -76.5 13t-65 44t-37.5 85h60q-25 -55 -72.5 -87.5t-107 -48t-124.5 -19.5t-125 -3zM384 224l-30 121
q38 7 62 14t35.5 14.5t11.5 15.5q0 7 -9.5 17.5t-22 24t-22 30.5t-9.5 38q0 30 16.5 55t50.5 46t87 40l51 -109q-39 -14 -57.5 -27t-18.5 -24q0 -9 10 -21.5t22.5 -27.5t22.5 -32.5t10 -37.5q0 -18 -6.5 -36.5t-27.5 -36.5t-63 -34t-113 -30zM454 -21q-126 0 -208 20
t-128 54t-65 77t-19 89q0 40 6.5 77.5t16 70.5t17.5 58l147 -35q-5 -20 -9.5 -41t-7.5 -41.5t-3 -39.5q0 -36 25.5 -63t86.5 -42.5t167 -15.5l20 -136zM468 663q-34 0 -58 24t-24 58q0 35 24 60t58 25t57.5 -25t23.5 -60q0 -34 -23.5 -58t-57.5 -24z" />
    <glyph glyph-name="uni06AE.init" unicode="&#x6ae;" horiz-adv-x="493" 
d="M0 -5l10 168h154q15 0 25 2t16.5 7t9 13t2.5 19q0 26 -24.5 56.5t-56.5 59.5q-20 18 -40 35.5t-37 33t-27 28t-10 21.5q0 15 2.5 37t7 42t11.5 27q17 19 59.5 46t98 56t115 56.5t111.5 47.5l66 -148q-61 -25 -113 -48t-94 -44t-74 -40.5t-54 -37.5l-10 92q60 -42 107 -87
t80 -90t50 -87t17 -79q0 -36 -15.5 -69.5t-48.5 -59.5t-84.5 -41.5t-122.5 -15.5h-131zM216 -390q-31 0 -52 21t-21 52q0 30 21 52.5t52 22.5q30 0 51 -22.5t21 -52.5q0 -31 -21 -52t-51 -21zM124 -234q-31 0 -52 21t-21 52q0 30 21 52.5t52 22.5t52 -22.5t21 -52.5
q0 -31 -21 -52t-52 -21zM312 -234q-31 0 -52 21t-21 52q0 30 21 52.5t52 22.5q32 0 52.5 -22.5t20.5 -52.5q0 -31 -20.5 -52t-52.5 -21z" />
    <glyph glyph-name="uni06AE.medi" unicode="&#x6ae;" horiz-adv-x="532" 
d="M0 -5l10 168h141q20 0 34.5 2.5t23 11.5t8.5 27q0 17 -14 38.5t-36 44.5t-47 46.5t-47 44.5t-36 38t-14 27q0 25 2.5 45.5t7 34.5t11.5 21q17 19 53 42.5t86 50t112 55t132 58.5l66 -148q-75 -32 -128 -56t-90.5 -43t-65 -36t-50.5 -35l-7 88q27 -22 59.5 -51.5t65 -64
t61.5 -75t51 -85.5q17 -35 35.5 -52.5t46 -23t71.5 -5.5q48 0 69 -24t21 -58q0 -38 -25 -62t-75 -24q-64 0 -109.5 12t-73 38.5t-37.5 71.5h59q-15 -29 -37 -52t-51.5 -38.5t-67.5 -23.5t-84 -8h-131zM216 -390q-31 0 -52 21t-21 52q0 30 21 52.5t52 22.5q30 0 51 -22.5
t21 -52.5q0 -31 -21 -52t-51 -21zM124 -234q-31 0 -52 21t-21 52q0 30 21 52.5t52 22.5t52 -22.5t21 -52.5q0 -31 -21 -52t-52 -21zM312 -234q-31 0 -52 21t-21 52q0 30 21 52.5t52 22.5q32 0 52.5 -22.5t20.5 -52.5q0 -31 -20.5 -52t-52.5 -21z" />
    <glyph glyph-name="uni06AE.fina" unicode="&#x6ae;" horiz-adv-x="1002" 
d="M454 -21l26 168q79 0 130.5 6.5t80.5 26.5t40 60.5t9 108.5l-14 411h172l13 -428q2 -70 11 -106.5t30 -49.5t60 -13q48 0 69 -24t21 -58q0 -38 -25 -62t-75 -24q-39 0 -76.5 13t-65 44t-37.5 85h60q-25 -55 -72.5 -87.5t-107 -48t-124.5 -19.5t-125 -3zM384 224l-30 121
q38 7 62 14t35.5 14.5t11.5 15.5q0 7 -9.5 17.5t-22 24t-22 30.5t-9.5 38q0 30 16.5 55t50.5 46t87 40l51 -109q-39 -14 -57.5 -27t-18.5 -24q0 -9 10 -21.5t22.5 -27.5t22.5 -32.5t10 -37.5q0 -18 -6.5 -36.5t-27.5 -36.5t-63 -34t-113 -30zM454 -21q-126 0 -208 20
t-128 54t-65 77t-19 89q0 40 6.5 77.5t16 70.5t17.5 58l147 -35q-5 -20 -9.5 -41t-7.5 -41.5t-3 -39.5q0 -36 25.5 -63t86.5 -42.5t167 -15.5l20 -136zM437 -411q-31 0 -52 21t-21 52q0 30 21 52.5t52 22.5q30 0 51 -22.5t21 -52.5q0 -31 -21 -52t-51 -21zM345 -255
q-31 0 -52 21t-21 52q0 30 21 52.5t52 22.5t52 -22.5t21 -52.5q0 -31 -21 -52t-52 -21zM533 -255q-31 0 -52 21t-21 52q0 30 21 52.5t52 22.5q32 0 52.5 -22.5t20.5 -52.5q0 -31 -20.5 -52t-52.5 -21z" />
    <glyph glyph-name="uni06B0.init" unicode="&#x6b0;" horiz-adv-x="485" 
d="M382 409q-44 0 -75 31.5t-31 75.5t31 75.5t75 31.5q45 0 76 -31.5t31 -75.5t-31 -75.5t-76 -31.5zM382 484q14 0 24 9t10 23q0 15 -10 24t-24 9q-13 0 -23.5 -9.5t-10.5 -23.5t10.5 -23t23.5 -9zM11 624l-60 115q37 22 92 50.5t128.5 64t163.5 78.5l52 -127
q-92 -43 -161.5 -75.5t-122 -58t-92.5 -47.5zM0 -5l10 168h154q15 0 25 2t16.5 7t9 13t2.5 19q0 26 -24.5 56.5t-56.5 59.5q-20 18 -40 35.5t-37 33t-27 28t-10 21.5q0 15 2.5 37t7 42t11.5 27q17 19 59.5 46t98 56t115 56.5t111.5 47.5l66 -148q-61 -25 -113 -48t-94 -44
t-74 -40.5t-54 -37.5l-10 92q60 -42 107 -87t80 -90t50 -87t17 -79q0 -36 -15.5 -69.5t-48.5 -59.5t-84.5 -41.5t-122.5 -15.5h-131z" />
    <glyph glyph-name="uni06B0.medi" unicode="&#x6b0;" horiz-adv-x="532" 
d="M382 409q-44 0 -75 31.5t-31 75.5t31 75.5t75 31.5q45 0 76 -31.5t31 -75.5t-31 -75.5t-76 -31.5zM382 484q14 0 24 9t10 23q0 15 -10 24t-24 9q-13 0 -23.5 -9.5t-10.5 -23.5t10.5 -23t23.5 -9zM14 624l-60 115q37 22 92 50.5t128.5 64t163.5 78.5l52 -127
q-92 -43 -161.5 -75.5t-122 -58t-92.5 -47.5zM0 -5l10 168h141q20 0 34.5 2.5t23 11.5t8.5 27q0 17 -14 38.5t-36 44.5t-47 46.5t-47 44.5t-36 38t-14 27q0 25 2.5 45.5t7 34.5t11.5 21q17 19 53 42.5t86 50t112 55t132 58.5l66 -148q-75 -32 -128 -56t-90.5 -43t-65 -36
t-50.5 -35l-7 88q27 -22 59.5 -51.5t65 -64t61.5 -75t51 -85.5q17 -35 35.5 -52.5t46 -23t71.5 -5.5q48 0 69 -24t21 -58q0 -38 -25 -62t-75 -24q-64 0 -109.5 12t-73 38.5t-37.5 71.5h59q-15 -29 -37 -52t-51.5 -38.5t-67.5 -23.5t-84 -8h-131z" />
    <glyph glyph-name="uni06B0.fina" unicode="&#x6b0;" horiz-adv-x="1020" 
d="M876 411q-44 0 -75 31.5t-31 75.5t31 75.5t75 31.5q45 0 76 -31.5t31 -75.5t-31 -75.5t-76 -31.5zM876 486q14 0 24 9t10 23q0 15 -10 24t-24 9q-13 0 -23.5 -9.5t-10.5 -23.5t10.5 -23t23.5 -9zM524 624l-60 115q37 22 92 50.5t128.5 64t163.5 78.5l52 -127
q-92 -43 -161.5 -75.5t-122 -58t-92.5 -47.5zM454 -21l26 168q53 0 94.5 1t70.5 6t44.5 17t15.5 33q0 17 -14 38t-36.5 44.5t-47 47t-47 44.5t-36.5 37.5t-14 26.5q0 26 2.5 46.5t7 35t11.5 21.5q24 26 75.5 56.5t128.5 67.5t179 81l66 -148q-51 -22 -113 -49t-120.5 -57
t-99.5 -64l-7 88q29 -25 59 -52t61 -59.5t60.5 -73t56.5 -92.5q14 -27 27.5 -43.5t30.5 -24t40 -10t57 -2.5q47 0 67.5 -24t20.5 -58q0 -38 -24.5 -62t-73.5 -24q-54 0 -100.5 9t-78.5 35.5t-43 77.5h59q-25 -49 -66.5 -77t-95 -41t-115.5 -16.5t-128 -3.5zM454 -21
q-126 0 -208 20t-128 54t-65 77t-19 89q0 40 6.5 77.5t16 70.5t17.5 58l147 -35q-5 -20 -9.5 -41t-7.5 -41.5t-3 -39.5q0 -36 25.5 -63t86.5 -42.5t167 -15.5l20 -136z" />
    <glyph glyph-name="uni06B2.init" unicode="&#x6b2;" horiz-adv-x="485" 
d="M11 624l-60 115q37 22 92 50.5t128.5 64t163.5 78.5l52 -127q-92 -43 -161.5 -75.5t-122 -58t-92.5 -47.5zM0 -5l10 168h154q15 0 25 2t16.5 7t9 13t2.5 19q0 26 -24.5 56.5t-56.5 59.5q-20 18 -40 35.5t-37 33t-27 28t-10 21.5q0 15 2.5 37t7 42t11.5 27q17 19 59.5 46
t98 56t115 56.5t111.5 47.5l66 -148q-61 -25 -113 -48t-94 -44t-74 -40.5t-54 -37.5l-10 92q60 -42 107 -87t80 -90t50 -87t17 -79q0 -36 -15.5 -69.5t-48.5 -59.5t-84.5 -41.5t-122.5 -15.5h-131zM305 -232q-31 0 -51.5 21t-20.5 52t20.5 52t51.5 21t53 -21t22 -52t-22 -52
t-53 -21zM128 -232q-32 0 -53 21t-21 52t21 52t52 21q30 0 52 -21t22 -52t-21.5 -52t-51.5 -21z" />
    <glyph glyph-name="uni06B2.medi" unicode="&#x6b2;" horiz-adv-x="532" 
d="M14 624l-60 115q37 22 92 50.5t128.5 64t163.5 78.5l52 -127q-92 -43 -161.5 -75.5t-122 -58t-92.5 -47.5zM0 -5l10 168h141q20 0 34.5 2.5t23 11.5t8.5 27q0 17 -14 38.5t-36 44.5t-47 46.5t-47 44.5t-36 38t-14 27q0 25 2.5 45.5t7 34.5t11.5 21q17 19 53 42.5t86 50
t112 55t132 58.5l66 -148q-75 -32 -128 -56t-90.5 -43t-65 -36t-50.5 -35l-7 88q27 -22 59.5 -51.5t65 -64t61.5 -75t51 -85.5q17 -35 35.5 -52.5t46 -23t71.5 -5.5q48 0 69 -24t21 -58q0 -38 -25 -62t-75 -24q-64 0 -109.5 12t-73 38.5t-37.5 71.5h59q-15 -29 -37 -52
t-51.5 -38.5t-67.5 -23.5t-84 -8h-131zM368 -232q-31 0 -51.5 21t-20.5 52t20.5 52t51.5 21t53 -21t22 -52t-22 -52t-53 -21zM191 -232q-32 0 -53 21t-21 52t21 52t52 21q30 0 52 -21t22 -52t-21.5 -52t-51.5 -21z" />
    <glyph glyph-name="uni06B2.fina" unicode="&#x6b2;" horiz-adv-x="1020" 
d="M524 624l-60 115q37 22 92 50.5t128.5 64t163.5 78.5l52 -127q-92 -43 -161.5 -75.5t-122 -58t-92.5 -47.5zM454 -21l26 168q53 0 94.5 1t70.5 6t44.5 17t15.5 33q0 17 -14 38t-36.5 44.5t-47 47t-47 44.5t-36.5 37.5t-14 26.5q0 26 2.5 46.5t7 35t11.5 21.5
q24 26 75.5 56.5t128.5 67.5t179 81l66 -148q-51 -22 -113 -49t-120.5 -57t-99.5 -64l-7 88q29 -25 59 -52t61 -59.5t60.5 -73t56.5 -92.5q14 -27 27.5 -43.5t30.5 -24t40 -10t57 -2.5q47 0 67.5 -24t20.5 -58q0 -38 -24.5 -62t-73.5 -24q-54 0 -100.5 9t-78.5 35.5
t-43 77.5h59q-25 -49 -66.5 -77t-95 -41t-115.5 -16.5t-128 -3.5zM454 -21q-126 0 -208 20t-128 54t-65 77t-19 89q0 40 6.5 77.5t16 70.5t17.5 58l147 -35q-5 -20 -9.5 -41t-7.5 -41.5t-3 -39.5q0 -36 25.5 -63t86.5 -42.5t167 -15.5l20 -136zM494 -253q-31 0 -51.5 21
t-20.5 52t20.5 52t51.5 21t53 -21t22 -52t-22 -52t-53 -21zM317 -253q-32 0 -53 21t-21 52t21 52t52 21q30 0 52 -21t22 -52t-21.5 -52t-51.5 -21z" />
    <glyph glyph-name="uni06B4.init" unicode="&#x6b4;" horiz-adv-x="485" 
d="M64 1007q-23 0 -39.5 16t-16.5 39t16.5 40t39.5 17q22 0 38 -17t16 -40t-16 -39t-38 -16zM53 868q-23 0 -39 16t-16 39t16 40t39 17t39 -17t16 -40t-16 -39t-39 -16zM180 929q-23 0 -39 16t-16 39q0 24 16 40.5t39 16.5q22 0 38 -16.5t16 -40.5q0 -23 -16 -39t-38 -16z
M11 624l-60 115q37 22 92 50.5t128.5 64t163.5 78.5l52 -127q-92 -43 -161.5 -75.5t-122 -58t-92.5 -47.5zM0 -5l10 168h154q15 0 25 2t16.5 7t9 13t2.5 19q0 26 -24.5 56.5t-56.5 59.5q-20 18 -40 35.5t-37 33t-27 28t-10 21.5q0 15 2.5 37t7 42t11.5 27q17 19 59.5 46
t98 56t115 56.5t111.5 47.5l66 -148q-61 -25 -113 -48t-94 -44t-74 -40.5t-54 -37.5l-10 92q60 -42 107 -87t80 -90t50 -87t17 -79q0 -36 -15.5 -69.5t-48.5 -59.5t-84.5 -41.5t-122.5 -15.5h-131z" />
    <glyph glyph-name="uni06B4.medi" unicode="&#x6b4;" horiz-adv-x="532" 
d="M64 1007q-23 0 -39.5 16t-16.5 39t16.5 40t39.5 17q22 0 38 -17t16 -40t-16 -39t-38 -16zM53 868q-23 0 -39 16t-16 39t16 40t39 17t39 -17t16 -40t-16 -39t-39 -16zM180 929q-23 0 -39 16t-16 39q0 24 16 40.5t39 16.5q22 0 38 -16.5t16 -40.5q0 -23 -16 -39t-38 -16z
M14 624l-60 115q37 22 92 50.5t128.5 64t163.5 78.5l52 -127q-92 -43 -161.5 -75.5t-122 -58t-92.5 -47.5zM0 -5l10 168h141q20 0 34.5 2.5t23 11.5t8.5 27q0 17 -14 38.5t-36 44.5t-47 46.5t-47 44.5t-36 38t-14 27q0 25 2.5 45.5t7 34.5t11.5 21q17 19 53 42.5t86 50
t112 55t132 58.5l66 -148q-75 -32 -128 -56t-90.5 -43t-65 -36t-50.5 -35l-7 88q27 -22 59.5 -51.5t65 -64t61.5 -75t51 -85.5q17 -35 35.5 -52.5t46 -23t71.5 -5.5q48 0 69 -24t21 -58q0 -38 -25 -62t-75 -24q-64 0 -109.5 12t-73 38.5t-37.5 71.5h59q-15 -29 -37 -52
t-51.5 -38.5t-67.5 -23.5t-84 -8h-131z" />
    <glyph glyph-name="uni06B4.fina" unicode="&#x6b4;" horiz-adv-x="1020" 
d="M575 1005q-23 0 -39.5 16t-16.5 39t16.5 40t39.5 17q22 0 38 -17t16 -40t-16 -39t-38 -16zM564 866q-23 0 -39 16t-16 39t16 40t39 17t39 -17t16 -40t-16 -39t-39 -16zM691 927q-23 0 -39 16t-16 39q0 24 16 40.5t39 16.5q22 0 38.5 -16.5t16.5 -40.5q0 -23 -16.5 -39
t-38.5 -16zM524 624l-60 115q37 22 92 50.5t128.5 64t163.5 78.5l52 -127q-92 -43 -161.5 -75.5t-122 -58t-92.5 -47.5zM454 -21l26 168q53 0 94.5 1t70.5 6t44.5 17t15.5 33q0 17 -14 38t-36.5 44.5t-47 47t-47 44.5t-36.5 37.5t-14 26.5q0 26 2.5 46.5t7 35t11.5 21.5
q24 26 75.5 56.5t128.5 67.5t179 81l66 -148q-51 -22 -113 -49t-120.5 -57t-99.5 -64l-7 88q29 -25 59 -52t61 -59.5t60.5 -73t56.5 -92.5q14 -27 27.5 -43.5t30.5 -24t40 -10t57 -2.5q47 0 67.5 -24t20.5 -58q0 -38 -24.5 -62t-73.5 -24q-54 0 -100.5 9t-78.5 35.5
t-43 77.5h59q-25 -49 -66.5 -77t-95 -41t-115.5 -16.5t-128 -3.5zM454 -21q-126 0 -208 20t-128 54t-65 77t-19 89q0 40 6.5 77.5t16 70.5t17.5 58l147 -35q-5 -20 -9.5 -41t-7.5 -41.5t-3 -39.5q0 -36 25.5 -63t86.5 -42.5t167 -15.5l20 -136z" />
    <glyph glyph-name="uni06B5.init" unicode="&#x6b5;" horiz-adv-x="325" 
d="M0 -5l10 168q40 0 58.5 9t23 36.5t1.5 83.5l-19 468h173l21 -490q3 -61 -3.5 -111.5t-32.5 -87t-81.5 -56.5t-150.5 -20zM127 832q-8 15 -20 38.5t-25.5 49.5t-26 49.5t-21.5 39.5l66 35q7 -13 18 -35.5t23 -47.5t23.5 -48t19.5 -37l23 -38zM207 838l-61 20
q7 17 18.5 45.5t23.5 58.5t22 53.5t14 31.5l66 -28q-4 -10 -15 -33.5t-24.5 -51.5t-25.5 -54t-18 -42z" />
    <glyph glyph-name="uni06B5.medi" unicode="&#x6b5;" horiz-adv-x="352" 
d="M0 -5l10 168q40 0 58.5 9t22.5 36.5t2 83.5l-15 468h173l17 -467q2 -55 10 -83t28 -37.5t56 -9.5q48 0 69 -24t21 -58q0 -38 -25 -62t-75 -24q-41 0 -80.5 11t-68.5 42t-38 89h59q-21 -53 -51.5 -84.5t-72.5 -44.5t-100 -13zM131 835q-8 15 -20 38.5t-25.5 49.5t-26 49.5
t-21.5 39.5l66 35q7 -13 18 -35.5t23 -47.5t23.5 -48t19.5 -37l23 -38zM211 841l-61 20q7 17 18.5 45.5t23.5 58.5t22 53.5t14 31.5l66 -28q-4 -10 -15 -33.5t-24.5 -51.5t-25.5 -54t-18 -42z" />
    <glyph glyph-name="uni06B5.fina" unicode="&#x6b5;" horiz-adv-x="813" 
d="M24 34q0 28 4 59t15.5 72t35.5 99l156 -54q-14 -39 -21.5 -63.5t-10 -42.5t-2.5 -38q0 -37 19.5 -66.5t57 -46t90.5 -16.5q77 0 116.5 26t53 80t10.5 139l-20 578h174l14 -467q2 -55 12.5 -83t33.5 -37.5t61 -9.5q48 0 69 -24t21 -58q0 -38 -25 -62t-75 -24q-12 0 -35 4
t-49 16.5t-47 37.5t-29 66l62 -43q-8 -64 -31 -120t-64.5 -98t-104.5 -65.5t-151 -23.5q-71 0 -132.5 15t-108 47t-73 82.5t-26.5 120.5zM254 563q-8 15 -20 38.5t-25.5 49.5t-26 49.5t-21.5 39.5l66 35q7 -13 18 -35.5t23 -47.5t23.5 -48t19.5 -37l23 -38zM334 569l-61 20
q7 17 18.5 45.5t23.5 58.5t22 53.5t14 31.5l66 -28q-4 -10 -15 -33.5t-24.5 -51.5t-25.5 -54t-18 -42z" />
    <glyph glyph-name="uni06B6.init" unicode="&#x6b6;" horiz-adv-x="325" 
d="M0 -5l10 168q40 0 58.5 9t23 36.5t1.5 83.5l-19 468h173l21 -490q3 -61 -3.5 -111.5t-32.5 -87t-81.5 -56.5t-150.5 -20zM166 817q-34 0 -58 24t-24 58q0 35 24 60t58 25t57.5 -25t23.5 -60q0 -34 -23.5 -58t-57.5 -24z" />
    <glyph glyph-name="uni06B6.medi" unicode="&#x6b6;" horiz-adv-x="352" 
d="M0 -5l10 168q40 0 58.5 9t22.5 36.5t2 83.5l-15 468h173l17 -467q2 -55 10 -83t28 -37.5t56 -9.5q48 0 69 -24t21 -58q0 -38 -25 -62t-75 -24q-41 0 -80.5 11t-68.5 42t-38 89h59q-21 -53 -51.5 -84.5t-72.5 -44.5t-100 -13zM170 820q-34 0 -58 24t-24 58q0 35 24 60
t58 25t57.5 -25t23.5 -60q0 -34 -23.5 -58t-57.5 -24z" />
    <glyph glyph-name="uni06B6.fina" unicode="&#x6b6;" horiz-adv-x="813" 
d="M24 34q0 28 4 59t15.5 72t35.5 99l156 -54q-14 -39 -21.5 -63.5t-10 -42.5t-2.5 -38q0 -37 19.5 -66.5t57 -46t90.5 -16.5q77 0 116.5 26t53 80t10.5 139l-20 578h174l14 -467q2 -55 12.5 -83t33.5 -37.5t61 -9.5q48 0 69 -24t21 -58q0 -38 -25 -62t-75 -24q-12 0 -35 4
t-49 16.5t-47 37.5t-29 66l62 -43q-8 -64 -31 -120t-64.5 -98t-104.5 -65.5t-151 -23.5q-71 0 -132.5 15t-108 47t-73 82.5t-26.5 120.5zM293 548q-34 0 -58 24t-24 58q0 35 24 60t58 25t57.5 -25t23.5 -60q0 -34 -23.5 -58t-57.5 -24z" />
    <glyph glyph-name="uni06B7.init" unicode="&#x6b7;" horiz-adv-x="325" 
d="M0 -5l10 168q40 0 58.5 9t23 36.5t1.5 83.5l-19 468h173l21 -490q3 -61 -3.5 -111.5t-32.5 -87t-81.5 -56.5t-150.5 -20zM168 974q-32 0 -53 21.5t-21 50.5q0 31 21 53t53 22q31 0 52.5 -22t21.5 -53q0 -29 -21.5 -50.5t-52.5 -21.5zM83 817q-31 0 -53.5 23t-22.5 53
q0 29 22.5 52t53.5 23q29 0 50.5 -23t21.5 -52q0 -30 -21.5 -53t-50.5 -23zM256 817q-30 0 -50 23t-20 53q0 29 20 52t50 23q31 0 53 -23t22 -52q0 -30 -22 -53t-53 -23z" />
    <glyph glyph-name="uni06B7.medi" unicode="&#x6b7;" horiz-adv-x="352" 
d="M0 -5l10 168q40 0 58.5 9t22.5 36.5t2 83.5l-15 468h173l17 -467q2 -55 10 -83t28 -37.5t56 -9.5q48 0 69 -24t21 -58q0 -38 -25 -62t-75 -24q-41 0 -80.5 11t-68.5 42t-38 89h59q-21 -53 -51.5 -84.5t-72.5 -44.5t-100 -13zM172 977q-32 0 -53 21.5t-21 50.5q0 31 21 53
t53 22q31 0 52.5 -22t21.5 -53q0 -29 -21.5 -50.5t-52.5 -21.5zM87 820q-31 0 -53.5 23t-22.5 53q0 29 22.5 52t53.5 23q29 0 50.5 -23t21.5 -52q0 -30 -21.5 -53t-50.5 -23zM260 820q-30 0 -50 23t-20 53q0 29 20 52t50 23q31 0 53 -23t22 -52q0 -30 -22 -53t-53 -23z" />
    </font>
</defs>
</svg>
