<?xml version="1.0" standalone="no"?>
<!DOCTYPE svg PUBLIC "-//W3C//DTD SVG 1.1//EN" "http://www.w3.org/Graphics/SVG/1.1/DTD/svg11.dtd" >
<svg xmlns="http://www.w3.org/2000/svg" xmlns:xlink="http://www.w3.org/1999/xlink" version="1.1">
<metadata>
Created by FontForge 20170731 at Thu Nov 12 05:28:44 2020
 By Aleksey,,,
Copyright 2015-2020 Google LLC. All Rights Reserved.
</metadata>
<defs>
<font id="NotoSansArabicSemiCondensed-Thin" horiz-adv-x="0" >
  <font-face 
    font-family="Noto Sans Arabic SemiCondensed Thin"
    font-weight="250"
    font-stretch="semi-condensed"
    units-per-em="1000"
    panose-1="0 0 0 0 0 0 0 0 0 0"
    ascent="800"
    descent="-200"
    bbox="-214 -573 2153 1068"
    underline-thickness="50"
    underline-position="-175"
    unicode-range="U+000D-FEFC"
  />
<missing-glyph horiz-adv-x="600" 
d="M107 0v714h385v-714h-385zM131 24h337v666h-337v-666z" />
    <glyph glyph-name="uniFC43" unicode="&#xfedf;&#xfef0;" horiz-adv-x="897" arabic-form="isolated" 
d="M703 -5l4 23q54 0 78.5 15.5t30.5 49.5t4 92l-19 539h23l20 -537q2 -50 -2.5 -84.5t-20 -56t-44 -31.5t-74.5 -10zM46 -19q0 22 4 49.5t15.5 63t34.5 81.5l22 -10q-16 -32 -27.5 -64t-17 -62t-5.5 -57q0 -43 14.5 -77.5t45.5 -59.5t79 -38t114 -13q70 0 123 17t89 43.5
t54 57t18 56.5q0 20 -14 36t-37.5 29t-50.5 23.5t-55 20.5l8 24q47 -20 82 -35.5t63 -26t52.5 -16t49.5 -5.5q7 0 9.5 -3t2.5 -8q0 -4 -4 -8t-16 -4q-9 0 -24 2t-31 6t-28 9q11 -13 14 -26.5t3 -22.5q0 -27 -18.5 -60.5t-57 -63.5t-96 -49.5t-134.5 -19.5q-80 0 -143.5 22
t-100.5 69t-37 120z" />
    <glyph glyph-name="uniFC86" unicode="&#xfee0;&#xfef0;" horiz-adv-x="955" arabic-form="final" 
d="M703 -5l4 23q56 0 81 22t30.5 64t3.5 101l-17 509h25l16 -507q3 -74 14 -115t34.5 -57.5t63.5 -16.5q7 0 10 -2.5t3 -8.5q0 -4 -4.5 -8t-11.5 -4q-37 0 -63 15.5t-40 41.5t-20 55h10q-6 -34 -21 -59t-43 -39t-75 -14zM46 -19q0 22 4 49.5t15.5 63t34.5 81.5l22 -10
q-16 -32 -27.5 -64t-17 -62t-5.5 -57q0 -43 14.5 -77.5t45.5 -59.5t79 -38t114 -13q70 0 123 17t89 43.5t54 57t18 56.5q0 20 -14 36t-37.5 29t-50.5 23.5t-55 20.5l8 24q47 -20 82 -35.5t63 -26t52.5 -16t49.5 -5.5q7 0 9.5 -3t2.5 -8q0 -4 -4 -8t-16 -4q-9 0 -24 2t-31 6
t-28 9q11 -13 14 -26.5t3 -22.5q0 -27 -18.5 -60.5t-57 -63.5t-96 -49.5t-134.5 -19.5q-80 0 -143.5 22t-100.5 69t-37 120z" />
    <glyph glyph-name="uniFD82" unicode="&#xfee0;&#xfea4;&#xfef0;" horiz-adv-x="1515" arabic-form="final" 
d="M1263 -5l4 23q56 0 81 22t30.5 64t3.5 101l-17 509h25l16 -507q3 -74 14 -115t34.5 -57.5t63.5 -16.5q7 0 10 -2.5t3 -8.5q0 -4 -4.5 -8t-11.5 -4q-37 0 -63 15.5t-40 41.5t-20 55h10q-6 -34 -21 -59t-43 -39t-75 -14zM1262 -5q-33 0 -63 2.5t-55.5 15t-44.5 41.5t-30 81
l20 8q13 -61 37.5 -87.5t59.5 -32t80 -5.5q8 0 10.5 -3t2.5 -8q0 -4 -4.5 -8t-12.5 -4zM703 -5l4 23q53 0 98 8t90 24.5t94 43t108 63.5q-49 37 -90 64.5t-80.5 43t-84.5 15.5q-14 0 -27.5 -0.5t-28 -3t-31.5 -7.5l-4 23q22 7 45.5 9.5t45.5 2.5q48 0 86.5 -13.5t69.5 -33
t56.5 -39.5t48 -33.5t45.5 -13.5h21l3 -23q-29 0 -56 -11.5t-56 -28.5t-63 -36.5t-76 -37t-96 -28.5t-122 -11zM46 -19q0 22 4 49.5t15.5 63t34.5 81.5l22 -10q-16 -32 -27.5 -64t-17 -62t-5.5 -57q0 -43 14.5 -77.5t45.5 -59.5t79 -38t114 -13q70 0 123 17t89 43.5t54 57
t18 56.5q0 20 -14 36t-37.5 29t-50.5 23.5t-55 20.5l8 24q47 -20 82 -35.5t63 -26t52.5 -16t49.5 -5.5q7 0 9.5 -3t2.5 -8q0 -4 -4 -8t-16 -4q-9 0 -24 2t-31 6t-28 9q11 -13 14 -26.5t3 -22.5q0 -27 -18.5 -60.5t-57 -63.5t-96 -49.5t-134.5 -19.5q-80 0 -143.5 22
t-100.5 69t-37 120z" />
    <glyph glyph-name="uniFDF2" unicode="&#x627;&#xfedf;&#xfee0;&#xfeea;" horiz-adv-x="1104" arabic-form="isolated" 
d="M437 -5q-32 0 -58.5 7t-45 29t-25.5 66q-50 -11 -97 -9t-84.5 16.5t-59 40.5t-21.5 64q0 50 31.5 97t86.5 83t126 51l-4 76h24l18 -367q3 -51 12.5 -79.5t33.5 -40t70 -11.5q56 0 81 22t31 64t3 101l-13 363h25l12 -361q3 -74 14 -115t36 -57.5t67 -16.5q54 0 78.5 15.5
t30.5 49.5t4 92l-19 539h23l20 -537q2 -50 -2.5 -84.5t-19.5 -56t-44.5 -31.5t-78.5 -10q-33 0 -56.5 12.5t-38.5 33t-23 45.5q-12 -42 -41 -66.5t-96 -24.5zM305 120l-14 294q-59 -11 -109 -42t-80.5 -73t-30.5 -86q0 -35 21.5 -57.5t56.5 -33t76 -10.5t80 8zM999 0
l-20 714h24l20 -714h-24zM492 598q-30 0 -45 21.5t-15 57.5q0 11 1.5 25.5t4.5 30.5l21 6q-3 -19 -4.5 -34t-1.5 -26q0 -23 9 -41t31 -18q18 0 32 17.5t14 60.5v63l22 8v-81q0 -14 11 -24.5t29 -10.5q22 0 32 16t10 44q0 22 -4 41.5t-11 36.5l20 7q7 -13 12 -37.5t5 -47.5
q0 -34 -15.5 -58t-49.5 -24q-24 0 -39 14.5t-15 37.5h12q0 -34 -17 -59.5t-49 -25.5zM535 821l-5 164h21l6 -164h-22z" />
    <glyph glyph-name="uniFEF5" unicode="&#xfedf;&#xfe82;" horiz-adv-x="622" arabic-form="isolated" 
d="M361 527q0 33 -3.5 68.5t-8 67t-8.5 51.5l23 5q4 -19 8.5 -52t8 -70.5t3.5 -71.5q0 -37 -5.5 -74t-15 -72.5t-23.5 -69.5l-4 -9q-34 -79 -88.5 -148.5t-124.5 -127.5h199q47 0 72 14t34 35t9 43q0 43 -26 85.5t-76.5 90.5t-124 108.5t-167.5 139.5l14 20
q88 -71 154.5 -127t113.5 -100.5t77 -81t44 -69t14 -65.5q0 -18 -5.5 -38.5t-20.5 -38t-42 -29t-70 -11.5h-222v37q90 70 147.5 152t85.5 168.5t28 169.5zM161 624q-26 0 -48.5 10.5t-42.5 20.5t-38 10q-14 0 -29 -9t-31 -25l-15 14q17 18 35.5 30.5t41.5 12.5t43.5 -10
t42 -20.5t44.5 -10.5q20 0 39 9t41 28l12 -17q-25 -23 -49 -33t-46 -10z" />
    <glyph glyph-name="uniFEF6" unicode="&#xfee0;&#xfe82;" horiz-adv-x="499" arabic-form="final" 
d="M501 -5q-33 0 -56 9.5t-37.5 31.5t-22 59.5t-9.5 94.5l-19 524h23l18 -499q3 -65 8.5 -109t27 -66t70.5 -22q6 0 8.5 -3t2.5 -8q0 -4 -4 -8t-10 -4zM136 -11q-27 0 -54.5 4.5t-38.5 6.5l4 25q68 -18 126.5 -9t103 47t69.5 104.5t25 163.5l18 -24q0 -79 -17.5 -134.5
t-46 -91.5t-62 -56t-67 -28t-60.5 -8zM356 153q-34 55 -67 105.5t-66.5 98t-70.5 92.5t-81 89l17 17q47 -48 86 -95.5t72.5 -95.5t63.5 -95t58 -95zM161 624q-26 0 -48.5 10.5t-42.5 20.5t-38 10q-14 0 -29 -9t-31 -25l-15 14q17 18 35.5 30.5t41.5 12.5t43.5 -10t42 -20.5
t44.5 -10.5q20 0 39 9t41 28l12 -17q-25 -23 -49 -33t-46 -10z" />
    <glyph glyph-name="uniFEF7" unicode="&#xfedf;&#xfe84;" horiz-adv-x="541" arabic-form="isolated" 
d="M361 527q0 33 -3.5 68.5t-8 67t-8.5 51.5l23 5q4 -19 8.5 -52t8 -70.5t3.5 -71.5q0 -37 -5.5 -74t-15 -72.5t-23.5 -69.5l-4 -9q-34 -79 -88.5 -148.5t-124.5 -127.5h199q47 0 72 14t34 35t9 43q0 43 -26 85.5t-76.5 90.5t-124 108.5t-167.5 139.5l14 20
q88 -71 154.5 -127t113.5 -100.5t77 -81t44 -69t14 -65.5q0 -18 -5.5 -38.5t-20.5 -38t-42 -29t-70 -11.5h-222v37q90 70 147.5 152t85.5 168.5t28 169.5zM14 629l-5 22q25 6 44 11.5t36 9.5l30 -7q-46 5 -75 33t-29 62q0 26 12.5 44t33 27t41.5 9q13 0 25.5 -2t22.5 -6
l-5 -20q-10 3 -21 4.5t-22 1.5q-33 0 -49 -17.5t-16 -40.5q0 -21 13.5 -38t35 -27.5t46.5 -15.5l-39 -5q27 7 49.5 14.5t42.5 14.5l7 -20q-24 -9 -55.5 -19t-63 -19t-59.5 -16z" />
    <glyph glyph-name="uniFEF8" unicode="&#xfee0;&#xfe84;" horiz-adv-x="499" arabic-form="final" 
d="M501 -5q-33 0 -56 9.5t-37.5 31.5t-22 59.5t-9.5 94.5l-19 524h23l18 -499q3 -65 8.5 -109t27 -66t70.5 -22q6 0 8.5 -3t2.5 -8q0 -4 -4 -8t-10 -4zM136 -11q-27 0 -54.5 4.5t-38.5 6.5l4 25q68 -18 126.5 -9t103 47t69.5 104.5t25 163.5l18 -24q0 -79 -17.5 -134.5
t-46 -91.5t-62 -56t-67 -28t-60.5 -8zM356 153q-34 55 -67 105.5t-66.5 98t-70.5 92.5t-81 89l17 17q47 -48 86 -95.5t72.5 -95.5t63.5 -95t58 -95zM58 629l-5 22q25 6 44 11.5t36 9.5l30 -7q-46 5 -75 33t-29 62q0 26 12.5 44t33 27t41.5 9q13 0 25.5 -2t22.5 -6l-5 -20
q-10 3 -21 4.5t-22 1.5q-33 0 -49 -17.5t-16 -40.5q0 -21 13.5 -38t35 -27.5t46.5 -15.5l-39 -5q27 7 49.5 14.5t42.5 14.5l7 -20q-24 -9 -55.5 -19t-63 -19t-59.5 -16z" />
    <glyph glyph-name="uniFEF9" unicode="&#xfedf;&#xfe88;" horiz-adv-x="541" arabic-form="isolated" 
d="M361 527q0 33 -3.5 68.5t-8 67t-8.5 51.5l23 5q4 -19 8.5 -52t8 -70.5t3.5 -71.5q0 -37 -5.5 -74t-15 -72.5t-23.5 -69.5l-4 -9q-34 -79 -88.5 -148.5t-124.5 -127.5h199q47 0 72 14t34 35t9 43q0 43 -26 85.5t-76.5 90.5t-124 108.5t-167.5 139.5l14 20
q88 -71 154.5 -127t113.5 -100.5t77 -81t44 -69t14 -65.5q0 -18 -5.5 -38.5t-20.5 -38t-42 -29t-70 -11.5h-222v37q90 70 147.5 152t85.5 168.5t28 169.5zM86 -284l-5 22q25 6 44 11.5t36 9.5l30 -7q-46 5 -75 33t-29 62q0 26 12.5 44t33 27t41.5 9q13 0 25.5 -2t22.5 -6
l-5 -20q-10 3 -21 4.5t-22 1.5q-33 0 -49 -17.5t-16 -40.5q0 -21 13.5 -38t35 -27.5t46.5 -15.5l-39 -5q27 7 49.5 14.5t42.5 14.5l7 -20q-24 -9 -55.5 -19t-63 -19t-59.5 -16z" />
    <glyph glyph-name="uniFEFA" unicode="&#xfee0;&#xfe88;" horiz-adv-x="499" arabic-form="final" 
d="M501 -5q-33 0 -56 9.5t-37.5 31.5t-22 59.5t-9.5 94.5l-19 524h23l18 -499q3 -65 8.5 -109t27 -66t70.5 -22q6 0 8.5 -3t2.5 -8q0 -4 -4 -8t-10 -4zM136 -11q-27 0 -54.5 4.5t-38.5 6.5l4 25q68 -18 126.5 -9t103 47t69.5 104.5t25 163.5l18 -24q0 -79 -17.5 -134.5
t-46 -91.5t-62 -56t-67 -28t-60.5 -8zM356 153q-34 55 -67 105.5t-66.5 98t-70.5 92.5t-81 89l17 17q47 -48 86 -95.5t72.5 -95.5t63.5 -95t58 -95zM90 -284l-5 22q25 6 44 11.5t36 9.5l30 -7q-46 5 -75 33t-29 62q0 26 12.5 44t33 27t41.5 9q13 0 25.5 -2t22.5 -6l-5 -20
q-10 3 -21 4.5t-22 1.5q-33 0 -49 -17.5t-16 -40.5q0 -21 13.5 -38t35 -27.5t46.5 -15.5l-39 -5q27 7 49.5 14.5t42.5 14.5l7 -20q-24 -9 -55.5 -19t-63 -19t-59.5 -16z" />
    <glyph glyph-name="uniFEFB" unicode="&#xfedf;&#xfe8e;" horiz-adv-x="541" arabic-form="isolated" 
d="M361 527q0 33 -3.5 68.5t-8 67t-8.5 51.5l23 5q4 -19 8.5 -52t8 -70.5t3.5 -71.5q0 -37 -5.5 -74t-15 -72.5t-23.5 -69.5l-4 -9q-34 -79 -88.5 -148.5t-124.5 -127.5h199q47 0 72 14t34 35t9 43q0 43 -26 85.5t-76.5 90.5t-124 108.5t-167.5 139.5l14 20
q88 -71 154.5 -127t113.5 -100.5t77 -81t44 -69t14 -65.5q0 -18 -5.5 -38.5t-20.5 -38t-42 -29t-70 -11.5h-222v37q90 70 147.5 152t85.5 168.5t28 169.5z" />
    <glyph glyph-name="uniFEFC" unicode="&#xfee0;&#xfe8e;" horiz-adv-x="499" arabic-form="final" 
d="M501 -5q-33 0 -56 9.5t-37.5 31.5t-22 59.5t-9.5 94.5l-19 524h23l18 -499q3 -65 8.5 -109t27 -66t70.5 -22q6 0 8.5 -3t2.5 -8q0 -4 -4 -8t-10 -4zM136 -11q-27 0 -54.5 4.5t-38.5 6.5l4 25q68 -18 126.5 -9t103 47t69.5 104.5t25 163.5l18 -24q0 -79 -17.5 -134.5
t-46 -91.5t-62 -56t-67 -28t-60.5 -8zM356 153q-34 55 -67 105.5t-66.5 98t-70.5 92.5t-81 89l17 17q47 -48 86 -95.5t72.5 -95.5t63.5 -95t58 -95z" />
    <glyph glyph-name="lam_alefMaksura_meemar" unicode="&#xfedf;&#xfbe9;&#xfee2;" horiz-adv-x="957" 
d="M763 -5l4 23q54 0 78.5 15.5t30.5 49.5t4 92l-19 539h23l20 -537q2 -50 -2.5 -84.5t-20 -56t-44 -31.5t-74.5 -10zM529 -5l4 23q52 0 79 13.5t36.5 39t9.5 61.5q0 32 -5.5 65.5t-16.5 72t-28 84.5l23 9q16 -43 27.5 -83t17.5 -76t6 -68q0 -26 -4 -48.5t-14.5 -39.5
t-28 -29t-43.5 -18t-63 -6zM93 -393q-21 80 -36 153.5t-23 132t-8 94.5q0 71 19 128t49.5 99.5t65.5 71t68.5 42.5t57.5 14q21 0 34 -14.5t29 -55t44 -118.5q19 -51 36.5 -80.5t42.5 -42.5t61 -13q6 0 9 -2.5t3 -8.5q0 -4 -4 -8t-12 -4q-48 0 -82 24.5t-48 63.5l11 6
q3 -33 -8.5 -54.5t-32 -32t-44.5 -10.5q-22 0 -50.5 9.5t-59 32.5t-59 63.5t-51.5 102.5l7 -4q-29 -43 -45.5 -97t-16.5 -117q0 -30 5 -71.5t14 -90t21 -101t26 -106.5zM325 15q26 0 42 13.5t20 36.5t-6 53q-21 57 -34.5 95.5t-24 61t-20 32.5t-21.5 10q-15 0 -35 -7.5
t-42 -21.5t-43 -33.5t-38 -44.5v11q21 -66 54 -111.5t72 -70t76 -24.5z" />
    <glyph glyph-name="lam_alefWaslaar" unicode="&#xfedf;&#xfb51;" horiz-adv-x="459" 
d="M140 646q-23 0 -50.5 2t-51.5 5.5t-38 5.5l3 21q15 -2 38 -5t48.5 -5t49.5 -2q59 0 81 22t22 47q0 23 -13.5 33.5t-33.5 10.5q-28 0 -53.5 -18t-45.5 -44.5t-32 -53.5l-21 4q15 33 37.5 63.5t52 50.5t64.5 20q33 0 49.5 -19t16.5 -46q0 -24 -13 -45t-40 -34t-70 -13z
M361 527q0 33 -3.5 68.5t-8 67t-8.5 51.5l23 5q4 -19 8.5 -52t8 -70.5t3.5 -71.5q0 -37 -5.5 -74t-15 -72.5t-23.5 -69.5l-4 -9q-34 -79 -88.5 -148.5t-124.5 -127.5h199q47 0 72 14t34 35t9 43q0 43 -26 85.5t-76.5 90.5t-124 108.5t-167.5 139.5l14 20q88 -71 154.5 -127
t113.5 -100.5t77 -81t44 -69t14 -65.5q0 -18 -5.5 -38.5t-20.5 -38t-42 -29t-70 -11.5h-222v37q90 70 147.5 152t85.5 168.5t28 169.5z" />
    <glyph glyph-name="lam_alefWaslaar.fina" unicode="&#xfee0;&#xfb51;" horiz-adv-x="514" 
d="M140 661q-23 0 -50.5 2t-51.5 5.5t-38 5.5l3 21q15 -2 38 -5t49 -5t49 -2q59 0 81 22t22 47q0 23 -13.5 33.5t-33.5 10.5q-28 0 -53.5 -18t-45.5 -44.5t-32 -53.5l-21 4q15 33 37.5 63.5t52 50.5t64.5 20q33 0 49.5 -19t16.5 -46q0 -24 -13 -45t-40 -34t-70 -13zM501 -5
q-33 0 -56 9.5t-37.5 31.5t-22 59.5t-9.5 94.5l-19 524h23l18 -499q3 -65 8.5 -109t27 -66t70.5 -22q6 0 8.5 -3t2.5 -8q0 -4 -4 -8t-10 -4zM136 -11q-27 0 -54.5 4.5t-38.5 6.5l4 25q68 -18 126.5 -9t103 47t69.5 104.5t25 163.5l18 -24q0 -79 -17.5 -134.5t-46 -91.5
t-62 -56t-67 -28t-60.5 -8zM356 153q-34 55 -67 105.5t-66.5 98t-70.5 92.5t-81 89l17 17q47 -48 86 -95.5t72.5 -95.5t63.5 -95t58 -95z" />
    <glyph glyph-name="uni0620.init" unicode="&#x620;" horiz-adv-x="257" 
d="M0 -5l4 23q57 0 88.5 12t44.5 37t13 65q0 31 -6 65t-17 72.5t-27 84.5l23 9q16 -43 27 -83t17.5 -76t6.5 -67q0 -35 -8 -62t-28 -44.5t-53.5 -26.5t-84.5 -9zM128 -113q-31 0 -52.5 22.5t-21.5 53.5t21.5 52.5t52.5 21.5t53.5 -21.5t22.5 -52.5t-22.5 -53.5t-53.5 -22.5z
M128 -92q21 0 37 16t16 39q0 22 -15.5 37.5t-37.5 15.5q-21 0 -36.5 -15.5t-15.5 -37.5t15.5 -38.5t36.5 -16.5z" />
    <glyph glyph-name="uni0620.medi" unicode="&#x620;" horiz-adv-x="310" 
d="M0 -5l4 23q30 0 56 7t48 31t40 73.5t33 134.5l24 -5q-7 -36 -12.5 -59.5t-8 -42.5t-2.5 -41q0 -21 4.5 -39t18 -31t40 -20.5t69.5 -7.5q7 0 9.5 -3t2.5 -8q0 -4 -4 -8t-12 -4q-43 0 -72.5 7.5t-47 22.5t-24 38t-3.5 53h2q-12 -41 -28.5 -65t-36.5 -36t-45 -16t-55 -4z
M105 -118q-31 0 -53 22.5t-22 53.5t22 52.5t53 21.5t53 -21.5t22 -52.5t-22 -53.5t-53 -22.5zM105 -96q21 0 37 16t16 38t-15.5 37.5t-37.5 15.5t-37 -15.5t-15 -37.5t15 -38t37 -16z" />
    <glyph glyph-name="uni0620.fina" unicode="&#x620;" horiz-adv-x="703" 
d="M310 -359q-31 0 -52.5 22.5t-21.5 53.5t21.5 52.5t52.5 21.5t53.5 -21.5t22.5 -52.5t-22.5 -53.5t-53.5 -22.5zM310 -337q22 0 38 16t16 38t-16 37.5t-38 15.5q-21 0 -36.5 -15.5t-15.5 -37.5t15.5 -38t36.5 -16zM46 -19q0 22 4 49.5t15.5 63t34.5 81.5l22 -10
q-16 -32 -27.5 -64t-17 -62t-5.5 -57q0 -43 14.5 -77.5t45.5 -59.5t79 -38t114 -13q70 0 123 17t89 43.5t54 57t18 56.5q0 20 -14 36t-37.5 29t-50.5 23.5t-55 20.5l8 24q47 -20 82 -35.5t63 -26t52.5 -16t49.5 -5.5q7 0 9.5 -3t2.5 -8q0 -4 -4 -8t-16 -4q-9 0 -24 2t-31 6
t-28 9q11 -13 14 -26.5t3 -22.5q0 -27 -18.5 -60.5t-57 -63.5t-96 -49.5t-134.5 -19.5q-80 0 -143.5 22t-100.5 69t-37 120z" />
    <glyph glyph-name="uni063B.init" unicode="&#x63b;" horiz-adv-x="358" 
d="M215 744q-10 0 -16.5 7t-6.5 16t6.5 15.5t16.5 6.5q9 0 15.5 -6.5t6.5 -15.5t-6.5 -16t-15.5 -7zM106 692q-10 0 -16.5 7t-6.5 16t6.5 15.5t16.5 6.5q9 0 15.5 -6.5t6.5 -15.5t-6.5 -16t-15.5 -7zM0 -5l4 23h73q52 0 87.5 9t56.5 25.5t30.5 40.5t9.5 53q0 45 -28 96.5
t-76 104.5q-40 45 -65.5 72t-40.5 41.5t-20.5 21t-5.5 9.5q0 9 1.5 15t5 10.5t8.5 7.5q27 21 59 43t70.5 46t83 49t94.5 50l11 -21q-51 -25 -98.5 -51.5t-88 -52.5t-74 -50t-56.5 -45v10q41 -44 83.5 -88t78.5 -88.5t58.5 -89t22.5 -91.5q0 -37 -13 -65.5t-38.5 -47t-65 -28
t-91.5 -9.5h-76z" />
    <glyph glyph-name="uni063B.medi" unicode="&#x63b;" horiz-adv-x="429" 
d="M202 744q-10 0 -16.5 7t-6.5 16t6.5 15.5t16.5 6.5q9 0 15.5 -6.5t6.5 -15.5t-6.5 -16t-15.5 -7zM93 692q-10 0 -16.5 7t-6.5 16t6.5 15.5t16.5 6.5q9 0 15.5 -6.5t6.5 -15.5t-6.5 -16t-15.5 -7zM0 -5l4 23h79q62 0 101.5 14t58 42t18.5 72q0 30 -17 66t-44 73t-57 71.5
t-57 63t-44 48t-17 25.5q0 8 2 13.5t5.5 10t7.5 7.5q26 20 58 42.5t70 46t83 49t96 50.5l11 -21q-51 -25 -98 -52t-88.5 -52.5t-74.5 -49.5t-56 -45l2 10q32 -36 69 -76t72.5 -83.5t63 -87t38.5 -85.5q12 -42 31 -76.5t47.5 -55t68.5 -20.5q6 0 9 -2.5t3 -8.5q0 -4 -4 -8
t-12 -4q-36 0 -67.5 18t-55.5 54t-38 88l16 -13q-1 -45 -18.5 -74t-46.5 -44.5t-65.5 -22t-76.5 -6.5h-77z" />
    <glyph glyph-name="uni063B.fina" unicode="&#x63b;" horiz-adv-x="896" 
d="M671 745q-10 0 -16.5 7t-6.5 16t6.5 15.5t16.5 6.5q9 0 15.5 -6.5t6.5 -15.5t-6.5 -16t-15.5 -7zM562 693q-10 0 -16.5 7t-6.5 16t6.5 15.5t16.5 6.5q9 0 15.5 -6.5t6.5 -15.5t-6.5 -16t-15.5 -7zM366 -21l19 24q69 0 130.5 7t109 23.5t75 44t27.5 67.5q0 35 -17.5 72.5
t-44.5 74.5t-57.5 70.5t-57.5 61t-44.5 45.5t-17.5 24q0 8 2 13.5t5.5 10t7.5 7.5q31 24 77 55t104.5 65.5t124.5 67.5l12 -21q-62 -30 -125 -67t-113.5 -71.5t-78.5 -60.5l2 10q31 -34 68 -71t71.5 -78t63 -86.5t43.5 -96.5q8 -24 19 -50.5t28 -49.5t41.5 -37.5t58.5 -14.5
q6 0 9.5 -2.5t3.5 -8.5q0 -4 -4.5 -8t-11.5 -4q-37 0 -67.5 18t-54 54t-38.5 88l14 -13q0 -45 -27.5 -76t-78 -50.5t-121 -28t-157.5 -8.5zM366 -21q-76 0 -135.5 11.5t-100.5 35t-62.5 59t-21.5 84.5q0 23 4 47.5t9.5 49t11.5 45.5l22 -6q-6 -19 -11 -40.5t-8.5 -44.5
t-3.5 -47q0 -61 36.5 -98.5t107 -54.5t171.5 -17l20 -15z" />
    <glyph glyph-name="uni063C.init" unicode="&#x63c;" horiz-adv-x="358" 
d="M0 -5l4 23h73q52 0 87.5 9t56.5 25.5t30.5 40.5t9.5 53q0 45 -28 96.5t-76 104.5q-40 45 -65.5 72t-40.5 41.5t-20.5 21t-5.5 9.5q0 9 1.5 15t5 10.5t8.5 7.5q27 21 59 43t70.5 46t83 49t94.5 50l11 -21q-51 -25 -98.5 -51.5t-88 -52.5t-74 -50t-56.5 -45v10
q41 -44 83.5 -88t78.5 -88.5t58.5 -89t22.5 -91.5q0 -37 -13 -65.5t-38.5 -47t-65 -28t-91.5 -9.5h-76zM146 -250q-11 0 -19 8t-8 18q0 11 8 19t19 8t18.5 -8t7.5 -19q0 -10 -7.5 -18t-18.5 -8zM95 -167q-11 0 -19 8t-8 18q0 11 8 19t19 8t18.5 -8t7.5 -19q0 -10 -7.5 -18
t-18.5 -8zM196 -167q-11 0 -19 8t-8 18q0 11 8 19t19 8t18.5 -8t7.5 -19q0 -10 -7.5 -18t-18.5 -8z" />
    <glyph glyph-name="uni063C.medi" unicode="&#x63c;" horiz-adv-x="429" 
d="M0 -5l4 23h79q62 0 101.5 14t58 42t18.5 72q0 30 -17 66t-44 73t-57 71.5t-57 63t-44 48t-17 25.5q0 8 2 13.5t5.5 10t7.5 7.5q26 20 58 42.5t70 46t83 49t96 50.5l11 -21q-51 -25 -98 -52t-88.5 -52.5t-74.5 -49.5t-56 -45l2 10q32 -36 69 -76t72.5 -83.5t63 -87
t38.5 -85.5q12 -42 31 -76.5t47.5 -55t68.5 -20.5q6 0 9 -2.5t3 -8.5q0 -4 -4 -8t-12 -4q-36 0 -67.5 18t-55.5 54t-38 88l16 -13q-1 -45 -18.5 -74t-46.5 -44.5t-65.5 -22t-76.5 -6.5h-77zM146 -250q-11 0 -19 8t-8 18q0 11 8 19t19 8t18.5 -8t7.5 -19q0 -10 -7.5 -18
t-18.5 -8zM95 -167q-11 0 -19 8t-8 18q0 11 8 19t19 8t18.5 -8t7.5 -19q0 -10 -7.5 -18t-18.5 -8zM196 -167q-11 0 -19 8t-8 18q0 11 8 19t19 8t18.5 -8t7.5 -19q0 -10 -7.5 -18t-18.5 -8z" />
    <glyph glyph-name="uni063C.fina" unicode="&#x63c;" horiz-adv-x="896" 
d="M366 -21l19 24q69 0 130.5 7t109 23.5t75 44t27.5 67.5q0 35 -17.5 72.5t-44.5 74.5t-57.5 70.5t-57.5 61t-44.5 45.5t-17.5 24q0 8 2 13.5t5.5 10t7.5 7.5q31 24 77 55t104.5 65.5t124.5 67.5l12 -21q-62 -30 -125 -67t-113.5 -71.5t-78.5 -60.5l2 10q31 -34 68 -71
t71.5 -78t63 -86.5t43.5 -96.5q8 -24 19 -50.5t28 -49.5t41.5 -37.5t58.5 -14.5q6 0 9.5 -2.5t3.5 -8.5q0 -4 -4.5 -8t-11.5 -4q-37 0 -67.5 18t-54 54t-38.5 88l14 -13q0 -45 -27.5 -76t-78 -50.5t-121 -28t-157.5 -8.5zM366 -21q-76 0 -135.5 11.5t-100.5 35t-62.5 59
t-21.5 84.5q0 23 4 47.5t9.5 49t11.5 45.5l22 -6q-6 -19 -11 -40.5t-8.5 -44.5t-3.5 -47q0 -61 36.5 -98.5t107 -54.5t171.5 -17l20 -15zM384 -271q-11 0 -19 8t-8 18q0 11 8 19t19 8t18.5 -8t7.5 -19q0 -10 -7.5 -18t-18.5 -8zM333 -188q-11 0 -19 8t-8 18q0 11 8 19t19 8
t18.5 -8t7.5 -19q0 -10 -7.5 -18t-18.5 -8zM434 -188q-11 0 -19 8t-8 18q0 11 8 19t19 8t18.5 -8t7.5 -19q0 -10 -7.5 -18t-18.5 -8z" />
    <glyph glyph-name="uni063D.init" unicode="&#x63d;" horiz-adv-x="234" 
d="M0 -5l4 23q52 0 79 13.5t36.5 39t9.5 61.5q0 32 -5.5 65.5t-16.5 72t-28 84.5l23 9q16 -43 27.5 -83t17.5 -76t6 -68q0 -26 -4 -48.5t-14.5 -39.5t-28 -29t-43.5 -18t-63 -6zM95 699q7 -16 17 -40.5t21 -52t22 -52t19 -40.5l-19 -9q-5 10 -15.5 33.5t-22.5 51.5
t-22.5 53.5t-16.5 40.5l-7 13zM71 697l20 -6l-15.5 -46.5t-20.5 -59t-20 -54t-13 -31.5l-20 8q4 10 13.5 34t20.5 53.5t20.5 57.5t14.5 44zM147 -170q-11 0 -19 8t-8 18q0 11 8 19t19 8t18.5 -8t7.5 -19q0 -10 -7.5 -18t-18.5 -8zM46 -170q-11 0 -19 8t-8 18q0 11 8 19t19 8
t18.5 -8t7.5 -19q0 -10 -7.5 -18t-18.5 -8z" />
    <glyph glyph-name="uni063D.medi" unicode="&#x63d;" horiz-adv-x="303" 
d="M0 -5l4 23q31 0 55.5 6.5t44 30t36.5 73t33 136.5l25 -5q-7 -36 -12.5 -59.5t-8 -42.5t-2.5 -41q0 -28 9 -50t37 -35t85 -13q8 0 10.5 -3t2.5 -8q0 -4 -4 -8t-12 -4q-56 0 -90 13.5t-47.5 40.5t-9.5 67h2q-12 -41 -27 -65t-33.5 -36t-42.5 -16t-55 -4zM164 595
q7 -16 17 -40.5t21 -52t22 -52t19 -40.5l-19 -9q-5 10 -15.5 33.5t-22.5 51.5t-22.5 53.5t-16.5 40.5l-7 13zM140 593l20 -6l-15.5 -46.5t-20.5 -59t-20 -54t-13 -31.5l-20 8q4 10 13.5 34t20.5 53.5t20.5 57.5t14.5 44zM201 -170q-11 0 -19 8t-8 18q0 11 8 19t19 8t18.5 -8
t7.5 -19q0 -10 -7.5 -18t-18.5 -8zM100 -170q-11 0 -19 8t-8 18q0 11 8 19t19 8t18.5 -8t7.5 -19q0 -10 -7.5 -18t-18.5 -8z" />
    <glyph glyph-name="uni063D.fina" unicode="&#x63d;" horiz-adv-x="703" 
d="M46 -19q0 22 4 49.5t15.5 63t34.5 81.5l22 -10q-16 -32 -27.5 -64t-17 -62t-5.5 -57q0 -43 14.5 -77.5t45.5 -59.5t79 -38t114 -13q70 0 123 17t89 43.5t54 57t18 56.5q0 20 -14 36t-37.5 29t-50.5 23.5t-55 20.5l8 24q47 -20 82 -35.5t63 -26t52.5 -16t49.5 -5.5
q7 0 9.5 -3t2.5 -8q0 -4 -4 -8t-16 -4q-9 0 -24 2t-31 6t-28 9q11 -13 14 -26.5t3 -22.5q0 -27 -18.5 -60.5t-57 -63.5t-96 -49.5t-134.5 -19.5q-80 0 -143.5 22t-100.5 69t-37 120zM232 453q7 -16 17 -40.5t21 -52t22 -52t19 -40.5l-19 -9q-5 10 -15.5 33.5t-22.5 51.5
t-22.5 53.5t-16.5 40.5l-7 13zM208 451l20 -6l-15.5 -46.5t-20.5 -59t-20 -54t-13 -31.5l-20 8q4 10 13.5 34t20.5 53.5t20.5 57.5t14.5 44z" />
    <glyph glyph-name="uni063E.init" unicode="&#x63e;" horiz-adv-x="257" 
d="M0 -5l4 23q57 0 88.5 12t44.5 37t13 65q0 31 -6 65t-17 72.5t-27 84.5l23 9q16 -43 27 -83t17.5 -76t6.5 -67q0 -35 -8 -62t-28 -44.5t-53.5 -26.5t-84.5 -9zM170 511q-11 0 -19 8t-8 19q0 10 7.5 18t19.5 8q11 0 18.5 -8t7.5 -18q0 -11 -8 -19t-18 -8zM68 511
q-11 0 -19 8t-8 19q0 10 8 18t19 8t18.5 -8t7.5 -18q0 -11 -7.5 -19t-18.5 -8zM160 -170q-11 0 -19 8t-8 18q0 11 8 19t19 8t18.5 -8t7.5 -19q0 -10 -7.5 -18t-18.5 -8zM59 -170q-11 0 -19 8t-8 18q0 11 8 19t19 8t18.5 -8t7.5 -19q0 -10 -7.5 -18t-18.5 -8z" />
    <glyph glyph-name="uni063E.medi" unicode="&#x63e;" horiz-adv-x="310" 
d="M0 -5l4 23q30 0 56 7t48 31t40 73.5t33 134.5l24 -5q-7 -36 -12.5 -59.5t-8 -42.5t-2.5 -41q0 -21 4.5 -39t18 -31t40 -20.5t69.5 -7.5q7 0 9.5 -3t2.5 -7q0 -5 -4 -9t-12 -4q-43 0 -72.5 7.5t-47 22.5t-24 38t-3.5 53h2q-12 -41 -28.5 -65t-36.5 -36t-45 -16t-55 -4z
M238 415q-11 0 -19 7.5t-8 18.5t8 19t19 8t18.5 -8t7.5 -19t-7.5 -18.5t-18.5 -7.5zM137 415q-11 0 -19 7.5t-8 18.5t7.5 19t19.5 8q11 0 18.5 -8t7.5 -19t-8 -18.5t-18 -7.5zM216 -176q-11 0 -19 8t-8 19q0 10 8 18t19 8t18.5 -8t7.5 -18q0 -11 -7.5 -19t-18.5 -8z
M115 -176q-11 0 -19 8t-8 19q0 10 8 18t19 8t18.5 -8t7.5 -18q0 -11 -7.5 -19t-18.5 -8z" />
    <glyph glyph-name="uni063E.fina" unicode="&#x63e;" horiz-adv-x="703" 
d="M46 -19q0 22 4 49.5t15.5 63t34.5 81.5l22 -10q-16 -32 -27.5 -64t-17 -62t-5.5 -57q0 -43 14.5 -77.5t45.5 -59.5t79 -38t114 -13q70 0 123 17t89 43.5t54 57t18 56.5q0 20 -14 36t-37.5 29t-50.5 23.5t-55 20.5l8 24q47 -20 82 -35.5t63 -26t52.5 -16t49.5 -5.5
q7 0 9.5 -3t2.5 -8q0 -4 -4 -8t-16 -4q-9 0 -24 2t-31 6t-28 9q11 -13 14 -26.5t3 -22.5q0 -27 -18.5 -60.5t-57 -63.5t-96 -49.5t-134.5 -19.5q-80 0 -143.5 22t-100.5 69t-37 120zM281 265q-11 0 -19 8t-8 18q0 11 8 19t19 8t18.5 -8t7.5 -19q0 -10 -7.5 -18t-18.5 -8z
M180 265q-11 0 -19 8t-8 18q0 11 8 19t19 8t18.5 -8t7.5 -19q0 -10 -7.5 -18t-18.5 -8z" />
    <glyph glyph-name="uni063F.init" unicode="&#x63f;" horiz-adv-x="257" 
d="M0 -5l4 23q57 0 88.5 12t44.5 37t13 65q0 31 -6 65t-17 72.5t-27 84.5l23 9q16 -43 27 -83t17.5 -76t6.5 -67q0 -35 -8 -62t-28 -44.5t-53.5 -26.5t-84.5 -9zM118 594q-10 0 -18 8t-8 19t8 18.5t18 7.5q11 0 19 -7.5t8 -18.5t-8 -19t-19 -8zM68 511q-10 0 -18 8t-8 19
t8 18.5t18 7.5q11 0 19 -7.5t8 -18.5t-8 -19t-19 -8zM170 511q-10 0 -18 8t-8 19t8 18.5t18 7.5q11 0 19 -7.5t8 -18.5t-8 -19t-19 -8zM160 -170q-11 0 -19 8t-8 18q0 11 8 19t19 8t18.5 -8t7.5 -19q0 -10 -7.5 -18t-18.5 -8zM59 -170q-11 0 -19 8t-8 18q0 11 8 19t19 8
t18.5 -8t7.5 -19q0 -10 -7.5 -18t-18.5 -8z" />
    <glyph glyph-name="uni063F.medi" unicode="&#x63f;" horiz-adv-x="310" 
d="M0 -5l4 23q30 0 56 7t48 31t40 73.5t33 134.5l24 -5q-7 -36 -12.5 -59.5t-8 -42.5t-2.5 -41q0 -21 4.5 -39t18 -31t40 -20.5t69.5 -7.5q7 0 9.5 -3t2.5 -7q0 -5 -4 -9t-12 -4q-43 0 -72.5 7.5t-47 22.5t-24 38t-3.5 53h2q-12 -41 -28.5 -65t-36.5 -36t-45 -16t-55 -4z
M187 498q-10 0 -18 8t-8 19t8 18.5t18 7.5q11 0 19 -7.5t8 -18.5t-8 -19t-19 -8zM137 415q-10 0 -18 8t-8 19t8 18.5t18 7.5q11 0 19 -7.5t8 -18.5t-8 -19t-19 -8zM238 415q-10 0 -18 8t-8 19t8 18.5t18 7.5q11 0 19 -7.5t8 -18.5t-8 -19t-19 -8zM216 -176q-11 0 -19 8
t-8 19q0 10 8 18t19 8t18.5 -8t7.5 -18q0 -11 -7.5 -19t-18.5 -8zM115 -176q-11 0 -19 8t-8 19q0 10 8 18t19 8t18.5 -8t7.5 -18q0 -11 -7.5 -19t-18.5 -8z" />
    <glyph glyph-name="uni063F.fina" unicode="&#x63f;" horiz-adv-x="703" 
d="M46 -19q0 22 4 49.5t15.5 63t34.5 81.5l22 -10q-16 -32 -27.5 -64t-17 -62t-5.5 -57q0 -43 14.5 -77.5t45.5 -59.5t79 -38t114 -13q70 0 123 17t89 43.5t54 57t18 56.5q0 20 -14 36t-37.5 29t-50.5 23.5t-55 20.5l8 24q47 -20 82 -35.5t63 -26t52.5 -16t49.5 -5.5
q7 0 9.5 -3t2.5 -8q0 -4 -4 -8t-16 -4q-9 0 -24 2t-31 6t-28 9q11 -13 14 -26.5t3 -22.5q0 -27 -18.5 -60.5t-57 -63.5t-96 -49.5t-134.5 -19.5q-80 0 -143.5 22t-100.5 69t-37 120zM230 348q-10 0 -18 8t-8 19t8 18.5t18 7.5q11 0 19 -7.5t8 -18.5t-8 -19t-19 -8zM180 265
q-10 0 -18 8t-8 19t8 18.5t18 7.5q11 0 19 -7.5t8 -18.5t-8 -19t-19 -8zM281 265q-10 0 -18 8t-8 19t8 18.5t18 7.5q11 0 19 -7.5t8 -18.5t-8 -19t-19 -8z" />
    <glyph glyph-name="uni066E.init" unicode="&#x66e;" horiz-adv-x="234" 
d="M0 -5l4 23q52 0 79 13.5t36.5 39t9.5 61.5q0 32 -5.5 65.5t-16.5 72t-28 84.5l23 9q16 -43 27.5 -83t17.5 -76t6 -68q0 -26 -4 -48.5t-14.5 -39.5t-28 -29t-43.5 -18t-63 -6z" />
    <glyph glyph-name="uni066E.medi" unicode="&#x66e;" horiz-adv-x="303" 
d="M0 -5l4 23q31 0 55.5 6.5t44 30t36.5 73t33 136.5l25 -5q-7 -36 -12.5 -59.5t-8 -42.5t-2.5 -41q0 -28 9 -50t37 -35t85 -13q8 0 10.5 -3t2.5 -8q0 -4 -4 -8t-12 -4q-56 0 -90 13.5t-47.5 40.5t-9.5 67h2q-12 -41 -27 -65t-33.5 -36t-42.5 -16t-55 -4z" />
    <glyph glyph-name="uni066E.fina" unicode="&#x66e;" horiz-adv-x="911" 
d="M366 -21l19 24q94 0 163.5 13.5t119 39t82.5 63.5t53 86l23 -9q-11 -28 -18.5 -52.5t-7.5 -46.5t10 -40t35 -28.5t69 -10.5q8 0 10.5 -3t2.5 -8q0 -4 -4 -8t-12 -4q-52 0 -84 15.5t-43.5 45.5t-2.5 75l8 -2q-28 -38 -66.5 -66.5t-89 -47t-117 -27.5t-150.5 -9zM366 -21
q-76 0 -135.5 11.5t-100.5 35t-62.5 59t-21.5 84.5q0 23 4 47.5t9.5 49t11.5 45.5l22 -6q-6 -19 -11 -40.5t-8.5 -44.5t-3.5 -47q0 -61 36.5 -98.5t107 -54.5t171.5 -17l20 -15z" />
    <glyph glyph-name="uni066F.init" unicode="&#x66f;" horiz-adv-x="407" 
d="M0 -5l4 23q41 0 78.5 2t71 6.5t61 13t47.5 21.5q15 10 31.5 29t27.5 55t11 96q0 51 -13.5 100.5t-39 82t-64.5 32.5q-29 0 -55.5 -26.5t-43 -66t-16.5 -80.5q0 -43 17 -65.5t44.5 -30t58.5 -7.5t63 7t54 18l4 -21q-16 -10 -38 -16.5t-45 -9t-42 -2.5q-37 0 -69 11
t-51.5 38.5t-19.5 73.5q0 34 11 69t29.5 65.5t45 49t57.5 18.5q44 0 74.5 -34.5t46.5 -90.5t16 -121q0 -60 -16 -107.5t-62 -81.5q-18 -13 -43 -22.5t-59 -16t-77.5 -9.5t-98.5 -3z" />
    <glyph glyph-name="uni066F.medi" unicode="&#x66f;" horiz-adv-x="434" 
d="M0 -5l4 23q26 0 51.5 2.5t50.5 8t48.5 13.5t45.5 18q38 18 67 40.5t46 52t17 69.5q0 30 -13 64t-37.5 58t-61.5 24q-29 0 -56.5 -20t-45 -54t-17.5 -75q0 -42 17 -72t44.5 -51t58.5 -35l-28 -9q-25 13 -51 34t-44.5 53.5t-18.5 79.5q0 36 11.5 67.5t31.5 55t45.5 36.5
t52.5 13q39 0 69 -24t47.5 -62t17.5 -82q0 -31 -10 -57.5t-27 -48.5t-41 -39.5t-53 -32.5q-24 -13 -50.5 -22.5t-54.5 -15.5t-57.5 -9t-58.5 -3zM434 -5q-35 0 -80.5 7t-88 19t-68.5 26l24 13q21 -8 51 -17.5t71.5 -17t93.5 -7.5q7 0 10 -2.5t3 -8.5q0 -4 -4.5 -8t-11.5 -4z
" />
    <glyph glyph-name="uni066F.fina" unicode="&#x66f;" horiz-adv-x="770" 
d="M316 -272q-62 0 -111.5 13.5t-85 41.5t-54.5 72.5t-19 106.5q0 10 3 38.5t15 70t39 89.5l21 -11q-13 -22 -25.5 -50.5t-20.5 -62t-8 -70.5q0 -82 33 -128.5t90.5 -66t128.5 -19.5q33 0 73.5 4.5t81 17t77 36t64 62t38.5 95.5q4 19 6 43.5t2 47.5q0 65 -15 117t-40.5 82.5
t-58.5 30.5q-25 0 -46 -16.5t-37 -43t-25.5 -57.5t-9.5 -60q0 -31 11.5 -49.5t31.5 -28t46.5 -12.5t55.5 -3h196q6 0 9.5 -2.5t3.5 -8.5q0 -4 -4.5 -8t-11.5 -4h-197q-29 0 -58.5 4t-53.5 15.5t-38.5 34t-14.5 59.5q0 33 10.5 68.5t29.5 66.5t45.5 50t59.5 19q42 0 72 -34
t46.5 -91.5t16.5 -129.5q0 -28 -3 -56t-8 -51q-17 -71 -57 -115t-93 -67t-108 -31.5t-103 -8.5z" />
    <glyph glyph-name="uni0672.fina" unicode="&#x672;" horiz-adv-x="240" 
d="M240 -5q-51 0 -79 12.5t-40 47t-15 99.5l-18 490h23l18 -479q3 -62 11.5 -94t32 -42.5t70.5 -10.5q8 0 10.5 -3t2.5 -8q0 -4 -4 -8t-12 -4zM-76 720l-16 11q13 20 27 30t31 10q22 0 39 -11.5t36 -11.5q12 0 28.5 4t24.5 8l14 -7q-46 5 -75 32.5t-29 64.5t27 57.5t61 20.5
q12 0 24 -2t22 -6l-5 -20q-10 3 -20 4.5t-20 1.5q-35 0 -51 -17t-16 -40q0 -22 12.5 -39t34 -27.5t48.5 -15.5l-23 -5q27 7 43 14t32 15l8 -18q-10 -6 -28 -14t-39 -15t-41 -12t-33 -5q-25 0 -41.5 11.5t-33.5 11.5q-13 0 -22.5 -9.5t-18.5 -20.5z" />
    <glyph glyph-name="uni0673.fina" unicode="&#x673;" horiz-adv-x="246" 
d="M246 -5q-53 0 -82 12.5t-41 47t-15 99.5l-20 560h23l20 -549q3 -64 11.5 -95.5t33 -41.5t73.5 -10q8 0 10.5 -3t2.5 -8q0 -4 -4 -8t-12 -4zM-17 -292l-17 11q13 20 27 30t32 10q21 0 38 -11.5t36 -11.5q12 0 29 4t25 8l14 -7q-46 5 -75.5 32.5t-29.5 64.5t27.5 57.5
t61.5 20.5q12 0 24 -2t22 -6l-5 -20q-10 3 -20 4.5t-20 1.5q-35 0 -51.5 -17t-16.5 -40q0 -22 13 -39t34.5 -27.5t48.5 -15.5l-23 -5q27 7 43 14t32 15l8 -18q-10 -6 -28.5 -14t-39.5 -15t-40.5 -12t-33.5 -5q-24 0 -41 11.5t-33 11.5q-13 0 -23 -9.5t-18 -20.5z" />
    <glyph glyph-name="uni0675.fina" unicode="&#x675;" horiz-adv-x="405" 
d="M405 -5h-161q-52 0 -80.5 12.5t-40.5 47t-15 99.5l-20 560h23l20 -549q3 -64 11.5 -95.5t32.5 -41.5t72 -10h161q8 0 10.5 -3t2.5 -8q0 -4 -4 -8t-12 -4zM195 592l-5 22q26 6 43 10.5t37 10.5l30 -7q-49 5 -77 33t-28 62q0 26 13 44t33.5 27t41.5 9q13 0 25.5 -2t22.5 -6
l-5 -20q-10 3 -20.5 4.5t-21.5 1.5q-33 0 -50 -17t-17 -41q0 -21 13 -38t34.5 -27.5t48.5 -15.5l-40 -5q27 7 50.5 14.5t42.5 14.5l7 -20q-24 -9 -55 -19t-63 -19t-60 -16z" />
    <glyph glyph-name="uni0676.fina" unicode="&#x676;" horiz-adv-x="441" 
d="M54 -230l-6 23q53 11 104.5 30t92.5 51t65.5 81t24.5 120q0 105 -33.5 159t-79.5 54q-29 0 -56.5 -25t-45 -64t-17.5 -80q0 -34 11.5 -54.5t32 -30.5t48.5 -13t61 -3h189q6 0 9 -2.5t3 -8.5q0 -4 -4 -8t-12 -4h-185q-50 0 -90.5 8.5t-63.5 34.5t-23 78q0 35 11.5 69.5
t31.5 63t46.5 46t55.5 17.5q41 0 71 -29t47 -83t17 -128q0 -79 -34 -140.5t-102 -102t-169 -59.5zM276 380l-5 22q25 6 44 11.5t36 9.5l30 -7q-46 5 -75 33t-29 62q0 26 12.5 44t33 27t41.5 9q13 0 25.5 -2t22.5 -6l-5 -20q-10 3 -21 4.5t-22 1.5q-33 0 -49 -17.5t-16 -40.5
q0 -21 13.5 -38t35 -27.5t46.5 -15.5l-39 -5q27 7 49.5 14.5t42.5 14.5l7 -20q-24 -9 -55.5 -19t-63 -19t-59.5 -16z" />
    <glyph glyph-name="uni0677.fina" unicode="&#x677;" horiz-adv-x="512" 
d="M117 -230l-6 23q53 11 104.5 30t92.5 51t65.5 81t24.5 120q0 105 -33.5 159t-79.5 54q-29 0 -56.5 -25t-45 -64t-17.5 -80q0 -34 11.5 -54.5t32 -30.5t48.5 -13t61 -3h189q6 0 9 -2.5t3 -8.5q0 -4 -4 -8t-12 -4h-185q-50 0 -90.5 8.5t-63.5 34.5t-23 78q0 35 11.5 69.5
t31.5 63t46.5 46t55.5 17.5q41 0 71 -29t47 -83t17 -128q0 -79 -34 -140.5t-102 -102t-169 -59.5zM340 399l-5 22q25 6 44 11.5t36 9.5l30 -7q-46 5 -75 33t-29 62q0 26 12.5 44t33 27t41.5 9q13 0 25.5 -2t22.5 -6l-5 -20q-10 3 -21 4.5t-22 1.5q-33 0 -49 -17.5t-16 -40.5
q0 -21 13.5 -38t35 -27.5t46.5 -15.5l-39 -5q27 7 49.5 14.5t42.5 14.5l7 -20q-24 -9 -55.5 -19t-63 -19t-59.5 -16zM52 390l-4 20q56 6 92.5 24t54 43.5t17.5 54.5q0 22 -10 41t-35 19q-21 0 -33.5 -15t-12.5 -35q0 -31 27.5 -48.5t56.5 -21.5l-11 -18q-43 7 -69 31t-26 57
q0 30 20.5 50.5t48.5 20.5q24 0 45 -18.5t21 -60.5q0 -39 -22.5 -69.5t-63.5 -49.5t-96 -25z" />
    <glyph glyph-name="uni0678.init" unicode="&#x678;" horiz-adv-x="322" 
d="M0 -5l4 23q52 0 79 13.5t36.5 39t9.5 61.5q0 32 -5.5 65.5t-16.5 72t-28 84.5l23 9q16 -43 27.5 -83t17.5 -76t6 -68q0 -26 -4 -48.5t-14.5 -39.5t-28 -29t-43.5 -18t-63 -6zM138 592l-5 22q26 6 43.5 10.5t37.5 10.5l30 -7q-49 5 -77.5 33t-28.5 62q0 26 13 44t33.5 27
t42.5 9q13 0 25.5 -2t22.5 -6l-5 -20q-10 3 -20.5 4.5t-21.5 1.5q-34 0 -51 -17t-17 -41q0 -21 13 -38t35 -27.5t49 -15.5l-40 -5q27 7 50.5 14.5t42.5 14.5l7 -20q-24 -9 -55.5 -19t-63.5 -19t-60 -16z" />
    <glyph glyph-name="uni0678.medi" unicode="&#x678;" horiz-adv-x="305" 
d="M0 -5l4 23q31 0 55.5 6.5t44 30t36.5 73t33 136.5l25 -5q-7 -36 -12.5 -59.5t-8 -42.5t-2.5 -41q0 -28 9 -50t37 -35t85 -13q8 0 10.5 -3t2.5 -8q0 -4 -4 -8t-12 -4q-56 0 -90 13.5t-47.5 40.5t-9.5 67h2q-12 -41 -27 -65t-33.5 -36t-42.5 -16t-55 -4zM141 423l-5 22
q26 6 43.5 10.5t37.5 10.5l30 -7q-49 5 -77.5 33t-28.5 62q0 26 13 44t33.5 27t42.5 9q13 0 25.5 -2t22.5 -6l-5 -20q-10 3 -20.5 4.5t-21.5 1.5q-34 0 -51 -17t-17 -41q0 -21 13 -38t35 -27.5t49 -15.5l-40 -5q27 7 50.5 14.5t42.5 14.5l7 -20q-24 -9 -55.5 -19t-63.5 -19
t-60 -16z" />
    <glyph glyph-name="uni0678.fina" unicode="&#x678;" horiz-adv-x="703" 
d="M46 -19q0 22 4 49.5t15.5 63t34.5 81.5l22 -10q-16 -32 -27.5 -64t-17 -62t-5.5 -57q0 -43 14.5 -77.5t45.5 -59.5t79 -38t114 -13q70 0 123 17t89 43.5t54 57t18 56.5q0 20 -14 36t-37.5 29t-50.5 23.5t-55 20.5l8 24q47 -20 82 -35.5t63 -26t52.5 -16t49.5 -5.5
q7 0 9.5 -3t2.5 -8q0 -4 -4 -8t-16 -4q-9 0 -24 2t-31 6t-28 9q11 -13 14 -26.5t3 -22.5q0 -27 -18.5 -60.5t-57 -63.5t-96 -49.5t-134.5 -19.5q-80 0 -143.5 22t-100.5 69t-37 120zM477 219l-5 22q26 6 43.5 10.5t37.5 10.5l30 -7q-49 5 -77.5 33t-28.5 62q0 26 13 44
t33.5 27t42.5 9q13 0 25.5 -2t22.5 -6l-5 -20q-10 3 -20.5 4.5t-21.5 1.5q-34 0 -51 -17t-17 -41q0 -21 13 -38t35 -27.5t49 -15.5l-40 -5q27 7 50.5 14.5t42.5 14.5l7 -20q-24 -9 -55.5 -19t-63.5 -19t-60 -16z" />
    <glyph glyph-name="uni067C.init" unicode="&#x67c;" horiz-adv-x="257" 
d="M0 -5l4 23q57 0 88.5 12t44.5 37t13 65q0 31 -6 65t-17 72.5t-27 84.5l23 9q16 -43 27 -83t17.5 -76t6.5 -67q0 -35 -8 -62t-28 -44.5t-53.5 -26.5t-84.5 -9zM113 -114q-31 0 -52.5 22t-21.5 54q0 31 21.5 52.5t52.5 21.5t53.5 -21.5t22.5 -52.5t-22.5 -53.5t-53.5 -22.5
zM113 -92q21 0 37 15.5t16 38.5q0 22 -15.5 37.5t-37.5 15.5t-37 -15.5t-15 -37.5t15 -38t37 -16zM170 511q-11 0 -19 8t-8 19q0 10 7.5 18t19.5 8q11 0 18.5 -8t7.5 -18q0 -11 -8 -19t-18 -8zM68 511q-11 0 -19 8t-8 19q0 10 8 18t19 8t18.5 -8t7.5 -18q0 -11 -7.5 -19
t-18.5 -8z" />
    <glyph glyph-name="uni067C.medi" unicode="&#x67c;" horiz-adv-x="303" 
d="M95 -121q-31 0 -52.5 22t-21.5 53t21.5 53t52.5 22t53.5 -22t22.5 -53t-22 -53t-54 -22zM95 -100q21 0 37 16t16 38q0 23 -15.5 38.5t-37.5 15.5q-21 0 -36.5 -15.5t-15.5 -38.5q0 -22 15.5 -38t36.5 -16zM0 -5l4 23q31 0 55.5 6.5t44 30t36.5 73t33 136.5l25 -5
q-7 -36 -12.5 -59.5t-8 -42.5t-2.5 -41q0 -28 9 -50t37 -35t85 -13q8 0 10.5 -3t2.5 -7q0 -5 -4 -9t-12 -4q-56 0 -90 13.5t-47.5 40.5t-9.5 67h2q-12 -41 -27 -65t-33.5 -36t-42.5 -16t-55 -4zM246 415q-11 0 -19 7.5t-8 18.5t7.5 19t19.5 8q11 0 18.5 -8t7.5 -19t-8 -18.5
t-18 -7.5zM144 415q-11 0 -19 7.5t-8 18.5t8 19t20 8q10 0 17.5 -8t7.5 -19t-7.5 -18.5t-18.5 -7.5z" />
    <glyph glyph-name="uni067C.fina" unicode="&#x67c;" horiz-adv-x="911" 
d="M449 -148q-30 0 -52 22.5t-22 53.5t22 52.5t52 21.5q31 0 53.5 -21.5t22.5 -52.5t-22 -53.5t-54 -22.5zM450 -126q21 0 37 15.5t16 38.5q0 22 -16 37.5t-38 15.5q-21 0 -36.5 -15.5t-15.5 -37.5q0 -23 15.5 -38.5t37.5 -15.5zM366 -21l19 24q94 0 163.5 13.5t119 39
t82.5 63.5t53 86l23 -9q-11 -28 -18.5 -52.5t-7.5 -46.5t10 -40t35 -28.5t69 -10.5q8 0 10.5 -3t2.5 -7q0 -5 -4 -9t-12 -4q-52 0 -84 15.5t-43.5 45.5t-2.5 75l8 -2q-28 -38 -66.5 -66.5t-89 -47t-117 -27.5t-150.5 -9zM366 -21q-76 0 -135.5 11.5t-100.5 35t-62.5 59
t-21.5 84.5q0 23 4 47.5t9.5 49t11.5 45.5l22 -6q-6 -19 -11 -40.5t-8.5 -44.5t-3.5 -47q0 -60 36.5 -98t107 -55t171.5 -17l20 -15zM474 433q-11 0 -19 8t-8 18q0 11 8 19t19 8t18.5 -8t7.5 -19q0 -10 -7.5 -18t-18.5 -8zM373 433q-11 0 -19 8t-8 18q0 11 8 19t19 8
t18.5 -8t7.5 -19q0 -10 -7.5 -18t-18.5 -8z" />
    <glyph glyph-name="uni067D.init" unicode="&#x67d;" horiz-adv-x="257" 
d="M0 -5l4 23q57 0 88.5 12t44.5 37t13 65q0 31 -6 65t-17 72.5t-27 84.5l23 9q16 -43 27 -83t17.5 -76t6.5 -67q0 -35 -8 -62t-28 -44.5t-53.5 -26.5t-84.5 -9zM120 511q-12 0 -20 8t-8 19q0 10 8 18t20 8q10 0 17.5 -8t7.5 -18q0 -11 -7.5 -19t-17.5 -8zM68 594
q-11 0 -19 8t-8 19q0 10 8 18t19 8t18.5 -8t7.5 -18q0 -11 -7.5 -19t-18.5 -8zM170 594q-11 0 -19 8t-8 19q0 10 7.5 18t19.5 8q11 0 18.5 -8t7.5 -18q0 -11 -8 -19t-18 -8z" />
    <glyph glyph-name="uni067D.medi" unicode="&#x67d;" horiz-adv-x="310" 
d="M0 -5l4 23q30 0 56 7t48 31t40 73.5t33 134.5l24 -5q-7 -36 -12.5 -59.5t-8 -42.5t-2.5 -41q0 -21 4.5 -39t18 -31t40 -20.5t69.5 -7.5q7 0 9.5 -3t2.5 -7q0 -5 -4 -9t-12 -4q-43 0 -72.5 7.5t-47 22.5t-24 38t-3.5 53h2q-12 -41 -28.5 -65t-36.5 -36t-45 -16t-55 -4z
M188 415q-11 0 -19 7.5t-8 18.5t8 19t19 8t18.5 -8t7.5 -19t-7.5 -18.5t-18.5 -7.5zM137 498q-11 0 -19 7.5t-8 18.5t7.5 19t19.5 8q11 0 18.5 -8t7.5 -19t-8 -18.5t-18 -7.5zM238 498q-11 0 -19 7.5t-8 18.5t8 19t19 8t18.5 -8t7.5 -19t-7.5 -18.5t-18.5 -7.5z" />
    <glyph glyph-name="uni067D.fina" unicode="&#x67d;" horiz-adv-x="911" 
d="M366 -21l19 24q94 0 163.5 13.5t119 39t82.5 63.5t53 86l23 -9q-11 -28 -18.5 -52.5t-7.5 -46.5t10 -40t35 -28.5t69 -10.5q8 0 10.5 -3t2.5 -8q0 -4 -4 -8t-12 -4q-52 0 -84 15.5t-43.5 45.5t-2.5 75l8 -2q-28 -38 -66.5 -66.5t-89 -47t-117 -27.5t-150.5 -9zM366 -21
q-76 0 -135.5 11.5t-100.5 35t-62.5 59t-21.5 84.5q0 23 4 47.5t9.5 49t11.5 45.5l22 -6q-6 -19 -11 -40.5t-8.5 -44.5t-3.5 -47q0 -61 36.5 -98.5t107 -54.5t171.5 -17l20 -15zM428 433q-11 0 -19 8t-8 18q0 11 8 19t19 8t18.5 -8t7.5 -19q0 -10 -7.5 -18t-18.5 -8z
M377 516q-11 0 -19 8t-8 18q0 11 8 19t19 8t18.5 -8t7.5 -19q0 -10 -7.5 -18t-18.5 -8zM478 516q-11 0 -19 8t-8 18q0 11 8 19t19 8t18.5 -8t7.5 -19q0 -10 -7.5 -18t-18.5 -8z" />
    <glyph glyph-name="uni0681.init" unicode="&#x681;" horiz-adv-x="526" 
d="M0 -5l4 23q53 0 98 8t90 24.5t94 43t108 63.5q-49 37 -90 64.5t-80.5 43t-84.5 15.5q-14 0 -27.5 -0.5t-28 -3t-31.5 -7.5l-4 23q22 7 45.5 9.5t45.5 2.5q48 0 86.5 -13.5t69.5 -33t56.5 -39.5t48 -33.5t45.5 -13.5h21l3 -23q-29 0 -56 -11.5t-56 -28.5t-63 -36.5
t-76 -37t-96 -28.5t-122 -11zM53 406l-5 22q25 6 44 11.5t36 9.5l30 -7q-46 5 -75 33t-29 62q0 26 12.5 44t33 27t41.5 9q13 0 25.5 -2t22.5 -6l-5 -20q-10 3 -21 4.5t-22 1.5q-33 0 -49 -17.5t-16 -40.5q0 -21 13.5 -38t35 -27.5t46.5 -15.5l-39 -5q27 7 49.5 14.5
t42.5 14.5l7 -20q-24 -9 -55.5 -19t-63 -19t-59.5 -16z" />
    <glyph glyph-name="uni0681.medi" unicode="&#x681;" horiz-adv-x="559" 
d="M559 -5q-33 0 -63 2.5t-55.5 15t-44.5 41.5t-30 81l20 8q13 -61 37.5 -87.5t59.5 -32t80 -5.5q8 0 10.5 -3t2.5 -8q0 -4 -4.5 -8t-12.5 -4zM0 -5l4 23q53 0 98 8t90 24.5t94 43t108 63.5q-49 37 -90 64.5t-80.5 43t-84.5 15.5q-14 0 -27.5 -0.5t-28 -3t-31.5 -7.5l-4 23
q22 7 45.5 9.5t45.5 2.5q48 0 86.5 -13.5t69.5 -33t56.5 -39.5t48 -33.5t45.5 -13.5h21l3 -23q-29 0 -56 -11.5t-56 -28.5t-63 -36.5t-76 -37t-96 -28.5t-122 -11zM57 405l-5 22q25 6 44 11.5t36 9.5l30 -7q-46 5 -75 33t-29 62q0 26 12.5 44t33 27t41.5 9q13 0 25.5 -2
t22.5 -6l-5 -20q-10 3 -21 4.5t-22 1.5q-33 0 -49 -17.5t-16 -40.5q0 -21 13.5 -38t35 -27.5t46.5 -15.5l-39 -5q27 7 49.5 14.5t42.5 14.5l7 -20q-24 -9 -55.5 -19t-63 -19t-59.5 -16z" />
    <glyph glyph-name="uni0681.fina" unicode="&#x681;" horiz-adv-x="599" 
d="M599 -5q-55 0 -96.5 10t-70.5 35.5t-45.5 71t-19.5 117.5l21 7q3 -67 17 -110t40.5 -66.5t65.5 -32.5t91 -9q8 0 10.5 -3t2.5 -8q0 -4 -4 -8t-12 -4zM341 -394q-61 0 -114.5 16.5t-94.5 50t-64.5 83t-23.5 115.5q0 72 26.5 131t70 105t97.5 78.5t109.5 52.5t104.5 27
l2 -8q-33 5 -64.5 16.5t-64.5 25.5t-71 23.5t-84 9.5q-35 0 -57.5 -5.5t-42.5 -12.5l-4 23q21 8 49 13.5t58 5.5q38 0 73 -8t67 -20t62.5 -24t60.5 -20.5t60 -9.5h8v-27q-43 0 -91 -11.5t-96.5 -33.5t-93 -54.5t-79.5 -74.5t-55 -93t-20 -110q0 -62 22.5 -107.5t61 -74.5
t88 -43.5t104.5 -14.5q53 0 94 9t73 20l8 -21q-36 -15 -83.5 -23.5t-95.5 -8.5zM212 492l-5 22q25 6 44 11.5t36 9.5l30 -7q-46 5 -75 33t-29 62q0 26 12.5 44t33 27t41.5 9q13 0 25.5 -2t22.5 -6l-5 -20q-10 3 -21 4.5t-22 1.5q-33 0 -49 -17.5t-16 -40.5q0 -21 13.5 -38
t35 -27.5t46.5 -15.5l-39 -5q27 7 49.5 14.5t42.5 14.5l7 -20q-24 -9 -55.5 -19t-63 -19t-59.5 -16z" />
    <glyph glyph-name="uni0682.init" unicode="&#x682;" horiz-adv-x="526" 
d="M0 -5l4 23q53 0 98 8t90 24.5t94 43t108 63.5q-49 37 -90 64.5t-80.5 43t-84.5 15.5q-14 0 -27.5 -0.5t-28 -3t-31.5 -7.5l-4 23q22 7 45.5 9.5t45.5 2.5q48 0 86.5 -13.5t69.5 -33t56.5 -39.5t48 -33.5t45.5 -13.5h21l3 -23q-29 0 -56 -11.5t-56 -28.5t-63 -36.5
t-76 -37t-96 -28.5t-122 -11zM140 439q-11 0 -19 8t-8 18q0 11 8 19t19 8t18.5 -8t7.5 -19q0 -10 -7.5 -18t-18.5 -8zM139 547q-11 0 -19 8t-8 18q0 11 8 19t19 8t18.5 -8t7.5 -19q0 -10 -7.5 -18t-18.5 -8z" />
    <glyph glyph-name="uni0682.medi" unicode="&#x682;" horiz-adv-x="559" 
d="M559 -5q-33 0 -63 2.5t-55.5 15t-44.5 41.5t-30 81l20 8q13 -61 37.5 -87.5t59.5 -32t80 -5.5q8 0 10.5 -3t2.5 -8q0 -4 -4.5 -8t-12.5 -4zM0 -5l4 23q53 0 98 8t90 24.5t94 43t108 63.5q-49 37 -90 64.5t-80.5 43t-84.5 15.5q-14 0 -27.5 -0.5t-28 -3t-31.5 -7.5l-4 23
q22 7 45.5 9.5t45.5 2.5q48 0 86.5 -13.5t69.5 -33t56.5 -39.5t48 -33.5t45.5 -13.5h21l3 -23q-29 0 -56 -11.5t-56 -28.5t-63 -36.5t-76 -37t-96 -28.5t-122 -11zM144 438q-11 0 -19 8t-8 18q0 11 8 19t19 8t18.5 -8t7.5 -19q0 -10 -7.5 -18t-18.5 -8zM143 546q-11 0 -19 8
t-8 18q0 11 8 19t19 8t18.5 -8t7.5 -19q0 -10 -7.5 -18t-18.5 -8z" />
    <glyph glyph-name="uni0682.fina" unicode="&#x682;" horiz-adv-x="599" 
d="M599 -5q-55 0 -96.5 10t-70.5 35.5t-45.5 71t-19.5 117.5l21 7q3 -67 17 -110t40.5 -66.5t65.5 -32.5t91 -9q8 0 10.5 -3t2.5 -8q0 -4 -4 -8t-12 -4zM341 -394q-61 0 -114.5 16.5t-94.5 50t-64.5 83t-23.5 115.5q0 72 26.5 131t70 105t97.5 78.5t109.5 52.5t104.5 27
l2 -8q-33 5 -64.5 16.5t-64.5 25.5t-71 23.5t-84 9.5q-35 0 -57.5 -5.5t-42.5 -12.5l-4 23q21 8 49 13.5t58 5.5q38 0 73 -8t67 -20t62.5 -24t60.5 -20.5t60 -9.5h8v-27q-43 0 -91 -11.5t-96.5 -33.5t-93 -54.5t-79.5 -74.5t-55 -93t-20 -110q0 -62 22.5 -107.5t61 -74.5
t88 -43.5t104.5 -14.5q53 0 94 9t73 20l8 -21q-36 -15 -83.5 -23.5t-95.5 -8.5zM303 505q-11 0 -19 8t-8 18q0 11 8 19t19 8t18.5 -8t7.5 -19q0 -10 -7.5 -18t-18.5 -8zM302 613q-11 0 -19 8t-8 18q0 11 8 19t19 8t18.5 -8t7.5 -19q0 -10 -7.5 -18t-18.5 -8z" />
    <glyph glyph-name="uni0685.init" unicode="&#x685;" horiz-adv-x="526" 
d="M0 -5l4 23q53 0 98 8t90 24.5t94 43t108 63.5q-49 37 -90 64.5t-80.5 43t-84.5 15.5q-14 0 -27.5 -0.5t-28 -3t-31.5 -7.5l-4 23q22 7 45.5 9.5t45.5 2.5q48 0 86.5 -13.5t69.5 -33t56.5 -39.5t48 -33.5t45.5 -13.5h21l3 -23q-29 0 -56 -11.5t-56 -28.5t-63 -36.5
t-76 -37t-96 -28.5t-122 -11zM141 515q-10 0 -18 8t-8 19t8 18.5t18 7.5q11 0 19 -7.5t8 -18.5t-8 -19t-19 -8zM91 432q-10 0 -18 8t-8 19t8 18.5t18 7.5q11 0 19 -7.5t8 -18.5t-8 -19t-19 -8zM192 432q-10 0 -18 8t-8 19t8 18.5t18 7.5q11 0 19 -7.5t8 -18.5t-8 -19t-19 -8
z" />
    <glyph glyph-name="uni0685.medi" unicode="&#x685;" horiz-adv-x="559" 
d="M559 -5q-33 0 -63 2.5t-55.5 15t-44.5 41.5t-30 81l20 8q13 -61 37.5 -87.5t59.5 -32t80 -5.5q8 0 10.5 -3t2.5 -8q0 -4 -4.5 -8t-12.5 -4zM0 -5l4 23q53 0 98 8t90 24.5t94 43t108 63.5q-49 37 -90 64.5t-80.5 43t-84.5 15.5q-14 0 -27.5 -0.5t-28 -3t-31.5 -7.5l-4 23
q22 7 45.5 9.5t45.5 2.5q48 0 86.5 -13.5t69.5 -33t56.5 -39.5t48 -33.5t45.5 -13.5h21l3 -23q-29 0 -56 -11.5t-56 -28.5t-63 -36.5t-76 -37t-96 -28.5t-122 -11zM145 514q-10 0 -18 8t-8 19t8 18.5t18 7.5q11 0 19 -7.5t8 -18.5t-8 -19t-19 -8zM95 431q-10 0 -18 8t-8 19
t8 18.5t18 7.5q11 0 19 -7.5t8 -18.5t-8 -19t-19 -8zM196 431q-10 0 -18 8t-8 19t8 18.5t18 7.5q11 0 19 -7.5t8 -18.5t-8 -19t-19 -8z" />
    <glyph glyph-name="uni0685.fina" unicode="&#x685;" horiz-adv-x="599" 
d="M599 -5q-55 0 -96.5 10t-70.5 35.5t-45.5 71t-19.5 117.5l21 7q3 -67 17 -110t40.5 -66.5t65.5 -32.5t91 -9q8 0 10.5 -3t2.5 -8q0 -4 -4 -8t-12 -4zM341 -394q-61 0 -114.5 16.5t-94.5 50t-64.5 83t-23.5 115.5q0 72 26.5 131t70 105t97.5 78.5t109.5 52.5t104.5 27
l2 -8q-33 5 -64.5 16.5t-64.5 25.5t-71 23.5t-84 9.5q-35 0 -57.5 -5.5t-42.5 -12.5l-4 23q21 8 49 13.5t58 5.5q38 0 73 -8t67 -20t62.5 -24t60.5 -20.5t60 -9.5h8v-27q-43 0 -91 -11.5t-96.5 -33.5t-93 -54.5t-79.5 -74.5t-55 -93t-20 -110q0 -62 22.5 -107.5t61 -74.5
t88 -43.5t104.5 -14.5q53 0 94 9t73 20l8 -21q-36 -15 -83.5 -23.5t-95.5 -8.5zM311 588q-10 0 -18 8t-8 19t8 18.5t18 7.5q11 0 19 -7.5t8 -18.5t-8 -19t-19 -8zM261 505q-10 0 -18 8t-8 19t8 18.5t18 7.5q11 0 19 -7.5t8 -18.5t-8 -19t-19 -8zM362 505q-10 0 -18 8t-8 19
t8 18.5t18 7.5q11 0 19 -7.5t8 -18.5t-8 -19t-19 -8z" />
    <glyph glyph-name="uni0689.fina" unicode="&#x689;" horiz-adv-x="459" 
d="M200 -132q-31 0 -53 22t-22 53t22 53t53 22t53 -22t22 -53t-22 -53t-53 -22zM200 -111q21 0 37 16t16 38t-15.5 37.5t-37.5 15.5t-37.5 -15.5t-15.5 -37.5t15.5 -38t37.5 -16zM167 18q47 0 74 14.5t39 38.5t12 53q0 21 -5 47.5t-19 62t-40 82t-68 106.5l20 14
q44 -63 71 -114t41 -90.5t19 -67.5q9 -46 25.5 -79t46 -50t79.5 -17q8 0 10.5 -3t2.5 -8q0 -4 -4 -8t-12 -4q-51 0 -83.5 17t-50 48.5t-25.5 75.5l13 -11q0 -30 -12 -60t-43.5 -50t-90.5 -20q-24 0 -49 3.5t-47 10t-39 16.5l10 21q26 -15 60 -21.5t65 -6.5z" />
    <glyph glyph-name="uni068A.fina" unicode="&#x68a;" horiz-adv-x="459" 
d="M167 18q47 0 74 14.5t39 38.5t12 53q0 21 -5 47.5t-19 62t-40 82t-68 106.5l20 14q44 -63 71 -114t41 -90.5t19 -67.5q9 -46 25.5 -79t46 -50t79.5 -17q8 0 10.5 -3t2.5 -8q0 -4 -4 -8t-12 -4q-51 0 -83.5 17t-50 48.5t-25.5 75.5l13 -11q0 -30 -12 -60t-43.5 -50
t-90.5 -20q-24 0 -49 3.5t-47 10t-39 16.5l10 21q26 -15 60 -21.5t65 -6.5zM162 -171q-11 0 -19 8t-8 18q0 11 8 19t19 8t18.5 -8t7.5 -19q0 -10 -7.5 -18t-18.5 -8z" />
    <glyph glyph-name="uni068B.fina" unicode="&#x68b;" horiz-adv-x="459" 
d="M167 18q47 0 74 14.5t39 38.5t12 53q0 21 -5 47.5t-19 62t-40 82t-68 106.5l20 14q44 -63 71 -114t41 -90.5t19 -67.5q9 -46 25.5 -79t46 -50t79.5 -17q8 0 10.5 -3t2.5 -8q0 -4 -4 -8t-12 -4q-51 0 -83.5 17t-50 48.5t-25.5 75.5l13 -11q0 -30 -12 -60t-43.5 -50
t-90.5 -20q-24 0 -49 3.5t-47 10t-39 16.5l10 21q26 -15 60 -21.5t65 -6.5zM140 593q-13 0 -31.5 1t-36 3t-29.5 3l1 18q33 -3 57.5 -5t43.5 -2q37 0 62 10t38 26t13 34q0 20 -10.5 33.5t-30.5 13.5q-25 0 -48.5 -17.5t-43 -44.5t-35.5 -54l-17 3q17 32 39.5 62t49 49.5
t56.5 19.5q27 0 42.5 -17.5t15.5 -46.5q0 -27 -16.5 -47t-46.5 -31t-73 -11zM97 652l-6 194h17l6 -173zM162 -171q-11 0 -19 8t-8 18q0 11 8 19t19 8t18.5 -8t7.5 -19q0 -10 -7.5 -18t-18.5 -8z" />
    <glyph glyph-name="uni068F.fina" unicode="&#x68f;" horiz-adv-x="459" 
d="M167 18q47 0 74 14.5t39 38.5t12 53q0 21 -5 47.5t-19 62t-40 82t-68 106.5l20 14q44 -63 71 -114t41 -90.5t19 -67.5q9 -46 25.5 -79t46 -50t79.5 -17q8 0 10.5 -3t2.5 -8q0 -4 -4 -8t-12 -4q-51 0 -83.5 17t-50 48.5t-25.5 75.5l13 -11q0 -30 -12 -60t-43.5 -50
t-90.5 -20q-24 0 -49 3.5t-47 10t-39 16.5l10 21q26 -15 60 -21.5t65 -6.5zM163 591q-11 0 -19 8t-8 18q0 11 8 19t19 8t18.5 -8t7.5 -19q0 -10 -7.5 -18t-18.5 -8zM112 674q-11 0 -19 8t-8 18q0 11 8 19t19 8t18.5 -8t7.5 -19q0 -10 -7.5 -18t-18.5 -8zM213 674
q-11 0 -19 8t-8 18q0 11 8 19t19 8t18.5 -8t7.5 -19q0 -10 -7.5 -18t-18.5 -8z" />
    <glyph glyph-name="uni0690.fina" unicode="&#x690;" horiz-adv-x="459" 
d="M167 18q47 0 74 14.5t39 38.5t12 53q0 21 -5 47.5t-19 62t-40 82t-68 106.5l20 14q44 -63 71 -114t41 -90.5t19 -67.5q9 -46 25.5 -79t46 -50t79.5 -17q8 0 10.5 -3t2.5 -8q0 -4 -4 -8t-12 -4q-51 0 -83.5 17t-50 48.5t-25.5 75.5l13 -11q0 -30 -12 -60t-43.5 -50
t-90.5 -20q-24 0 -49 3.5t-47 10t-39 16.5l10 21q26 -15 60 -21.5t65 -6.5zM114 699q-11 0 -19 8t-8 18q0 11 8 19t19 8t18.5 -8t7.5 -19q0 -10 -7.5 -18t-18.5 -8zM112 591q-11 0 -19 8t-8 18q0 11 8 19t19 8t18.5 -8t7.5 -19q0 -10 -7.5 -18t-18.5 -8zM215 699
q-11 0 -19 8t-8 18q0 11 8 19t19 8t18.5 -8t7.5 -19q0 -10 -7.5 -18t-18.5 -8zM213 591q-11 0 -19 8t-8 18q0 11 8 19t19 8t18.5 -8t7.5 -19q0 -10 -7.5 -18t-18.5 -8z" />
    <glyph glyph-name="uni0692.fina" unicode="&#x692;" horiz-adv-x="364" 
d="M4 -230l-12 23q46 20 86 51.5t71.5 71t49 85t17.5 92.5q0 48 -21 103.5t-57 116.5l23 13q19 -33 33.5 -64.5t24.5 -60.5t16 -57q13 -59 44.5 -92.5t88.5 -33.5q8 0 10.5 -3t2.5 -8q0 -4 -4.5 -8t-12.5 -4q-36 0 -63.5 12.5t-46 35t-26.5 51.5l12 1q0 -57 -20.5 -107.5
t-55 -92.5t-76.5 -74t-84 -51zM131 481q-7 16 -17 40.5t-21 51.5t-22 51.5t-19 40.5l19 10q6 -10 16.5 -33.5t22 -51.5t22 -53.5t16.5 -40.5l7 -13zM155 483l-20 6q6 18 16 46.5t21 59t20 54t12 31.5l20 -8q-4 -10 -13 -34.5t-20 -54t-21 -56.5t-15 -44z" />
    <glyph glyph-name="uni0693.fina" unicode="&#x693;" horiz-adv-x="364" 
d="M204 -217q-31 0 -53 22.5t-22 52.5q0 31 22 53t53 22q30 0 52.5 -22t22.5 -53q0 -30 -22.5 -52.5t-52.5 -22.5zM204 -196q21 0 37 16t16 38t-16 38t-37 16q-22 0 -37.5 -16t-15.5 -38t15.5 -38t37.5 -16zM4 -230l-12 23q46 20 86 51.5t71.5 71t49 85t17.5 92.5
q0 48 -21 103.5t-57 116.5l23 13q19 -33 33.5 -64.5t24.5 -60.5t16 -57q13 -59 44.5 -92.5t88.5 -33.5q8 0 10.5 -3t2.5 -8q0 -4 -4.5 -8t-12.5 -4q-36 0 -63.5 12.5t-46 35t-26.5 51.5l12 1q0 -57 -20.5 -107.5t-55 -92.5t-76.5 -74t-84 -51z" />
    <glyph glyph-name="uni0694.fina" unicode="&#x694;" horiz-adv-x="364" 
d="M4 -230l-12 23q46 20 86 51.5t71.5 71t49 85t17.5 92.5q0 48 -21 103.5t-57 116.5l23 13q19 -33 33.5 -64.5t24.5 -60.5t16 -57q13 -59 44.5 -92.5t88.5 -33.5q8 0 10.5 -3t2.5 -8q0 -4 -4.5 -8t-12.5 -4q-36 0 -63.5 12.5t-46 35t-26.5 51.5l12 1q0 -57 -20.5 -107.5
t-55 -92.5t-76.5 -74t-84 -51zM113 -383q-11 0 -19 8t-8 18q0 11 8 19t19 8t18.5 -8t7.5 -19q0 -10 -7.5 -18t-18.5 -8z" />
    <glyph glyph-name="uni0695.fina" unicode="&#x695;" horiz-adv-x="364" 
d="M51 -92q-7 17 -18.5 44.5t-23.5 54.5t-21 44l16 8q4 -8 12.5 -26t17.5 -39.5t17.5 -41.5t13.5 -32l5 -10zM70 -90l-16 4q4 15 12.5 37t17 45.5t15 41.5t10.5 25l16 -7q-4 -8 -11 -27t-15.5 -41.5t-16.5 -43.5t-12 -34zM4 -230l-12 23q46 20 86 51.5t71.5 71t49 85
t17.5 92.5q0 48 -21 103.5t-57 116.5l23 13q19 -33 33.5 -64.5t24.5 -60.5t16 -57q13 -59 44.5 -92.5t88.5 -33.5q8 0 10.5 -3t2.5 -8q0 -4 -4.5 -8t-12.5 -4q-36 0 -63.5 12.5t-46 35t-26.5 51.5l12 1q0 -57 -20.5 -107.5t-55 -92.5t-76.5 -74t-84 -51z" />
    <glyph glyph-name="uni0696.fina" unicode="&#x696;" horiz-adv-x="364" 
d="M4 -230l-12 23q46 20 86 51.5t71.5 71t49 85t17.5 92.5q0 48 -21 103.5t-57 116.5l23 13q19 -33 33.5 -64.5t24.5 -60.5t16 -57q13 -59 44.5 -92.5t88.5 -33.5q8 0 10.5 -3t2.5 -8q0 -4 -4.5 -8t-12.5 -4q-36 0 -63.5 12.5t-46 35t-26.5 51.5l12 1q0 -57 -20.5 -107.5
t-55 -92.5t-76.5 -74t-84 -51zM35 25q-11 0 -19 8t-8 18q0 11 8 19t19 8t18.5 -8t7.5 -19q0 -10 -7.5 -18t-18.5 -8zM95 -383q-11 0 -19 8t-8 18q0 11 8 19t19 8t18.5 -8t7.5 -19q0 -10 -7.5 -18t-18.5 -8z" />
    <glyph glyph-name="uni0697.fina" unicode="&#x697;" horiz-adv-x="364" 
d="M4 -230l-12 23q46 20 86 51.5t71.5 71t49 85t17.5 92.5q0 48 -21 103.5t-57 116.5l23 13q19 -33 33.5 -64.5t24.5 -60.5t16 -57q13 -59 44.5 -92.5t88.5 -33.5q8 0 10.5 -3t2.5 -8q0 -4 -4.5 -8t-12.5 -4q-36 0 -63.5 12.5t-46 35t-26.5 51.5l12 1q0 -57 -20.5 -107.5
t-55 -92.5t-76.5 -74t-84 -51zM194 486q-11 0 -19 8t-8 18q0 11 8 19t19 8t18.5 -8t7.5 -19q0 -10 -7.5 -18t-18.5 -8zM93 486q-11 0 -19 8t-8 18q0 11 8 19t19 8t18.5 -8t7.5 -19q0 -10 -7.5 -18t-18.5 -8z" />
    <glyph glyph-name="uni0699.fina" unicode="&#x699;" horiz-adv-x="364" 
d="M4 -230l-12 23q46 20 86 51.5t71.5 71t49 85t17.5 92.5q0 48 -21 103.5t-57 116.5l23 13q19 -33 33.5 -64.5t24.5 -60.5t16 -57q13 -59 44.5 -92.5t88.5 -33.5q8 0 10.5 -3t2.5 -8q0 -4 -4.5 -8t-12.5 -4q-36 0 -63.5 12.5t-46 35t-26.5 51.5l12 1q0 -57 -20.5 -107.5
t-55 -92.5t-76.5 -74t-84 -51zM95 594q-11 0 -19 8t-8 18q0 11 8 19t19 8t18.5 -8t7.5 -19q0 -10 -7.5 -18t-18.5 -8zM93 486q-11 0 -19 8t-8 18q0 11 8 19t19 8t18.5 -8t7.5 -19q0 -10 -7.5 -18t-18.5 -8zM196 594q-11 0 -19 8t-8 18q0 11 8 19t19 8t18.5 -8t7.5 -19
q0 -10 -7.5 -18t-18.5 -8zM194 486q-11 0 -19 8t-8 18q0 11 8 19t19 8t18.5 -8t7.5 -19q0 -10 -7.5 -18t-18.5 -8z" />
    <glyph glyph-name="uni069A.init" unicode="&#x69a;" horiz-adv-x="687" 
d="M0 -5l4 23q32 0 52.5 6.5t35 29t27.5 68.5t29 125l23 -6q-4 -17 -9 -39.5t-9 -47t-4 -47.5q0 -54 24.5 -71t66.5 -17q34 0 55 9t34 34t23 72.5t20 123.5l23 -4q-4 -27 -8.5 -54.5t-7 -51.5t-2.5 -43q0 -35 11 -54t33 -25.5t55 -6.5q24 0 48 7t41 32.5t17 81.5
q0 55 -15 107t-31 106l24 10q12 -37 22.5 -74.5t17 -74.5t6.5 -73q0 -47 -12 -76t-32.5 -44t-44 -20.5t-45.5 -5.5q-51 0 -74.5 15t-31.5 39t-12 51h12q-10 -39 -25 -62t-39 -33t-64 -10q-29 0 -54.5 8t-41 33t-15.5 75h9q-12 -49 -30 -74t-44 -33.5t-62 -8.5zM328 -171
q-11 0 -19 8t-8 18q0 11 8 19t19 8t18.5 -8t7.5 -19q0 -10 -7.5 -18t-18.5 -8zM373 467q-11 0 -19 8t-8 18q0 11 8 19t19 8t18.5 -8t7.5 -19q0 -10 -7.5 -18t-18.5 -8z" />
    <glyph glyph-name="uni069A.medi" unicode="&#x69a;" horiz-adv-x="735" 
d="M0 -5l4 23q27 0 47 4t36 24.5t31 68t32 132.5l23 -6q-6 -25 -14 -62.5t-8 -68.5q0 -35 8 -55t26 -28t49 -8t52.5 7t36.5 30.5t26.5 71.5t22.5 130l25 -4q-3 -18 -8 -45.5t-9 -54.5t-4 -44q0 -32 8 -52t28.5 -29.5t56.5 -9.5q59 0 82 24t23 82q0 24 -1.5 61t-4 74.5
t-4.5 59.5l25 2q4 -102 11.5 -162.5t23 -90.5t43 -40t71.5 -11q8 0 10.5 -3t2.5 -8q0 -4 -4.5 -8t-11.5 -4q-34 0 -58.5 6.5t-42 19.5t-28 33.5t-15.5 47.5h3q-6 -45 -24 -68t-44 -31t-58 -8q-40 0 -63.5 11.5t-35 34.5t-14.5 59h8q-11 -34 -25.5 -57.5t-38.5 -35.5t-65 -12
q-26 0 -50.5 8.5t-39 33.5t-13.5 74h9q-14 -51 -33 -75.5t-45.5 -32.5t-61.5 -8zM325 -171q-11 0 -19 8t-8 18q0 11 8 19t19 8t18.5 -8t7.5 -19q0 -10 -7.5 -18t-18.5 -8zM389 467q-11 0 -19 8t-8 18q0 11 8 19t19 8t18.5 -8t7.5 -19q0 -10 -7.5 -18t-18.5 -8z" />
    <glyph glyph-name="uni069A.fina" unicode="&#x69a;" horiz-adv-x="1071" 
d="M273 -231q-44 0 -84.5 12t-72.5 36.5t-51 62.5t-19 91q0 27 4.5 54.5t16 62t33.5 79.5l22 -12q-16 -31 -27 -62.5t-17 -61t-6 -57.5q0 -64 29.5 -104.5t76 -58.5t98.5 -18q69 0 112 21t66.5 55t32.5 75.5t9 81.5q0 34 -6 72t-15 78.5t-19 79.5l25 8q14 -57 21.5 -90.5
t16.5 -65.5q10 -33 20.5 -52.5t27 -28t44.5 -8.5q24 0 42.5 5.5t32 28t25 72t23.5 137.5l24 -4q-6 -40 -11 -67t-7.5 -45.5t-2.5 -36.5q0 -32 6 -52t26 -29t62 -9q48 0 73 27t25 79q0 24 -1.5 62t-4 76.5t-4.5 60.5l25 2q5 -89 9.5 -148t15.5 -93.5t35 -50t70 -16.5
q8 0 10.5 -3t2.5 -8q0 -4 -4 -8t-12 -4q-37 0 -63 11.5t-42.5 31.5t-23.5 47h4q-5 -27 -20 -47t-39 -31.5t-57 -11.5q-46 0 -70.5 11.5t-33 35t-9.5 58.5l9 1q-10 -42 -25.5 -65t-37.5 -32t-53 -9q-30 0 -49.5 8.5t-30.5 22.5t-16.5 31.5t-9.5 35.5l17 -32q2 -62 -9 -115
t-38.5 -93t-76.5 -62t-124 -22zM728 -169q-11 0 -19 8t-8 18q0 11 8 19t19 8t18.5 -8t7.5 -19q0 -10 -7.5 -18t-18.5 -8zM725 467q-11 0 -19 8t-8 18q0 11 8 19t19 8t18.5 -8t7.5 -19q0 -10 -7.5 -18t-18.5 -8z" />
    <glyph glyph-name="uni069B.init" unicode="&#x69b;" horiz-adv-x="687" 
d="M0 -5l4 23q32 0 52.5 6.5t35 29t27.5 68.5t29 125l23 -6q-4 -17 -9 -39.5t-9 -47t-4 -47.5q0 -54 24.5 -71t66.5 -17q34 0 55 9t34 34t23 72.5t20 123.5l23 -4q-4 -27 -8.5 -54.5t-7 -51.5t-2.5 -43q0 -35 11 -54t33 -25.5t55 -6.5q24 0 48 7t41 32.5t17 81.5
q0 55 -15 107t-31 106l24 10q12 -37 22.5 -74.5t17 -74.5t6.5 -73q0 -47 -12 -76t-32.5 -44t-44 -20.5t-45.5 -5.5q-51 0 -74.5 15t-31.5 39t-12 51h12q-10 -39 -25 -62t-39 -33t-64 -10q-29 0 -54.5 8t-41 33t-15.5 75h9q-12 -49 -30 -74t-44 -33.5t-62 -8.5zM327 -255
q-11 0 -19 8t-8 18q0 11 8 19t19 8t18.5 -8t7.5 -19q0 -10 -7.5 -18t-18.5 -8zM276 -172q-11 0 -19 8t-8 18q0 11 8 19t19 8t18.5 -8t7.5 -19q0 -10 -7.5 -18t-18.5 -8zM377 -172q-11 0 -19 8t-8 18q0 11 8 19t19 8t18.5 -8t7.5 -19q0 -10 -7.5 -18t-18.5 -8z" />
    <glyph glyph-name="uni069B.medi" unicode="&#x69b;" horiz-adv-x="735" 
d="M0 -5l4 23q27 0 47 4t36 24.5t31 68t32 132.5l23 -6q-6 -25 -14 -62.5t-8 -68.5q0 -35 8 -55t26 -28t49 -8t52.5 7t36.5 30.5t26.5 71.5t22.5 130l25 -4q-3 -18 -8 -45.5t-9 -54.5t-4 -44q0 -32 8 -52t28.5 -29.5t56.5 -9.5q59 0 82 24t23 82q0 24 -1.5 61t-4 74.5
t-4.5 59.5l25 2q4 -102 11.5 -162.5t23 -90.5t43 -40t71.5 -11q8 0 10.5 -3t2.5 -8q0 -4 -4.5 -8t-11.5 -4q-34 0 -58.5 6.5t-42 19.5t-28 33.5t-15.5 47.5h3q-6 -45 -24 -68t-44 -31t-58 -8q-40 0 -63.5 11.5t-35 34.5t-14.5 59h8q-11 -34 -25.5 -57.5t-38.5 -35.5t-65 -12
q-26 0 -50.5 8.5t-39 33.5t-13.5 74h9q-14 -51 -33 -75.5t-45.5 -32.5t-61.5 -8zM325 -255q-11 0 -19 8t-8 18q0 11 8 19t19 8t18.5 -8t7.5 -19q0 -10 -7.5 -18t-18.5 -8zM274 -172q-11 0 -19 8t-8 18q0 11 8 19t19 8t18.5 -8t7.5 -19q0 -10 -7.5 -18t-18.5 -8zM375 -172
q-11 0 -19 8t-8 18q0 11 8 19t19 8t18.5 -8t7.5 -19q0 -10 -7.5 -18t-18.5 -8z" />
    <glyph glyph-name="uni069B.fina" unicode="&#x69b;" horiz-adv-x="1071" 
d="M273 -231q-44 0 -84.5 12t-72.5 36.5t-51 62.5t-19 91q0 27 4.5 54.5t16 62t33.5 79.5l22 -12q-16 -31 -27 -62.5t-17 -61t-6 -57.5q0 -64 29.5 -104.5t76 -58.5t98.5 -18q69 0 112 21t66.5 55t32.5 75.5t9 81.5q0 34 -6 72t-15 78.5t-19 79.5l25 8q14 -57 21.5 -90.5
t16.5 -65.5q10 -33 20.5 -52.5t27 -28t44.5 -8.5q24 0 42.5 5.5t32 28t25 72t23.5 137.5l24 -4q-6 -40 -11 -67t-7.5 -45.5t-2.5 -36.5q0 -32 6 -52t26 -29t62 -9q48 0 73 27t25 79q0 24 -1.5 62t-4 76.5t-4.5 60.5l25 2q5 -89 9.5 -148t15.5 -93.5t35 -50t70 -16.5
q8 0 10.5 -3t2.5 -8q0 -4 -4 -8t-12 -4q-37 0 -63 11.5t-42.5 31.5t-23.5 47h4q-5 -27 -20 -47t-39 -31.5t-57 -11.5q-46 0 -70.5 11.5t-33 35t-9.5 58.5l9 1q-10 -42 -25.5 -65t-37.5 -32t-53 -9q-30 0 -49.5 8.5t-30.5 22.5t-16.5 31.5t-9.5 35.5l17 -32q2 -62 -9 -115
t-38.5 -93t-76.5 -62t-124 -22zM727 -253q-11 0 -19 8t-8 18q0 11 8 19t19 8t18.5 -8t7.5 -19q0 -10 -7.5 -18t-18.5 -8zM676 -170q-11 0 -19 8t-8 18q0 11 8 19t19 8t18.5 -8t7.5 -19q0 -10 -7.5 -18t-18.5 -8zM777 -170q-11 0 -19 8t-8 18q0 11 8 19t19 8t18.5 -8t7.5 -19
q0 -10 -7.5 -18t-18.5 -8z" />
    <glyph glyph-name="uni069D.init" unicode="&#x69d;" horiz-adv-x="823" 
d="M428 -18q-48 0 -98.5 5.5t-93 19.5t-69 39t-28.5 65h7q-14 -51 -34 -75.5t-47 -32.5t-65 -8l4 23q34 0 55.5 6.5t38 30.5t32 75t34.5 139l23 -6q-4 -17 -10.5 -42t-12 -51t-5.5 -47q0 -28 16.5 -50t49.5 -37t83 -22.5t117 -7.5q76 0 136 10.5t101.5 31.5t63 52.5
t21.5 73.5q0 39 -16.5 66t-46 41t-68.5 14q-46 0 -92.5 -24t-91 -64.5t-85.5 -92t-76 -105.5l-21 11q48 73 94.5 129t92 93.5t91 57t90.5 19.5q44 0 78.5 -16t54.5 -47.5t20 -78.5q0 -63 -38 -106.5t-114 -66t-191 -22.5zM496 -183q-11 0 -19 8t-8 18q0 11 8 19t19 8
t18.5 -8t7.5 -19q0 -10 -7.5 -18t-18.5 -8zM395 -183q-11 0 -19 8t-8 18q0 11 8 19t19 8t18.5 -8t7.5 -19q0 -10 -7.5 -18t-18.5 -8z" />
    <glyph glyph-name="uni069D.medi" unicode="&#x69d;" horiz-adv-x="874" 
d="M874 -5q-27 0 -60.5 5t-66.5 17t-60 33l18 14q43 -26 88 -36t84 -10q8 0 10.5 -3t2.5 -8q0 -4 -4 -8t-12 -4zM428 -18q-48 0 -98.5 5.5t-93 19.5t-69 39t-28.5 65h7q-14 -51 -34 -75.5t-47 -32.5t-65 -8l4 23q34 0 55.5 6.5t38 30.5t32 75t34.5 139l23 -6
q-4 -17 -10.5 -42t-12 -51t-5.5 -47q0 -28 16.5 -50t49.5 -37t83 -22.5t117 -7.5q76 0 136 10.5t101.5 31.5t63 52.5t21.5 73.5q0 39 -16.5 66t-46 41t-68.5 14q-46 0 -92.5 -24t-91 -64.5t-85.5 -92t-76 -105.5l-21 11q48 73 94.5 129t92 93.5t91 57t90.5 19.5
q44 0 78.5 -16t54.5 -47.5t20 -78.5q0 -63 -38 -106.5t-114 -66t-191 -22.5zM496 -183q-11 0 -19 8t-8 18q0 11 8 19t19 8t18.5 -8t7.5 -19q0 -10 -7.5 -18t-18.5 -8zM395 -183q-11 0 -19 8t-8 18q0 11 8 19t19 8t18.5 -8t7.5 -19q0 -10 -7.5 -18t-18.5 -8z" />
    <glyph glyph-name="uni069D.fina" unicode="&#x69d;" horiz-adv-x="1239" 
d="M1239 -5q-27 0 -60 5t-66 17t-60 33l18 14q43 -26 87.5 -36t84.5 -10q8 0 10.5 -3t2.5 -8q0 -4 -4.5 -8t-12.5 -4zM272 -231q-49 0 -90.5 13.5t-71.5 39.5t-47 63.5t-17 87.5q0 25 4.5 52.5t16 62t33.5 79.5l22 -12q-16 -31 -27 -62.5t-17 -61t-6 -55.5
q0 -61 26.5 -101.5t72.5 -61t104 -20.5q68 0 111.5 21t67.5 54.5t33 75t9 82.5q0 51 -12.5 111t-27.5 119l25 8q9 -38 15 -64.5t10.5 -45t8.5 -32.5q9 -27 25.5 -47.5t46.5 -35t77 -21.5t116 -7q41 0 86.5 4t88.5 14t77.5 29t55.5 48.5t21 72.5q0 33 -14 60.5t-42.5 44.5
t-73.5 17q-43 0 -86.5 -20.5t-87 -58t-87 -90.5t-86.5 -118l-20 10q38 58 74.5 105.5t73.5 84t74 61.5t73.5 37.5t73.5 12.5q54 0 87 -20t49 -53t16 -71q0 -60 -31.5 -98t-83.5 -59t-112 -29t-118 -8q-72 0 -120 7t-79 20t-50.5 30.5t-34.5 38.5l17 -10q3 -66 -7.5 -121.5
t-38.5 -96.5t-77 -63.5t-126 -22.5zM867 -178q-11 0 -19 8t-8 18q0 11 8 19t19 8t18.5 -8t7.5 -19q0 -10 -7.5 -18t-18.5 -8zM766 -178q-11 0 -19 8t-8 18q0 11 8 19t19 8t18.5 -8t7.5 -19q0 -10 -7.5 -18t-18.5 -8z" />
    <glyph glyph-name="uni069E.init" unicode="&#x69e;" horiz-adv-x="823" 
d="M428 -18q-48 0 -98.5 5.5t-93 19.5t-69 39t-28.5 65h7q-14 -51 -34 -75.5t-47 -32.5t-65 -8l4 23q34 0 55.5 6.5t38 30.5t32 75t34.5 139l23 -6q-4 -17 -10.5 -42t-12 -51t-5.5 -47q0 -28 16.5 -50t49.5 -37t83 -22.5t117 -7.5q76 0 136 10.5t101.5 31.5t63 52.5
t21.5 73.5q0 39 -16.5 66t-46 41t-68.5 14q-46 0 -92.5 -24t-91 -64.5t-85.5 -92t-76 -105.5l-21 11q48 73 94.5 129t92 93.5t91 57t90.5 19.5q44 0 78.5 -16t54.5 -47.5t20 -78.5q0 -63 -38 -106.5t-114 -66t-191 -22.5zM590 537q-10 0 -18 8t-8 19t8 18.5t18 7.5
q11 0 19 -7.5t8 -18.5t-8 -19t-19 -8zM540 454q-10 0 -18 8t-8 19t8 18.5t18 7.5q11 0 19 -7.5t8 -18.5t-8 -19t-19 -8zM641 454q-10 0 -18 8t-8 19t8 18.5t18 7.5q11 0 19 -7.5t8 -18.5t-8 -19t-19 -8z" />
    <glyph glyph-name="uni069E.medi" unicode="&#x69e;" horiz-adv-x="874" 
d="M874 -5q-27 0 -60.5 5t-66.5 17t-60 33l18 14q43 -26 88 -36t84 -10q8 0 10.5 -3t2.5 -8q0 -4 -4 -8t-12 -4zM428 -18q-48 0 -98.5 5.5t-93 19.5t-69 39t-28.5 65h7q-14 -51 -34 -75.5t-47 -32.5t-65 -8l4 23q34 0 55.5 6.5t38 30.5t32 75t34.5 139l23 -6
q-4 -17 -10.5 -42t-12 -51t-5.5 -47q0 -28 16.5 -50t49.5 -37t83 -22.5t117 -7.5q76 0 136 10.5t101.5 31.5t63 52.5t21.5 73.5q0 39 -16.5 66t-46 41t-68.5 14q-46 0 -92.5 -24t-91 -64.5t-85.5 -92t-76 -105.5l-21 11q48 73 94.5 129t92 93.5t91 57t90.5 19.5
q44 0 78.5 -16t54.5 -47.5t20 -78.5q0 -63 -38 -106.5t-114 -66t-191 -22.5zM590 537q-10 0 -18 8t-8 19t8 18.5t18 7.5q11 0 19 -7.5t8 -18.5t-8 -19t-19 -8zM540 454q-10 0 -18 8t-8 19t8 18.5t18 7.5q11 0 19 -7.5t8 -18.5t-8 -19t-19 -8zM641 454q-10 0 -18 8t-8 19
t8 18.5t18 7.5q11 0 19 -7.5t8 -18.5t-8 -19t-19 -8z" />
    <glyph glyph-name="uni069E.fina" unicode="&#x69e;" horiz-adv-x="1239" 
d="M1239 -5q-27 0 -60 5t-66 17t-60 33l18 14q43 -26 87.5 -36t84.5 -10q8 0 10.5 -3t2.5 -8q0 -4 -4.5 -8t-12.5 -4zM272 -231q-49 0 -90.5 13.5t-71.5 39.5t-47 63.5t-17 87.5q0 25 4.5 52.5t16 62t33.5 79.5l22 -12q-16 -31 -27 -62.5t-17 -61t-6 -55.5
q0 -61 26.5 -101.5t72.5 -61t104 -20.5q68 0 111.5 21t67.5 54.5t33 75t9 82.5q0 51 -12.5 111t-27.5 119l25 8q9 -38 15 -64.5t10.5 -45t8.5 -32.5q9 -27 25.5 -47.5t46.5 -35t77 -21.5t116 -7q41 0 86.5 4t88.5 14t77.5 29t55.5 48.5t21 72.5q0 33 -14 60.5t-42.5 44.5
t-73.5 17q-43 0 -86.5 -20.5t-87 -58t-87 -90.5t-86.5 -118l-20 10q38 58 74.5 105.5t73.5 84t74 61.5t73.5 37.5t73.5 12.5q54 0 87 -20t49 -53t16 -71q0 -60 -31.5 -98t-83.5 -59t-112 -29t-118 -8q-72 0 -120 7t-79 20t-50.5 30.5t-34.5 38.5l17 -10q3 -66 -7.5 -121.5
t-38.5 -96.5t-77 -63.5t-126 -22.5zM953 543q-10 0 -18 8t-8 19t8 18.5t18 7.5q11 0 19 -7.5t8 -18.5t-8 -19t-19 -8zM903 460q-10 0 -18 8t-8 19t8 18.5t18 7.5q11 0 19 -7.5t8 -18.5t-8 -19t-19 -8zM1004 460q-10 0 -18 8t-8 19t8 18.5t18 7.5q11 0 19 -7.5t8 -18.5
t-8 -19t-19 -8z" />
    <glyph glyph-name="uni069F.init" unicode="&#x69f;" horiz-adv-x="629" 
d="M0 -5l4 23h265q66 0 118.5 10.5t89.5 30.5t56.5 50t19.5 70q0 34 -14 61t-43 44t-74 17q-49 0 -96.5 -26t-92 -68.5t-84.5 -93.5t-74 -100l-31 -11q43 67 88 125.5t92.5 103t97.5 69.5t102 25q54 0 87.5 -20t49.5 -53t16 -72q0 -57 -35 -101t-117 -67
q-38 -10 -86.5 -13.5t-106.5 -3.5h-125h-107zM97 69l-19 645h24l19 -608zM380 543q-10 0 -18 8t-8 19t8 18.5t18 7.5q11 0 19 -7.5t8 -18.5t-8 -19t-19 -8zM330 460q-10 0 -18 8t-8 19t8 18.5t18 7.5q11 0 19 -7.5t8 -18.5t-8 -19t-19 -8zM431 460q-10 0 -18 8t-8 19t8 18.5
t18 7.5q11 0 19 -7.5t8 -18.5t-8 -19t-19 -8z" />
    <glyph glyph-name="uni069F.medi" unicode="&#x69f;" horiz-adv-x="661" 
d="M661 -5q-27 0 -60.5 5t-66.5 17t-60 33l18 14q43 -26 88 -36t84 -10q8 0 10.5 -3t2.5 -8q0 -4 -4 -8t-12 -4zM0 -5l4 23h265q66 0 118.5 10.5t89.5 30.5t56.5 50t19.5 70q0 34 -14 61t-43 44t-74 17q-49 0 -96.5 -26t-92 -68.5t-84.5 -93.5t-74 -100l-31 -11
q43 67 88 125.5t92.5 103t97.5 69.5t102 25q54 0 87.5 -20t49.5 -53t16 -72q0 -57 -35 -101t-117 -67q-38 -10 -86.5 -13.5t-106.5 -3.5h-125h-107zM97 69l-19 645h24l19 -608zM380 543q-10 0 -18 8t-8 19t8 18.5t18 7.5q11 0 19 -7.5t8 -18.5t-8 -19t-19 -8zM330 460
q-10 0 -18 8t-8 19t8 18.5t18 7.5q11 0 19 -7.5t8 -18.5t-8 -19t-19 -8zM431 460q-10 0 -18 8t-8 19t8 18.5t18 7.5q11 0 19 -7.5t8 -18.5t-8 -19t-19 -8z" />
    <glyph glyph-name="uni069F.fina" unicode="&#x69f;" horiz-adv-x="787" 
d="M787 -5q-27 0 -60 5t-66 17t-61 33l18 14q43 -26 88 -36t84 -10q8 0 10.5 -3t2.5 -8q0 -4 -4 -8t-12 -4zM340 -13q-36 0 -79 2t-85 4.5t-77.5 6t-58.5 6.5l3 24q26 -3 63.5 -6.5t80 -6.5t83.5 -4.5t74 -1.5q68 0 127.5 8.5t104 28.5t70 52t25.5 80q0 35 -15.5 62.5
t-45 43t-71.5 15.5q-47 0 -93.5 -24t-90.5 -65t-84.5 -92.5t-77.5 -106.5l-32 -11q48 77 95.5 136.5t94.5 101.5t94.5 63.5t95.5 21.5q51 0 85 -19t51.5 -51.5t17.5 -73.5q0 -71 -45.5 -114t-125.5 -61.5t-184 -18.5zM215 72l-20 642h24l21 -609zM496 543q-10 0 -18 8t-8 19
t8 18.5t18 7.5q11 0 19 -7.5t8 -18.5t-8 -19t-19 -8zM446 460q-10 0 -18 8t-8 19t8 18.5t18 7.5q11 0 19 -7.5t8 -18.5t-8 -19t-19 -8zM547 460q-10 0 -18 8t-8 19t8 18.5t18 7.5q11 0 19 -7.5t8 -18.5t-8 -19t-19 -8z" />
    <glyph glyph-name="uni06A0.init" unicode="&#x6a0;" horiz-adv-x="406" 
d="M0 -5l4 23q48 0 86.5 3t72 8.5t66.5 12.5q-45 14 -82.5 40.5t-59.5 64.5t-22 85q0 48 21.5 87t61 62.5t94.5 23.5q21 0 43.5 -4.5t41.5 -10.5l-5 -22q-18 5 -39.5 9t-41.5 4q-44 0 -78.5 -19t-54.5 -52.5t-20 -76.5q0 -36 13.5 -64t36 -48t47.5 -33t47.5 -21t37.5 -12
q17 4 27 6.5t19 5t23 8.5t39 16l8 -22q-66 -27 -125.5 -43t-122 -23.5t-138.5 -7.5zM238 625q-10 0 -18 8t-8 19t8 18.5t18 7.5q11 0 19 -7.5t8 -18.5t-8 -19t-19 -8zM188 542q-10 0 -18 8t-8 19t8 18.5t18 7.5q11 0 19 -7.5t8 -18.5t-8 -19t-19 -8zM289 542q-10 0 -18 8
t-8 19t8 18.5t18 7.5q11 0 19 -7.5t8 -18.5t-8 -19t-19 -8z" />
    <glyph glyph-name="uni06A0.medi" unicode="&#x6a0;" horiz-adv-x="440" 
d="M0 -5l4 23q50 0 98 17.5t90.5 46.5t75.5 63.5t51.5 71t18.5 67.5q0 16 -9.5 34t-32.5 30t-65 12q-41 0 -73.5 -12t-53.5 -27.5t-29 -27.5q27 -29 54.5 -61.5t53 -66t46.5 -66.5q25 -28 51 -43.5t52 -23.5t53.5 -11t58.5 -3q6 0 9.5 -2.5t3.5 -8.5q0 -4 -4.5 -8t-12.5 -4
q-45 0 -84 7t-73.5 26t-67.5 55q-25 38 -53 74.5t-55 67.5t-47 51q-1 1 -2.5 4t-2 6t-0.5 5q0 12 15 28t40.5 30.5t57 24.5t64.5 10q41 0 70 -11.5t44.5 -33t15.5 -49.5q0 -36 -19 -76.5t-53.5 -79t-80.5 -70.5t-99.5 -50.5t-109.5 -18.5zM222 602q-10 0 -18 8t-8 19t8 18.5
t18 7.5q11 0 19 -7.5t8 -18.5t-8 -19t-19 -8zM172 519q-10 0 -18 8t-8 19t8 18.5t18 7.5q11 0 19 -7.5t8 -18.5t-8 -19t-19 -8zM273 519q-10 0 -18 8t-8 19t8 18.5t18 7.5q11 0 19 -7.5t8 -18.5t-8 -19t-19 -8z" />
    <glyph glyph-name="uni06A0.fina" unicode="&#x6a0;" horiz-adv-x="460" 
d="M287 -394q-38 0 -83 9t-85.5 32t-66.5 65.5t-26 108.5q0 57 24.5 103.5t62 85t80.5 73t80.5 66.5t61.5 64.5t24 69.5q0 14 -8.5 32.5t-32 31.5t-68.5 13q-38 0 -69.5 -11t-53.5 -27t-31 -29q23 -23 48 -53.5t50 -64t46 -66.5q26 -31 52 -49.5t53 -27t56.5 -11.5t62.5 -3
q5 0 9 -2.5t4 -8.5q0 -5 -5 -8.5t-12 -3.5q-47 0 -89 7.5t-78.5 29.5t-70.5 63q-17 28 -42 62.5t-51.5 66.5t-47.5 52q-1 2 -2.5 4.5t-2 5.5t-0.5 5q0 12 15 28t40 30.5t56.5 24.5t64.5 10q63 0 97 -26.5t34 -70.5q0 -43 -24 -79t-61.5 -69.5t-80.5 -67t-80.5 -70.5t-62 -80
t-24.5 -97q0 -47 16.5 -83.5t47.5 -60.5t75 -37t100 -13q35 0 68 4t63 12t54 19l9 -21q-34 -14 -67 -22.5t-65.5 -12t-63.5 -3.5zM258 602q-10 0 -18 8t-8 19t8 18.5t18 7.5q11 0 19 -7.5t8 -18.5t-8 -19t-19 -8zM208 519q-10 0 -18 8t-8 19t8 18.5t18 7.5q11 0 19 -7.5
t8 -18.5t-8 -19t-19 -8zM309 519q-10 0 -18 8t-8 19t8 18.5t18 7.5q11 0 19 -7.5t8 -18.5t-8 -19t-19 -8z" />
    <glyph glyph-name="uni06A1.init" unicode="&#x6a1;" horiz-adv-x="407" 
d="M0 -5l4 23q41 0 78.5 2t71 6.5t61 13t47.5 21.5q15 10 31.5 29t27.5 55t11 96q0 51 -13.5 100.5t-39 82t-64.5 32.5q-29 0 -55.5 -26.5t-43 -66t-16.5 -80.5q0 -43 17 -65.5t44.5 -30t58.5 -7.5t63 7t54 18l4 -21q-16 -10 -38 -16.5t-45 -9t-42 -2.5q-37 0 -69 11
t-51.5 38.5t-19.5 73.5q0 34 11 69t29.5 65.5t45 49t57.5 18.5q44 0 74.5 -34.5t46.5 -90.5t16 -121q0 -60 -16 -107.5t-62 -81.5q-18 -13 -43 -22.5t-59 -16t-77.5 -9.5t-98.5 -3z" />
    <glyph glyph-name="uni06A1.medi" unicode="&#x6a1;" horiz-adv-x="434" 
d="M0 -5l4 23q26 0 51.5 2.5t50.5 8t48.5 13.5t45.5 18q38 18 67 40.5t46 52t17 69.5q0 30 -13 64t-37.5 58t-61.5 24q-29 0 -56.5 -20t-45 -54t-17.5 -75q0 -42 17 -72t44.5 -51t58.5 -35l-28 -9q-25 13 -51 34t-44.5 53.5t-18.5 79.5q0 36 11.5 67.5t31.5 55t45.5 36.5
t52.5 13q39 0 69 -24t47.5 -62t17.5 -82q0 -31 -10 -57.5t-27 -48.5t-41 -39.5t-53 -32.5q-24 -13 -50.5 -22.5t-54.5 -15.5t-57.5 -9t-58.5 -3zM434 -5q-35 0 -80.5 7t-88 19t-68.5 26l24 13q21 -8 51 -17.5t71.5 -17t93.5 -7.5q7 0 10 -2.5t3 -8.5q0 -4 -4.5 -8t-11.5 -4z
" />
    <glyph glyph-name="uni06A1.fina" unicode="&#x6a1;" horiz-adv-x="979" 
d="M366 -21l19 24q42 0 90.5 3t98.5 10t95 17.5t78 26.5q41 19 70.5 42t45.5 52t16 65q0 22 -7 47.5t-21.5 49t-35 38t-48.5 14.5q-29 0 -57 -21t-45 -56.5t-17 -77.5q0 -36 16.5 -65t44.5 -51t59 -36l-31 -9q-24 13 -50 34t-43.5 52.5t-17.5 73.5q0 36 11.5 68.5t31.5 57.5
t45.5 39t52.5 14q38 0 68 -24.5t48 -64t18 -83.5q0 -29 -9 -53.5t-26 -46t-41 -39.5t-54 -34q-35 -18 -82 -31t-101.5 -21t-111 -11.5t-110.5 -3.5zM979 -5q-43 0 -85.5 7t-80.5 19t-68 26l25 13q21 -8 48 -17.5t66.5 -17t98.5 -7.5q6 0 9.5 -2.5t3.5 -8.5q0 -4 -4.5 -8
t-12.5 -4zM366 -21q-76 0 -135.5 11.5t-100.5 35t-62.5 59t-21.5 84.5q0 23 4 47.5t9.5 49t11.5 45.5l22 -6q-6 -19 -11 -40.5t-8.5 -44.5t-3.5 -47q0 -61 36.5 -98.5t107 -54.5t171.5 -17l20 -15z" />
    <glyph glyph-name="fehDotMovedbelowar.init" unicode="&#x6a2;" horiz-adv-x="407" 
d="M0 -5l4 23q41 0 78.5 2t71 6.5t61 13t47.5 21.5q15 10 31.5 29t27.5 55t11 96q0 51 -13.5 100.5t-39 82t-64.5 32.5q-29 0 -55.5 -26.5t-43 -66t-16.5 -80.5q0 -43 17 -65.5t44.5 -30t58.5 -7.5t63 7t54 18l4 -21q-16 -10 -38 -16.5t-45 -9t-42 -2.5q-37 0 -69 11
t-51.5 38.5t-19.5 73.5q0 34 11 69t29.5 65.5t45 49t57.5 18.5q44 0 74.5 -34.5t46.5 -90.5t16 -121q0 -60 -16 -107.5t-62 -81.5q-18 -13 -43 -22.5t-59 -16t-77.5 -9.5t-98.5 -3zM198 -178q-11 0 -19 8t-8 18q0 11 8 19t19 8t18.5 -8t7.5 -19q0 -10 -7.5 -18t-18.5 -8z
" />
    <glyph glyph-name="fehDotMovedbelowar.medi" unicode="&#x6a2;" horiz-adv-x="434" 
d="M0 -5l4 23q26 0 51.5 2.5t50.5 8t48.5 13.5t45.5 18q38 18 67 40.5t46 52t17 69.5q0 30 -13 64t-37.5 58t-61.5 24q-29 0 -56.5 -20t-45 -54t-17.5 -75q0 -42 17 -72t44.5 -51t58.5 -35l-28 -9q-25 13 -51 34t-44.5 53.5t-18.5 79.5q0 36 11.5 67.5t31.5 55t45.5 36.5
t52.5 13q39 0 69 -24t47.5 -62t17.5 -82q0 -31 -10 -57.5t-27 -48.5t-41 -39.5t-53 -32.5q-24 -13 -50.5 -22.5t-54.5 -15.5t-57.5 -9t-58.5 -3zM434 -5q-35 0 -80.5 7t-88 19t-68.5 26l24 13q21 -8 51 -17.5t71.5 -17t93.5 -7.5q7 0 10 -2.5t3 -8.5q0 -4 -4.5 -8t-11.5 -4z
M205 -179q-11 0 -19 8t-8 18q0 11 8 19t19 8t18.5 -8t7.5 -19q0 -10 -7.5 -18t-18.5 -8z" />
    <glyph glyph-name="fehDotMovedbelowar.fina" unicode="&#x6a2;" horiz-adv-x="979" 
d="M366 -21l19 24q42 0 90.5 3t98.5 10t95 17.5t78 26.5q41 19 70.5 42t45.5 52t16 65q0 22 -7 47.5t-21.5 49t-35 38t-48.5 14.5q-29 0 -57 -21t-45 -56.5t-17 -77.5q0 -36 16.5 -65t44.5 -51t59 -36l-31 -9q-24 13 -50 34t-43.5 52.5t-17.5 73.5q0 36 11.5 68.5t31.5 57.5
t45.5 39t52.5 14q38 0 68 -24.5t48 -64t18 -83.5q0 -29 -9 -53.5t-26 -46t-41 -39.5t-54 -34q-35 -18 -82 -31t-101.5 -21t-111 -11.5t-110.5 -3.5zM979 -5q-43 0 -85.5 7t-80.5 19t-68 26l25 13q21 -8 48 -17.5t66.5 -17t98.5 -7.5q6 0 9.5 -2.5t3.5 -8.5q0 -4 -4.5 -8
t-12.5 -4zM366 -21q-76 0 -135.5 11.5t-100.5 35t-62.5 59t-21.5 84.5q0 23 4 47.5t9.5 49t11.5 45.5l22 -6q-6 -19 -11 -40.5t-8.5 -44.5t-3.5 -47q0 -61 36.5 -98.5t107 -54.5t171.5 -17l20 -15zM403 -191q-11 0 -19 8t-8 18q0 11 8 19t19 8t18.5 -8t7.5 -19
q0 -10 -7.5 -18t-18.5 -8z" />
    <glyph glyph-name="uni06A3.init" unicode="&#x6a3;" horiz-adv-x="407" 
d="M0 -5l4 23q41 0 78.5 2t71 6.5t61 13t47.5 21.5q15 10 31.5 29t27.5 55t11 96q0 51 -13.5 100.5t-39 82t-64.5 32.5q-29 0 -55.5 -26.5t-43 -66t-16.5 -80.5q0 -43 17 -65.5t44.5 -30t58.5 -7.5t63 7t54 18l4 -21q-16 -10 -38 -16.5t-45 -9t-42 -2.5q-37 0 -69 11
t-51.5 38.5t-19.5 73.5q0 34 11 69t29.5 65.5t45 49t57.5 18.5q44 0 74.5 -34.5t46.5 -90.5t16 -121q0 -60 -16 -107.5t-62 -81.5q-18 -13 -43 -22.5t-59 -16t-77.5 -9.5t-98.5 -3zM213 616q-11 0 -19 8t-8 18q0 11 8 19t19 8t18.5 -8t7.5 -19q0 -10 -7.5 -18t-18.5 -8z
M198 -178q-11 0 -19 8t-8 18q0 11 8 19t19 8t18.5 -8t7.5 -19q0 -10 -7.5 -18t-18.5 -8z" />
    <glyph glyph-name="uni06A3.medi" unicode="&#x6a3;" horiz-adv-x="434" 
d="M0 -5l4 23q26 0 51.5 2.5t50.5 8t48.5 13.5t45.5 18q38 18 67 40.5t46 52t17 69.5q0 30 -13 64t-37.5 58t-61.5 24q-29 0 -56.5 -20t-45 -54t-17.5 -75q0 -42 17 -72t44.5 -51t58.5 -35l-28 -9q-25 13 -51 34t-44.5 53.5t-18.5 79.5q0 36 11.5 67.5t31.5 55t45.5 36.5
t52.5 13q39 0 69 -24t47.5 -62t17.5 -82q0 -31 -10 -57.5t-27 -48.5t-41 -39.5t-53 -32.5q-24 -13 -50.5 -22.5t-54.5 -15.5t-57.5 -9t-58.5 -3zM434 -5q-35 0 -80.5 7t-88 19t-68.5 26l24 13q21 -8 51 -17.5t71.5 -17t93.5 -7.5q7 0 10 -2.5t3 -8.5q0 -4 -4.5 -8t-11.5 -4z
M207 526q-11 0 -19 8t-8 18q0 11 8 19t19 8t18.5 -8t7.5 -19q0 -10 -7.5 -18t-18.5 -8zM205 -179q-11 0 -19 8t-8 18q0 11 8 19t19 8t18.5 -8t7.5 -19q0 -10 -7.5 -18t-18.5 -8z" />
    <glyph glyph-name="uni06A3.fina" unicode="&#x6a3;" horiz-adv-x="979" 
d="M366 -21l19 24q42 0 90.5 3t98.5 10t95 17.5t78 26.5q41 19 70.5 42t45.5 52t16 65q0 22 -7 47.5t-21.5 49t-35 38t-48.5 14.5q-29 0 -57 -21t-45 -56.5t-17 -77.5q0 -36 16.5 -65t44.5 -51t59 -36l-31 -9q-24 13 -50 34t-43.5 52.5t-17.5 73.5q0 36 11.5 68.5t31.5 57.5
t45.5 39t52.5 14q38 0 68 -24.5t48 -64t18 -83.5q0 -29 -9 -53.5t-26 -46t-41 -39.5t-54 -34q-35 -18 -82 -31t-101.5 -21t-111 -11.5t-110.5 -3.5zM979 -5q-43 0 -85.5 7t-80.5 19t-68 26l25 13q21 -8 48 -17.5t66.5 -17t98.5 -7.5q6 0 9.5 -2.5t3.5 -8.5q0 -4 -4.5 -8
t-12.5 -4zM366 -21q-76 0 -135.5 11.5t-100.5 35t-62.5 59t-21.5 84.5q0 23 4 47.5t9.5 49t11.5 45.5l22 -6q-6 -19 -11 -40.5t-8.5 -44.5t-3.5 -47q0 -61 36.5 -98.5t107 -54.5t171.5 -17l20 -15zM765 526q-11 0 -19 8t-8 18q0 11 8 19t19 8t18.5 -8t7.5 -19
q0 -10 -7.5 -18t-18.5 -8zM403 -191q-11 0 -19 8t-8 18q0 11 8 19t19 8t18.5 -8t7.5 -19q0 -10 -7.5 -18t-18.5 -8z" />
    <glyph glyph-name="uni06A5.init" unicode="&#x6a5;" horiz-adv-x="407" 
d="M0 -5l4 23q41 0 78.5 2t71 6.5t61 13t47.5 21.5q15 10 31.5 29t27.5 55t11 96q0 51 -13.5 100.5t-39 82t-64.5 32.5q-29 0 -55.5 -26.5t-43 -66t-16.5 -80.5q0 -43 17 -65.5t44.5 -30t58.5 -7.5t63 7t54 18l4 -21q-16 -10 -38 -16.5t-45 -9t-42 -2.5q-37 0 -69 11
t-51.5 38.5t-19.5 73.5q0 34 11 69t29.5 65.5t45 49t57.5 18.5q44 0 74.5 -34.5t46.5 -90.5t16 -121q0 -60 -16 -107.5t-62 -81.5q-18 -13 -43 -22.5t-59 -16t-77.5 -9.5t-98.5 -3zM197 -262q-11 0 -19 8t-8 18q0 11 8 19t19 8t18.5 -8t7.5 -19q0 -10 -7.5 -18t-18.5 -8z
M146 -179q-11 0 -19 8t-8 18q0 11 8 19t19 8t18.5 -8t7.5 -19q0 -10 -7.5 -18t-18.5 -8zM247 -179q-11 0 -19 8t-8 18q0 11 8 19t19 8t18.5 -8t7.5 -19q0 -10 -7.5 -18t-18.5 -8z" />
    <glyph glyph-name="uni06A5.medi" unicode="&#x6a5;" horiz-adv-x="434" 
d="M0 -5l4 23q26 0 51.5 2.5t50.5 8t48.5 13.5t45.5 18q38 18 67 40.5t46 52t17 69.5q0 30 -13 64t-37.5 58t-61.5 24q-29 0 -56.5 -20t-45 -54t-17.5 -75q0 -42 17 -72t44.5 -51t58.5 -35l-28 -9q-25 13 -51 34t-44.5 53.5t-18.5 79.5q0 36 11.5 67.5t31.5 55t45.5 36.5
t52.5 13q39 0 69 -24t47.5 -62t17.5 -82q0 -31 -10 -57.5t-27 -48.5t-41 -39.5t-53 -32.5q-24 -13 -50.5 -22.5t-54.5 -15.5t-57.5 -9t-58.5 -3zM434 -5q-35 0 -80.5 7t-88 19t-68.5 26l24 13q21 -8 51 -17.5t71.5 -17t93.5 -7.5q7 0 10 -2.5t3 -8.5q0 -4 -4.5 -8t-11.5 -4z
M205 -263q-11 0 -19 8t-8 18q0 11 8 19t19 8t18.5 -8t7.5 -19q0 -10 -7.5 -18t-18.5 -8zM154 -180q-11 0 -19 8t-8 18q0 11 8 19t19 8t18.5 -8t7.5 -19q0 -10 -7.5 -18t-18.5 -8zM255 -180q-11 0 -19 8t-8 18q0 11 8 19t19 8t18.5 -8t7.5 -19q0 -10 -7.5 -18t-18.5 -8z" />
    <glyph glyph-name="uni06A5.fina" unicode="&#x6a5;" horiz-adv-x="979" 
d="M366 -21l19 24q42 0 90.5 3t98.5 10t95 17.5t78 26.5q41 19 70.5 42t45.5 52t16 65q0 22 -7 47.5t-21.5 49t-35 38t-48.5 14.5q-29 0 -57 -21t-45 -56.5t-17 -77.5q0 -36 16.5 -65t44.5 -51t59 -36l-31 -9q-24 13 -50 34t-43.5 52.5t-17.5 73.5q0 36 11.5 68.5t31.5 57.5
t45.5 39t52.5 14q38 0 68 -24.5t48 -64t18 -83.5q0 -29 -9 -53.5t-26 -46t-41 -39.5t-54 -34q-35 -18 -82 -31t-101.5 -21t-111 -11.5t-110.5 -3.5zM979 -5q-43 0 -85.5 7t-80.5 19t-68 26l25 13q21 -8 48 -17.5t66.5 -17t98.5 -7.5q6 0 9.5 -2.5t3.5 -8.5q0 -4 -4.5 -8
t-12.5 -4zM366 -21q-76 0 -135.5 11.5t-100.5 35t-62.5 59t-21.5 84.5q0 23 4 47.5t9.5 49t11.5 45.5l22 -6q-6 -19 -11 -40.5t-8.5 -44.5t-3.5 -47q0 -61 36.5 -98.5t107 -54.5t171.5 -17l20 -15zM402 -275q-11 0 -19 8t-8 18q0 11 8 19t19 8t18.5 -8t7.5 -19
q0 -10 -7.5 -18t-18.5 -8zM351 -192q-11 0 -19 8t-8 18q0 11 8 19t19 8t18.5 -8t7.5 -19q0 -10 -7.5 -18t-18.5 -8zM452 -192q-11 0 -19 8t-8 18q0 11 8 19t19 8t18.5 -8t7.5 -19q0 -10 -7.5 -18t-18.5 -8z" />
    <glyph glyph-name="uni06A7.fina" unicode="&#x6a7;" horiz-adv-x="770" 
d="M316 -272q-62 0 -111.5 13.5t-85 41.5t-54.5 72.5t-19 106.5q0 10 3 38.5t15 70t39 89.5l21 -11q-13 -22 -25.5 -50.5t-20.5 -62t-8 -70.5q0 -82 33 -128.5t90.5 -66t128.5 -19.5q33 0 73.5 4.5t81 17t77 36t64 62t38.5 95.5q4 19 6 43.5t2 47.5q0 65 -15 117t-40.5 82.5
t-58.5 30.5q-25 0 -46 -16.5t-37 -43t-25.5 -57.5t-9.5 -60q0 -31 11.5 -49.5t31.5 -28t46.5 -12.5t55.5 -3h196q6 0 9.5 -2.5t3.5 -8.5q0 -4 -4.5 -8t-11.5 -4h-197q-29 0 -58.5 4t-53.5 15.5t-38.5 34t-14.5 59.5q0 33 10.5 68.5t29.5 66.5t45.5 50t59.5 19q42 0 72 -34
t46.5 -91.5t16.5 -129.5q0 -28 -3 -56t-8 -51q-17 -71 -57 -115t-93 -67t-108 -31.5t-103 -8.5zM547 447q-11 0 -19 8t-8 18q0 11 8 19t19 8t18.5 -8t7.5 -19q0 -10 -7.5 -18t-18.5 -8z" />
    <glyph glyph-name="uni06A8.init" unicode="&#x6a8;" horiz-adv-x="407" 
d="M0 -5l4 23q41 0 78.5 2t71 6.5t61 13t47.5 21.5q15 10 31.5 29t27.5 55t11 96q0 51 -13.5 100.5t-39 82t-64.5 32.5q-29 0 -55.5 -26.5t-43 -66t-16.5 -80.5q0 -43 17 -65.5t44.5 -30t58.5 -7.5t63 7t54 18l4 -21q-16 -10 -38 -16.5t-45 -9t-42 -2.5q-37 0 -69 11
t-51.5 38.5t-19.5 73.5q0 34 11 69t29.5 65.5t45 49t57.5 18.5q44 0 74.5 -34.5t46.5 -90.5t16 -121q0 -60 -16 -107.5t-62 -81.5q-18 -13 -43 -22.5t-59 -16t-77.5 -9.5t-98.5 -3zM214 699q-10 0 -18 8t-8 19t8 18.5t18 7.5q11 0 19 -7.5t8 -18.5t-8 -19t-19 -8zM164 616
q-10 0 -18 8t-8 19t8 18.5t18 7.5q11 0 19 -7.5t8 -18.5t-8 -19t-19 -8zM265 616q-10 0 -18 8t-8 19t8 18.5t18 7.5q11 0 19 -7.5t8 -18.5t-8 -19t-19 -8z" />
    <glyph glyph-name="uni06A8.medi" unicode="&#x6a8;" horiz-adv-x="434" 
d="M0 -5l4 23q26 0 51.5 2.5t50.5 8t48.5 13.5t45.5 18q38 18 67 40.5t46 52t17 69.5q0 30 -13 64t-37.5 58t-61.5 24q-29 0 -56.5 -20t-45 -54t-17.5 -75q0 -42 17 -72t44.5 -51t58.5 -35l-28 -9q-25 13 -51 34t-44.5 53.5t-18.5 79.5q0 36 11.5 67.5t31.5 55t45.5 36.5
t52.5 13q39 0 69 -24t47.5 -62t17.5 -82q0 -31 -10 -57.5t-27 -48.5t-41 -39.5t-53 -32.5q-24 -13 -50.5 -22.5t-54.5 -15.5t-57.5 -9t-58.5 -3zM434 -5q-35 0 -80.5 7t-88 19t-68.5 26l24 13q21 -8 51 -17.5t71.5 -17t93.5 -7.5q7 0 10 -2.5t3 -8.5q0 -4 -4.5 -8t-11.5 -4z
M208 609q-10 0 -18 8t-8 19t8 18.5t18 7.5q11 0 19 -7.5t8 -18.5t-8 -19t-19 -8zM158 526q-10 0 -18 8t-8 19t8 18.5t18 7.5q11 0 19 -7.5t8 -18.5t-8 -19t-19 -8zM259 526q-10 0 -18 8t-8 19t8 18.5t18 7.5q11 0 19 -7.5t8 -18.5t-8 -19t-19 -8z" />
    <glyph glyph-name="uni06A8.fina" unicode="&#x6a8;" horiz-adv-x="770" 
d="M316 -272q-62 0 -111.5 13.5t-85 41.5t-54.5 72.5t-19 106.5q0 10 3 38.5t15 70t39 89.5l21 -11q-13 -22 -25.5 -50.5t-20.5 -62t-8 -70.5q0 -82 33 -128.5t90.5 -66t128.5 -19.5q33 0 73.5 4.5t81 17t77 36t64 62t38.5 95.5q4 19 6 43.5t2 47.5q0 65 -15 117t-40.5 82.5
t-58.5 30.5q-25 0 -46 -16.5t-37 -43t-25.5 -57.5t-9.5 -60q0 -31 11.5 -49.5t31.5 -28t46.5 -12.5t55.5 -3h196q6 0 9.5 -2.5t3.5 -8.5q0 -4 -4.5 -8t-11.5 -4h-197q-29 0 -58.5 4t-53.5 15.5t-38.5 34t-14.5 59.5q0 33 10.5 68.5t29.5 66.5t45.5 50t59.5 19q42 0 72 -34
t46.5 -91.5t16.5 -129.5q0 -28 -3 -56t-8 -51q-17 -71 -57 -115t-93 -67t-108 -31.5t-103 -8.5zM548 530q-10 0 -18 8t-8 19t8 18.5t18 7.5q11 0 19 -7.5t8 -18.5t-8 -19t-19 -8zM498 447q-10 0 -18 8t-8 19t8 18.5t18 7.5q11 0 19 -7.5t8 -18.5t-8 -19t-19 -8zM599 447
q-10 0 -18 8t-8 19t8 18.5t18 7.5q11 0 19 -7.5t8 -18.5t-8 -19t-19 -8z" />
    <glyph glyph-name="uni06AA.init" unicode="&#x6aa;" horiz-adv-x="709" 
d="M0 -5l4 23h243q91 0 161 6t117 19.5t71 34.5t24 50q0 17 -8 34.5t-31.5 33.5t-69 29t-120.5 22q-100 13 -161.5 22.5t-89.5 26.5t-29 50q0 36 28.5 69.5t77.5 62.5t112 52.5t132 40.5l5 -23q-116 -29 -189 -65t-107.5 -71.5t-34.5 -63.5q0 -23 26 -35.5t83 -21t150 -20.5
q49 -6 93.5 -16t79.5 -25.5t55 -39.5t20 -59q0 -45 -33.5 -72t-90 -41t-127 -18.5t-143.5 -4.5h-248z" />
    <glyph glyph-name="uni06AA.medi" unicode="&#x6aa;" horiz-adv-x="774" 
d="M774 -5q-27 0 -60.5 5t-66.5 17t-60 33l18 14q43 -26 88 -36t84 -10q8 0 10.5 -3t2.5 -8q0 -4 -4 -8t-12 -4zM0 -5l4 23h243q91 0 161 6t117 19.5t71 34.5t24 50q0 17 -8 34.5t-31.5 33.5t-69 29t-120.5 22q-100 13 -161.5 22.5t-89.5 26.5t-29 50q0 36 28.5 69.5
t77.5 62.5t112 52.5t132 40.5l5 -23q-116 -29 -189 -65t-107.5 -71.5t-34.5 -63.5q0 -23 26 -35.5t83 -21t150 -20.5q49 -6 93.5 -16t79.5 -25.5t55 -39.5t20 -59q0 -45 -33.5 -72t-90 -41t-127 -18.5t-143.5 -4.5h-248z" />
    <glyph glyph-name="uni06AA.fina" unicode="&#x6aa;" horiz-adv-x="1032" 
d="M1032 -5q-27 0 -60.5 5t-66.5 17t-60 33l18 14q43 -26 87.5 -36t84.5 -10q8 0 10.5 -3t2.5 -8q0 -4 -4.5 -8t-11.5 -4zM507 -15q-35 0 -89 1t-115.5 3t-122 5.5t-109.5 9.5l2 23q49 -5 111 -9t124.5 -6t115.5 -3t82 -1q91 0 161 8t117 23.5t71 38t24 50.5q0 17 -8 34.5
t-31.5 33.5t-69 29t-120.5 22q-100 13 -161.5 22.5t-89.5 26.5t-29 50q0 36 28.5 69.5t77.5 62.5t112 52.5t132 40.5l5 -23q-116 -29 -188.5 -65t-107.5 -71.5t-35 -63.5q0 -23 26 -35.5t83 -21t150 -20.5q49 -6 93.5 -16t79.5 -25.5t55 -39.5t20 -59q0 -44 -33.5 -72.5
t-90 -44.5t-127 -22.5t-143.5 -6.5z" />
    <glyph glyph-name="uni06AB.init" unicode="&#x6ab;" horiz-adv-x="358" 
d="M281 513q-31 0 -52.5 22.5t-21.5 53.5t21.5 52.5t52.5 21.5t53 -21.5t22 -52.5t-22 -53.5t-53 -22.5zM281 535q21 0 37 16t16 38t-15.5 37.5t-37.5 15.5q-21 0 -36.5 -15.5t-15.5 -37.5t15.5 -38t36.5 -16zM0 -5l4 23h73q52 0 87.5 9t56.5 25.5t30.5 40.5t9.5 53
q0 45 -28 96.5t-76 104.5q-40 45 -65.5 72t-40.5 41.5t-20.5 21t-5.5 9.5q0 9 1.5 15t5 10.5t8.5 7.5q27 21 59 43t70.5 46t83 49t94.5 50l11 -21q-51 -25 -98.5 -51.5t-88 -52.5t-74 -50t-56.5 -45v10q41 -44 83.5 -88t78.5 -88.5t58.5 -89t22.5 -91.5q0 -37 -13 -65.5
t-38.5 -47t-65 -28t-91.5 -9.5h-76z" />
    <glyph glyph-name="uni06AB.medi" unicode="&#x6ab;" horiz-adv-x="429" 
d="M283 514q-31 0 -53 22t-22 53t22 53t53 22t53 -22t22 -53t-22 -53t-53 -22zM283 535q21 0 37 16t16 38t-15.5 38t-37.5 16q-21 0 -36.5 -16t-15.5 -38t15.5 -38t36.5 -16zM0 -5l4 23h79q62 0 101.5 14t58 42t18.5 72q0 30 -17 66t-44 73t-57 71.5t-57 63t-44 48t-17 25.5
q0 8 2 13.5t5.5 10t7.5 7.5q26 20 58 42.5t70 46t83 49t96 50.5l11 -21q-51 -25 -98 -52t-88.5 -52.5t-74.5 -49.5t-56 -45l2 10q32 -36 69 -76t72.5 -83.5t63 -87t38.5 -85.5q12 -42 31 -76.5t47.5 -55t68.5 -20.5q6 0 9 -2.5t3 -8.5q0 -4 -4 -8t-12 -4q-36 0 -67.5 18
t-55.5 54t-38 88l16 -13q-1 -45 -18.5 -74t-46.5 -44.5t-65.5 -22t-76.5 -6.5h-77z" />
    <glyph glyph-name="uni06AB.fina" unicode="&#x6ab;" horiz-adv-x="896" 
d="M748 516q-31 0 -52.5 22.5t-21.5 53.5t21.5 52.5t52.5 21.5t53.5 -21.5t22.5 -52.5t-22.5 -53.5t-53.5 -22.5zM748 538q22 0 37.5 15.5t15.5 38.5q0 22 -15.5 37.5t-37.5 15.5q-21 0 -36.5 -15.5t-15.5 -37.5q0 -23 15.5 -38.5t36.5 -15.5zM366 -21l19 24q69 0 130.5 7
t109 23.5t75 44t27.5 67.5q0 35 -17.5 72.5t-44.5 74.5t-57.5 70.5t-57.5 61t-44.5 45.5t-17.5 24q0 8 2 13.5t5.5 10t7.5 7.5q31 24 77 55t104.5 65.5t124.5 67.5l12 -21q-62 -30 -125 -67t-113.5 -71.5t-78.5 -60.5l2 10q31 -34 68 -71t71.5 -78t63 -86.5t43.5 -96.5
q8 -24 19 -50.5t28 -49.5t41.5 -37.5t58.5 -14.5q6 0 9.5 -2.5t3.5 -8.5q0 -4 -4.5 -8t-11.5 -4q-37 0 -67.5 18t-54 54t-38.5 88l14 -13q0 -45 -27.5 -76t-78 -50.5t-121 -28t-157.5 -8.5zM366 -21q-76 0 -135.5 11.5t-100.5 35t-62.5 59t-21.5 84.5q0 23 4 47.5t9.5 49
t11.5 45.5l22 -6q-6 -19 -11 -40.5t-8.5 -44.5t-3.5 -47q0 -61 36.5 -98.5t107 -54.5t171.5 -17l20 -15z" />
    <glyph glyph-name="uni06AC.init" unicode="&#x6ac;" horiz-adv-x="358" 
d="M0 -5l4 23h73q52 0 87.5 9t56.5 25.5t30.5 40.5t9.5 53q0 45 -28 96.5t-76 104.5q-40 45 -65.5 72t-40.5 41.5t-20.5 21t-5.5 9.5q0 9 1.5 15t5 10.5t8.5 7.5q27 21 59 43t70.5 46t83 49t94.5 50l11 -21q-51 -25 -98.5 -51.5t-88 -52.5t-74 -50t-56.5 -45v10
q41 -44 83.5 -88t78.5 -88.5t58.5 -89t22.5 -91.5q0 -37 -13 -65.5t-38.5 -47t-65 -28t-91.5 -9.5h-76zM153 771q-11 0 -19 8t-8 18q0 11 8 19t19 8t18.5 -8t7.5 -19q0 -10 -7.5 -18t-18.5 -8z" />
    <glyph glyph-name="uni06AC.medi" unicode="&#x6ac;" horiz-adv-x="429" 
d="M0 -5l4 23h79q62 0 101.5 14t58 42t18.5 72q0 30 -17 66t-44 73t-57 71.5t-57 63t-44 48t-17 25.5q0 8 2 13.5t5.5 10t7.5 7.5q26 20 58 42.5t70 46t83 49t96 50.5l11 -21q-51 -25 -98 -52t-88.5 -52.5t-74.5 -49.5t-56 -45l2 10q32 -36 69 -76t72.5 -83.5t63 -87
t38.5 -85.5q12 -42 31 -76.5t47.5 -55t68.5 -20.5q6 0 9 -2.5t3 -8.5q0 -4 -4 -8t-12 -4q-36 0 -67.5 18t-55.5 54t-38 88l16 -13q-1 -45 -18.5 -74t-46.5 -44.5t-65.5 -22t-76.5 -6.5h-77zM140 771q-11 0 -19 8t-8 18q0 11 8 19t19 8t18.5 -8t7.5 -19q0 -10 -7.5 -18
t-18.5 -8z" />
    <glyph glyph-name="uni06AC.fina" unicode="&#x6ac;" horiz-adv-x="798" 
d="M366 -21l19 24q78 0 134.5 8.5t93 27.5t53 50.5t14.5 76.5l-19 548h23l20 -542q2 -52 7 -86t25 -51t65 -17q7 0 10 -2.5t3 -8.5q0 -4 -4.5 -8t-11.5 -4q-27 0 -52 8t-41 32.5t-16 75.5h11q-9 -41 -37.5 -67t-72.5 -40t-101 -19.5t-123 -5.5zM334 204l-6 21q56 15 84.5 29
t39 26t10.5 20q0 16 -16 28.5t-36.5 25.5t-36.5 28.5t-16 38.5q0 13 9.5 31.5t35 41t72.5 46.5l10 -19q-42 -21 -73.5 -49t-31.5 -51q0 -17 16 -30t36.5 -25.5t36.5 -28t16 -37.5q0 -12 -8 -24.5t-25.5 -24.5t-46 -23.5t-70.5 -23.5zM366 -21q-76 0 -135.5 11.5t-100.5 35
t-62.5 59t-21.5 84.5q0 23 4 47.5t9.5 49t11.5 45.5l22 -6q-6 -19 -11 -40.5t-8.5 -44.5t-3.5 -47q0 -61 36.5 -98.5t107 -54.5t171.5 -17l20 -15zM412 668q-11 0 -19 8t-8 18q0 11 8 19t19 8t18.5 -8t7.5 -19q0 -10 -7.5 -18t-18.5 -8z" />
    <glyph glyph-name="uni06AE.init" unicode="&#x6ae;" horiz-adv-x="358" 
d="M0 -5l4 23h73q52 0 87.5 9t56.5 25.5t30.5 40.5t9.5 53q0 45 -28 96.5t-76 104.5q-40 45 -65.5 72t-40.5 41.5t-20.5 21t-5.5 9.5q0 9 1.5 15t5 10.5t8.5 7.5q27 21 59 43t70.5 46t83 49t94.5 50l11 -21q-51 -25 -98.5 -51.5t-88 -52.5t-74 -50t-56.5 -45v10
q41 -44 83.5 -88t78.5 -88.5t58.5 -89t22.5 -91.5q0 -37 -13 -65.5t-38.5 -47t-65 -28t-91.5 -9.5h-76zM150 -250q-11 0 -19 8t-8 18q0 11 8 19t19 8t18.5 -8t7.5 -19q0 -10 -7.5 -18t-18.5 -8zM99 -167q-11 0 -19 8t-8 18q0 11 8 19t19 8t18.5 -8t7.5 -19q0 -10 -7.5 -18
t-18.5 -8zM200 -167q-11 0 -19 8t-8 18q0 11 8 19t19 8t18.5 -8t7.5 -19q0 -10 -7.5 -18t-18.5 -8z" />
    <glyph glyph-name="uni06AE.medi" unicode="&#x6ae;" horiz-adv-x="429" 
d="M0 -5l4 23h79q62 0 101.5 14t58 42t18.5 72q0 30 -17 66t-44 73t-57 71.5t-57 63t-44 48t-17 25.5q0 8 2 13.5t5.5 10t7.5 7.5q26 20 58 42.5t70 46t83 49t96 50.5l11 -21q-51 -25 -98 -52t-88.5 -52.5t-74.5 -49.5t-56 -45l2 10q32 -36 69 -76t72.5 -83.5t63 -87
t38.5 -85.5q12 -42 31 -76.5t47.5 -55t68.5 -20.5q6 0 9 -2.5t3 -8.5q0 -4 -4 -8t-12 -4q-36 0 -67.5 18t-55.5 54t-38 88l16 -13q-1 -45 -18.5 -74t-46.5 -44.5t-65.5 -22t-76.5 -6.5h-77zM139 -250q-11 0 -19 8t-8 18q0 11 8 19t19 8t18.5 -8t7.5 -19q0 -10 -7.5 -18
t-18.5 -8zM88 -167q-11 0 -19 8t-8 18q0 11 8 19t19 8t18.5 -8t7.5 -19q0 -10 -7.5 -18t-18.5 -8zM189 -167q-11 0 -19 8t-8 18q0 11 8 19t19 8t18.5 -8t7.5 -19q0 -10 -7.5 -18t-18.5 -8z" />
    <glyph glyph-name="uni06AE.fina" unicode="&#x6ae;" horiz-adv-x="798" 
d="M366 -21l19 24q78 0 134.5 8.5t93 27.5t53 50.5t14.5 76.5l-19 548h23l20 -542q2 -52 7 -86t25 -51t65 -17q7 0 10 -2.5t3 -8.5q0 -4 -4.5 -8t-11.5 -4q-27 0 -52 8t-41 32.5t-16 75.5h11q-9 -41 -37.5 -67t-72.5 -40t-101 -19.5t-123 -5.5zM334 204l-6 21q56 15 84.5 29
t39 26t10.5 20q0 16 -16 28.5t-36.5 25.5t-36.5 28.5t-16 38.5q0 13 9.5 31.5t35 41t72.5 46.5l10 -19q-42 -21 -73.5 -49t-31.5 -51q0 -17 16 -30t36.5 -25.5t36.5 -28t16 -37.5q0 -12 -8 -24.5t-25.5 -24.5t-46 -23.5t-70.5 -23.5zM366 -21q-76 0 -135.5 11.5t-100.5 35
t-62.5 59t-21.5 84.5q0 23 4 47.5t9.5 49t11.5 45.5l22 -6q-6 -19 -11 -40.5t-8.5 -44.5t-3.5 -47q0 -61 36.5 -98.5t107 -54.5t171.5 -17l20 -15zM387 -271q-11 0 -19 8t-8 18q0 11 8 19t19 8t18.5 -8t7.5 -19q0 -10 -7.5 -18t-18.5 -8zM336 -188q-11 0 -19 8t-8 18
q0 11 8 19t19 8t18.5 -8t7.5 -19q0 -10 -7.5 -18t-18.5 -8zM437 -188q-11 0 -19 8t-8 18q0 11 8 19t19 8t18.5 -8t7.5 -19q0 -10 -7.5 -18t-18.5 -8z" />
    <glyph glyph-name="uni06B0.init" unicode="&#x6b0;" horiz-adv-x="358" 
d="M283 515q-31 0 -53 22t-22 53t22 53t53 22t53 -22t22 -53t-22 -53t-53 -22zM283 536q21 0 37 16t16 38t-15.5 37.5t-37.5 15.5t-37 -15.5t-15 -37.5t15 -38t37 -16zM2 591l-12 17q37 27 80.5 55t98 60.5t122.5 69.5l11 -19q-68 -38 -122 -70t-97.5 -60t-80.5 -53zM0 -5
l4 23h73q52 0 87.5 9t56.5 25.5t30.5 40.5t9.5 53q0 45 -28 96.5t-76 104.5q-40 45 -65.5 72t-40.5 41.5t-20.5 21t-5.5 9.5q0 9 1.5 15t5 10.5t8.5 7.5q27 21 59 43t70.5 46t83 49t94.5 50l11 -21q-51 -25 -98.5 -51.5t-88 -52.5t-74 -50t-56.5 -45v10q41 -44 83.5 -88
t78.5 -88.5t58.5 -89t22.5 -91.5q0 -37 -13 -65.5t-38.5 -47t-65 -28t-91.5 -9.5h-76z" />
    <glyph glyph-name="uni06B0.medi" unicode="&#x6b0;" horiz-adv-x="429" 
d="M282 514q-31 0 -53 22.5t-22 53.5t22 52.5t53 21.5t53 -21.5t22 -52.5t-22 -53.5t-53 -22.5zM282 536q21 0 37 15.5t16 38.5q0 22 -15.5 37.5t-37.5 15.5q-21 0 -36.5 -15.5t-15.5 -37.5q0 -23 15.5 -38.5t36.5 -15.5zM2 591l-11 17q36 27 79.5 55t98 60.5t123.5 69.5
l10 -19q-68 -38 -122 -70t-97 -60t-81 -53zM0 -5l4 23h79q62 0 101.5 14t58 42t18.5 72q0 30 -17 66t-44 73t-57 71.5t-57 63t-44 48t-17 25.5q0 8 2 13.5t5.5 10t7.5 7.5q26 20 58 42.5t70 46t83 49t96 50.5l11 -21q-51 -25 -98 -52t-88.5 -52.5t-74.5 -49.5t-56 -45l2 10
q32 -36 69 -76t72.5 -83.5t63 -87t38.5 -85.5q12 -42 31 -76.5t47.5 -55t68.5 -20.5q6 0 9 -2.5t3 -8.5q0 -4 -4 -8t-12 -4q-36 0 -67.5 18t-55.5 54t-38 88l16 -13q-1 -45 -18.5 -74t-46.5 -44.5t-65.5 -22t-76.5 -6.5h-77z" />
    <glyph glyph-name="uni06B0.fina" unicode="&#x6b0;" horiz-adv-x="896" 
d="M744 514q-31 0 -52.5 22t-21.5 53t21.5 53t52.5 22t53 -22t22 -53t-22 -53t-53 -22zM744 535q21 0 37 16t16 38t-15.5 37.5t-37.5 15.5q-21 0 -36.5 -15.5t-15.5 -37.5t15.5 -38t36.5 -16zM467 591l-12 17q37 27 80.5 55t98 60.5t122.5 69.5l10 -19q-67 -38 -121 -70
t-97.5 -60t-80.5 -53zM366 -21l19 24q69 0 130.5 7t109 23.5t75 44t27.5 67.5q0 35 -17.5 72.5t-44.5 74.5t-57.5 70.5t-57.5 61t-44.5 45.5t-17.5 24q0 8 2 13.5t5.5 10t7.5 7.5q31 24 77 55t104.5 65.5t124.5 67.5l12 -21q-62 -30 -125 -67t-113.5 -71.5t-78.5 -60.5l2 10
q31 -34 68 -71t71.5 -78t63 -86.5t43.5 -96.5q8 -24 19 -50.5t28 -49.5t41.5 -37.5t58.5 -14.5q6 0 9.5 -2.5t3.5 -8.5q0 -4 -4.5 -8t-11.5 -4q-37 0 -67.5 18t-54 54t-38.5 88l14 -13q0 -45 -27.5 -76t-78 -50.5t-121 -28t-157.5 -8.5zM366 -21q-76 0 -135.5 11.5
t-100.5 35t-62.5 59t-21.5 84.5q0 23 4 47.5t9.5 49t11.5 45.5l22 -6q-6 -19 -11 -40.5t-8.5 -44.5t-3.5 -47q0 -61 36.5 -98.5t107 -54.5t171.5 -17l20 -15z" />
    <glyph glyph-name="uni06B2.init" unicode="&#x6b2;" horiz-adv-x="358" 
d="M2 591l-12 17q37 27 80.5 55t98 60.5t122.5 69.5l11 -19q-68 -38 -122 -70t-97.5 -60t-80.5 -53zM0 -5l4 23h73q52 0 87.5 9t56.5 25.5t30.5 40.5t9.5 53q0 45 -28 96.5t-76 104.5q-40 45 -65.5 72t-40.5 41.5t-20.5 21t-5.5 9.5q0 9 1.5 15t5 10.5t8.5 7.5q27 21 59 43
t70.5 46t83 49t94.5 50l11 -21q-51 -25 -98.5 -51.5t-88 -52.5t-74 -50t-56.5 -45v10q41 -44 83.5 -88t78.5 -88.5t58.5 -89t22.5 -91.5q0 -37 -13 -65.5t-38.5 -47t-65 -28t-91.5 -9.5h-76zM210 -165q-11 0 -19 8t-8 18q0 11 8 19t19 8t18.5 -8t7.5 -19q0 -10 -7.5 -18
t-18.5 -8zM109 -165q-11 0 -19 8t-8 18q0 11 8 19t19 8t18.5 -8t7.5 -19q0 -10 -7.5 -18t-18.5 -8z" />
    <glyph glyph-name="uni06B2.medi" unicode="&#x6b2;" horiz-adv-x="429" 
d="M2 591l-11 17q36 27 79.5 55t98 60.5t123.5 69.5l10 -19q-68 -38 -122 -70t-97 -60t-81 -53zM0 -5l4 23h79q62 0 101.5 14t58 42t18.5 72q0 30 -17 66t-44 73t-57 71.5t-57 63t-44 48t-17 25.5q0 8 2 13.5t5.5 10t7.5 7.5q26 20 58 42.5t70 46t83 49t96 50.5l11 -21
q-51 -25 -98 -52t-88.5 -52.5t-74.5 -49.5t-56 -45l2 10q32 -36 69 -76t72.5 -83.5t63 -87t38.5 -85.5q12 -42 31 -76.5t47.5 -55t68.5 -20.5q6 0 9 -2.5t3 -8.5q0 -4 -4 -8t-12 -4q-36 0 -67.5 18t-55.5 54t-38 88l16 -13q-1 -45 -18.5 -74t-46.5 -44.5t-65.5 -22
t-76.5 -6.5h-77zM217 -165q-11 0 -19 8t-8 18q0 11 8 19t19 8t18.5 -8t7.5 -19q0 -10 -7.5 -18t-18.5 -8zM116 -165q-11 0 -19 8t-8 18q0 11 8 19t19 8t18.5 -8t7.5 -19q0 -10 -7.5 -18t-18.5 -8z" />
    <glyph glyph-name="uni06B2.fina" unicode="&#x6b2;" horiz-adv-x="896" 
d="M467 591l-12 17q37 27 80.5 55t98 60.5t122.5 69.5l10 -19q-67 -38 -121 -70t-97.5 -60t-80.5 -53zM366 -21l19 24q69 0 130.5 7t109 23.5t75 44t27.5 67.5q0 35 -17.5 72.5t-44.5 74.5t-57.5 70.5t-57.5 61t-44.5 45.5t-17.5 24q0 8 2 13.5t5.5 10t7.5 7.5q31 24 77 55
t104.5 65.5t124.5 67.5l12 -21q-62 -30 -125 -67t-113.5 -71.5t-78.5 -60.5l2 10q31 -34 68 -71t71.5 -78t63 -86.5t43.5 -96.5q8 -24 19 -50.5t28 -49.5t41.5 -37.5t58.5 -14.5q6 0 9.5 -2.5t3.5 -8.5q0 -4 -4.5 -8t-11.5 -4q-37 0 -67.5 18t-54 54t-38.5 88l14 -13
q0 -45 -27.5 -76t-78 -50.5t-121 -28t-157.5 -8.5zM366 -21q-76 0 -135.5 11.5t-100.5 35t-62.5 59t-21.5 84.5q0 23 4 47.5t9.5 49t11.5 45.5l22 -6q-6 -19 -11 -40.5t-8.5 -44.5t-3.5 -47q0 -61 36.5 -98.5t107 -54.5t171.5 -17l20 -15zM438 -186q-11 0 -19 8t-8 18
q0 11 8 19t19 8t18.5 -8t7.5 -19q0 -10 -7.5 -18t-18.5 -8zM337 -186q-11 0 -19 8t-8 18q0 11 8 19t19 8t18.5 -8t7.5 -19q0 -10 -7.5 -18t-18.5 -8z" />
    <glyph glyph-name="uni06B4.init" unicode="&#x6b4;" horiz-adv-x="358" 
d="M69 862q-10 0 -16.5 7t-6.5 16t6.5 15.5t16.5 6.5q9 0 15.5 -6.5t6.5 -15.5t-6.5 -16t-15.5 -7zM59 736q-10 0 -16.5 7t-6.5 16t6.5 15.5t16.5 6.5q9 0 15.5 -6.5t6.5 -15.5t-6.5 -16t-15.5 -7zM168 788q-10 0 -16.5 7t-6.5 16t6.5 15.5t16.5 6.5q9 0 15.5 -6.5
t6.5 -15.5t-6.5 -16t-15.5 -7zM2 591l-12 17q37 27 80.5 55t98 60.5t122.5 69.5l11 -19q-68 -38 -122 -70t-97.5 -60t-80.5 -53zM0 -5l4 23h73q52 0 87.5 9t56.5 25.5t30.5 40.5t9.5 53q0 45 -28 96.5t-76 104.5q-40 45 -65.5 72t-40.5 41.5t-20.5 21t-5.5 9.5q0 9 1.5 15
t5 10.5t8.5 7.5q27 21 59 43t70.5 46t83 49t94.5 50l11 -21q-51 -25 -98.5 -51.5t-88 -52.5t-74 -50t-56.5 -45v10q41 -44 83.5 -88t78.5 -88.5t58.5 -89t22.5 -91.5q0 -37 -13 -65.5t-38.5 -47t-65 -28t-91.5 -9.5h-76z" />
    <glyph glyph-name="uni06B4.medi" unicode="&#x6b4;" horiz-adv-x="429" 
d="M69 863q-10 0 -16.5 7t-6.5 16t6.5 15.5t16.5 6.5q9 0 15.5 -6.5t6.5 -15.5t-6.5 -16t-15.5 -7zM59 737q-10 0 -16.5 7t-6.5 16t6.5 15.5t16.5 6.5q9 0 15.5 -6.5t6.5 -15.5t-6.5 -16t-15.5 -7zM168 789q-10 0 -16.5 7t-6.5 16t6.5 15.5t16.5 6.5q9 0 15.5 -6.5
t6.5 -15.5t-6.5 -16t-15.5 -7zM2 591l-11 17q36 27 79.5 55t98 60.5t123.5 69.5l10 -19q-68 -38 -122 -70t-97 -60t-81 -53zM0 -5l4 23h79q62 0 101.5 14t58 42t18.5 72q0 30 -17 66t-44 73t-57 71.5t-57 63t-44 48t-17 25.5q0 8 2 13.5t5.5 10t7.5 7.5q26 20 58 42.5t70 46
t83 49t96 50.5l11 -21q-51 -25 -98 -52t-88.5 -52.5t-74.5 -49.5t-56 -45l2 10q32 -36 69 -76t72.5 -83.5t63 -87t38.5 -85.5q12 -42 31 -76.5t47.5 -55t68.5 -20.5q6 0 9 -2.5t3 -8.5q0 -4 -4 -8t-12 -4q-36 0 -67.5 18t-55.5 54t-38 88l16 -13q-1 -45 -18.5 -74
t-46.5 -44.5t-65.5 -22t-76.5 -6.5h-77z" />
    <glyph glyph-name="uni06B4.fina" unicode="&#x6b4;" horiz-adv-x="896" 
d="M525 863q-10 0 -16.5 7t-6.5 16t6.5 15.5t16.5 6.5q9 0 15.5 -6.5t6.5 -15.5t-6.5 -16t-15.5 -7zM515 737q-10 0 -16.5 7t-6.5 16t6.5 15.5t16.5 6.5q9 0 15.5 -6.5t6.5 -15.5t-6.5 -16t-15.5 -7zM624 789q-10 0 -16.5 7t-6.5 16t6.5 15.5t16.5 6.5q9 0 15.5 -6.5
t6.5 -15.5t-6.5 -16t-15.5 -7zM467 591l-12 17q37 27 80.5 55t98 60.5t122.5 69.5l10 -19q-67 -38 -121 -70t-97.5 -60t-80.5 -53zM366 -21l19 24q69 0 130.5 7t109 23.5t75 44t27.5 67.5q0 35 -17.5 72.5t-44.5 74.5t-57.5 70.5t-57.5 61t-44.5 45.5t-17.5 24q0 8 2 13.5
t5.5 10t7.5 7.5q31 24 77 55t104.5 65.5t124.5 67.5l12 -21q-62 -30 -125 -67t-113.5 -71.5t-78.5 -60.5l2 10q31 -34 68 -71t71.5 -78t63 -86.5t43.5 -96.5q8 -24 19 -50.5t28 -49.5t41.5 -37.5t58.5 -14.5q6 0 9.5 -2.5t3.5 -8.5q0 -4 -4.5 -8t-11.5 -4q-37 0 -67.5 18
t-54 54t-38.5 88l14 -13q0 -45 -27.5 -76t-78 -50.5t-121 -28t-157.5 -8.5zM366 -21q-76 0 -135.5 11.5t-100.5 35t-62.5 59t-21.5 84.5q0 23 4 47.5t9.5 49t11.5 45.5l22 -6q-6 -19 -11 -40.5t-8.5 -44.5t-3.5 -47q0 -61 36.5 -98.5t107 -54.5t171.5 -17l20 -15z" />
    <glyph glyph-name="uni06B5.init" unicode="&#x6b5;" horiz-adv-x="193" 
d="M0 -5l4 23q54 0 78.5 15.5t30.5 49.5t4 92l-19 539h23l20 -537q2 -50 -2.5 -84.5t-20 -56t-44 -31.5t-74.5 -10zM98 844q-7 16 -17 40.5t-21 51.5t-22 51.5t-19 40.5l19 10q6 -10 16.5 -33.5t22 -51.5t22 -53.5t16.5 -40.5l7 -13zM122 846l-20 6q6 18 16 46.5t21 59
t20 54t12 31.5l20 -8q-4 -10 -13 -34.5t-20 -54t-21 -56.5t-15 -44z" />
    <glyph glyph-name="uni06B5.medi" unicode="&#x6b5;" horiz-adv-x="252" 
d="M0 -5l4 23q56 0 81 22t30.5 64t3.5 101l-17 509h25l16 -507q3 -74 14 -115t34.5 -57.5t63.5 -16.5q7 0 10 -2.5t3 -8.5q0 -4 -4.5 -8t-11.5 -4q-37 0 -63 15.5t-40 41.5t-20 55h10q-6 -34 -21 -59t-43 -39t-75 -14zM101 844q-7 16 -17 40.5t-21 51.5t-22 51.5t-19 40.5
l19 10q6 -10 16.5 -33.5t22 -51.5t22 -53.5t16.5 -40.5l7 -13zM125 846l-20 6q6 18 16 46.5t21 59t20 54t12 31.5l20 -8q-4 -10 -13 -34.5t-20 -54t-21 -56.5t-15 -44z" />
    <glyph glyph-name="uni06B5.fina" unicode="&#x6b5;" horiz-adv-x="669" 
d="M46 -26q0 24 4 51.5t15 62t32 79.5l22 -11q-15 -32 -25.5 -63t-16 -61t-5.5 -57q0 -57 26 -97.5t71 -62t102 -21.5q83 0 135 43t75.5 125.5t19.5 200.5l-17 551h24l18 -539q2 -42 21.5 -77.5t52.5 -57.5t72 -22q7 0 10 -2.5t3 -8.5q0 -4 -4 -8t-12 -4q-26 0 -51 9.5
t-45.5 26t-33.5 36.5t-16 41h1q-1 -66 -14 -126.5t-42 -108.5t-77.5 -75.5t-120.5 -27.5q-49 0 -90 13.5t-71 39.5t-46.5 64t-16.5 87zM266 587q-7 16 -17 40.5t-21 51.5t-22 51.5t-19 40.5l19 10q6 -10 16.5 -33.5t22 -51.5t22 -53.5t16.5 -40.5l7 -13zM290 589l-20 6
q6 18 16 46.5t21 59t20 54t12 31.5l20 -8q-4 -10 -13 -34.5t-20 -54t-21 -56.5t-15 -44z" />
    <glyph glyph-name="uni06B6.init" unicode="&#x6b6;" horiz-adv-x="193" 
d="M0 -5l4 23q54 0 78.5 15.5t30.5 49.5t4 92l-19 539h23l20 -537q2 -50 -2.5 -84.5t-20 -56t-44 -31.5t-74.5 -10zM109 849q-11 0 -19 8t-8 18q0 11 8 19t19 8t18.5 -8t7.5 -19q0 -10 -7.5 -18t-18.5 -8z" />
    <glyph glyph-name="uni06B6.medi" unicode="&#x6b6;" horiz-adv-x="252" 
d="M0 -5l4 23q56 0 81 22t30.5 64t3.5 101l-17 509h25l16 -507q3 -74 14 -115t34.5 -57.5t63.5 -16.5q7 0 10 -2.5t3 -8.5q0 -4 -4.5 -8t-11.5 -4q-37 0 -63 15.5t-40 41.5t-20 55h10q-6 -34 -21 -59t-43 -39t-75 -14zM112 849q-11 0 -19 8t-8 18q0 11 8 19t19 8t18.5 -8
t7.5 -19q0 -10 -7.5 -18t-18.5 -8z" />
    <glyph glyph-name="uni06B6.fina" unicode="&#x6b6;" horiz-adv-x="669" 
d="M46 -26q0 24 4 51.5t15 62t32 79.5l22 -11q-15 -32 -25.5 -63t-16 -61t-5.5 -57q0 -57 26 -97.5t71 -62t102 -21.5q83 0 135 43t75.5 125.5t19.5 200.5l-17 551h24l18 -539q2 -42 21.5 -77.5t52.5 -57.5t72 -22q7 0 10 -2.5t3 -8.5q0 -4 -4 -8t-12 -4q-26 0 -51 9.5
t-45.5 26t-33.5 36.5t-16 41h1q-1 -66 -14 -126.5t-42 -108.5t-77.5 -75.5t-120.5 -27.5q-49 0 -90 13.5t-71 39.5t-46.5 64t-16.5 87zM277 592q-11 0 -19 8t-8 18q0 11 8 19t19 8t18.5 -8t7.5 -19q0 -10 -7.5 -18t-18.5 -8z" />
    <glyph glyph-name="uni06B7.init" unicode="&#x6b7;" horiz-adv-x="193" 
d="M0 -5l4 23q54 0 78.5 15.5t30.5 49.5t4 92l-19 539h23l20 -537q2 -50 -2.5 -84.5t-20 -56t-44 -31.5t-74.5 -10zM110 932q-10 0 -18 8t-8 19t8 18.5t18 7.5q11 0 19 -7.5t8 -18.5t-8 -19t-19 -8zM60 849q-10 0 -18 8t-8 19t8 18.5t18 7.5q11 0 19 -7.5t8 -18.5t-8 -19
t-19 -8zM161 849q-10 0 -18 8t-8 19t8 18.5t18 7.5q11 0 19 -7.5t8 -18.5t-8 -19t-19 -8z" />
    <glyph glyph-name="uni06B7.medi" unicode="&#x6b7;" horiz-adv-x="252" 
d="M0 -5l4 23q56 0 81 22t30.5 64t3.5 101l-17 509h25l16 -507q3 -74 14 -115t34.5 -57.5t63.5 -16.5q7 0 10 -2.5t3 -8.5q0 -4 -4.5 -8t-11.5 -4q-37 0 -63 15.5t-40 41.5t-20 55h10q-6 -34 -21 -59t-43 -39t-75 -14zM113 932q-10 0 -18 8t-8 19t8 18.5t18 7.5
q11 0 19 -7.5t8 -18.5t-8 -19t-19 -8zM63 849q-10 0 -18 8t-8 19t8 18.5t18 7.5q11 0 19 -7.5t8 -18.5t-8 -19t-19 -8zM164 849q-10 0 -18 8t-8 19t8 18.5t18 7.5q11 0 19 -7.5t8 -18.5t-8 -19t-19 -8z" />
    <glyph glyph-name="uni06B7.fina" unicode="&#x6b7;" horiz-adv-x="669" 
d="M46 -26q0 24 4 51.5t15 62t32 79.5l22 -11q-15 -32 -25.5 -63t-16 -61t-5.5 -57q0 -57 26 -97.5t71 -62t102 -21.5q83 0 135 43t75.5 125.5t19.5 200.5l-17 551h24l18 -539q2 -42 21.5 -77.5t52.5 -57.5t72 -22q7 0 10 -2.5t3 -8.5q0 -4 -4 -8t-12 -4q-26 0 -51 9.5
t-45.5 26t-33.5 36.5t-16 41h1q-1 -66 -14 -126.5t-42 -108.5t-77.5 -75.5t-120.5 -27.5q-49 0 -90 13.5t-71 39.5t-46.5 64t-16.5 87zM278 675q-10 0 -18 8t-8 19t8 18.5t18 7.5q11 0 19 -7.5t8 -18.5t-8 -19t-19 -8zM228 592q-10 0 -18 8t-8 19t8 18.5t18 7.5
q11 0 19 -7.5t8 -18.5t-8 -19t-19 -8zM329 592q-10 0 -18 8t-8 19t8 18.5t18 7.5q11 0 19 -7.5t8 -18.5t-8 -19t-19 -8z" />
    <glyph glyph-name="uni06B8.init" unicode="&#x6b8;" horiz-adv-x="193" 
d="M0 -5l4 23q54 0 78.5 15.5t30.5 49.5t4 92l-19 539h23l20 -537q2 -50 -2.5 -84.5t-20 -56t-44 -31.5t-74.5 -10zM85 -250q-11 0 -19 8t-8 18q0 11 8 19t19 8t18.5 -8t7.5 -19q0 -10 -7.5 -18t-18.5 -8zM34 -167q-11 0 -19 8t-8 18q0 11 8 19t19 8t18.5 -8t7.5 -19
q0 -10 -7.5 -18t-18.5 -8zM135 -167q-11 0 -19 8t-8 18q0 11 8 19t19 8t18.5 -8t7.5 -19q0 -10 -7.5 -18t-18.5 -8z" />
    <glyph glyph-name="uni06B8.medi" unicode="&#x6b8;" horiz-adv-x="252" 
d="M0 -5l4 23q56 0 81 22t30.5 64t3.5 101l-17 509h25l16 -507q3 -74 14 -115t34.5 -57.5t63.5 -16.5q7 0 10 -2.5t3 -8.5q0 -4 -4.5 -8t-11.5 -4q-37 0 -63 15.5t-40 41.5t-20 55h10q-6 -34 -21 -59t-43 -39t-75 -14zM117 -250q-11 0 -19 8t-8 18q0 11 8 19t19 8t18.5 -8
t7.5 -19q0 -10 -7.5 -18t-18.5 -8zM66 -167q-11 0 -19 8t-8 18q0 11 8 19t19 8t18.5 -8t7.5 -19q0 -10 -7.5 -18t-18.5 -8zM167 -167q-11 0 -19 8t-8 18q0 11 8 19t19 8t18.5 -8t7.5 -19q0 -10 -7.5 -18t-18.5 -8z" />
    <glyph glyph-name="uni06B8.fina" unicode="&#x6b8;" horiz-adv-x="669" 
d="M46 -26q0 24 4 51.5t15 62t32 79.5l22 -11q-15 -32 -25.5 -63t-16 -61t-5.5 -57q0 -57 26 -97.5t71 -62t102 -21.5q83 0 135 43t75.5 125.5t19.5 200.5l-17 551h24l18 -539q2 -42 21.5 -77.5t52.5 -57.5t72 -22q7 0 10 -2.5t3 -8.5q0 -4 -4 -8t-12 -4q-26 0 -51 9.5
t-45.5 26t-33.5 36.5t-16 41h1q-1 -66 -14 -126.5t-42 -108.5t-77.5 -75.5t-120.5 -27.5q-49 0 -90 13.5t-71 39.5t-46.5 64t-16.5 87zM271 -480q-11 0 -19 8t-8 18q0 11 8 19t19 8t18.5 -8t7.5 -19q0 -10 -7.5 -18t-18.5 -8zM220 -397q-11 0 -19 8t-8 18q0 11 8 19t19 8
t18.5 -8t7.5 -19q0 -10 -7.5 -18t-18.5 -8zM321 -397q-11 0 -19 8t-8 18q0 11 8 19t19 8t18.5 -8t7.5 -19q0 -10 -7.5 -18t-18.5 -8z" />
    <glyph glyph-name="uni06B9.init" unicode="&#x6b9;" horiz-adv-x="234" 
d="M0 -5l4 23q52 0 79 13.5t36.5 39t9.5 61.5q0 32 -5.5 65.5t-16.5 72t-28 84.5l23 9q16 -43 27.5 -83t17.5 -76t6 -68q0 -26 -4 -48.5t-14.5 -39.5t-28 -29t-43.5 -18t-63 -6zM92 511q-11 0 -19 8t-8 18q0 11 8 19t19 8t18.5 -8t7.5 -19q0 -10 -7.5 -18t-18.5 -8zM81 -171
q-11 0 -19 8t-8 18q0 11 8 19t19 8t18.5 -8t7.5 -19q0 -10 -7.5 -18t-18.5 -8z" />
    <glyph glyph-name="uni06B9.medi" unicode="&#x6b9;" horiz-adv-x="303" 
d="M0 -5l4 23q31 0 55.5 6.5t44 30t36.5 73t33 136.5l25 -5q-7 -36 -12.5 -59.5t-8 -42.5t-2.5 -41q0 -28 9 -50t37 -35t85 -13q8 0 10.5 -3t2.5 -8q0 -4 -4 -8t-12 -4q-56 0 -90 13.5t-47.5 40.5t-9.5 67h2q-12 -41 -27 -65t-33.5 -36t-42.5 -16t-55 -4zM157 415
q-11 0 -19 8t-8 18q0 11 8 19t19 8t18.5 -8t7.5 -19q0 -10 -7.5 -18t-18.5 -8zM148 -171q-11 0 -19 8t-8 18q0 11 8 19t19 8t18.5 -8t7.5 -19q0 -10 -7.5 -18t-18.5 -8z" />
    </font>
</defs>
</svg>
