<?xml version="1.0" standalone="no"?>
<!DOCTYPE svg PUBLIC "-//W3C//DTD SVG 1.1//EN" "http://www.w3.org/Graphics/SVG/1.1/DTD/svg11.dtd" >
<svg xmlns="http://www.w3.org/2000/svg" xmlns:xlink="http://www.w3.org/1999/xlink" version="1.1">
<metadata>
Created by FontForge 20170731 at Thu Nov 12 05:28:44 2020
 By Aleksey,,,
Copyright 2015-2020 Google LLC. All Rights Reserved.
</metadata>
<defs>
<font id="NotoSansArabicCondensed-ExtraBold" horiz-adv-x="0" >
  <font-face 
    font-family="Noto Sans Arabic Condensed ExtraBold"
    font-weight="800"
    font-stretch="condensed"
    units-per-em="1000"
    panose-1="0 0 0 0 0 0 0 0 0 0"
    ascent="800"
    descent="-200"
    bbox="-220 -688 2373 1143"
    underline-thickness="50"
    underline-position="-175"
    unicode-range="U+000D-FEFC"
  />
<missing-glyph horiz-adv-x="600" 
d="M94 0v714h411v-714h-411zM145 51h309v612h-309v-612z" />
    <glyph glyph-name="uniFC43" unicode="&#xfedf;&#xfef0;" horiz-adv-x="1018" arabic-form="isolated" 
d="M727 -5l10 146q35 0 51 10t20 38.5t2 84.5l-19 473h153l21 -489q3 -59 -4 -107.5t-31 -83t-72.5 -53.5t-130.5 -19zM27 21q0 25 4 57.5t16 75t35 96.5l134 -47q-14 -37 -22 -64.5t-11 -49t-3 -40.5q0 -32 12 -56.5t34.5 -41t55.5 -26t75 -9.5q53 0 90 9.5t60 24.5t34 31
t11 28q0 8 -6.5 15t-20.5 15.5t-37.5 18t-57.5 21.5l39 137q40 -16 78 -30t72.5 -23.5t64 -15.5t54.5 -6q36 0 53.5 -20.5t17.5 -50.5q0 -34 -21 -54.5t-60 -20.5h-12h-12h-12q2 -7 2.5 -13.5t0.5 -14.5q0 -32 -21 -66.5t-64.5 -64t-108.5 -48t-152 -18.5q-95 0 -167.5 27.5
t-113.5 83.5t-41 140z" />
    <glyph glyph-name="uniFC86" unicode="&#xfee0;&#xfef0;" horiz-adv-x="1043" arabic-form="final" 
d="M727 -5l10 146q32 0 48 10.5t20.5 39.5t2.5 84l-16 472h154l17 -471q2 -56 10 -85t26.5 -39.5t53.5 -10.5q37 0 54 -20.5t17 -50.5q0 -34 -21 -54.5t-59 -20.5q-36 0 -72.5 11t-64 40t-35.5 83h52q-19 -50 -46 -79.5t-64.5 -42t-86.5 -12.5zM27 21q0 25 4 57.5t16 75
t35 96.5l134 -47q-14 -37 -22 -64.5t-11 -49t-3 -40.5q0 -32 12 -56.5t34.5 -41t55.5 -26t75 -9.5q53 0 90 9.5t60 24.5t34 31t11 28q0 8 -6.5 15t-20.5 15.5t-37.5 18t-57.5 21.5l39 137q40 -16 78 -30t72.5 -23.5t64 -15.5t54.5 -6q36 0 53.5 -20.5t17.5 -50.5
q0 -34 -21 -54.5t-60 -20.5h-12h-12h-12q2 -7 2.5 -13.5t0.5 -14.5q0 -32 -21 -66.5t-64.5 -64t-108.5 -48t-152 -18.5q-95 0 -167.5 27.5t-113.5 83.5t-41 140z" />
    <glyph glyph-name="uniFD82" unicode="&#xfee0;&#xfea4;&#xfef0;" horiz-adv-x="1641" arabic-form="final" 
d="M1326 -5l10 146q32 0 48 10.5t20.5 39.5t2.5 84l-16 472h154l17 -471q2 -56 10 -85t26.5 -39.5t53.5 -10.5q37 0 54 -20.5t17 -50.5q0 -34 -21 -54.5t-59 -20.5q-36 0 -72.5 11t-64 40t-35.5 83h52q-19 -50 -46 -79.5t-64.5 -42t-86.5 -12.5zM1326 -5q-34 0 -65.5 8
t-59 26t-49.5 49.5t-37 78.5l84 64q14 -32 34.5 -49.5t46.5 -24t56 -6.5q36 0 53.5 -20.5t17.5 -50.5q0 -34 -21 -54.5t-60 -20.5zM727 -5l10 146q45 0 93 7t95.5 20.5t92.5 34.5t86 50q-33 16 -65.5 26.5t-65.5 16t-68 5.5q-16 0 -33 -1t-34 -3t-34 -6l-24 150
q28 8 57.5 11.5t59.5 3.5q55 0 99.5 -12t80.5 -29t66 -34.5t56.5 -29.5t52.5 -12h29l18 -134q-34 -4 -65.5 -20.5t-65 -40.5t-74 -49.5t-92 -48t-119 -37t-156.5 -14.5zM27 21q0 25 4 57.5t16 75t35 96.5l134 -47q-14 -37 -22 -64.5t-11 -49t-3 -40.5q0 -32 12 -56.5
t34.5 -41t55.5 -26t75 -9.5q53 0 90 9.5t60 24.5t34 31t11 28q0 8 -6.5 15t-20.5 15.5t-37.5 18t-57.5 21.5l39 137q40 -16 78 -30t72.5 -23.5t64 -15.5t54.5 -6q36 0 53.5 -20.5t17.5 -50.5q0 -34 -21 -54.5t-60 -20.5h-12h-12h-12q2 -7 2.5 -13.5t0.5 -14.5
q0 -32 -21 -66.5t-64.5 -64t-108.5 -48t-152 -18.5q-95 0 -167.5 27.5t-113.5 83.5t-41 140z" />
    <glyph glyph-name="uniFDF2" unicode="&#x627;&#xfedf;&#xfee0;&#xfeea;" horiz-adv-x="1408" arabic-form="isolated" 
d="M531 -5q-44 0 -81 9t-65 29t-46 53q-59 -10 -115 -5.5t-100.5 25.5t-71 60.5t-26.5 98.5q0 70 36 122.5t97.5 89t137.5 56.5l-4 78h150l17 -369q2 -40 10 -62t25 -30.5t46 -8.5t44 10t19 39t2 85l-11 364h154l14 -363q2 -56 9.5 -85.5t26 -40t53.5 -10.5q34 0 49.5 10
t19 39t1.5 85l-19 473h154l21 -489q3 -59 -4 -107.5t-30.5 -83t-72 -53.5t-129.5 -19q-27 0 -55.5 6.5t-53.5 22.5t-42 44q-27 -39 -67 -56t-93 -17zM311 224l-8 160q-36 -8 -65 -23.5t-46 -36.5t-17 -47q0 -17 11.5 -29.5t30.5 -19.5t43.5 -7.5t50.5 3.5zM1200 0l-21 747
h154l21 -747h-154zM572 710q-41 0 -54 27t-13 64q0 11 1.5 22t4.5 27l62 13q-2 -16 -3.5 -29.5t-1.5 -23.5q0 -18 4.5 -24.5t12.5 -6.5q12 0 18 14t7 55v28l53 17v-57q0 -15 4.5 -22.5t14.5 -7.5q13 0 17 9.5t4 23.5q0 17 -4 33t-9 33l57 13q10 -18 16 -41t6 -42
q0 -39 -18 -66.5t-62 -27.5q-23 0 -42.5 17t-19.5 49l22 -9q0 -42 -23.5 -65t-53.5 -23zM587 949l-5 162h91l6 -162h-92z" />
    <glyph glyph-name="uniFEF5" unicode="&#xfedf;&#xfe82;" horiz-adv-x="701" arabic-form="isolated" 
d="M366 547q0 26 -3.5 59t-8.5 64t-9 52l145 20q4 -20 8 -52t7 -67t3 -68q0 -50 -6.5 -96.5t-23.5 -87.5t-47 -75l-21 -23q-29 -35 -66 -69.5t-78 -65.5h79q30 0 46.5 5t22.5 14t6 20q0 21 -29.5 55.5t-82 80t-122.5 96t-152 101.5l72 120q118 -73 198.5 -134t131.5 -111
t78.5 -91.5t37.5 -75.5t10 -64q0 -27 -9.5 -54t-30 -49.5t-54.5 -36.5t-82 -14h-282v158q95 72 152.5 136t83.5 125.5t26 127.5zM207 688q-30 0 -53.5 10t-43 19.5t-36.5 9.5q-18 0 -32.5 -8.5t-29.5 -24.5l-46 49q27 34 53.5 50.5t53.5 16.5q25 0 45.5 -9.5t42 -19
t45.5 -9.5q15 0 29 5t34 17l34 -60q-34 -30 -58 -38t-38 -8z" />
    <glyph glyph-name="uniFEF6" unicode="&#xfee0;&#xfe82;" horiz-adv-x="653" arabic-form="final" 
d="M653 -5q-63 0 -108.5 15t-75 43.5t-44.5 66.5t-17 85l-21 542h149l22 -491q2 -48 13 -72.5t32.5 -33.5t54.5 -9q36 0 56 -18t20 -51q0 -34 -21 -55.5t-60 -21.5zM141 -5q-32 0 -58 4t-42 7l19 154q70 -10 131.5 -6t108.5 30t74 79t27 141l59 -170q-10 -53 -31 -93
t-51.5 -68t-68 -45t-80 -25t-88.5 -8zM326 135q-15 29 -39.5 66.5t-59 85t-82.5 102.5t-111 117l99 104q67 -72 115.5 -130t82.5 -103.5t55.5 -81.5t32.5 -64zM207 688q-30 0 -53.5 10t-43 19.5t-36.5 9.5q-18 0 -32.5 -8.5t-29.5 -24.5l-46 49q27 34 53.5 50.5t53.5 16.5
q25 0 45.5 -9.5t42 -19t45.5 -9.5q15 0 29 5t34 17l34 -60q-34 -30 -58 -38t-38 -8z" />
    <glyph glyph-name="uniFEF7" unicode="&#xfedf;&#xfe84;" horiz-adv-x="634" arabic-form="isolated" 
d="M366 547q0 26 -3.5 59t-8.5 64t-9 52l145 20q4 -20 8 -52t7 -67t3 -68q0 -50 -6.5 -96.5t-23.5 -87.5t-47 -75l-21 -23q-29 -35 -66 -69.5t-78 -65.5h79q30 0 46.5 5t22.5 14t6 20q0 21 -29.5 55.5t-82 80t-122.5 96t-152 101.5l72 120q118 -73 198.5 -134t131.5 -111
t78.5 -91.5t37.5 -75.5t10 -64q0 -27 -9.5 -54t-30 -49.5t-54.5 -36.5t-82 -14h-282v158q95 72 152.5 136t83.5 125.5t26 127.5zM35 669l-16 65q35 6 52 10t35 8l-13 -26q-25 8 -47 32.5t-22 59.5q0 33 15 53.5t38 30.5t50 10q14 0 27.5 -2t23.5 -6l-7 -62q-9 2 -19 3.5
t-20 1.5q-19 0 -28.5 -8t-9.5 -22q0 -17 11 -30t26.5 -20t25.5 -8l-43 -4q25 7 47 14t42 14l20 -62q-24 -9 -55.5 -18.5t-65.5 -18t-67 -15.5z" />
    <glyph glyph-name="uniFEF8" unicode="&#xfee0;&#xfe84;" horiz-adv-x="661" arabic-form="final" 
d="M653 -5q-63 0 -108.5 15t-75 43.5t-44.5 66.5t-17 85l-21 542h149l22 -491q2 -48 13 -72.5t32.5 -33.5t54.5 -9q36 0 56 -18t20 -51q0 -34 -21 -55.5t-60 -21.5zM141 -5q-32 0 -58 4t-42 7l19 154q70 -10 131.5 -6t108.5 30t74 79t27 141l59 -170q-10 -53 -31 -93
t-51.5 -68t-68 -45t-80 -25t-88.5 -8zM326 135q-15 29 -39.5 66.5t-59 85t-82.5 102.5t-111 117l99 104q67 -72 115.5 -130t82.5 -103.5t55.5 -81.5t32.5 -64zM54 669l-16 65q35 6 52 10t35 8l-13 -26q-25 8 -47 32.5t-22 59.5q0 33 15 53.5t38 30.5t50 10q14 0 27.5 -2
t23.5 -6l-7 -62q-9 2 -19 3.5t-20 1.5q-19 0 -28.5 -8t-9.5 -22q0 -17 11 -30t26.5 -20t25.5 -8l-43 -4q25 7 47 14t42 14l20 -62q-24 -9 -55.5 -18.5t-65.5 -18t-67 -15.5z" />
    <glyph glyph-name="uniFEF9" unicode="&#xfedf;&#xfe88;" horiz-adv-x="619" arabic-form="isolated" 
d="M366 547q0 26 -3.5 59t-8.5 64t-9 52l145 20q4 -20 8 -52t7 -67t3 -68q0 -50 -6.5 -96.5t-23.5 -87.5t-47 -75l-21 -23q-29 -35 -66 -69.5t-78 -65.5h79q30 0 46.5 5t22.5 14t6 20q0 21 -29.5 55.5t-82 80t-122.5 96t-152 101.5l72 120q118 -73 198.5 -134t131.5 -111
t78.5 -91.5t37.5 -75.5t10 -64q0 -27 -9.5 -54t-30 -49.5t-54.5 -36.5t-82 -14h-282v158q95 72 152.5 136t83.5 125.5t26 127.5zM96 -303l-16 65q35 6 52 10t35 8l-13 -26q-25 8 -47 32.5t-22 59.5q0 33 15 53.5t38 30.5t50 10q14 0 27.5 -2t23.5 -6l-7 -62q-9 2 -19 3.5
t-20 1.5q-19 0 -28.5 -8t-9.5 -22q0 -17 11 -30t26.5 -20t25.5 -8l-43 -4q25 7 47 14t42 14l20 -62q-24 -9 -55.5 -18.5t-65.5 -18t-67 -15.5z" />
    <glyph glyph-name="uniFEFA" unicode="&#xfee0;&#xfe88;" horiz-adv-x="653" arabic-form="final" 
d="M653 -5q-63 0 -108.5 15t-75 43.5t-44.5 66.5t-17 85l-21 542h149l22 -491q2 -48 13 -72.5t32.5 -33.5t54.5 -9q36 0 56 -18t20 -51q0 -34 -21 -55.5t-60 -21.5zM141 -5q-32 0 -58 4t-42 7l19 154q70 -10 131.5 -6t108.5 30t74 79t27 141l59 -170q-10 -53 -31 -93
t-51.5 -68t-68 -45t-80 -25t-88.5 -8zM326 135q-15 29 -39.5 66.5t-59 85t-82.5 102.5t-111 117l99 104q67 -72 115.5 -130t82.5 -103.5t55.5 -81.5t32.5 -64zM95 -303l-16 65q35 6 52 10t35 8l-13 -26q-25 8 -47 32.5t-22 59.5q0 33 15 53.5t38 30.5t50 10q14 0 27.5 -2
t23.5 -6l-7 -62q-9 2 -19 3.5t-20 1.5q-19 0 -28.5 -8t-9.5 -22q0 -17 11 -30t26.5 -20t25.5 -8l-43 -4q25 7 47 14t42 14l20 -62q-24 -9 -55.5 -18.5t-65.5 -18t-67 -15.5z" />
    <glyph glyph-name="uniFEFB" unicode="&#xfedf;&#xfe8e;" horiz-adv-x="619" arabic-form="isolated" 
d="M366 547q0 26 -3.5 59t-8.5 64t-9 52l145 20q4 -20 8 -52t7 -67t3 -68q0 -50 -6.5 -96.5t-23.5 -87.5t-47 -75l-21 -23q-29 -35 -66 -69.5t-78 -65.5h79q30 0 46.5 5t22.5 14t6 20q0 21 -29.5 55.5t-82 80t-122.5 96t-152 101.5l72 120q118 -73 198.5 -134t131.5 -111
t78.5 -91.5t37.5 -75.5t10 -64q0 -27 -9.5 -54t-30 -49.5t-54.5 -36.5t-82 -14h-282v158q95 72 152.5 136t83.5 125.5t26 127.5z" />
    <glyph glyph-name="uniFEFC" unicode="&#xfee0;&#xfe8e;" horiz-adv-x="653" arabic-form="final" 
d="M653 -5q-63 0 -108.5 15t-75 43.5t-44.5 66.5t-17 85l-21 542h149l22 -491q2 -48 13 -72.5t32.5 -33.5t54.5 -9q36 0 56 -18t20 -51q0 -34 -21 -55.5t-60 -21.5zM141 -5q-32 0 -58 4t-42 7l19 154q70 -10 131.5 -6t108.5 30t74 79t27 141l59 -170q-10 -53 -31 -93
t-51.5 -68t-68 -45t-80 -25t-88.5 -8zM326 135q-15 29 -39.5 66.5t-59 85t-82.5 102.5t-111 117l99 104q67 -72 115.5 -130t82.5 -103.5t55.5 -81.5t32.5 -64z" />
    <glyph glyph-name="lam_alefMaksura_meemar" unicode="&#xfedf;&#xfbe9;&#xfee2;" horiz-adv-x="1202" 
d="M911 -5l10 146q35 0 51 10t20 38.5t2 84.5l-19 473h153l21 -489q3 -59 -4 -107.5t-31 -83t-72.5 -53.5t-130.5 -19zM623 -5l10 146q27 0 45 7.5t27 25t9 47.5q0 32 -7 73.5t-18.5 84.5t-22.5 77l141 40q12 -34 24.5 -80.5t21 -97.5t8.5 -101q0 -57 -15 -96.5t-40 -64.5
t-56.5 -38t-64.5 -18t-62 -5zM81 -391q-22 81 -37 155.5t-22 132t-7 87.5q0 99 27 174.5t70.5 129t93 87.5t95.5 49.5t78 15.5q40 0 64 -21.5t40.5 -58t35.5 -83.5q23 -54 41 -83.5t36 -41t37 -11.5q36 0 53.5 -20.5t17.5 -50.5q0 -32 -21.5 -53.5t-59.5 -21.5q-41 0 -75 17
t-66 54l25 17q-8 -29 -25 -51.5t-43 -36t-61 -13.5q-23 0 -51 6t-58.5 22.5t-61 48t-59.5 81.5l41 -4q-18 -35 -25 -74.5t-8 -75.5q0 -32 5.5 -73t14.5 -87t20 -91.5t22 -85.5zM382 124q17 0 26 7t11 17.5t-3 21.5q-15 40 -25.5 65t-17.5 38.5t-12.5 19t-11.5 5.5
q-11 0 -28 -9.5t-34.5 -23.5t-30.5 -28t-15 -24l-8 40q16 -32 40.5 -62t53 -48.5t55.5 -18.5z" />
    <glyph glyph-name="lam_alefWaslaar" unicode="&#xfedf;&#xfb51;" horiz-adv-x="578" 
d="M140 689q-21 0 -49 2t-53 5t-38 5l7 64q13 -1 36 -3.5t49.5 -4.5t47.5 -2q51 0 67 11.5t16 26.5q0 17 -9.5 25.5t-22.5 8.5q-11 0 -25 -9t-27.5 -26.5t-24.5 -43.5l-76 1q11 31 32 64.5t52.5 57t70.5 23.5q41 0 69 -26.5t28 -69.5q0 -30 -12.5 -54.5t-44.5 -39.5t-93 -15
zM366 547q0 26 -3.5 59t-8.5 64t-9 52l146 20q3 -20 7 -52t7 -67t3 -68q0 -50 -6.5 -96.5t-23.5 -87.5t-47 -75l-21 -23q-29 -35 -66 -69.5t-78 -65.5h79q30 0 46 5t22.5 14t6.5 20q0 20 -29.5 55t-82 80.5t-122.5 96t-152 101.5l72 120q118 -73 198.5 -134t131.5 -111
t78.5 -91.5t37.5 -75.5t10 -64q0 -27 -9.5 -54t-30 -49.5t-54.5 -36.5t-82 -14h-282v158q95 72 152.5 136t83.5 125.5t26 127.5z" />
    <glyph glyph-name="lam_alefWaslaar.fina" unicode="&#xfee0;&#xfb51;" horiz-adv-x="750" 
d="M140 689q-21 0 -49 2t-53 5t-38 5l7 64q13 -1 36 -3.5t49.5 -4.5t47.5 -2q51 0 67 11.5t16 26.5q0 17 -9.5 25.5t-22.5 8.5q-11 0 -25 -9t-27.5 -26.5t-24.5 -43.5l-76 1q11 31 32 64.5t52.5 57t70.5 23.5q41 0 69 -26.5t28 -69.5q0 -30 -12.5 -55t-44.5 -39.5t-93 -14.5
zM653 -5q-63 0 -108.5 15t-75 43.5t-44.5 66.5t-17 85l-21 542h149l22 -491q2 -48 13 -72.5t32.5 -33.5t54.5 -9q36 0 56 -18t20 -51q0 -34 -21 -55.5t-60 -21.5zM141 -5q-32 0 -58 4t-42 7l19 154q70 -10 131.5 -6t108.5 30t74 79t27 141l59 -170q-10 -53 -31 -93
t-51.5 -68t-68 -45t-80 -25t-88.5 -8zM326 135q-15 29 -39.5 66.5t-59 85t-82.5 102.5t-111 117l99 104q67 -72 115.5 -130t82.5 -103.5t55.5 -81.5t32.5 -64z" />
    <glyph glyph-name="uni0620.init" unicode="&#x620;" horiz-adv-x="359" 
d="M0 -5l10 146q57 0 88 8t43 25.5t12 45.5q0 33 -7.5 74.5t-18.5 84t-23 77.5l142 40q12 -35 24.5 -81t21 -96t8.5 -98q0 -73 -24 -118t-65.5 -68.5t-95.5 -31.5t-115 -8zM200 -95q-38 0 -64 27t-26 64q0 38 26 64.5t65 26.5q37 0 63.5 -26.5t26.5 -64.5q0 -37 -26.5 -64
t-64.5 -27zM200 -33q14 0 23 8t9 21q0 14 -9 22t-23 8q-12 0 -21.5 -8.5t-9.5 -21.5t9.5 -21t21.5 -8z" />
    <glyph glyph-name="uni0620.medi" unicode="&#x620;" horiz-adv-x="398" 
d="M0 -5l10 146q34 0 57 7t37.5 29t24.5 65.5t20 115.5l142 -23q-1 -15 -4 -34t-5.5 -39t-2.5 -39q0 -21 6.5 -36t21 -25t39.5 -15.5t63 -5.5q36 0 53.5 -20.5t17.5 -49.5q0 -35 -21 -55.5t-60 -20.5q-54 0 -92.5 8.5t-63.5 27t-39 47.5t-18 69l52 -1q-18 -51 -45 -82
t-59 -45.5t-66.5 -19t-67.5 -4.5zM132 -106q-37 0 -63.5 26.5t-26.5 63.5q0 38 26.5 64.5t63.5 26.5q38 0 64.5 -26.5t26.5 -64.5q0 -37 -26.5 -63.5t-64.5 -26.5zM132 -45q13 0 22.5 8t9.5 21q0 14 -9 22.5t-23 8.5q-12 0 -21.5 -9t-9.5 -22t9.5 -21t21.5 -8z" />
    <glyph glyph-name="uni0620.fina" unicode="&#x620;" horiz-adv-x="727" 
d="M344 -351q-38 0 -64 26.5t-26 63.5q0 38 26 64.5t64 26.5t64 -26.5t26 -64.5q0 -37 -26 -63.5t-64 -26.5zM344 -290q13 0 22 8.5t9 20.5q0 14 -9 22.5t-22 8.5t-22 -9t-9 -22q0 -12 9 -20.5t22 -8.5zM27 21q0 25 4 57.5t16 75t35 96.5l134 -47q-14 -37 -22 -64.5t-11 -49
t-3 -40.5q0 -32 12 -56.5t34.5 -41t55.5 -26t75 -9.5q53 0 90 9.5t60 24.5t34 31t11 28q0 8 -6.5 15t-20.5 15.5t-37.5 18t-57.5 21.5l39 137q40 -16 78 -30t72.5 -23.5t64 -15.5t54.5 -6q36 0 53.5 -20.5t17.5 -50.5q0 -34 -21 -54.5t-60 -20.5h-12h-12h-12q2 -7 2.5 -13.5
t0.5 -14.5q0 -32 -21 -66.5t-64.5 -64t-108.5 -48t-152 -18.5q-95 0 -167.5 27.5t-113.5 83.5t-41 140z" />
    <glyph glyph-name="uni063B.init" unicode="&#x63b;" horiz-adv-x="419" 
d="M231 731q-23 0 -38 15t-15 37t15 38t38 16q21 0 36 -16t15 -38t-15 -37t-36 -15zM106 668q-22 0 -37.5 15.5t-15.5 36.5q0 22 15.5 38t37.5 16t37 -16t15 -38q0 -21 -15 -36.5t-37 -15.5zM0 -5l10 146h109q20 0 33.5 4t21.5 11.5t11.5 17t3.5 19.5q0 29 -20 61t-49 65
q-19 22 -36 40t-30 33t-21 26.5t-8 19.5q0 14 2.5 34.5t7 39t11.5 25.5q16 17 44 38t67 45.5t89 52.5t111 59l69 -124q-56 -28 -101 -52t-80 -45t-62 -40t-47 -37l6 78q52 -49 91 -94t65 -85t39 -78t13 -74q0 -31 -12 -63.5t-40 -60.5t-76 -45t-119 -17h-103z" />
    <glyph glyph-name="uni063B.medi" unicode="&#x63b;" horiz-adv-x="456" 
d="M234 730q-23 0 -38 15.5t-15 36.5q0 23 15 39t38 16q21 0 36 -16t15 -39q0 -21 -15 -36.5t-36 -15.5zM109 668q-22 0 -37.5 15t-15.5 37t15.5 38t37.5 16t37 -16t15 -38t-15 -37t-37 -15zM0 -5l10 146h106q28 0 44 6.5t22 18t6 26.5q0 18 -12 41.5t-30.5 48t-39.5 49
t-39.5 45.5t-30.5 37.5t-12 23.5q0 19 2.5 39.5t7.5 37t12 23.5q17 18 46 39.5t68.5 46t88.5 52t107 56.5l70 -123q-59 -29 -104 -54t-79.5 -45.5t-61 -39t-46.5 -36.5l4 81q26 -29 53.5 -60t53.5 -65t50 -73.5t45 -84.5q18 -41 36.5 -60t40 -24.5t48.5 -5.5q37 0 54 -20.5
t17 -50.5q0 -32 -21 -53.5t-60 -21.5q-44 0 -80 11.5t-61.5 38t-38.5 72.5l52 -2q-14 -30 -33.5 -52.5t-47 -37.5t-64 -22.5t-82.5 -7.5h-101z" />
    <glyph glyph-name="uni063B.fina" unicode="&#x63b;" horiz-adv-x="899" 
d="M661 733q-23 0 -38 15.5t-15 36.5q0 23 15 38.5t38 15.5q22 0 37 -15.5t15 -38.5q0 -21 -15 -36.5t-37 -15.5zM536 671q-22 0 -37.5 15t-15.5 37t15.5 38t37.5 16t37 -16t15 -38t-15 -37t-37 -15zM393 -21l26 146q51 0 89 3t64 10.5t39 21t13 35.5q0 17 -11.5 39
t-30 46.5t-39.5 48.5t-40 45.5t-30.5 37.5t-11.5 24q0 19 2.5 39t7 36.5t11.5 23.5q23 25 65.5 55t104 65.5t140.5 75.5l69 -123q-70 -37 -124.5 -67t-95 -56.5t-69.5 -51.5l4 81q29 -30 56.5 -61.5t54 -66t50 -73t43.5 -83.5q13 -29 27 -46.5t30 -27t33.5 -12.5t38.5 -3
q36 0 53.5 -21t17.5 -50q0 -33 -21 -54t-59 -21q-41 0 -77.5 11.5t-63.5 37.5t-39 72l43 3q-17 -44 -49.5 -71.5t-79 -42.5t-107 -20.5t-134.5 -5.5zM393 -21q-101 0 -170 17.5t-111 49.5t-60.5 74t-18.5 91q0 34 6.5 69.5t16 68t17.5 57.5l128 -33q-4 -19 -9.5 -40t-9 -42
t-3.5 -41q0 -36 19.5 -64t71.5 -44.5t149 -16.5l20 -114z" />
    <glyph glyph-name="uni063C.init" unicode="&#x63c;" horiz-adv-x="419" 
d="M0 -5l10 146h109q20 0 33.5 4t21.5 11.5t11.5 17t3.5 19.5q0 29 -20 61t-49 65q-19 22 -36 40t-30 33t-21 26.5t-8 19.5q0 14 2.5 34.5t7 39t11.5 25.5q16 17 44 38t67 45.5t89 52.5t111 59l69 -124q-56 -28 -101 -52t-80 -45t-62 -40t-47 -37l6 78q52 -49 91 -94t65 -85
t39 -78t13 -74q0 -31 -12 -63.5t-40 -60.5t-76 -45t-119 -17h-103zM188 -371q-28 0 -47.5 19t-19.5 47t19.5 48.5t47.5 20.5q27 0 46.5 -20.5t19.5 -48.5t-19.5 -47t-46.5 -19zM105 -224q-28 0 -47.5 19t-19.5 47t19 48t48 20q27 0 46.5 -20.5t19.5 -47.5q0 -28 -19.5 -47
t-46.5 -19zM275 -224q-28 0 -47.5 19t-19.5 47t19.5 48t47.5 20t47 -20.5t19 -47.5q0 -28 -19 -47t-47 -19z" />
    <glyph glyph-name="uni063C.medi" unicode="&#x63c;" horiz-adv-x="456" 
d="M0 -5l10 146h106q28 0 44 6.5t22 18t6 26.5q0 18 -12 41.5t-30.5 48t-39.5 49t-39.5 45.5t-30.5 37.5t-12 23.5q0 19 2.5 39.5t7.5 37t12 23.5q17 18 46 39.5t68.5 46t88.5 52t107 56.5l70 -123q-59 -29 -104 -54t-79.5 -45.5t-61 -39t-46.5 -36.5l4 81q26 -29 53.5 -60
t53.5 -65t50 -73.5t45 -84.5q18 -41 36.5 -60t40 -24.5t48.5 -5.5q37 0 54 -20.5t17 -50.5q0 -32 -21 -53.5t-60 -21.5q-44 0 -80 11.5t-61.5 38t-38.5 72.5l52 -2q-14 -30 -33.5 -52.5t-47 -37.5t-64 -22.5t-82.5 -7.5h-101zM183 -371q-28 0 -47.5 19t-19.5 47t19.5 48.5
t47.5 20.5q27 0 46.5 -20.5t19.5 -48.5t-19.5 -47t-46.5 -19zM100 -224q-28 0 -47.5 19t-19.5 47t19 48t48 20q27 0 46.5 -20.5t19.5 -47.5q0 -28 -19.5 -47t-46.5 -19zM270 -224q-28 0 -47.5 19t-19.5 47t19.5 48t47.5 20t47 -20.5t19 -47.5q0 -28 -19 -47t-47 -19z" />
    <glyph glyph-name="uni063C.fina" unicode="&#x63c;" horiz-adv-x="899" 
d="M393 -21l26 146q51 0 89 3t64 10.5t39 21t13 35.5q0 17 -11.5 39t-30 46.5t-39.5 48.5t-40 45.5t-30.5 37.5t-11.5 24q0 19 2.5 39t7 36.5t11.5 23.5q23 25 65.5 55t104 65.5t140.5 75.5l69 -123q-70 -37 -124.5 -67t-95 -56.5t-69.5 -51.5l4 81q29 -30 56.5 -61.5
t54 -66t50 -73t43.5 -83.5q13 -29 27 -46.5t30 -27t33.5 -12.5t38.5 -3q36 0 53.5 -21t17.5 -50q0 -33 -21 -54t-59 -21q-41 0 -77.5 11.5t-63.5 37.5t-39 72l43 3q-17 -44 -49.5 -71.5t-79 -42.5t-107 -20.5t-134.5 -5.5zM393 -21q-101 0 -170 17.5t-111 49.5t-60.5 74
t-18.5 91q0 34 6.5 69.5t16 68t17.5 57.5l128 -33q-4 -19 -9.5 -40t-9 -42t-3.5 -41q0 -36 19.5 -64t71.5 -44.5t149 -16.5l20 -114zM415 -392q-28 0 -47.5 19t-19.5 47t19.5 48.5t47.5 20.5q27 0 46.5 -20.5t19.5 -48.5t-19.5 -47t-46.5 -19zM332 -245q-28 0 -47.5 19
t-19.5 47t19 48t48 20q27 0 46.5 -20.5t19.5 -47.5q0 -28 -19.5 -47t-46.5 -19zM502 -245q-28 0 -47.5 19t-19.5 47t19.5 48t47.5 20t47 -20.5t19 -47.5q0 -28 -19 -47t-47 -19z" />
    <glyph glyph-name="uni063D.init" unicode="&#x63d;" horiz-adv-x="289" 
d="M0 -5l10 146q27 0 45 7.5t27 25t9 47.5q0 32 -7 73.5t-18.5 84.5t-22.5 77l141 40q12 -34 24.5 -80.5t21 -97.5t8.5 -101q0 -57 -15 -96.5t-40 -64.5t-56.5 -38t-64.5 -18t-62 -5zM131 779q7 -15 17 -39t21.5 -51.5t22 -52t18.5 -40.5l-57 -26q-6 11 -15 32.5t-19.5 46
t-20.5 47.5t-17 36l-20 41zM61 773l51 -20q-5 -16 -14.5 -43t-19.5 -56.5t-18 -53.5t-12 -33l-57 19q4 11 13 36t20.5 54t21.5 55.5t15 41.5zM200 -232q-30 0 -49.5 20t-19.5 49t19.5 49.5t49.5 20.5q28 0 48.5 -20.5t20.5 -49.5t-20.5 -49t-48.5 -20zM29 -232q-30 0 -50 20
t-20 49t20 49.5t49 20.5t49 -20.5t20 -49.5t-20 -49t-48 -20z" />
    <glyph glyph-name="uni063D.medi" unicode="&#x63d;" horiz-adv-x="336" 
d="M0 -5l10 146q25 0 42.5 7t29.5 29t21 65t19 116l142 -23q-1 -15 -4 -34t-5.5 -39t-2.5 -39q0 -27 10 -45.5t31 -27.5t54 -9q36 0 53.5 -20.5t17.5 -50.5q0 -34 -21 -54.5t-60 -20.5q-55 0 -93 16t-59 49.5t-27 85.5h53q-17 -52 -43 -83t-56 -45.5t-59.5 -18.5t-52.5 -4z
M199 694q7 -15 17 -39t21.5 -51.5t22 -52t18.5 -40.5l-57 -26q-6 11 -15 32.5t-19.5 46t-20.5 47.5t-17 36l-20 41zM129 688l51 -20q-5 -16 -14.5 -43t-19.5 -56.5t-18 -53.5t-12 -33l-57 19q4 11 13 36t20.5 54t21.5 55.5t15 41.5zM241 -232q-30 0 -49.5 20t-19.5 49
t19.5 49.5t49.5 20.5q28 0 48.5 -20.5t20.5 -49.5t-20.5 -49t-48.5 -20zM70 -232q-30 0 -50 20t-20 49t20 49.5t49 20.5t49 -20.5t20 -49.5t-20 -49t-48 -20z" />
    <glyph glyph-name="uni063D.fina" unicode="&#x63d;" horiz-adv-x="727" 
d="M27 21q0 25 4 57.5t16 75t35 96.5l134 -47q-14 -37 -22 -64.5t-11 -49t-3 -40.5q0 -32 12 -56.5t34.5 -41t55.5 -26t75 -9.5q53 0 90 9.5t60 24.5t34 31t11 28q0 8 -6.5 15t-20.5 15.5t-37.5 18t-57.5 21.5l39 137q40 -16 78 -30t72.5 -23.5t64 -15.5t54.5 -6
q36 0 53.5 -20.5t17.5 -50.5q0 -34 -21 -54.5t-60 -20.5h-12h-12h-12q2 -7 2.5 -13.5t0.5 -14.5q0 -32 -21 -66.5t-64.5 -64t-108.5 -48t-152 -18.5q-95 0 -167.5 27.5t-113.5 83.5t-41 140zM241 524q7 -15 17 -39t21.5 -51.5t22 -52t18.5 -40.5l-57 -26q-6 11 -15 32.5
t-19.5 46t-20.5 47.5t-17 36l-20 41zM171 518l51 -20q-5 -16 -14.5 -43t-19.5 -56.5t-18 -53.5t-12 -33l-57 19q4 11 13 36t20.5 54t21.5 55.5t15 41.5z" />
    <glyph glyph-name="uni063E.init" unicode="&#x63e;" horiz-adv-x="359" 
d="M0 -5l10 146q57 0 88 8t43 25.5t12 45.5q0 33 -7.5 74.5t-18.5 84t-23 77.5l142 40q12 -34 24.5 -80.5t21 -96.5t8.5 -98q0 -73 -24 -118t-65.5 -68.5t-95.5 -31.5t-115 -8zM261 598q-29 0 -49 20t-20 48q0 30 19.5 50t49.5 20q29 0 49.5 -20t20.5 -49t-20.5 -49
t-49.5 -20zM90 598q-30 0 -50 20t-20 49t20 49t50 20q28 0 48.5 -20t20.5 -49t-20.5 -49t-48.5 -20zM251 -232q-30 0 -49.5 20t-19.5 49t19.5 49.5t49.5 20.5q29 0 49 -20.5t20 -49.5t-20.5 -49t-48.5 -20zM79 -232q-29 0 -49 20t-20 49t20 49.5t49 20.5t49 -20.5t20 -49.5
t-20.5 -49t-48.5 -20z" />
    <glyph glyph-name="uni063E.medi" unicode="&#x63e;" horiz-adv-x="398" 
d="M0 -5l10 146q34 0 57 7t37.5 29t24.5 65.5t20 115.5l142 -23q-1 -15 -4 -34t-5.5 -39t-2.5 -39q0 -21 6.5 -36t21 -25t39.5 -15.5t63 -5.5q36 0 53.5 -20.5t17.5 -49.5q0 -35 -21 -55.5t-60 -20.5q-54 0 -92.5 8.5t-63.5 27t-39 47.5t-18 69l52 -1q-18 -51 -45 -82
t-59 -45.5t-66.5 -19t-67.5 -4.5zM328 489q-29 0 -49 20t-20 48q0 30 19.5 50t49.5 20q29 0 49 -20t20 -49t-20 -49t-49 -20zM157 489q-30 0 -50 20t-20 48q0 30 20 50t50 20q28 0 48 -20t20 -49t-20 -49t-48 -20zM282 -232q-30 0 -49.5 20t-19.5 49t19.5 49.5t49.5 20.5
q28 0 48.5 -20.5t20.5 -49.5t-20.5 -49t-48.5 -20zM110 -232q-29 0 -49 20t-20 49t19.5 49.5t49.5 20.5q28 0 48.5 -20.5t20.5 -49.5t-20.5 -49t-48.5 -20z" />
    <glyph glyph-name="uni063E.fina" unicode="&#x63e;" horiz-adv-x="727" 
d="M27 21q0 25 4 57.5t16 75t35 96.5l134 -47q-14 -37 -22 -64.5t-11 -49t-3 -40.5q0 -32 12 -56.5t34.5 -41t55.5 -26t75 -9.5q53 0 90 9.5t60 24.5t34 31t11 28q0 8 -6.5 15t-20.5 15.5t-37.5 18t-57.5 21.5l39 137q40 -16 78 -30t72.5 -23.5t64 -15.5t54.5 -6
q36 0 53.5 -20.5t17.5 -50.5q0 -34 -21 -54.5t-60 -20.5h-12h-12h-12q2 -7 2.5 -13.5t0.5 -14.5q0 -32 -21 -66.5t-64.5 -64t-108.5 -48t-152 -18.5q-95 0 -167.5 27.5t-113.5 83.5t-41 140zM323 369q-30 0 -49.5 20.5t-19.5 48.5q0 29 19.5 49.5t49.5 20.5q28 0 48.5 -20.5
t20.5 -49.5q0 -28 -20.5 -48.5t-48.5 -20.5zM151 369q-29 0 -49 20.5t-20 48.5q0 29 20 49.5t49 20.5t49 -20.5t20 -49.5q0 -28 -20.5 -48.5t-48.5 -20.5z" />
    <glyph glyph-name="uni063F.init" unicode="&#x63f;" horiz-adv-x="359" 
d="M0 -5l10 146q57 0 88 8t43 25.5t12 45.5q0 33 -7.5 74.5t-18.5 84t-23 77.5l142 40q12 -34 24.5 -80.5t21 -96.5t8.5 -98q0 -73 -24 -118t-65.5 -68.5t-95.5 -31.5t-115 -8zM181 731q-29 0 -49 19.5t-20 47.5q0 29 20 49t49 20q28 0 48 -20t20 -49q0 -28 -20 -47.5
t-48 -19.5zM99 583q-28 0 -48.5 20.5t-20.5 47.5q0 29 20.5 49.5t48.5 20.5t48 -20.5t20 -48.5t-20 -48.5t-48 -20.5zM267 583q-28 0 -47.5 20.5t-19.5 47.5q0 29 19.5 49.5t47.5 20.5t48 -20.5t20 -48.5t-20 -48.5t-48 -20.5zM251 -232q-30 0 -49.5 20t-19.5 49t19.5 49.5
t49.5 20.5q28 0 48.5 -20.5t20.5 -49.5t-20.5 -49t-48.5 -20zM80 -232q-30 0 -50 20t-20 49t20 49.5t49 20.5t49 -20.5t20 -49.5t-20 -49t-48 -20z" />
    <glyph glyph-name="uni063F.medi" unicode="&#x63f;" horiz-adv-x="398" 
d="M0 -5l10 146q34 0 57 7t37.5 29t24.5 65.5t20 115.5l142 -23q-1 -15 -4 -34t-5.5 -39t-2.5 -39q0 -21 6.5 -36t21 -25t39.5 -15.5t63 -5.5q36 0 53.5 -20.5t17.5 -49.5q0 -35 -21 -55.5t-60 -20.5q-54 0 -92.5 8.5t-63.5 27t-39 47.5t-18 69l52 -1q-18 -51 -45 -82
t-59 -45.5t-66.5 -19t-67.5 -4.5zM218 622q-29 0 -49 20t-20 48q0 29 20 49t49 20q28 0 48 -20t20 -49q0 -28 -20 -48t-48 -20zM136 474q-28 0 -48.5 20.5t-20.5 48.5t20.5 49t48.5 21t48 -21t20 -49t-20 -48.5t-48 -20.5zM304 474q-28 0 -47.5 20.5t-19.5 48.5t19 49t48 21
q28 0 48 -21t20 -49t-20 -48.5t-48 -20.5zM273 -232q-30 0 -49.5 20t-19.5 49t19.5 49.5t49.5 20.5q29 0 49 -20.5t20 -49.5t-20 -49t-49 -20zM101 -232q-29 0 -49 20t-20 49t20 49.5t49 20.5t49 -20.5t20 -49.5t-20 -49t-49 -20z" />
    <glyph glyph-name="uni063F.fina" unicode="&#x63f;" horiz-adv-x="727" 
d="M27 21q0 25 4 57.5t16 75t35 96.5l134 -47q-14 -37 -22 -64.5t-11 -49t-3 -40.5q0 -32 12 -56.5t34.5 -41t55.5 -26t75 -9.5q53 0 90 9.5t60 24.5t34 31t11 28q0 8 -6.5 15t-20.5 15.5t-37.5 18t-57.5 21.5l39 137q40 -16 78 -30t72.5 -23.5t64 -15.5t54.5 -6
q36 0 53.5 -20.5t17.5 -50.5q0 -34 -21 -54.5t-60 -20.5h-12h-12h-12q2 -7 2.5 -13.5t0.5 -14.5q0 -32 -21 -66.5t-64.5 -64t-108.5 -48t-152 -18.5q-95 0 -167.5 27.5t-113.5 83.5t-41 140zM232 509q-30 0 -49.5 20t-19.5 48q0 29 19.5 49t49.5 20q28 0 48 -20t20 -49
q0 -28 -20 -48t-48 -20zM150 361q-28 0 -48.5 21t-20.5 48q0 28 20.5 49t48.5 21t48 -21t20 -49t-20 -48.5t-48 -20.5zM318 361q-29 0 -48 21t-19 48q0 28 19 49t48 21q28 0 48 -21t20 -49t-20 -48.5t-48 -20.5z" />
    <glyph glyph-name="uni066E.init" unicode="&#x66e;" horiz-adv-x="289" 
d="M0 -5l10 146q27 0 45 7.5t27 25t9 47.5q0 32 -7 73.5t-18.5 84.5t-22.5 77l141 40q12 -34 24.5 -80.5t21 -97.5t8.5 -101q0 -57 -15 -96.5t-40 -64.5t-56.5 -38t-64.5 -18t-62 -5z" />
    <glyph glyph-name="uni066E.medi" unicode="&#x66e;" horiz-adv-x="336" 
d="M0 -5l10 146q25 0 42.5 7t29.5 29t21 65t19 116l142 -23q-1 -15 -4 -34t-5.5 -39t-2.5 -39q0 -27 10 -45.5t31 -27.5t54 -9q36 0 53.5 -20.5t17.5 -50.5q0 -34 -21 -54.5t-60 -20.5q-55 0 -93 16t-59 49.5t-27 85.5h53q-17 -52 -43 -83t-56 -45.5t-59.5 -18.5t-52.5 -4z
" />
    <glyph glyph-name="uni066E.fina" unicode="&#x66e;" horiz-adv-x="1032" 
d="M409 -21l27 146q72 0 132 11.5t109 35t89 61t73 89.5l120 -57q-8 -20 -12 -35.5t-4 -27.5q0 -19 11.5 -32.5t34 -21t52.5 -7.5q37 0 54.5 -20.5t17.5 -50.5q0 -34 -21 -54.5t-60 -20.5q-57 0 -104 17t-73 51.5t-23 86.5l43 1q-30 -43 -74 -75.5t-103 -54t-131 -32
t-158 -10.5zM410 -21q-101 0 -170 17.5t-111 49.5t-60.5 74t-18.5 91q0 34 6.5 69.5t16 68t17.5 57.5l128 -33q-5 -19 -10.5 -40t-8.5 -42t-3 -41q0 -36 19.5 -64t71.5 -44.5t149 -16.5l20 -114z" />
    <glyph glyph-name="uni066F.init" unicode="&#x66f;" horiz-adv-x="473" 
d="M0 -5l10 146q39 0 73.5 0.5t64 2.5t53 6t38.5 12q20 9 31.5 26.5t16.5 44.5t5 65q0 52 -7 86.5t-19.5 51t-29.5 16.5q-14 0 -25 -10.5t-17 -29t-6 -43.5q0 -17 6.5 -28.5t18.5 -17t28 -5.5q17 0 36 5t40 16l4 -107q-16 -12 -35 -21t-40.5 -14t-45.5 -5q-44 0 -79 18
t-54.5 52.5t-19.5 84.5q0 44 13.5 85.5t40 74.5t62 52.5t79.5 19.5q60 0 103 -36.5t66.5 -102t23.5 -154.5q0 -84 -24.5 -143.5t-76.5 -92.5q-28 -18 -63.5 -29t-77.5 -16.5t-90.5 -7.5t-102.5 -2z" />
    <glyph glyph-name="uni066F.medi" unicode="&#x66f;" horiz-adv-x="475" 
d="M0 -5l10 146q22 0 49 1.5t54.5 4.5t52.5 8.5t43 12.5q29 11 48 27.5t28 37t9 44.5q0 19 -6.5 36t-17.5 27.5t-24 10.5q-12 0 -24 -10t-19.5 -27t-7.5 -41q0 -19 7 -37.5t22.5 -36t39.5 -32.5l-130 -54q-24 24 -43 49.5t-29 55t-10 65.5q0 42 16 78.5t44 64.5t63.5 43.5
t73.5 15.5q55 0 97.5 -28.5t66.5 -72.5t24 -93t-15.5 -88t-42.5 -68.5t-59 -52t-65 -39.5q-24 -13 -57 -22t-69 -15t-69.5 -8.5t-59.5 -2.5zM476 -5q-45 0 -95 7t-95.5 19.5t-77.5 29.5l68 114q30 -11 67.5 -16t75.5 -6.5t67 -1.5q36 0 53.5 -20.5t17.5 -50.5
q0 -32 -21.5 -53.5t-59.5 -21.5z" />
    <glyph glyph-name="uni066F.fina" unicode="&#x66f;" horiz-adv-x="793" 
d="M333 -272q-60 0 -115.5 14.5t-98.5 46t-68.5 80.5t-25.5 118q0 25 4 55.5t16 71.5t36 97l134 -50q-14 -38 -22.5 -62.5t-11.5 -44.5t-3 -42q0 -42 21 -73t61 -48t96 -17q35 0 66 6.5t57.5 17t47.5 25.5t36 33t22 38q10 25 14 58t4 77q0 46 -6.5 78t-18.5 47.5t-30 15.5
q-11 0 -20 -7t-15 -18t-9 -24t-3 -25q0 -19 5.5 -32.5t24 -21t55 -8t99.5 6.5l118 1q36 0 53.5 -21t17.5 -51q0 -33 -20.5 -54t-60.5 -21h-179q-55 0 -101.5 8.5t-81 28t-53.5 52t-19 81.5q0 45 14 87t40.5 74.5t63 51.5t80.5 19q57 0 100 -35.5t67 -99t24 -149.5
q0 -56 -15 -107.5t-36 -89.5q-25 -46 -62 -81t-84 -59t-102 -36t-116 -12z" />
    <glyph glyph-name="uni0672.fina" unicode="&#x672;" horiz-adv-x="295" 
d="M295 -5q-80 0 -126.5 19.5t-67 60t-23.5 103.5l-19 492h151l19 -414q3 -50 10.5 -74.5t23 -32.5t42.5 -8q36 0 53.5 -20.5t17.5 -49.5q0 -35 -21 -55.5t-60 -20.5zM-1 741l-54 37q11 26 32 38t37 12q21 0 38.5 -10.5t29.5 -10.5q13 0 24 0.5t19 4.5l-11 -21
q-28 10 -47.5 35t-19.5 57q0 42 30 67t74 25q14 0 27.5 -1.5t24.5 -5.5l-8 -61q-10 2 -18 4t-19 2q-21 0 -32 -8.5t-11 -23.5q0 -18 12 -31.5t28 -20.5t27 -8l-34 -4q25 7 43.5 14.5t35.5 14.5l21 -59q-8 -4 -26.5 -11.5t-41.5 -15t-44.5 -13t-35.5 -5.5q-26 0 -43 10.5
t-27 10.5q-9 0 -16 -6t-15 -16z" />
    <glyph glyph-name="uni0673.fina" unicode="&#x673;" horiz-adv-x="298" 
d="M298 -5q-80 0 -126.5 19.5t-67 60t-22.5 103.5l-23 569h151l22 -491q2 -50 10 -74.5t23.5 -32.5t42.5 -8q37 0 54 -20.5t17 -50.5q0 -34 -21 -54.5t-60 -20.5zM30 -309l-54 37q11 26 32 38t37 12q21 0 38.5 -10.5t29.5 -10.5q13 0 24 0.5t19 4.5l-11 -21q-28 10 -47.5 35
t-19.5 57q0 42 30 67t74 25q14 0 27.5 -1.5t24.5 -5.5l-8 -61q-10 2 -18 4t-19 2q-21 0 -32 -8.5t-11 -23.5q0 -18 12 -31.5t28 -20.5t27 -8l-34 -4q25 7 43.5 14.5t35.5 14.5l21 -59q-8 -4 -26.5 -11.5t-41.5 -15t-44.5 -13t-35.5 -5.5q-26 0 -43 10.5t-27 10.5
q-9 0 -16.5 -6t-14.5 -16z" />
    <glyph glyph-name="uni0675.fina" unicode="&#x675;" horiz-adv-x="516" 
d="M516 -5h-219q-79 0 -125 19.5t-67 60t-23 103.5l-23 569h151l22 -491q2 -48 9.5 -73t23 -33.5t41.5 -8.5h221q36 0 53.5 -20.5t17.5 -49.5q0 -35 -21 -55.5t-61 -20.5zM292 580l-17 68q38 6 55.5 10t37.5 9l-15 -28q-26 8 -49.5 34.5t-23.5 61.5q0 37 16.5 59t41.5 32.5
t52 10.5q16 0 30 -2.5t25 -6.5l-9 -64q-9 2 -19.5 4t-22.5 2q-20 0 -31 -9.5t-11 -23.5q0 -19 12 -33t28.5 -21.5t27.5 -8.5l-44 -4q26 7 50 14.5t45 15.5l21 -66q-26 -9 -59 -19.5t-69.5 -19t-71.5 -15.5z" />
    <glyph glyph-name="uni0676.fina" unicode="&#x676;" horiz-adv-x="489" 
d="M49 -230l-31 136q65 8 116 22t87 38.5t55 61.5t19 90q0 73 -14.5 116t-43.5 43q-15 0 -25.5 -13.5t-16.5 -34t-6 -40.5q0 -16 5.5 -27.5t20.5 -18.5t45 -7.5t79 5.5h160q36 0 54 -20.5t18 -50.5q0 -35 -20 -55t-61 -20h-214q-75 0 -126 20t-76.5 57.5t-25.5 90.5
q0 44 14 88.5t40.5 83t62.5 61t80 22.5q60 0 103 -39t66 -104.5t23 -144.5q0 -108 -48.5 -184t-135.5 -119.5t-204 -56.5zM313 437l-16 65q35 6 52 10t35 8l-13 -26q-25 8 -47 32.5t-22 59.5q0 33 15 53.5t38 30.5t50 10q14 0 27.5 -2t23.5 -6l-7 -62q-9 2 -19 3.5t-20 1.5
q-19 0 -28.5 -8t-9.5 -22q0 -17 11 -30t26.5 -20t25.5 -8l-43 -4q25 7 47 14t42 14l20 -62q-24 -9 -55.5 -18.5t-65.5 -18t-67 -15.5z" />
    <glyph glyph-name="uni0677.fina" unicode="&#x677;" horiz-adv-x="499" 
d="M58 -230l-31 136q65 8 116 22t87 38.5t55 61.5t19 90q0 73 -14.5 116t-43.5 43q-15 0 -25.5 -13.5t-16.5 -34t-6 -40.5q0 -16 5.5 -27.5t20.5 -18.5t45 -7.5t79 5.5h160q36 0 54 -20.5t18 -50.5q0 -35 -20 -55t-61 -20h-214q-75 0 -126 20t-76.5 57.5t-25.5 90.5
q0 44 14 88.5t40.5 83t62.5 61t80 22.5q60 0 103 -39t66 -104.5t23 -144.5q0 -108 -48.5 -184t-135.5 -119.5t-204 -56.5zM312 436l-16 65q35 6 52 10t35 8l-13 -26q-25 8 -47 32.5t-22 59.5q0 33 15 53.5t38 30.5t50 10q14 0 27.5 -2t23.5 -6l-7 -62q-9 2 -19 3.5t-20 1.5
q-19 0 -28.5 -8t-9.5 -22q0 -17 11 -30t26.5 -20t25.5 -8l-43 -4q25 7 47 14t42 14l20 -62q-24 -9 -55.5 -18.5t-65.5 -18t-67 -15.5zM26 427l-11 60q57 1 99.5 16t65.5 37t23 43q0 13 -7.5 23.5t-22.5 10.5q-12 0 -21 -9t-9 -23q0 -19 14 -31.5t33 -21.5l-44 -37
q-27 12 -47.5 35t-20.5 58q0 41 27.5 66t68.5 25q46 0 69.5 -29t23.5 -66q0 -43 -29 -77t-83 -54.5t-129 -25.5z" />
    <glyph glyph-name="uni0678.init" unicode="&#x678;" horiz-adv-x="368" 
d="M0 -5l10 146q27 0 45 7.5t27 25t9 47.5q0 32 -7 73.5t-18.5 84.5t-22.5 77l141 40q12 -34 24.5 -80.5t21 -97.5t8.5 -101q0 -57 -15 -96.5t-40 -64.5t-56.5 -38t-64.5 -18t-62 -5zM171 580l-16 68q38 6 55.5 10t37.5 9l-15 -28q-27 8 -50 34.5t-23 61.5q0 37 16 59
t41.5 32.5t52.5 10.5q16 0 29.5 -2.5t24.5 -6.5l-8 -64l-20 4t-22 2q-20 0 -31 -9.5t-11 -23.5q0 -19 12 -33t28.5 -21.5t27.5 -8.5l-44 -4q26 7 50 14.5t45 15.5l21 -66q-26 -9 -59 -19.5t-69.5 -19t-72.5 -15.5z" />
    <glyph glyph-name="uni0678.medi" unicode="&#x678;" horiz-adv-x="337" 
d="M0 -5l10 146q25 0 42.5 7t29.5 29t21 65t19 116l142 -23q-1 -15 -4 -34t-5.5 -39t-2.5 -39q0 -27 10 -45.5t31 -27.5t54 -9q36 0 53.5 -20.5t17.5 -50.5q0 -34 -21 -54.5t-60 -20.5q-55 0 -93 16t-59 49.5t-27 85.5h53q-17 -52 -43 -83t-56 -45.5t-59.5 -18.5t-52.5 -4z
M152 411l-16 68q38 6 55.5 10t37.5 9l-15 -28q-27 8 -50 34.5t-23 61.5q0 37 16 59t41.5 32.5t52.5 10.5q16 0 29.5 -2.5t24.5 -6.5l-8 -64l-20 4t-22 2q-20 0 -31 -9.5t-11 -23.5q0 -19 12 -33t28.5 -21.5t27.5 -8.5l-44 -4q26 7 50 14.5t45 15.5l21 -66q-26 -9 -59 -19.5
t-69.5 -19t-72.5 -15.5z" />
    <glyph glyph-name="uni0678.fina" unicode="&#x678;" horiz-adv-x="727" 
d="M27 21q0 25 4 57.5t16 75t35 96.5l134 -47q-14 -37 -22 -64.5t-11 -49t-3 -40.5q0 -32 12 -56.5t34.5 -41t55.5 -26t75 -9.5q53 0 90 9.5t60 24.5t34 31t11 28q0 8 -6.5 15t-20.5 15.5t-37.5 18t-57.5 21.5l39 137q40 -16 78 -30t72.5 -23.5t64 -15.5t54.5 -6
q36 0 53.5 -20.5t17.5 -50.5q0 -34 -21 -54.5t-60 -20.5h-12h-12h-12q2 -7 2.5 -13.5t0.5 -14.5q0 -32 -21 -66.5t-64.5 -64t-108.5 -48t-152 -18.5q-95 0 -167.5 27.5t-113.5 83.5t-41 140zM493 249l-16 68q38 6 55.5 10t37.5 9l-15 -28q-27 8 -50 34.5t-23 61.5
q0 37 16 59t41.5 32.5t52.5 10.5q16 0 29.5 -2.5t24.5 -6.5l-8 -64l-20 4t-22 2q-20 0 -31 -9.5t-11 -23.5q0 -19 12 -33t28.5 -21.5t27.5 -8.5l-44 -4q26 7 50 14.5t45 15.5l21 -66q-26 -9 -59 -19.5t-69.5 -19t-72.5 -15.5z" />
    <glyph glyph-name="uni067C.init" unicode="&#x67c;" horiz-adv-x="359" 
d="M0 -5l10 146q57 0 88 8t43 25.5t12 45.5q0 33 -7.5 74.5t-18.5 84t-23 77.5l142 40q12 -35 24.5 -81t21 -96t8.5 -98q0 -73 -24 -118t-65.5 -68.5t-95.5 -31.5t-115 -8zM183 -105q-38 0 -64.5 26.5t-26.5 64.5t26.5 64.5t64.5 26.5t64 -26.5t26 -64.5t-26 -64.5
t-64 -26.5zM183 -43q13 0 22 8t9 21q0 14 -9 22t-22 8t-22.5 -8.5t-9.5 -21.5t9.5 -21t22.5 -8zM266 583q-30 0 -49.5 20.5t-19.5 48.5q0 29 19.5 49.5t49.5 20.5q28 0 48.5 -20.5t20.5 -49.5q0 -28 -20.5 -48.5t-48.5 -20.5zM95 583q-30 0 -50 20.5t-20 48.5q0 29 20 49.5
t49 20.5t49 -20.5t20 -49.5q0 -28 -20 -48.5t-48 -20.5z" />
    <glyph glyph-name="uni067C.medi" unicode="&#x67c;" horiz-adv-x="336" 
d="M106 -109q-38 0 -64 26.5t-26 64.5q0 37 26 63.5t64 26.5q39 0 65 -26.5t26 -63.5q0 -38 -26 -64.5t-65 -26.5zM106 -48q14 0 23 8t9 22q0 13 -9 21.5t-23 8.5q-12 0 -21.5 -9t-9.5 -21q0 -13 9.5 -21.5t21.5 -8.5zM0 -5l10 146q25 0 42.5 7t29.5 29t21 65t19 116
l142 -23q-1 -15 -4 -34t-5.5 -39t-2.5 -39q0 -27 10 -45.5t30.5 -27.5t54.5 -9q36 0 53.5 -20.5t17.5 -49.5q0 -35 -21 -55.5t-60 -20.5q-55 0 -93 16t-59 49.5t-27 85.5h53q-17 -52 -43 -83t-56 -45.5t-59.5 -18.5t-52.5 -4zM279 468q-29 0 -49 20t-20 49t20 49t49 20
t49.5 -20t20.5 -49t-20.5 -49t-49.5 -20zM108 468q-30 0 -50 20.5t-20 48.5q0 29 20 49.5t50 20.5q28 0 48.5 -20.5t20.5 -49.5t-20.5 -49t-48.5 -20z" />
    <glyph glyph-name="uni067C.fina" unicode="&#x67c;" horiz-adv-x="1032" 
d="M529 -137q-38 0 -64.5 26.5t-26.5 64.5t26.5 64t64.5 26t64 -26.5t26 -63.5q0 -38 -26 -64.5t-64 -26.5zM529 -76q13 0 22 8.5t9 21.5q0 14 -9 22t-22 8t-22 -8.5t-9 -21.5t9 -21.5t22 -8.5zM409 -21l27 146q72 0 132 11.5t109 35t89 61t73 89.5l120 -57
q-8 -20 -12 -35.5t-4 -27.5q0 -19 11.5 -32.5t34 -21t52.5 -7.5q37 0 54.5 -20.5t17.5 -49.5q0 -35 -21 -55.5t-60 -20.5q-57 0 -104 17t-73 51.5t-23 86.5l43 1q-30 -43 -74 -75.5t-103 -54t-131 -32t-158 -10.5zM410 -21q-101 0 -170 17.5t-111 49.5t-60.5 74t-18.5 91
q0 34 6.5 69.5t16 68t17.5 57.5l128 -33q-5 -19 -10.5 -40t-8.5 -42t-3 -41q0 -36 19.5 -64t71.5 -44.5t149 -16.5l20 -114zM593 450q-30 0 -49.5 20.5t-19.5 48.5q0 29 19.5 49.5t49.5 20.5q28 0 48.5 -20.5t20.5 -49.5q0 -28 -20.5 -48.5t-48.5 -20.5zM421 450
q-29 0 -49 20.5t-20 48.5q0 30 19.5 50t49.5 20q28 0 48.5 -20t20.5 -50q0 -28 -20.5 -48.5t-48.5 -20.5z" />
    <glyph glyph-name="uni067D.init" unicode="&#x67d;" horiz-adv-x="359" 
d="M0 -5l10 146q57 0 88 8t43 25.5t12 45.5q0 33 -7.5 74.5t-18.5 84t-23 77.5l142 40q12 -35 24.5 -81t21 -96t8.5 -98q0 -73 -24 -118t-65.5 -68.5t-95.5 -31.5t-115 -8zM177 582q-28 0 -47.5 19t-19.5 47t19.5 48t47.5 20q27 0 46.5 -20t19.5 -48t-19.5 -47t-46.5 -19z
M95 728q-28 0 -47.5 19.5t-19.5 47.5t19.5 48t47.5 20q27 0 46.5 -20.5t19.5 -47.5q0 -28 -19.5 -47.5t-46.5 -19.5zM263 728q-27 0 -46.5 19.5t-19.5 47.5t19.5 48t46.5 20q28 0 47.5 -20.5t19.5 -47.5q0 -28 -19.5 -47.5t-47.5 -19.5z" />
    <glyph glyph-name="uni067D.medi" unicode="&#x67d;" horiz-adv-x="398" 
d="M0 -5l10 146q34 0 57 7t37.5 29t24.5 65.5t20 115.5l142 -23q-1 -15 -4 -34t-5.5 -39t-2.5 -39q0 -21 6.5 -36t21 -25t39.5 -15.5t63 -5.5q36 0 53.5 -20.5t17.5 -49.5q0 -35 -21 -55.5t-60 -20.5q-54 0 -92.5 8.5t-63.5 27t-39 47.5t-18 69l52 -1q-18 -51 -45 -82
t-59 -45.5t-66.5 -19t-67.5 -4.5zM214 473q-28 0 -47.5 19.5t-19.5 46.5q0 28 19.5 48.5t47.5 20.5q27 0 46.5 -20.5t19.5 -47.5q0 -28 -19.5 -47.5t-46.5 -19.5zM132 620q-28 0 -47.5 19t-19.5 47t19.5 48.5t47.5 20.5q27 0 46.5 -20.5t19.5 -48.5t-19.5 -47t-46.5 -19z
M300 620q-27 0 -46.5 19t-19.5 47t19.5 48.5t46.5 20.5q29 0 48 -20.5t19 -48.5t-19.5 -47t-47.5 -19z" />
    <glyph glyph-name="uni067D.fina" unicode="&#x67d;" horiz-adv-x="1032" 
d="M409 -21l27 146q72 0 132 11.5t109 35t89 61t73 89.5l120 -57q-8 -20 -12 -35.5t-4 -27.5q0 -19 11.5 -32.5t34 -21t52.5 -7.5q37 0 54.5 -20.5t17.5 -50.5q0 -34 -21 -54.5t-60 -20.5q-57 0 -104 17t-73 51.5t-23 86.5l43 1q-30 -43 -74 -75.5t-103 -54t-131 -32
t-158 -10.5zM410 -21q-101 0 -170 17.5t-111 49.5t-60.5 74t-18.5 91q0 34 6.5 69.5t16 68t17.5 57.5l128 -33q-5 -19 -10.5 -40t-8.5 -42t-3 -41q0 -36 19.5 -64t71.5 -44.5t149 -16.5l20 -114zM509 450q-28 0 -47.5 19.5t-19.5 47.5t19.5 48t47.5 20q27 0 46.5 -20.5
t19.5 -47.5q0 -28 -19.5 -47.5t-46.5 -19.5zM427 597q-28 0 -47.5 19t-19.5 47t19.5 48.5t47.5 20.5q27 0 46.5 -20.5t19.5 -48.5t-19.5 -47t-46.5 -19zM595 597q-27 0 -46.5 19t-19.5 47t19.5 48.5t46.5 20.5q28 0 47.5 -20.5t19.5 -48.5t-19.5 -47t-47.5 -19z" />
    <glyph glyph-name="uni0681.init" unicode="&#x681;" horiz-adv-x="590" 
d="M0 -5l10 146q45 0 93 7t95.5 20.5t92.5 34.5t86 50q-33 16 -65.5 26.5t-65.5 16t-68 5.5q-16 0 -33 -1t-34 -3t-34 -6l-24 150q28 8 57.5 11.5t59.5 3.5q55 0 99.5 -12t80.5 -29t66 -34.5t56.5 -29.5t52.5 -12h29l18 -134q-34 -4 -65.5 -20.5t-65 -40.5t-74 -49.5
t-92 -48t-119 -37t-156.5 -14.5zM112 535l-16 65q35 6 52 10t35 8l-13 -26q-25 8 -47 32.5t-22 59.5q0 33 15 53.5t38 30.5t50 10q14 0 27.5 -2t23.5 -6l-7 -62q-9 2 -19 3.5t-20 1.5q-19 0 -28.5 -8t-9.5 -22q0 -17 11 -30t26.5 -20t25.5 -8l-43 -4q25 7 47 14t42 14
l20 -62q-24 -9 -55.5 -18.5t-65.5 -18t-67 -15.5z" />
    <glyph glyph-name="uni0681.medi" unicode="&#x681;" horiz-adv-x="598" 
d="M599 -5q-34 0 -65.5 8t-59 26t-49.5 49.5t-37 78.5l84 64q14 -32 34.5 -49.5t46.5 -24t56 -6.5q36 0 53.5 -20.5t17.5 -50.5q0 -34 -21 -54.5t-60 -20.5zM0 -5l10 146q45 0 93 7t95.5 20.5t92.5 34.5t86 50q-33 16 -65.5 26.5t-65.5 16t-68 5.5q-16 0 -33 -1t-34 -3
t-34 -6l-24 150q28 8 57.5 11.5t59.5 3.5q55 0 99.5 -12t80.5 -29t66 -34.5t56.5 -29.5t52.5 -12h29l18 -134q-34 -4 -65.5 -20.5t-65 -40.5t-74 -49.5t-92 -48t-119 -37t-156.5 -14.5zM105 538l-16 65q35 6 52 10t35 8l-13 -26q-25 8 -47 32.5t-22 59.5q0 33 15 53.5
t38 30.5t50 10q14 0 27.5 -2t23.5 -6l-7 -62q-9 2 -19 3.5t-20 1.5q-19 0 -28.5 -8t-9.5 -22q0 -17 11 -30t26.5 -20t25.5 -8l-43 -4q25 7 47 14t42 14l20 -62q-24 -9 -55.5 -18.5t-65.5 -18t-67 -15.5z" />
    <glyph glyph-name="uni0681.fina" unicode="&#x681;" horiz-adv-x="638" 
d="M638 -5q-43 0 -83 9.5t-73 34t-55.5 71t-32.5 120.5l106 50q8 -46 22 -73.5t33 -41.5t43 -19t50 -5q37 0 54 -20.5t17 -50.5q0 -34 -21 -54.5t-60 -20.5zM361 -392q-69 0 -131 19t-109 57t-74 94.5t-27 131.5q0 70 22.5 130t61.5 108.5t89.5 87t108 66.5t115.5 45l9 -36
q-23 8 -52.5 18t-62 18.5t-67 14.5t-68.5 6q-27 0 -56.5 -4t-54.5 -11l-23 150q30 8 60.5 14t59.5 6q48 0 91.5 -10.5t82.5 -25.5t74 -30.5t65.5 -25.5t56.5 -10h28l16 -165q-40 -3 -85 -14.5t-90 -30.5t-86 -45.5t-72.5 -60.5t-50 -75.5t-18.5 -90.5q0 -47 16.5 -81t45 -55
t64.5 -31.5t74 -10.5q42 0 86 8.5t98 29.5l44 -135q-72 -33 -132.5 -44.5t-108.5 -11.5zM195 601l-16 65q35 6 52 10t35 8l-13 -26q-25 8 -47 32.5t-22 59.5q0 33 15 53.5t38 30.5t50 10q14 0 27.5 -2t23.5 -6l-7 -62q-9 2 -19 3.5t-20 1.5q-19 0 -28.5 -8t-9.5 -22
q0 -17 11 -30t26.5 -20t25.5 -8l-43 -4q25 7 47 14t42 14l20 -62q-24 -9 -55.5 -18.5t-65.5 -18t-67 -15.5z" />
    <glyph glyph-name="uni0682.init" unicode="&#x682;" horiz-adv-x="590" 
d="M0 -5l10 146q45 0 93 7t95.5 20.5t92.5 34.5t86 50q-33 16 -65.5 26.5t-65.5 16t-68 5.5q-16 0 -33 -1t-34 -3t-34 -6l-24 150q28 8 57.5 11.5t59.5 3.5q55 0 99.5 -12t80.5 -29t66 -34.5t56.5 -29.5t52.5 -12h29l18 -134q-34 -4 -65.5 -20.5t-65 -40.5t-74 -49.5
t-92 -48t-119 -37t-156.5 -14.5zM167 560q-28 0 -47 19t-19 46q0 28 19 48t47 20q27 0 46 -20t19 -47q0 -28 -19 -47t-46 -19zM167 727q-28 0 -47 19t-19 46q0 28 19 48t47 20q27 0 46 -20t19 -47q0 -28 -19 -47t-46 -19z" />
    <glyph glyph-name="uni0682.medi" unicode="&#x682;" horiz-adv-x="598" 
d="M599 -5q-34 0 -65.5 8t-59 26t-49.5 49.5t-37 78.5l84 64q14 -32 34.5 -49.5t46.5 -24t56 -6.5q36 0 53.5 -20.5t17.5 -50.5q0 -34 -21 -54.5t-60 -20.5zM0 -5l10 146q45 0 93 7t95.5 20.5t92.5 34.5t86 50q-33 16 -65.5 26.5t-65.5 16t-68 5.5q-16 0 -33 -1t-34 -3
t-34 -6l-24 150q28 8 57.5 11.5t59.5 3.5q55 0 99.5 -12t80.5 -29t66 -34.5t56.5 -29.5t52.5 -12h29l18 -134q-34 -4 -65.5 -20.5t-65 -40.5t-74 -49.5t-92 -48t-119 -37t-156.5 -14.5zM175 565q-28 0 -47 19t-19 46q0 28 19 48t47 20q27 0 46 -20t19 -47q0 -28 -19 -47
t-46 -19zM175 732q-28 0 -47 19t-19 46q0 28 19 48t47 20q27 0 46 -20t19 -47q0 -28 -19 -47t-46 -19z" />
    <glyph glyph-name="uni0682.fina" unicode="&#x682;" horiz-adv-x="638" 
d="M638 -5q-43 0 -83 9.5t-73 34t-55.5 71t-32.5 120.5l106 50q8 -46 22 -73.5t33 -41.5t43 -19t50 -5q37 0 54 -20.5t17 -50.5q0 -34 -21 -54.5t-60 -20.5zM361 -392q-69 0 -131 19t-109 57t-74 94.5t-27 131.5q0 70 22.5 130t61.5 108.5t89.5 87t108 66.5t115.5 45l9 -36
q-23 8 -52.5 18t-62 18.5t-67 14.5t-68.5 6q-27 0 -56.5 -4t-54.5 -11l-23 150q30 8 60.5 14t59.5 6q48 0 91.5 -10.5t82.5 -25.5t74 -30.5t65.5 -25.5t56.5 -10h28l16 -165q-40 -3 -85 -14.5t-90 -30.5t-86 -45.5t-72.5 -60.5t-50 -75.5t-18.5 -90.5q0 -47 16.5 -81t45 -55
t64.5 -31.5t74 -10.5q42 0 86 8.5t98 29.5l44 -135q-72 -33 -132.5 -44.5t-108.5 -11.5zM314 618q-28 0 -47 19t-19 46q0 28 19 48t47 20q27 0 46 -20t19 -47q0 -28 -19 -47t-46 -19zM314 785q-28 0 -47 19t-19 46q0 28 19 48t47 20q27 0 46 -20t19 -47q0 -28 -19 -47
t-46 -19z" />
    <glyph glyph-name="uni0685.init" unicode="&#x685;" horiz-adv-x="590" 
d="M0 -5l10 146q45 0 93 7t95.5 20.5t92.5 34.5t86 50q-33 16 -65.5 26.5t-65.5 16t-68 5.5q-16 0 -33 -1t-34 -3t-34 -6l-24 150q28 8 57.5 11.5t59.5 3.5q55 0 99.5 -12t80.5 -29t66 -34.5t56.5 -29.5t52.5 -12h29l18 -134q-34 -4 -65.5 -20.5t-65 -40.5t-74 -49.5
t-92 -48t-119 -37t-156.5 -14.5zM169 705q-30 0 -49.5 20t-19.5 48q0 29 19.5 49t49.5 20q28 0 48 -20t20 -49q0 -28 -20 -48t-48 -20zM87 557q-28 0 -48.5 21t-20.5 48q0 28 20.5 49t48.5 21t48 -21t20 -49t-20 -48.5t-48 -20.5zM255 557q-29 0 -48 21t-19 48q0 28 19 49
t48 21q28 0 48 -21t20 -49t-20 -48.5t-48 -20.5z" />
    <glyph glyph-name="uni0685.medi" unicode="&#x685;" horiz-adv-x="598" 
d="M599 -5q-34 0 -65.5 8t-59 26t-49.5 49.5t-37 78.5l84 64q14 -32 34.5 -49.5t46.5 -24t56 -6.5q36 0 53.5 -20.5t17.5 -50.5q0 -34 -21 -54.5t-60 -20.5zM0 -5l10 146q45 0 93 7t95.5 20.5t92.5 34.5t86 50q-33 16 -65.5 26.5t-65.5 16t-68 5.5q-16 0 -33 -1t-34 -3
t-34 -6l-24 150q28 8 57.5 11.5t59.5 3.5q55 0 99.5 -12t80.5 -29t66 -34.5t56.5 -29.5t52.5 -12h29l18 -134q-34 -4 -65.5 -20.5t-65 -40.5t-74 -49.5t-92 -48t-119 -37t-156.5 -14.5zM178 708q-30 0 -49.5 20t-19.5 48q0 29 19.5 49t49.5 20q28 0 48 -20t20 -49
q0 -28 -20 -48t-48 -20zM96 560q-28 0 -48.5 21t-20.5 48q0 28 20.5 49t48.5 21t48 -21t20 -49t-20 -48.5t-48 -20.5zM264 560q-29 0 -48 21t-19 48q0 28 19 49t48 21q28 0 48 -21t20 -49t-20 -48.5t-48 -20.5z" />
    <glyph glyph-name="uni0685.fina" unicode="&#x685;" horiz-adv-x="638" 
d="M638 -5q-43 0 -83 9.5t-73 34t-55.5 71t-32.5 120.5l106 50q8 -46 22 -73.5t33 -41.5t43 -19t50 -5q37 0 54 -20.5t17 -50.5q0 -34 -21 -54.5t-60 -20.5zM361 -392q-69 0 -131 19t-109 57t-74 94.5t-27 131.5q0 70 22.5 130t61.5 108.5t89.5 87t108 66.5t115.5 45l9 -36
q-23 8 -52.5 18t-62 18.5t-67 14.5t-68.5 6q-27 0 -56.5 -4t-54.5 -11l-23 150q30 8 60.5 14t59.5 6q48 0 91.5 -10.5t82.5 -25.5t74 -30.5t65.5 -25.5t56.5 -10h28l16 -165q-40 -3 -85 -14.5t-90 -30.5t-86 -45.5t-72.5 -60.5t-50 -75.5t-18.5 -90.5q0 -47 16.5 -81t45 -55
t64.5 -31.5t74 -10.5q42 0 86 8.5t98 29.5l44 -135q-72 -33 -132.5 -44.5t-108.5 -11.5zM307 767q-30 0 -49.5 20t-19.5 48q0 29 19.5 49t49.5 20q28 0 48 -20t20 -49q0 -28 -20 -48t-48 -20zM225 619q-28 0 -48.5 21t-20.5 48q0 28 20.5 49t48.5 21t48 -21t20 -49
t-20 -48.5t-48 -20.5zM393 619q-29 0 -48 21t-19 48q0 28 19 49t48 21q28 0 48 -21t20 -49t-20 -48.5t-48 -20.5z" />
    <glyph glyph-name="uni0689.fina" unicode="&#x689;" horiz-adv-x="519" 
d="M204 -126q-38 0 -64.5 26.5t-26.5 63.5q0 38 26.5 64.5t64.5 26.5t64 -26.5t26 -64.5q0 -37 -26 -63.5t-64 -26.5zM204 -65q13 0 22 8t9 21q0 14 -9 22t-22 8t-22.5 -8.5t-9.5 -21.5t9.5 -21t22.5 -8zM189 146q28 0 46 6.5t26.5 19.5t8.5 34q0 18 -7 42t-21 55.5
t-36 70.5t-52 88l139 81q38 -55 66 -108.5t46 -100t27 -81.5q12 -42 26.5 -66.5t32.5 -35t38 -10.5q37 0 54.5 -20.5t17.5 -50.5q0 -34 -21 -54.5t-61 -20.5q-37 0 -72.5 12t-64 38t-44.5 67l57 -2q-9 -33 -31.5 -59t-61.5 -41.5t-97 -15.5q-26 0 -58 3.5t-62.5 11
t-53.5 19.5l34 140q29 -10 63 -16t61 -6z" />
    <glyph glyph-name="uni068A.fina" unicode="&#x68a;" horiz-adv-x="519" 
d="M189 146q28 0 46 6.5t26.5 19.5t8.5 34q0 18 -7 42t-21 55.5t-36 70.5t-52 88l139 81q38 -55 66 -108.5t46 -100t27 -81.5q12 -42 26.5 -66.5t32.5 -35t38 -10.5q37 0 54.5 -20.5t17.5 -50.5q0 -34 -21 -54.5t-61 -20.5q-37 0 -72.5 12t-64 38t-44.5 67l57 -2
q-9 -33 -31.5 -59t-61.5 -41.5t-97 -15.5q-26 0 -58 3.5t-62.5 11t-53.5 19.5l34 140q29 -10 63 -16t61 -6zM200 -239q-31 0 -52 20.5t-21 50.5t20.5 52t52.5 22q29 0 50 -22t21 -52t-21 -50.5t-50 -20.5z" />
    <glyph glyph-name="uni068B.fina" unicode="&#x68b;" horiz-adv-x="519" 
d="M189 146q28 0 46 6.5t26.5 19.5t8.5 34q0 18 -7 42t-21 55.5t-36 70.5t-52 88l139 81q38 -55 66 -108.5t46 -100t27 -81.5q12 -42 26.5 -66.5t32.5 -35t38 -10.5q37 0 54.5 -20.5t17.5 -50.5q0 -34 -21 -54.5t-61 -20.5q-37 0 -72.5 12t-64 38t-44.5 67l57 -2
q-9 -33 -31.5 -59t-61.5 -41.5t-97 -15.5q-26 0 -58 3.5t-62.5 11t-53.5 19.5l34 140q29 -10 63 -16t61 -6zM225 644q-17 0 -40.5 1t-44 3t-30.5 3l3 62q19 -2 49.5 -4.5t56.5 -2.5q38 0 58.5 6t28 15t7.5 19t-7 17.5t-20 7.5q-15 0 -32 -12.5t-30.5 -29t-21.5 -31.5l-62 11
q17 37 42.5 65.5t55 45t58.5 16.5q37 0 60 -25t23 -63q0 -21 -11.5 -45.5t-44.5 -41.5t-98 -17zM156 716l-6 181h63l7 -161zM191 -239q-31 0 -52 20.5t-21 50.5t20.5 52t52.5 22q29 0 50 -22t21 -52t-21 -50.5t-50 -20.5z" />
    <glyph glyph-name="uni068F.fina" unicode="&#x68f;" horiz-adv-x="519" 
d="M189 146q28 0 46 6.5t26.5 19.5t8.5 34q0 18 -7 42t-21 55.5t-36 70.5t-52 88l139 81q38 -55 66 -108.5t46 -100t27 -81.5q12 -42 26.5 -66.5t32.5 -35t38 -10.5q37 0 54.5 -20.5t17.5 -50.5q0 -34 -21 -54.5t-61 -20.5q-37 0 -72.5 12t-64 38t-44.5 67l57 -2
q-9 -33 -31.5 -59t-61.5 -41.5t-97 -15.5q-26 0 -58 3.5t-62.5 11t-53.5 19.5l34 140q29 -10 63 -16t61 -6zM237 642q-28 0 -47.5 19.5t-19.5 47.5t19.5 48t47.5 20q27 0 46.5 -20.5t19.5 -47.5q0 -28 -19.5 -47.5t-46.5 -19.5zM155 789q-28 0 -47.5 19t-19.5 47t19.5 48.5
t47.5 20.5q27 0 46.5 -20.5t19.5 -48.5t-19.5 -47t-46.5 -19zM323 789q-27 0 -46.5 19t-19.5 47t19.5 48.5t46.5 20.5q28 0 47.5 -20.5t19.5 -48.5t-19.5 -47t-47.5 -19z" />
    <glyph glyph-name="uni0690.fina" unicode="&#x690;" horiz-adv-x="519" 
d="M189 146q28 0 46 6.5t26.5 19.5t8.5 34q0 18 -7 42t-21 55.5t-36 70.5t-52 88l139 81q38 -55 66 -108.5t46 -100t27 -81.5q12 -42 26.5 -66.5t32.5 -35t38 -10.5q37 0 54.5 -20.5t17.5 -50.5q0 -34 -21 -54.5t-61 -20.5q-37 0 -72.5 12t-64 38t-44.5 67l57 -2
q-9 -33 -31.5 -59t-61.5 -41.5t-97 -15.5q-26 0 -58 3.5t-62.5 11t-53.5 19.5l34 140q29 -10 63 -16t61 -6zM119 758q-26 0 -43.5 17.5t-17.5 41.5q0 26 17.5 44.5t43.5 18.5q24 0 41.5 -18.5t17.5 -43.5t-17.5 -42.5t-41.5 -17.5zM119 613q-26 0 -43 17.5t-17 42.5t17 43.5
t43 18.5q25 0 42.5 -18.5t17.5 -43.5t-17.5 -42.5t-42.5 -17.5zM265 759q-25 0 -42.5 17.5t-17.5 41.5q0 26 17.5 44t42.5 18t42.5 -18t17.5 -43t-17.5 -42.5t-42.5 -17.5zM264 613q-26 0 -43 17.5t-17 42.5t17 43.5t43 18.5q25 0 42 -18.5t17 -43.5t-17 -42.5t-42 -17.5z
" />
    <glyph glyph-name="uni0692.fina" unicode="&#x692;" horiz-adv-x="393" 
d="M33 -230l-69 135q51 21 87.5 47t60 55t34.5 59.5t11 61.5q0 44 -20 94.5t-52 107.5l140 69q16 -30 30 -62t24.5 -60.5t16.5 -50.5q14 -48 40 -66.5t67 -18.5q36 0 53.5 -20.5t17.5 -50.5q0 -34 -21 -54.5t-60 -20.5q-34 0 -62 12t-46 35t-24 54l45 29
q-1 -51 -17.5 -102.5t-50 -98.5t-84.5 -86.5t-121 -67.5zM108 497q-7 15 -17 38.5t-21.5 51t-22 52t-18.5 41.5l57 25q6 -11 15 -32.5t19.5 -46t20.5 -47.5t17 -36l20 -41zM178 502l-51 20q5 16 14.5 43t19.5 56.5t18 53.5t12 33l57 -19q-4 -11 -13 -36t-20.5 -54
t-21.5 -55.5t-15 -41.5z" />
    <glyph glyph-name="uni0693.fina" unicode="&#x693;" horiz-adv-x="393" 
d="M238 -217q-38 0 -64.5 26.5t-26.5 63.5q0 38 26.5 64.5t64.5 26.5t64 -26.5t26 -64.5q0 -37 -26 -63.5t-64 -26.5zM238 -156q13 0 22 8.5t9 20.5q0 14 -9 22.5t-22 8.5t-22.5 -9t-9.5 -22q0 -12 9.5 -20.5t22.5 -8.5zM33 -230l-69 135q51 21 87.5 47t60 55t34.5 59.5
t11 61.5q0 44 -20 94.5t-52 107.5l140 69q16 -30 30 -62t24.5 -60.5t16.5 -50.5q14 -48 40 -66.5t67 -18.5q36 0 53.5 -20.5t17.5 -50.5q0 -34 -21 -54.5t-60 -20.5q-34 0 -62 12t-46 35t-24 54l45 29q-1 -51 -17.5 -102.5t-50 -98.5t-84.5 -86.5t-121 -67.5z" />
    <glyph glyph-name="uni0694.fina" unicode="&#x694;" horiz-adv-x="393" 
d="M33 -230l-69 135q51 21 87.5 47t60 55t34.5 59.5t11 61.5q0 44 -20 94.5t-52 107.5l140 69q16 -30 30 -62t24.5 -60.5t16.5 -50.5q14 -48 40 -66.5t67 -18.5q36 0 53.5 -20.5t17.5 -50.5q0 -34 -21 -54.5t-60 -20.5q-34 0 -62 12t-46 35t-24 54l45 29
q-1 -51 -17.5 -102.5t-50 -98.5t-84.5 -86.5t-121 -67.5zM189 -442q-31 0 -52 20.5t-21 50.5t20.5 52t52.5 22q29 0 50 -22t21 -52t-21 -50.5t-50 -20.5z" />
    <glyph glyph-name="uni0695.fina" unicode="&#x695;" horiz-adv-x="393" 
d="M7 -12q-8 15 -20 40t-25 50.5t-22 41.5l46 24q5 -7 12.5 -22.5t15.5 -33t16 -34t15 -27.5l15 -35zM60 -8l-45 18q5 13 13 33.5t16.5 42t15.5 38.5t10 23l45 -19q-3 -8 -10 -25.5t-16 -38t-17 -40t-12 -32.5zM33 -230l-69 135q51 21 87.5 47t60 55t34.5 59.5t11 61.5
q0 44 -20 94.5t-52 107.5l140 69q16 -30 30 -62t24.5 -60.5t16.5 -50.5q14 -48 40 -66.5t67 -18.5q36 0 53.5 -20.5t17.5 -50.5q0 -34 -21 -54.5t-60 -20.5q-34 0 -62 12t-46 35t-24 54l45 29q-1 -51 -17.5 -102.5t-50 -98.5t-84.5 -86.5t-121 -67.5z" />
    <glyph glyph-name="uni0696.fina" unicode="&#x696;" horiz-adv-x="393" 
d="M33 -230l-69 135q51 21 87.5 47t60 55t34.5 59.5t11 61.5q0 44 -20 94.5t-52 107.5l140 69q16 -30 30 -62t24.5 -60.5t16.5 -50.5q14 -48 40 -66.5t67 -18.5q36 0 53.5 -20.5t17.5 -50.5q0 -34 -21 -54.5t-60 -20.5q-34 0 -62 12t-46 35t-24 54l45 29
q-1 -51 -17.5 -102.5t-50 -98.5t-84.5 -86.5t-121 -67.5zM57 19q-31 0 -52 21.5t-21 51.5q0 31 21 53t52 22q30 0 51 -22t21 -53q0 -30 -21 -51.5t-51 -21.5zM168 -442q-31 0 -52 20.5t-21 50.5t20.5 52t52.5 22q29 0 50 -22t21 -52t-21 -50.5t-50 -20.5z" />
    <glyph glyph-name="uni0697.fina" unicode="&#x697;" horiz-adv-x="393" 
d="M33 -230l-69 135q51 21 87.5 47t60 55t34.5 59.5t11 61.5q0 44 -20 94.5t-52 107.5l140 69q16 -30 30 -62t24.5 -60.5t16.5 -50.5q14 -48 40 -66.5t67 -18.5q36 0 53.5 -20.5t17.5 -50.5q0 -34 -21 -54.5t-60 -20.5q-34 0 -62 12t-46 35t-24 54l45 29
q-1 -51 -17.5 -102.5t-50 -98.5t-84.5 -86.5t-121 -67.5zM270 502q-30 0 -49.5 20.5t-19.5 48.5q0 29 19.5 49.5t49.5 20.5q28 0 48.5 -20.5t20.5 -49.5q0 -28 -20.5 -48.5t-48.5 -20.5zM98 502q-29 0 -49 20.5t-20 48.5q0 29 20 49.5t49 20.5t49 -20.5t20 -49.5
q0 -28 -20.5 -48.5t-48.5 -20.5z" />
    <glyph glyph-name="uni0699.fina" unicode="&#x699;" horiz-adv-x="393" 
d="M33 -230l-69 135q51 21 87.5 47t60 55t34.5 59.5t11 61.5q0 44 -20 94.5t-52 107.5l140 69q16 -30 30 -62t24.5 -60.5t16.5 -50.5q14 -48 40 -66.5t67 -18.5q36 0 53.5 -20.5t17.5 -50.5q0 -34 -21 -54.5t-60 -20.5q-34 0 -62 12t-46 35t-24 54l45 29
q-1 -51 -17.5 -102.5t-50 -98.5t-84.5 -86.5t-121 -67.5zM73 646q-26 0 -43.5 17.5t-17.5 41.5q0 26 17.5 44.5t43.5 18.5q24 0 41.5 -18.5t17.5 -43.5t-17.5 -42.5t-41.5 -17.5zM73 501q-26 0 -43 17.5t-17 42.5t17 43.5t43 18.5q25 0 42.5 -18.5t17.5 -43.5t-17.5 -42.5
t-42.5 -17.5zM219 647q-25 0 -42.5 17.5t-17.5 41.5q0 26 17.5 44t42.5 18t42.5 -18t17.5 -43t-17.5 -42.5t-42.5 -17.5zM218 501q-26 0 -43 17.5t-17 42.5t17 43.5t43 18.5q25 0 42 -18.5t17 -43.5t-17 -42.5t-42 -17.5z" />
    <glyph glyph-name="uni069A.init" unicode="&#x69a;" horiz-adv-x="896" 
d="M0 -5l10 146q26 0 42.5 6.5t28 27t21 62.5t21.5 112l142 -24q-3 -16 -6.5 -36.5t-6.5 -42.5t-3 -42q0 -28 15 -45t52 -17q23 0 38.5 6t26.5 27t20 64t20 118l144 -23q-4 -22 -8 -48t-7 -49.5t-3 -38.5q0 -16 7 -29t23.5 -20.5t42.5 -7.5t43 7.5t25.5 24t8.5 42.5
q0 42 -15.5 103t-39.5 130l145 45q17 -47 30 -98t20.5 -98.5t7.5 -83.5q0 -52 -17 -92.5t-46.5 -68.5t-69 -42.5t-85.5 -14.5q-45 0 -77.5 12.5t-52.5 42.5t-28 81h34q-21 -62 -48 -90.5t-60.5 -37t-74.5 -8.5q-29 0 -62 8.5t-60.5 37.5t-42.5 89l61 1q-22 -58 -56.5 -87.5
t-75.5 -39t-84 -9.5zM438 -239q-31 0 -52 20.5t-21 50.5t20.5 52t52.5 22q29 0 50 -22t21 -52t-21 -50.5t-50 -20.5zM481 504q-31 0 -52 21.5t-21 51.5q0 31 21 53t52 22q30 0 51 -22t21 -53q0 -30 -21 -51.5t-51 -21.5z" />
    <glyph glyph-name="uni069A.medi" unicode="&#x69a;" horiz-adv-x="946" 
d="M0 -5l10 146q25 0 41.5 6.5t28 27t21 62.5t21.5 112l142 -24q-3 -21 -9 -54t-6 -58q0 -23 6 -39t21.5 -24t43.5 -8q21 0 36.5 6t26.5 27t20.5 64.5t18.5 117.5l145 -23q-5 -25 -9.5 -51t-7 -48t-2.5 -37q0 -17 7 -29.5t24.5 -20t46.5 -7.5q38 0 55 21t17 67q0 23 -1 50
t-4 61.5t-9 77.5l142 12q8 -92 17 -149t22.5 -87t35 -41.5t55.5 -11.5q36 0 53.5 -20.5t17.5 -50.5q0 -34 -21 -54.5t-60 -20.5q-17 0 -41.5 4.5t-50.5 18.5t-49.5 41t-37.5 71l19 -6q-13 -46 -36 -74t-56 -41.5t-77 -13.5q-37 0 -70.5 13t-54.5 43t-20 80h32
q-20 -59 -44.5 -88t-58 -38.5t-81.5 -9.5q-31 0 -64 9.5t-60.5 38.5t-41.5 87l61 1q-25 -61 -57 -90t-71 -37.5t-87 -8.5zM424 -239q-31 0 -52 20.5t-21 50.5t20.5 52t52.5 22q29 0 50 -22t21 -52t-21 -50.5t-50 -20.5zM475 504q-31 0 -52 21.5t-21 51.5q0 31 21 53t52 22
q30 0 51 -22t21 -53q0 -30 -21 -51.5t-51 -21.5z" />
    <glyph glyph-name="uni069A.fina" unicode="&#x69a;" horiz-adv-x="1308" 
d="M312 -232q-56 0 -107 15t-91 46.5t-63.5 80t-23.5 115.5q0 25 4 55.5t15.5 71.5t35.5 96l134 -49q-14 -37 -22 -63.5t-11 -48.5t-3 -47q0 -40 17.5 -68t49 -43t74.5 -15q39 0 67.5 10.5t47 30t27.5 48t9 65.5q0 33 -7.5 72.5t-20 85t-28.5 95.5l153 39q14 -58 23.5 -92
t13.5 -50q10 -31 20.5 -48t25 -22.5t34.5 -5.5q19 0 33 6.5t25 27t20.5 64t18.5 117.5l145 -23q-5 -26 -9 -51.5t-7 -48t-3 -37.5t7.5 -27.5t24.5 -20.5t46 -8q38 0 55 21.5t17 66.5q0 23 -1 50t-4 61.5t-8 77.5l144 12q8 -101 18 -159t24.5 -86t35.5 -36t50 -8
q36 0 53.5 -20.5t17.5 -50.5q0 -34 -21 -54.5t-60 -20.5q-29 0 -65 11t-67 40t-49 83l23 -5q-14 -51 -41.5 -79t-60 -39t-61.5 -11q-47 0 -81.5 15.5t-53.5 46.5t-20 75h33q-17 -58 -42 -87.5t-55 -39.5t-63 -10q-15 0 -35 4t-38.5 14t-32.5 29.5t-19 49.5l42 -47
q-2 -66 -27 -117.5t-67 -87t-97.5 -54t-118.5 -18.5zM845 -233q-31 0 -52 20.5t-21 50.5t20.5 52t52.5 22q29 0 50 -22t21 -52t-21 -50.5t-50 -20.5zM786 504q-31 0 -52 21.5t-21 51.5q0 31 21 53t52 22q30 0 51 -22t21 -53q0 -30 -21 -51.5t-51 -21.5z" />
    <glyph glyph-name="uni069B.init" unicode="&#x69b;" horiz-adv-x="896" 
d="M0 -5l10 146q26 0 42.5 6.5t28 27t21 62.5t21.5 112l142 -24q-3 -16 -6.5 -36.5t-6.5 -42.5t-3 -42q0 -28 15 -45t52 -17q23 0 38.5 6t26.5 27t20 64t20 118l144 -23q-4 -22 -8 -48t-7 -49.5t-3 -38.5q0 -16 7 -29t23.5 -20.5t42.5 -7.5t43 7.5t25.5 24t8.5 42.5
q0 42 -15.5 103t-39.5 130l145 45q17 -47 30 -98t20.5 -98.5t7.5 -83.5q0 -52 -17 -92.5t-46.5 -68.5t-69 -42.5t-85.5 -14.5q-45 0 -77.5 12.5t-52.5 42.5t-28 81h34q-21 -62 -48 -90.5t-60.5 -37t-74.5 -8.5q-29 0 -62 8.5t-60.5 37.5t-42.5 89l61 1q-22 -58 -56.5 -87.5
t-75.5 -39t-84 -9.5zM439 -376q-28 0 -47.5 19t-19.5 47t19.5 48.5t47.5 20.5q27 0 46.5 -20.5t19.5 -48.5t-19.5 -47t-46.5 -19zM356 -229q-28 0 -47.5 19t-19.5 47t19 48t48 20q27 0 46.5 -20.5t19.5 -47.5q0 -28 -19.5 -47t-46.5 -19zM526 -229q-28 0 -47.5 19t-19.5 47
t19.5 48t47.5 20t47 -20.5t19 -47.5q0 -28 -19 -47t-47 -19z" />
    <glyph glyph-name="uni069B.medi" unicode="&#x69b;" horiz-adv-x="946" 
d="M0 -5l10 146q25 0 41.5 6.5t28 27t21 62.5t21.5 112l142 -24q-3 -21 -9 -54t-6 -58q0 -23 6 -39t21.5 -24t43.5 -8q21 0 36.5 6t26.5 27t20.5 64.5t18.5 117.5l145 -23q-5 -25 -9.5 -51t-7 -48t-2.5 -37q0 -17 7 -29.5t24.5 -20t46.5 -7.5q38 0 55 21t17 67q0 23 -1 50
t-4 61.5t-9 77.5l142 12q8 -92 17 -149t22.5 -87t35 -41.5t55.5 -11.5q36 0 53.5 -20.5t17.5 -50.5q0 -34 -21 -54.5t-60 -20.5q-17 0 -41.5 4.5t-50.5 18.5t-49.5 41t-37.5 71l19 -6q-13 -46 -36 -74t-56 -41.5t-77 -13.5q-37 0 -70.5 13t-54.5 43t-20 80h32
q-20 -59 -44.5 -88t-58 -38.5t-81.5 -9.5q-31 0 -64 9.5t-60.5 38.5t-41.5 87l61 1q-25 -61 -57 -90t-71 -37.5t-87 -8.5zM425 -376q-28 0 -47.5 19t-19.5 47t19.5 48.5t47.5 20.5q27 0 46.5 -20.5t19.5 -48.5t-19.5 -47t-46.5 -19zM342 -229q-28 0 -47.5 19t-19.5 47t19 48
t48 20q27 0 46.5 -20.5t19.5 -47.5q0 -28 -19.5 -47t-46.5 -19zM512 -229q-28 0 -47.5 19t-19.5 47t19.5 48t47.5 20t47 -20.5t19 -47.5q0 -28 -19 -47t-47 -19z" />
    <glyph glyph-name="uni069B.fina" unicode="&#x69b;" horiz-adv-x="1308" 
d="M312 -232q-56 0 -107 15t-91 46.5t-63.5 80t-23.5 115.5q0 25 4 55.5t15.5 71.5t35.5 96l134 -49q-14 -37 -22 -63.5t-11 -48.5t-3 -47q0 -40 17.5 -68t49 -43t74.5 -15q39 0 67.5 10.5t47 30t27.5 48t9 65.5q0 33 -7.5 72.5t-20 85t-28.5 95.5l153 39q14 -58 23.5 -92
t13.5 -50q10 -31 20.5 -48t25 -22.5t34.5 -5.5q19 0 33 6.5t25 27t20.5 64t18.5 117.5l145 -23q-5 -26 -9 -51.5t-7 -48t-3 -37.5t7.5 -27.5t24.5 -20.5t46 -8q38 0 55 21.5t17 66.5q0 23 -1 50t-4 61.5t-8 77.5l144 12q8 -101 18 -159t24.5 -86t35.5 -36t50 -8
q36 0 53.5 -20.5t17.5 -50.5q0 -34 -21 -54.5t-60 -20.5q-29 0 -65 11t-67 40t-49 83l23 -5q-14 -51 -41.5 -79t-60 -39t-61.5 -11q-47 0 -81.5 15.5t-53.5 46.5t-20 75h33q-17 -58 -42 -87.5t-55 -39.5t-63 -10q-15 0 -35 4t-38.5 14t-32.5 29.5t-19 49.5l42 -47
q-2 -66 -27 -117.5t-67 -87t-97.5 -54t-118.5 -18.5zM750 -404q-28 0 -47.5 19t-19.5 47t19.5 48.5t47.5 20.5q27 0 46.5 -20.5t19.5 -48.5t-19.5 -47t-46.5 -19zM667 -257q-28 0 -47.5 19t-19.5 47t19 48t48 20q27 0 46.5 -20.5t19.5 -47.5q0 -28 -19.5 -47t-46.5 -19z
M837 -257q-28 0 -47.5 19t-19.5 47t19.5 48t47.5 20t47 -20.5t19 -47.5q0 -28 -19 -47t-47 -19z" />
    <glyph glyph-name="uni069D.init" unicode="&#x69d;" horiz-adv-x="914" 
d="M492 -17q-85 0 -142.5 8.5t-95 24t-60.5 36.5t-39 46l30 7q-24 -47 -55.5 -70.5t-65 -31.5t-64.5 -8l10 146q25 0 39.5 10.5t23.5 34.5t18.5 64t24.5 99l140 -35l-12 -48t-7 -34t-2 -23q0 -20 8 -35t31.5 -24.5t69 -14.5t120.5 -5q78 0 129 7.5t79.5 20.5t40.5 32t12 42
q0 18 -8 33t-23 24.5t-38 9.5q-28 0 -56.5 -15t-57.5 -41t-57 -59t-54 -70l-154 21q41 66 88 123.5t97.5 101t103.5 67.5t106 24q62 0 107.5 -27t71 -74t25.5 -109q0 -78 -41 -136t-126 -90t-217 -32zM579 -244q-30 0 -49.5 20t-19.5 49t19.5 49.5t49.5 20.5
q28 0 48.5 -20.5t20.5 -49.5t-20.5 -49t-48.5 -20zM408 -244q-30 0 -50 20t-20 49t20 49.5t49 20.5t49 -20.5t20 -49.5t-20 -49t-48 -20z" />
    <glyph glyph-name="uni069D.medi" unicode="&#x69d;" horiz-adv-x="943" 
d="M943 -5q-42 0 -82 11t-73 28.5t-54 35.5l89 102q30 -17 63 -24t66 -7q37 0 54.5 -20.5t17.5 -50.5q0 -34 -21.5 -54.5t-59.5 -20.5zM492 -17q-85 0 -142.5 8.5t-95 24t-60.5 36.5t-39 46l30 7q-24 -47 -55.5 -70.5t-65 -31.5t-64.5 -8l10 146q25 0 39.5 10.5t23.5 34.5
t18.5 64t24.5 99l140 -35l-12 -48t-7 -34t-2 -23q0 -20 8 -35t31.5 -24.5t69 -14.5t120.5 -5q78 0 129 7.5t79.5 20.5t40.5 32t12 42q0 18 -8 33t-23 24.5t-38 9.5q-28 0 -56.5 -15t-57.5 -41t-57 -59t-54 -70l-154 21q41 66 88 123.5t97.5 101t103.5 67.5t106 24
q62 0 107.5 -27t71 -74t25.5 -109q0 -78 -41 -136t-126 -90t-217 -32zM579 -244q-30 0 -49.5 20t-19.5 49t19.5 49.5t49.5 20.5q28 0 48.5 -20.5t20.5 -49.5t-20.5 -49t-48.5 -20zM408 -244q-30 0 -50 20t-20 49t20 49.5t49 20.5t49 -20.5t20 -49.5t-20 -49t-48 -20z" />
    <glyph glyph-name="uni069D.fina" unicode="&#x69d;" horiz-adv-x="1331" 
d="M1331 -5q-42 0 -82 11t-73 28.5t-54 35.5l89 102q30 -17 63 -24t66 -7q37 0 54.5 -20.5t17.5 -50.5q0 -34 -21.5 -54.5t-59.5 -20.5zM310 -232q-55 0 -105.5 15t-90.5 46.5t-63.5 81t-23.5 117.5q0 25 4 55t16 70t35 95l134 -49q-14 -36 -22 -62.5t-11 -48.5t-3 -47
q0 -40 18 -68.5t49 -43t72 -14.5q39 0 68 10t48 29t28 47.5t9 64.5q0 53 -16.5 117.5t-37.5 137.5l153 40q9 -38 16 -66.5t12.5 -47t8.5 -28.5q7 -21 20 -36.5t39.5 -26.5t74.5 -16.5t127 -5.5q56 0 97 5t70 13.5t46.5 21t25.5 27.5t8 34q0 18 -8 33t-23 25t-38 10
q-29 0 -58 -15.5t-58 -42t-56.5 -59t-52.5 -66.5l-153 21q30 48 64 94t73 86t81 70t86.5 47.5t89.5 17.5q61 0 106.5 -28t71.5 -75.5t26 -107.5q0 -58 -23.5 -106t-70 -81.5t-117 -52t-164.5 -18.5q-48 0 -100 5.5t-98.5 17.5t-80.5 31t-45 45l55 -40q-2 -64 -26.5 -115
t-66.5 -87.5t-98 -56t-122 -19.5zM964 -240q-30 0 -49.5 20t-19.5 49t19.5 49.5t49.5 20.5q28 0 48.5 -20.5t20.5 -49.5t-20.5 -49t-48.5 -20zM793 -240q-30 0 -50 20t-20 49t20 49.5t49 20.5t49 -20.5t20 -49.5t-20 -49t-48 -20z" />
    <glyph glyph-name="uni069E.init" unicode="&#x69e;" horiz-adv-x="914" 
d="M492 -17q-85 0 -142.5 8.5t-95 24t-60.5 36.5t-39 46l30 7q-24 -47 -55.5 -70.5t-65 -31.5t-64.5 -8l10 146q25 0 39.5 10.5t23.5 34.5t18.5 64t24.5 99l140 -35l-12 -48t-7 -34t-2 -23q0 -20 8 -35t31.5 -24.5t69 -14.5t120.5 -5q78 0 129 7.5t79.5 20.5t40.5 32t12 42
q0 18 -8 33t-23 24.5t-38 9.5q-28 0 -56.5 -15t-57.5 -41t-57 -59t-54 -70l-154 21q41 66 88 123.5t97.5 101t103.5 67.5t106 24q62 0 107.5 -27t71 -74t25.5 -109q0 -78 -41 -136t-126 -90t-217 -32zM644 695q-30 0 -49.5 20t-19.5 48q0 29 19.5 49t49.5 20q28 0 48 -20
t20 -49q0 -28 -20 -48t-48 -20zM562 547q-28 0 -48.5 21t-20.5 48q0 28 20.5 49t48.5 21t48 -21t20 -49t-20 -48.5t-48 -20.5zM730 547q-29 0 -48 21t-19 48q0 28 19 49t48 21q28 0 48 -21t20 -49t-20 -48.5t-48 -20.5z" />
    <glyph glyph-name="uni069E.medi" unicode="&#x69e;" horiz-adv-x="943" 
d="M943 -5q-42 0 -82 11t-73 28.5t-54 35.5l89 102q30 -17 63 -24t66 -7q37 0 54.5 -20.5t17.5 -50.5q0 -34 -21.5 -54.5t-59.5 -20.5zM492 -17q-85 0 -142.5 8.5t-95 24t-60.5 36.5t-39 46l30 7q-24 -47 -55.5 -70.5t-65 -31.5t-64.5 -8l10 146q25 0 39.5 10.5t23.5 34.5
t18.5 64t24.5 99l140 -35l-12 -48t-7 -34t-2 -23q0 -20 8 -35t31.5 -24.5t69 -14.5t120.5 -5q78 0 129 7.5t79.5 20.5t40.5 32t12 42q0 18 -8 33t-23 24.5t-38 9.5q-28 0 -56.5 -15t-57.5 -41t-57 -59t-54 -70l-154 21q41 66 88 123.5t97.5 101t103.5 67.5t106 24
q62 0 107.5 -27t71 -74t25.5 -109q0 -78 -41 -136t-126 -90t-217 -32zM644 695q-30 0 -49.5 20t-19.5 48q0 29 19.5 49t49.5 20q28 0 48 -20t20 -49q0 -28 -20 -48t-48 -20zM562 547q-28 0 -48.5 21t-20.5 48q0 28 20.5 49t48.5 21t48 -21t20 -49t-20 -48.5t-48 -20.5z
M730 547q-29 0 -48 21t-19 48q0 28 19 49t48 21q28 0 48 -21t20 -49t-20 -48.5t-48 -20.5z" />
    <glyph glyph-name="uni069E.fina" unicode="&#x69e;" horiz-adv-x="1331" 
d="M1331 -5q-42 0 -82 11t-73 28.5t-54 35.5l89 102q30 -17 63 -24t66 -7q37 0 54.5 -20.5t17.5 -50.5q0 -34 -21.5 -54.5t-59.5 -20.5zM310 -232q-55 0 -105.5 15t-90.5 46.5t-63.5 81t-23.5 117.5q0 25 4 55t16 70t35 95l134 -49q-14 -36 -22 -62.5t-11 -48.5t-3 -47
q0 -40 18 -68.5t49 -43t72 -14.5q39 0 68 10t48 29t28 47.5t9 64.5q0 53 -16.5 117.5t-37.5 137.5l153 40q9 -38 16 -66.5t12.5 -47t8.5 -28.5q7 -21 20 -36.5t39.5 -26.5t74.5 -16.5t127 -5.5q56 0 97 5t70 13.5t46.5 21t25.5 27.5t8 34q0 18 -8 33t-23 25t-38 10
q-29 0 -58 -15.5t-58 -42t-56.5 -59t-52.5 -66.5l-153 21q30 48 64 94t73 86t81 70t86.5 47.5t89.5 17.5q61 0 106.5 -28t71.5 -75.5t26 -107.5q0 -58 -23.5 -106t-70 -81.5t-117 -52t-164.5 -18.5q-48 0 -100 5.5t-98.5 17.5t-80.5 31t-45 45l55 -40q-2 -64 -26.5 -115
t-66.5 -87.5t-98 -56t-122 -19.5zM1033 699q-30 0 -49.5 20t-19.5 48q0 29 19.5 49t49.5 20q28 0 48 -20t20 -49q0 -28 -20 -48t-48 -20zM951 551q-28 0 -48.5 21t-20.5 48q0 28 20.5 49t48.5 21t48 -21t20 -49t-20 -48.5t-48 -20.5zM1119 551q-29 0 -48 21t-19 48
q0 28 19 49t48 21q28 0 48 -21t20 -49t-20 -48.5t-48 -20.5z" />
    <glyph glyph-name="uni069F.init" unicode="&#x69f;" horiz-adv-x="696" 
d="M0 -5l10 146h225q78 0 130.5 7t83.5 20t44.5 32t13.5 44q0 19 -8.5 34t-23 24t-35.5 9q-30 0 -59.5 -14.5t-59 -40t-58.5 -59.5t-58 -73l-158 14q45 70 93 129.5t98.5 103.5t104.5 68t110 24q63 0 109 -28t70.5 -75.5t24.5 -106.5q0 -74 -37.5 -129t-111.5 -87
q-29 -13 -67.5 -22t-86 -14t-103.5 -5zM107 98l-21 649h153l17 -468zM454 686q-30 0 -49.5 20t-19.5 48q0 29 19.5 49t49.5 20q28 0 48 -20t20 -49q0 -28 -20 -48t-48 -20zM372 538q-28 0 -48.5 21t-20.5 48q0 28 20.5 49t48.5 21t48 -21t20 -49t-20 -48.5t-48 -20.5z
M540 538q-29 0 -48 21t-19 48q0 28 19 49t48 21q28 0 48 -21t20 -49t-20 -48.5t-48 -20.5z" />
    <glyph glyph-name="uni069F.medi" unicode="&#x69f;" horiz-adv-x="709" 
d="M709 -5q-42 0 -82 11t-73 28.5t-54 35.5l89 102q30 -17 63 -24t66 -7q37 0 54.5 -20.5t17.5 -50.5q0 -34 -21.5 -54.5t-59.5 -20.5zM0 -5l10 146h225q78 0 130.5 7t83.5 20t44.5 32t13.5 44q0 19 -8.5 34t-23 24t-35.5 9q-30 0 -59.5 -14.5t-59 -40t-58.5 -59.5t-58 -73
l-158 14q45 70 93 129.5t98.5 103.5t104.5 68t110 24q63 0 109 -28t70.5 -75.5t24.5 -106.5q0 -74 -37.5 -129t-111.5 -87q-29 -13 -67.5 -22t-86 -14t-103.5 -5zM107 98l-21 649h153l17 -468zM454 686q-30 0 -49.5 20t-19.5 48q0 29 19.5 49t49.5 20q28 0 48 -20t20 -49
q0 -28 -20 -48t-48 -20zM372 538q-28 0 -48.5 21t-20.5 48q0 28 20.5 49t48.5 21t48 -21t20 -49t-20 -48.5t-48 -20.5zM540 538q-29 0 -48 21t-19 48q0 28 19 49t48 21q28 0 48 -21t20 -49t-20 -48.5t-48 -20.5z" />
    <glyph glyph-name="uni069F.fina" unicode="&#x69f;" horiz-adv-x="793" 
d="M793 -5q-41 0 -81.5 11t-73.5 28.5t-54 35.5l89 102q30 -17 63 -24t66 -7q37 0 54.5 -20.5t17.5 -50.5q0 -34 -21 -54.5t-60 -20.5zM364 -13q-45 0 -91.5 1t-91.5 3.5t-86.5 6t-75.5 8.5l18 148q50 -6 90.5 -10t76 -6t69 -3t68.5 -1q71 0 119.5 7t77 20t40.5 31.5
t12 40.5q0 19 -8.5 35t-24 25t-37.5 9q-26 0 -55 -15t-59.5 -41.5t-59 -59.5t-53.5 -68l-156 19q41 68 88.5 125.5t99.5 101t105.5 67.5t107.5 24q58 0 104 -26.5t73 -73.5t27 -111q0 -77 -41.5 -135t-125.5 -90t-211 -32zM191 98l-21 649h153l17 -468zM545 678
q-30 0 -49.5 20t-19.5 48q0 29 19.5 49t49.5 20q28 0 48 -20t20 -49q0 -28 -20 -48t-48 -20zM463 530q-28 0 -48.5 21t-20.5 48q0 28 20.5 49t48.5 21t48 -21t20 -49t-20 -48.5t-48 -20.5zM631 530q-29 0 -48 21t-19 48q0 28 19 49t48 21q28 0 48 -21t20 -49t-20 -48.5
t-48 -20.5z" />
    <glyph glyph-name="uni06A0.init" unicode="&#x6a0;" horiz-adv-x="507" 
d="M0 -5l10 146q28 0 47 1t36 3.5t38 5.5q-12 10 -27.5 31t-27.5 53.5t-12 76.5q0 63 30 107.5t80.5 69t110.5 24.5q26 0 50.5 -3t53.5 -11l-23 -136q-19 5 -34.5 7t-31.5 2q-24 0 -42 -9t-28.5 -26.5t-10.5 -41.5q0 -17 5.5 -33t14.5 -29t20.5 -23.5t24 -17.5t22.5 -10
q11 4 20.5 6.5t22 7t31.5 12t48 19.5l45 -128q-83 -38 -162.5 -61.5t-156.5 -33t-154 -9.5zM246 757q-30 0 -49.5 20t-19.5 48q0 29 19.5 49t49.5 20q28 0 48 -20t20 -49q0 -28 -20 -48t-48 -20zM164 609q-28 0 -48.5 21t-20.5 48q0 28 20.5 49t48.5 21t48 -21t20 -49
t-20 -48.5t-48 -20.5zM332 609q-29 0 -48 21t-19 48q0 28 19 49t48 21q28 0 48 -21t20 -49t-20 -48.5t-48 -20.5z" />
    <glyph glyph-name="uni06A0.medi" unicode="&#x6a0;" horiz-adv-x="526" 
d="M-1 -5l10 146q64 0 116 10.5t92 28t66.5 40t40.5 47t14 47.5q0 14 -7 24.5t-21.5 16t-35.5 5.5q-17 0 -35 -3.5t-34.5 -10.5t-30.5 -18q22 -22 42 -44t38.5 -44.5t36.5 -47.5q21 -12 45 -21.5t53 -16t66 -10t83 -3.5q35 0 52.5 -20.5t17.5 -51.5q0 -33 -21.5 -53.5
t-58.5 -20.5q-65 0 -123.5 9.5t-111 32t-103.5 60.5q-24 32 -46 58.5t-42.5 50t-40.5 45.5q-4 4 -9 19.5t-8.5 32t-3.5 22.5q0 26 20.5 54t55.5 52.5t79 40.5t92 16q61 0 104 -18t66 -51.5t23 -80.5q0 -54 -24.5 -105t-68.5 -94t-104 -75.5t-132 -50.5t-152 -18zM276 731
q-30 0 -49.5 20t-19.5 48q0 29 19.5 49t49.5 20q28 0 48 -20t20 -49q0 -28 -20 -48t-48 -20zM194 583q-28 0 -48.5 21t-20.5 48q0 28 20.5 49t48.5 21t48 -21t20 -49t-20 -48.5t-48 -20.5zM362 583q-29 0 -48 21t-19 48q0 28 19 49t48 21q28 0 48 -21t20 -49t-20 -48.5
t-48 -20.5z" />
    <glyph glyph-name="uni06A0.fina" unicode="&#x6a0;" horiz-adv-x="541" 
d="M311 -392q-64 0 -119 15.5t-95.5 46t-63 75.5t-22.5 104q0 62 24.5 111t63.5 89t83 73t83 63.5t65 61t27 65.5q1 14 -7 25t-22.5 17t-35.5 6q-17 0 -34.5 -3.5t-34.5 -10.5t-31 -18q22 -21 43 -43.5t42 -46.5t43 -54q22 -14 51 -22.5t60 -12.5t62 -6t57 -2q36 0 54 -21
t18 -50q0 -34 -22 -54.5t-59 -20.5q-63 0 -122 9t-114 33t-106 69q-19 28 -40 53.5t-41 48t-38 42.5q-3 5 -8.5 20.5t-9 32t-3.5 22.5q0 25 19.5 53t54.5 53t79.5 41t94.5 16q90 0 140 -41t51 -112q1 -58 -23 -104.5t-61.5 -84.5t-80.5 -71t-81 -65.5t-62 -68t-24 -77.5
q0 -31 13 -52t34 -33.5t47.5 -18t52.5 -5.5t54.5 4t60.5 13.5t64 24.5l47 -127q-34 -20 -74 -34t-79.5 -21t-74.5 -7zM295 732q-30 0 -49.5 20t-19.5 48q0 29 19.5 49t49.5 20q28 0 48 -20t20 -49q0 -28 -20 -48t-48 -20zM213 584q-28 0 -48.5 21t-20.5 48q0 28 20.5 49
t48.5 21t48 -21t20 -49t-20 -48.5t-48 -20.5zM381 584q-29 0 -48 21t-19 48q0 28 19 49t48 21q28 0 48 -21t20 -49t-20 -48.5t-48 -20.5z" />
    <glyph glyph-name="uni06A1.init" unicode="&#x6a1;" horiz-adv-x="473" 
d="M0 -5l10 146q39 0 73.5 0.5t64 2.5t53 6t38.5 12q20 9 31.5 26.5t16.5 44.5t5 65q0 52 -7 86.5t-19.5 51t-29.5 16.5q-14 0 -25 -10.5t-17 -29t-6 -43.5q0 -17 6.5 -28.5t18.5 -17t28 -5.5q17 0 36 5t40 16l4 -107q-16 -12 -35 -21t-40.5 -14t-45.5 -5q-44 0 -79 18
t-54.5 52.5t-19.5 84.5q0 44 13.5 85.5t40 74.5t62 52.5t79.5 19.5q60 0 103 -36.5t66.5 -102t23.5 -154.5q0 -84 -24.5 -143.5t-76.5 -92.5q-28 -18 -63.5 -29t-77.5 -16.5t-90.5 -7.5t-102.5 -2z" />
    <glyph glyph-name="uni06A1.medi" unicode="&#x6a1;" horiz-adv-x="475" 
d="M0 -5l10 146q22 0 49 1.5t54.5 4.5t52.5 8.5t43 12.5q29 11 48 27.5t28 37t9 44.5q0 19 -6.5 36t-17.5 27.5t-24 10.5q-12 0 -24 -10t-19.5 -27t-7.5 -41q0 -19 7 -37.5t22.5 -36t39.5 -32.5l-130 -54q-24 24 -43 49.5t-29 55t-10 65.5q0 42 16 78.5t44 64.5t63.5 43.5
t73.5 15.5q55 0 97.5 -28.5t66.5 -72.5t24 -93t-15.5 -88t-42.5 -68.5t-59 -52t-65 -39.5q-24 -13 -57 -22t-69 -15t-69.5 -8.5t-59.5 -2.5zM476 -5q-45 0 -95 7t-95.5 19.5t-77.5 29.5l68 114q30 -11 67.5 -16t75.5 -6.5t67 -1.5q36 0 53.5 -20.5t17.5 -50.5
q0 -32 -21.5 -53.5t-59.5 -21.5z" />
    <glyph glyph-name="uni06A1.fina" unicode="&#x6a1;" horiz-adv-x="1029" 
d="M393 -21l26 146q49 0 99.5 3.5t97 9.5t83.5 13.5t58 15.5q34 13 53.5 30.5t28 37.5t8.5 40q0 13 -3 26t-10 24.5t-15.5 18.5t-19.5 7q-12 0 -24.5 -10.5t-20 -29t-7.5 -41.5q0 -17 7 -34.5t22.5 -35t38.5 -33.5l-132 -54q-22 24 -40 49t-29 53.5t-11 63.5q0 42 16.5 79.5
t45 66t64 44.5t73.5 16q56 0 98 -29t66.5 -74.5t24.5 -95.5q0 -46 -16.5 -84t-43.5 -67.5t-59.5 -52t-64.5 -38.5q-28 -14 -76 -26t-106 -21t-118.5 -13.5t-113.5 -4.5zM1029 -5q-48 0 -98 6.5t-94.5 19t-75.5 29.5l68 115q28 -9 65 -14.5t74.5 -7.5t69.5 -2
q37 0 54.5 -20.5t17.5 -50.5q0 -32 -21.5 -53.5t-59.5 -21.5zM393 -21q-101 0 -170 17.5t-111 49.5t-60.5 74t-18.5 91q0 34 6.5 69.5t16 68t17.5 57.5l128 -33q-4 -19 -9.5 -40t-9 -42t-3.5 -41q0 -36 19.5 -64t71.5 -44.5t149 -16.5l20 -114z" />
    <glyph glyph-name="fehDotMovedbelowar.init" unicode="&#x6a2;" horiz-adv-x="473" 
d="M0 -5l10 146q39 0 73.5 0.5t64 2.5t53 6t38.5 12q20 9 31.5 26.5t16.5 44.5t5 65q0 52 -7 86.5t-19.5 51t-29.5 16.5q-14 0 -25 -10.5t-17 -29t-6 -43.5q0 -17 6.5 -28.5t18.5 -17t28 -5.5q17 0 36 5t40 16l4 -107q-16 -12 -35 -21t-40.5 -14t-45.5 -5q-44 0 -79 18
t-54.5 52.5t-19.5 84.5q0 44 13.5 85.5t40 74.5t62 52.5t79.5 19.5q60 0 103 -36.5t66.5 -102t23.5 -154.5q0 -84 -24.5 -143.5t-76.5 -92.5q-28 -18 -63.5 -29t-77.5 -16.5t-90.5 -7.5t-102.5 -2zM193 -255q-31 0 -52 20.5t-21 50.5t20.5 52t52.5 22q29 0 50 -22t21 -52
t-21 -50.5t-50 -20.5z" />
    <glyph glyph-name="fehDotMovedbelowar.medi" unicode="&#x6a2;" horiz-adv-x="475" 
d="M0 -5l10 146q22 0 49 1.5t54.5 4.5t52.5 8.5t43 12.5q29 11 48 27.5t28 37t9 44.5q0 19 -6.5 36t-17.5 27.5t-24 10.5q-12 0 -24 -10t-19.5 -27t-7.5 -41q0 -19 7 -37.5t22.5 -36t39.5 -32.5l-130 -54q-24 24 -43 49.5t-29 55t-10 65.5q0 42 16 78.5t44 64.5t63.5 43.5
t73.5 15.5q55 0 97.5 -28.5t66.5 -72.5t24 -93t-15.5 -88t-42.5 -68.5t-59 -52t-65 -39.5q-24 -13 -57 -22t-69 -15t-69.5 -8.5t-59.5 -2.5zM476 -5q-45 0 -95 7t-95.5 19.5t-77.5 29.5l68 114q30 -11 67.5 -16t75.5 -6.5t67 -1.5q36 0 53.5 -20.5t17.5 -50.5
q0 -32 -21.5 -53.5t-59.5 -21.5zM242 -255q-31 0 -52 20.5t-21 50.5t20.5 52t52.5 22q29 0 50 -22t21 -52t-21 -50.5t-50 -20.5z" />
    <glyph glyph-name="fehDotMovedbelowar.fina" unicode="&#x6a2;" horiz-adv-x="1029" 
d="M393 -21l26 146q49 0 99.5 3.5t97 9.5t83.5 13.5t58 15.5q34 13 53.5 30.5t28 37.5t8.5 40q0 13 -3 26t-10 24.5t-15.5 18.5t-19.5 7q-12 0 -24.5 -10.5t-20 -29t-7.5 -41.5q0 -17 7 -34.5t22.5 -35t38.5 -33.5l-132 -54q-22 24 -40 49t-29 53.5t-11 63.5q0 42 16.5 79.5
t45 66t64 44.5t73.5 16q56 0 98 -29t66.5 -74.5t24.5 -95.5q0 -46 -16.5 -84t-43.5 -67.5t-59.5 -52t-64.5 -38.5q-28 -14 -76 -26t-106 -21t-118.5 -13.5t-113.5 -4.5zM1029 -5q-48 0 -98 6.5t-94.5 19t-75.5 29.5l68 115q28 -9 65 -14.5t74.5 -7.5t69.5 -2
q37 0 54.5 -20.5t17.5 -50.5q0 -32 -21.5 -53.5t-59.5 -21.5zM393 -21q-101 0 -170 17.5t-111 49.5t-60.5 74t-18.5 91q0 34 6.5 69.5t16 68t17.5 57.5l128 -33q-4 -19 -9.5 -40t-9 -42t-3.5 -41q0 -36 19.5 -64t71.5 -44.5t149 -16.5l20 -114zM462 -255q-31 0 -52 20.5
t-21 50.5t20.5 52t52.5 22q29 0 50 -22t21 -52t-21 -50.5t-50 -20.5z" />
    <glyph glyph-name="uni06A3.init" unicode="&#x6a3;" horiz-adv-x="473" 
d="M0 -5l10 146q39 0 73.5 0.5t64 2.5t53 6t38.5 12q20 9 31.5 26.5t16.5 44.5t5 65q0 52 -7 86.5t-19.5 51t-29.5 16.5q-14 0 -25 -10.5t-17 -29t-6 -43.5q0 -17 6.5 -28.5t18.5 -17t28 -5.5q17 0 36 5t40 16l4 -107q-16 -12 -35 -21t-40.5 -14t-45.5 -5q-44 0 -79 18
t-54.5 52.5t-19.5 84.5q0 44 13.5 85.5t40 74.5t62 52.5t79.5 19.5q60 0 103 -36.5t66.5 -102t23.5 -154.5q0 -84 -24.5 -143.5t-76.5 -92.5q-28 -18 -63.5 -29t-77.5 -16.5t-90.5 -7.5t-102.5 -2zM233 675q-31 0 -52 21.5t-21 51.5q0 31 21 53t52 22q30 0 51 -22t21 -53
q0 -30 -21 -51.5t-51 -21.5zM193 -255q-31 0 -52 20.5t-21 50.5t20.5 52t52.5 22q29 0 50 -22t21 -52t-21 -50.5t-50 -20.5z" />
    <glyph glyph-name="uni06A3.medi" unicode="&#x6a3;" horiz-adv-x="475" 
d="M0 -5l10 146q22 0 49 1.5t54.5 4.5t52.5 8.5t43 12.5q29 11 48 27.5t28 37t9 44.5q0 19 -6.5 36t-17.5 27.5t-24 10.5q-12 0 -24 -10t-19.5 -27t-7.5 -41q0 -19 7 -37.5t22.5 -36t39.5 -32.5l-130 -54q-24 24 -43 49.5t-29 55t-10 65.5q0 42 16 78.5t44 64.5t63.5 43.5
t73.5 15.5q55 0 97.5 -28.5t66.5 -72.5t24 -93t-15.5 -88t-42.5 -68.5t-59 -52t-65 -39.5q-24 -13 -57 -22t-69 -15t-69.5 -8.5t-59.5 -2.5zM476 -5q-45 0 -95 7t-95.5 19.5t-77.5 29.5l68 114q30 -11 67.5 -16t75.5 -6.5t67 -1.5q36 0 53.5 -20.5t17.5 -50.5
q0 -32 -21.5 -53.5t-59.5 -21.5zM250 581q-31 0 -52 21.5t-21 51.5q0 31 21 53t52 22q30 0 51 -22t21 -53q0 -30 -21 -51.5t-51 -21.5zM242 -255q-31 0 -52 20.5t-21 50.5t20.5 52t52.5 22q29 0 50 -22t21 -52t-21 -50.5t-50 -20.5z" />
    <glyph glyph-name="uni06A3.fina" unicode="&#x6a3;" horiz-adv-x="1029" 
d="M393 -21l26 146q49 0 99.5 3.5t97 9.5t83.5 13.5t58 15.5q34 13 53.5 30.5t28 37.5t8.5 40q0 13 -3 26t-10 24.5t-15.5 18.5t-19.5 7q-12 0 -24.5 -10.5t-20 -29t-7.5 -41.5q0 -17 7 -34.5t22.5 -35t38.5 -33.5l-132 -54q-22 24 -40 49t-29 53.5t-11 63.5q0 42 16.5 79.5
t45 66t64 44.5t73.5 16q56 0 98 -29t66.5 -74.5t24.5 -95.5q0 -46 -16.5 -84t-43.5 -67.5t-59.5 -52t-64.5 -38.5q-28 -14 -76 -26t-106 -21t-118.5 -13.5t-113.5 -4.5zM1029 -5q-48 0 -98 6.5t-94.5 19t-75.5 29.5l68 115q28 -9 65 -14.5t74.5 -7.5t69.5 -2
q37 0 54.5 -20.5t17.5 -50.5q0 -32 -21.5 -53.5t-59.5 -21.5zM393 -21q-101 0 -170 17.5t-111 49.5t-60.5 74t-18.5 91q0 34 6.5 69.5t16 68t17.5 57.5l128 -33q-4 -19 -9.5 -40t-9 -42t-3.5 -41q0 -36 19.5 -64t71.5 -44.5t149 -16.5l20 -114zM802 581q-31 0 -52 21.5
t-21 51.5q0 31 21 53t52 22q30 0 51 -22t21 -53q0 -30 -21 -51.5t-51 -21.5zM462 -255q-31 0 -52 20.5t-21 50.5t20.5 52t52.5 22q29 0 50 -22t21 -52t-21 -50.5t-50 -20.5z" />
    <glyph glyph-name="uni06A5.init" unicode="&#x6a5;" horiz-adv-x="473" 
d="M0 -5l10 146q39 0 73.5 0.5t64 2.5t53 6t38.5 12q20 9 31.5 26.5t16.5 44.5t5 65q0 52 -7 86.5t-19.5 51t-29.5 16.5q-14 0 -25 -10.5t-17 -29t-6 -43.5q0 -17 6.5 -28.5t18.5 -17t28 -5.5q17 0 36 5t40 16l4 -107q-16 -12 -35 -21t-40.5 -14t-45.5 -5q-44 0 -79 18
t-54.5 52.5t-19.5 84.5q0 44 13.5 85.5t40 74.5t62 52.5t79.5 19.5q60 0 103 -36.5t66.5 -102t23.5 -154.5q0 -84 -24.5 -143.5t-76.5 -92.5q-28 -18 -63.5 -29t-77.5 -16.5t-90.5 -7.5t-102.5 -2zM193 -392q-28 0 -47.5 19t-19.5 47t19.5 48.5t47.5 20.5q27 0 46.5 -20.5
t19.5 -48.5t-19.5 -47t-46.5 -19zM110 -245q-28 0 -47.5 19t-19.5 47t19 48t48 20q27 0 46.5 -20.5t19.5 -47.5q0 -28 -19.5 -47t-46.5 -19zM280 -245q-28 0 -47.5 19t-19.5 47t19.5 48t47.5 20t47 -20.5t19 -47.5q0 -28 -19 -47t-47 -19z" />
    <glyph glyph-name="uni06A5.medi" unicode="&#x6a5;" horiz-adv-x="475" 
d="M0 -5l10 146q22 0 49 1.5t54.5 4.5t52.5 8.5t43 12.5q29 11 48 27.5t28 37t9 44.5q0 19 -6.5 36t-17.5 27.5t-24 10.5q-12 0 -24 -10t-19.5 -27t-7.5 -41q0 -19 7 -37.5t22.5 -36t39.5 -32.5l-130 -54q-24 24 -43 49.5t-29 55t-10 65.5q0 42 16 78.5t44 64.5t63.5 43.5
t73.5 15.5q55 0 97.5 -28.5t66.5 -72.5t24 -93t-15.5 -88t-42.5 -68.5t-59 -52t-65 -39.5q-24 -13 -57 -22t-69 -15t-69.5 -8.5t-59.5 -2.5zM476 -5q-45 0 -95 7t-95.5 19.5t-77.5 29.5l68 114q30 -11 67.5 -16t75.5 -6.5t67 -1.5q36 0 53.5 -20.5t17.5 -50.5
q0 -32 -21.5 -53.5t-59.5 -21.5zM243 -393q-28 0 -47.5 19t-19.5 47t19.5 48.5t47.5 20.5q27 0 46.5 -20.5t19.5 -48.5t-19.5 -47t-46.5 -19zM160 -246q-28 0 -47.5 19t-19.5 47t19 48t48 20q27 0 46.5 -20.5t19.5 -47.5q0 -28 -19.5 -47t-46.5 -19zM330 -246
q-28 0 -47.5 19t-19.5 47t19.5 48t47.5 20t47 -20.5t19 -47.5q0 -28 -19 -47t-47 -19z" />
    <glyph glyph-name="uni06A5.fina" unicode="&#x6a5;" horiz-adv-x="1029" 
d="M393 -21l26 146q49 0 99.5 3.5t97 9.5t83.5 13.5t58 15.5q34 13 53.5 30.5t28 37.5t8.5 40q0 13 -3 26t-10 24.5t-15.5 18.5t-19.5 7q-12 0 -24.5 -10.5t-20 -29t-7.5 -41.5q0 -17 7 -34.5t22.5 -35t38.5 -33.5l-132 -54q-22 24 -40 49t-29 53.5t-11 63.5q0 42 16.5 79.5
t45 66t64 44.5t73.5 16q56 0 98 -29t66.5 -74.5t24.5 -95.5q0 -46 -16.5 -84t-43.5 -67.5t-59.5 -52t-64.5 -38.5q-28 -14 -76 -26t-106 -21t-118.5 -13.5t-113.5 -4.5zM1029 -5q-48 0 -98 6.5t-94.5 19t-75.5 29.5l68 115q28 -9 65 -14.5t74.5 -7.5t69.5 -2
q37 0 54.5 -20.5t17.5 -50.5q0 -32 -21.5 -53.5t-59.5 -21.5zM393 -21q-101 0 -170 17.5t-111 49.5t-60.5 74t-18.5 91q0 34 6.5 69.5t16 68t17.5 57.5l128 -33q-4 -19 -9.5 -40t-9 -42t-3.5 -41q0 -36 19.5 -64t71.5 -44.5t149 -16.5l20 -114zM463 -392q-28 0 -47.5 19
t-19.5 47t19.5 48.5t47.5 20.5q27 0 46.5 -20.5t19.5 -48.5t-19.5 -47t-46.5 -19zM380 -245q-28 0 -47.5 19t-19.5 47t19 48t48 20q27 0 46.5 -20.5t19.5 -47.5q0 -28 -19.5 -47t-46.5 -19zM550 -245q-28 0 -47.5 19t-19.5 47t19.5 48t47.5 20t47 -20.5t19 -47.5
q0 -28 -19 -47t-47 -19z" />
    <glyph glyph-name="uni06A7.fina" unicode="&#x6a7;" horiz-adv-x="793" 
d="M333 -272q-60 0 -115.5 14.5t-98.5 46t-68.5 80.5t-25.5 118q0 25 4 55.5t16 71.5t36 97l134 -50q-14 -38 -22.5 -62.5t-11.5 -44.5t-3 -42q0 -42 21 -73t61 -48t96 -17q35 0 66 6.5t57.5 17t47.5 25.5t36 33t22 38q10 25 14 58t4 77q0 46 -6.5 78t-18.5 47.5t-30 15.5
q-11 0 -20 -7t-15 -18t-9 -24t-3 -25q0 -19 5.5 -32.5t24 -21t55 -8t99.5 6.5l118 1q36 0 53.5 -21t17.5 -51q0 -33 -20.5 -54t-60.5 -21h-179q-55 0 -101.5 8.5t-81 28t-53.5 52t-19 81.5q0 45 14 87t40.5 74.5t63 51.5t80.5 19q57 0 100 -35.5t67 -99t24 -149.5
q0 -56 -15 -107.5t-36 -89.5q-25 -46 -62 -81t-84 -59t-102 -36t-116 -12zM557 493q-31 0 -52 21.5t-21 51.5q0 31 21 53t52 22q30 0 51 -22t21 -53q0 -30 -21 -51.5t-51 -21.5z" />
    <glyph glyph-name="uni06A8.init" unicode="&#x6a8;" horiz-adv-x="473" 
d="M0 -5l10 146q39 0 73.5 0.5t64 2.5t53 6t38.5 12q20 9 31.5 26.5t16.5 44.5t5 65q0 52 -7 86.5t-19.5 51t-29.5 16.5q-14 0 -25 -10.5t-17 -29t-6 -43.5q0 -17 6.5 -28.5t18.5 -17t28 -5.5q17 0 36 5t40 16l4 -107q-16 -12 -35 -21t-40.5 -14t-45.5 -5q-44 0 -79 18
t-54.5 52.5t-19.5 84.5q0 44 13.5 85.5t40 74.5t62 52.5t79.5 19.5q60 0 103 -36.5t66.5 -102t23.5 -154.5q0 -84 -24.5 -143.5t-76.5 -92.5q-28 -18 -63.5 -29t-77.5 -16.5t-90.5 -7.5t-102.5 -2zM234 822q-30 0 -49.5 20t-19.5 48q0 29 19.5 49t49.5 20q28 0 48 -20
t20 -49q0 -28 -20 -48t-48 -20zM152 674q-28 0 -48.5 21t-20.5 48q0 28 20.5 49t48.5 21t48 -21t20 -49t-20 -48.5t-48 -20.5zM320 674q-29 0 -48 21t-19 48q0 28 19 49t48 21q28 0 48 -21t20 -49t-20 -48.5t-48 -20.5z" />
    <glyph glyph-name="uni06A8.medi" unicode="&#x6a8;" horiz-adv-x="475" 
d="M0 -5l10 146q22 0 49 1.5t54.5 4.5t52.5 8.5t43 12.5q29 11 48 27.5t28 37t9 44.5q0 19 -6.5 36t-17.5 27.5t-24 10.5q-12 0 -24 -10t-19.5 -27t-7.5 -41q0 -19 7 -37.5t22.5 -36t39.5 -32.5l-130 -54q-24 24 -43 49.5t-29 55t-10 65.5q0 42 16 78.5t44 64.5t63.5 43.5
t73.5 15.5q55 0 97.5 -28.5t66.5 -72.5t24 -93t-15.5 -88t-42.5 -68.5t-59 -52t-65 -39.5q-24 -13 -57 -22t-69 -15t-69.5 -8.5t-59.5 -2.5zM476 -5q-45 0 -95 7t-95.5 19.5t-77.5 29.5l68 114q30 -11 67.5 -16t75.5 -6.5t67 -1.5q36 0 53.5 -20.5t17.5 -50.5
q0 -32 -21.5 -53.5t-59.5 -21.5zM251 729q-30 0 -49.5 20t-19.5 48q0 29 19.5 49t49.5 20q28 0 48 -20t20 -49q0 -28 -20 -48t-48 -20zM169 581q-28 0 -48.5 21t-20.5 48q0 28 20.5 49t48.5 21t48 -21t20 -49t-20 -48.5t-48 -20.5zM337 581q-29 0 -48 21t-19 48q0 28 19 49
t48 21q28 0 48 -21t20 -49t-20 -48.5t-48 -20.5z" />
    <glyph glyph-name="uni06A8.fina" unicode="&#x6a8;" horiz-adv-x="793" 
d="M333 -272q-60 0 -115.5 14.5t-98.5 46t-68.5 80.5t-25.5 118q0 25 4 55.5t16 71.5t36 97l134 -50q-14 -38 -22.5 -62.5t-11.5 -44.5t-3 -42q0 -42 21 -73t61 -48t96 -17q35 0 66 6.5t57.5 17t47.5 25.5t36 33t22 38q10 25 14 58t4 77q0 46 -6.5 78t-18.5 47.5t-30 15.5
q-11 0 -20 -7t-15 -18t-9 -24t-3 -25q0 -19 5.5 -32.5t24 -21t55 -8t99.5 6.5l118 1q36 0 53.5 -21t17.5 -51q0 -33 -20.5 -54t-60.5 -21h-179q-55 0 -101.5 8.5t-81 28t-53.5 52t-19 81.5q0 45 14 87t40.5 74.5t63 51.5t80.5 19q57 0 100 -35.5t67 -99t24 -149.5
q0 -56 -15 -107.5t-36 -89.5q-25 -46 -62 -81t-84 -59t-102 -36t-116 -12zM558 641q-30 0 -49.5 20t-19.5 48q0 29 19.5 49t49.5 20q28 0 48 -20t20 -49q0 -28 -20 -48t-48 -20zM476 493q-28 0 -48.5 21t-20.5 48q0 28 20.5 49t48.5 21t48 -21t20 -49t-20 -48.5t-48 -20.5z
M644 493q-29 0 -48 21t-19 48q0 28 19 49t48 21q28 0 48 -21t20 -49t-20 -48.5t-48 -20.5z" />
    <glyph glyph-name="uni06AA.init" unicode="&#x6aa;" horiz-adv-x="786" 
d="M0 -5l10 146h296q86 0 143.5 1t92 4t50 10t15.5 20q0 10 -8.5 17.5t-29 14t-57 12.5t-91.5 13q-108 13 -171.5 32t-90.5 48t-27 73q0 53 29 94.5t78.5 73t114.5 54.5t136 39l31 -130q-72 -16 -126 -34t-83.5 -36t-29.5 -34q0 -11 14 -18.5t51.5 -14.5t107.5 -16
q82 -11 137.5 -26.5t89 -39t48 -55.5t14.5 -74q0 -50 -24.5 -83.5t-77 -53t-135.5 -28t-201 -8.5z" />
    <glyph glyph-name="uni06AA.medi" unicode="&#x6aa;" horiz-adv-x="830" 
d="M830 -5q-42 0 -82.5 11t-73 28.5t-53.5 35.5l89 102q30 -17 62.5 -24t66.5 -7q37 0 54.5 -20.5t17.5 -50.5q0 -34 -21.5 -54.5t-59.5 -20.5zM0 -5l10 146h296q86 0 143.5 1t92 4t50 10t15.5 20q0 10 -8.5 17.5t-29 14t-57 12.5t-91.5 13q-108 13 -171.5 32t-90.5 48
t-27 73q0 53 29 94.5t78.5 73t114.5 54.5t136 39l31 -130q-72 -16 -126 -34t-83.5 -36t-29.5 -34q0 -11 14 -18.5t51.5 -14.5t107.5 -16q82 -11 137.5 -26.5t89 -39t48 -55.5t14.5 -74q0 -50 -24.5 -83.5t-77 -53t-135.5 -28t-201 -8.5z" />
    <glyph glyph-name="uni06AA.fina" unicode="&#x6aa;" horiz-adv-x="1021" 
d="M1021 -5q-42 0 -82.5 11t-73 28.5t-53.5 35.5l89 102q30 -17 63 -24t66 -7q37 0 54.5 -20.5t17.5 -50.5q0 -34 -21.5 -54.5t-59.5 -20.5zM497 -15q-37 0 -93.5 1t-121 3t-126.5 6t-109 9l6 140q50 -3 106 -6t114 -5.5t115 -4t109 -1.5q86 0 143.5 2t92 7.5t50 14
t15.5 21.5q0 11 -8.5 19t-28.5 15t-56.5 13.5t-92.5 13.5q-109 13 -172.5 31.5t-90 48t-26.5 74.5q0 53 29 94.5t79 72.5t114.5 54t135.5 39l31 -130q-72 -16 -126 -34.5t-84 -36t-30 -33.5q0 -11 14 -18.5t51.5 -14.5t107.5 -16q82 -11 138 -26.5t89 -39t48 -55.5t15 -74
q0 -50 -24.5 -85t-77 -57t-136 -32t-200.5 -10z" />
    <glyph glyph-name="uni06AB.init" unicode="&#x6ab;" horiz-adv-x="419" 
d="M322 428q-38 0 -64.5 26.5t-26.5 63.5q0 38 26.5 64.5t64.5 26.5t64 -26.5t26 -64.5q0 -37 -26 -63.5t-64 -26.5zM322 489q13 0 22 8.5t9 20.5q0 14 -9 22.5t-22 8.5t-22.5 -9t-9.5 -22q0 -12 9.5 -20.5t22.5 -8.5zM0 -5l10 146h109q20 0 33.5 4t21.5 11.5t11.5 17
t3.5 19.5q0 29 -20 61t-49 65q-19 22 -36 40t-30 33t-21 26.5t-8 19.5q0 14 2.5 34.5t7 39t11.5 25.5q16 17 44 38t67 45.5t89 52.5t111 59l69 -124q-56 -28 -101 -52t-80 -45t-62 -40t-47 -37l6 78q52 -49 91 -94t65 -85t39 -78t13 -74q0 -31 -12 -63.5t-40 -60.5t-76 -45
t-119 -17h-103z" />
    <glyph glyph-name="uni06AB.medi" unicode="&#x6ab;" horiz-adv-x="456" 
d="M322 427q-38 0 -64.5 26.5t-26.5 64.5t26.5 64.5t64.5 26.5t64 -26.5t26 -64.5t-26 -64.5t-64 -26.5zM322 489q13 0 22 8t9 21q0 14 -9 22t-22 8t-22.5 -8.5t-9.5 -21.5t9.5 -21t22.5 -8zM0 -5l10 146h106q28 0 44 6.5t22 18t6 26.5q0 18 -12 41.5t-30.5 48t-39.5 49
t-39.5 45.5t-30.5 37.5t-12 23.5q0 19 2.5 39.5t7.5 37t12 23.5q17 18 46 39.5t68.5 46t88.5 52t107 56.5l70 -123q-59 -29 -104 -54t-79.5 -45.5t-61 -39t-46.5 -36.5l4 81q26 -29 53.5 -60t53.5 -65t50 -73.5t45 -84.5q18 -41 36.5 -60t40 -24.5t48.5 -5.5q37 0 54 -20.5
t17 -50.5q0 -32 -21 -53.5t-60 -21.5q-44 0 -80 11.5t-61.5 38t-38.5 72.5l52 -2q-14 -30 -33.5 -52.5t-47 -37.5t-64 -22.5t-82.5 -7.5h-101z" />
    <glyph glyph-name="uni06AB.fina" unicode="&#x6ab;" horiz-adv-x="899" 
d="M760 427q-39 0 -65 26.5t-26 64.5t26 64.5t65 26.5q38 0 64 -26.5t26 -64.5t-26 -64.5t-64 -26.5zM759 489q13 0 22.5 8t9.5 21q0 14 -9.5 22t-22.5 8q-12 0 -21.5 -8.5t-9.5 -21.5t9.5 -21t21.5 -8zM393 -21l26 146q51 0 89 3t64 10.5t39 21t13 35.5q0 17 -11.5 39
t-30 46.5t-39.5 48.5t-40 45.5t-30.5 37.5t-11.5 24q0 19 2.5 39t7 36.5t11.5 23.5q23 25 65.5 55t104 65.5t140.5 75.5l69 -123q-70 -37 -124.5 -67t-95 -56.5t-69.5 -51.5l4 81q29 -30 56.5 -61.5t54 -66t50 -73t43.5 -83.5q13 -29 27 -46.5t30 -27t33.5 -12.5t38.5 -3
q36 0 53.5 -21t17.5 -50q0 -33 -21 -54t-59 -21q-41 0 -77.5 11.5t-63.5 37.5t-39 72l43 3q-17 -44 -49.5 -71.5t-79 -42.5t-107 -20.5t-134.5 -5.5zM393 -21q-101 0 -170 17.5t-111 49.5t-60.5 74t-18.5 91q0 34 6.5 69.5t16 68t17.5 57.5l128 -33q-4 -19 -9.5 -40t-9 -42
t-3.5 -41q0 -36 19.5 -64t71.5 -44.5t149 -16.5l20 -114z" />
    <glyph glyph-name="uni06AC.init" unicode="&#x6ac;" horiz-adv-x="419" 
d="M0 -5l10 146h109q20 0 33.5 4t21.5 11.5t11.5 17t3.5 19.5q0 29 -20 61t-49 65q-19 22 -36 40t-30 33t-21 26.5t-8 19.5q0 14 2.5 34.5t7 39t11.5 25.5q16 17 44 38t67 45.5t89 52.5t111 59l69 -124q-56 -28 -101 -52t-80 -45t-62 -40t-47 -37l6 78q52 -49 91 -94t65 -85
t39 -78t13 -74q0 -31 -12 -63.5t-40 -60.5t-76 -45t-119 -17h-103zM154 734q-31 0 -52 21.5t-21 51.5q0 31 21 53t52 22q30 0 51 -22t21 -53q0 -30 -21 -51.5t-51 -21.5z" />
    <glyph glyph-name="uni06AC.medi" unicode="&#x6ac;" horiz-adv-x="456" 
d="M0 -5l10 146h106q28 0 44 6.5t22 18t6 26.5q0 18 -12 41.5t-30.5 48t-39.5 49t-39.5 45.5t-30.5 37.5t-12 23.5q0 19 2.5 39.5t7.5 37t12 23.5q17 18 46 39.5t68.5 46t88.5 52t107 56.5l70 -123q-59 -29 -104 -54t-79.5 -45.5t-61 -39t-46.5 -36.5l4 81q26 -29 53.5 -60
t53.5 -65t50 -73.5t45 -84.5q18 -41 36.5 -60t40 -24.5t48.5 -5.5q37 0 54 -20.5t17 -50.5q0 -32 -21 -53.5t-60 -21.5q-44 0 -80 11.5t-61.5 38t-38.5 72.5l52 -2q-14 -30 -33.5 -52.5t-47 -37.5t-64 -22.5t-82.5 -7.5h-101zM159 733q-31 0 -52 21.5t-21 51.5q0 31 21 53
t52 22q30 0 51 -22t21 -53q0 -30 -21 -51.5t-51 -21.5z" />
    <glyph glyph-name="uni06AC.fina" unicode="&#x6ac;" horiz-adv-x="933" 
d="M393 -21l26 146q88 -1 144 6t86.5 27.5t40.5 59t7 100.5l-23 429h150l22 -441q3 -67 14 -102.5t31 -49t52 -13.5q36 0 53.5 -20.5t17.5 -49.5q0 -33 -21.5 -54.5t-59.5 -21.5q-37 0 -72 12.5t-60 42t-33 78.5h53q-24 -51 -67 -81.5t-99.5 -45.5t-123 -19t-138.5 -3z
M355 222l-28 104q36 8 59.5 15t34.5 14.5t11 16.5q0 8 -9.5 19t-21.5 24.5t-21.5 30t-9.5 36.5q0 28 14.5 51.5t46 44.5t81.5 41l46 -94q-40 -16 -56.5 -29t-16.5 -26q0 -10 9.5 -22.5t22 -27t22 -31.5t9.5 -37q0 -17 -6 -34.5t-25.5 -34.5t-58 -32t-103.5 -29zM393 -21
q-101 0 -170 17.5t-111 49.5t-60.5 74t-18.5 91q0 34 6.5 69.5t16 68t17.5 57.5l128 -33q-4 -19 -9.5 -40t-9 -42t-3.5 -41q0 -36 19.5 -64t71.5 -44.5t149 -16.5l20 -114zM463 664q-31 0 -52 21.5t-21 51.5q0 31 21 53t52 22q30 0 51 -22t21 -53q0 -30 -21 -51.5t-51 -21.5
z" />
    <glyph glyph-name="uni06AE.init" unicode="&#x6ae;" horiz-adv-x="419" 
d="M0 -5l10 146h109q20 0 33.5 4t21.5 11.5t11.5 17t3.5 19.5q0 29 -20 61t-49 65q-19 22 -36 40t-30 33t-21 26.5t-8 19.5q0 14 2.5 34.5t7 39t11.5 25.5q16 17 44 38t67 45.5t89 52.5t111 59l69 -124q-56 -28 -101 -52t-80 -45t-62 -40t-47 -37l6 78q52 -49 91 -94t65 -85
t39 -78t13 -74q0 -31 -12 -63.5t-40 -60.5t-76 -45t-119 -17h-103zM188 -371q-28 0 -47.5 19t-19.5 47t19.5 48.5t47.5 20.5q27 0 46.5 -20.5t19.5 -48.5t-19.5 -47t-46.5 -19zM105 -224q-28 0 -47.5 19t-19.5 47t19 48t48 20q27 0 46.5 -20.5t19.5 -47.5q0 -28 -19.5 -47
t-46.5 -19zM275 -224q-28 0 -47.5 19t-19.5 47t19.5 48t47.5 20t47 -20.5t19 -47.5q0 -28 -19 -47t-47 -19z" />
    <glyph glyph-name="uni06AE.medi" unicode="&#x6ae;" horiz-adv-x="456" 
d="M0 -5l10 146h106q28 0 44 6.5t22 18t6 26.5q0 18 -12 41.5t-30.5 48t-39.5 49t-39.5 45.5t-30.5 37.5t-12 23.5q0 19 2.5 39.5t7.5 37t12 23.5q17 18 46 39.5t68.5 46t88.5 52t107 56.5l70 -123q-59 -29 -104 -54t-79.5 -45.5t-61 -39t-46.5 -36.5l4 81q26 -29 53.5 -60
t53.5 -65t50 -73.5t45 -84.5q18 -41 36.5 -60t40 -24.5t48.5 -5.5q37 0 54 -20.5t17 -50.5q0 -32 -21 -53.5t-60 -21.5q-44 0 -80 11.5t-61.5 38t-38.5 72.5l52 -2q-14 -30 -33.5 -52.5t-47 -37.5t-64 -22.5t-82.5 -7.5h-101zM183 -371q-28 0 -47.5 19t-19.5 47t19.5 48.5
t47.5 20.5q27 0 46.5 -20.5t19.5 -48.5t-19.5 -47t-46.5 -19zM100 -224q-28 0 -47.5 19t-19.5 47t19 48t48 20q27 0 46.5 -20.5t19.5 -47.5q0 -28 -19.5 -47t-46.5 -19zM270 -224q-28 0 -47.5 19t-19.5 47t19.5 48t47.5 20t47 -20.5t19 -47.5q0 -28 -19 -47t-47 -19z" />
    <glyph glyph-name="uni06AE.fina" unicode="&#x6ae;" horiz-adv-x="933" 
d="M393 -21l26 146q88 -1 144 6t86.5 27.5t40.5 59t7 100.5l-23 429h150l22 -441q3 -67 14 -102.5t31 -49t52 -13.5q36 0 53.5 -20.5t17.5 -49.5q0 -33 -21.5 -54.5t-59.5 -21.5q-37 0 -72 12.5t-60 42t-33 78.5h53q-24 -51 -67 -81.5t-99.5 -45.5t-123 -19t-138.5 -3z
M355 222l-28 104q36 8 59.5 15t34.5 14.5t11 16.5q0 8 -9.5 19t-21.5 24.5t-21.5 30t-9.5 36.5q0 28 14.5 51.5t46 44.5t81.5 41l46 -94q-40 -16 -56.5 -29t-16.5 -26q0 -10 9.5 -22.5t22 -27t22 -31.5t9.5 -37q0 -17 -6 -34.5t-25.5 -34.5t-58 -32t-103.5 -29zM393 -21
q-101 0 -170 17.5t-111 49.5t-60.5 74t-18.5 91q0 34 6.5 69.5t16 68t17.5 57.5l128 -33q-4 -19 -9.5 -40t-9 -42t-3.5 -41q0 -36 19.5 -64t71.5 -44.5t149 -16.5l20 -114zM421 -392q-28 0 -47.5 19t-19.5 47t19.5 48.5t47.5 20.5q27 0 46.5 -20.5t19.5 -48.5t-19.5 -47
t-46.5 -19zM338 -245q-28 0 -47.5 19t-19.5 47t19 48t48 20q27 0 46.5 -20.5t19.5 -47.5q0 -28 -19.5 -47t-46.5 -19zM508 -245q-28 0 -47.5 19t-19.5 47t19.5 48t47.5 20t47 -20.5t19 -47.5q0 -28 -19 -47t-47 -19z" />
    <glyph glyph-name="uni06B0.init" unicode="&#x6b0;" horiz-adv-x="418" 
d="M323 428q-38 0 -64 26.5t-26 64.5t26 64t64 26t64 -26t26 -64t-26 -64.5t-64 -26.5zM323 489q13 0 22 8.5t9 21.5t-9 21.5t-22 8.5t-22 -9t-9 -21q0 -13 9 -21.5t22 -8.5zM25 614l-59 99q38 25 82.5 51.5t98.5 58t121 69.5l58 -105q-67 -36 -121 -66.5t-98 -57t-82 -49.5
zM0 -5l10 146h109q20 0 33.5 4t21.5 11.5t11.5 17t3.5 19.5q0 29 -20 61t-49 65q-19 22 -36 40t-30 33t-21 26.5t-8 19.5q0 14 2.5 34.5t7 39t11.5 25.5q16 17 44 38t67 45.5t89 52.5t111 59l69 -124q-56 -28 -101 -52t-80 -45t-62 -40t-47 -37l6 78q52 -49 91 -94t65 -85
t39 -78t13 -74q0 -31 -12 -63.5t-40 -60.5t-76 -45t-119 -17h-103z" />
    <glyph glyph-name="uni06B0.medi" unicode="&#x6b0;" horiz-adv-x="456" 
d="M324 428q-38 0 -64 27t-26 64q0 38 26 64.5t64 26.5t64 -26.5t26 -64.5q0 -37 -26 -64t-64 -27zM324 490q13 0 22 8t9 21q0 14 -9 22t-22 8t-22 -8.5t-9 -21.5t9 -21t22 -8zM26 614l-60 99q39 25 83 51.5t98.5 58t120.5 69.5l59 -105q-68 -36 -122 -66.5t-98 -57
t-81 -49.5zM0 -5l10 146h106q28 0 44 6.5t22 18t6 26.5q0 18 -12 41.5t-30.5 48t-39.5 49t-39.5 45.5t-30.5 37.5t-12 23.5q0 19 2.5 39.5t7.5 37t12 23.5q17 18 46 39.5t68.5 46t88.5 52t107 56.5l70 -123q-59 -29 -104 -54t-79.5 -45.5t-61 -39t-46.5 -36.5l4 81
q26 -29 53.5 -60t53.5 -65t50 -73.5t45 -84.5q18 -41 36.5 -60t40 -24.5t48.5 -5.5q37 0 54 -20.5t17 -50.5q0 -32 -21 -53.5t-60 -21.5q-44 0 -80 11.5t-61.5 38t-38.5 72.5l52 -2q-14 -30 -33.5 -52.5t-47 -37.5t-64 -22.5t-82.5 -7.5h-101z" />
    <glyph glyph-name="uni06B0.fina" unicode="&#x6b0;" horiz-adv-x="893" 
d="M762 428q-38 0 -64 26.5t-26 64.5t26 64.5t64 26.5t64.5 -26.5t26.5 -64.5t-26.5 -64.5t-64.5 -26.5zM762 490q13 0 22.5 8t9.5 21q0 14 -9.5 22t-22.5 8q-12 0 -21.5 -8.5t-9.5 -21.5t9.5 -21t21.5 -8zM467 613l-59 99q38 25 82 51.5t98.5 58t121.5 69.5l58 -105
q-67 -35 -121 -66t-98 -57.5t-82 -49.5zM393 -21l26 146q51 0 89 3t64 10.5t39 21t13 35.5q0 17 -11.5 39t-30 46.5t-39.5 48.5t-40 45.5t-30.5 37.5t-11.5 24q0 19 2.5 39t7 36.5t11.5 23.5q23 25 65.5 55t104 65.5t140.5 75.5l69 -123q-70 -37 -124.5 -67t-95 -56.5
t-69.5 -51.5l4 81q29 -30 56.5 -61.5t54 -66t50 -73t43.5 -83.5q13 -29 27 -46.5t30 -27t33.5 -12.5t38.5 -3q36 0 53.5 -21t17.5 -50q0 -33 -21 -54t-59 -21q-41 0 -77.5 11.5t-63.5 37.5t-39 72l43 3q-17 -44 -49.5 -71.5t-79 -42.5t-107 -20.5t-134.5 -5.5zM393 -21
q-101 0 -170 17.5t-111 49.5t-60.5 74t-18.5 91q0 34 6.5 69.5t16 68t17.5 57.5l128 -33q-4 -19 -9.5 -40t-9 -42t-3.5 -41q0 -36 19.5 -64t71.5 -44.5t149 -16.5l20 -114z" />
    <glyph glyph-name="uni06B2.init" unicode="&#x6b2;" horiz-adv-x="418" 
d="M25 614l-59 99q38 25 82.5 51.5t98.5 58t121 69.5l58 -105q-67 -36 -121 -66.5t-98 -57t-82 -49.5zM0 -5l10 146h109q20 0 33.5 4t21.5 11.5t11.5 17t3.5 19.5q0 29 -20 61t-49 65q-19 22 -36 40t-30 33t-21 26.5t-8 19.5q0 14 2.5 34.5t7 39t11.5 25.5q16 17 44 38
t67 45.5t89 52.5t111 59l69 -124q-56 -28 -101 -52t-80 -45t-62 -40t-47 -37l6 78q52 -49 91 -94t65 -85t39 -78t13 -74q0 -31 -12 -63.5t-40 -60.5t-76 -45t-119 -17h-103zM268 -227q-30 0 -49.5 20t-19.5 49t19.5 49.5t49.5 20.5q28 0 48.5 -20.5t20.5 -49.5t-20.5 -49
t-48.5 -20zM97 -227q-30 0 -50 20t-20 49t20 49.5t49 20.5t49 -20.5t20 -49.5t-20 -49t-48 -20z" />
    <glyph glyph-name="uni06B2.medi" unicode="&#x6b2;" horiz-adv-x="456" 
d="M26 614l-60 99q39 25 83 51.5t98.5 58t120.5 69.5l59 -105q-68 -36 -122 -66.5t-98 -57t-81 -49.5zM0 -5l10 146h106q28 0 44 6.5t22 18t6 26.5q0 18 -12 41.5t-30.5 48t-39.5 49t-39.5 45.5t-30.5 37.5t-12 23.5q0 19 2.5 39.5t7.5 37t12 23.5q17 18 46 39.5t68.5 46
t88.5 52t107 56.5l70 -123q-59 -29 -104 -54t-79.5 -45.5t-61 -39t-46.5 -36.5l4 81q26 -29 53.5 -60t53.5 -65t50 -73.5t45 -84.5q18 -41 36.5 -60t40 -24.5t48.5 -5.5q37 0 54 -20.5t17 -50.5q0 -32 -21 -53.5t-60 -21.5q-44 0 -80 11.5t-61.5 38t-38.5 72.5l52 -2
q-14 -30 -33.5 -52.5t-47 -37.5t-64 -22.5t-82.5 -7.5h-101zM277 -227q-30 0 -49.5 20t-19.5 49t19.5 49.5t49.5 20.5q28 0 48.5 -20.5t20.5 -49.5t-20.5 -49t-48.5 -20zM106 -227q-30 0 -50 20t-20 49t20 49.5t49 20.5t49 -20.5t20 -49.5t-20 -49t-48 -20z" />
    <glyph glyph-name="uni06B2.fina" unicode="&#x6b2;" horiz-adv-x="893" 
d="M467 613l-59 99q38 25 82 51.5t98.5 58t121.5 69.5l58 -105q-67 -35 -121 -66t-98 -57.5t-82 -49.5zM393 -21l26 146q51 0 89 3t64 10.5t39 21t13 35.5q0 17 -11.5 39t-30 46.5t-39.5 48.5t-40 45.5t-30.5 37.5t-11.5 24q0 19 2.5 39t7 36.5t11.5 23.5q23 25 65.5 55
t104 65.5t140.5 75.5l69 -123q-70 -37 -124.5 -67t-95 -56.5t-69.5 -51.5l4 81q29 -30 56.5 -61.5t54 -66t50 -73t43.5 -83.5q13 -29 27 -46.5t30 -27t33.5 -12.5t38.5 -3q36 0 53.5 -21t17.5 -50q0 -33 -21 -54t-59 -21q-41 0 -77.5 11.5t-63.5 37.5t-39 72l43 3
q-17 -44 -49.5 -71.5t-79 -42.5t-107 -20.5t-134.5 -5.5zM393 -21q-101 0 -170 17.5t-111 49.5t-60.5 74t-18.5 91q0 34 6.5 69.5t16 68t17.5 57.5l128 -33q-4 -19 -9.5 -40t-9 -42t-3.5 -41q0 -36 19.5 -64t71.5 -44.5t149 -16.5l20 -114zM488 -248q-30 0 -49.5 20
t-19.5 49t19.5 49.5t49.5 20.5q28 0 48.5 -20.5t20.5 -49.5t-20.5 -49t-48.5 -20zM317 -248q-30 0 -50 20t-20 49t20 49.5t49 20.5t49 -20.5t20 -49.5t-20 -49t-48 -20z" />
    <glyph glyph-name="uni06B4.init" unicode="&#x6b4;" horiz-adv-x="418" 
d="M23 952q-23 0 -38 15t-15 37t15 38t38 16q22 0 37 -16t15 -38t-15 -37t-37 -15zM13 819q-23 0 -38 15t-15 37t15 38t38 16q21 0 36.5 -16t15.5 -38t-15.5 -37t-36.5 -15zM134 877q-23 0 -38 15t-15 37q0 23 15 39t38 16q21 0 36 -16t15 -39q0 -22 -15 -37t-36 -15z
M25 614l-59 99q38 25 82.5 51.5t98.5 58t121 69.5l58 -105q-67 -36 -121 -66.5t-98 -57t-82 -49.5zM0 -5l10 146h109q20 0 33.5 4t21.5 11.5t11.5 17t3.5 19.5q0 29 -20 61t-49 65q-19 22 -36 40t-30 33t-21 26.5t-8 19.5q0 14 2.5 34.5t7 39t11.5 25.5q16 17 44 38t67 45.5
t89 52.5t111 59l69 -124q-56 -28 -101 -52t-80 -45t-62 -40t-47 -37l6 78q52 -49 91 -94t65 -85t39 -78t13 -74q0 -31 -12 -63.5t-40 -60.5t-76 -45t-119 -17h-103z" />
    <glyph glyph-name="uni06B4.medi" unicode="&#x6b4;" horiz-adv-x="456" 
d="M19 952q-23 0 -38.5 15t-15.5 37t15.5 38t38.5 16q21 0 36 -16t15 -38t-15 -37t-36 -15zM8 819q-22 0 -37.5 15t-15.5 37t15.5 38t37.5 16t37 -16t15 -38t-15 -37t-37 -15zM129 877q-22 0 -37 15t-15 37q0 23 15 39t37 16t37 -16t15 -39q0 -22 -15 -37t-37 -15zM26 614
l-60 99q39 25 83 51.5t98.5 58t120.5 69.5l59 -105q-68 -36 -122 -66.5t-98 -57t-81 -49.5zM0 -5l10 146h106q28 0 44 6.5t22 18t6 26.5q0 18 -12 41.5t-30.5 48t-39.5 49t-39.5 45.5t-30.5 37.5t-12 23.5q0 19 2.5 39.5t7.5 37t12 23.5q17 18 46 39.5t68.5 46t88.5 52
t107 56.5l70 -123q-59 -29 -104 -54t-79.5 -45.5t-61 -39t-46.5 -36.5l4 81q26 -29 53.5 -60t53.5 -65t50 -73.5t45 -84.5q18 -41 36.5 -60t40 -24.5t48.5 -5.5q37 0 54 -20.5t17 -50.5q0 -32 -21 -53.5t-60 -21.5q-44 0 -80 11.5t-61.5 38t-38.5 72.5l52 -2
q-14 -30 -33.5 -52.5t-47 -37.5t-64 -22.5t-82.5 -7.5h-101z" />
    <glyph glyph-name="uni06B4.fina" unicode="&#x6b4;" horiz-adv-x="893" 
d="M465 953q-23 0 -38.5 15t-15.5 37t15.5 38t38.5 16q21 0 36 -16t15 -38t-15 -37t-36 -15zM454 820q-22 0 -37.5 15t-15.5 37t15.5 38t37.5 16t37 -16t15 -38t-15 -37t-37 -15zM575 878q-22 0 -37.5 15t-15.5 37t15.5 38t37.5 16t37 -16t15 -38t-15 -37t-37 -15zM467 613
l-59 99q38 25 82 51.5t98.5 58t121.5 69.5l58 -105q-67 -35 -121 -66t-98 -57.5t-82 -49.5zM393 -21l26 146q51 0 89 3t64 10.5t39 21t13 35.5q0 17 -11.5 39t-30 46.5t-39.5 48.5t-40 45.5t-30.5 37.5t-11.5 24q0 19 2.5 39t7 36.5t11.5 23.5q23 25 65.5 55t104 65.5
t140.5 75.5l69 -123q-70 -37 -124.5 -67t-95 -56.5t-69.5 -51.5l4 81q29 -30 56.5 -61.5t54 -66t50 -73t43.5 -83.5q13 -29 27 -46.5t30 -27t33.5 -12.5t38.5 -3q36 0 53.5 -21t17.5 -50q0 -33 -21 -54t-59 -21q-41 0 -77.5 11.5t-63.5 37.5t-39 72l43 3
q-17 -44 -49.5 -71.5t-79 -42.5t-107 -20.5t-134.5 -5.5zM393 -21q-101 0 -170 17.5t-111 49.5t-60.5 74t-18.5 91q0 34 6.5 69.5t16 68t17.5 57.5l128 -33q-4 -19 -9.5 -40t-9 -42t-3.5 -41q0 -36 19.5 -64t71.5 -44.5t149 -16.5l20 -114z" />
    <glyph glyph-name="uni06B5.init" unicode="&#x6b5;" horiz-adv-x="291" 
d="M0 -5l10 146q35 0 51 10t20 38.5t2 84.5l-19 473h153l21 -489q3 -59 -4 -107.5t-31 -83t-72.5 -53.5t-130.5 -19zM112 829q-7 15 -17 38.5t-21.5 51t-22 52t-18.5 41.5l57 25q6 -11 15 -32.5t19.5 -46t20.5 -47.5t17 -36l20 -41zM182 834l-51 20q5 16 14.5 43t19.5 56.5
t18 53.5t12 33l57 -19q-4 -11 -13 -36t-20.5 -54t-21.5 -55.5t-15 -41.5z" />
    <glyph glyph-name="uni06B5.medi" unicode="&#x6b5;" horiz-adv-x="316" 
d="M0 -5l10 146q32 0 48 10.5t20.5 39.5t2.5 84l-16 472h154l17 -471q2 -56 10 -85t26.5 -39.5t53.5 -10.5q37 0 54 -20.5t17 -50.5q0 -34 -21 -54.5t-59 -20.5q-36 0 -72.5 11t-64 40t-35.5 83h52q-19 -50 -46 -79.5t-64.5 -42t-86.5 -12.5zM118 841q-7 15 -17 38.5
t-21.5 51t-22 52t-18.5 41.5l57 25q6 -11 15 -32.5t19.5 -46t20.5 -47.5t17 -36l20 -41zM188 846l-51 20q5 16 14.5 43t19.5 56.5t18 53.5t12 33l57 -19q-4 -11 -13 -36t-20.5 -54t-21.5 -55.5t-15 -41.5z" />
    <glyph glyph-name="uni06B5.fina" unicode="&#x6b5;" horiz-adv-x="723" 
d="M27 27q0 26 4 56t15.5 70.5t35.5 95.5l134 -49q-14 -36 -22 -61.5t-11 -46.5t-3 -46q0 -41 17 -70.5t48.5 -45t73.5 -15.5q65 0 100 27.5t47.5 85.5t8.5 150l-20 569h154l16 -473q2 -55 13 -84t34 -39t61 -10q36 0 53.5 -20.5t17.5 -50.5q0 -35 -21 -55t-59 -20
q-18 0 -42 4.5t-47.5 17.5t-41.5 36.5t-26 60.5l57 -16q-3 -75 -23.5 -135.5t-58.5 -103.5t-94.5 -66t-132.5 -23q-55 0 -106.5 15t-92.5 46t-65 79.5t-24 116.5zM195 561q-7 15 -17 38.5t-21.5 51t-22 52t-18.5 41.5l57 25q6 -11 15 -32.5t19.5 -46t20.5 -47.5t17 -36
l20 -41zM265 566l-51 20q5 16 14.5 43t19.5 56.5t18 53.5t12 33l57 -19q-4 -11 -13 -36t-20.5 -54t-21.5 -55.5t-15 -41.5z" />
    <glyph glyph-name="uni06B6.init" unicode="&#x6b6;" horiz-adv-x="291" 
d="M0 -5l10 146q35 0 51 10t20 38.5t2 84.5l-19 473h153l21 -489q3 -59 -4 -107.5t-31 -83t-72.5 -53.5t-130.5 -19zM145 820q-31 0 -52 21.5t-21 51.5q0 31 21 53t52 22q30 0 51 -22t21 -53q0 -30 -21 -51.5t-51 -21.5z" />
    <glyph glyph-name="uni06B6.medi" unicode="&#x6b6;" horiz-adv-x="316" 
d="M0 -5l10 146q32 0 48 10.5t20.5 39.5t2.5 84l-16 472h154l17 -471q2 -56 10 -85t26.5 -39.5t53.5 -10.5q37 0 54 -20.5t17 -50.5q0 -34 -21 -54.5t-59 -20.5q-36 0 -72.5 11t-64 40t-35.5 83h52q-19 -50 -46 -79.5t-64.5 -42t-86.5 -12.5zM150 821q-31 0 -52 21.5
t-21 51.5q0 31 21 53t52 22q30 0 51 -22t21 -53q0 -30 -21 -51.5t-51 -21.5z" />
    <glyph glyph-name="uni06B6.fina" unicode="&#x6b6;" horiz-adv-x="723" 
d="M27 27q0 26 4 56t15.5 70.5t35.5 95.5l134 -49q-14 -36 -22 -61.5t-11 -46.5t-3 -46q0 -41 17 -70.5t48.5 -45t73.5 -15.5q65 0 100 27.5t47.5 85.5t8.5 150l-20 569h154l16 -473q2 -55 13 -84t34 -39t61 -10q36 0 53.5 -20.5t17.5 -50.5q0 -35 -21 -55t-59 -20
q-18 0 -42 4.5t-47.5 17.5t-41.5 36.5t-26 60.5l57 -16q-3 -75 -23.5 -135.5t-58.5 -103.5t-94.5 -66t-132.5 -23q-55 0 -106.5 15t-92.5 46t-65 79.5t-24 116.5zM229 553q-31 0 -52 21.5t-21 51.5q0 31 21 53t52 22q30 0 51 -22t21 -53q0 -30 -21 -51.5t-51 -21.5z" />
    <glyph glyph-name="uni06B7.init" unicode="&#x6b7;" horiz-adv-x="291" 
d="M0 -5l10 146q35 0 51 10t20 38.5t2 84.5l-19 473h153l21 -489q3 -59 -4 -107.5t-31 -83t-72.5 -53.5t-130.5 -19zM146 968q-30 0 -49.5 20t-19.5 48q0 29 19.5 49t49.5 20q28 0 48 -20t20 -49q0 -28 -20 -48t-48 -20zM64 820q-28 0 -48.5 21t-20.5 48q0 28 20.5 49
t48.5 21t48 -21t20 -49t-20 -48.5t-48 -20.5zM232 820q-29 0 -48 21t-19 48q0 28 19 49t48 21q28 0 48 -21t20 -49t-20 -48.5t-48 -20.5z" />
    </font>
</defs>
</svg>
