<?xml version="1.0" standalone="no"?>
<!DOCTYPE svg PUBLIC "-//W3C//DTD SVG 1.1//EN" "http://www.w3.org/Graphics/SVG/1.1/DTD/svg11.dtd" >
<svg xmlns="http://www.w3.org/2000/svg" xmlns:xlink="http://www.w3.org/1999/xlink" version="1.1">
<metadata>
Created by FontForge 20170731 at Thu Nov 12 05:28:44 2020
 By Aleksey,,,
Copyright 2015-2020 Google LLC. All Rights Reserved.
</metadata>
<defs>
<font id="NotoSansArabicSemiCondensed-Black" horiz-adv-x="0" >
  <font-face 
    font-family="Noto Sans Arabic SemiCondensed Black"
    font-weight="900"
    font-stretch="semi-condensed"
    units-per-em="1000"
    panose-1="0 0 0 0 0 0 0 0 0 0"
    ascent="800"
    descent="-200"
    bbox="-220 -738 2620 1169"
    underline-thickness="50"
    underline-position="-175"
    unicode-range="U+000D-FEFC"
  />
<missing-glyph horiz-adv-x="600" 
d="M94 0v714h411v-714h-411zM145 51h309v612h-309v-612z" />
    <glyph glyph-name="uniFC43" unicode="&#xfedf;&#xfef0;" horiz-adv-x="1107" arabic-form="isolated" 
d="M792 -5l10 166q37 0 54 9t21 37t1 85l-19 468h173l21 -490q3 -61 -3.5 -111.5t-32.5 -87t-79.5 -56.5t-145.5 -20zM24 31q0 27 4 58.5t16 73.5t36 101l153 -54q-14 -39 -21.5 -64.5t-10 -44.5t-2.5 -39q0 -27 11 -50t34 -40t59 -26.5t86 -9.5q61 0 99.5 10.5t59.5 25.5
t29 30t8 23t-6.5 16t-20.5 16.5t-36.5 18t-52.5 20.5l45 144q37 -15 75 -29.5t75.5 -25.5t72 -17.5t65.5 -6.5q43 0 63.5 -24t20.5 -57q0 -38 -24 -61.5t-70 -23.5h-15.5h-15h-14.5q1 -6 1.5 -11t0.5 -12q0 -31 -22.5 -66t-68.5 -66t-117 -51t-166 -20q-101 0 -180 28.5
t-125 87t-46 146.5z" />
    <glyph glyph-name="uniFC86" unicode="&#xfee0;&#xfef0;" horiz-adv-x="1132" arabic-form="final" 
d="M792 -5l10 166q35 0 52 9.5t21.5 37.5t2.5 84l-15 468h173l17 -467q2 -56 9.5 -84.5t26 -38t54.5 -9.5q44 0 64 -24t20 -57q0 -38 -24.5 -61.5t-69.5 -23.5q-38 0 -77.5 11t-68.5 42t-38 89h59q-21 -53 -51 -84.5t-70.5 -44.5t-94.5 -13zM24 31q0 27 4 58.5t16 73.5
t36 101l153 -54q-14 -39 -21.5 -64.5t-10 -44.5t-2.5 -39q0 -27 11 -50t34 -40t59 -26.5t86 -9.5q61 0 99.5 10.5t59.5 25.5t29 30t8 23t-6.5 16t-20.5 16.5t-36.5 18t-52.5 20.5l45 144q37 -15 75 -29.5t75.5 -25.5t72 -17.5t65.5 -6.5q43 0 63.5 -24t20.5 -57
q0 -38 -24 -61.5t-70 -23.5h-15.5h-15h-14.5q1 -6 1.5 -11t0.5 -12q0 -31 -22.5 -66t-68.5 -66t-117 -51t-166 -20q-101 0 -180 28.5t-125 87t-46 146.5z" />
    <glyph glyph-name="uniFD82" unicode="&#xfee0;&#xfea4;&#xfef0;" horiz-adv-x="1810" arabic-form="final" 
d="M1470 -5l10 166q35 0 52 9.5t21.5 37.5t2.5 84l-15 468h173l17 -467q2 -56 9.5 -84.5t26 -38t54.5 -9.5q44 0 64 -24t20 -57q0 -38 -24.5 -61.5t-69.5 -23.5q-38 0 -77.5 11t-68.5 42t-38 89h59q-21 -53 -51 -84.5t-70.5 -44.5t-94.5 -13zM1470 -5q-45 0 -82.5 8.5
t-68 27.5t-53.5 51t-38 79l92 72q13 -28 34.5 -44t53 -22t72.5 -6q44 0 64.5 -24t20.5 -57q0 -38 -24.5 -61.5t-70.5 -23.5zM792 -5l10 166q54 0 109 6t107.5 19t99.5 33.5t87 49.5q-33 12 -67 20t-69.5 12t-75.5 4q-16 0 -37.5 -1t-44 -3.5t-40.5 -6.5l-24 174
q30 8 66.5 11.5t69.5 3.5q56 0 103 -11.5t86 -28.5t72 -34.5t62.5 -29t56.5 -11.5h37l21 -150q-37 -4 -70.5 -22t-68.5 -43.5t-78.5 -52.5t-100.5 -51t-133 -39t-178 -15zM24 31q0 27 4 58.5t16 73.5t36 101l153 -54q-14 -39 -21.5 -64.5t-10 -44.5t-2.5 -39q0 -27 11 -50
t34 -40t59 -26.5t86 -9.5q61 0 99.5 10.5t59.5 25.5t29 30t8 23t-6.5 16t-20.5 16.5t-36.5 18t-52.5 20.5l45 144q37 -15 75 -29.5t75.5 -25.5t72 -17.5t65.5 -6.5q43 0 63.5 -24t20.5 -57q0 -38 -24 -61.5t-70 -23.5h-15.5h-15h-14.5q1 -6 1.5 -11t0.5 -12q0 -31 -22.5 -66
t-68.5 -66t-117 -51t-166 -20q-101 0 -180 28.5t-125 87t-46 146.5z" />
    <glyph glyph-name="uniFDF2" unicode="&#x627;&#xfedf;&#xfee0;&#xfeea;" horiz-adv-x="1542" arabic-form="isolated" 
d="M584 -5q-51 0 -92.5 9t-72.5 28.5t-50 50.5q-67 -10 -127 -5t-108 27.5t-75.5 64.5t-27.5 105q0 75 38 130t103.5 92.5t148.5 58.5l-4 78h170l17 -374q2 -40 10.5 -61.5t27.5 -29.5t52 -8t49 9.5t20.5 37.5t2.5 84l-10 356h177l11 -355q2 -56 9 -84.5t27.5 -38t60.5 -9.5
q36 0 52.5 9t21 37t1.5 85l-19 468h176l21 -490q3 -61 -4 -111.5t-33 -87t-80.5 -56.5t-145.5 -20q-31 0 -63.5 6.5t-60.5 23t-48 46.5q-30 -42 -73.5 -59t-101.5 -17zM335 239l-7 148q-37 -7 -66 -21t-45.5 -33.5t-16.5 -44.5q0 -16 10.5 -27t29 -18t43 -7.5t52.5 3.5z
M1314 0l-21 760h176l21 -760h-176zM644 725q-45 0 -59 29t-14 70q0 11 1.5 23t4.5 28l70 13q-2 -16 -3.5 -30t-1.5 -25q0 -18 4 -25t11 -7q12 0 17 14.5t6 57.5v29l58 17v-59q0 -16 4 -23t14 -7q12 0 15.5 9.5t3.5 24.5q0 17 -4 33.5t-9 33.5l64 13q10 -18 16.5 -42t6.5 -43
q0 -44 -19.5 -73t-65.5 -29q-23 0 -43.5 18t-20.5 55l22 -9q0 -47 -24.5 -71.5t-53.5 -24.5zM647 975l-6 167h111l6 -167h-111z" />
    <glyph glyph-name="uniFEF5" unicode="&#xfedf;&#xfe82;" horiz-adv-x="675" arabic-form="isolated" 
d="M375 560q0 18 -3.5 50.5t-8.5 65.5t-9 54l163 20q4 -20 8 -51t7 -65t3 -66q0 -55 -8 -105t-27.5 -93t-54.5 -78l-22 -16q-31 -33 -71 -65.5t-83 -61.5h94q29 0 44.5 5.5t22 15t6.5 20.5q0 18 -30.5 51.5t-85.5 77.5t-128 93.5t-159 98.5l77 139q129 -74 215.5 -135
t140 -111.5t81.5 -92.5t38 -78t10 -70q0 -25 -10 -53t-32 -53t-57.5 -41t-86.5 -16h-308v187q101 68 161 129.5t86.5 121t26.5 122.5zM215 702q-30 0 -54 10t-44 20t-37 10q-18 0 -32.5 -9t-29.5 -24l-51 53q29 36 57 53t56 17q25 0 46 -9.5t42.5 -19.5t46.5 -10
q15 0 29 5.5t34 17.5l38 -66q-37 -32 -61.5 -40t-39.5 -8z" />
    <glyph glyph-name="uniFEF6" unicode="&#xfee0;&#xfe82;" horiz-adv-x="688" arabic-form="final" 
d="M691 -5q-70 0 -120.5 20.5t-83 55t-48.5 78t-18 90.5l-23 521h171l21 -489q2 -46 15.5 -70t37.5 -32t54 -8q35 0 60 -19.5t25 -62.5q0 -37 -26 -60.5t-65 -23.5zM136 -5q-29 0 -55 4t-43 7l19 171q70 -10 134 -7.5t114 26t79 77t29 146.5l66 -185q-10 -53 -32.5 -93.5
t-55 -68t-73 -44.5t-86.5 -25t-96 -8zM331 138q-18 28 -43 64t-59.5 81t-82.5 100.5t-113 123.5l113 116q48 -53 94 -108.5t85.5 -107.5t67.5 -95.5t38 -72.5zM215 702q-30 0 -54 10t-44 20t-37 10q-18 0 -32.5 -9t-29.5 -24l-51 53q29 36 57 53t56 17q25 0 46 -9.5
t42.5 -19.5t46.5 -10q15 0 29 5.5t34 17.5l38 -66q-37 -32 -61.5 -40t-39.5 -8z" />
    <glyph glyph-name="uniFEF7" unicode="&#xfedf;&#xfe84;" horiz-adv-x="653" arabic-form="isolated" 
d="M375 560q0 18 -3.5 50.5t-8.5 65.5t-9 54l163 20q4 -20 8 -51t7 -65t3 -66q0 -55 -8 -105t-27.5 -93t-54.5 -78l-22 -16q-31 -33 -71 -65.5t-83 -61.5h94q29 0 44.5 5.5t22 15t6.5 20.5q0 18 -30.5 51.5t-85.5 77.5t-128 93.5t-159 98.5l77 139q129 -74 215.5 -135
t140 -111.5t81.5 -92.5t38 -78t10 -70q0 -25 -10 -53t-32 -53t-57.5 -41t-86.5 -16h-308v187q101 68 161 129.5t86.5 121t26.5 122.5zM37 677l-18 72q40 6 57.5 9.5t37.5 8.5l-19 -30q-25 9 -47.5 35t-22.5 60q0 38 16.5 60t41.5 32.5t52 10.5q17 0 30.5 -2t23.5 -6l-7 -68
l-20 4t-22 2q-19 0 -29.5 -8.5t-10.5 -22.5q0 -18 12 -31t27.5 -20.5t25.5 -8.5l-43 -4q26 7 49 14.5t44 14.5l22 -68q-26 -9 -58.5 -19t-69 -19t-72.5 -16z" />
    <glyph glyph-name="uniFEF8" unicode="&#xfee0;&#xfe84;" horiz-adv-x="688" arabic-form="final" 
d="M691 -5q-70 0 -120.5 20.5t-83 55t-48.5 78t-18 90.5l-23 521h171l21 -489q2 -46 15.5 -70t37.5 -32t54 -8q35 0 60 -19.5t25 -62.5q0 -37 -26 -60.5t-65 -23.5zM136 -5q-29 0 -55 4t-43 7l19 171q70 -10 134 -7.5t114 26t79 77t29 146.5l66 -185q-10 -53 -32.5 -93.5
t-55 -68t-73 -44.5t-86.5 -25t-96 -8zM331 138q-18 28 -43 64t-59.5 81t-82.5 100.5t-113 123.5l113 116q48 -53 94 -108.5t85.5 -107.5t67.5 -95.5t38 -72.5zM62 677l-18 72q40 6 57.5 9.5t37.5 8.5l-19 -30q-25 9 -47.5 35t-22.5 60q0 38 16.5 60t41.5 32.5t52 10.5
q17 0 30.5 -2t23.5 -6l-7 -68l-20 4t-22 2q-19 0 -29.5 -8.5t-10.5 -22.5q0 -18 12 -31t27.5 -20.5t25.5 -8.5l-43 -4q26 7 49 14.5t44 14.5l22 -68q-26 -9 -58.5 -19t-69 -19t-72.5 -16z" />
    <glyph glyph-name="uniFEF9" unicode="&#xfedf;&#xfe88;" horiz-adv-x="653" arabic-form="isolated" 
d="M375 560q0 18 -3.5 50.5t-8.5 65.5t-9 54l163 20q4 -20 8 -51t7 -65t3 -66q0 -55 -8 -105t-27.5 -93t-54.5 -78l-22 -16q-31 -33 -71 -65.5t-83 -61.5h94q29 0 44.5 5.5t22 15t6.5 20.5q0 18 -30.5 51.5t-85.5 77.5t-128 93.5t-159 98.5l77 139q129 -74 215.5 -135
t140 -111.5t81.5 -92.5t38 -78t10 -70q0 -25 -10 -53t-32 -53t-57.5 -41t-86.5 -16h-308v187q101 68 161 129.5t86.5 121t26.5 122.5zM95 -309l-18 72q40 6 57.5 9.5t37.5 8.5l-19 -30q-25 9 -47.5 35t-22.5 60q0 38 16.5 60t41.5 32.5t52 10.5q17 0 30.5 -2t23.5 -6l-7 -68
l-20 4t-22 2q-19 0 -29.5 -8.5t-10.5 -22.5q0 -18 12 -31t27.5 -20.5t25.5 -8.5l-43 -4q26 7 49 14.5t44 14.5l22 -68q-26 -9 -58.5 -19t-69 -19t-72.5 -16z" />
    <glyph glyph-name="uniFEFA" unicode="&#xfee0;&#xfe88;" horiz-adv-x="688" arabic-form="final" 
d="M691 -5q-70 0 -120.5 20.5t-83 55t-48.5 78t-18 90.5l-23 521h171l21 -489q2 -46 15.5 -70t37.5 -32t54 -8q35 0 60 -19.5t25 -62.5q0 -37 -26 -60.5t-65 -23.5zM136 -5q-29 0 -55 4t-43 7l19 171q70 -10 134 -7.5t114 26t79 77t29 146.5l66 -185q-10 -53 -32.5 -93.5
t-55 -68t-73 -44.5t-86.5 -25t-96 -8zM331 138q-18 28 -43 64t-59.5 81t-82.5 100.5t-113 123.5l113 116q48 -53 94 -108.5t85.5 -107.5t67.5 -95.5t38 -72.5zM95 -309l-18 72q40 6 57.5 9.5t37.5 8.5l-19 -30q-25 9 -47.5 35t-22.5 60q0 38 16.5 60t41.5 32.5t52 10.5
q17 0 30.5 -2t23.5 -6l-7 -68l-20 4t-22 2q-19 0 -29.5 -8.5t-10.5 -22.5q0 -18 12 -31t27.5 -20.5t25.5 -8.5l-43 -4q26 7 49 14.5t44 14.5l22 -68q-26 -9 -58.5 -19t-69 -19t-72.5 -16z" />
    <glyph glyph-name="uniFEFB" unicode="&#xfedf;&#xfe8e;" horiz-adv-x="653" arabic-form="isolated" 
d="M375 560q0 18 -3.5 50.5t-8.5 65.5t-9 54l163 20q4 -20 8 -51t7 -65t3 -66q0 -55 -8 -105t-27.5 -93t-54.5 -78l-22 -16q-31 -33 -71 -65.5t-83 -61.5h94q29 0 44.5 5.5t22 15t6.5 20.5q0 18 -30.5 51.5t-85.5 77.5t-128 93.5t-159 98.5l77 139q129 -74 215.5 -135
t140 -111.5t81.5 -92.5t38 -78t10 -70q0 -25 -10 -53t-32 -53t-57.5 -41t-86.5 -16h-308v187q101 68 161 129.5t86.5 121t26.5 122.5z" />
    <glyph glyph-name="uniFEFC" unicode="&#xfee0;&#xfe8e;" horiz-adv-x="688" arabic-form="final" 
d="M691 -5q-70 0 -120.5 20.5t-83 55t-48.5 78t-18 90.5l-23 521h171l21 -489q2 -46 15.5 -70t37.5 -32t54 -8q35 0 60 -19.5t25 -62.5q0 -37 -26 -60.5t-65 -23.5zM136 -5q-29 0 -55 4t-43 7l19 171q70 -10 134 -7.5t114 26t79 77t29 146.5l66 -185q-10 -53 -32.5 -93.5
t-55 -68t-73 -44.5t-86.5 -25t-96 -8zM331 138q-18 28 -43 64t-59.5 81t-82.5 100.5t-113 123.5l113 116q48 -53 94 -108.5t85.5 -107.5t67.5 -95.5t38 -72.5z" />
    <glyph glyph-name="lam_alefMaksura_meemar" unicode="&#xfedf;&#xfbe9;&#xfee2;" horiz-adv-x="1317" 
d="M1001 -5l10 166q37 0 54 9t21 37t1 85l-19 468h173l21 -490q3 -61 -3.5 -111.5t-32.5 -87t-79.5 -56.5t-145.5 -20zM678 -5l10 166q33 0 53 7.5t30 25t10 45.5q0 33 -8 75t-19 85.5t-22 77.5l159 43q12 -35 25.5 -82t22.5 -99.5t9 -105.5q0 -64 -17 -106.5t-46 -68.5
t-65 -39.5t-72.5 -18.5t-69.5 -5zM82 -393q-23 81 -38 156.5t-22 133.5t-7 86q0 104 30 183t77.5 135t102 91t104 51.5t82.5 16.5q45 0 70.5 -20t43.5 -57.5t40 -88.5q23 -56 43.5 -84.5t39.5 -38.5t40 -10q44 0 64.5 -24t20.5 -57q0 -37 -24.5 -61t-70.5 -24
q-45 0 -83 18.5t-74 57.5l24 8q-8 -27 -26 -49t-44.5 -35t-59.5 -13q-24 0 -54 6.5t-62.5 23t-65.5 47.5t-62 81l43 -5q-17 -34 -25 -73.5t-8 -75.5q-1 -30 4 -70.5t14 -86t20 -91t22 -86.5zM413 141q15 0 23.5 6t10.5 16t-3 21q-12 30 -21 52t-16 36.5t-13.5 22t-13.5 7.5
q-11 0 -27 -8.5t-32 -21t-28.5 -25t-15.5 -21.5l-6 42q15 -34 39 -63t52 -46.5t51 -17.5z" />
    <glyph glyph-name="lam_alefWaslaar" unicode="&#xfedf;&#xfb51;" horiz-adv-x="605" 
d="M146 695q-21 0 -50.5 2t-55.5 5t-40 5l7 73q14 -2 38 -5t51.5 -5t49.5 -2q52 0 68.5 12t16.5 27q0 17 -9 25.5t-23 8.5q-9 0 -23.5 -8.5t-28.5 -26t-25 -46.5l-86 1q11 33 33.5 69t56.5 61t76 25q45 0 75 -29t30 -74q0 -33 -12.5 -60t-47 -42.5t-101.5 -15.5zM375 560
q0 18 -3.5 50.5t-8.5 65.5t-9 54l163 20q4 -20 8 -51t7 -65t3 -66q0 -55 -8 -105t-27.5 -93t-54.5 -78l-22 -16q-31 -33 -71 -65.5t-83 -61.5h94q29 0 44.5 5.5t22 15t6.5 20.5q0 18 -30.5 51.5t-85.5 77.5t-128 93.5t-159 98.5l77 139q129 -74 215.5 -135t140 -111.5
t81.5 -92.5t38 -78t10 -70q0 -25 -10 -53t-32 -53t-57.5 -41t-86.5 -16h-308v187q101 68 161 129.5t86.5 121t26.5 122.5z" />
    <glyph glyph-name="lam_alefWaslaar.fina" unicode="&#xfee0;&#xfb51;" horiz-adv-x="792" 
d="M146 695q-21 0 -50.5 2t-55.5 5t-40 5l7 73q14 -2 38 -5t51.5 -5t49.5 -2q52 0 68.5 12t16.5 27q0 17 -9 25.5t-23 8.5q-9 0 -23.5 -8.5t-28.5 -26t-25 -46.5l-86 1q11 33 33.5 69t56.5 61t75 25q46 0 76 -29t30 -74q0 -33 -13 -60t-47 -42.5t-101 -15.5zM691 -5
q-70 0 -120.5 20.5t-83 55t-48.5 78t-18 90.5l-23 521h171l21 -489q2 -46 15.5 -70t37.5 -32t54 -8q35 0 60 -19.5t25 -62.5q0 -37 -26 -60.5t-65 -23.5zM136 -5q-29 0 -55 4t-43 7l19 171q70 -10 134 -7.5t114 26t79 77t29 146.5l66 -185q-10 -53 -32.5 -93.5t-55 -68
t-73 -44.5t-86.5 -25t-96 -8zM331 138q-18 28 -43 64t-59.5 81t-82.5 100.5t-113 123.5l113 116q48 -53 94 -108.5t85.5 -107.5t67.5 -95.5t38 -72.5z" />
    <glyph glyph-name="uni0620.init" unicode="&#x620;" horiz-adv-x="391" 
d="M0 -5l10 166q60 0 92 9t43.5 26.5t11.5 44.5q0 33 -7.5 74.5t-18 84.5t-21.5 77l158 43q12 -35 25.5 -81t22 -98t8.5 -104q0 -79 -27 -127.5t-72.5 -73t-103.5 -33t-121 -8.5zM232 -95q-41 0 -70 29.5t-29 70.5t29 70.5t71 29.5t71 -29.5t29 -70.5q0 -42 -29 -71t-72 -29
zM232 -25q14 0 23 8.5t9 21.5q0 14 -9 22.5t-23 8.5q-12 0 -21.5 -9t-9.5 -22t9.5 -21.5t21.5 -8.5z" />
    <glyph glyph-name="uni0620.medi" unicode="&#x620;" horiz-adv-x="430" 
d="M0 -5l10 166q38 0 62.5 6.5t39.5 28t24.5 64.5t19.5 116l162 -26q-1 -14 -3.5 -32t-4.5 -38t-2 -39q0 -21 6.5 -36t21 -25t40 -14.5t64.5 -4.5q44 0 64.5 -24t20.5 -57q0 -38 -24.5 -61.5t-70.5 -23.5q-59 0 -100.5 9.5t-68.5 29.5t-41.5 50.5t-18.5 72.5h59
q-18 -56 -46.5 -89t-63.5 -48.5t-73.5 -20t-76.5 -4.5zM144 -117q-41 0 -70 29.5t-29 70.5q0 42 29 71t70 29q42 0 71 -29t29 -71q0 -41 -29 -70.5t-71 -29.5zM144 -46q13 0 22.5 8t9.5 21q0 14 -9.5 22.5t-22.5 8.5q-12 0 -21.5 -9t-9.5 -22t9.5 -21t21.5 -8z" />
    <glyph glyph-name="uni0620.fina" unicode="&#x620;" horiz-adv-x="792" 
d="M363 -361q-41 0 -70 29t-29 71q0 41 29 70.5t70 29.5q42 0 71 -29.5t29 -70.5q0 -42 -29 -71t-71 -29zM363 -291q13 0 22.5 8.5t9.5 21.5t-9.5 21.5t-22.5 8.5q-12 0 -22 -9t-10 -21q0 -13 10 -21.5t22 -8.5zM24 31q0 27 4 58.5t16 73.5t36 101l153 -54
q-14 -39 -21.5 -64.5t-10 -44.5t-2.5 -39q0 -27 11 -50t34 -40t59 -26.5t86 -9.5q61 0 99.5 10.5t59.5 25.5t29 30t8 23t-6.5 16t-20.5 16.5t-36.5 18t-52.5 20.5l45 144q37 -15 75 -29.5t75.5 -25.5t72 -17.5t65.5 -6.5q43 0 63.5 -24t20.5 -57q0 -38 -24 -61.5t-70 -23.5
h-15.5h-15h-14.5q1 -6 1.5 -11t0.5 -12q0 -31 -22.5 -66t-68.5 -66t-117 -51t-166 -20q-101 0 -180 28.5t-125 87t-46 146.5z" />
    <glyph glyph-name="uni063B.init" unicode="&#x63b;" horiz-adv-x="461" 
d="M242 738q-23 0 -38.5 15.5t-15.5 38.5t15.5 39.5t38.5 16.5q22 0 38 -16.5t16 -39.5t-16 -38.5t-38 -15.5zM115 675q-22 0 -38 15.5t-16 38.5t16 39.5t38 16.5q23 0 38.5 -16.5t15.5 -39.5t-15.5 -38.5t-38.5 -15.5zM0 -5l10 166h136q16 0 26.5 2t17 6.5t9 12t2.5 18.5
q0 27 -21.5 58t-50.5 60q-21 23 -39.5 41t-33 33t-22.5 26t-8 20q0 15 2.5 37t7 42t11.5 27q17 19 52.5 43.5t83 51t101 54t108.5 52.5l72 -143q-59 -27 -106.5 -50.5t-85.5 -44t-66 -39t-48 -36.5l-3 91q52 -42 94 -86t72 -87.5t46 -85t16 -79.5q0 -35 -14.5 -68.5t-46 -61
t-81.5 -44t-121 -16.5h-120z" />
    <glyph glyph-name="uni063B.medi" unicode="&#x63b;" horiz-adv-x="499" 
d="M249 739q-23 0 -38.5 15.5t-15.5 38.5t15.5 39.5t38.5 16.5q22 0 38 -16.5t16 -39.5t-16 -38.5t-38 -15.5zM122 676q-22 0 -38 15.5t-16 38.5t16 39.5t38 16.5q23 0 38.5 -16.5t15.5 -39.5t-15.5 -38.5t-38.5 -15.5zM0 -5l10 166h127q22 0 36.5 3t21 12t6.5 24
q0 18 -12.5 40.5t-32.5 46t-42.5 47t-42.5 44.5t-32.5 37.5t-12.5 25.5q0 22 2.5 43t7 37t11.5 23q17 19 48.5 41t75.5 47.5t99.5 53t121.5 59.5l72 -143q-68 -32 -117 -56.5t-84.5 -44t-61 -37t-46.5 -35.5l2 91q24 -23 53 -52.5t58 -64t55.5 -74.5t46.5 -85
q17 -37 34.5 -55t42.5 -23t62 -5q44 0 64.5 -24t20.5 -57q0 -37 -24.5 -61t-70.5 -24q-57 0 -98.5 12t-67.5 38.5t-36 71.5h59q-15 -29 -37 -52t-51.5 -38.5t-67.5 -23.5t-84 -8h-116z" />
    <glyph glyph-name="uni063B.fina" unicode="&#x63b;" horiz-adv-x="972" 
d="M714 749q-23 0 -39 15.5t-16 38.5t16 39.5t39 16.5q22 0 38 -16.5t16 -39.5t-16 -38.5t-38 -15.5zM587 686q-23 0 -39 15.5t-16 38.5t16 39.5t39 16.5q22 0 38 -16.5t16 -39.5t-16 -38.5t-38 -15.5zM432 -21l26 166q50 0 88.5 2t65 7.5t41 17.5t14.5 32q0 17 -13 38
t-33 44.5t-42 46.5t-42.5 44t-33 37t-12.5 25q0 22 2.5 43.5t7 38t11.5 23.5q23 25 68 54.5t114 66t162 80.5l72 -143q-59 -29 -116 -57t-105.5 -56t-82.5 -58v89q26 -25 54 -53.5t56.5 -61.5t55 -73t49.5 -89q12 -27 25.5 -43.5t31 -24.5t38.5 -11t49 -3q44 0 63.5 -24
t19.5 -57q0 -37 -24 -61t-69 -24q-50 0 -92 10t-71 36.5t-40 75.5h51q-23 -46 -61.5 -73.5t-89 -41.5t-111 -18.5t-127.5 -4.5zM432 -21q-118 0 -195 20t-121.5 54t-63 77t-18.5 89q0 40 6.5 77.5t16.5 70.5t18 58l145 -36q-5 -20 -10 -40.5t-8 -41t-3 -40.5
q0 -36 22.5 -63.5t78.5 -43t158 -15.5l20 -134z" />
    <glyph glyph-name="uni063C.init" unicode="&#x63c;" horiz-adv-x="461" 
d="M0 -5l10 166h136q16 0 26.5 2t17 6.5t9 12t2.5 18.5q0 27 -21.5 58t-50.5 60q-21 23 -39.5 41t-33 33t-22.5 26t-8 20q0 15 2.5 37t7 42t11.5 27q17 19 52.5 43.5t83 51t101 54t108.5 52.5l72 -143q-59 -27 -106.5 -50.5t-85.5 -44t-66 -39t-48 -36.5l-3 91
q52 -42 94 -86t72 -87.5t46 -85t16 -79.5q0 -35 -14.5 -68.5t-46 -61t-81.5 -44t-121 -16.5h-120zM205 -390q-31 0 -52 21t-21 52q0 30 21 52.5t52 22.5q30 0 51 -22.5t21 -52.5q0 -31 -21 -52t-51 -21zM115 -234q-31 0 -52 21t-21 52q0 30 21 52.5t52 22.5t52 -22.5
t21 -52.5q0 -31 -21 -52t-52 -21zM299 -234q-31 0 -52 21t-21 52q0 30 21 52.5t52 22.5q32 0 52.5 -22.5t20.5 -52.5q0 -31 -20.5 -52t-52.5 -21z" />
    <glyph glyph-name="uni063C.medi" unicode="&#x63c;" horiz-adv-x="499" 
d="M0 -5l10 166h127q22 0 36.5 3t21 12t6.5 24q0 18 -12.5 40.5t-32.5 46t-42.5 47t-42.5 44.5t-32.5 37.5t-12.5 25.5q0 22 2.5 43t7 37t11.5 23q17 19 48.5 41t75.5 47.5t99.5 53t121.5 59.5l72 -143q-68 -32 -117 -56.5t-84.5 -44t-61 -37t-46.5 -35.5l2 91
q24 -23 53 -52.5t58 -64t55.5 -74.5t46.5 -85q17 -37 34.5 -55t42.5 -23t62 -5q44 0 64.5 -24t20.5 -57q0 -37 -24.5 -61t-70.5 -24q-57 0 -98.5 12t-67.5 38.5t-36 71.5h59q-15 -29 -37 -52t-51.5 -38.5t-67.5 -23.5t-84 -8h-116zM201 -390q-31 0 -52 21t-21 52
q0 30 21 52.5t52 22.5q30 0 51 -22.5t21 -52.5q0 -31 -21 -52t-51 -21zM111 -234q-31 0 -52 21t-21 52q0 30 21 52.5t52 22.5t52 -22.5t21 -52.5q0 -31 -21 -52t-52 -21zM295 -234q-31 0 -52 21t-21 52q0 30 21 52.5t52 22.5q32 0 52.5 -22.5t20.5 -52.5q0 -31 -20.5 -52
t-52.5 -21z" />
    <glyph glyph-name="uni063C.fina" unicode="&#x63c;" horiz-adv-x="972" 
d="M432 -21l26 166q50 0 88.5 2t65 7.5t41 17.5t14.5 32q0 17 -13 38t-33 44.5t-42 46.5t-42.5 44t-33 37t-12.5 25q0 22 2.5 43.5t7 38t11.5 23.5q23 25 68 54.5t114 66t162 80.5l72 -143q-59 -29 -116 -57t-105.5 -56t-82.5 -58v89q26 -25 54 -53.5t56.5 -61.5t55 -73
t49.5 -89q12 -27 25.5 -43.5t31 -24.5t38.5 -11t49 -3q44 0 63.5 -24t19.5 -57q0 -37 -24 -61t-69 -24q-50 0 -92 10t-71 36.5t-40 75.5h51q-23 -46 -61.5 -73.5t-89 -41.5t-111 -18.5t-127.5 -4.5zM432 -21q-118 0 -195 20t-121.5 54t-63 77t-18.5 89q0 40 6.5 77.5
t16.5 70.5t18 58l145 -36q-5 -20 -10 -40.5t-8 -41t-3 -40.5q0 -36 22.5 -63.5t78.5 -43t158 -15.5l20 -134zM448 -411q-31 0 -52 21t-21 52q0 30 21 52.5t52 22.5q30 0 51 -22.5t21 -52.5q0 -31 -21 -52t-51 -21zM358 -255q-31 0 -52 21t-21 52q0 30 21 52.5t52 22.5
t52 -22.5t21 -52.5q0 -31 -21 -52t-52 -21zM542 -255q-31 0 -52 21t-21 52q0 30 21 52.5t52 22.5q32 0 52.5 -22.5t20.5 -52.5q0 -31 -20.5 -52t-52.5 -21z" />
    <glyph glyph-name="uni063D.init" unicode="&#x63d;" horiz-adv-x="323" 
d="M0 -5l10 166q33 0 53 7.5t30 25t10 45.5q0 33 -8 75t-19 85.5t-22 77.5l159 43q12 -35 25.5 -82t22.5 -99.5t9 -105.5q0 -64 -17 -106.5t-46 -68.5t-65 -39.5t-72.5 -18.5t-69.5 -5zM164 825q8 -15 19 -38.5t23 -50t23.5 -50.5t20.5 -41l-64 -30q-6 13 -16 35t-21 47
t-21.5 47.5t-18.5 35.5l-22 40zM87 820l57 -20q-6 -17 -16 -44.5t-20.5 -57t-19.5 -53.5t-13 -34l-64 24q5 12 15 36.5t22 52.5t23 54t16 42zM205 -237q-31 0 -51.5 21t-20.5 52t20.5 52t51.5 21t53 -21t22 -52t-22 -52t-53 -21zM28 -237q-32 0 -53 21t-21 52t21.5 52
t51.5 21q31 0 52.5 -21t21.5 -52t-21.5 -52t-51.5 -21z" />
    <glyph glyph-name="uni063D.medi" unicode="&#x63d;" horiz-adv-x="379" 
d="M0 -5l10 166q29 0 48.5 6.5t32.5 28t22 64.5t18 116l163 -26q-1 -14 -3.5 -32t-4.5 -38t-2 -39q0 -27 10.5 -45t34 -26.5t60.5 -8.5q44 0 64 -24t20 -57q0 -38 -24 -61.5t-70 -23.5q-64 0 -107 17t-66 53t-29 92h59q-18 -56 -46 -89t-61 -48.5t-66.5 -20t-62.5 -4.5z
M223 712q8 -15 19 -38.5t23 -50t23.5 -50.5t20.5 -41l-64 -30q-6 13 -16 35t-21 47t-21.5 47.5t-18.5 35.5l-22 40zM146 707l57 -20q-6 -17 -16 -44.5t-20.5 -57t-19.5 -53.5t-13 -34l-64 24q5 12 15 36.5t22 52.5t23 54t16 42zM258 -237q-31 0 -51.5 21t-20.5 52t20.5 52
t51.5 21t53 -21t22 -52t-22 -52t-53 -21zM81 -237q-32 0 -53 21t-21 52t21.5 52t51.5 21q31 0 52.5 -21t21.5 -52t-21.5 -52t-51.5 -21z" />
    <glyph glyph-name="uni063D.fina" unicode="&#x63d;" horiz-adv-x="792" 
d="M24 31q0 27 4 58.5t16 73.5t36 101l153 -54q-14 -39 -21.5 -64.5t-10 -44.5t-2.5 -39q0 -27 11 -50t34 -40t59 -26.5t86 -9.5q61 0 99.5 10.5t59.5 25.5t29 30t8 23t-6.5 16t-20.5 16.5t-36.5 18t-52.5 20.5l45 144q37 -15 75 -29.5t75.5 -25.5t72 -17.5t65.5 -6.5
q43 0 63.5 -24t20.5 -57q0 -38 -24 -61.5t-70 -23.5h-15.5h-15h-14.5q1 -6 1.5 -11t0.5 -12q0 -31 -22.5 -66t-68.5 -66t-117 -51t-166 -20q-101 0 -180 28.5t-125 87t-46 146.5zM265 524q8 -15 19 -38.5t23 -50t23.5 -50.5t20.5 -41l-64 -30q-6 13 -16 35t-21 47
t-21.5 47.5t-18.5 35.5l-22 40zM188 519l57 -20q-6 -17 -16 -44.5t-20.5 -57t-19.5 -53.5t-13 -34l-64 24q5 12 15 36.5t22 52.5t23 54t16 42z" />
    <glyph glyph-name="uni063E.init" unicode="&#x63e;" horiz-adv-x="391" 
d="M0 -5l10 166q60 0 92 9t43.5 26.5t11.5 44.5q0 33 -7.5 74.5t-18 84.5t-21.5 77l158 43q12 -35 25.5 -81t22 -98t8.5 -104q0 -79 -27 -127.5t-72.5 -73t-103.5 -33t-121 -8.5zM283 614q-31 0 -51.5 21.5t-20.5 51.5q0 32 20.5 52.5t51.5 20.5t53 -20.5t22 -52.5
q0 -30 -22 -51.5t-53 -21.5zM105 614q-31 0 -52 21.5t-21 51.5q0 32 21 52.5t52 20.5q30 0 52 -20.5t22 -52.5q0 -30 -22 -51.5t-52 -21.5zM275 -237q-31 0 -51.5 21t-20.5 52t20.5 52t51.5 21t53 -21t22 -52t-22 -52t-53 -21zM97 -237q-31 0 -52 21t-21 52t21 52t52 21
q30 0 52 -21t22 -52t-22 -52t-52 -21z" />
    <glyph glyph-name="uni063E.medi" unicode="&#x63e;" horiz-adv-x="430" 
d="M0 -5l10 166q38 0 62.5 6.5t39.5 28t24.5 64.5t19.5 116l162 -26q-1 -14 -3.5 -32t-4.5 -38t-2 -39q0 -21 6.5 -36t21 -25t40 -14.5t64.5 -4.5q44 0 64.5 -24t20.5 -57q0 -38 -24.5 -61.5t-70.5 -23.5q-59 0 -100.5 9.5t-68.5 29.5t-41.5 50.5t-18.5 72.5h59
q-18 -56 -46.5 -89t-63.5 -48.5t-73.5 -20t-76.5 -4.5zM373 505q-31 0 -51.5 21.5t-20.5 51.5q0 32 20.5 52.5t51.5 20.5t53 -20.5t22 -52.5q0 -30 -22 -51.5t-53 -21.5zM195 505q-31 0 -52 21.5t-21 51.5q0 32 21 52.5t52 20.5q30 0 52 -20.5t22 -52.5q0 -30 -22 -51.5
t-52 -21.5zM333 -237q-31 0 -51.5 21t-20.5 52t20.5 52t51.5 21t53 -21t22 -52t-22 -52t-53 -21zM155 -237q-31 0 -52 21t-21 52t21 52t52 21q30 0 52 -21t22 -52t-22 -52t-52 -21z" />
    <glyph glyph-name="uni063E.fina" unicode="&#x63e;" horiz-adv-x="792" 
d="M24 31q0 27 4 58.5t16 73.5t36 101l153 -54q-14 -39 -21.5 -64.5t-10 -44.5t-2.5 -39q0 -27 11 -50t34 -40t59 -26.5t86 -9.5q61 0 99.5 10.5t59.5 25.5t29 30t8 23t-6.5 16t-20.5 16.5t-36.5 18t-52.5 20.5l45 144q37 -15 75 -29.5t75.5 -25.5t72 -17.5t65.5 -6.5
q43 0 63.5 -24t20.5 -57q0 -38 -24 -61.5t-70 -23.5h-15.5h-15h-14.5q1 -6 1.5 -11t0.5 -12q0 -31 -22.5 -66t-68.5 -66t-117 -51t-166 -20q-101 0 -180 28.5t-125 87t-46 146.5zM350 369q-31 0 -51.5 21.5t-20.5 51.5q0 32 20.5 52.5t51.5 20.5t53 -20.5t22 -52.5
q0 -30 -22 -51.5t-53 -21.5zM173 369q-32 0 -53 21.5t-21 51.5q0 32 21 52.5t52 20.5q30 0 52 -20.5t22 -52.5q0 -30 -21.5 -51.5t-51.5 -21.5z" />
    <glyph glyph-name="uni063F.init" unicode="&#x63f;" horiz-adv-x="391" 
d="M0 -5l10 166q60 0 92 9t43.5 26.5t11.5 44.5q0 33 -7.5 74.5t-18 84.5t-21.5 77l158 43q12 -35 25.5 -81t22 -98t8.5 -104q0 -79 -27 -127.5t-72.5 -73t-103.5 -33t-121 -8.5zM196 764q-33 0 -54 21.5t-21 50.5q0 31 21 53t54 22q30 0 51.5 -22t21.5 -53
q0 -29 -21.5 -50.5t-51.5 -21.5zM110 607q-31 0 -53.5 23t-22.5 53q0 29 22.5 52t53.5 23q30 0 51 -23t21 -52q0 -30 -21 -53t-51 -23zM283 607q-30 0 -50 23t-20 53q0 29 20 52t50 23q31 0 53 -23t22 -52q0 -30 -22 -53t-53 -23zM275 -237q-31 0 -51.5 21t-20.5 52t20.5 52
t51.5 21t53 -21t22 -52t-22 -52t-53 -21zM98 -237q-32 0 -53 21t-21 52t21.5 52t51.5 21q31 0 52.5 -21t21.5 -52t-21.5 -52t-51.5 -21z" />
    <glyph glyph-name="uni063F.medi" unicode="&#x63f;" horiz-adv-x="430" 
d="M0 -5l10 166q38 0 62.5 6.5t39.5 28t24.5 64.5t19.5 116l162 -26q-1 -14 -3.5 -32t-4.5 -38t-2 -39q0 -21 6.5 -36t21 -25t40 -14.5t64.5 -4.5q44 0 64.5 -24t20.5 -57q0 -38 -24.5 -61.5t-70.5 -23.5q-59 0 -100.5 9.5t-68.5 29.5t-41.5 50.5t-18.5 72.5h59
q-18 -56 -46.5 -89t-63.5 -48.5t-73.5 -20t-76.5 -4.5zM235 647q-32 0 -53 21.5t-21 50.5q0 31 21 53t53 22q31 0 52.5 -22t21.5 -53q0 -29 -21.5 -50.5t-52.5 -21.5zM150 490q-31 0 -53.5 23t-22.5 53q0 29 22.5 52t53.5 23q29 0 50.5 -23t21.5 -52q0 -30 -21.5 -53
t-50.5 -23zM323 490q-30 0 -50 23t-20 53q0 29 20 52t50 23q31 0 53 -23t22 -52q0 -30 -22 -53t-53 -23zM293 -237q-31 0 -51.5 21t-20.5 52t20.5 52t51.5 21t53 -21t22 -52t-22 -52t-53 -21zM115 -237q-31 0 -52 21t-21 52t21 52t52 21q30 0 52 -21t22 -52t-22 -52t-52 -21
z" />
    <glyph glyph-name="uni063F.fina" unicode="&#x63f;" horiz-adv-x="792" 
d="M24 31q0 27 4 58.5t16 73.5t36 101l153 -54q-14 -39 -21.5 -64.5t-10 -44.5t-2.5 -39q0 -27 11 -50t34 -40t59 -26.5t86 -9.5q61 0 99.5 10.5t59.5 25.5t29 30t8 23t-6.5 16t-20.5 16.5t-36.5 18t-52.5 20.5l45 144q37 -15 75 -29.5t75.5 -25.5t72 -17.5t65.5 -6.5
q43 0 63.5 -24t20.5 -57q0 -38 -24 -61.5t-70 -23.5h-15.5h-15h-14.5q1 -6 1.5 -11t0.5 -12q0 -31 -22.5 -66t-68.5 -66t-117 -51t-166 -20q-101 0 -180 28.5t-125 87t-46 146.5zM257 525q-32 0 -53 21t-21 51q0 31 21 53t53 22q31 0 52.5 -22t21.5 -53q0 -30 -21.5 -51
t-52.5 -21zM172 368q-31 0 -53.5 23t-22.5 52q0 30 22.5 53t53.5 23q29 0 50.5 -23t21.5 -53q0 -29 -21.5 -52t-50.5 -23zM345 368q-30 0 -50 23t-20 52q0 30 20 53t50 23t52.5 -23t22.5 -53q0 -29 -22.5 -52t-52.5 -23z" />
    <glyph glyph-name="uni066E.init" unicode="&#x66e;" horiz-adv-x="323" 
d="M0 -5l10 166q33 0 53 7.5t30 25t10 45.5q0 33 -8 75t-19 85.5t-22 77.5l159 43q12 -35 25.5 -82t22.5 -99.5t9 -105.5q0 -64 -17 -106.5t-46 -68.5t-65 -39.5t-72.5 -18.5t-69.5 -5z" />
    <glyph glyph-name="uni066E.medi" unicode="&#x66e;" horiz-adv-x="379" 
d="M0 -5l10 166q29 0 48.5 6.5t32.5 28t22 64.5t18 116l163 -26q-1 -14 -3.5 -32t-4.5 -38t-2 -39q0 -27 10.5 -45t34 -26.5t60.5 -8.5q44 0 64 -24t20 -57q0 -38 -24 -61.5t-70 -23.5q-64 0 -107 17t-66 53t-29 92h59q-18 -56 -46 -89t-61 -48.5t-66.5 -20t-62.5 -4.5z" />
    <glyph glyph-name="uni066E.fina" unicode="&#x66e;" horiz-adv-x="1131" 
d="M456 -21l26 166q102 0 173.5 14.5t120 41.5t81 65t56.5 85l139 -61q-9 -22 -14 -38t-5 -29q0 -20 13.5 -34t37.5 -21t57 -7q44 0 64.5 -24t20.5 -57q0 -38 -24.5 -61.5t-70.5 -23.5q-65 0 -113.5 16.5t-76 50t-29.5 84.5l50 12q-29 -46 -75 -79.5t-108.5 -56t-143 -33
t-179.5 -10.5zM456 -21q-118 0 -195 20t-121.5 54t-63 77t-18.5 89q0 40 6.5 77.5t16.5 70.5t18 58l145 -36q-5 -20 -10 -40.5t-8 -41t-3 -40.5q0 -36 22.5 -63.5t78.5 -43t158 -15.5l20 -134z" />
    <glyph glyph-name="uni066F.init" unicode="&#x66f;" horiz-adv-x="520" 
d="M0 -5l10 166h77.5t70 1.5t57.5 4.5t40 9q22 9 33.5 26t16 43.5t4.5 61.5q0 54 -7 87.5t-19 48.5t-28 15q-12 0 -22.5 -9t-15.5 -25.5t-5 -39.5q0 -15 6 -25.5t16.5 -16.5t25.5 -6q16 0 36 5t41 16l4 -116q-16 -13 -36.5 -23t-43.5 -15t-49 -5q-44 0 -80 18.5t-57.5 54
t-21.5 85.5q0 46 15 88.5t42.5 76.5t66.5 53.5t86 19.5q63 0 110 -36.5t73.5 -103.5t26.5 -161q0 -90 -26.5 -152t-83.5 -95q-30 -18 -69 -28t-85 -15t-99 -6.5t-110 -1.5z" />
    <glyph glyph-name="uni066F.medi" unicode="&#x66f;" horiz-adv-x="518" 
d="M0 -5l10 166q18 0 46 1.5t59.5 4.5t60 8t47.5 11q31 11 50 27.5t28 35.5t9 39q0 17 -6.5 31t-17 23t-21.5 9t-22.5 -8.5t-19 -24t-7.5 -36.5q0 -14 6 -30.5t20 -32.5t39 -32l-146 -62q-26 27 -44.5 53t-27.5 54.5t-9 62.5q0 44 18.5 81.5t49.5 65.5t69 43.5t77 15.5
q58 0 104 -28.5t73 -73.5t27 -96q0 -52 -17.5 -92.5t-46.5 -71t-64 -53.5t-69 -41q-26 -14 -64.5 -23.5t-79.5 -15.5t-75.5 -8.5t-55.5 -2.5zM518 -5q-54 0 -109.5 7t-104 20t-79.5 31l69 133q30 -12 70 -17.5t82.5 -6.5t81.5 -1q44 0 64 -24t20 -57q0 -37 -24.5 -61
t-69.5 -24z" />
    <glyph glyph-name="uni066F.fina" unicode="&#x66f;" horiz-adv-x="834" 
d="M351 -272q-66 0 -125.5 15t-104.5 47.5t-71 83t-26 120.5q0 28 4 58.5t16 71.5t36 100l153 -55q-14 -39 -21.5 -63.5t-10 -42.5t-2.5 -39q0 -38 20 -67.5t59.5 -46t98.5 -16.5q39 0 72 6.5t60 17.5t48 26t35 32.5t21 36.5q9 23 12 53.5t3 75.5q0 49 -5 78.5t-15.5 42.5
t-27.5 13q-11 0 -19 -6t-14 -15.5t-9 -20.5t-3 -21q0 -19 6.5 -32.5t26.5 -21t60.5 -7.5t109.5 9h106q44 0 64 -24t20 -57q0 -37 -23.5 -61t-70.5 -24h-173q-56 0 -107.5 8t-92.5 28t-65 55t-24 90q0 47 16 89.5t45.5 75.5t70 52t88.5 19q64 0 109 -37t68.5 -102t23.5 -149
q0 -58 -16 -110.5t-37 -90.5q-25 -46 -63 -82t-87.5 -61.5t-109.5 -38.5t-129 -13z" />
    <glyph glyph-name="uni0672.fina" unicode="&#x672;" horiz-adv-x="322" 
d="M322 -5q-93 0 -145.5 20t-74 61t-24.5 105l-20 503h171l20 -413q3 -50 11.5 -73.5t26 -30t45.5 -6.5q44 0 64.5 -24t20.5 -57q0 -38 -24.5 -61.5t-70.5 -23.5zM13 748l-61 42q12 27 33.5 39t39.5 12q20 0 37.5 -10.5t28.5 -10.5q15 0 27 1t21 5l-15 -25
q-29 11 -47.5 37.5t-18.5 58.5q0 44 31 71t78 27q16 0 30.5 -2t24.5 -6l-8 -67q-9 2 -17.5 4t-19.5 2q-21 0 -32.5 -8t-11.5 -23q0 -19 12.5 -32.5t28.5 -21t27 -7.5l-35 -3q25 6 44 14.5t37 15.5l22 -66q-7 -4 -26.5 -11.5t-43.5 -15.5t-46 -13.5t-34 -5.5q-30 0 -47 10.5
t-27 10.5q-8 0 -15.5 -5.5t-16.5 -16.5z" />
    <glyph glyph-name="uni0673.fina" unicode="&#x673;" horiz-adv-x="326" 
d="M326 -5q-94 0 -146 20t-74 61t-25 105l-23 579h171l23 -489q3 -50 11.5 -73.5t26 -30t46.5 -6.5q44 0 64 -24t20 -57q0 -38 -24 -61.5t-70 -23.5zM42 -317l-61 43q12 27 33.5 39t38.5 12q20 0 38 -10.5t28 -10.5q16 0 28 0.5t20 4.5l-15 -24q-28 10 -47 36.5t-19 58.5
q0 44 31 71.5t79 27.5q16 0 30 -2t25 -6l-8 -68q-10 2 -18.5 4t-19.5 2q-21 0 -32 -7.5t-11 -23.5q0 -18 12 -31.5t28.5 -21t27.5 -7.5l-35 -4q25 7 43.5 15t37.5 15l22 -65q-8 -4 -27.5 -12t-43.5 -15.5t-45.5 -13.5t-34.5 -6q-30 0 -47 11t-26 11t-16.5 -5.5t-15.5 -17.5z
" />
    <glyph glyph-name="uni0675.fina" unicode="&#x675;" horiz-adv-x="509" 
d="M509 -5h-177q-91 0 -145 20.5t-78.5 61.5t-27.5 104l-23 579h171l23 -489q2 -45 10 -69t26 -32.5t50 -8.5h181q44 0 64 -24t20 -57q0 -38 -24 -61.5t-70 -23.5zM296 578l-18 74q41 6 59.5 10t38.5 9l-19 -31q-26 9 -49.5 36t-23.5 62q0 39 17 62t43.5 33.5t53.5 10.5
q17 0 31 -2t25 -6l-8 -70q-10 2 -20.5 4t-22.5 2q-19 0 -30 -9t-11 -23q0 -19 12 -32.5t28 -21t27 -8.5l-45 -4q27 7 51 14.5t46 15.5l22 -71q-26 -9 -60 -19.5t-71.5 -19.5t-75.5 -16z" />
    <glyph glyph-name="uni0676.fina" unicode="&#x676;" horiz-adv-x="515" 
d="M46 -231l-30 151q71 4 126 19t92.5 40t57.5 61.5t20 84.5q0 75 -15.5 118t-43.5 43q-15 0 -25 -13t-15 -32t-5 -36q0 -16 6 -28t24 -19t53 -6.5t94 9.5h140q44 0 64.5 -24t20.5 -57q0 -38 -23 -61.5t-72 -23.5h-215q-81 0 -137.5 22t-85 62t-28.5 96q0 45 15 90.5t43 84
t66.5 61.5t84.5 23q68 0 115.5 -41.5t72 -109t24.5 -146.5q0 -104 -49 -182t-143.5 -125.5t-231.5 -60.5zM349 441l-18 72q40 6 57.5 9.5t37.5 8.5l-19 -30q-25 9 -47.5 35t-22.5 60q0 38 16.5 60t41.5 32.5t52 10.5q17 0 30.5 -2t23.5 -6l-7 -68l-20 4t-22 2
q-19 0 -29.5 -8.5t-10.5 -22.5q0 -18 12 -31t27.5 -20.5t25.5 -8.5l-43 -4q26 7 49 14.5t44 14.5l22 -68q-26 -9 -58.5 -19t-69 -19t-72.5 -16z" />
    <glyph glyph-name="uni0677.fina" unicode="&#x677;" horiz-adv-x="516" 
d="M47 -231l-30 151q71 4 126 19t92.5 40t57.5 61.5t20 84.5q0 75 -15.5 118t-43.5 43q-15 0 -25 -13t-15 -32t-5 -36q0 -16 6 -28t24 -19t53 -6.5t94 9.5h140q44 0 64.5 -24t20.5 -57q0 -38 -23 -61.5t-72 -23.5h-215q-81 0 -137.5 22t-85 62t-28.5 96q0 45 15 90.5t43 84
t66.5 61.5t84.5 23q68 0 115.5 -41.5t72 -109t24.5 -146.5q0 -104 -49 -182t-143.5 -125.5t-231.5 -60.5zM339 441l-18 72q40 6 57.5 9.5t37.5 8.5l-19 -30q-25 9 -47.5 35t-22.5 60q0 38 16.5 60t41.5 32.5t52 10.5q17 0 30.5 -2t23.5 -6l-7 -68l-20 4t-22 2
q-19 0 -29.5 -8.5t-10.5 -22.5q0 -18 12 -31t27.5 -20.5t25.5 -8.5l-43 -4q26 7 49 14.5t44 14.5l22 -68q-26 -9 -58.5 -19t-69 -19t-72.5 -16zM36 433l-13 66q60 1 104 16.5t68.5 38t24.5 43.5q0 13 -7.5 23.5t-22.5 10.5q-12 0 -21.5 -9t-9.5 -24q0 -18 14 -31t33 -22
l-49 -41q-28 14 -48.5 38.5t-20.5 60.5q0 43 29.5 69.5t73.5 26.5q50 0 75 -30.5t25 -70.5q0 -44 -30 -79.5t-87 -58t-138 -27.5z" />
    <glyph glyph-name="uni0678.init" unicode="&#x678;" horiz-adv-x="390" 
d="M0 -5l10 166q33 0 53 7.5t30 25t10 45.5q0 33 -8 75t-19 85.5t-22 77.5l159 43q12 -35 25.5 -82t22.5 -99.5t9 -105.5q0 -64 -17 -106.5t-46 -68.5t-65 -39.5t-72.5 -18.5t-69.5 -5zM183 578l-18 74q41 6 59.5 10t38.5 9l-19 -31q-26 9 -49.5 36t-23.5 62q0 39 17 62
t43.5 33.5t53.5 10.5q17 0 31 -2t25 -6l-8 -70q-10 2 -20.5 4t-22.5 2q-19 0 -30 -9t-11 -23q0 -19 12 -32.5t28 -21t27 -8.5l-45 -4q27 7 51 14.5t46 15.5l22 -71q-26 -9 -60 -19.5t-71.5 -19.5t-75.5 -16z" />
    <glyph glyph-name="uni0678.medi" unicode="&#x678;" horiz-adv-x="378" 
d="M0 -5l10 166q29 0 48.5 6.5t32.5 28t22 64.5t18 116l163 -26q-1 -14 -3.5 -32t-4.5 -38t-2 -39q0 -27 10.5 -45t34 -26.5t60.5 -8.5q44 0 64 -24t20 -57q0 -38 -24 -61.5t-70 -23.5q-64 0 -107 17t-66 53t-29 92h59q-18 -56 -46 -89t-61 -48.5t-66.5 -20t-62.5 -4.5z
M186 409l-18 74q41 6 59.5 10t38.5 9l-19 -31q-26 9 -49.5 36t-23.5 62q0 39 17 62t43.5 33.5t53.5 10.5q17 0 31 -2t25 -6l-8 -70q-10 2 -20.5 4t-22.5 2q-19 0 -30 -9t-11 -23q0 -19 12 -32.5t28 -21t27 -8.5l-45 -4q27 7 51 14.5t46 15.5l22 -71q-26 -9 -60 -19.5
t-71.5 -19.5t-75.5 -16z" />
    <glyph glyph-name="uni0678.fina" unicode="&#x678;" horiz-adv-x="792" 
d="M24 31q0 27 4 58.5t16 73.5t36 101l153 -54q-14 -39 -21.5 -64.5t-10 -44.5t-2.5 -39q0 -27 11 -50t34 -40t59 -26.5t86 -9.5q61 0 99.5 10.5t59.5 25.5t29 30t8 23t-6.5 16t-20.5 16.5t-36.5 18t-52.5 20.5l45 144q37 -15 75 -29.5t75.5 -25.5t72 -17.5t65.5 -6.5
q43 0 63.5 -24t20.5 -57q0 -38 -24 -61.5t-70 -23.5h-15.5h-15h-14.5q1 -6 1.5 -11t0.5 -12q0 -31 -22.5 -66t-68.5 -66t-117 -51t-166 -20q-101 0 -180 28.5t-125 87t-46 146.5zM567 255l-18 74q41 6 59.5 10t38.5 9l-19 -31q-26 9 -49.5 36t-23.5 62q0 39 17 62t43.5 33.5
t53.5 10.5q17 0 31 -2t25 -6l-8 -70q-10 2 -20.5 4t-22.5 2q-19 0 -30 -9t-11 -23q0 -19 12 -32.5t28 -21t27 -8.5l-45 -4q27 7 51 14.5t46 15.5l22 -71q-26 -9 -60 -19.5t-71.5 -19.5t-75.5 -16z" />
    <glyph glyph-name="uni067C.init" unicode="&#x67c;" horiz-adv-x="391" 
d="M0 -5l10 166q60 0 92 9t43.5 26.5t11.5 44.5q0 33 -7.5 74.5t-18 84.5t-21.5 77l158 43q12 -35 25.5 -81t22 -98t8.5 -104q0 -79 -27 -127.5t-72.5 -73t-103.5 -33t-121 -8.5zM209 -110q-42 0 -71 29t-29 71t29 71t71 29q41 0 70.5 -29t29.5 -71t-29.5 -71t-70.5 -29z
M209 -40q13 0 22 8.5t9 21.5q0 14 -9 22.5t-22 8.5t-22.5 -9t-9.5 -22t9.5 -21.5t22.5 -8.5zM285 610q-31 0 -51.5 22t-20.5 51q0 32 20.5 52.5t51.5 20.5q30 0 52.5 -20.5t22.5 -52.5q0 -29 -22.5 -51t-52.5 -22zM107 610q-31 0 -52 22t-21 51q0 32 21 52.5t52 20.5
q30 0 52 -20.5t22 -52.5q0 -29 -22 -51t-52 -22z" />
    <glyph glyph-name="uni067C.medi" unicode="&#x67c;" horiz-adv-x="379" 
d="M115 -120q-41 0 -70 29.5t-29 70.5t29 70.5t71 29.5t71 -29.5t29 -70.5t-29 -70.5t-72 -29.5zM116 -50q13 0 22 8.5t9 21.5q0 14 -9 22.5t-22 8.5t-22.5 -9t-9.5 -22t10 -21.5t22 -8.5zM0 -5l10 166q29 0 48.5 6.5t32.5 28t22 64.5t18 116l163 -26q-1 -14 -3.5 -32
t-4.5 -38t-2 -39q0 -27 10.5 -45t34 -26.5t60.5 -8.5q44 0 64 -24t20 -57q0 -38 -24 -61.5t-70 -23.5q-64 0 -107 17t-66 53t-29 92h59q-18 -56 -46 -89t-61 -48.5t-66.5 -20t-62.5 -4.5zM292 493q-31 0 -51.5 21.5t-20.5 51.5q0 32 20.5 52.5t51.5 20.5t53 -20.5t22 -52.5
q0 -30 -22 -51.5t-53 -21.5zM114 493q-31 0 -52 21.5t-21 51.5q0 32 21 52.5t52 20.5q30 0 52 -20.5t22 -52.5q0 -30 -22 -51.5t-52 -21.5z" />
    <glyph glyph-name="uni067C.fina" unicode="&#x67c;" horiz-adv-x="1131" 
d="M575 -149q-41 0 -70 29.5t-29 70.5t29 70.5t70 29.5q42 0 71 -29.5t29 -70.5t-29 -70.5t-71 -29.5zM575 -79q13 0 22.5 8.5t9.5 21.5q0 14 -9.5 22.5t-22.5 8.5q-12 0 -22 -9t-10 -22t10 -21.5t22 -8.5zM456 -21l26 166q102 0 173.5 14.5t120 41.5t81 65t56.5 85l139 -61
q-9 -22 -14 -38t-5 -29q0 -20 13.5 -34t37.5 -21t57 -7q44 0 64.5 -24t20.5 -57q0 -38 -24.5 -61.5t-70.5 -23.5q-65 0 -113.5 16.5t-76 50t-29.5 84.5l50 12q-29 -46 -75 -79.5t-108.5 -56t-143 -33t-179.5 -10.5zM456 -21q-118 0 -195 20t-121.5 54t-63 77t-18.5 89
q0 40 6.5 77.5t16.5 70.5t18 58l145 -36q-5 -20 -10 -40.5t-8 -41t-3 -40.5q0 -36 22.5 -63.5t78.5 -43t158 -15.5l20 -134zM638 461q-31 0 -51.5 21.5t-20.5 51.5q0 32 20.5 52.5t51.5 20.5t53 -20.5t22 -52.5q0 -30 -22 -51.5t-53 -21.5zM460 461q-31 0 -52 21.5t-21 51.5
q0 32 21 52.5t52 20.5q30 0 52 -20.5t22 -52.5q0 -30 -22 -51.5t-52 -21.5z" />
    <glyph glyph-name="uni067D.init" unicode="&#x67d;" horiz-adv-x="391" 
d="M0 -5l10 166q60 0 92 9t43.5 26.5t11.5 44.5q0 33 -7.5 74.5t-18 84.5t-21.5 77l158 43q12 -35 25.5 -81t22 -98t8.5 -104q0 -79 -27 -127.5t-72.5 -73t-103.5 -33t-121 -8.5zM189 607q-31 0 -52 21.5t-21 51.5q0 31 21 53t52 22q30 0 51.5 -22t21.5 -53
q0 -30 -21.5 -51.5t-51.5 -21.5zM103 763q-31 0 -52 21t-21 52t21 53t52 22q30 0 51 -22t21 -53t-21 -52t-51 -21zM280 763q-30 0 -51 21t-21 52t21 53t51 22q32 0 52.5 -22t20.5 -53t-20.5 -52t-52.5 -21z" />
    <glyph glyph-name="uni067D.medi" unicode="&#x67d;" horiz-adv-x="430" 
d="M0 -5l10 166q38 0 62.5 6.5t39.5 28t24.5 64.5t19.5 116l162 -26q-1 -14 -3.5 -32t-4.5 -38t-2 -39q0 -21 6.5 -36t21 -25t40 -14.5t64.5 -4.5q44 0 64.5 -24t20.5 -57q0 -38 -24.5 -61.5t-70.5 -23.5q-59 0 -100.5 9.5t-68.5 29.5t-41.5 50.5t-18.5 72.5h59
q-18 -56 -46.5 -89t-63.5 -48.5t-73.5 -20t-76.5 -4.5zM228 489q-31 0 -52 21.5t-21 51.5q0 31 21 53t52 22q30 0 51.5 -22t21.5 -53q0 -30 -21.5 -51.5t-51.5 -21.5zM142 645q-31 0 -52 21t-21 52t21 53t52 22q30 0 51 -22t21 -53t-21 -52t-51 -21zM319 645q-30 0 -51 21
t-21 52t21 53t51 22q32 0 52.5 -22t20.5 -53t-20.5 -52t-52.5 -21z" />
    <glyph glyph-name="uni067D.fina" unicode="&#x67d;" horiz-adv-x="1131" 
d="M456 -21l26 166q102 0 173.5 14.5t120 41.5t81 65t56.5 85l139 -61q-9 -22 -14 -38t-5 -29q0 -20 13.5 -34t37.5 -21t57 -7q44 0 64.5 -24t20.5 -57q0 -38 -24.5 -61.5t-70.5 -23.5q-65 0 -113.5 16.5t-76 50t-29.5 84.5l50 12q-29 -46 -75 -79.5t-108.5 -56t-143 -33
t-179.5 -10.5zM456 -21q-118 0 -195 20t-121.5 54t-63 77t-18.5 89q0 40 6.5 77.5t16.5 70.5t18 58l145 -36q-5 -20 -10 -40.5t-8 -41t-3 -40.5q0 -36 22.5 -63.5t78.5 -43t158 -15.5l20 -134zM543 458q-31 0 -52 21.5t-21 51.5q0 31 21 53t52 22q29 0 51 -22t22 -53
q0 -30 -22 -51.5t-51 -21.5zM457 614q-31 0 -52 21t-21 52t21 53t52 22q30 0 51 -22t21 -53t-21 -52t-51 -21zM634 614q-31 0 -51.5 21t-20.5 52t20.5 53t51.5 22q32 0 52.5 -22t20.5 -53t-20.5 -52t-52.5 -21z" />
    <glyph glyph-name="uni0681.init" unicode="&#x681;" horiz-adv-x="651" 
d="M0 -5l10 166q54 0 109 6t107.5 19t99.5 33.5t87 49.5q-33 12 -67 20t-69.5 12t-75.5 4q-16 0 -37.5 -1t-44 -3.5t-40.5 -6.5l-24 174q30 8 66.5 11.5t69.5 3.5q56 0 103 -11.5t86 -28.5t72 -34.5t62.5 -29t56.5 -11.5h37l21 -150q-37 -4 -70.5 -22t-68.5 -43.5
t-78.5 -52.5t-100.5 -51t-133 -39t-178 -15zM111 588l-18 72q40 6 57.5 9.5t37.5 8.5l-19 -30q-25 9 -47.5 35t-22.5 60q0 38 16.5 60t41.5 32.5t52 10.5q17 0 30.5 -2t23.5 -6l-7 -68l-20 4t-22 2q-19 0 -29.5 -8.5t-10.5 -22.5q0 -18 12 -31t27.5 -20.5t25.5 -8.5l-43 -4
q26 7 49 14.5t44 14.5l22 -68q-26 -9 -58.5 -19t-69 -19t-72.5 -16z" />
    <glyph glyph-name="uni0681.medi" unicode="&#x681;" horiz-adv-x="678" 
d="M678 -5q-45 0 -82.5 8.5t-68 27.5t-53.5 51t-38 79l92 72q13 -28 34.5 -44t53 -22t72.5 -6q44 0 64.5 -24t20.5 -57q0 -38 -24.5 -61.5t-70.5 -23.5zM0 -5l10 166q54 0 109 6t107.5 19t99.5 33.5t87 49.5q-33 12 -67 20t-69.5 12t-75.5 4q-16 0 -37.5 -1t-44 -3.5
t-40.5 -6.5l-24 174q30 8 66.5 11.5t69.5 3.5q56 0 103 -11.5t86 -28.5t72 -34.5t62.5 -29t56.5 -11.5h37l21 -150q-37 -4 -70.5 -22t-68.5 -43.5t-78.5 -52.5t-100.5 -51t-133 -39t-178 -15zM91 601l-18 72q40 6 57.5 9.5t37.5 8.5l-19 -30q-25 9 -47.5 35t-22.5 60
q0 38 16.5 60t41.5 32.5t52 10.5q17 0 30.5 -2t23.5 -6l-7 -68l-20 4t-22 2q-19 0 -29.5 -8.5t-10.5 -22.5q0 -18 12 -31t27.5 -20.5t25.5 -8.5l-43 -4q26 7 49 14.5t44 14.5l22 -68q-26 -9 -58.5 -19t-69 -19t-72.5 -16z" />
    <glyph glyph-name="uni0681.fina" unicode="&#x681;" horiz-adv-x="709" 
d="M709 -5q-54 0 -100 9t-81.5 33t-59 68.5t-34.5 113.5l120 64q8 -41 22 -65.5t34 -36.5t47.5 -16t61.5 -4q44 0 64.5 -24t20.5 -57q0 -38 -24.5 -61.5t-70.5 -23.5zM383 -394q-76 0 -141 20.5t-113.5 60t-75.5 98t-27 135.5q0 75 24 137t66.5 110.5t96.5 85.5t116 62
t126 39l11 -31q-22 6 -53 15t-66.5 16.5t-73 12.5t-75.5 5q-33 0 -67.5 -4t-61.5 -11l-25 173q31 8 64 14t66 6q56 0 104.5 -10t90.5 -25t78.5 -30.5t68 -26t57.5 -10.5h41l20 -189q-34 -2 -79.5 -12t-94.5 -28.5t-94.5 -44.5t-82.5 -60t-59 -75t-22 -90q0 -45 15.5 -77
t42.5 -52t62.5 -29.5t75.5 -9.5q48 0 100 9.5t113 32.5l50 -155q-82 -36 -152 -49t-126 -13zM218 648l-18 72q40 6 57.5 9.5t37.5 8.5l-19 -30q-25 9 -47.5 35t-22.5 60q0 38 16.5 60t41.5 32.5t52 10.5q17 0 30.5 -2t23.5 -6l-7 -68l-20 4t-22 2q-19 0 -29.5 -8.5
t-10.5 -22.5q0 -18 12 -31t27.5 -20.5t25.5 -8.5l-43 -4q26 7 49 14.5t44 14.5l22 -68q-26 -9 -58.5 -19t-69 -19t-72.5 -16z" />
    <glyph glyph-name="uni0682.init" unicode="&#x682;" horiz-adv-x="651" 
d="M0 -5l10 166q54 0 109 6t107.5 19t99.5 33.5t87 49.5q-33 12 -67 20t-69.5 12t-75.5 4q-16 0 -37.5 -1t-44 -3.5t-40.5 -6.5l-24 174q30 8 66.5 11.5t69.5 3.5q56 0 103 -11.5t86 -28.5t72 -34.5t62.5 -29t56.5 -11.5h37l21 -150q-37 -4 -70.5 -22t-68.5 -43.5
t-78.5 -52.5t-100.5 -51t-133 -39t-178 -15zM188 586q-30 0 -51 21.5t-21 50.5q0 31 21 53t51 22t51.5 -22t21.5 -52t-21.5 -51.5t-51.5 -21.5zM188 764q-30 0 -51 20.5t-21 51.5q0 30 21 52t51 22t51.5 -22t21.5 -52q0 -31 -21.5 -51.5t-51.5 -20.5z" />
    <glyph glyph-name="uni0682.medi" unicode="&#x682;" horiz-adv-x="678" 
d="M678 -5q-45 0 -82.5 8.5t-68 27.5t-53.5 51t-38 79l92 72q13 -28 34.5 -44t53 -22t72.5 -6q44 0 64.5 -24t20.5 -57q0 -38 -24.5 -61.5t-70.5 -23.5zM0 -5l10 166q54 0 109 6t107.5 19t99.5 33.5t87 49.5q-33 12 -67 20t-69.5 12t-75.5 4q-16 0 -37.5 -1t-44 -3.5
t-40.5 -6.5l-24 174q30 8 66.5 11.5t69.5 3.5q56 0 103 -11.5t86 -28.5t72 -34.5t62.5 -29t56.5 -11.5h37l21 -150q-37 -4 -70.5 -22t-68.5 -43.5t-78.5 -52.5t-100.5 -51t-133 -39t-178 -15zM181 599q-30 0 -51 21.5t-21 50.5q0 31 21 53t51 22t51.5 -22t21.5 -52
t-21.5 -51.5t-51.5 -21.5zM181 777q-30 0 -51 20.5t-21 51.5q0 30 21 52t51 22t51.5 -22t21.5 -52q0 -31 -21.5 -51.5t-51.5 -20.5z" />
    <glyph glyph-name="uni0682.fina" unicode="&#x682;" horiz-adv-x="709" 
d="M709 -5q-54 0 -100 9t-81.5 33t-59 68.5t-34.5 113.5l120 64q8 -41 22 -65.5t34 -36.5t47.5 -16t61.5 -4q44 0 64.5 -24t20.5 -57q0 -38 -24.5 -61.5t-70.5 -23.5zM383 -394q-76 0 -141 20.5t-113.5 60t-75.5 98t-27 135.5q0 75 24 137t66.5 110.5t96.5 85.5t116 62
t126 39l11 -31q-22 6 -53 15t-66.5 16.5t-73 12.5t-75.5 5q-33 0 -67.5 -4t-61.5 -11l-25 173q31 8 64 14t66 6q56 0 104.5 -10t90.5 -25t78.5 -30.5t68 -26t57.5 -10.5h41l20 -189q-34 -2 -79.5 -12t-94.5 -28.5t-94.5 -44.5t-82.5 -60t-59 -75t-22 -90q0 -45 15.5 -77
t42.5 -52t62.5 -29.5t75.5 -9.5q48 0 100 9.5t113 32.5l50 -155q-82 -36 -152 -49t-126 -13zM329 646q-30 0 -51 21.5t-21 50.5q0 31 21 53t51 22t51.5 -22t21.5 -52t-21.5 -51.5t-51.5 -21.5zM329 824q-30 0 -51 20.5t-21 51.5q0 30 21 52t51 22t51.5 -22t21.5 -52
q0 -31 -21.5 -51.5t-51.5 -20.5z" />
    <glyph glyph-name="uni0685.init" unicode="&#x685;" horiz-adv-x="651" 
d="M0 -5l10 166q54 0 109 6t107.5 19t99.5 33.5t87 49.5q-33 12 -67 20t-69.5 12t-75.5 4q-16 0 -37.5 -1t-44 -3.5t-40.5 -6.5l-24 174q30 8 66.5 11.5t69.5 3.5q56 0 103 -11.5t86 -28.5t72 -34.5t62.5 -29t56.5 -11.5h37l21 -150q-37 -4 -70.5 -22t-68.5 -43.5
t-78.5 -52.5t-100.5 -51t-133 -39t-178 -15zM190 739q-32 0 -53 21t-21 51q0 31 21 53t53 22q31 0 52.5 -22t21.5 -53q0 -30 -21.5 -51t-52.5 -21zM105 582q-31 0 -53.5 23t-22.5 52q0 30 22.5 53t53.5 23q29 0 50.5 -23t21.5 -53q0 -29 -21.5 -52t-50.5 -23zM278 582
q-30 0 -50 23t-20 52q0 30 20 53t50 23t52.5 -23t22.5 -53q0 -29 -22.5 -52t-52.5 -23z" />
    <glyph glyph-name="uni0685.medi" unicode="&#x685;" horiz-adv-x="678" 
d="M678 -5q-45 0 -82.5 8.5t-68 27.5t-53.5 51t-38 79l92 72q13 -28 34.5 -44t53 -22t72.5 -6q44 0 64.5 -24t20.5 -57q0 -38 -24.5 -61.5t-70.5 -23.5zM0 -5l10 166q54 0 109 6t107.5 19t99.5 33.5t87 49.5q-33 12 -67 20t-69.5 12t-75.5 4q-16 0 -37.5 -1t-44 -3.5
t-40.5 -6.5l-24 174q30 8 66.5 11.5t69.5 3.5q56 0 103 -11.5t86 -28.5t72 -34.5t62.5 -29t56.5 -11.5h37l21 -150q-37 -4 -70.5 -22t-68.5 -43.5t-78.5 -52.5t-100.5 -51t-133 -39t-178 -15zM183 752q-32 0 -53 21t-21 51q0 31 21 53t53 22q31 0 52.5 -22t21.5 -53
q0 -30 -21.5 -51t-52.5 -21zM98 595q-31 0 -53.5 23t-22.5 52q0 30 22.5 53t53.5 23q29 0 50.5 -23t21.5 -53q0 -29 -21.5 -52t-50.5 -23zM271 595q-30 0 -50 23t-20 52q0 30 20 53t50 23t52.5 -23t22.5 -53q0 -29 -22.5 -52t-52.5 -23z" />
    <glyph glyph-name="uni0685.fina" unicode="&#x685;" horiz-adv-x="709" 
d="M709 -5q-54 0 -100 9t-81.5 33t-59 68.5t-34.5 113.5l120 64q8 -41 22 -65.5t34 -36.5t47.5 -16t61.5 -4q44 0 64.5 -24t20.5 -57q0 -38 -24.5 -61.5t-70.5 -23.5zM383 -394q-76 0 -141 20.5t-113.5 60t-75.5 98t-27 135.5q0 75 24 137t66.5 110.5t96.5 85.5t116 62
t126 39l11 -31q-22 6 -53 15t-66.5 16.5t-73 12.5t-75.5 5q-33 0 -67.5 -4t-61.5 -11l-25 173q31 8 64 14t66 6q56 0 104.5 -10t90.5 -25t78.5 -30.5t68 -26t57.5 -10.5h41l20 -189q-34 -2 -79.5 -12t-94.5 -28.5t-94.5 -44.5t-82.5 -60t-59 -75t-22 -90q0 -45 15.5 -77
t42.5 -52t62.5 -29.5t75.5 -9.5q48 0 100 9.5t113 32.5l50 -155q-82 -36 -152 -49t-126 -13zM331 799q-32 0 -53 21t-21 51q0 31 21 53t53 22q31 0 52.5 -22t21.5 -53q0 -30 -21.5 -51t-52.5 -21zM246 642q-31 0 -53.5 23t-22.5 52q0 30 22.5 53t53.5 23q29 0 50.5 -23
t21.5 -53q0 -29 -21.5 -52t-50.5 -23zM419 642q-30 0 -50 23t-20 52q0 30 20 53t50 23t52.5 -23t22.5 -53q0 -29 -22.5 -52t-52.5 -23z" />
    <glyph glyph-name="uni0689.fina" unicode="&#x689;" horiz-adv-x="562" 
d="M223 -136q-42 0 -71 29.5t-29 70.5q0 42 29 71t71 29t71 -29t29 -71q0 -41 -29 -70.5t-71 -29.5zM223 -66q13 0 22 8.5t9 21.5q0 14 -9 22.5t-22 8.5t-22.5 -9t-9.5 -22t9.5 -21.5t22.5 -8.5zM207 172q26 0 42 5.5t23.5 18t7.5 33.5q0 13 -4.5 32.5t-16.5 46.5t-34 66.5
t-58 94.5l159 95q42 -61 70.5 -114.5t46 -100t27.5 -85.5q10 -40 23.5 -62.5t33 -31.5t45.5 -9q44 0 64.5 -24t20.5 -57q0 -38 -24.5 -61.5t-70.5 -23.5q-40 0 -77 12t-66 38.5t-49 68.5l61 -2q-12 -35 -39 -61.5t-68 -41t-100 -14.5q-32 0 -66 4t-67.5 14t-62.5 26l50 160
q29 -12 62.5 -19.5t66.5 -7.5z" />
    <glyph glyph-name="uni068A.fina" unicode="&#x68a;" horiz-adv-x="562" 
d="M207 172q26 0 42 5.5t23.5 18t7.5 33.5q0 13 -4.5 32.5t-16.5 46.5t-34 66.5t-58 94.5l159 95q42 -61 70.5 -114.5t46 -100t27.5 -85.5q10 -40 23.5 -62.5t33 -31.5t45.5 -9q44 0 64.5 -24t20.5 -57q0 -38 -24.5 -61.5t-70.5 -23.5q-40 0 -77 12t-66 38.5t-49 68.5l61 -2
q-12 -35 -39 -61.5t-68 -41t-100 -14.5q-32 0 -66 4t-67.5 14t-62.5 26l50 160q29 -12 62.5 -19.5t66.5 -7.5zM231 -252q-34 0 -57.5 23.5t-23.5 56.5q0 35 23.5 59t57.5 24t57 -24t23 -59q0 -33 -23 -56.5t-57 -23.5z" />
    <glyph glyph-name="uni068B.fina" unicode="&#x68b;" horiz-adv-x="562" 
d="M207 172q26 0 42 5.5t23.5 18t7.5 33.5q0 13 -4.5 32.5t-16.5 46.5t-34 66.5t-58 94.5l159 95q42 -61 70.5 -114.5t46 -100t27.5 -85.5q10 -40 23.5 -62.5t33 -31.5t45.5 -9q44 0 64.5 -24t20.5 -57q0 -38 -24.5 -61.5t-70.5 -23.5q-40 0 -77 12t-66 38.5t-49 68.5l61 -2
q-12 -35 -39 -61.5t-68 -41t-100 -14.5q-32 0 -66 4t-67.5 14t-62.5 26l50 160q29 -12 62.5 -19.5t66.5 -7.5zM234 672q-18 0 -42.5 1.5t-45.5 3t-32 2.5l4 71q19 -3 50 -5.5t58 -2.5q42 0 63 6.5t28.5 15.5t7.5 19q0 9 -7 16.5t-19 7.5q-15 0 -31.5 -12t-31 -29.5
t-22.5 -32.5l-70 12q19 41 46 71.5t58 46.5t61 16q41 0 65 -27t24 -67q0 -24 -12 -50t-47 -44.5t-105 -18.5zM160 752l-7 186h71l8 -166zM220 -252q-34 0 -57.5 23.5t-23.5 56.5q0 35 23.5 59t57.5 24t57 -24t23 -59q0 -33 -23 -56.5t-57 -23.5z" />
    <glyph glyph-name="uni068F.fina" unicode="&#x68f;" horiz-adv-x="562" 
d="M207 172q26 0 42 5.5t23.5 18t7.5 33.5q0 13 -4.5 32.5t-16.5 46.5t-34 66.5t-58 94.5l159 95q42 -61 70.5 -114.5t46 -100t27.5 -85.5q10 -40 23.5 -62.5t33 -31.5t45.5 -9q44 0 64.5 -24t20.5 -57q0 -38 -24.5 -61.5t-70.5 -23.5q-40 0 -77 12t-66 38.5t-49 68.5l61 -2
q-12 -35 -39 -61.5t-68 -41t-100 -14.5q-32 0 -66 4t-67.5 14t-62.5 26l50 160q29 -12 62.5 -19.5t66.5 -7.5zM240 647q-31 0 -52 21.5t-21 51.5q0 31 21 53t52 22q29 0 51 -22t22 -53q0 -30 -22 -51.5t-51 -21.5zM154 803q-31 0 -52 21t-21 52t21 53t52 22q30 0 51 -22
t21 -53t-21 -52t-51 -21zM331 803q-31 0 -51.5 21t-20.5 52t20.5 53t51.5 22q32 0 52.5 -22t20.5 -53t-20.5 -52t-52.5 -21z" />
    <glyph glyph-name="uni0690.fina" unicode="&#x690;" horiz-adv-x="562" 
d="M207 172q26 0 42 5.5t23.5 18t7.5 33.5q0 13 -4.5 32.5t-16.5 46.5t-34 66.5t-58 94.5l159 95q42 -61 70.5 -114.5t46 -100t27.5 -85.5q10 -40 23.5 -62.5t33 -31.5t45.5 -9q44 0 64.5 -24t20.5 -57q0 -38 -24.5 -61.5t-70.5 -23.5q-40 0 -77 12t-66 38.5t-49 68.5l61 -2
q-12 -35 -39 -61.5t-68 -41t-100 -14.5q-32 0 -66 4t-67.5 14t-62.5 26l50 160q29 -12 62.5 -19.5t66.5 -7.5zM133 786q-27 0 -46 19.5t-19 45.5q0 28 19 48t46 20t46 -20t19 -47q0 -28 -19 -47t-46 -19zM134 632q-27 0 -46 19t-19 46q0 28 19 48t46 20t46 -20t19 -47
q0 -28 -19 -47t-46 -19zM293 786q-27 0 -46 19.5t-19 45.5q0 28 19 48t46 20t46 -20t19 -47q0 -28 -19 -47t-46 -19zM290 632q-27 0 -46 19t-19 46q0 28 19 48t46 20t46 -20t19 -47q0 -28 -19 -47t-46 -19z" />
    <glyph glyph-name="uni0692.fina" unicode="&#x692;" horiz-adv-x="433" 
d="M27 -231l-61 151q62 19 104.5 45t68 55t36 58t10.5 55q0 42 -22 94.5t-58 113.5l154 76q18 -29 32.5 -60.5t26.5 -62t20 -57.5q13 -42 38 -59t67 -17q44 0 64.5 -24t20.5 -57q0 -38 -24.5 -61.5t-70.5 -23.5q-34 0 -62.5 11.5t-46.5 34.5t-23 56l51 43q0 -52 -18 -106.5
t-56.5 -105.5t-100.5 -92.5t-150 -66.5zM132 523q-7 16 -18 39.5t-23.5 49.5t-23.5 50t-20 41l64 31q6 -13 16 -35.5t21 -47t22 -47t18 -36.5l22 -39zM210 529l-58 19q6 17 16 44.5t21 57.5t20 53.5t13 33.5l64 -24q-4 -12 -14.5 -36t-22.5 -52.5t-23 -54.5t-16 -41z" />
    <glyph glyph-name="uni0693.fina" unicode="&#x693;" horiz-adv-x="433" 
d="M282 -218q-41 0 -70 29t-29 71q0 41 29 70.5t70 29.5q42 0 71 -29.5t29 -70.5q0 -42 -29 -71t-71 -29zM282 -148q13 0 22.5 8.5t9.5 21.5q0 14 -9.5 22.5t-22.5 8.5q-12 0 -22 -9t-10 -22t10 -21.5t22 -8.5zM27 -231l-61 151q62 19 104.5 45t68 55t36 58t10.5 55
q0 42 -22 94.5t-58 113.5l154 76q18 -29 32.5 -60.5t26.5 -62t20 -57.5q13 -42 38 -59t67 -17q44 0 64.5 -24t20.5 -57q0 -38 -24.5 -61.5t-70.5 -23.5q-34 0 -62.5 11.5t-46.5 34.5t-23 56l51 43q0 -52 -18 -106.5t-56.5 -105.5t-100.5 -92.5t-150 -66.5z" />
    <glyph glyph-name="uni0694.fina" unicode="&#x694;" horiz-adv-x="433" 
d="M27 -231l-61 151q62 19 104.5 45t68 55t36 58t10.5 55q0 42 -22 94.5t-58 113.5l154 76q18 -29 32.5 -60.5t26.5 -62t20 -57.5q13 -42 38 -59t67 -17q44 0 64.5 -24t20.5 -57q0 -38 -24.5 -61.5t-70.5 -23.5q-34 0 -62.5 11.5t-46.5 34.5t-23 56l51 43q0 -52 -18 -106.5
t-56.5 -105.5t-100.5 -92.5t-150 -66.5zM193 -461q-34 0 -57.5 23.5t-23.5 56.5q0 35 23.5 59t57.5 24t57 -24t23 -59q0 -33 -23 -56.5t-57 -23.5z" />
    <glyph glyph-name="uni0695.fina" unicode="&#x695;" horiz-adv-x="433" 
d="M9 16q-8 16 -20.5 40.5t-26 50t-23.5 41.5l51 27q6 -8 13.5 -23.5t16.5 -33.5l17.5 -35t15.5 -28l16 -35zM69 20l-47 20q5 14 13.5 34.5t16.5 42t15.5 38t11.5 22.5l51 -21q-4 -8 -12 -25.5t-17.5 -38t-18 -40t-13.5 -32.5zM27 -231l-61 151q62 19 104.5 45t68 55t36 58
t10.5 55q0 42 -22 94.5t-58 113.5l154 76q18 -29 32.5 -60.5t26.5 -62t20 -57.5q13 -42 38 -59t67 -17q44 0 64.5 -24t20.5 -57q0 -38 -24.5 -61.5t-70.5 -23.5q-34 0 -62.5 11.5t-46.5 34.5t-23 56l51 43q0 -52 -18 -106.5t-56.5 -105.5t-100.5 -92.5t-150 -66.5z" />
    <glyph glyph-name="uni0696.fina" unicode="&#x696;" horiz-adv-x="433" 
d="M27 -231l-61 151q62 19 104.5 45t68 55t36 58t10.5 55q0 42 -22 94.5t-58 113.5l154 76q18 -29 32.5 -60.5t26.5 -62t20 -57.5q13 -42 38 -59t67 -17q44 0 64.5 -24t20.5 -57q0 -38 -24.5 -61.5t-70.5 -23.5q-34 0 -62.5 11.5t-46.5 34.5t-23 56l51 43q0 -52 -18 -106.5
t-56.5 -105.5t-100.5 -92.5t-150 -66.5zM81 26q-34 0 -57.5 23.5t-23.5 57.5t23.5 58.5t57.5 24.5t57 -24.5t23 -58.5t-23.5 -57.5t-56.5 -23.5zM182 -461q-34 0 -57.5 23.5t-23.5 56.5q0 35 23.5 59t57.5 24t57 -24t23 -59q0 -33 -23 -56.5t-57 -23.5z" />
    <glyph glyph-name="uni0697.fina" unicode="&#x697;" horiz-adv-x="433" 
d="M27 -231l-61 151q62 19 104.5 45t68 55t36 58t10.5 55q0 42 -22 94.5t-58 113.5l154 76q18 -29 32.5 -60.5t26.5 -62t20 -57.5q13 -42 38 -59t67 -17q44 0 64.5 -24t20.5 -57q0 -38 -24.5 -61.5t-70.5 -23.5q-34 0 -62.5 11.5t-46.5 34.5t-23 56l51 43q0 -52 -18 -106.5
t-56.5 -105.5t-100.5 -92.5t-150 -66.5zM282 514q-31 0 -51.5 21.5t-20.5 51.5q0 32 20.5 52.5t51.5 20.5t53 -20.5t22 -52.5q0 -30 -22 -51.5t-53 -21.5zM105 514q-32 0 -53 21.5t-21 51.5q0 32 21 52.5t52 20.5q30 0 52 -20.5t22 -52.5q0 -30 -21.5 -51.5t-51.5 -21.5z
" />
    <glyph glyph-name="uni0699.fina" unicode="&#x699;" horiz-adv-x="433" 
d="M27 -231l-61 151q62 19 104.5 45t68 55t36 58t10.5 55q0 42 -22 94.5t-58 113.5l154 76q18 -29 32.5 -60.5t26.5 -62t20 -57.5q13 -42 38 -59t67 -17q44 0 64.5 -24t20.5 -57q0 -38 -24.5 -61.5t-70.5 -23.5q-34 0 -62.5 11.5t-46.5 34.5t-23 56l51 43q0 -52 -18 -106.5
t-56.5 -105.5t-100.5 -92.5t-150 -66.5zM94 665q-27 0 -46 19.5t-19 45.5q0 28 19 48t46 20t46 -20t19 -47q0 -28 -19 -47t-46 -19zM95 511q-27 0 -46 19t-19 46q0 28 19 48t46 20t46 -20t19 -47q0 -28 -19 -47t-46 -19zM254 665q-27 0 -46 19.5t-19 45.5q0 28 19 48t46 20
t46 -20t19 -47q0 -28 -19 -47t-46 -19zM251 511q-27 0 -46 19t-19 46q0 28 19 48t46 20t46 -20t19 -47q0 -28 -19 -47t-46 -19z" />
    <glyph glyph-name="uni069A.init" unicode="&#x69a;" horiz-adv-x="994" 
d="M0 -5l10 166q29 0 47.5 6.5t30.5 27t21.5 62t20.5 111.5l163 -26q-2 -13 -5.5 -34t-6 -43.5t-2.5 -42.5q0 -26 15.5 -43.5t55.5 -17.5q29 0 46 6.5t28.5 27.5t20.5 64t20 117l165 -26q-4 -22 -8.5 -48t-7.5 -49t-3 -38t8 -27.5t25 -19.5t45 -7q31 0 49.5 7t26.5 22t8 40
q0 41 -15 102.5t-40 134.5l164 49q18 -50 31.5 -103.5t20.5 -102.5t7 -85q0 -55 -18.5 -97.5t-51 -72t-77 -45t-96.5 -15.5q-49 0 -84.5 13t-57 45t-30.5 88h35q-22 -67 -52 -98t-67.5 -39.5t-82.5 -8.5q-34 0 -70 9t-67 39t-50 94h70q-24 -60 -62 -90.5t-84 -41t-96 -10.5z
M493 -252q-34 0 -57.5 23.5t-23.5 56.5q0 35 23.5 59t57.5 24t57 -24t23 -59q0 -33 -23 -56.5t-57 -23.5zM537 519q-34 0 -57.5 23.5t-23.5 57.5t23.5 58.5t57.5 24.5t57 -24.5t23 -58.5t-23.5 -57.5t-56.5 -23.5z" />
    <glyph glyph-name="uni069A.medi" unicode="&#x69a;" horiz-adv-x="1055" 
d="M0 -5l10 166q29 0 47.5 6.5t30.5 27t21.5 62t20.5 111.5l163 -26q-3 -20 -8.5 -52t-5.5 -57q0 -23 7 -39t24 -24t46 -8q25 0 42 6t29 27t21 64t18 117l166 -26q-5 -27 -9.5 -52.5t-7 -47t-2.5 -35.5q0 -15 8 -27.5t27 -19.5t51 -7q44 0 60.5 21t16.5 65q0 22 -1 49.5
t-4 62.5t-9 79l163 13q8 -94 17 -151t24 -87.5t38.5 -41t60.5 -10.5q44 0 64.5 -24t20.5 -57q0 -38 -24.5 -61.5t-70.5 -23.5q-16 0 -42.5 4t-56 17.5t-56 41.5t-43.5 76l18 -6q-15 -45 -39 -74.5t-59.5 -44t-87.5 -14.5q-41 0 -79 14t-60.5 46t-21.5 86h34
q-22 -64 -48 -95.5t-62.5 -41t-91.5 -9.5q-35 0 -72 10.5t-67.5 41t-48.5 90.5h70q-25 -59 -62 -89.5t-82 -41.5t-98 -11zM470 -252q-34 0 -57.5 23.5t-23.5 56.5q0 35 23.5 59t57.5 24t57 -24t23 -59q0 -33 -23 -56.5t-57 -23.5zM526 519q-34 0 -57.5 23.5t-23.5 57.5
t23.5 58.5t57.5 24.5t57 -24.5t23 -58.5t-23.5 -57.5t-56.5 -23.5z" />
    <glyph glyph-name="uni069A.fina" unicode="&#x69a;" horiz-adv-x="1453" 
d="M345 -232q-63 0 -120.5 15t-103 47t-71.5 82t-26 120q0 28 4 59t15.5 72t35.5 99l154 -53q-14 -39 -21.5 -64.5t-10 -45.5t-2.5 -43q0 -37 17.5 -64.5t51 -42.5t81.5 -15q41 0 72 9t53 27t33 45.5t11 65.5q0 29 -8 69t-21 87.5t-29 97.5l176 45q14 -59 23.5 -95t14.5 -51
q10 -30 19.5 -46t24.5 -21t39 -5t40 6.5t27.5 27t20.5 63.5t18 117l166 -26q-5 -27 -9.5 -52.5t-7 -47t-2.5 -35.5q0 -15 8.5 -27.5t27 -19.5t50.5 -7q44 0 60.5 21t16.5 65q0 22 -1 49.5t-4 62.5t-9 79l164 13q9 -105 20.5 -164t27.5 -86t38.5 -33.5t53.5 -6.5q44 0 64 -24
t20 -57q0 -38 -24 -61.5t-70 -23.5q-32 0 -71 11t-73.5 41t-54.5 87l18 -6q-14 -51 -43 -80t-64.5 -41t-69.5 -12q-56 0 -94 16.5t-57 49.5t-19 80h34q-19 -63 -45.5 -94t-60 -41.5t-72.5 -10.5q-14 0 -34.5 3t-42.5 12t-38 28t-21 50l49 -45q-3 -67 -33 -118.5t-79 -86
t-110.5 -52.5t-126.5 -18zM936 -247q-34 0 -57.5 23.5t-23.5 56.5q0 35 23.5 59t57.5 24t57 -24t23 -59q0 -33 -23 -56.5t-57 -23.5zM867 519q-34 0 -57.5 23.5t-23.5 57.5t23.5 58.5t57.5 24.5t57 -24.5t23 -58.5t-23.5 -57.5t-56.5 -23.5z" />
    <glyph glyph-name="uni069B.init" unicode="&#x69b;" horiz-adv-x="994" 
d="M0 -5l10 166q29 0 47.5 6.5t30.5 27t21.5 62t20.5 111.5l163 -26q-2 -13 -5.5 -34t-6 -43.5t-2.5 -42.5q0 -26 15.5 -43.5t55.5 -17.5q29 0 46 6.5t28.5 27.5t20.5 64t20 117l165 -26q-4 -22 -8.5 -48t-7.5 -49t-3 -38t8 -27.5t25 -19.5t45 -7q31 0 49.5 7t26.5 22t8 40
q0 41 -15 102.5t-40 134.5l164 49q18 -50 31.5 -103.5t20.5 -102.5t7 -85q0 -55 -18.5 -97.5t-51 -72t-77 -45t-96.5 -15.5q-49 0 -84.5 13t-57 45t-30.5 88h35q-22 -67 -52 -98t-67.5 -39.5t-82.5 -8.5q-34 0 -70 9t-67 39t-50 94h70q-24 -60 -62 -90.5t-84 -41t-96 -10.5z
M492 -395q-31 0 -52 21t-21 52q0 30 21 52.5t52 22.5q30 0 51 -22.5t21 -52.5q0 -31 -21 -52t-51 -21zM402 -239q-31 0 -52 21t-21 52q0 30 21 52.5t52 22.5t52 -22.5t21 -52.5q0 -31 -21 -52t-52 -21zM586 -239q-31 0 -52 21t-21 52q0 30 21 52.5t52 22.5q32 0 52.5 -22.5
t20.5 -52.5q0 -31 -20.5 -52t-52.5 -21z" />
    <glyph glyph-name="uni069B.medi" unicode="&#x69b;" horiz-adv-x="1055" 
d="M0 -5l10 166q29 0 47.5 6.5t30.5 27t21.5 62t20.5 111.5l163 -26q-3 -20 -8.5 -52t-5.5 -57q0 -23 7 -39t24 -24t46 -8q25 0 42 6t29 27t21 64t18 117l166 -26q-5 -27 -9.5 -52.5t-7 -47t-2.5 -35.5q0 -15 8 -27.5t27 -19.5t51 -7q44 0 60.5 21t16.5 65q0 22 -1 49.5
t-4 62.5t-9 79l163 13q8 -94 17 -151t24 -87.5t38.5 -41t60.5 -10.5q44 0 64.5 -24t20.5 -57q0 -38 -24.5 -61.5t-70.5 -23.5q-16 0 -42.5 4t-56 17.5t-56 41.5t-43.5 76l18 -6q-15 -45 -39 -74.5t-59.5 -44t-87.5 -14.5q-41 0 -79 14t-60.5 46t-21.5 86h34
q-22 -64 -48 -95.5t-62.5 -41t-91.5 -9.5q-35 0 -72 10.5t-67.5 41t-48.5 90.5h70q-25 -59 -62 -89.5t-82 -41.5t-98 -11zM469 -395q-31 0 -52 21t-21 52q0 30 21 52.5t52 22.5q30 0 51 -22.5t21 -52.5q0 -31 -21 -52t-51 -21zM379 -239q-31 0 -52 21t-21 52q0 30 21 52.5
t52 22.5t52 -22.5t21 -52.5q0 -31 -21 -52t-52 -21zM563 -239q-31 0 -52 21t-21 52q0 30 21 52.5t52 22.5q32 0 52.5 -22.5t20.5 -52.5q0 -31 -20.5 -52t-52.5 -21z" />
    <glyph glyph-name="uni069B.fina" unicode="&#x69b;" horiz-adv-x="1453" 
d="M345 -232q-63 0 -120.5 15t-103 47t-71.5 82t-26 120q0 28 4 59t15.5 72t35.5 99l154 -53q-14 -39 -21.5 -64.5t-10 -45.5t-2.5 -43q0 -37 17.5 -64.5t51 -42.5t81.5 -15q41 0 72 9t53 27t33 45.5t11 65.5q0 29 -8 69t-21 87.5t-29 97.5l176 45q14 -59 23.5 -95t14.5 -51
q10 -30 19.5 -46t24.5 -21t39 -5t40 6.5t27.5 27t20.5 63.5t18 117l166 -26q-5 -27 -9.5 -52.5t-7 -47t-2.5 -35.5q0 -15 8.5 -27.5t27 -19.5t50.5 -7q44 0 60.5 21t16.5 65q0 22 -1 49.5t-4 62.5t-9 79l164 13q9 -105 20.5 -164t27.5 -86t38.5 -33.5t53.5 -6.5q44 0 64 -24
t20 -57q0 -38 -24 -61.5t-70 -23.5q-32 0 -71 11t-73.5 41t-54.5 87l18 -6q-14 -51 -43 -80t-64.5 -41t-69.5 -12q-56 0 -94 16.5t-57 49.5t-19 80h34q-19 -63 -45.5 -94t-60 -41.5t-72.5 -10.5q-14 0 -34.5 3t-42.5 12t-38 28t-21 50l49 -45q-3 -67 -33 -118.5t-79 -86
t-110.5 -52.5t-126.5 -18zM935 -390q-31 0 -52 21t-21 52q0 30 21 52.5t52 22.5q30 0 51 -22.5t21 -52.5q0 -31 -21 -52t-51 -21zM845 -234q-31 0 -52 21t-21 52q0 30 21 52.5t52 22.5t52 -22.5t21 -52.5q0 -31 -21 -52t-52 -21zM1029 -234q-31 0 -52 21t-21 52
q0 30 21 52.5t52 22.5q32 0 52.5 -22.5t20.5 -52.5q0 -31 -20.5 -52t-52.5 -21z" />
    <glyph glyph-name="uni069D.init" unicode="&#x69d;" horiz-adv-x="990" 
d="M525 -18q-92 0 -153 9.5t-100 25.5t-63 37t-42 45l32 8q-25 -48 -59 -72t-70 -32t-70 -8l10 166q26 0 40.5 10.5t23.5 34.5t18 64t24 99l160 -40q-7 -29 -12 -49t-7 -33t-2 -22q0 -19 7.5 -33.5t30.5 -24t68 -14t120 -4.5q90 0 147 7t88 19t42.5 28.5t11.5 36.5
q0 17 -8 31t-22.5 22t-37.5 8q-25 0 -54 -12.5t-59.5 -36t-61 -54.5t-58.5 -69l-177 26q45 69 96.5 127t107 101t112.5 66.5t113 23.5q69 0 118.5 -28.5t76 -78.5t26.5 -115q0 -82 -43.5 -142.5t-135.5 -93.5t-238 -33zM613 -250q-31 0 -51.5 21t-20.5 52t20.5 52t51.5 21
t53 -21t22 -52t-22 -52t-53 -21zM436 -250q-32 0 -53 21t-21 52t21.5 52t51.5 21q31 0 52.5 -21t21.5 -52t-21.5 -52t-51.5 -21z" />
    <glyph glyph-name="uni069D.medi" unicode="&#x69d;" horiz-adv-x="1015" 
d="M1015 -5q-56 0 -103 12t-82 30t-56 35l95 120q34 -17 70.5 -24t84.5 -7q45 0 65 -24t20 -57q0 -38 -24.5 -61.5t-69.5 -23.5zM525 -18q-92 0 -153 9.5t-100 25.5t-63 37t-42 45l32 8q-25 -48 -59 -72t-70 -32t-70 -8l10 166q26 0 40.5 10.5t23.5 34.5t18 64t24 99
l160 -40q-7 -29 -12 -49t-7 -33t-2 -22q0 -19 7.5 -33.5t30.5 -24t68 -14t120 -4.5q90 0 147 7t88 19t42.5 28.5t11.5 36.5q0 17 -8 31t-22.5 22t-37.5 8q-25 0 -54 -12.5t-59.5 -36t-61 -54.5t-58.5 -69l-177 26q45 69 96.5 127t107 101t112.5 66.5t113 23.5
q69 0 118.5 -28.5t76 -78.5t26.5 -115q0 -82 -43.5 -142.5t-135.5 -93.5t-238 -33zM613 -250q-31 0 -51.5 21t-20.5 52t20.5 52t51.5 21t53 -21t22 -52t-22 -52t-53 -21zM436 -250q-32 0 -53 21t-21 52t21.5 52t51.5 21q31 0 52.5 -21t21.5 -52t-21.5 -52t-51.5 -21z" />
    <glyph glyph-name="uni069D.fina" unicode="&#x69d;" horiz-adv-x="1449" 
d="M1449 -5q-56 0 -102.5 12t-81.5 30t-56 35l95 120q34 -17 70 -24t84 -7q45 0 65.5 -24t20.5 -57q0 -38 -24.5 -61.5t-70.5 -23.5zM343 -232q-62 0 -119.5 15t-102.5 47t-71 82.5t-26 122.5q0 28 4 58t15.5 71t35.5 98l154 -54q-14 -38 -21.5 -63.5t-10 -45t-2.5 -42.5
q0 -38 17.5 -65.5t50.5 -42.5t80 -15q42 0 74 9t53.5 26.5t32.5 44.5t11 63q0 50 -17.5 117t-39.5 141l176 45q9 -38 16.5 -67.5t13 -49t8.5 -29.5q7 -20 18.5 -35.5t37.5 -25t76.5 -14.5t134.5 -5q66 0 112.5 4t77 12t48 19.5t25 25t7.5 29.5t-7.5 30t-22 23t-37.5 9
q-29 0 -59 -14.5t-60 -39t-59 -55t-55 -61.5l-176 26q33 50 71.5 97t81 86.5t88 69.5t92.5 46.5t95 16.5q67 0 116.5 -29.5t77 -79.5t27.5 -113q0 -61 -24.5 -111t-74.5 -85t-127.5 -54t-184.5 -19q-44 0 -98 4.5t-105.5 15.5t-91 31t-55.5 50l69 -45q-3 -67 -32.5 -118
t-79 -86.5t-111 -53t-127.5 -17.5zM1034 -245q-31 0 -51.5 21t-20.5 52t20.5 52t51.5 21t53 -21t22 -52t-22 -52t-53 -21zM857 -245q-32 0 -53 21t-21 52t21.5 52t51.5 21q31 0 52.5 -21t21.5 -52t-21.5 -52t-51.5 -21z" />
    <glyph glyph-name="uni069E.init" unicode="&#x69e;" horiz-adv-x="990" 
d="M525 -18q-92 0 -153 9.5t-100 25.5t-63 37t-42 45l32 8q-25 -48 -59 -72t-70 -32t-70 -8l10 166q26 0 40.5 10.5t23.5 34.5t18 64t24 99l160 -40q-7 -29 -12 -49t-7 -33t-2 -22q0 -19 7.5 -33.5t30.5 -24t68 -14t120 -4.5q90 0 147 7t88 19t42.5 28.5t11.5 36.5
q0 17 -8 31t-22.5 22t-37.5 8q-25 0 -54 -12.5t-59.5 -36t-61 -54.5t-58.5 -69l-177 26q45 69 96.5 127t107 101t112.5 66.5t113 23.5q69 0 118.5 -28.5t76 -78.5t26.5 -115q0 -82 -43.5 -142.5t-135.5 -93.5t-238 -33zM693 722q-32 0 -53 21t-21 51q0 31 21 53t53 22
q31 0 52.5 -22t21.5 -53q0 -30 -21.5 -51t-52.5 -21zM608 565q-31 0 -53.5 23t-22.5 52q0 30 22.5 53t53.5 23q29 0 50.5 -23t21.5 -53q0 -29 -21.5 -52t-50.5 -23zM781 565q-30 0 -50 23t-20 52q0 30 20 53t50 23t52.5 -23t22.5 -53q0 -29 -22.5 -52t-52.5 -23z" />
    <glyph glyph-name="uni069E.medi" unicode="&#x69e;" horiz-adv-x="1015" 
d="M1015 -5q-56 0 -103 12t-82 30t-56 35l95 120q34 -17 70.5 -24t84.5 -7q45 0 65 -24t20 -57q0 -38 -24.5 -61.5t-69.5 -23.5zM525 -18q-92 0 -153 9.5t-100 25.5t-63 37t-42 45l32 8q-25 -48 -59 -72t-70 -32t-70 -8l10 166q26 0 40.5 10.5t23.5 34.5t18 64t24 99
l160 -40q-7 -29 -12 -49t-7 -33t-2 -22q0 -19 7.5 -33.5t30.5 -24t68 -14t120 -4.5q90 0 147 7t88 19t42.5 28.5t11.5 36.5q0 17 -8 31t-22.5 22t-37.5 8q-25 0 -54 -12.5t-59.5 -36t-61 -54.5t-58.5 -69l-177 26q45 69 96.5 127t107 101t112.5 66.5t113 23.5
q69 0 118.5 -28.5t76 -78.5t26.5 -115q0 -82 -43.5 -142.5t-135.5 -93.5t-238 -33zM693 722q-32 0 -53 21t-21 51q0 31 21 53t53 22q31 0 52.5 -22t21.5 -53q0 -30 -21.5 -51t-52.5 -21zM608 565q-31 0 -53.5 23t-22.5 52q0 30 22.5 53t53.5 23q29 0 50.5 -23t21.5 -53
q0 -29 -21.5 -52t-50.5 -23zM781 565q-30 0 -50 23t-20 52q0 30 20 53t50 23t52.5 -23t22.5 -53q0 -29 -22.5 -52t-52.5 -23z" />
    <glyph glyph-name="uni069E.fina" unicode="&#x69e;" horiz-adv-x="1449" 
d="M1449 -5q-56 0 -102.5 12t-81.5 30t-56 35l95 120q34 -17 70 -24t84 -7q45 0 65.5 -24t20.5 -57q0 -38 -24.5 -61.5t-70.5 -23.5zM343 -232q-62 0 -119.5 15t-102.5 47t-71 82.5t-26 122.5q0 28 4 58t15.5 71t35.5 98l154 -54q-14 -38 -21.5 -63.5t-10 -45t-2.5 -42.5
q0 -38 17.5 -65.5t50.5 -42.5t80 -15q42 0 74 9t53.5 26.5t32.5 44.5t11 63q0 50 -17.5 117t-39.5 141l176 45q9 -38 16.5 -67.5t13 -49t8.5 -29.5q7 -20 18.5 -35.5t37.5 -25t76.5 -14.5t134.5 -5q66 0 112.5 4t77 12t48 19.5t25 25t7.5 29.5t-7.5 30t-22 23t-37.5 9
q-29 0 -59 -14.5t-60 -39t-59 -55t-55 -61.5l-176 26q33 50 71.5 97t81 86.5t88 69.5t92.5 46.5t95 16.5q67 0 116.5 -29.5t77 -79.5t27.5 -113q0 -61 -24.5 -111t-74.5 -85t-127.5 -54t-184.5 -19q-44 0 -98 4.5t-105.5 15.5t-91 31t-55.5 50l69 -45q-3 -67 -32.5 -118
t-79 -86.5t-111 -53t-127.5 -17.5zM1132 727q-32 0 -53 21t-21 51q0 31 21 53t53 22q31 0 52.5 -22t21.5 -53q0 -30 -21.5 -51t-52.5 -21zM1047 570q-31 0 -53.5 23t-22.5 52q0 30 22.5 53t53.5 23q29 0 50.5 -23t21.5 -53q0 -29 -21.5 -52t-50.5 -23zM1220 570
q-30 0 -50 23t-20 52q0 30 20 53t50 23t52.5 -23t22.5 -53q0 -29 -22.5 -52t-52.5 -23z" />
    <glyph glyph-name="uni069F.init" unicode="&#x69f;" horiz-adv-x="754" 
d="M0 -5l10 166h233q89 0 146.5 6.5t88.5 18.5t43.5 29t12.5 39q0 17 -7.5 31t-21.5 22t-35 8q-27 0 -56 -12.5t-60.5 -35.5t-63.5 -54.5t-64 -70.5l-179 16q49 74 101.5 134.5t108.5 103.5t113.5 66.5t115.5 23.5q69 0 118.5 -29.5t76 -80t26.5 -111.5q0 -78 -39 -135.5
t-118 -91.5q-31 -13 -71.5 -22.5t-89.5 -14.5t-106 -5zM109 99l-21 661h173l16 -452zM492 708q-32 0 -53 21t-21 51q0 31 21 53t53 22q31 0 52.5 -22t21.5 -53q0 -30 -21.5 -51t-52.5 -21zM407 551q-31 0 -53.5 23t-22.5 52q0 30 22.5 53t53.5 23q29 0 50.5 -23t21.5 -53
q0 -29 -21.5 -52t-50.5 -23zM580 551q-30 0 -50 23t-20 52q0 30 20 53t50 23t52.5 -23t22.5 -53q0 -29 -22.5 -52t-52.5 -23z" />
    <glyph glyph-name="uni069F.medi" unicode="&#x69f;" horiz-adv-x="767" 
d="M767 -5q-56 0 -102.5 12t-81.5 30t-56 35l95 120q34 -17 70 -24t84 -7q45 0 65 -24t20 -57q0 -38 -24 -61.5t-70 -23.5zM0 -5l10 166h233q89 0 146.5 6.5t88.5 18.5t43.5 29t12.5 39q0 17 -7.5 31t-21.5 22t-35 8q-27 0 -56 -12.5t-60.5 -35.5t-63.5 -54.5t-64 -70.5
l-179 16q49 74 101.5 134.5t108.5 103.5t113.5 66.5t115.5 23.5q69 0 118.5 -29.5t76 -80t26.5 -111.5q0 -78 -39 -135.5t-118 -91.5q-31 -13 -71.5 -22.5t-89.5 -14.5t-106 -5zM109 99l-21 661h173l16 -452zM492 708q-32 0 -53 21t-21 51q0 31 21 53t53 22q31 0 52.5 -22
t21.5 -53q0 -30 -21.5 -51t-52.5 -21zM407 551q-31 0 -53.5 23t-22.5 52q0 30 22.5 53t53.5 23q29 0 50.5 -23t21.5 -53q0 -29 -21.5 -52t-50.5 -23zM580 551q-30 0 -50 23t-20 52q0 30 20 53t50 23t52.5 -23t22.5 -53q0 -29 -22.5 -52t-52.5 -23z" />
    <glyph glyph-name="uni069F.fina" unicode="&#x69f;" horiz-adv-x="861" 
d="M861 -5q-56 0 -102.5 12t-81.5 30t-56 35l95 120q34 -17 70 -24t84 -7q45 0 65.5 -24t20.5 -57q0 -38 -24.5 -61.5t-70.5 -23.5zM388 -13q-46 0 -93.5 1t-95 3t-93 5.5t-86.5 9.5l20 166q59 -6 104 -10t81 -6t68 -2.5t63 -0.5q82 0 135.5 7t83 18.5t41.5 28t12 35.5
t-8 33t-22.5 22t-36.5 8q-27 0 -57 -13.5t-61.5 -37.5t-62 -55t-57.5 -65l-177 22q46 71 97.5 129.5t108 101.5t114.5 66.5t115 23.5q64 0 113.5 -27.5t78 -77.5t28.5 -117q0 -81 -43.5 -141.5t-135 -93.5t-234.5 -33zM203 99l-21 661h173l16 -452zM589 699q-32 0 -53 21
t-21 51q0 31 21 53t53 22q31 0 52.5 -22t21.5 -53q0 -30 -21.5 -51t-52.5 -21zM504 542q-31 0 -53.5 23t-22.5 52q0 30 22.5 53t53.5 23q29 0 50.5 -23t21.5 -53q0 -29 -21.5 -52t-50.5 -23zM677 542q-30 0 -50 23t-20 52q0 30 20 53t50 23t52.5 -23t22.5 -53
q0 -29 -22.5 -52t-52.5 -23z" />
    <glyph glyph-name="uni06A0.init" unicode="&#x6a0;" horiz-adv-x="560" 
d="M0 -5l10 166q32 0 50.5 0.5t33.5 3t34 4.5q-9 11 -23 30.5t-24.5 50t-10.5 72.5q0 65 33 112t88.5 73t122.5 26q31 0 58.5 -4t58.5 -12l-25 -154q-20 6 -39 8t-34 2q-26 0 -45.5 -8t-30 -24t-10.5 -39q0 -15 4.5 -29t12.5 -26t19.5 -22t24.5 -16.5t26 -9.5q4 2 12.5 4.5
t24 8t40.5 15t62 24.5l49 -145q-92 -41 -178.5 -65.5t-171.5 -35t-172 -10.5zM266 782q-32 0 -53 21t-21 51q0 31 21 53t53 22q31 0 52.5 -22t21.5 -53q0 -30 -21.5 -51t-52.5 -21zM181 625q-31 0 -53.5 23t-22.5 52q0 30 22.5 53t53.5 23q29 0 50.5 -23t21.5 -53
q0 -29 -21.5 -52t-50.5 -23zM354 625q-30 0 -50 23t-20 52q0 30 20 53t50 23t52.5 -23t22.5 -53q0 -29 -22.5 -52t-52.5 -23z" />
    <glyph glyph-name="uni06A0.medi" unicode="&#x6a0;" horiz-adv-x="560" 
d="M0 -5l10 166q66 0 120 8.5t95.5 23.5t69.5 35t42.5 43.5t14.5 48.5q0 12 -6 22.5t-20 17t-38 6.5q-15 0 -32 -3.5t-33.5 -10t-31.5 -15.5q24 -25 45.5 -48t40 -45.5t35.5 -45.5q21 -10 42.5 -17t49.5 -11.5t68.5 -6.5t98.5 -2q43 0 63.5 -24t20.5 -58q0 -37 -24.5 -60.5
t-69.5 -23.5q-70 0 -136 11.5t-127 36.5t-118 67q-17 27 -38 52.5t-41.5 48.5t-42.5 45q-3 5 -8 20.5t-9 33t-4 24.5q0 29 21.5 59t58.5 56t86.5 42t105.5 16q70 0 116 -20t68.5 -55t22.5 -82q0 -57 -27.5 -110t-76 -97.5t-114 -77.5t-141.5 -51.5t-157 -18.5zM303 756
q-32 0 -53 21t-21 51q0 31 21 53t53 22q31 0 52.5 -22t21.5 -53q0 -30 -21.5 -51t-52.5 -21zM218 599q-31 0 -53.5 23t-22.5 52q0 30 22.5 53t53.5 23q29 0 50.5 -23t21.5 -53q0 -29 -21.5 -52t-50.5 -23zM391 599q-30 0 -50 23t-20 52q0 30 20 53t50 23t52.5 -23t22.5 -53
q0 -29 -22.5 -52t-52.5 -23z" />
    <glyph glyph-name="uni06A0.fina" unicode="&#x6a0;" horiz-adv-x="595" 
d="M346 -394q-74 0 -133 17.5t-102 50t-65.5 78.5t-22.5 104q0 65 25.5 114t66.5 87.5t87 70t87 61t67.5 60.5t27.5 69q0 15 -7 25.5t-21 16.5t-33 6q-18 0 -36 -3t-34 -9.5t-31 -16.5q23 -22 43.5 -44.5t41 -46t42.5 -53.5q23 -13 55 -19.5t68 -9t70.5 -3t62.5 -0.5
q44 0 64.5 -24t20.5 -57q0 -38 -24.5 -61.5t-70.5 -23.5q-66 0 -130.5 6t-125 27t-117.5 68q-24 36 -46.5 63.5t-43.5 50.5t-41 45q-4 5 -9.5 21.5t-9 33.5t-3.5 24q0 28 20 58t57 56t87.5 42.5t110.5 16.5q98 0 150.5 -42.5t52.5 -116.5q0 -63 -25 -111t-64.5 -86
t-83.5 -70.5t-83.5 -63.5t-64.5 -64.5t-25 -76.5q0 -28 13 -48t33.5 -32.5t47.5 -18t54 -5.5t57 4.5t63.5 14.5t67.5 25l53 -144q-39 -22 -82 -36.5t-84 -22t-78 -7.5zM332 759q-32 0 -53 21t-21 51q0 31 21 53t53 22q31 0 52.5 -22t21.5 -53q0 -30 -21.5 -51t-52.5 -21z
M247 602q-31 0 -53.5 23t-22.5 52q0 30 22.5 53t53.5 23q29 0 50.5 -23t21.5 -53q0 -29 -21.5 -52t-50.5 -23zM420 602q-30 0 -50 23t-20 52q0 30 20 53t50 23t52.5 -23t22.5 -53q0 -29 -22.5 -52t-52.5 -23z" />
    <glyph glyph-name="uni06A1.init" unicode="&#x6a1;" horiz-adv-x="520" 
d="M0 -5l10 166h77.5t70 1.5t57.5 4.5t40 9q22 9 33.5 26t16 43.5t4.5 61.5q0 54 -7 87.5t-19 48.5t-28 15q-12 0 -22.5 -9t-15.5 -25.5t-5 -39.5q0 -15 6 -25.5t16.5 -16.5t25.5 -6q16 0 36 5t41 16l4 -116q-16 -13 -36.5 -23t-43.5 -15t-49 -5q-44 0 -80 18.5t-57.5 54
t-21.5 85.5q0 46 15 88.5t42.5 76.5t66.5 53.5t86 19.5q63 0 110 -36.5t73.5 -103.5t26.5 -161q0 -90 -26.5 -152t-83.5 -95q-30 -18 -69 -28t-85 -15t-99 -6.5t-110 -1.5z" />
    <glyph glyph-name="uni06A1.medi" unicode="&#x6a1;" horiz-adv-x="518" 
d="M0 -5l10 166q18 0 46 1.5t59.5 4.5t60 8t47.5 11q31 11 50 27.5t28 35.5t9 39q0 17 -6.5 31t-17 23t-21.5 9t-22.5 -8.5t-19 -24t-7.5 -36.5q0 -14 6 -30.5t20 -32.5t39 -32l-146 -62q-26 27 -44.5 53t-27.5 54.5t-9 62.5q0 44 18.5 81.5t49.5 65.5t69 43.5t77 15.5
q58 0 104 -28.5t73 -73.5t27 -96q0 -52 -17.5 -92.5t-46.5 -71t-64 -53.5t-69 -41q-26 -14 -64.5 -23.5t-79.5 -15.5t-75.5 -8.5t-55.5 -2.5zM518 -5q-54 0 -109.5 7t-104 20t-79.5 31l69 133q30 -12 70 -17.5t82.5 -6.5t81.5 -1q44 0 64 -24t20 -57q0 -37 -24.5 -61
t-69.5 -24z" />
    <glyph glyph-name="uni06A1.fina" unicode="&#x6a1;" horiz-adv-x="1086" 
d="M432 -21l26 166q46 0 96 3.5t96 10t82.5 14t55.5 14.5q33 11 52.5 27.5t28 35t8.5 36.5q0 11 -3 22.5t-9 21.5t-14 15.5t-18 5.5q-12 0 -23 -9t-18.5 -24.5t-7.5 -36.5q0 -13 6 -28.5t19.5 -31.5t37.5 -34l-148 -62q-24 27 -41.5 53t-27 54.5t-9.5 61.5q0 42 18 79.5
t48.5 66t69 45t79.5 16.5q60 0 105.5 -29.5t72 -75t26.5 -94.5q0 -51 -18 -91.5t-47.5 -71.5t-64.5 -54t-68 -40q-27 -14 -76 -26t-108 -21t-118.5 -14t-107.5 -5zM1086 -5q-56 0 -112 7t-103.5 19.5t-78.5 30.5l69 134q30 -10 69 -15.5t82 -7.5t84 -2q44 0 64 -24t20 -57
q0 -37 -24.5 -61t-69.5 -24zM432 -21q-118 0 -195 20t-121.5 54t-63 77t-18.5 89q0 40 6.5 77.5t16.5 70.5t18 58l145 -36q-5 -20 -10 -40.5t-8 -41t-3 -40.5q0 -36 22.5 -63.5t78.5 -43t158 -15.5l20 -134z" />
    <glyph glyph-name="fehDotMovedbelowar.init" unicode="&#x6a2;" horiz-adv-x="520" 
d="M0 -5l10 166h77.5t70 1.5t57.5 4.5t40 9q22 9 33.5 26t16 43.5t4.5 61.5q0 54 -7 87.5t-19 48.5t-28 15q-12 0 -22.5 -9t-15.5 -25.5t-5 -39.5q0 -15 6 -25.5t16.5 -16.5t25.5 -6q16 0 36 5t41 16l4 -116q-16 -13 -36.5 -23t-43.5 -15t-49 -5q-44 0 -80 18.5t-57.5 54
t-21.5 85.5q0 46 15 88.5t42.5 76.5t66.5 53.5t86 19.5q63 0 110 -36.5t73.5 -103.5t26.5 -161q0 -90 -26.5 -152t-83.5 -95q-30 -18 -69 -28t-85 -15t-99 -6.5t-110 -1.5zM213 -272q-34 0 -57.5 23.5t-23.5 56.5q0 35 23.5 59t57.5 24t57 -24t23 -59q0 -33 -23 -56.5
t-57 -23.5z" />
    <glyph glyph-name="fehDotMovedbelowar.medi" unicode="&#x6a2;" horiz-adv-x="518" 
d="M0 -5l10 166q18 0 46 1.5t59.5 4.5t60 8t47.5 11q31 11 50 27.5t28 35.5t9 39q0 17 -6.5 31t-17 23t-21.5 9t-22.5 -8.5t-19 -24t-7.5 -36.5q0 -14 6 -30.5t20 -32.5t39 -32l-146 -62q-26 27 -44.5 53t-27.5 54.5t-9 62.5q0 44 18.5 81.5t49.5 65.5t69 43.5t77 15.5
q58 0 104 -28.5t73 -73.5t27 -96q0 -52 -17.5 -92.5t-46.5 -71t-64 -53.5t-69 -41q-26 -14 -64.5 -23.5t-79.5 -15.5t-75.5 -8.5t-55.5 -2.5zM518 -5q-54 0 -109.5 7t-104 20t-79.5 31l69 133q30 -12 70 -17.5t82.5 -6.5t81.5 -1q44 0 64 -24t20 -57q0 -37 -24.5 -61
t-69.5 -24zM261 -272q-34 0 -57.5 23.5t-23.5 56.5q0 35 23.5 59t57.5 24t57 -24t23 -59q0 -33 -23 -56.5t-57 -23.5z" />
    <glyph glyph-name="fehDotMovedbelowar.fina" unicode="&#x6a2;" horiz-adv-x="1086" 
d="M432 -21l26 166q46 0 96 3.5t96 10t82.5 14t55.5 14.5q33 11 52.5 27.5t28 35t8.5 36.5q0 11 -3 22.5t-9 21.5t-14 15.5t-18 5.5q-12 0 -23 -9t-18.5 -24.5t-7.5 -36.5q0 -13 6 -28.5t19.5 -31.5t37.5 -34l-148 -62q-24 27 -41.5 53t-27 54.5t-9.5 61.5q0 42 18 79.5
t48.5 66t69 45t79.5 16.5q60 0 105.5 -29.5t72 -75t26.5 -94.5q0 -51 -18 -91.5t-47.5 -71.5t-64.5 -54t-68 -40q-27 -14 -76 -26t-108 -21t-118.5 -14t-107.5 -5zM1086 -5q-56 0 -112 7t-103.5 19.5t-78.5 30.5l69 134q30 -10 69 -15.5t82 -7.5t84 -2q44 0 64 -24t20 -57
q0 -37 -24.5 -61t-69.5 -24zM432 -21q-118 0 -195 20t-121.5 54t-63 77t-18.5 89q0 40 6.5 77.5t16.5 70.5t18 58l145 -36q-5 -20 -10 -40.5t-8 -41t-3 -40.5q0 -36 22.5 -63.5t78.5 -43t158 -15.5l20 -134zM481 -270q-34 0 -57.5 23.5t-23.5 56.5q0 35 23.5 59t57.5 24
t57 -24t23 -59q0 -33 -23 -56.5t-57 -23.5z" />
    <glyph glyph-name="uni06A3.init" unicode="&#x6a3;" horiz-adv-x="520" 
d="M0 -5l10 166h77.5t70 1.5t57.5 4.5t40 9q22 9 33.5 26t16 43.5t4.5 61.5q0 54 -7 87.5t-19 48.5t-28 15q-12 0 -22.5 -9t-15.5 -25.5t-5 -39.5q0 -15 6 -25.5t16.5 -16.5t25.5 -6q16 0 36 5t41 16l4 -116q-16 -13 -36.5 -23t-43.5 -15t-49 -5q-44 0 -80 18.5t-57.5 54
t-21.5 85.5q0 46 15 88.5t42.5 76.5t66.5 53.5t86 19.5q63 0 110 -36.5t73.5 -103.5t26.5 -161q0 -90 -26.5 -152t-83.5 -95q-30 -18 -69 -28t-85 -15t-99 -6.5t-110 -1.5zM251 687q-34 0 -57.5 23.5t-23.5 57.5t23.5 58.5t57.5 24.5t57 -24.5t23 -58.5t-23.5 -57.5
t-56.5 -23.5zM213 -272q-34 0 -57.5 23.5t-23.5 56.5q0 35 23.5 59t57.5 24t57 -24t23 -59q0 -33 -23 -56.5t-57 -23.5z" />
    <glyph glyph-name="uni06A3.medi" unicode="&#x6a3;" horiz-adv-x="518" 
d="M0 -5l10 166q18 0 46 1.5t59.5 4.5t60 8t47.5 11q31 11 50 27.5t28 35.5t9 39q0 17 -6.5 31t-17 23t-21.5 9t-22.5 -8.5t-19 -24t-7.5 -36.5q0 -14 6 -30.5t20 -32.5t39 -32l-146 -62q-26 27 -44.5 53t-27.5 54.5t-9 62.5q0 44 18.5 81.5t49.5 65.5t69 43.5t77 15.5
q58 0 104 -28.5t73 -73.5t27 -96q0 -52 -17.5 -92.5t-46.5 -71t-64 -53.5t-69 -41q-26 -14 -64.5 -23.5t-79.5 -15.5t-75.5 -8.5t-55.5 -2.5zM518 -5q-54 0 -109.5 7t-104 20t-79.5 31l69 133q30 -12 70 -17.5t82.5 -6.5t81.5 -1q44 0 64 -24t20 -57q0 -37 -24.5 -61
t-69.5 -24zM270 594q-34 0 -57.5 23.5t-23.5 57.5t23.5 58.5t57.5 24.5t57 -24.5t23 -58.5t-23.5 -57.5t-56.5 -23.5zM261 -272q-34 0 -57.5 23.5t-23.5 56.5q0 35 23.5 59t57.5 24t57 -24t23 -59q0 -33 -23 -56.5t-57 -23.5z" />
    <glyph glyph-name="uni06A3.fina" unicode="&#x6a3;" horiz-adv-x="1086" 
d="M432 -21l26 166q46 0 96 3.5t96 10t82.5 14t55.5 14.5q33 11 52.5 27.5t28 35t8.5 36.5q0 11 -3 22.5t-9 21.5t-14 15.5t-18 5.5q-12 0 -23 -9t-18.5 -24.5t-7.5 -36.5q0 -13 6 -28.5t19.5 -31.5t37.5 -34l-148 -62q-24 27 -41.5 53t-27 54.5t-9.5 61.5q0 42 18 79.5
t48.5 66t69 45t79.5 16.5q60 0 105.5 -29.5t72 -75t26.5 -94.5q0 -51 -18 -91.5t-47.5 -71.5t-64.5 -54t-68 -40q-27 -14 -76 -26t-108 -21t-118.5 -14t-107.5 -5zM1086 -5q-56 0 -112 7t-103.5 19.5t-78.5 30.5l69 134q30 -10 69 -15.5t82 -7.5t84 -2q44 0 64 -24t20 -57
q0 -37 -24.5 -61t-69.5 -24zM432 -21q-118 0 -195 20t-121.5 54t-63 77t-18.5 89q0 40 6.5 77.5t16.5 70.5t18 58l145 -36q-5 -20 -10 -40.5t-8 -41t-3 -40.5q0 -36 22.5 -63.5t78.5 -43t158 -15.5l20 -134zM837 594q-34 0 -57.5 23.5t-23.5 57.5t23.5 58.5t57.5 24.5
t57 -24.5t23 -58.5t-23.5 -57.5t-56.5 -23.5zM481 -270q-34 0 -57.5 23.5t-23.5 56.5q0 35 23.5 59t57.5 24t57 -24t23 -59q0 -33 -23 -56.5t-57 -23.5z" />
    <glyph glyph-name="uni06A5.init" unicode="&#x6a5;" horiz-adv-x="520" 
d="M0 -5l10 166h77.5t70 1.5t57.5 4.5t40 9q22 9 33.5 26t16 43.5t4.5 61.5q0 54 -7 87.5t-19 48.5t-28 15q-12 0 -22.5 -9t-15.5 -25.5t-5 -39.5q0 -15 6 -25.5t16.5 -16.5t25.5 -6q16 0 36 5t41 16l4 -116q-16 -13 -36.5 -23t-43.5 -15t-49 -5q-44 0 -80 18.5t-57.5 54
t-21.5 85.5q0 46 15 88.5t42.5 76.5t66.5 53.5t86 19.5q63 0 110 -36.5t73.5 -103.5t26.5 -161q0 -90 -26.5 -152t-83.5 -95q-30 -18 -69 -28t-85 -15t-99 -6.5t-110 -1.5zM212 -415q-31 0 -52 21t-21 52q0 30 21 52.5t52 22.5q30 0 51 -22.5t21 -52.5q0 -31 -21 -52
t-51 -21zM122 -259q-31 0 -52 21t-21 52q0 30 21 52.5t52 22.5t52 -22.5t21 -52.5q0 -31 -21 -52t-52 -21zM306 -259q-31 0 -52 21t-21 52q0 30 21 52.5t52 22.5q32 0 52.5 -22.5t20.5 -52.5q0 -31 -20.5 -52t-52.5 -21z" />
    <glyph glyph-name="uni06A5.medi" unicode="&#x6a5;" horiz-adv-x="518" 
d="M0 -5l10 166q18 0 46 1.5t59.5 4.5t60 8t47.5 11q31 11 50 27.5t28 35.5t9 39q0 17 -6.5 31t-17 23t-21.5 9t-22.5 -8.5t-19 -24t-7.5 -36.5q0 -14 6 -30.5t20 -32.5t39 -32l-146 -62q-26 27 -44.5 53t-27.5 54.5t-9 62.5q0 44 18.5 81.5t49.5 65.5t69 43.5t77 15.5
q58 0 104 -28.5t73 -73.5t27 -96q0 -52 -17.5 -92.5t-46.5 -71t-64 -53.5t-69 -41q-26 -14 -64.5 -23.5t-79.5 -15.5t-75.5 -8.5t-55.5 -2.5zM518 -5q-54 0 -109.5 7t-104 20t-79.5 31l69 133q30 -12 70 -17.5t82.5 -6.5t81.5 -1q44 0 64 -24t20 -57q0 -37 -24.5 -61
t-69.5 -24zM260 -415q-31 0 -52 21t-21 52q0 30 21 52.5t52 22.5q30 0 51 -22.5t21 -52.5q0 -31 -21 -52t-51 -21zM170 -259q-31 0 -52 21t-21 52q0 30 21 52.5t52 22.5t52 -22.5t21 -52.5q0 -31 -21 -52t-52 -21zM354 -259q-31 0 -52 21t-21 52q0 30 21 52.5t52 22.5
q32 0 52.5 -22.5t20.5 -52.5q0 -31 -20.5 -52t-52.5 -21z" />
    <glyph glyph-name="uni06A5.fina" unicode="&#x6a5;" horiz-adv-x="1086" 
d="M432 -21l26 166q46 0 96 3.5t96 10t82.5 14t55.5 14.5q33 11 52.5 27.5t28 35t8.5 36.5q0 11 -3 22.5t-9 21.5t-14 15.5t-18 5.5q-12 0 -23 -9t-18.5 -24.5t-7.5 -36.5q0 -13 6 -28.5t19.5 -31.5t37.5 -34l-148 -62q-24 27 -41.5 53t-27 54.5t-9.5 61.5q0 42 18 79.5
t48.5 66t69 45t79.5 16.5q60 0 105.5 -29.5t72 -75t26.5 -94.5q0 -51 -18 -91.5t-47.5 -71.5t-64.5 -54t-68 -40q-27 -14 -76 -26t-108 -21t-118.5 -14t-107.5 -5zM1086 -5q-56 0 -112 7t-103.5 19.5t-78.5 30.5l69 134q30 -10 69 -15.5t82 -7.5t84 -2q44 0 64 -24t20 -57
q0 -37 -24.5 -61t-69.5 -24zM432 -21q-118 0 -195 20t-121.5 54t-63 77t-18.5 89q0 40 6.5 77.5t16.5 70.5t18 58l145 -36q-5 -20 -10 -40.5t-8 -41t-3 -40.5q0 -36 22.5 -63.5t78.5 -43t158 -15.5l20 -134zM480 -412q-31 0 -52 21t-21 52q0 30 21 52.5t52 22.5
q30 0 51 -22.5t21 -52.5q0 -31 -21 -52t-51 -21zM390 -256q-31 0 -52 21t-21 52q0 30 21 52.5t52 22.5t52 -22.5t21 -52.5q0 -31 -21 -52t-52 -21zM574 -256q-31 0 -52 21t-21 52q0 30 21 52.5t52 22.5q32 0 52.5 -22.5t20.5 -52.5q0 -31 -20.5 -52t-52.5 -21z" />
    <glyph glyph-name="uni06A7.fina" unicode="&#x6a7;" horiz-adv-x="834" 
d="M351 -272q-66 0 -125.5 15t-104.5 47.5t-71 83t-26 120.5q0 28 4 58.5t16 71.5t36 100l153 -55q-14 -39 -21.5 -63.5t-10 -42.5t-2.5 -39q0 -38 20 -67.5t59.5 -46t98.5 -16.5q39 0 72 6.5t60 17.5t48 26t35 32.5t21 36.5q9 23 12 53.5t3 75.5q0 49 -5 78.5t-15.5 42.5
t-27.5 13q-11 0 -19 -6t-14 -15.5t-9 -20.5t-3 -21q0 -19 6.5 -32.5t26.5 -21t60.5 -7.5t109.5 9h106q44 0 64 -24t20 -57q0 -37 -23.5 -61t-70.5 -24h-173q-56 0 -107.5 8t-92.5 28t-65 55t-24 90q0 47 16 89.5t45.5 75.5t70 52t88.5 19q64 0 109 -37t68.5 -102t23.5 -149
q0 -58 -16 -110.5t-37 -90.5q-25 -46 -63 -82t-87.5 -61.5t-109.5 -38.5t-129 -13zM593 505q-34 0 -57.5 23.5t-23.5 57.5t23.5 58.5t57.5 24.5t57 -24.5t23 -58.5t-23.5 -57.5t-56.5 -23.5z" />
    <glyph glyph-name="uni06A8.init" unicode="&#x6a8;" horiz-adv-x="520" 
d="M0 -5l10 166h77.5t70 1.5t57.5 4.5t40 9q22 9 33.5 26t16 43.5t4.5 61.5q0 54 -7 87.5t-19 48.5t-28 15q-12 0 -22.5 -9t-15.5 -25.5t-5 -39.5q0 -15 6 -25.5t16.5 -16.5t25.5 -6q16 0 36 5t41 16l4 -116q-16 -13 -36.5 -23t-43.5 -15t-49 -5q-44 0 -80 18.5t-57.5 54
t-21.5 85.5q0 46 15 88.5t42.5 76.5t66.5 53.5t86 19.5q63 0 110 -36.5t73.5 -103.5t26.5 -161q0 -90 -26.5 -152t-83.5 -95q-30 -18 -69 -28t-85 -15t-99 -6.5t-110 -1.5zM252 843q-32 0 -53 21t-21 51q0 31 21 53t53 22q31 0 52.5 -22t21.5 -53q0 -30 -21.5 -51t-52.5 -21
zM167 686q-31 0 -53.5 23t-22.5 52q0 30 22.5 53t53.5 23q29 0 50.5 -23t21.5 -53q0 -29 -21.5 -52t-50.5 -23zM340 686q-30 0 -50 23t-20 52q0 30 20 53t50 23t52.5 -23t22.5 -53q0 -29 -22.5 -52t-52.5 -23z" />
    <glyph glyph-name="uni06A8.medi" unicode="&#x6a8;" horiz-adv-x="518" 
d="M0 -5l10 166q18 0 46 1.5t59.5 4.5t60 8t47.5 11q31 11 50 27.5t28 35.5t9 39q0 17 -6.5 31t-17 23t-21.5 9t-22.5 -8.5t-19 -24t-7.5 -36.5q0 -14 6 -30.5t20 -32.5t39 -32l-146 -62q-26 27 -44.5 53t-27.5 54.5t-9 62.5q0 44 18.5 81.5t49.5 65.5t69 43.5t77 15.5
q58 0 104 -28.5t73 -73.5t27 -96q0 -52 -17.5 -92.5t-46.5 -71t-64 -53.5t-69 -41q-26 -14 -64.5 -23.5t-79.5 -15.5t-75.5 -8.5t-55.5 -2.5zM518 -5q-54 0 -109.5 7t-104 20t-79.5 31l69 133q30 -12 70 -17.5t82.5 -6.5t81.5 -1q44 0 64 -24t20 -57q0 -37 -24.5 -61
t-69.5 -24zM271 750q-32 0 -53 21t-21 51q0 31 21 53t53 22q31 0 52.5 -22t21.5 -53q0 -30 -21.5 -51t-52.5 -21zM186 593q-31 0 -53.5 23t-22.5 52q0 30 22.5 53t53.5 23q29 0 50.5 -23t21.5 -53q0 -29 -21.5 -52t-50.5 -23zM359 593q-30 0 -50 23t-20 52q0 30 20 53t50 23
t52.5 -23t22.5 -53q0 -29 -22.5 -52t-52.5 -23z" />
    <glyph glyph-name="uni06A8.fina" unicode="&#x6a8;" horiz-adv-x="834" 
d="M351 -272q-66 0 -125.5 15t-104.5 47.5t-71 83t-26 120.5q0 28 4 58.5t16 71.5t36 100l153 -55q-14 -39 -21.5 -63.5t-10 -42.5t-2.5 -39q0 -38 20 -67.5t59.5 -46t98.5 -16.5q39 0 72 6.5t60 17.5t48 26t35 32.5t21 36.5q9 23 12 53.5t3 75.5q0 49 -5 78.5t-15.5 42.5
t-27.5 13q-11 0 -19 -6t-14 -15.5t-9 -20.5t-3 -21q0 -19 6.5 -32.5t26.5 -21t60.5 -7.5t109.5 9h106q44 0 64 -24t20 -57q0 -37 -23.5 -61t-70.5 -24h-173q-56 0 -107.5 8t-92.5 28t-65 55t-24 90q0 47 16 89.5t45.5 75.5t70 52t88.5 19q64 0 109 -37t68.5 -102t23.5 -149
q0 -58 -16 -110.5t-37 -90.5q-25 -46 -63 -82t-87.5 -61.5t-109.5 -38.5t-129 -13zM594 661q-32 0 -53 21t-21 51q0 31 21 53t53 22q31 0 52.5 -22t21.5 -53q0 -30 -21.5 -51t-52.5 -21zM509 504q-31 0 -53.5 23t-22.5 52q0 30 22.5 53t53.5 23q29 0 50.5 -23t21.5 -53
q0 -29 -21.5 -52t-50.5 -23zM682 504q-30 0 -50 23t-20 52q0 30 20 53t50 23t52.5 -23t22.5 -53q0 -29 -22.5 -52t-52.5 -23z" />
    <glyph glyph-name="uni06AA.init" unicode="&#x6aa;" horiz-adv-x="821" 
d="M0 -5l10 166h312h152.5t92.5 2t46.5 7.5t13.5 16.5q0 8 -8.5 14t-30 11t-61 10.5t-101.5 13.5q-115 15 -182.5 34t-96 49.5t-28.5 77.5q0 57 32 100t87.5 75t127 54.5t150.5 38.5l34 -144q-77 -14 -136 -30.5t-92 -32.5t-33 -31q0 -9 15.5 -15.5t54.5 -13t109 -15.5
q88 -12 148 -27.5t96.5 -40t52.5 -58.5t16 -82q0 -52 -24 -86.5t-78 -55t-141.5 -29t-215.5 -8.5z" />
    <glyph glyph-name="uni06AA.medi" unicode="&#x6aa;" horiz-adv-x="901" 
d="M901 -5q-56 0 -102.5 12t-81.5 30t-56 35l95 120q34 -17 70 -24t84 -7q45 0 65 -24t20 -57q0 -38 -24.5 -61.5t-69.5 -23.5zM0 -5l10 166h312h152.5t92.5 2t46.5 7.5t13.5 16.5q0 8 -8.5 14t-30 11t-61 10.5t-101.5 13.5q-115 15 -182.5 34t-96 49.5t-28.5 77.5
q0 57 32 100t87.5 75t127 54.5t150.5 38.5l34 -144q-77 -14 -136 -30.5t-92 -32.5t-33 -31q0 -9 15.5 -15.5t54.5 -13t109 -15.5q88 -12 148 -27.5t96.5 -40t52.5 -58.5t16 -82q0 -52 -24 -86.5t-78 -55t-141.5 -29t-215.5 -8.5z" />
    <glyph glyph-name="uni06AA.fina" unicode="&#x6aa;" horiz-adv-x="1093" 
d="M1093 -5q-56 0 -102.5 12t-81.5 30t-56 35l95 120q34 -17 70 -24t84 -7q45 0 65.5 -24t20.5 -57q0 -38 -24.5 -61.5t-70.5 -23.5zM514 -15q-42 0 -102.5 1t-127.5 3t-129.5 6t-109.5 9l6 158q50 -3 106.5 -6t117 -5.5t121.5 -4t118 -1.5q93 0 152.5 1.5t92.5 5t46.5 11
t13.5 19.5q0 10 -9 16.5t-30.5 12t-60.5 11.5t-101 14q-115 15 -182.5 34t-96.5 49.5t-29 77.5q0 57 32.5 100t88 75t127 54.5t150.5 38.5l34 -144q-77 -14 -136 -30.5t-92 -32.5t-33 -31q0 -9 15.5 -15.5t54.5 -13t109 -15.5q87 -12 147.5 -27.5t96.5 -40t52 -58.5t16 -82
q0 -52 -24 -88.5t-77.5 -58.5t-141 -32.5t-215.5 -10.5z" />
    <glyph glyph-name="uni06AB.init" unicode="&#x6ab;" horiz-adv-x="461" 
d="M357 416q-42 0 -71 29.5t-29 70.5t29 70.5t71 29.5t71 -29.5t29 -70.5t-29 -70.5t-71 -29.5zM357 486q13 0 22.5 8.5t9.5 21.5q0 14 -9.5 22.5t-22.5 8.5t-22.5 -9t-9.5 -22t9.5 -21.5t22.5 -8.5zM0 -5l10 166h136q16 0 26.5 2t17 6.5t9 12t2.5 18.5q0 27 -21.5 58
t-50.5 60q-21 23 -39.5 41t-33 33t-22.5 26t-8 20q0 15 2.5 37t7 42t11.5 27q17 19 52.5 43.5t83 51t101 54t108.5 52.5l72 -143q-59 -27 -106.5 -50.5t-85.5 -44t-66 -39t-48 -36.5l-3 91q52 -42 94 -86t72 -87.5t46 -85t16 -79.5q0 -35 -14.5 -68.5t-46 -61t-81.5 -44
t-121 -16.5h-120z" />
    <glyph glyph-name="uni06AB.medi" unicode="&#x6ab;" horiz-adv-x="499" 
d="M359 416q-41 0 -70 29.5t-29 70.5t29 70.5t70 29.5q42 0 71 -29.5t29 -70.5t-29 -70.5t-71 -29.5zM359 486q13 0 22.5 8.5t9.5 21.5q0 14 -9.5 22.5t-22.5 8.5q-12 0 -22 -9t-10 -22t10 -21.5t22 -8.5zM0 -5l10 166h127q22 0 36.5 3t21 12t6.5 24q0 18 -12.5 40.5
t-32.5 46t-42.5 47t-42.5 44.5t-32.5 37.5t-12.5 25.5q0 22 2.5 43t7 37t11.5 23q17 19 48.5 41t75.5 47.5t99.5 53t121.5 59.5l72 -143q-68 -32 -117 -56.5t-84.5 -44t-61 -37t-46.5 -35.5l2 91q24 -23 53 -52.5t58 -64t55.5 -74.5t46.5 -85q17 -37 34.5 -55t42.5 -23
t62 -5q44 0 64.5 -24t20.5 -57q0 -37 -24.5 -61t-70.5 -24q-57 0 -98.5 12t-67.5 38.5t-36 71.5h59q-15 -29 -37 -52t-51.5 -38.5t-67.5 -23.5t-84 -8h-116z" />
    <glyph glyph-name="uni06AB.fina" unicode="&#x6ab;" horiz-adv-x="972" 
d="M824 417q-41 0 -70 29.5t-29 70.5q0 42 29 71t70 29q42 0 71 -29t29 -71q0 -41 -29 -70.5t-71 -29.5zM824 487q13 0 22.5 8.5t9.5 21.5q0 14 -9.5 22.5t-22.5 8.5q-12 0 -22 -9t-10 -22t10 -21.5t22 -8.5zM432 -21l26 166q50 0 88.5 2t65 7.5t41 17.5t14.5 32
q0 17 -13 38t-33 44.5t-42 46.5t-42.5 44t-33 37t-12.5 25q0 22 2.5 43.5t7 38t11.5 23.5q23 25 68 54.5t114 66t162 80.5l72 -143q-59 -29 -116 -57t-105.5 -56t-82.5 -58v89q26 -25 54 -53.5t56.5 -61.5t55 -73t49.5 -89q12 -27 25.5 -43.5t31 -24.5t38.5 -11t49 -3
q44 0 63.5 -24t19.5 -57q0 -37 -24 -61t-69 -24q-50 0 -92 10t-71 36.5t-40 75.5h51q-23 -46 -61.5 -73.5t-89 -41.5t-111 -18.5t-127.5 -4.5zM432 -21q-118 0 -195 20t-121.5 54t-63 77t-18.5 89q0 40 6.5 77.5t16.5 70.5t18 58l145 -36q-5 -20 -10 -40.5t-8 -41t-3 -40.5
q0 -36 22.5 -63.5t78.5 -43t158 -15.5l20 -134z" />
    <glyph glyph-name="uni06AC.init" unicode="&#x6ac;" horiz-adv-x="461" 
d="M0 -5l10 166h136q16 0 26.5 2t17 6.5t9 12t2.5 18.5q0 27 -21.5 58t-50.5 60q-21 23 -39.5 41t-33 33t-22.5 26t-8 20q0 15 2.5 37t7 42t11.5 27q17 19 52.5 43.5t83 51t101 54t108.5 52.5l72 -143q-59 -27 -106.5 -50.5t-85.5 -44t-66 -39t-48 -36.5l-3 91
q52 -42 94 -86t72 -87.5t46 -85t16 -79.5q0 -35 -14.5 -68.5t-46 -61t-81.5 -44t-121 -16.5h-120zM173 729q-34 0 -57.5 23.5t-23.5 57.5t23.5 58.5t57.5 24.5t57 -24.5t23 -58.5t-23.5 -57.5t-56.5 -23.5z" />
    <glyph glyph-name="uni06AC.medi" unicode="&#x6ac;" horiz-adv-x="499" 
d="M0 -5l10 166h127q22 0 36.5 3t21 12t6.5 24q0 18 -12.5 40.5t-32.5 46t-42.5 47t-42.5 44.5t-32.5 37.5t-12.5 25.5q0 22 2.5 43t7 37t11.5 23q17 19 48.5 41t75.5 47.5t99.5 53t121.5 59.5l72 -143q-68 -32 -117 -56.5t-84.5 -44t-61 -37t-46.5 -35.5l2 91
q24 -23 53 -52.5t58 -64t55.5 -74.5t46.5 -85q17 -37 34.5 -55t42.5 -23t62 -5q44 0 64.5 -24t20.5 -57q0 -37 -24.5 -61t-70.5 -24q-57 0 -98.5 12t-67.5 38.5t-36 71.5h59q-15 -29 -37 -52t-51.5 -38.5t-67.5 -23.5t-84 -8h-116zM210 726q-34 0 -57.5 23.5t-23.5 57.5
t23.5 58.5t57.5 24.5t57 -24.5t23 -58.5t-23.5 -57.5t-56.5 -23.5z" />
    <glyph glyph-name="uni06AC.fina" unicode="&#x6ac;" horiz-adv-x="980" 
d="M432 -21l26 166q83 -1 136.5 5.5t82.5 27.5t39.5 62t7.5 109l-19 411h171l17 -428q2 -71 12 -108t30 -50t55 -13q44 0 64.5 -24t20.5 -57q0 -37 -24.5 -61t-70.5 -24q-37 0 -74 13t-64 44t-37 85h60q-25 -55 -72 -87.5t-106 -48t-125 -19.5t-130 -3zM374 224l-30 118
q37 8 60.5 14.5t35 14.5t11.5 16t-9.5 18.5t-21.5 24.5t-21.5 31t-9.5 38q0 30 16 55t49.5 46t85.5 40l51 -107q-39 -14 -56.5 -27t-17.5 -25q0 -9 10 -22t22 -28t22 -32.5t10 -37.5q0 -18 -6.5 -36.5t-27 -36.5t-61.5 -34t-112 -30zM432 -21q-118 0 -195 20t-121.5 54
t-63 77t-18.5 89q0 40 6.5 77.5t16.5 70.5t18 58l145 -36q-5 -20 -10 -40.5t-8 -41t-3 -40.5q0 -36 22.5 -63.5t78.5 -43t158 -15.5l20 -134zM475 664q-34 0 -57.5 23.5t-23.5 57.5t23.5 58.5t57.5 24.5t57 -24.5t23 -58.5t-23.5 -57.5t-56.5 -23.5z" />
    <glyph glyph-name="uni06AE.init" unicode="&#x6ae;" horiz-adv-x="461" 
d="M0 -5l10 166h136q16 0 26.5 2t17 6.5t9 12t2.5 18.5q0 27 -21.5 58t-50.5 60q-21 23 -39.5 41t-33 33t-22.5 26t-8 20q0 15 2.5 37t7 42t11.5 27q17 19 52.5 43.5t83 51t101 54t108.5 52.5l72 -143q-59 -27 -106.5 -50.5t-85.5 -44t-66 -39t-48 -36.5l-3 91
q52 -42 94 -86t72 -87.5t46 -85t16 -79.5q0 -35 -14.5 -68.5t-46 -61t-81.5 -44t-121 -16.5h-120zM205 -390q-31 0 -52 21t-21 52q0 30 21 52.5t52 22.5q30 0 51 -22.5t21 -52.5q0 -31 -21 -52t-51 -21zM115 -234q-31 0 -52 21t-21 52q0 30 21 52.5t52 22.5t52 -22.5
t21 -52.5q0 -31 -21 -52t-52 -21zM299 -234q-31 0 -52 21t-21 52q0 30 21 52.5t52 22.5q32 0 52.5 -22.5t20.5 -52.5q0 -31 -20.5 -52t-52.5 -21z" />
    <glyph glyph-name="uni06AE.medi" unicode="&#x6ae;" horiz-adv-x="499" 
d="M0 -5l10 166h127q22 0 36.5 3t21 12t6.5 24q0 18 -12.5 40.5t-32.5 46t-42.5 47t-42.5 44.5t-32.5 37.5t-12.5 25.5q0 22 2.5 43t7 37t11.5 23q17 19 48.5 41t75.5 47.5t99.5 53t121.5 59.5l72 -143q-68 -32 -117 -56.5t-84.5 -44t-61 -37t-46.5 -35.5l2 91
q24 -23 53 -52.5t58 -64t55.5 -74.5t46.5 -85q17 -37 34.5 -55t42.5 -23t62 -5q44 0 64.5 -24t20.5 -57q0 -37 -24.5 -61t-70.5 -24q-57 0 -98.5 12t-67.5 38.5t-36 71.5h59q-15 -29 -37 -52t-51.5 -38.5t-67.5 -23.5t-84 -8h-116zM201 -390q-31 0 -52 21t-21 52
q0 30 21 52.5t52 22.5q30 0 51 -22.5t21 -52.5q0 -31 -21 -52t-51 -21zM111 -234q-31 0 -52 21t-21 52q0 30 21 52.5t52 22.5t52 -22.5t21 -52.5q0 -31 -21 -52t-52 -21zM295 -234q-31 0 -52 21t-21 52q0 30 21 52.5t52 22.5q32 0 52.5 -22.5t20.5 -52.5q0 -31 -20.5 -52
t-52.5 -21z" />
    <glyph glyph-name="uni06AE.fina" unicode="&#x6ae;" horiz-adv-x="980" 
d="M432 -21l26 166q83 -1 136.5 5.5t82.5 27.5t39.5 62t7.5 109l-19 411h171l17 -428q2 -71 12 -108t30 -50t55 -13q44 0 64.5 -24t20.5 -57q0 -37 -24.5 -61t-70.5 -24q-37 0 -74 13t-64 44t-37 85h60q-25 -55 -72 -87.5t-106 -48t-125 -19.5t-130 -3zM374 224l-30 118
q37 8 60.5 14.5t35 14.5t11.5 16t-9.5 18.5t-21.5 24.5t-21.5 31t-9.5 38q0 30 16 55t49.5 46t85.5 40l51 -107q-39 -14 -56.5 -27t-17.5 -25q0 -9 10 -22t22 -28t22 -32.5t10 -37.5q0 -18 -6.5 -36.5t-27 -36.5t-61.5 -34t-112 -30zM432 -21q-118 0 -195 20t-121.5 54
t-63 77t-18.5 89q0 40 6.5 77.5t16.5 70.5t18 58l145 -36q-5 -20 -10 -40.5t-8 -41t-3 -40.5q0 -36 22.5 -63.5t78.5 -43t158 -15.5l20 -134zM437 -411q-31 0 -52 21t-21 52q0 30 21 52.5t52 22.5q30 0 51 -22.5t21 -52.5q0 -31 -21 -52t-51 -21zM347 -255q-31 0 -52 21
t-21 52q0 30 21 52.5t52 22.5t52 -22.5t21 -52.5q0 -31 -21 -52t-52 -21zM531 -255q-31 0 -52 21t-21 52q0 30 21 52.5t52 22.5q32 0 52.5 -22.5t20.5 -52.5q0 -31 -20.5 -52t-52.5 -21z" />
    <glyph glyph-name="uni06B0.init" unicode="&#x6b0;" horiz-adv-x="456" 
d="M360 416q-42 0 -71 29.5t-29 70.5q0 42 29 71t71 29t71 -29t29 -71q0 -41 -29 -70.5t-71 -29.5zM360 487q13 0 22 8t9 21q0 14 -9 22.5t-22 8.5t-22.5 -9t-9.5 -22t9.5 -21t22.5 -8zM21 621l-64 115q36 23 85 50.5t113.5 61t143.5 74.5l59 -124q-81 -40 -142.5 -71.5
t-109.5 -57t-85 -48.5zM0 -5l10 166h136q16 0 26.5 2t17 6.5t9 12t2.5 18.5q0 27 -21.5 58t-50.5 60q-21 23 -39.5 41t-33 33t-22.5 26t-8 20q0 15 2.5 37t7 42t11.5 27q17 19 52.5 43.5t83 51t101 54t108.5 52.5l72 -143q-59 -27 -106.5 -50.5t-85.5 -44t-66 -39t-48 -36.5
l-3 91q52 -42 94 -86t72 -87.5t46 -85t16 -79.5q0 -35 -14.5 -68.5t-46 -61t-81.5 -44t-121 -16.5h-120z" />
    <glyph glyph-name="uni06B0.medi" unicode="&#x6b0;" horiz-adv-x="499" 
d="M360 416q-42 0 -71 29.5t-29 70.5q0 42 29 71t71 29t71 -29t29 -71q0 -41 -29 -70.5t-71 -29.5zM360 487q13 0 22 8t9 21q0 14 -9 22.5t-22 8.5t-22.5 -9t-9.5 -22t9.5 -21t22.5 -8zM22 621l-63 115q36 23 85 50.5t113.5 61t143.5 74.5l59 -124q-81 -40 -142.5 -71.5
t-109.5 -57t-86 -48.5zM0 -5l10 166h127q22 0 36.5 3t21 12t6.5 24q0 18 -12.5 40.5t-32.5 46t-42.5 47t-42.5 44.5t-32.5 37.5t-12.5 25.5q0 22 2.5 43t7 37t11.5 23q17 19 48.5 41t75.5 47.5t99.5 53t121.5 59.5l72 -143q-68 -32 -117 -56.5t-84.5 -44t-61 -37
t-46.5 -35.5l2 91q24 -23 53 -52.5t58 -64t55.5 -74.5t46.5 -85q17 -37 34.5 -55t42.5 -23t62 -5q44 0 64.5 -24t20.5 -57q0 -37 -24.5 -61t-70.5 -24q-57 0 -98.5 12t-67.5 38.5t-36 71.5h59q-15 -29 -37 -52t-51.5 -38.5t-67.5 -23.5t-84 -8h-116z" />
    <glyph glyph-name="uni06B0.fina" unicode="&#x6b0;" horiz-adv-x="965" 
d="M829 418q-41 0 -70 29t-29 71q0 41 29 70.5t70 29.5q42 0 71 -29.5t29 -70.5q0 -42 -29 -71t-71 -29zM829 488q13 0 22.5 8.5t9.5 21.5q0 14 -9.5 22t-22.5 8q-12 0 -22 -8.5t-10 -21.5t10 -21.5t22 -8.5zM501 621l-63 115q36 22 85 49.5t113 61t143 74.5l59 -124
q-79 -40 -141 -71.5t-110 -57t-86 -47.5zM432 -21l26 166q50 0 88.5 2t65 7.5t41 17.5t14.5 32q0 17 -13 38t-33 44.5t-42 46.5t-42.5 44t-33 37t-12.5 25q0 22 2.5 43.5t7 38t11.5 23.5q23 25 68 54.5t114 66t162 80.5l72 -143q-59 -29 -116 -57t-105.5 -56t-82.5 -58v89
q26 -25 54 -53.5t56.5 -61.5t55 -73t49.5 -89q12 -27 25.5 -43.5t31 -24.5t38.5 -11t49 -3q44 0 63.5 -24t19.5 -57q0 -37 -24 -61t-69 -24q-50 0 -92 10t-71 36.5t-40 75.5h51q-23 -46 -61.5 -73.5t-89 -41.5t-111 -18.5t-127.5 -4.5zM432 -21q-118 0 -195 20t-121.5 54
t-63 77t-18.5 89q0 40 6.5 77.5t16.5 70.5t18 58l145 -36q-5 -20 -10 -40.5t-8 -41t-3 -40.5q0 -36 22.5 -63.5t78.5 -43t158 -15.5l20 -134z" />
    <glyph glyph-name="uni06B2.init" unicode="&#x6b2;" horiz-adv-x="456" 
d="M21 621l-64 115q36 23 85 50.5t113.5 61t143.5 74.5l59 -124q-81 -40 -142.5 -71.5t-109.5 -57t-85 -48.5zM0 -5l10 166h136q16 0 26.5 2t17 6.5t9 12t2.5 18.5q0 27 -21.5 58t-50.5 60q-21 23 -39.5 41t-33 33t-22.5 26t-8 20q0 15 2.5 37t7 42t11.5 27q17 19 52.5 43.5
t83 51t101 54t108.5 52.5l72 -143q-59 -27 -106.5 -50.5t-85.5 -44t-66 -39t-48 -36.5l-3 91q52 -42 94 -86t72 -87.5t46 -85t16 -79.5q0 -35 -14.5 -68.5t-46 -61t-81.5 -44t-121 -16.5h-120zM295 -232q-31 0 -51.5 21t-20.5 52t20.5 52t51.5 21t53 -21t22 -52t-22 -52
t-53 -21zM118 -232q-32 0 -53 21t-21 52t21.5 52t51.5 21q31 0 52.5 -21t21.5 -52t-21.5 -52t-51.5 -21z" />
    <glyph glyph-name="uni06B2.medi" unicode="&#x6b2;" horiz-adv-x="499" 
d="M22 621l-63 115q36 23 85 50.5t113.5 61t143.5 74.5l59 -124q-81 -40 -142.5 -71.5t-109.5 -57t-86 -48.5zM0 -5l10 166h127q22 0 36.5 3t21 12t6.5 24q0 18 -12.5 40.5t-32.5 46t-42.5 47t-42.5 44.5t-32.5 37.5t-12.5 25.5q0 22 2.5 43t7 37t11.5 23q17 19 48.5 41
t75.5 47.5t99.5 53t121.5 59.5l72 -143q-68 -32 -117 -56.5t-84.5 -44t-61 -37t-46.5 -35.5l2 91q24 -23 53 -52.5t58 -64t55.5 -74.5t46.5 -85q17 -37 34.5 -55t42.5 -23t62 -5q44 0 64.5 -24t20.5 -57q0 -37 -24.5 -61t-70.5 -24q-57 0 -98.5 12t-67.5 38.5t-36 71.5h59
q-15 -29 -37 -52t-51.5 -38.5t-67.5 -23.5t-84 -8h-116zM336 -232q-31 0 -51.5 21t-20.5 52t20.5 52t51.5 21t53 -21t22 -52t-22 -52t-53 -21zM159 -232q-32 0 -53 21t-21 52t21.5 52t51.5 21q31 0 52.5 -21t21.5 -52t-21.5 -52t-51.5 -21z" />
    <glyph glyph-name="uni06B2.fina" unicode="&#x6b2;" horiz-adv-x="965" 
d="M501 621l-63 115q36 22 85 49.5t113 61t143 74.5l59 -124q-79 -40 -141 -71.5t-110 -57t-86 -47.5zM432 -21l26 166q50 0 88.5 2t65 7.5t41 17.5t14.5 32q0 17 -13 38t-33 44.5t-42 46.5t-42.5 44t-33 37t-12.5 25q0 22 2.5 43.5t7 38t11.5 23.5q23 25 68 54.5t114 66
t162 80.5l72 -143q-59 -29 -116 -57t-105.5 -56t-82.5 -58v89q26 -25 54 -53.5t56.5 -61.5t55 -73t49.5 -89q12 -27 25.5 -43.5t31 -24.5t38.5 -11t49 -3q44 0 63.5 -24t19.5 -57q0 -37 -24 -61t-69 -24q-50 0 -92 10t-71 36.5t-40 75.5h51q-23 -46 -61.5 -73.5t-89 -41.5
t-111 -18.5t-127.5 -4.5zM432 -21q-118 0 -195 20t-121.5 54t-63 77t-18.5 89q0 40 6.5 77.5t16.5 70.5t18 58l145 -36q-5 -20 -10 -40.5t-8 -41t-3 -40.5q0 -36 22.5 -63.5t78.5 -43t158 -15.5l20 -134zM497 -253q-31 0 -51.5 21t-20.5 52t20.5 52t51.5 21t53 -21t22 -52
t-22 -52t-53 -21zM320 -253q-32 0 -53 21t-21 52t21.5 52t51.5 21q31 0 52.5 -21t21.5 -52t-21.5 -52t-51.5 -21z" />
    <glyph glyph-name="uni06B4.init" unicode="&#x6b4;" horiz-adv-x="456" 
d="M38 989q-23 0 -39.5 16t-16.5 38q0 23 16.5 39.5t39.5 16.5q22 0 37.5 -16.5t15.5 -39.5q0 -22 -15.5 -38t-37.5 -16zM27 850q-23 0 -39 15.5t-16 38.5t16 39.5t39 16.5q22 0 38 -16.5t16 -39.5t-16 -38.5t-38 -15.5zM154 911q-23 0 -39 16t-16 38q0 24 16 40.5t39 16.5
q22 0 37.5 -16.5t15.5 -40.5q0 -22 -15.5 -38t-37.5 -16zM21 621l-64 115q36 23 85 50.5t113.5 61t143.5 74.5l59 -124q-81 -40 -142.5 -71.5t-109.5 -57t-85 -48.5zM0 -5l10 166h136q16 0 26.5 2t17 6.5t9 12t2.5 18.5q0 27 -21.5 58t-50.5 60q-21 23 -39.5 41t-33 33
t-22.5 26t-8 20q0 15 2.5 37t7 42t11.5 27q17 19 52.5 43.5t83 51t101 54t108.5 52.5l72 -143q-59 -27 -106.5 -50.5t-85.5 -44t-66 -39t-48 -36.5l-3 91q52 -42 94 -86t72 -87.5t46 -85t16 -79.5q0 -35 -14.5 -68.5t-46 -61t-81.5 -44t-121 -16.5h-120z" />
    <glyph glyph-name="uni06B4.medi" unicode="&#x6b4;" horiz-adv-x="499" 
d="M38 989q-23 0 -39.5 16t-16.5 38q0 23 16.5 39.5t39.5 16.5q22 0 37.5 -16.5t15.5 -39.5q0 -22 -15.5 -38t-37.5 -16zM27 850q-23 0 -39 15.5t-16 38.5t16 39.5t39 16.5q22 0 38 -16.5t16 -39.5t-16 -38.5t-38 -15.5zM154 911q-23 0 -39 16t-16 38q0 24 16 40.5t39 16.5
q22 0 37.5 -16.5t15.5 -40.5q0 -22 -15.5 -38t-37.5 -16zM22 621l-63 115q36 23 85 50.5t113.5 61t143.5 74.5l59 -124q-81 -40 -142.5 -71.5t-109.5 -57t-86 -48.5zM0 -5l10 166h127q22 0 36.5 3t21 12t6.5 24q0 18 -12.5 40.5t-32.5 46t-42.5 47t-42.5 44.5t-32.5 37.5
t-12.5 25.5q0 22 2.5 43t7 37t11.5 23q17 19 48.5 41t75.5 47.5t99.5 53t121.5 59.5l72 -143q-68 -32 -117 -56.5t-84.5 -44t-61 -37t-46.5 -35.5l2 91q24 -23 53 -52.5t58 -64t55.5 -74.5t46.5 -85q17 -37 34.5 -55t42.5 -23t62 -5q44 0 64.5 -24t20.5 -57q0 -37 -24.5 -61
t-70.5 -24q-57 0 -98.5 12t-67.5 38.5t-36 71.5h59q-15 -29 -37 -52t-51.5 -38.5t-67.5 -23.5t-84 -8h-116z" />
    <glyph glyph-name="uni06B4.fina" unicode="&#x6b4;" horiz-adv-x="965" 
d="M519 988q-23 0 -39 15.5t-16 38.5t16 39.5t39 16.5q22 0 37.5 -16.5t15.5 -39.5t-15.5 -38.5t-37.5 -15.5zM508 849q-23 0 -38.5 15.5t-15.5 38.5t15.5 39.5t38.5 16.5t38.5 -16.5t15.5 -39.5t-15.5 -38.5t-38.5 -15.5zM635 910q-23 0 -38.5 15.5t-15.5 38.5
q0 24 15.5 40t38.5 16q22 0 38 -16t16 -40q0 -23 -16 -38.5t-38 -15.5zM501 621l-63 115q36 22 85 49.5t113 61t143 74.5l59 -124q-79 -40 -141 -71.5t-110 -57t-86 -47.5zM432 -21l26 166q50 0 88.5 2t65 7.5t41 17.5t14.5 32q0 17 -13 38t-33 44.5t-42 46.5t-42.5 44
t-33 37t-12.5 25q0 22 2.5 43.5t7 38t11.5 23.5q23 25 68 54.5t114 66t162 80.5l72 -143q-59 -29 -116 -57t-105.5 -56t-82.5 -58v89q26 -25 54 -53.5t56.5 -61.5t55 -73t49.5 -89q12 -27 25.5 -43.5t31 -24.5t38.5 -11t49 -3q44 0 63.5 -24t19.5 -57q0 -37 -24 -61t-69 -24
q-50 0 -92 10t-71 36.5t-40 75.5h51q-23 -46 -61.5 -73.5t-89 -41.5t-111 -18.5t-127.5 -4.5zM432 -21q-118 0 -195 20t-121.5 54t-63 77t-18.5 89q0 40 6.5 77.5t16.5 70.5t18 58l145 -36q-5 -20 -10 -40.5t-8 -41t-3 -40.5q0 -36 22.5 -63.5t78.5 -43t158 -15.5l20 -134z
" />
    <glyph glyph-name="uni06B5.init" unicode="&#x6b5;" horiz-adv-x="316" 
d="M0 -5l10 166q37 0 54 9t21 37t1 85l-19 468h173l21 -490q3 -61 -3.5 -111.5t-32.5 -87t-79.5 -56.5t-145.5 -20zM121 835q-7 16 -18 39.5t-23.5 49.5t-23.5 50t-20 41l64 31q6 -13 16 -35.5t21 -47t22 -47t18 -36.5l22 -39zM199 841l-58 19q6 17 16 44.5t21 57.5t20 53.5
t13 33.5l64 -24q-4 -12 -14.5 -36t-22.5 -52.5t-23 -54.5t-16 -41z" />
    <glyph glyph-name="uni06B5.medi" unicode="&#x6b5;" horiz-adv-x="341" 
d="M0 -5l10 166q35 0 52 9.5t21.5 37.5t2.5 84l-15 468h173l17 -467q2 -56 9.5 -84.5t26 -38t54.5 -9.5q44 0 64 -24t20 -57q0 -38 -24.5 -61.5t-69.5 -23.5q-38 0 -77.5 11t-68.5 42t-38 89h59q-21 -53 -51 -84.5t-70.5 -44.5t-94.5 -13zM124 837q-7 16 -18 39.5
t-23.5 49.5t-23.5 50t-20 41l64 31q6 -13 16 -35.5t21 -47t22 -47t18 -36.5l22 -39zM202 843l-58 19q6 17 16 44.5t21 57.5t20 53.5t13 33.5l64 -24q-4 -12 -14.5 -36t-22.5 -52.5t-23 -54.5t-16 -41z" />
    <glyph glyph-name="uni06B5.fina" unicode="&#x6b5;" horiz-adv-x="775" 
d="M24 34q0 28 4 59t15.5 72t35.5 99l154 -54q-14 -39 -21.5 -63.5t-10 -43.5t-2.5 -42q0 -37 17.5 -66t51 -44.5t80.5 -15.5q68 0 104 26t48.5 80.5t9.5 140.5l-20 578h174l14 -467q2 -56 12.5 -84.5t33.5 -38t61 -9.5q44 0 64.5 -24t20.5 -57q0 -39 -24.5 -62t-70.5 -23
q-14 0 -37.5 4t-49 16.5t-46.5 37.5t-29 66l64 -43q-7 -67 -29.5 -123t-62.5 -97t-99.5 -64t-141.5 -23q-64 0 -121.5 15t-102 47t-70.5 82.5t-26 120.5zM217 561q-7 16 -18 39.5t-23.5 49.5t-23.5 50t-20 41l64 31q6 -13 16 -35.5t21 -47t22 -47t18 -36.5l22 -39zM295 567
l-58 19q6 17 16 44.5t21 57.5t20 53.5t13 33.5l64 -24q-4 -12 -14.5 -36t-22.5 -52.5t-23 -54.5t-16 -41z" />
    <glyph glyph-name="uni06B6.init" unicode="&#x6b6;" horiz-adv-x="316" 
d="M0 -5l10 166q37 0 54 9t21 37t1 85l-19 468h173l21 -490q3 -61 -3.5 -111.5t-32.5 -87t-79.5 -56.5t-145.5 -20zM159 824q-34 0 -57.5 23.5t-23.5 57.5t23.5 58.5t57.5 24.5t57 -24.5t23 -58.5t-23.5 -57.5t-56.5 -23.5z" />
    <glyph glyph-name="uni06B6.medi" unicode="&#x6b6;" horiz-adv-x="341" 
d="M0 -5l10 166q35 0 52 9.5t21.5 37.5t2.5 84l-15 468h173l17 -467q2 -56 9.5 -84.5t26 -38t54.5 -9.5q44 0 64 -24t20 -57q0 -38 -24.5 -61.5t-69.5 -23.5q-38 0 -77.5 11t-68.5 42t-38 89h59q-21 -53 -51 -84.5t-70.5 -44.5t-94.5 -13zM162 826q-34 0 -57.5 23.5
t-23.5 57.5t23.5 58.5t57.5 24.5t57 -24.5t23 -58.5t-23.5 -57.5t-56.5 -23.5z" />
    <glyph glyph-name="uni06B6.fina" unicode="&#x6b6;" horiz-adv-x="775" 
d="M24 34q0 28 4 59t15.5 72t35.5 99l154 -54q-14 -39 -21.5 -63.5t-10 -43.5t-2.5 -42q0 -37 17.5 -66t51 -44.5t80.5 -15.5q68 0 104 26t48.5 80.5t9.5 140.5l-20 578h174l14 -467q2 -56 12.5 -84.5t33.5 -38t61 -9.5q44 0 64.5 -24t20.5 -57q0 -39 -24.5 -62t-70.5 -23
q-14 0 -37.5 4t-49 16.5t-46.5 37.5t-29 66l64 -43q-7 -67 -29.5 -123t-62.5 -97t-99.5 -64t-141.5 -23q-64 0 -121.5 15t-102 47t-70.5 82.5t-26 120.5zM255 550q-34 0 -57.5 23.5t-23.5 57.5t23.5 58.5t57.5 24.5t57 -24.5t23 -58.5t-23.5 -57.5t-56.5 -23.5z" />
    <glyph glyph-name="uni06B7.init" unicode="&#x6b7;" horiz-adv-x="316" 
d="M0 -5l10 166q37 0 54 9t21 37t1 85l-19 468h173l21 -490q3 -61 -3.5 -111.5t-32.5 -87t-79.5 -56.5t-145.5 -20zM160 981q-32 0 -53 21t-21 51q0 31 21 53t53 22q31 0 52.5 -22t21.5 -53q0 -30 -21.5 -51t-52.5 -21zM75 824q-31 0 -53.5 23t-22.5 52q0 30 22.5 53
t53.5 23q29 0 50.5 -23t21.5 -53q0 -29 -21.5 -52t-50.5 -23zM248 824q-30 0 -50 23t-20 52q0 30 20 53t50 23t52.5 -23t22.5 -53q0 -29 -22.5 -52t-52.5 -23z" />
    </font>
</defs>
</svg>
