<?xml version="1.0" standalone="no"?>
<!DOCTYPE svg PUBLIC "-//W3C//DTD SVG 1.1//EN" "http://www.w3.org/Graphics/SVG/1.1/DTD/svg11.dtd" >
<svg xmlns="http://www.w3.org/2000/svg" xmlns:xlink="http://www.w3.org/1999/xlink" version="1.1">
<metadata>
Created by FontForge 20170731 at Thu Nov 12 05:28:44 2020
 By Aleksey,,,
Copyright 2015-2020 Google LLC. All Rights Reserved.
</metadata>
<defs>
<font id="NotoSansArabicCondensed-ExtraLight" horiz-adv-x="0" >
  <font-face 
    font-family="Noto Sans Arabic Condensed ExtraLight"
    font-weight="250"
    font-stretch="condensed"
    units-per-em="1000"
    panose-1="0 0 0 0 0 0 0 0 0 0"
    ascent="800"
    descent="-200"
    bbox="-215 -573 2002 1064"
    underline-thickness="50"
    underline-position="-175"
    unicode-range="U+000D-FEFC"
  />
<missing-glyph horiz-adv-x="600" 
d="M104 0v714h391v-714h-391zM134 29h331v656h-331v-656z" />
    <glyph glyph-name="uniFC43" unicode="&#xfedf;&#xfef0;" horiz-adv-x="846" arabic-form="isolated" 
d="M656 -5l5 34q47 0 68.5 14.5t27 48t3.5 89.5l-19 530h34l20 -526q2 -51 -2.5 -87t-19.5 -58.5t-43 -33.5t-74 -11zM43 -16q0 21 3.5 49t15.5 65t35 81l31 -13q-16 -32 -27.5 -63t-17 -60.5t-5.5 -56.5q0 -44 15 -77.5t44 -57t71 -35.5t96 -12q65 0 114 16.5t82.5 42
t50.5 53.5t17 52q0 19 -12 33t-33 25.5t-49 21.5t-61 22l9 34q43 -17 78 -31t63.5 -23.5t52.5 -15t45 -5.5q10 0 14.5 -4t4.5 -13q0 -7 -5.5 -12t-20.5 -5q-8 0 -19.5 1.5t-23.5 4.5t-24 7q9 -11 12 -24t3 -22q0 -28 -19 -61t-56.5 -63t-93.5 -49t-130 -19q-75 0 -134 23.5
t-92.5 71t-33.5 119.5z" />
    <glyph glyph-name="uniFC86" unicode="&#xfee0;&#xfef0;" horiz-adv-x="891" arabic-form="final" 
d="M656 -5l5 34q47 0 68.5 20t27 59.5t3.5 96.5l-17 506h35l17 -504q3 -71 14 -110t32.5 -53.5t55.5 -14.5q9 0 14 -4t5 -13q0 -7 -6 -12t-18 -5q-33 0 -57 14.5t-38 40t-20 53.5h13q-7 -33 -22.5 -57t-42 -37.5t-69.5 -13.5zM43 -16q0 21 3.5 49t15.5 65t35 81l31 -13
q-16 -32 -27.5 -63t-17 -60.5t-5.5 -56.5q0 -44 15 -77.5t44 -57t71 -35.5t96 -12q65 0 114 16.5t82.5 42t50.5 53.5t17 52q0 19 -12 33t-33 25.5t-49 21.5t-61 22l9 34q43 -17 78 -31t63.5 -23.5t52.5 -15t45 -5.5q10 0 14.5 -4t4.5 -13q0 -7 -5.5 -12t-20.5 -5
q-8 0 -19.5 1.5t-23.5 4.5t-24 7q9 -11 12 -24t3 -22q0 -28 -19 -61t-56.5 -63t-93.5 -49t-130 -19q-75 0 -134 23.5t-92.5 71t-33.5 119.5z" />
    <glyph glyph-name="uniFD82" unicode="&#xfee0;&#xfea4;&#xfef0;" horiz-adv-x="1406" arabic-form="final" 
d="M1171 -5l5 34q47 0 68.5 20t27 59.5t3.5 96.5l-17 506h35l17 -504q3 -71 14 -110t32.5 -53.5t55.5 -14.5q9 0 14 -4t5 -13q0 -7 -6 -12t-18 -5q-33 0 -57 14.5t-38 40t-20 53.5h13q-7 -33 -22.5 -57t-42 -37.5t-69.5 -13.5zM1171 -5q-27 0 -53 3.5t-49.5 16.5t-42 41.5
t-28.5 79.5l27 12q14 -57 35 -82t50.5 -31t65.5 -6q12 0 16 -5t4 -12t-6 -12t-19 -5zM656 -5l5 34q47 0 87.5 7.5t81 23.5t85.5 42t100 63q-45 33 -81.5 59t-71.5 41t-75 15q-13 0 -25.5 -0.5t-24.5 -2.5t-27 -7l-6 32q20 7 41 9.5t42 2.5q44 0 79.5 -13.5t64.5 -32.5
t53.5 -38.5t47 -33t45.5 -13.5h18l4 -33q-30 0 -57 -11.5t-55 -29t-60 -37t-71 -37.5t-88.5 -29t-111.5 -11zM43 -16q0 21 3.5 49t15.5 65t35 81l31 -13q-16 -32 -27.5 -63t-17 -60.5t-5.5 -56.5q0 -44 15 -77.5t44 -57t71 -35.5t96 -12q65 0 114 16.5t82.5 42t50.5 53.5
t17 52q0 19 -12 33t-33 25.5t-49 21.5t-61 22l9 34q43 -17 78 -31t63.5 -23.5t52.5 -15t45 -5.5q10 0 14.5 -4t4.5 -13q0 -7 -5.5 -12t-20.5 -5q-8 0 -19.5 1.5t-23.5 4.5t-24 7q9 -11 12 -24t3 -22q0 -28 -19 -61t-56.5 -63t-93.5 -49t-130 -19q-75 0 -134 23.5t-92.5 71
t-33.5 119.5z" />
    <glyph glyph-name="uniFDF2" unicode="&#x627;&#xfedf;&#xfee0;&#xfeea;" horiz-adv-x="1054" arabic-form="isolated" 
d="M413 -5q-28 0 -53.5 7.5t-43.5 30t-26 65.5q-49 -10 -94 -7.5t-80.5 17t-56 41t-20.5 63.5q0 49 29 94.5t81.5 81t121.5 51.5l-4 77h35l17 -359q3 -51 12 -79t30 -38.5t59 -10.5q47 0 68.5 20t27.5 59.5t3 96.5l-14 363h35l14 -361q2 -71 13.5 -110t33.5 -53.5t56 -14.5
q47 0 68.5 14.5t27 48t3.5 89.5l-19 530h34l20 -526q2 -51 -2.5 -87t-19.5 -58.5t-43.5 -33.5t-74.5 -11q-29 0 -50.5 11.5t-36 30.5t-22.5 43q-13 -40 -42 -62.5t-87 -22.5zM285 131l-13 271q-57 -12 -101.5 -41.5t-70.5 -67t-26 -75.5q0 -33 19.5 -53t50.5 -29.5t68 -10.5
t73 6zM945 0l-20 711h34l20 -711h-34zM453 603q-31 0 -45 22t-14 57q0 11 1.5 25t3.5 30l27 7q-3 -18 -4.5 -33t-1.5 -26q0 -22 8 -38t27 -16q16 0 29 17t13 60v56l27 10v-76q0 -14 9.5 -24.5t26.5 -10.5q20 0 28.5 15t8.5 41q0 20 -4 39t-11 36l25 8q7 -14 12.5 -38
t5.5 -46q0 -34 -15.5 -58t-48.5 -24q-25 0 -40.5 14.5t-15.5 37.5l14 -2q0 -33 -17.5 -58t-48.5 -25zM493 830l-5 156h27l6 -156h-28z" />
    <glyph glyph-name="uniFEF5" unicode="&#xfedf;&#xfe82;" horiz-adv-x="608" arabic-form="isolated" 
d="M345 529q0 31 -3.5 65.5t-8 66t-8.5 51.5l35 6q4 -19 8 -52t7.5 -69.5t3.5 -67.5q0 -40 -5.5 -78t-16 -75.5t-25.5 -72.5l-5 -12q-31 -72 -79 -136.5t-107 -118.5h164q44 0 68 13t32.5 32.5t8.5 39.5q0 40 -27 82.5t-76 91t-117.5 108t-153.5 133.5l20 29
q82 -71 145.5 -126.5t109 -100.5t75 -82t43.5 -70t14 -65q0 -19 -6 -40t-21.5 -39.5t-44 -30t-73.5 -11.5h-202v46q83 71 137 150.5t81 164t27 168.5zM163 617q-25 0 -47.5 10.5t-41.5 20.5t-35 10q-15 0 -29.5 -9t-30.5 -25l-19 17q18 20 37.5 33t42.5 13t42.5 -9.5t40 -20
t43.5 -10.5q18 0 36 8.5t39 25.5l15 -21q-26 -24 -49 -33.5t-44 -9.5z" />
    <glyph glyph-name="uniFEF6" unicode="&#xfee0;&#xfe82;" horiz-adv-x="498" arabic-form="final" 
d="M502 -5q-37 0 -62 9.5t-41 31.5t-24 58.5t-10 90.5l-18 529h33l19 -502q2 -63 8 -103.5t28 -60t71 -19.5q9 0 13 -4.5t4 -11.5q0 -6 -6 -12t-15 -6zM141 -10q-27 0 -54.5 4.5t-38.5 6.5l5 36q64 -16 119.5 -7.5t98 44.5t66.5 100.5t24 161.5l22 -44q-2 -75 -19 -128
t-44 -87t-59 -53t-63.5 -26.5t-56.5 -7.5zM339 149q-25 45 -55 93t-64 97.5t-72.5 98t-80.5 94.5l26 24q46 -51 85 -101t71.5 -99t60.5 -94t51 -86zM167 617q-25 0 -47.5 10.5t-41.5 20.5t-35 10q-15 0 -29.5 -9t-30.5 -25l-19 17q18 20 37.5 33t42.5 13t42.5 -9.5t40 -20
t43.5 -10.5q18 0 36 8.5t39 25.5l15 -21q-26 -24 -49 -33.5t-44 -9.5z" />
    <glyph glyph-name="uniFEF7" unicode="&#xfedf;&#xfe84;" horiz-adv-x="526" arabic-form="isolated" 
d="M345 529q0 31 -3.5 65.5t-8 66t-8.5 51.5l35 6q4 -19 8 -52t7.5 -69.5t3.5 -67.5q0 -40 -5.5 -78t-16 -75.5t-25.5 -72.5l-5 -12q-31 -72 -79 -136.5t-107 -118.5h164q44 0 68 13t32.5 32.5t8.5 39.5q0 40 -27 82.5t-76 91t-117.5 108t-153.5 133.5l20 29
q82 -71 145.5 -126.5t109 -100.5t75 -82t43.5 -70t14 -65q0 -19 -6 -40t-21.5 -39.5t-44 -30t-73.5 -11.5h-202v46q83 71 137 150.5t81 164t27 168.5zM17 616l-6 27q24 6 42 11.5t34 9.5l22 -9q-39 6 -65.5 32.5t-26.5 59.5q0 26 12 44t32 27t40 9q12 0 24 -2t22 -6l-6 -24
q-10 3 -19.5 4.5t-20.5 1.5q-28 0 -42.5 -16t-14.5 -38q0 -20 12.5 -36.5t32.5 -26t40 -13.5l-37 -5q26 7 47.5 14t40.5 14l8 -25q-23 -9 -53 -19t-60.5 -18.5t-57.5 -15.5z" />
    <glyph glyph-name="uniFEF8" unicode="&#xfee0;&#xfe84;" horiz-adv-x="497" arabic-form="final" 
d="M497 -5q-37 0 -62 9.5t-41 31.5t-24 58.5t-10 90.5l-18 529h33l19 -502q2 -63 8 -103.5t28 -60t71 -19.5q9 0 13 -4.5t4 -11.5q0 -6 -6 -12t-15 -6zM136 -10q-27 0 -54.5 4.5t-38.5 6.5l5 36q64 -16 119.5 -7.5t98 44.5t66.5 100.5t24 161.5l22 -44q-2 -75 -19 -128
t-44 -87t-59 -53t-63.5 -26.5t-56.5 -7.5zM334 149q-25 45 -55 93t-64 97.5t-72.5 98t-80.5 94.5l26 24q46 -51 85 -101t71.5 -99t60.5 -94t51 -86zM50 616l-6 27q24 6 42 11.5t34 9.5l22 -9q-39 6 -65.5 32.5t-26.5 59.5q0 26 12 44t32 27t40 9q12 0 24 -2t22 -6l-6 -24
q-10 3 -19.5 4.5t-20.5 1.5q-28 0 -42.5 -16t-14.5 -38q0 -20 12.5 -36.5t32.5 -26t40 -13.5l-37 -5q26 7 47.5 14t40.5 14l8 -25q-23 -9 -53 -19t-60.5 -18.5t-57.5 -15.5z" />
    <glyph glyph-name="uniFEF9" unicode="&#xfedf;&#xfe88;" horiz-adv-x="522" arabic-form="isolated" 
d="M345 529q0 31 -3.5 65.5t-8 66t-8.5 51.5l35 6q4 -19 8 -52t7.5 -69.5t3.5 -67.5q0 -40 -5.5 -78t-16 -75.5t-25.5 -72.5l-5 -12q-31 -72 -79 -136.5t-107 -118.5h164q44 0 68 13t32.5 32.5t8.5 39.5q0 40 -27 82.5t-76 91t-117.5 108t-153.5 133.5l20 29
q82 -71 145.5 -126.5t109 -100.5t75 -82t43.5 -70t14 -65q0 -19 -6 -40t-21.5 -39.5t-44 -30t-73.5 -11.5h-202v46q83 71 137 150.5t81 164t27 168.5zM85 -284l-6 27q24 6 42 11.5t34 9.5l22 -9q-39 6 -65.5 32.5t-26.5 59.5q0 26 12 44t32 27t40 9q12 0 24 -2t22 -6l-6 -24
q-10 3 -19.5 4.5t-20.5 1.5q-28 0 -42.5 -16t-14.5 -38q0 -20 12.5 -36.5t32.5 -26t40 -13.5l-37 -5q26 7 47.5 14t40.5 14l8 -25q-23 -9 -53 -19t-60.5 -18.5t-57.5 -15.5z" />
    <glyph glyph-name="uniFEFA" unicode="&#xfee0;&#xfe88;" horiz-adv-x="494" arabic-form="final" 
d="M497 -5q-37 0 -62 9.5t-41 31.5t-24 58.5t-10 90.5l-18 529h33l19 -502q2 -63 8 -103.5t28 -60t71 -19.5q9 0 13 -4.5t4 -11.5q0 -6 -6 -12t-15 -6zM136 -10q-27 0 -54.5 4.5t-38.5 6.5l5 36q64 -16 119.5 -7.5t98 44.5t66.5 100.5t24 161.5l22 -44q-2 -75 -19 -128
t-44 -87t-59 -53t-63.5 -26.5t-56.5 -7.5zM334 149q-25 45 -55 93t-64 97.5t-72.5 98t-80.5 94.5l26 24q46 -51 85 -101t71.5 -99t60.5 -94t51 -86zM90 -284l-6 27q24 6 42 11.5t34 9.5l22 -9q-39 6 -65.5 32.5t-26.5 59.5q0 26 12 44t32 27t40 9q12 0 24 -2t22 -6l-6 -24
q-10 3 -19.5 4.5t-20.5 1.5q-28 0 -42.5 -16t-14.5 -38q0 -20 12.5 -36.5t32.5 -26t40 -13.5l-37 -5q26 7 47.5 14t40.5 14l8 -25q-23 -9 -53 -19t-60.5 -18.5t-57.5 -15.5z" />
    <glyph glyph-name="uniFEFB" unicode="&#xfedf;&#xfe8e;" horiz-adv-x="522" arabic-form="isolated" 
d="M345 529q0 31 -3.5 65.5t-8 66t-8.5 51.5l35 6q4 -19 8 -52t7.5 -69.5t3.5 -67.5q0 -40 -5.5 -78t-16 -75.5t-25.5 -72.5l-5 -12q-31 -72 -79 -136.5t-107 -118.5h164q44 0 68 13t32.5 32.5t8.5 39.5q0 40 -27 82.5t-76 91t-117.5 108t-153.5 133.5l20 29
q82 -71 145.5 -126.5t109 -100.5t75 -82t43.5 -70t14 -65q0 -19 -6 -40t-21.5 -39.5t-44 -30t-73.5 -11.5h-202v46q83 71 137 150.5t81 164t27 168.5z" />
    <glyph glyph-name="uniFEFC" unicode="&#xfee0;&#xfe8e;" horiz-adv-x="494" arabic-form="final" 
d="M497 -5q-37 0 -62 9.5t-41 31.5t-24 58.5t-10 90.5l-18 529h33l19 -502q2 -63 8 -103.5t28 -60t71 -19.5q9 0 13 -4.5t4 -11.5q0 -6 -6 -12t-15 -6zM136 -10q-27 0 -54.5 4.5t-38.5 6.5l5 36q64 -16 119.5 -7.5t98 44.5t66.5 100.5t24 161.5l22 -44q-2 -75 -19 -128
t-44 -87t-59 -53t-63.5 -26.5t-56.5 -7.5zM334 149q-25 45 -55 93t-64 97.5t-72.5 98t-80.5 94.5l26 24q46 -51 85 -101t71.5 -99t60.5 -94t51 -86z" />
    <glyph glyph-name="lam_alefMaksura_meemar" unicode="&#xfedf;&#xfbe9;&#xfee2;" horiz-adv-x="906" 
d="M716 -5l5 34q47 0 68.5 14.5t27 48t3.5 89.5l-19 530h34l20 -526q2 -51 -2.5 -87t-19.5 -58.5t-43 -33.5t-74 -11zM492 -5l5 34q47 0 71.5 12.5t34 36.5t9.5 58q0 33 -6 67t-17.5 72.5t-28.5 82.5l34 13q15 -41 26.5 -80.5t18 -77t6.5 -73.5q0 -26 -5 -49t-15.5 -40.5
t-28.5 -30t-43.5 -19t-60.5 -6.5zM87 -393q-21 80 -36 154t-23 131.5t-8 88.5q0 73 17 131.5t44 102.5t59 73t63.5 43.5t56.5 14.5q21 0 35 -14t31 -52.5t44 -114.5q19 -52 37 -81.5t40 -42t50 -12.5q9 0 14 -4t5 -13q0 -7 -6 -12t-18 -5q-40 0 -73 24t-48 64l16 1
q1 -28 -9.5 -49t-30 -32.5t-45.5 -11.5q-24 0 -52.5 10.5t-57 33.5t-54 59.5t-45.5 89.5l8 -3q-24 -43 -36 -95t-12 -107q0 -29 5.5 -70t14.5 -89.5t21 -100.5t25 -104zM303 25q22 0 36 11.5t17.5 34t-7.5 53.5q-17 48 -30 83t-23 58t-20 34t-20 11q-14 0 -32.5 -7
t-37.5 -21t-37.5 -33.5t-33.5 -44.5v11q19 -57 49 -99.5t66.5 -66.5t72.5 -24z" />
    <glyph glyph-name="lam_alefWaslaar" unicode="&#xfedf;&#xfb51;" horiz-adv-x="445" 
d="M133 640q-21 0 -47.5 2t-49 5t-36.5 5l4 26q14 -2 36 -4.5t46.5 -4.5t45.5 -2q55 0 75.5 20t20.5 43q0 21 -12 31t-30 10q-24 0 -46.5 -16t-40.5 -40.5t-30 -51.5l-27 4q15 32 36 62t49 49.5t62 19.5q30 0 48 -18.5t18 -48.5q0 -23 -12.5 -44t-39.5 -34t-70 -13zM345 529
q0 31 -3.5 65.5t-8 66t-8.5 51.5l35 6q4 -19 8 -52t7.5 -69.5t3.5 -67.5q0 -40 -5.5 -78t-16 -75.5t-25.5 -72.5l-5 -12q-31 -72 -79 -136.5t-107 -118.5h164q44 0 68 13t32.5 32.5t8.5 39.5q0 40 -27 82.5t-76 91t-117.5 108t-153.5 133.5l20 29q82 -71 145.5 -126.5
t109 -100.5t75 -82t43.5 -70t14 -65q0 -19 -6 -40t-21.5 -39.5t-44 -30t-73.5 -11.5h-202v46q83 71 137 150.5t81 164t27 168.5z" />
    <glyph glyph-name="lam_alefWaslaar.fina" unicode="&#xfee0;&#xfb51;" horiz-adv-x="517" 
d="M133 662q-21 0 -47 2t-49 5t-37 5l4 26q14 -2 36 -4.5t46.5 -4.5t45.5 -2q55 0 75.5 20t20.5 43q0 22 -12 31.5t-30 9.5q-24 0 -46.5 -16t-40.5 -40.5t-30 -50.5l-27 3q15 32 36 62t49 50t61 20q31 0 49 -19t18 -49q0 -23 -12.5 -44t-39.5 -34t-70 -13zM497 -5
q-37 0 -62 9.5t-41 31.5t-24 58.5t-10 90.5l-18 529h33l19 -502q2 -63 8 -103.5t28 -60t71 -19.5q9 0 13 -4.5t4 -11.5q0 -6 -6 -12t-15 -6zM136 -10q-27 0 -54.5 4.5t-38.5 6.5l5 36q64 -16 119.5 -7.5t98 44.5t66.5 100.5t24 161.5l22 -44q-2 -75 -19 -128t-44 -87
t-59 -53t-63.5 -26.5t-56.5 -7.5zM334 149q-25 45 -55 93t-64 97.5t-72.5 98t-80.5 94.5l26 24q46 -51 85 -101t71.5 -99t60.5 -94t51 -86z" />
    <glyph glyph-name="uni0620.init" unicode="&#x620;" horiz-adv-x="250" 
d="M0 -5l5 34q49 0 79 9.5t44 33t14 64.5q0 32 -6.5 66.5t-18 73t-27.5 82.5l34 13q15 -40 26.5 -79.5t18 -76.5t6.5 -72q0 -38 -9.5 -66t-30 -46t-54.5 -27t-81 -9zM126 -106q-31 0 -52 22t-21 53q0 30 21 51.5t52 21.5q30 0 52 -21.5t22 -51.5q0 -31 -22 -53t-52 -22z
M126 -80q19 0 33.5 14.5t14.5 33.5q0 20 -14 34.5t-34 14.5t-34 -14.5t-14 -33.5q0 -20 14.5 -34.5t33.5 -14.5z" />
    <glyph glyph-name="uni0620.medi" unicode="&#x620;" horiz-adv-x="286" 
d="M0 -5l5 34q30 0 53 7.5t41 31.5t33.5 72t29.5 128l34 -7q-6 -33 -11.5 -56.5t-8.5 -42.5t-3 -40t4.5 -38t16.5 -29.5t35.5 -19t61.5 -6.5q11 0 15 -5t4 -11q0 -7 -5.5 -12.5t-18.5 -5.5q-40 0 -67 7t-42.5 21.5t-22 36.5t-6.5 51h8q-13 -38 -28 -61t-33.5 -35t-42 -16
t-52.5 -4zM90 -115q-30 0 -51.5 22t-21.5 53q0 30 21.5 51.5t51.5 21.5q31 0 53 -21.5t22 -51.5q0 -31 -22 -53t-53 -22zM90 -89q20 0 34.5 14t14.5 34t-14.5 34.5t-34.5 14.5q-19 0 -33 -14.5t-14 -34.5q0 -19 14 -33.5t33 -14.5z" />
    <glyph glyph-name="uni0620.fina" unicode="&#x620;" horiz-adv-x="656" 
d="M292 -352q-30 0 -51.5 21.5t-21.5 52.5q0 30 21.5 51.5t51.5 21.5q31 0 52.5 -21.5t21.5 -51.5q0 -31 -21.5 -52.5t-52.5 -21.5zM292 -327q20 0 34.5 14.5t14.5 34.5q0 19 -14.5 33.5t-34.5 14.5q-19 0 -33 -14.5t-14 -33.5q0 -20 14 -34.5t33 -14.5zM43 -16q0 21 3.5 49
t15.5 65t35 81l31 -13q-16 -32 -27.5 -63t-17 -60.5t-5.5 -56.5q0 -44 15 -77.5t44 -57t71 -35.5t96 -12q65 0 114 16.5t82.5 42t50.5 53.5t17 52q0 19 -12 33t-33 25.5t-49 21.5t-61 22l9 34q43 -17 78 -31t63.5 -23.5t52.5 -15t45 -5.5q10 0 14.5 -4t4.5 -13
q0 -7 -5.5 -12t-20.5 -5q-8 0 -19.5 1.5t-23.5 4.5t-24 7q9 -11 12 -24t3 -22q0 -28 -19 -61t-56.5 -63t-93.5 -49t-130 -19q-75 0 -134 23.5t-92.5 71t-33.5 119.5z" />
    <glyph glyph-name="uni063B.init" unicode="&#x63b;" horiz-adv-x="344" 
d="M215 735q-12 0 -20 8.5t-8 19.5t8 19t20 8q11 0 19 -8t8 -19t-8 -19.5t-19 -8.5zM105 683q-12 0 -20 8.5t-8 19.5t8 19t20 8q11 0 19 -8t8 -19t-8 -19.5t-19 -8.5zM0 -5l5 34h77q51 0 83 9.5t49 26t22.5 38t5.5 44.5q0 42 -23 89t-68 99q-38 45 -62 72.5t-38 42.5
t-19.5 22t-5.5 11q0 9 2 16.5t5.5 14t8.5 10.5q25 20 53.5 41.5t63 44.5t76.5 48.5t94 54.5l16 -29q-50 -28 -93.5 -54.5t-80.5 -51.5t-68 -47.5t-55 -44.5l2 15q39 -46 79 -90t73 -87.5t53 -87.5t20 -91q0 -32 -9.5 -59t-32 -47.5t-60.5 -32t-95 -11.5h-78z" />
    <glyph glyph-name="uni063B.medi" unicode="&#x63b;" horiz-adv-x="411" 
d="M209 735q-12 0 -20 8.5t-8 19.5t8 19t20 8q11 0 19 -8t8 -19t-8 -19.5t-19 -8.5zM99 683q-12 0 -20.5 8.5t-8.5 19.5t8.5 19t20.5 8q11 0 19 -8t8 -19t-8 -19.5t-19 -8.5zM0 -5l5 34h78q57 0 92 12t51.5 38t16.5 67q0 31 -15.5 65.5t-40.5 70t-52 69t-52 61t-40.5 46.5
t-15.5 26q0 9 2 16.5t6 14t8 10.5q24 20 55 43t68 47t78 48.5t85 49.5l16 -30q-44 -24 -87 -50.5t-81.5 -52t-71 -49t-55.5 -44.5l2 12q28 -35 60.5 -71t63.5 -75.5t57.5 -82.5t42.5 -92q15 -47 35 -80.5t46 -51t59 -17.5q9 0 14.5 -4t5.5 -13q0 -7 -6.5 -12t-18.5 -5
q-33 0 -63.5 17.5t-54 52t-37.5 84.5l18 -12q-2 -43 -18 -70.5t-43 -43t-61 -22t-72 -6.5h-80z" />
    <glyph glyph-name="uni063B.fina" unicode="&#x63b;" horiz-adv-x="840" 
d="M628 736q-12 0 -20 8t-8 20q0 11 8 19t20 8q11 0 19 -8t8 -19q0 -12 -8 -20t-19 -8zM518 683q-12 0 -20 8.5t-8 19.5q0 12 8 20t20 8q11 0 19 -8t8 -20q0 -11 -8 -19.5t-19 -8.5zM325 -21l15 34q72 0 132.5 7t105 22t69 40t24.5 62q0 32 -16 67.5t-41.5 71t-53.5 68.5
t-53 60.5t-41 46.5t-16 26q0 9 1.5 16.5t5.5 14t9 10.5q31 25 75 56t97.5 65t112.5 67l17 -30q-59 -32 -116 -68.5t-104 -70t-76 -58.5l2 13q28 -33 62 -70t66.5 -78t59.5 -84.5t42 -89.5q9 -24 20.5 -49.5t28 -48t39 -36.5t53.5 -14q9 0 14 -4t5 -13q0 -7 -6 -12t-18 -5
q-35 0 -64.5 17.5t-53 52t-38.5 84.5l18 -12q-3 -45 -30 -75.5t-75.5 -48.5t-117 -26t-154.5 -8zM325 -21q-65 0 -117.5 11.5t-90 34.5t-57.5 58.5t-20 84.5q0 23 4 49t10 51t12 47l32 -9q-6 -17 -11 -39.5t-8.5 -46.5t-3.5 -47q0 -55 29.5 -90.5t88.5 -52.5t147 -17l20 -20
z" />
    <glyph glyph-name="uni063C.init" unicode="&#x63c;" horiz-adv-x="344" 
d="M0 -5l5 34h77q51 0 83 9.5t49 26t22.5 38t5.5 44.5q0 42 -23 89t-68 99q-38 45 -62 72.5t-38 42.5t-19.5 22t-5.5 11q0 9 2 16.5t5.5 14t8.5 10.5q25 20 53.5 41.5t63 44.5t76.5 48.5t94 54.5l16 -29q-50 -28 -93.5 -54.5t-80.5 -51.5t-68 -47.5t-55 -44.5l2 15
q39 -46 79 -90t73 -87.5t53 -87.5t20 -91q0 -32 -9.5 -59t-32 -47.5t-60.5 -32t-95 -11.5h-78zM138 -259q-13 0 -22.5 9t-9.5 21q0 13 9.5 22t22.5 9t21.5 -9t8.5 -22q0 -12 -9 -21t-21 -9zM85 -171q-13 0 -22 9t-9 22q0 12 9 21.5t22 9.5t21.5 -9.5t8.5 -21.5
q0 -13 -8.5 -22t-21.5 -9zM190 -171q-13 0 -22.5 9t-9.5 22q0 12 9.5 21.5t22.5 9.5q12 0 21 -9.5t9 -21.5q0 -13 -9 -22t-21 -9z" />
    <glyph glyph-name="uni063C.medi" unicode="&#x63c;" horiz-adv-x="411" 
d="M0 -5l5 34h78q57 0 92 12t51.5 38t16.5 67q0 31 -15.5 65.5t-40.5 70t-52 69t-52 61t-40.5 46.5t-15.5 26q0 9 2 16.5t6 14t8 10.5q24 20 55 43t68 47t78 48.5t85 49.5l16 -30q-44 -24 -87 -50.5t-81.5 -52t-71 -49t-55.5 -44.5l2 12q28 -35 60.5 -71t63.5 -75.5
t57.5 -82.5t42.5 -92q15 -47 35 -80.5t46 -51t59 -17.5q9 0 14.5 -4t5.5 -13q0 -7 -6.5 -12t-18.5 -5q-33 0 -63.5 17.5t-54 52t-37.5 84.5l18 -12q-2 -43 -18 -70.5t-43 -43t-61 -22t-72 -6.5h-80zM139 -259q-13 0 -22.5 9t-9.5 21q0 13 9.5 22t22.5 9t21.5 -9t8.5 -22
q0 -12 -9 -21t-21 -9zM86 -171q-13 0 -22 9t-9 22q0 12 9 21.5t22 9.5t21.5 -9.5t8.5 -21.5q0 -13 -8.5 -22t-21.5 -9zM191 -171q-13 0 -22.5 9t-9.5 22q0 12 9.5 21.5t22.5 9.5q12 0 21 -9.5t9 -21.5q0 -13 -9 -22t-21 -9z" />
    <glyph glyph-name="uni063C.fina" unicode="&#x63c;" horiz-adv-x="840" 
d="M325 -21l15 34q72 0 132.5 7t105 22t69 40t24.5 62q0 32 -16 67.5t-41.5 71t-53.5 68.5t-53 60.5t-41 46.5t-16 26q0 9 1.5 16.5t5.5 14t9 10.5q31 25 75 56t97.5 65t112.5 67l17 -30q-59 -32 -116 -68.5t-104 -70t-76 -58.5l2 13q28 -33 62 -70t66.5 -78t59.5 -84.5
t42 -89.5q9 -24 20.5 -49.5t28 -48t39 -36.5t53.5 -14q9 0 14 -4t5 -13q0 -7 -6 -12t-18 -5q-35 0 -64.5 17.5t-53 52t-38.5 84.5l18 -12q-3 -45 -30 -75.5t-75.5 -48.5t-117 -26t-154.5 -8zM325 -21q-65 0 -117.5 11.5t-90 34.5t-57.5 58.5t-20 84.5q0 23 4 49t10 51t12 47
l32 -9q-6 -17 -11 -39.5t-8.5 -46.5t-3.5 -47q0 -55 29.5 -90.5t88.5 -52.5t147 -17l20 -20zM359 -280q-13 0 -22.5 9t-9.5 21q0 13 9.5 22t22.5 9t21.5 -9t8.5 -22q0 -12 -9 -21t-21 -9zM306 -192q-13 0 -22 9t-9 22q0 12 9 21.5t22 9.5t21.5 -9.5t8.5 -21.5
q0 -13 -8.5 -22t-21.5 -9zM411 -192q-13 0 -22.5 9t-9.5 22q0 12 9.5 21.5t22.5 9.5q12 0 21 -9.5t9 -21.5q0 -13 -9 -22t-21 -9z" />
    <glyph glyph-name="uni063D.init" unicode="&#x63d;" horiz-adv-x="224" 
d="M0 -5l5 34q47 0 71.5 12.5t34 36.5t9.5 58q0 33 -6 67t-17.5 72.5t-28.5 82.5l34 13q15 -41 26.5 -80.5t18 -77t6.5 -73.5q0 -26 -5 -49t-15.5 -40.5t-28.5 -30t-43.5 -19t-60.5 -6.5zM101 703q6 -15 15.5 -40t19.5 -53t20 -53.5t17 -41.5l-24 -11q-5 10 -14.5 33.5
t-20 51.5t-19.5 53.5t-15 40.5l-9 17zM71 700l23 -8q-5 -17 -14.5 -45.5t-19.5 -59.5t-18 -54.5t-11 -31.5l-25 9q4 10 12.5 34.5t18.5 54.5t19 58t15 43zM147 -174q-13 0 -22.5 9t-9.5 21q0 13 9.5 22t22.5 9q12 0 21 -9t9 -22q0 -12 -9 -21t-21 -9zM42 -174q-13 0 -22 9
t-9 21q0 13 9 22t22 9t21.5 -9t8.5 -22q0 -12 -9 -21t-21 -9z" />
    <glyph glyph-name="uni063D.medi" unicode="&#x63d;" horiz-adv-x="264" 
d="M0 -5l5 34q25 0 44.5 7t36 30.5t31 71.5t29.5 130l34 -7q-7 -33 -12 -56t-8 -42.5t-3 -40.5q0 -28 8.5 -49t32.5 -32.5t71 -11.5q12 0 16 -5t4 -12t-6 -12t-19 -5q-49 0 -78 12.5t-41.5 38.5t-12.5 65h8q-12 -39 -26.5 -62.5t-32 -35t-38 -15t-43.5 -3.5zM157 595
q6 -15 15.5 -40t19.5 -53t20 -53.5t17 -41.5l-24 -11q-5 10 -14.5 33.5t-20 51.5t-19.5 53.5t-15 40.5l-9 17zM127 592l23 -8q-5 -17 -14.5 -45.5t-19.5 -59.5t-18 -54.5t-11 -31.5l-25 9q4 10 12.5 34.5t18.5 54.5t19 58t15 43zM180 -174q-13 0 -22.5 9t-9.5 21
q0 13 9.5 22t22.5 9q12 0 21 -9t9 -22q0 -12 -9 -21t-21 -9zM75 -174q-13 0 -22 9t-9 21q0 13 9 22t22 9t21.5 -9t8.5 -22q0 -12 -9 -21t-21 -9z" />
    <glyph glyph-name="uni063D.fina" unicode="&#x63d;" horiz-adv-x="656" 
d="M43 -16q0 21 3.5 49t15.5 65t35 81l31 -13q-16 -32 -27.5 -63t-17 -60.5t-5.5 -56.5q0 -44 15 -77.5t44 -57t71 -35.5t96 -12q65 0 114 16.5t82.5 42t50.5 53.5t17 52q0 19 -12 33t-33 25.5t-49 21.5t-61 22l9 34q43 -17 78 -31t63.5 -23.5t52.5 -15t45 -5.5
q10 0 14.5 -4t4.5 -13q0 -7 -5.5 -12t-20.5 -5q-8 0 -19.5 1.5t-23.5 4.5t-24 7q9 -11 12 -24t3 -22q0 -28 -19 -61t-56.5 -63t-93.5 -49t-130 -19q-75 0 -134 23.5t-92.5 71t-33.5 119.5zM222 461q6 -15 15.5 -40t19.5 -53t20 -53.5t17 -41.5l-24 -11q-5 10 -14.5 33.5
t-20 51.5t-19.5 53.5t-15 40.5l-9 17zM192 458l23 -8q-5 -17 -14.5 -45.5t-19.5 -59.5t-18 -54.5t-11 -31.5l-25 9q4 10 12.5 34.5t18.5 54.5t19 58t15 43z" />
    <glyph glyph-name="uni063E.init" unicode="&#x63e;" horiz-adv-x="250" 
d="M0 -5l5 34q49 0 79 9.5t44 33t14 64.5q0 32 -6.5 66.5t-18 73t-27.5 82.5l34 13q15 -40 26.5 -79.5t18 -76.5t6.5 -72q0 -38 -9.5 -66t-30 -46t-54.5 -27t-81 -9zM169 505q-13 0 -22.5 9t-9.5 21q0 13 9 22t23 9q12 0 21 -9t9 -22q0 -12 -9 -21t-21 -9zM64 505
q-13 0 -22.5 9t-9.5 21q0 13 9.5 22t22.5 9t21.5 -9t8.5 -22q0 -12 -9 -21t-21 -9zM154 -174q-13 0 -22 9t-9 21q0 13 9 22t22 9t22 -9t9 -22q0 -12 -9 -21t-22 -9zM50 -174q-13 0 -22.5 9t-9.5 21q0 13 9 22t23 9q12 0 21 -9t9 -22q0 -12 -9 -21t-21 -9z" />
    <glyph glyph-name="uni063E.medi" unicode="&#x63e;" horiz-adv-x="286" 
d="M0 -5l5 34q30 0 53 7.5t41 31.5t33.5 72t29.5 128l34 -7q-6 -33 -11.5 -56.5t-8.5 -42.5t-3 -40t4.5 -38t16.5 -29.5t35.5 -19t61.5 -6.5q11 0 15 -5t4 -11q0 -7 -5.5 -12.5t-18.5 -5.5q-40 0 -67 7t-42.5 21.5t-22 36.5t-6.5 51h8q-13 -38 -28 -61t-33.5 -35t-42 -16
t-52.5 -4zM224 422q-13 0 -22.5 9t-9.5 21q0 13 9 22.5t23 9.5q12 0 21 -9.5t9 -22.5q0 -12 -9 -21t-21 -9zM119 422q-13 0 -22.5 9t-9.5 21q0 13 9.5 22.5t22.5 9.5q12 0 21 -9.5t9 -22.5q0 -12 -9 -21t-21 -9zM200 -174q-13 0 -22.5 9t-9.5 21q0 13 9 22t23 9q12 0 21 -9
t9 -22q0 -12 -9 -21t-21 -9zM95 -174q-13 0 -22.5 9t-9.5 21q0 13 9.5 22t22.5 9q12 0 21 -9t9 -22q0 -12 -9 -21t-21 -9z" />
    <glyph glyph-name="uni063E.fina" unicode="&#x63e;" horiz-adv-x="656" 
d="M43 -16q0 21 3.5 49t15.5 65t35 81l31 -13q-16 -32 -27.5 -63t-17 -60.5t-5.5 -56.5q0 -44 15 -77.5t44 -57t71 -35.5t96 -12q65 0 114 16.5t82.5 42t50.5 53.5t17 52q0 19 -12 33t-33 25.5t-49 21.5t-61 22l9 34q43 -17 78 -31t63.5 -23.5t52.5 -15t45 -5.5
q10 0 14.5 -4t4.5 -13q0 -7 -5.5 -12t-20.5 -5q-8 0 -19.5 1.5t-23.5 4.5t-24 7q9 -11 12 -24t3 -22q0 -28 -19 -61t-56.5 -63t-93.5 -49t-130 -19q-75 0 -134 23.5t-92.5 71t-33.5 119.5zM269 270q-13 0 -22 9t-9 21q0 13 9 22t22 9t21.5 -9t8.5 -22t-9 -21.5t-21 -8.5z
M164 270q-13 0 -22 9t-9 21q0 13 9 22t22 9t21.5 -9t8.5 -22t-9 -21.5t-21 -8.5z" />
    <glyph glyph-name="uni063F.init" unicode="&#x63f;" horiz-adv-x="250" 
d="M0 -5l5 34q49 0 79 9.5t44 33t14 64.5q0 32 -6.5 66.5t-18 73t-27.5 82.5l34 13q15 -40 26.5 -79.5t18 -76.5t6.5 -72q0 -38 -9.5 -66t-30 -46t-54.5 -27t-81 -9zM116 593q-12 0 -21.5 9.5t-9.5 21.5q0 13 9.5 22t21.5 9q13 0 22 -9t9 -22q0 -12 -9 -21.5t-22 -9.5z
M64 505q-12 0 -21.5 9t-9.5 22t9.5 21.5t21.5 8.5q13 0 22 -8.5t9 -21.5t-9 -22t-22 -9zM169 505q-12 0 -21.5 9t-9.5 22t9 21.5t22 8.5q12 0 21.5 -8.5t9.5 -21.5t-9.5 -22t-21.5 -9zM154 -174q-13 0 -22 9t-9 21q0 13 9 22t22 9t22 -9t9 -22q0 -12 -9 -21t-22 -9zM50 -174
q-13 0 -22.5 9t-9.5 21q0 13 9 22t23 9q12 0 21 -9t9 -22q0 -12 -9 -21t-21 -9z" />
    <glyph glyph-name="uni063F.medi" unicode="&#x63f;" horiz-adv-x="286" 
d="M0 -5l5 34q30 0 53 7.5t41 31.5t33.5 72t29.5 128l34 -7q-6 -33 -11.5 -56.5t-8.5 -42.5t-3 -40t4.5 -38t16.5 -29.5t35.5 -19t61.5 -6.5q11 0 15 -5t4 -11q0 -7 -5.5 -12.5t-18.5 -5.5q-40 0 -67 7t-42.5 21.5t-22 36.5t-6.5 51h8q-13 -38 -28 -61t-33.5 -35t-42 -16
t-52.5 -4zM171 510q-12 0 -21.5 9.5t-9.5 21.5q0 13 9.5 22t21.5 9q13 0 22 -9t9 -22q0 -12 -9 -21.5t-22 -9.5zM119 422q-12 0 -21.5 9t-9.5 22t9.5 22t21.5 9q13 0 22 -9t9 -22t-9 -22t-22 -9zM224 422q-13 0 -22 9t-9 22t9 22t22 9q12 0 21.5 -9t9.5 -22t-9.5 -22
t-21.5 -9zM200 -174q-13 0 -22.5 9t-9.5 21q0 13 9 22t23 9q12 0 21 -9t9 -22q0 -12 -9 -21t-21 -9zM95 -174q-13 0 -22.5 9t-9.5 21q0 13 9.5 22t22.5 9q12 0 21 -9t9 -22q0 -12 -9 -21t-21 -9z" />
    <glyph glyph-name="uni063F.fina" unicode="&#x63f;" horiz-adv-x="656" 
d="M43 -16q0 21 3.5 49t15.5 65t35 81l31 -13q-16 -32 -27.5 -63t-17 -60.5t-5.5 -56.5q0 -44 15 -77.5t44 -57t71 -35.5t96 -12q65 0 114 16.5t82.5 42t50.5 53.5t17 52q0 19 -12 33t-33 25.5t-49 21.5t-61 22l9 34q43 -17 78 -31t63.5 -23.5t52.5 -15t45 -5.5
q10 0 14.5 -4t4.5 -13q0 -7 -5.5 -12t-20.5 -5q-8 0 -19.5 1.5t-23.5 4.5t-24 7q9 -11 12 -24t3 -22q0 -28 -19 -61t-56.5 -63t-93.5 -49t-130 -19q-75 0 -134 23.5t-92.5 71t-33.5 119.5zM216 358q-12 0 -21 9t-9 22t9 22t21 9q13 0 22 -9t9 -22t-9 -22t-22 -9zM164 270
q-12 0 -21 9t-9 22q0 12 9 21t21 9q13 0 22 -9t9 -21q0 -13 -9 -22t-22 -9zM269 270q-12 0 -21.5 9t-9.5 22q0 12 9.5 21t21.5 9q13 0 22 -9t9 -21q0 -13 -9 -22t-22 -9z" />
    <glyph glyph-name="uni066E.init" unicode="&#x66e;" horiz-adv-x="224" 
d="M0 -5l5 34q47 0 71.5 12.5t34 36.5t9.5 58q0 33 -6 67t-17.5 72.5t-28.5 82.5l34 13q15 -41 26.5 -80.5t18 -77t6.5 -73.5q0 -26 -5 -49t-15.5 -40.5t-28.5 -30t-43.5 -19t-60.5 -6.5z" />
    <glyph glyph-name="uni066E.medi" unicode="&#x66e;" horiz-adv-x="264" 
d="M0 -5l5 34q25 0 44.5 7t36 30.5t31 71.5t29.5 130l34 -7q-7 -33 -12 -56t-8 -42.5t-3 -40.5q0 -28 8.5 -49t32.5 -32.5t71 -11.5q12 0 16 -5t4 -12t-6 -12t-19 -5q-49 0 -78 12.5t-41.5 38.5t-12.5 65h8q-12 -39 -26.5 -62.5t-32 -35t-38 -15t-43.5 -3.5z" />
    <glyph glyph-name="uni066E.fina" unicode="&#x66e;" horiz-adv-x="817" 
d="M324 -21l15 34q71 0 129.5 10t106.5 33t84 60.5t60 92.5l30 -13q-11 -28 -19 -52.5t-8 -47.5q0 -18 8 -33t30 -24.5t62 -9.5q12 0 16 -5t4 -12t-6 -12t-19 -5q-44 0 -74.5 13.5t-43.5 42t-4 72.5h12q-30 -43 -71.5 -71t-91 -44t-105.5 -22.5t-115 -6.5zM324 -21
q-65 0 -117.5 11.5t-89.5 34.5t-57 58.5t-20 84.5q0 23 4 49t10 51t12 47l32 -9q-6 -17 -11 -39.5t-8.5 -46.5t-3.5 -47q0 -55 29.5 -90.5t88.5 -52.5t146 -17l20 -20z" />
    <glyph glyph-name="uni066F.init" unicode="&#x66f;" horiz-adv-x="387" 
d="M0 -5l5 34q32 0 64.5 1.5t63 5.5t56 11.5t45.5 19.5q18 10 35 29.5t27 55t10 93.5q0 49 -11.5 96t-33.5 78t-57 31q-27 0 -49.5 -24.5t-36 -62t-13.5 -76.5t15 -60t39 -29t52 -8q25 0 54 6.5t49 17.5l4 -30q-15 -10 -36 -16.5t-41 -9t-35 -2.5q-38 0 -68.5 13.5
t-48.5 41.5t-18 71q0 34 9.5 69.5t27.5 66t43.5 49t57.5 18.5q43 0 72.5 -34t44.5 -90t15 -122q0 -62 -18 -111.5t-65 -83.5q-19 -13 -44.5 -22.5t-57.5 -15.5t-71 -8.5t-85 -2.5z" />
    <glyph glyph-name="uni066F.medi" unicode="&#x66f;" horiz-adv-x="392" 
d="M0 -5l5 34q23 0 46 2t46 7t44 12.5t41 17.5q33 17 58.5 40t41 52.5t15.5 64.5q0 29 -11 60t-32 53t-52 22q-26 0 -49.5 -19t-38.5 -50t-15 -68q0 -39 15 -69t40 -51.5t54 -34.5l-39 -14q-22 14 -46 36t-41 55t-17 78q0 35 11.5 66t30.5 54.5t44 36.5t51 13
q39 0 67.5 -23.5t44.5 -60.5t16 -80q0 -31 -9.5 -58.5t-26 -51t-39.5 -42.5t-50 -34q-22 -13 -47 -22t-51 -15t-53 -8.5t-54 -2.5zM392 -5q-31 0 -72 7t-79.5 18.5t-62.5 26.5l34 18q20 -8 49 -16.5t64 -14t72 -5.5q10 0 15 -4t5 -13q0 -7 -6 -12t-19 -5z" />
    <glyph glyph-name="uni066F.fina" unicode="&#x66f;" horiz-adv-x="734" 
d="M305 -272q-56 0 -104 13.5t-84 41t-56.5 72t-20.5 106.5q0 11 3.5 40t15.5 70t38 89l30 -16q-13 -24 -25 -52t-19.5 -60t-7.5 -66q0 -77 33 -121.5t87 -63t117 -18.5q32 0 69 4.5t73.5 16.5t68.5 33.5t56.5 55.5t35.5 84q6 21 9.5 49t3.5 55q0 63 -12.5 112.5t-35 78.5
t-53.5 29q-22 0 -40 -15.5t-31.5 -40t-21 -53.5t-7.5 -57t9.5 -45.5t27.5 -26.5t43 -11.5t55 -2.5h176q10 0 15 -4t5 -13q0 -7 -6 -12t-18 -5h-179q-31 0 -60 5t-52 17t-37 35t-14 58q0 34 9.5 70t27.5 67t44 50t59 19q41 0 70 -33.5t44.5 -91t15.5 -131.5q0 -33 -4.5 -66
t-13.5 -59q-18 -65 -55 -105.5t-85 -62.5t-99.5 -30.5t-99.5 -8.5z" />
    <glyph glyph-name="uni0672.fina" unicode="&#x672;" horiz-adv-x="229" 
d="M229 -5q-47 0 -74.5 14t-40 49t-15.5 99l-18 487h34l18 -472q2 -59 10 -90t29 -42t62 -11q11 0 15 -5t4 -11q0 -8 -5.5 -13t-18.5 -5zM-72 722l-21 13q13 21 28 31.5t31 10.5q22 0 38 -11.5t35 -11.5q12 0 26 3.5t22 7.5l9 -9q-39 6 -66.5 33t-27.5 62q0 39 27 59.5
t60 20.5q12 0 23.5 -2t21.5 -6l-5 -25q-10 2 -19.5 4t-19.5 2q-31 0 -45.5 -15.5t-14.5 -37.5q0 -21 12 -37.5t31.5 -26.5t43.5 -14l-25 -6q26 7 43 14.5t33 14.5l9 -23q-9 -6 -27 -13.5t-39 -15t-40.5 -12.5t-32.5 -5q-24 0 -40.5 11.5t-31.5 11.5q-12 0 -21 -8.5
t-17 -19.5z" />
    <glyph glyph-name="uni0673.fina" unicode="&#x673;" horiz-adv-x="236" 
d="M236 -5q-49 0 -78 13.5t-41.5 49t-15.5 99.5l-20 554h34l20 -539q2 -62 10.5 -92.5t30.5 -40.5t65 -10q12 0 16 -5t4 -12t-6 -12t-19 -5zM-11 -291l-21 13q13 21 28 31.5t32 10.5q21 0 37.5 -11.5t34.5 -11.5q12 0 26 3.5t22 7.5l9 -9q-39 6 -66.5 33t-27.5 62
q0 39 27 59.5t60 20.5q12 0 23.5 -2t22.5 -6l-6 -25q-10 2 -19.5 3.5t-19.5 1.5q-30 0 -45 -15t-15 -37q0 -21 12 -37.5t31.5 -26.5t43.5 -14l-25 -6q26 7 43 14.5t33 14.5l9 -23q-9 -6 -27 -13.5t-39 -15t-40.5 -12.5t-32.5 -5q-24 0 -40.5 11.5t-31.5 11.5q-12 0 -21 -8.5
t-17 -19.5z" />
    <glyph glyph-name="uni0675.fina" unicode="&#x675;" horiz-adv-x="385" 
d="M385 -5h-150q-49 0 -77.5 13.5t-41 49t-15.5 99.5l-20 554h34l20 -539q2 -61 10.5 -92t30 -41t64.5 -10h150q12 0 16 -5t4 -11q0 -8 -6 -13t-19 -5zM198 591l-7 27q26 6 42 10.5t35 9.5l23 -9q-45 6 -70.5 33t-25.5 61q0 26 13.5 44.5t33.5 27.5t41 9q12 0 24.5 -2
t22.5 -6l-6 -26q-9 3 -19 5t-21 2q-29 0 -45 -15.5t-16 -38.5q0 -21 12.5 -37t32 -26t43.5 -14l-40 -6q27 7 50.5 14.5t41.5 14.5l9 -25q-24 -9 -54 -18.5t-61.5 -18.5t-58.5 -16z" />
    <glyph glyph-name="uni0676.fina" unicode="&#x676;" horiz-adv-x="409" 
d="M50 -230l-8 33q50 12 96.5 31t83.5 50.5t59 78.5t22 113q0 97 -28.5 150.5t-72.5 53.5q-26 0 -49.5 -24t-37.5 -60t-14 -75q0 -31 9 -49.5t27 -28t45 -12t62 -2.5h170q9 0 14.5 -4t5.5 -13q0 -8 -6.5 -12.5t-17.5 -4.5h-169q-56 0 -95 9.5t-59 36t-20 76.5q0 35 10 70
t29 64.5t44.5 47t55.5 17.5q41 0 70 -30t45.5 -85t15.5 -127q0 -82 -32.5 -143t-96.5 -100.5t-158 -60.5zM260 367l-6 27q24 6 42 11.5t34 9.5l22 -9q-39 6 -65.5 32.5t-26.5 59.5q0 26 12 44t32 27t40 9q12 0 24 -2t22 -6l-6 -24q-10 3 -19.5 4.5t-20.5 1.5
q-28 0 -42.5 -16t-14.5 -38q0 -20 12.5 -36.5t32.5 -26t40 -13.5l-37 -5q26 7 47.5 14t40.5 14l8 -25q-23 -9 -53 -19t-60.5 -18.5t-57.5 -15.5z" />
    <glyph glyph-name="uni0677.fina" unicode="&#x677;" horiz-adv-x="467" 
d="M96 -230l-8 33q50 12 96.5 31t83.5 50.5t59 78.5t22 113q0 97 -28.5 150.5t-72.5 53.5q-26 0 -49.5 -24t-37.5 -60t-14 -75q0 -31 9 -49.5t27 -28t45 -12t62 -2.5h170q9 0 14.5 -4t5.5 -13q0 -8 -6.5 -12.5t-17.5 -4.5h-169q-56 0 -95 9.5t-59 36t-20 76.5q0 35 10 70
t29 64.5t44.5 47t55.5 17.5q41 0 70 -30t45.5 -85t15.5 -127q0 -82 -32.5 -143t-96.5 -100.5t-158 -60.5zM308 396l-6 27q24 6 42 11.5t34 9.5l22 -9q-39 6 -65.5 32.5t-26.5 59.5q0 26 12 44t32 27t40 9q12 0 24 -2t22 -6l-6 -24q-10 3 -19.5 4.5t-20.5 1.5
q-28 0 -42.5 -16t-14.5 -38q0 -20 12.5 -36.5t32.5 -26t40 -13.5l-37 -5q26 7 47.5 14t40.5 14l8 -25q-23 -9 -53 -19t-60.5 -18.5t-57.5 -15.5zM47 392l-5 25q53 6 86 23t48.5 41t15.5 51q0 22 -8.5 39.5t-31.5 17.5q-18 0 -29.5 -14t-11.5 -33q0 -28 24.5 -45.5
t51.5 -21.5l-15 -21q-40 8 -64 31.5t-24 56.5q0 31 20 52t50 21q25 0 45 -20t20 -61q0 -39 -21 -69t-60 -48.5t-91 -24.5z" />
    <glyph glyph-name="uni0678.init" unicode="&#x678;" horiz-adv-x="297" 
d="M0 -5l5 34q47 0 71.5 12.5t34 36.5t9.5 58q0 33 -6 67t-17.5 72.5t-28.5 82.5l34 13q15 -41 26.5 -80.5t18 -77t6.5 -73.5q0 -26 -5 -49t-15.5 -40.5t-28.5 -30t-43.5 -19t-60.5 -6.5zM121 591l-6 27q25 6 41 10.5t36 9.5l22 -9q-44 6 -69.5 33t-25.5 61q0 26 13 44.5
t33 27.5t41 9q13 0 25 -2t22 -6l-5 -26q-10 3 -20 5t-21 2q-28 0 -44 -15.5t-16 -38.5q0 -21 12 -37t32 -26t44 -14l-40 -6q27 7 50 14.5t42 14.5l8 -25q-23 -9 -54 -18.5t-61.5 -18.5t-58.5 -16z" />
    <glyph glyph-name="uni0678.medi" unicode="&#x678;" horiz-adv-x="273" 
d="M0 -5l5 34q25 0 44.5 7t36 30.5t31 71.5t29.5 130l34 -7q-7 -33 -12 -56t-8 -42.5t-3 -40.5q0 -28 8.5 -49t32.5 -32.5t71 -11.5q12 0 16 -5t4 -12t-6 -12t-19 -5q-49 0 -78 12.5t-41.5 38.5t-12.5 65h8q-12 -39 -26.5 -62.5t-32 -35t-38 -15t-43.5 -3.5zM129 422l-6 27
q25 6 41 10.5t36 9.5l22 -9q-44 6 -69.5 33t-25.5 61q0 26 13 44.5t33 27.5t41 9q13 0 25 -2t22 -6l-5 -26q-10 3 -20 5t-21 2q-28 0 -44 -15.5t-16 -38.5q0 -21 12 -37t32 -26t44 -14l-40 -6q27 7 50 14.5t42 14.5l8 -25q-23 -9 -54 -18.5t-61.5 -18.5t-58.5 -16z" />
    <glyph glyph-name="uni0678.fina" unicode="&#x678;" horiz-adv-x="656" 
d="M43 -16q0 21 3.5 49t15.5 65t35 81l31 -13q-16 -32 -27.5 -63t-17 -60.5t-5.5 -56.5q0 -44 15 -77.5t44 -57t71 -35.5t96 -12q65 0 114 16.5t82.5 42t50.5 53.5t17 52q0 19 -12 33t-33 25.5t-49 21.5t-61 22l9 34q43 -17 78 -31t63.5 -23.5t52.5 -15t45 -5.5
q10 0 14.5 -4t4.5 -13q0 -7 -5.5 -12t-20.5 -5q-8 0 -19.5 1.5t-23.5 4.5t-24 7q9 -11 12 -24t3 -22q0 -28 -19 -61t-56.5 -63t-93.5 -49t-130 -19q-75 0 -134 23.5t-92.5 71t-33.5 119.5zM447 214l-6 27q25 6 41 10.5t36 9.5l22 -9q-44 6 -69.5 33t-25.5 61q0 26 13 44.5
t33 27.5t41 9q13 0 25 -2t22 -6l-5 -26q-10 3 -20 5t-21 2q-28 0 -44 -15.5t-16 -38.5q0 -21 12 -37t32 -26t44 -14l-40 -6q27 7 50 14.5t42 14.5l8 -25q-23 -9 -54 -18.5t-61.5 -18.5t-58.5 -16z" />
    <glyph glyph-name="uni067C.init" unicode="&#x67c;" horiz-adv-x="250" 
d="M0 -5l5 34q49 0 79 9.5t44 33t14 64.5q0 32 -6.5 66.5t-18 73t-27.5 82.5l34 13q15 -40 26.5 -79.5t18 -76.5t6.5 -72q0 -38 -9.5 -66t-30 -46t-54.5 -27t-81 -9zM108 -109q-31 0 -52.5 21.5t-21.5 52.5t21.5 52.5t52.5 21.5q30 0 52 -21.5t22 -52.5q0 -30 -21.5 -52
t-52.5 -22zM108 -83q19 0 33.5 14t14.5 34t-14.5 34t-33.5 14q-20 0 -34 -14t-14 -34t14 -34t34 -14zM169 505q-13 0 -22.5 9t-9.5 21q0 13 9 22t23 9q12 0 21 -9t9 -22q0 -12 -9 -21t-21 -9zM64 505q-13 0 -22.5 9t-9.5 21q0 13 9.5 22t22.5 9t21.5 -9t8.5 -22
q0 -12 -9 -21t-21 -9z" />
    <glyph glyph-name="uni067C.medi" unicode="&#x67c;" horiz-adv-x="264" 
d="M85 -113q-30 0 -51.5 21.5t-21.5 52.5q0 30 21.5 51.5t51.5 21.5q31 0 52.5 -21.5t21.5 -51.5q0 -31 -21.5 -52.5t-52.5 -21.5zM85 -88q20 0 34.5 14.5t14.5 34.5t-14.5 34t-34.5 14t-33.5 -14t-13.5 -34t14 -34.5t33 -14.5zM0 -5l5 34q25 0 44.5 7t36 30.5t31 71.5
t29.5 130l34 -7q-7 -33 -12 -56t-8 -42.5t-3 -40.5q0 -27 8.5 -48.5t32.5 -33t71 -11.5q12 0 16 -5t4 -11q0 -7 -6 -12.5t-19 -5.5q-49 0 -78 12.5t-41.5 38.5t-12.5 65h8q-12 -39 -26.5 -62.5t-32 -35t-38 -15t-43.5 -3.5zM234 415q-13 0 -22 9t-9 21q0 13 9 22t22 9
t21.5 -9t8.5 -22q0 -12 -9 -21t-21 -9zM129 415q-13 0 -22 9t-9 21q0 13 9 22t22 9t21.5 -9t8.5 -22q0 -12 -8.5 -21t-21.5 -9z" />
    <glyph glyph-name="uni067C.fina" unicode="&#x67c;" horiz-adv-x="817" 
d="M393 -142q-31 0 -52.5 21.5t-21.5 52.5q0 30 21.5 51.5t51.5 21.5q31 0 53 -21.5t22 -51.5q0 -31 -22 -52.5t-52 -21.5zM393 -117q19 0 33.5 14t14.5 35q0 20 -14.5 34t-33.5 14q-20 0 -34 -14t-14 -34t14 -34.5t34 -14.5zM324 -21l15 34q71 0 129.5 10t106.5 33t84 60.5
t60 92.5l30 -13q-11 -28 -19 -52.5t-8 -47.5q0 -18 8 -33t30 -24.5t62 -9.5q12 0 16 -5t4 -11q0 -8 -5.5 -13t-19.5 -5q-44 0 -74.5 13.5t-43.5 42t-4 72.5h12q-30 -43 -71.5 -71t-91 -44t-105.5 -22.5t-115 -6.5zM324 -21q-65 0 -117.5 11.5t-89.5 34.5t-57 58.5t-20 84.5
q0 23 4 49t10 51t12 47l32 -9q-6 -17 -11 -39.5t-8.5 -46.5t-3.5 -47q0 -55 29.5 -90.5t88.5 -52.5t146 -17l20 -20zM433 427q-13 0 -22 9t-9 22q0 12 9 21.5t22 9.5t21.5 -9.5t8.5 -21.5q0 -13 -9 -22t-21 -9zM328 427q-13 0 -22 9t-9 22q0 12 9 21.5t22 9.5t22 -9.5
t9 -21.5q0 -13 -9 -22t-22 -9z" />
    <glyph glyph-name="uni067D.init" unicode="&#x67d;" horiz-adv-x="250" 
d="M0 -5l5 34q49 0 79 9.5t44 33t14 64.5q0 32 -6.5 66.5t-18 73t-27.5 82.5l34 13q15 -40 26.5 -79.5t18 -76.5t6.5 -72q0 -38 -9.5 -66t-30 -46t-54.5 -27t-81 -9zM117 505q-13 0 -22.5 9t-9.5 21q0 13 9.5 22t22.5 9q12 0 21 -9t9 -22q0 -12 -9 -21t-21 -9zM64 593
q-13 0 -22 9t-9 22q0 12 9 21.5t22 9.5t21.5 -9.5t8.5 -21.5q0 -13 -9 -22t-21 -9zM169 593q-13 0 -22.5 9t-9.5 22q0 12 9 21.5t23 9.5q12 0 21 -9.5t9 -21.5q0 -13 -9 -22t-21 -9z" />
    <glyph glyph-name="uni067D.medi" unicode="&#x67d;" horiz-adv-x="286" 
d="M0 -5l5 34q30 0 53 7.5t41 31.5t33.5 72t29.5 128l34 -7q-6 -33 -11.5 -56.5t-8.5 -42.5t-3 -40t4.5 -38t16.5 -29.5t35.5 -19t61.5 -6.5q11 0 15 -5t4 -11q0 -7 -5.5 -12.5t-18.5 -5.5q-40 0 -67 7t-42.5 21.5t-22 36.5t-6.5 51h8q-13 -38 -28 -61t-33.5 -35t-42 -16
t-52.5 -4zM173 422q-13 0 -22 9t-9 21q0 13 9 22.5t22 9.5t21.5 -9.5t8.5 -22.5q0 -12 -9 -21t-21 -9zM120 510q-13 0 -22 9t-9 22q0 12 9 21.5t22 9.5t22 -9.5t9 -21.5q0 -13 -9 -22t-22 -9zM225 510q-13 0 -22 9t-9 22q0 12 9 21.5t22 9.5t21.5 -9.5t8.5 -21.5
q0 -13 -9 -22t-21 -9z" />
    <glyph glyph-name="uni067D.fina" unicode="&#x67d;" horiz-adv-x="817" 
d="M324 -21l15 34q71 0 129.5 10t106.5 33t84 60.5t60 92.5l30 -13q-11 -28 -19 -52.5t-8 -47.5q0 -18 8 -33t30 -24.5t62 -9.5q12 0 16 -5t4 -12t-6 -12t-19 -5q-44 0 -74.5 13.5t-43.5 42t-4 72.5h12q-30 -43 -71.5 -71t-91 -44t-105.5 -22.5t-115 -6.5zM324 -21
q-65 0 -117.5 11.5t-89.5 34.5t-57 58.5t-20 84.5q0 23 4 49t10 51t12 47l32 -9q-6 -17 -11 -39.5t-8.5 -46.5t-3.5 -47q0 -55 29.5 -90.5t88.5 -52.5t146 -17l20 -20zM387 428q-13 0 -22 9t-9 21q0 13 9 22t22 9t21.5 -9t8.5 -22t-9 -21.5t-21 -8.5zM334 516q-13 0 -22 9
t-9 21q0 13 9 22.5t22 9.5t22 -9.5t9 -21.5q0 -13 -9 -22t-22 -9zM439 516q-13 0 -22 9t-9 21q0 13 9 22.5t22 9.5t21.5 -9.5t8.5 -21.5q0 -13 -9 -22t-21 -9z" />
    <glyph glyph-name="uni0681.init" unicode="&#x681;" horiz-adv-x="491" 
d="M0 -5l5 34q47 0 87.5 7.5t81 23.5t85.5 42t100 63q-45 33 -81.5 59t-71.5 41t-75 15q-13 0 -25.5 -0.5t-24.5 -2.5t-27 -7l-6 32q20 7 41 9.5t42 2.5q44 0 79.5 -13.5t64.5 -32.5t53.5 -38.5t47 -33t45.5 -13.5h18l4 -33q-30 0 -57 -11.5t-55 -29t-60 -37t-71 -37.5
t-88.5 -29t-111.5 -11zM53 394l-6 27q24 6 42 11.5t34 9.5l22 -9q-39 6 -65.5 32.5t-26.5 59.5q0 26 12 44t32 27t40 9q12 0 24 -2t22 -6l-6 -24q-10 3 -19.5 4.5t-20.5 1.5q-28 0 -42.5 -16t-14.5 -38q0 -20 12.5 -36.5t32.5 -26t40 -13.5l-37 -5q26 7 47.5 14t40.5 14
l8 -25q-23 -9 -53 -19t-60.5 -18.5t-57.5 -15.5z" />
    <glyph glyph-name="uni0681.medi" unicode="&#x681;" horiz-adv-x="515" 
d="M515 -5q-27 0 -53 3.5t-49.5 16.5t-42 41.5t-28.5 79.5l27 12q14 -57 35 -82t50.5 -31t65.5 -6q12 0 16 -5t4 -12t-6 -12t-19 -5zM0 -5l5 34q47 0 87.5 7.5t81 23.5t85.5 42t100 63q-45 33 -81.5 59t-71.5 41t-75 15q-13 0 -25.5 -0.5t-24.5 -2.5t-27 -7l-6 32
q20 7 41 9.5t42 2.5q44 0 79.5 -13.5t64.5 -32.5t53.5 -38.5t47 -33t45.5 -13.5h18l4 -33q-30 0 -57 -11.5t-55 -29t-60 -37t-71 -37.5t-88.5 -29t-111.5 -11zM55 393l-6 27q24 6 42 11.5t34 9.5l22 -9q-39 6 -65.5 32.5t-26.5 59.5q0 26 12 44t32 27t40 9q12 0 24 -2t22 -6
l-6 -24q-10 3 -19.5 4.5t-20.5 1.5q-28 0 -42.5 -16t-14.5 -38q0 -20 12.5 -36.5t32.5 -26t40 -13.5l-37 -5q26 7 47.5 14t40.5 14l8 -25q-23 -9 -53 -19t-60.5 -18.5t-57.5 -15.5z" />
    <glyph glyph-name="uni0681.fina" unicode="&#x681;" horiz-adv-x="556" 
d="M556 -5q-46 0 -84 11t-66 37.5t-45 72t-21 115.5l30 11q4 -62 17.5 -103.5t38 -65.5t58.5 -34t77 -10q12 0 16 -5t4 -12t-6 -12t-19 -5zM317 -394q-57 0 -108 16.5t-90 50t-61.5 83.5t-22.5 117t22 123.5t60 102.5t85.5 80t99.5 57t101 33l3 -9q-28 6 -56.5 17.5t-59 25
t-66.5 22.5t-78 9q-27 0 -45.5 -4t-37.5 -11l-6 32q21 8 45 12.5t48 4.5q38 0 72 -8.5t65 -21t60 -25t58.5 -21t61.5 -9.5h7v-36q-41 -1 -87 -12.5t-91 -34t-86 -55t-72.5 -74t-49.5 -91.5t-18 -107q0 -61 21 -105.5t56.5 -72t80.5 -41t93 -13.5q46 0 85 7.5t75 19.5l11 -29
q-40 -18 -87.5 -25.5t-87.5 -7.5zM190 489l-6 27q24 6 42 11.5t34 9.5l22 -9q-39 6 -65.5 32.5t-26.5 59.5q0 26 12 44t32 27t40 9q12 0 24 -2t22 -6l-6 -24q-10 3 -19.5 4.5t-20.5 1.5q-28 0 -42.5 -16t-14.5 -38q0 -20 12.5 -36.5t32.5 -26t40 -13.5l-37 -5q26 7 47.5 14
t40.5 14l8 -25q-23 -9 -53 -19t-60.5 -18.5t-57.5 -15.5z" />
    <glyph glyph-name="uni0682.init" unicode="&#x682;" horiz-adv-x="491" 
d="M0 -5l5 34q47 0 87.5 7.5t81 23.5t85.5 42t100 63q-45 33 -81.5 59t-71.5 41t-75 15q-13 0 -25.5 -0.5t-24.5 -2.5t-27 -7l-6 32q20 7 41 9.5t42 2.5q44 0 79.5 -13.5t64.5 -32.5t53.5 -38.5t47 -33t45.5 -13.5h18l4 -33q-30 0 -57 -11.5t-55 -29t-60 -37t-71 -37.5
t-88.5 -29t-111.5 -11zM134 443q-13 0 -22 9t-9 21q0 13 9 22t22 9t21.5 -9t8.5 -22t-9 -21.5t-21 -8.5zM133 556q-13 0 -22 9t-9 21q0 13 9 22t22 9t21.5 -9t8.5 -22q0 -12 -9 -21t-21 -9z" />
    <glyph glyph-name="uni0682.medi" unicode="&#x682;" horiz-adv-x="515" 
d="M515 -5q-27 0 -53 3.5t-49.5 16.5t-42 41.5t-28.5 79.5l27 12q14 -57 35 -82t50.5 -31t65.5 -6q12 0 16 -5t4 -12t-6 -12t-19 -5zM0 -5l5 34q47 0 87.5 7.5t81 23.5t85.5 42t100 63q-45 33 -81.5 59t-71.5 41t-75 15q-13 0 -25.5 -0.5t-24.5 -2.5t-27 -7l-6 32
q20 7 41 9.5t42 2.5q44 0 79.5 -13.5t64.5 -32.5t53.5 -38.5t47 -33t45.5 -13.5h18l4 -33q-30 0 -57 -11.5t-55 -29t-60 -37t-71 -37.5t-88.5 -29t-111.5 -11zM134 443q-13 0 -22 9t-9 21q0 13 9 22t22 9t21.5 -9t8.5 -22t-9 -21.5t-21 -8.5zM133 556q-13 0 -22 9t-9 21
q0 13 9 22t22 9t21.5 -9t8.5 -22q0 -12 -9 -21t-21 -9z" />
    <glyph glyph-name="uni0682.fina" unicode="&#x682;" horiz-adv-x="556" 
d="M556 -5q-46 0 -84 11t-66 37.5t-45 72t-21 115.5l30 11q4 -62 17.5 -103.5t38 -65.5t58.5 -34t77 -10q12 0 16 -5t4 -12t-6 -12t-19 -5zM317 -394q-57 0 -108 16.5t-90 50t-61.5 83.5t-22.5 117t22 123.5t60 102.5t85.5 80t99.5 57t101 33l3 -9q-28 6 -56.5 17.5t-59 25
t-66.5 22.5t-78 9q-27 0 -45.5 -4t-37.5 -11l-6 32q21 8 45 12.5t48 4.5q38 0 72 -8.5t65 -21t60 -25t58.5 -21t61.5 -9.5h7v-36q-41 -1 -87 -12.5t-91 -34t-86 -55t-72.5 -74t-49.5 -91.5t-18 -107q0 -61 21 -105.5t56.5 -72t80.5 -41t93 -13.5q46 0 85 7.5t75 19.5l11 -29
q-40 -18 -87.5 -25.5t-87.5 -7.5zM279 508q-13 0 -22 9t-9 21q0 13 9 22t22 9t21.5 -9t8.5 -22t-9 -21.5t-21 -8.5zM278 621q-13 0 -22 9t-9 21q0 13 9 22t22 9t21.5 -9t8.5 -22q0 -12 -9 -21t-21 -9z" />
    <glyph glyph-name="uni0685.init" unicode="&#x685;" horiz-adv-x="491" 
d="M0 -5l5 34q47 0 87.5 7.5t81 23.5t85.5 42t100 63q-45 33 -81.5 59t-71.5 41t-75 15q-13 0 -25.5 -0.5t-24.5 -2.5t-27 -7l-6 32q20 7 41 9.5t42 2.5q44 0 79.5 -13.5t64.5 -32.5t53.5 -38.5t47 -33t45.5 -13.5h18l4 -33q-30 0 -57 -11.5t-55 -29t-60 -37t-71 -37.5
t-88.5 -29t-111.5 -11zM135 520q-12 0 -21 9t-9 22t9 22t21 9q13 0 22 -9t9 -22t-9 -22t-22 -9zM83 432q-12 0 -21 9t-9 22q0 12 9 21t21 9q13 0 22 -9t9 -21q0 -13 -9 -22t-22 -9zM188 432q-12 0 -21.5 9t-9.5 22q0 12 9.5 21t21.5 9q13 0 22 -9t9 -21q0 -13 -9 -22t-22 -9
z" />
    <glyph glyph-name="uni0685.medi" unicode="&#x685;" horiz-adv-x="515" 
d="M515 -5q-27 0 -53 3.5t-49.5 16.5t-42 41.5t-28.5 79.5l27 12q14 -57 35 -82t50.5 -31t65.5 -6q12 0 16 -5t4 -12t-6 -12t-19 -5zM0 -5l5 34q47 0 87.5 7.5t81 23.5t85.5 42t100 63q-45 33 -81.5 59t-71.5 41t-75 15q-13 0 -25.5 -0.5t-24.5 -2.5t-27 -7l-6 32
q20 7 41 9.5t42 2.5q44 0 79.5 -13.5t64.5 -32.5t53.5 -38.5t47 -33t45.5 -13.5h18l4 -33q-30 0 -57 -11.5t-55 -29t-60 -37t-71 -37.5t-88.5 -29t-111.5 -11zM135 519q-12 0 -21 9t-9 22t9 22t21 9q13 0 22 -9t9 -22t-9 -22t-22 -9zM83 431q-12 0 -21 9t-9 22q0 12 9 21
t21 9q13 0 22 -9t9 -21q0 -13 -9 -22t-22 -9zM188 431q-12 0 -21.5 9t-9.5 22q0 12 9.5 21t21.5 9q13 0 22 -9t9 -21q0 -13 -9 -22t-22 -9z" />
    <glyph glyph-name="uni0685.fina" unicode="&#x685;" horiz-adv-x="556" 
d="M556 -5q-46 0 -84 11t-66 37.5t-45 72t-21 115.5l30 11q4 -62 17.5 -103.5t38 -65.5t58.5 -34t77 -10q12 0 16 -5t4 -12t-6 -12t-19 -5zM317 -394q-57 0 -108 16.5t-90 50t-61.5 83.5t-22.5 117t22 123.5t60 102.5t85.5 80t99.5 57t101 33l3 -9q-28 6 -56.5 17.5t-59 25
t-66.5 22.5t-78 9q-27 0 -45.5 -4t-37.5 -11l-6 32q21 8 45 12.5t48 4.5q38 0 72 -8.5t65 -21t60 -25t58.5 -21t61.5 -9.5h7v-36q-41 -1 -87 -12.5t-91 -34t-86 -55t-72.5 -74t-49.5 -91.5t-18 -107q0 -61 21 -105.5t56.5 -72t80.5 -41t93 -13.5q46 0 85 7.5t75 19.5l11 -29
q-40 -18 -87.5 -25.5t-87.5 -7.5zM292 596q-12 0 -21 9t-9 22t9 22t21 9q13 0 22 -9t9 -22t-9 -22t-22 -9zM240 508q-12 0 -21 9t-9 22q0 12 9 21t21 9q13 0 22 -9t9 -21q0 -13 -9 -22t-22 -9zM345 508q-12 0 -21.5 9t-9.5 22q0 12 9.5 21t21.5 9q13 0 22 -9t9 -21
q0 -13 -9 -22t-22 -9z" />
    <glyph glyph-name="uni0689.fina" unicode="&#x689;" horiz-adv-x="423" 
d="M185 -126q-30 0 -51.5 22t-21.5 52q0 31 21.5 52.5t51.5 21.5q31 0 52.5 -21.5t21.5 -52.5q0 -30 -21.5 -52t-52.5 -22zM185 -100q20 0 34.5 14t14.5 34t-14.5 34t-34.5 14q-19 0 -33 -14t-14 -34t14 -34t33 -14zM159 29q42 0 66.5 13t34.5 35.5t10 49.5q0 19 -4 45
t-16.5 61t-38 82t-66.5 108l30 19q39 -59 64.5 -108.5t40.5 -90t21 -72.5q11 -47 25.5 -79t38.5 -47.5t63 -15.5q12 0 16 -5t4 -12t-6 -12t-19 -5q-40 0 -68 15.5t-45.5 45.5t-25.5 73l14 -12q-1 -29 -14 -57t-42.5 -46.5t-82.5 -18.5q-22 0 -45.5 3.5t-44 9.5t-36.5 14
l12 31q24 -12 53 -18t61 -6z" />
    <glyph glyph-name="uni068A.fina" unicode="&#x68a;" horiz-adv-x="423" 
d="M159 29q42 0 66.5 13t34.5 35.5t10 49.5q0 19 -4 45t-16.5 61t-38 82t-66.5 108l30 19q39 -59 64.5 -108.5t40.5 -90t21 -72.5q11 -47 25.5 -79t38.5 -47.5t63 -15.5q12 0 16 -5t4 -12t-6 -12t-19 -5q-40 0 -68 15.5t-45.5 45.5t-25.5 73l14 -12q-1 -29 -14 -57
t-42.5 -46.5t-82.5 -18.5q-22 0 -45.5 3.5t-44 9.5t-36.5 14l12 31q24 -12 53 -18t61 -6zM150 -174q-13 0 -22.5 9t-9.5 21q0 13 9.5 22t22.5 9q12 0 21 -9t9 -22q0 -12 -9 -21t-21 -9z" />
    <glyph glyph-name="uni068B.fina" unicode="&#x68b;" horiz-adv-x="423" 
d="M159 29q42 0 66.5 13t34.5 35.5t10 49.5q0 19 -4 45t-16.5 61t-38 82t-66.5 108l30 19q39 -59 64.5 -108.5t40.5 -90t21 -72.5q11 -47 25.5 -79t38.5 -47.5t63 -15.5q12 0 16 -5t4 -12t-6 -12t-19 -5q-40 0 -68 15.5t-45.5 45.5t-25.5 73l14 -12q-1 -29 -14 -57
t-42.5 -46.5t-82.5 -18.5q-22 0 -45.5 3.5t-44 9.5t-36.5 14l12 31q24 -12 53 -18t61 -6zM129 604q-14 0 -33 1t-36.5 3t-29.5 3l1 24q30 -3 55 -5t45 -2q34 0 57.5 9t35.5 23.5t12 31.5q0 18 -10 30t-28 12q-24 0 -45.5 -16.5t-39.5 -41t-32 -48.5l-23 3q16 32 38 61.5
t48.5 48t55.5 18.5q28 0 44.5 -18t16.5 -47q0 -26 -15 -46.5t-44 -32t-73 -11.5zM82 663l-6 191h23l6 -169zM150 -174q-13 0 -22.5 9t-9.5 21q0 13 9.5 22t22.5 9q12 0 21 -9t9 -22q0 -12 -9 -21t-21 -9z" />
    <glyph glyph-name="uni068F.fina" unicode="&#x68f;" horiz-adv-x="423" 
d="M159 29q42 0 66.5 13t34.5 35.5t10 49.5q0 19 -4 45t-16.5 61t-38 82t-66.5 108l30 19q39 -59 64.5 -108.5t40.5 -90t21 -72.5q11 -47 25.5 -79t38.5 -47.5t63 -15.5q12 0 16 -5t4 -12t-6 -12t-19 -5q-40 0 -68 15.5t-45.5 45.5t-25.5 73l14 -12q-1 -29 -14 -57
t-42.5 -46.5t-82.5 -18.5q-22 0 -45.5 3.5t-44 9.5t-36.5 14l12 31q24 -12 53 -18t61 -6zM151 595q-13 0 -22 9t-9 21q0 13 9 22t22 9t21.5 -9t8.5 -22t-9 -21.5t-21 -8.5zM98 683q-13 0 -22 9t-9 21q0 13 9 22.5t22 9.5t22 -9.5t9 -21.5q0 -13 -9 -22t-22 -9zM203 683
q-13 0 -22 9t-9 21q0 13 9 22.5t22 9.5t21.5 -9.5t8.5 -21.5q0 -13 -9 -22t-21 -9z" />
    <glyph glyph-name="uni0690.fina" unicode="&#x690;" horiz-adv-x="423" 
d="M159 29q42 0 66.5 13t34.5 35.5t10 49.5q0 19 -4 45t-16.5 61t-38 82t-66.5 108l30 19q39 -59 64.5 -108.5t40.5 -90t21 -72.5q11 -47 25.5 -79t38.5 -47.5t63 -15.5q12 0 16 -5t4 -12t-6 -12t-19 -5q-40 0 -68 15.5t-45.5 45.5t-25.5 73l14 -12q-1 -29 -14 -57
t-42.5 -46.5t-82.5 -18.5q-22 0 -45.5 3.5t-44 9.5t-36.5 14l12 31q24 -12 53 -18t61 -6zM100 706q-13 0 -22 9t-9 21q0 13 9 22.5t22 9.5t21.5 -9.5t8.5 -22.5q0 -12 -9 -21t-21 -9zM98 595q-13 0 -22 9t-9 21q0 13 9 22t22 9t22 -9t9 -22t-9 -21.5t-22 -8.5zM205 706
q-13 0 -22.5 9t-9.5 21q0 13 9 22.5t23 9.5q12 0 21 -9.5t9 -22.5q0 -12 -9 -21t-21 -9zM203 595q-13 0 -22 9t-9 21q0 13 9 22t22 9t21.5 -9t8.5 -22t-9 -21.5t-21 -8.5z" />
    <glyph glyph-name="uni0692.fina" unicode="&#x692;" horiz-adv-x="314" 
d="M5 -230l-18 31q42 23 78 55.5t63 72t41.5 82t14.5 84.5q0 49 -20 102t-56 115l33 18q19 -35 33.5 -66.5t24 -60.5t16.5 -56q13 -61 36.5 -89.5t67.5 -28.5q12 0 16 -5t4 -12t-6 -12t-19 -5q-31 0 -54 12.5t-38 35t-22 51.5l18 1q0 -54 -19 -104.5t-50 -93t-68.5 -75.5
t-75.5 -52zM107 481q-6 15 -15.5 40t-19.5 53t-20 53t-17 41l24 11q5 -10 14.5 -33t20 -51.5t19.5 -54t15 -39.5l9 -18zM137 483l-23 8q5 17 14.5 46t19.5 59.5t18 54.5t11 32l25 -9q-4 -10 -12.5 -34.5t-18.5 -55t-19 -58t-15 -43.5z" />
    <glyph glyph-name="uni0693.fina" unicode="&#x693;" horiz-adv-x="314" 
d="M179 -218q-30 0 -51.5 22t-21.5 53q0 30 21.5 51.5t51.5 21.5q31 0 53 -21.5t22 -51.5q0 -31 -22 -53t-53 -22zM179 -192q20 0 34.5 14t14.5 35q0 19 -14.5 33.5t-34.5 14.5q-19 0 -33 -14.5t-14 -33.5q0 -21 14 -35t33 -14zM5 -230l-18 31q42 23 78 55.5t63 72t41.5 82
t14.5 84.5q0 49 -20 102t-56 115l33 18q19 -35 33.5 -66.5t24 -60.5t16.5 -56q13 -61 36.5 -89.5t67.5 -28.5q12 0 16 -5t4 -12t-6 -12t-19 -5q-31 0 -54 12.5t-38 35t-22 51.5l18 1q0 -54 -19 -104.5t-50 -93t-68.5 -75.5t-75.5 -52z" />
    <glyph glyph-name="uni0694.fina" unicode="&#x694;" horiz-adv-x="314" 
d="M5 -230l-18 31q42 23 78 55.5t63 72t41.5 82t14.5 84.5q0 49 -20 102t-56 115l33 18q19 -35 33.5 -66.5t24 -60.5t16.5 -56q13 -61 36.5 -89.5t67.5 -28.5q12 0 16 -5t4 -12t-6 -12t-19 -5q-31 0 -54 12.5t-38 35t-22 51.5l18 1q0 -54 -19 -104.5t-50 -93t-68.5 -75.5
t-75.5 -52zM97 -387q-13 0 -22.5 9t-9.5 21q0 13 9.5 22t22.5 9q12 0 21 -9t9 -22q0 -12 -9 -21t-21 -9z" />
    <glyph glyph-name="uni0695.fina" unicode="&#x695;" horiz-adv-x="314" 
d="M34 -85q-6 16 -17 43t-22.5 54.5t-19.5 44.5l21 9q4 -9 11.5 -26t15.5 -38t15.5 -40t12.5 -30l7 -15zM58 -83l-19 6q4 14 11.5 35.5t15 44.5t14 41t8.5 25l21 -9q-4 -8 -10.5 -26t-14.5 -40.5t-15 -43t-11 -33.5zM5 -230l-18 31q42 23 78 55.5t63 72t41.5 82t14.5 84.5
q0 49 -20 102t-56 115l33 18q19 -35 33.5 -66.5t24 -60.5t16.5 -56q13 -61 36.5 -89.5t67.5 -28.5q12 0 16 -5t4 -12t-6 -12t-19 -5q-31 0 -54 12.5t-38 35t-22 51.5l18 1q0 -54 -19 -104.5t-50 -93t-68.5 -75.5t-75.5 -52z" />
    <glyph glyph-name="uni0696.fina" unicode="&#x696;" horiz-adv-x="314" 
d="M5 -230l-18 31q42 23 78 55.5t63 72t41.5 82t14.5 84.5q0 49 -20 102t-56 115l33 18q19 -35 33.5 -66.5t24 -60.5t16.5 -56q13 -61 36.5 -89.5t67.5 -28.5q12 0 16 -5t4 -12t-6 -12t-19 -5q-31 0 -54 12.5t-38 35t-22 51.5l18 1q0 -54 -19 -104.5t-50 -93t-68.5 -75.5
t-75.5 -52zM26 19q-13 0 -22.5 9t-9.5 21q0 13 9.5 22t22.5 9q12 0 21 -9t9 -22t-9 -21.5t-21 -8.5zM65 -387q-13 0 -22.5 9t-9.5 21q0 13 9.5 22t22.5 9q12 0 21 -9t9 -22q0 -12 -9 -21t-21 -9z" />
    <glyph glyph-name="uni0697.fina" unicode="&#x697;" horiz-adv-x="314" 
d="M5 -230l-18 31q42 23 78 55.5t63 72t41.5 82t14.5 84.5q0 49 -20 102t-56 115l33 18q19 -35 33.5 -66.5t24 -60.5t16.5 -56q13 -61 36.5 -89.5t67.5 -28.5q12 0 16 -5t4 -12t-6 -12t-19 -5q-31 0 -54 12.5t-38 35t-22 51.5l18 1q0 -54 -19 -104.5t-50 -93t-68.5 -75.5
t-75.5 -52zM175 481q-13 0 -22 9t-9 21q0 13 9 22t22 9t21.5 -9t8.5 -22t-9 -21.5t-21 -8.5zM70 481q-13 0 -22 9t-9 21q0 13 9 22t22 9t21.5 -9t8.5 -22t-9 -21.5t-21 -8.5z" />
    <glyph glyph-name="uni0699.fina" unicode="&#x699;" horiz-adv-x="314" 
d="M5 -230l-18 31q42 23 78 55.5t63 72t41.5 82t14.5 84.5q0 49 -20 102t-56 115l33 18q19 -35 33.5 -66.5t24 -60.5t16.5 -56q13 -61 36.5 -89.5t67.5 -28.5q12 0 16 -5t4 -12t-6 -12t-19 -5q-31 0 -54 12.5t-38 35t-22 51.5l18 1q0 -54 -19 -104.5t-50 -93t-68.5 -75.5
t-75.5 -52zM72 592q-13 0 -22 9t-9 21q0 13 9 22.5t22 9.5t21.5 -9.5t8.5 -22.5q0 -12 -9 -21t-21 -9zM70 481q-13 0 -22 9t-9 21q0 13 9 22t22 9t22 -9t9 -22t-9 -21.5t-22 -8.5zM177 592q-13 0 -22.5 9t-9.5 21q0 13 9 22.5t23 9.5q12 0 21 -9.5t9 -22.5q0 -12 -9 -21
t-21 -9zM175 481q-13 0 -22 9t-9 21q0 13 9 22t22 9t21.5 -9t8.5 -22t-9 -21.5t-21 -8.5z" />
    <glyph glyph-name="uni069A.init" unicode="&#x69a;" horiz-adv-x="653" 
d="M0 -5l5 34q28 0 46 6.5t31 28.5t25.5 67.5t27.5 121.5l32 -9q-5 -19 -10 -41.5t-8.5 -45.5t-3.5 -45q0 -49 21 -66t61 -17q29 0 48 8.5t31.5 32.5t22 70.5t19.5 122.5l33 -6q-4 -25 -8.5 -52.5t-7 -51.5t-2.5 -43q0 -31 9.5 -49t29.5 -25t49 -7q23 0 45 7.5t37 32
t15 75.5q0 52 -15 105t-33 108l35 14q11 -36 22 -74t18 -76t7 -74q0 -47 -12 -76.5t-32 -46t-43.5 -23t-46.5 -6.5q-45 0 -68 14t-32 37.5t-13 52.5h15q-11 -40 -26.5 -62.5t-39 -32t-61.5 -9.5q-27 0 -51.5 8t-39.5 32.5t-15 73.5l13 1q-11 -48 -28.5 -72.5t-42.5 -33.5
t-59 -9zM307 -175q-13 0 -22.5 9t-9.5 21q0 13 9.5 22t22.5 9q12 0 21 -9t9 -22q0 -12 -9 -21t-21 -9zM353 461q-13 0 -22.5 9t-9.5 21q0 13 9.5 22t22.5 9q12 0 21 -9t9 -22t-9 -21.5t-21 -8.5z" />
    <glyph glyph-name="uni069A.medi" unicode="&#x69a;" horiz-adv-x="677" 
d="M0 -5l5 34q24 0 41.5 5t32 25.5t28.5 66.5t30 127l32 -9q-6 -25 -14 -62t-8 -68t5.5 -50t21.5 -27t46 -8q27 0 46 7t33 30t24.5 70t21.5 127l34 -6l-7.5 -45t-8.5 -54t-4 -44q0 -29 6.5 -48t24.5 -28t50 -9q53 0 74 23t21 81q0 23 -1 58t-3.5 71t-5.5 62l34 3
q5 -99 12 -158t20 -89t35 -40.5t56 -10.5q12 0 15.5 -5t3.5 -12t-5.5 -12t-18.5 -5q-30 0 -51 7t-35.5 21t-24 34.5t-14.5 46.5l9 -1q-6 -45 -23 -68t-42 -31.5t-57 -8.5q-37 0 -59 11.5t-33 34t-14 58.5h11q-11 -35 -25.5 -58.5t-37.5 -34.5t-62 -11q-26 0 -49.5 8.5
t-36.5 33t-13 72.5l13 1q-14 -51 -32.5 -75.5t-43.5 -32t-57 -7.5zM305 -175q-13 0 -22.5 9t-9.5 21q0 13 9.5 22t22.5 9q12 0 21 -9t9 -22q0 -12 -9 -21t-21 -9zM363 461q-13 0 -22.5 9t-9.5 21q0 13 9.5 22t22.5 9q12 0 21 -9t9 -22t-9 -21.5t-21 -8.5z" />
    <glyph glyph-name="uni069A.fina" unicode="&#x69a;" horiz-adv-x="1000" 
d="M254 -232q-42 0 -80 12t-67.5 36.5t-46.5 62.5t-17 91q0 25 4 53t16 63t35 80l30 -16q-15 -31 -26 -61t-17 -58.5t-6 -56.5q0 -60 24.5 -98t65 -55.5t87.5 -17.5q61 0 98.5 19.5t58.5 51.5t28.5 71.5t7.5 78.5q0 37 -6 75t-15 78t-20 80l35 11q15 -57 22 -89t15 -60
q10 -34 20.5 -53.5t26 -28t40.5 -8.5q20 0 36 6t29 28t24.5 70.5t21.5 132.5l34 -6q-6 -35 -10.5 -62t-7.5 -47t-3 -38q0 -28 5.5 -47t23.5 -28t54 -9q42 0 66.5 26.5t24.5 77.5q0 23 -1.5 58.5t-4 72.5t-5.5 63l34 3q6 -90 11 -148.5t15.5 -91.5t31.5 -47t59 -14
q11 0 15 -5t4 -12t-5.5 -12t-18.5 -5q-34 0 -58 11.5t-39.5 33t-22.5 51.5l8 -1q-6 -31 -22 -52t-40 -32t-54 -11q-40 0 -63 11.5t-32.5 34.5t-11.5 58l13 1q-11 -41 -26 -63.5t-36 -32t-50 -9.5q-28 0 -46 8.5t-29.5 22.5t-17 31t-9.5 34l20 -34q1 -62 -9 -114.5
t-35.5 -91.5t-71 -61t-114.5 -22zM672 -171q-13 0 -22.5 9t-9.5 21q0 13 9.5 22t22.5 9q12 0 21 -9t9 -22q0 -12 -9 -21t-21 -9zM669 461q-13 0 -22.5 9t-9.5 21q0 13 9.5 22t22.5 9q12 0 21 -9t9 -22t-9 -21.5t-21 -8.5z" />
    <glyph glyph-name="uni069B.init" unicode="&#x69b;" horiz-adv-x="653" 
d="M0 -5l5 34q28 0 46 6.5t31 28.5t25.5 67.5t27.5 121.5l32 -9q-5 -19 -10 -41.5t-8.5 -45.5t-3.5 -45q0 -49 21 -66t61 -17q29 0 48 8.5t31.5 32.5t22 70.5t19.5 122.5l33 -6q-4 -25 -8.5 -52.5t-7 -51.5t-2.5 -43q0 -31 9.5 -49t29.5 -25t49 -7q23 0 45 7.5t37 32
t15 75.5q0 52 -15 105t-33 108l35 14q11 -36 22 -74t18 -76t7 -74q0 -47 -12 -76.5t-32 -46t-43.5 -23t-46.5 -6.5q-45 0 -68 14t-32 37.5t-13 52.5h15q-11 -40 -26.5 -62.5t-39 -32t-61.5 -9.5q-27 0 -51.5 8t-39.5 32.5t-15 73.5l13 1q-11 -48 -28.5 -72.5t-42.5 -33.5
t-59 -9zM307 -264q-13 0 -22.5 9t-9.5 21q0 13 9.5 22t22.5 9t21.5 -9t8.5 -22q0 -12 -9 -21t-21 -9zM254 -176q-13 0 -22 9t-9 22q0 12 9 21.5t22 9.5t21.5 -9.5t8.5 -21.5q0 -13 -8.5 -22t-21.5 -9zM359 -176q-13 0 -22.5 9t-9.5 22q0 12 9.5 21.5t22.5 9.5q12 0 21 -9.5
t9 -21.5q0 -13 -9 -22t-21 -9z" />
    <glyph glyph-name="uni069B.medi" unicode="&#x69b;" horiz-adv-x="677" 
d="M0 -5l5 34q24 0 41.5 5t32 25.5t28.5 66.5t30 127l32 -9q-6 -25 -14 -62t-8 -68t5.5 -50t21.5 -27t46 -8q27 0 46 7t33 30t24.5 70t21.5 127l34 -6l-7.5 -45t-8.5 -54t-4 -44q0 -29 6.5 -48t24.5 -28t50 -9q53 0 74 23t21 81q0 23 -1 58t-3.5 71t-5.5 62l34 3
q5 -99 12 -158t20 -89t35 -40.5t56 -10.5q12 0 15.5 -5t3.5 -12t-5.5 -12t-18.5 -5q-30 0 -51 7t-35.5 21t-24 34.5t-14.5 46.5l9 -1q-6 -45 -23 -68t-42 -31.5t-57 -8.5q-37 0 -59 11.5t-33 34t-14 58.5h11q-11 -35 -25.5 -58.5t-37.5 -34.5t-62 -11q-26 0 -49.5 8.5
t-36.5 33t-13 72.5l13 1q-14 -51 -32.5 -75.5t-43.5 -32t-57 -7.5zM305 -264q-13 0 -22.5 9t-9.5 21q0 13 9.5 22t22.5 9t21.5 -9t8.5 -22q0 -12 -9 -21t-21 -9zM252 -176q-13 0 -22 9t-9 22q0 12 9 21.5t22 9.5t21.5 -9.5t8.5 -21.5q0 -13 -8.5 -22t-21.5 -9zM357 -176
q-13 0 -22.5 9t-9.5 22q0 12 9.5 21.5t22.5 9.5q12 0 21 -9.5t9 -21.5q0 -13 -9 -22t-21 -9z" />
    <glyph glyph-name="uni069B.fina" unicode="&#x69b;" horiz-adv-x="1000" 
d="M254 -232q-42 0 -80 12t-67.5 36.5t-46.5 62.5t-17 91q0 25 4 53t16 63t35 80l30 -16q-15 -31 -26 -61t-17 -58.5t-6 -56.5q0 -60 24.5 -98t65 -55.5t87.5 -17.5q61 0 98.5 19.5t58.5 51.5t28.5 71.5t7.5 78.5q0 37 -6 75t-15 78t-20 80l35 11q15 -57 22 -89t15 -60
q10 -34 20.5 -53.5t26 -28t40.5 -8.5q20 0 36 6t29 28t24.5 70.5t21.5 132.5l34 -6q-6 -35 -10.5 -62t-7.5 -47t-3 -38q0 -28 5.5 -47t23.5 -28t54 -9q42 0 66.5 26.5t24.5 77.5q0 23 -1.5 58.5t-4 72.5t-5.5 63l34 3q6 -90 11 -148.5t15.5 -91.5t31.5 -47t59 -14
q11 0 15 -5t4 -12t-5.5 -12t-18.5 -5q-34 0 -58 11.5t-39.5 33t-22.5 51.5l8 -1q-6 -31 -22 -52t-40 -32t-54 -11q-40 0 -63 11.5t-32.5 34.5t-11.5 58l13 1q-11 -41 -26 -63.5t-36 -32t-50 -9.5q-28 0 -46 8.5t-29.5 22.5t-17 31t-9.5 34l20 -34q1 -62 -9 -114.5
t-35.5 -91.5t-71 -61t-114.5 -22zM671 -260q-13 0 -22.5 9t-9.5 21q0 13 9.5 22t22.5 9t21.5 -9t8.5 -22q0 -12 -9 -21t-21 -9zM618 -172q-13 0 -22 9t-9 22q0 12 9 21.5t22 9.5t21.5 -9.5t8.5 -21.5q0 -13 -8.5 -22t-21.5 -9zM723 -172q-13 0 -22.5 9t-9.5 22
q0 12 9.5 21.5t22.5 9.5q12 0 21 -9.5t9 -21.5q0 -13 -9 -22t-21 -9z" />
    <glyph glyph-name="uni069D.init" unicode="&#x69d;" horiz-adv-x="766" 
d="M399 -17q-49 0 -96 5.5t-86 19t-63 37.5t-27 62l11 1q-16 -49 -36 -73t-45.5 -32t-56.5 -8l5 34q28 0 46.5 6.5t33 30.5t29 72.5t33.5 130.5l33 -9q-5 -18 -11 -42t-11 -48t-5 -42q0 -28 14.5 -48.5t44.5 -34.5t76.5 -21t110.5 -7q67 0 120 10.5t90 30.5t56.5 50t19.5 71
q0 35 -14.5 61t-40.5 40t-61 14q-45 0 -89.5 -24t-85 -64.5t-74.5 -89t-59 -97.5l-33 9q36 68 76.5 123.5t84 95t89.5 61t93 21.5q42 0 75.5 -17t53 -50t19.5 -80q0 -63 -36 -107.5t-107 -68t-177 -23.5zM457 -186q-13 0 -22.5 9t-9.5 21q0 13 9.5 22t22.5 9q12 0 21 -9
t9 -22q0 -12 -9 -21t-21 -9zM352 -186q-13 0 -22 9t-9 21q0 13 9 22t22 9t21.5 -9t8.5 -22q0 -12 -9 -21t-21 -9z" />
    <glyph glyph-name="uni069D.medi" unicode="&#x69d;" horiz-adv-x="807" 
d="M807 -5q-31 0 -61.5 5.5t-58.5 18.5t-52 33l28 18q33 -21 69.5 -31t79.5 -10q11 0 15 -5t4 -12t-5.5 -12t-18.5 -5zM399 -17q-49 0 -96 5.5t-86 19t-63 37.5t-27 62l11 1q-16 -49 -36 -73t-45.5 -32t-56.5 -8l5 34q28 0 46.5 6.5t33 30.5t29 72.5t33.5 130.5l33 -9
q-5 -18 -11 -42t-11 -48t-5 -42q0 -28 14.5 -48.5t44.5 -34.5t76.5 -21t110.5 -7q67 0 120 10.5t90 30.5t56.5 50t19.5 71q0 35 -14.5 61t-40.5 40t-61 14q-45 0 -89.5 -24t-85 -64.5t-74.5 -89t-59 -97.5l-33 9q36 68 76.5 123.5t84 95t89.5 61t93 21.5q42 0 75.5 -17
t53 -50t19.5 -80q0 -63 -36 -107.5t-107 -68t-177 -23.5zM457 -186q-13 0 -22.5 9t-9.5 21q0 13 9.5 22t22.5 9q12 0 21 -9t9 -22q0 -12 -9 -21t-21 -9zM352 -186q-13 0 -22 9t-9 21q0 13 9 22t22 9t21.5 -9t8.5 -22q0 -12 -9 -21t-21 -9z" />
    <glyph glyph-name="uni069D.fina" unicode="&#x69d;" horiz-adv-x="1148" 
d="M1148 -5q-30 0 -60.5 5.5t-58.5 18.5t-52 33l28 18q33 -21 69.5 -31t78.5 -10q12 0 16 -5t4 -12t-6 -12t-19 -5zM253 -232q-45 0 -83 13t-66.5 38.5t-44.5 63.5t-16 90q0 24 4 51.5t16 62t35 79.5l30 -16q-15 -31 -26.5 -61.5t-17 -58.5t-5.5 -53q0 -60 23.5 -99t63 -57
t88.5 -18q60 0 98.5 18.5t59.5 50t29 72t8 83.5q0 54 -12.5 112.5t-28.5 118.5l35 10q10 -38 15.5 -64t10 -43.5t8.5 -30.5q9 -26 26 -46t46 -34t73.5 -21.5t109.5 -7.5q39 0 79.5 4.5t78 15t67.5 29t47 46t17 67.5q0 33 -12.5 59t-38.5 41.5t-65 15.5q-40 0 -81.5 -20.5
t-82 -57.5t-77 -87.5t-67.5 -110.5l-32 9q26 52 57 98t65 83.5t70.5 64t74 41.5t75.5 15q49 0 82 -20t49.5 -54t16.5 -75q0 -56 -27.5 -94.5t-74 -61t-103.5 -32.5t-117 -10q-67 0 -113.5 8t-77 21.5t-48.5 31.5t-31 38l21 -18q2 -65 -8 -119.5t-35.5 -95t-71.5 -63
t-116 -22.5zM805 -182q-13 0 -22.5 9t-9.5 21q0 13 9.5 22t22.5 9q12 0 21 -9t9 -22q0 -12 -9 -21t-21 -9zM700 -182q-13 0 -22 9t-9 21q0 13 9 22t22 9t21.5 -9t8.5 -22q0 -12 -9 -21t-21 -9z" />
    <glyph glyph-name="uni069E.init" unicode="&#x69e;" horiz-adv-x="766" 
d="M399 -17q-49 0 -96 5.5t-86 19t-63 37.5t-27 62l11 1q-16 -49 -36 -73t-45.5 -32t-56.5 -8l5 34q28 0 46.5 6.5t33 30.5t29 72.5t33.5 130.5l33 -9q-5 -18 -11 -42t-11 -48t-5 -42q0 -28 14.5 -48.5t44.5 -34.5t76.5 -21t110.5 -7q67 0 120 10.5t90 30.5t56.5 50t19.5 71
q0 35 -14.5 61t-40.5 40t-61 14q-45 0 -89.5 -24t-85 -64.5t-74.5 -89t-59 -97.5l-33 9q36 68 76.5 123.5t84 95t89.5 61t93 21.5q42 0 75.5 -17t53 -50t19.5 -80q0 -63 -36 -107.5t-107 -68t-177 -23.5zM543 546q-12 0 -21 9t-9 22t9 22t21 9q13 0 22 -9t9 -22t-9 -22
t-22 -9zM491 458q-12 0 -21 9t-9 22q0 12 9 21t21 9q13 0 22 -9t9 -21q0 -13 -9 -22t-22 -9zM596 458q-12 0 -21.5 9t-9.5 22q0 12 9.5 21t21.5 9q13 0 22 -9t9 -21q0 -13 -9 -22t-22 -9z" />
    <glyph glyph-name="uni069E.medi" unicode="&#x69e;" horiz-adv-x="807" 
d="M807 -5q-31 0 -61.5 5.5t-58.5 18.5t-52 33l28 18q33 -21 69.5 -31t79.5 -10q11 0 15 -5t4 -12t-5.5 -12t-18.5 -5zM399 -17q-49 0 -96 5.5t-86 19t-63 37.5t-27 62l11 1q-16 -49 -36 -73t-45.5 -32t-56.5 -8l5 34q28 0 46.5 6.5t33 30.5t29 72.5t33.5 130.5l33 -9
q-5 -18 -11 -42t-11 -48t-5 -42q0 -28 14.5 -48.5t44.5 -34.5t76.5 -21t110.5 -7q67 0 120 10.5t90 30.5t56.5 50t19.5 71q0 35 -14.5 61t-40.5 40t-61 14q-45 0 -89.5 -24t-85 -64.5t-74.5 -89t-59 -97.5l-33 9q36 68 76.5 123.5t84 95t89.5 61t93 21.5q42 0 75.5 -17
t53 -50t19.5 -80q0 -63 -36 -107.5t-107 -68t-177 -23.5zM543 546q-12 0 -21 9t-9 22t9 22t21 9q13 0 22 -9t9 -22t-9 -22t-22 -9zM491 458q-12 0 -21 9t-9 22q0 12 9 21t21 9q13 0 22 -9t9 -21q0 -13 -9 -22t-22 -9zM596 458q-12 0 -21.5 9t-9.5 22q0 12 9.5 21t21.5 9
q13 0 22 -9t9 -21q0 -13 -9 -22t-22 -9z" />
    <glyph glyph-name="uni069E.fina" unicode="&#x69e;" horiz-adv-x="1148" 
d="M1148 -5q-30 0 -60.5 5.5t-58.5 18.5t-52 33l28 18q33 -21 69.5 -31t78.5 -10q12 0 16 -5t4 -12t-6 -12t-19 -5zM253 -232q-45 0 -83 13t-66.5 38.5t-44.5 63.5t-16 90q0 24 4 51.5t16 62t35 79.5l30 -16q-15 -31 -26.5 -61.5t-17 -58.5t-5.5 -53q0 -60 23.5 -99t63 -57
t88.5 -18q60 0 98.5 18.5t59.5 50t29 72t8 83.5q0 54 -12.5 112.5t-28.5 118.5l35 10q10 -38 15.5 -64t10 -43.5t8.5 -30.5q9 -26 26 -46t46 -34t73.5 -21.5t109.5 -7.5q39 0 79.5 4.5t78 15t67.5 29t47 46t17 67.5q0 33 -12.5 59t-38.5 41.5t-65 15.5q-40 0 -81.5 -20.5
t-82 -57.5t-77 -87.5t-67.5 -110.5l-32 9q26 52 57 98t65 83.5t70.5 64t74 41.5t75.5 15q49 0 82 -20t49.5 -54t16.5 -75q0 -56 -27.5 -94.5t-74 -61t-103.5 -32.5t-117 -10q-67 0 -113.5 8t-77 21.5t-48.5 31.5t-31 38l21 -18q2 -65 -8 -119.5t-35.5 -95t-71.5 -63
t-116 -22.5zM878 551q-12 0 -21 9t-9 22t9 22t21 9q13 0 22 -9t9 -22t-9 -22t-22 -9zM826 463q-12 0 -21 9t-9 22q0 12 9 21t21 9q13 0 22 -9t9 -21q0 -13 -9 -22t-22 -9zM931 463q-12 0 -21.5 9t-9.5 22q0 12 9.5 21t21.5 9q13 0 22 -9t9 -21q0 -13 -9 -22t-22 -9z" />
    <glyph glyph-name="uni069F.init" unicode="&#x69f;" horiz-adv-x="595" 
d="M0 -5l5 34h234q63 0 114 9.5t87 28.5t55 48t19 69q0 31 -12 56.5t-38 41.5t-66 16q-46 0 -90 -25t-84.5 -66t-74.5 -89.5t-60 -95.5l-40 -8q34 64 73.5 121.5t84.5 102t93 70t99 25.5q50 0 83 -20t49.5 -53.5t16.5 -74.5q0 -58 -35 -102.5t-113 -66.5
q-35 -10 -80.5 -14.5t-97 -5.5t-103.5 -1h-119zM98 79l-19 632h35l18 -589zM360 550q-12 0 -21 9t-9 22t9 22t21 9q13 0 22 -9t9 -22t-9 -22t-22 -9zM308 462q-12 0 -21 9t-9 22q0 12 9 21t21 9q13 0 22 -9t9 -21q0 -13 -9 -22t-22 -9zM413 462q-12 0 -21.5 9t-9.5 22
q0 12 9.5 21t21.5 9q13 0 22 -9t9 -21q0 -13 -9 -22t-22 -9z" />
    <glyph glyph-name="uni069F.medi" unicode="&#x69f;" horiz-adv-x="615" 
d="M615 -5q-30 0 -60.5 5.5t-58.5 18.5t-52 33l28 18q33 -21 69.5 -31t78.5 -10q12 0 16 -5t4 -12t-5.5 -12t-19.5 -5zM0 -5l5 34h234q63 0 114 9.5t87 28.5t55 48t19 69q0 31 -12 56.5t-38 41.5t-66 16q-46 0 -90 -25t-84.5 -66t-74.5 -89.5t-60 -95.5l-40 -8
q34 64 73.5 121.5t84.5 102t93 70t99 25.5q50 0 83 -20t49.5 -53.5t16.5 -74.5q0 -58 -35 -102.5t-113 -66.5q-35 -10 -80.5 -14.5t-97 -5.5t-103.5 -1h-119zM98 79l-19 632h35l18 -589zM360 550q-12 0 -21 9t-9 22t9 22t21 9q13 0 22 -9t9 -22t-9 -22t-22 -9zM308 462
q-12 0 -21 9t-9 22q0 12 9 21t21 9q13 0 22 -9t9 -21q0 -13 -9 -22t-22 -9zM413 462q-12 0 -21.5 9t-9.5 22q0 12 9.5 21t21.5 9q13 0 22 -9t9 -21q0 -13 -9 -22t-22 -9z" />
    <glyph glyph-name="uni069F.fina" unicode="&#x69f;" horiz-adv-x="724" 
d="M724 -5q-30 0 -60.5 5.5t-59 18.5t-52.5 33l29 18q33 -21 69.5 -31t78.5 -10q12 0 16 -5t4 -12t-6 -12t-19 -5zM318 -13q-33 0 -73 2t-80.5 4.5t-75 6t-55.5 6.5l4 34q26 -4 61.5 -7t75 -6t78.5 -4.5t71 -1.5q60 0 111.5 9t90.5 28.5t61 50.5t22 75q0 33 -13.5 58.5
t-39 41t-64.5 15.5q-45 0 -89 -24t-84.5 -64t-74.5 -89t-60 -99l-41 -9q36 72 77 130.5t86 101t92 65.5t95 23t81.5 -19.5t51 -52.5t17.5 -77q0 -67 -40.5 -111.5t-114 -65.5t-170.5 -21zM193 77l-20 634h35l21 -591zM454 551q-12 0 -21 9t-9 22t9 22t21 9q13 0 22 -9t9 -22
t-9 -22t-22 -9zM402 463q-12 0 -21 9t-9 22q0 12 9 21t21 9q13 0 22 -9t9 -21q0 -13 -9 -22t-22 -9zM507 463q-12 0 -21.5 9t-9.5 22q0 12 9.5 21t21.5 9q13 0 22 -9t9 -21q0 -13 -9 -22t-22 -9z" />
    <glyph glyph-name="uni06A0.init" unicode="&#x6a0;" horiz-adv-x="392" 
d="M0 -5l5 34q42 0 77 2.5t65.5 7.5t62.5 11q-39 15 -73 42t-55 64.5t-21 83.5q0 48 20.5 86t59.5 60t93 22q18 0 38.5 -3.5t39.5 -10.5l-7 -32q-18 5 -36.5 8t-36.5 3q-40 0 -71.5 -17t-49 -46.5t-17.5 -68.5q0 -31 11.5 -57t30.5 -45.5t42 -34t45 -24t40 -14.5q13 3 21 5
t16.5 4.5t22 8t36.5 14.5l12 -31q-62 -26 -119.5 -42t-118.5 -23t-133 -7zM220 626q-12 0 -21 9t-9 22t9 22t21 9q13 0 22 -9t9 -22t-9 -22t-22 -9zM168 538q-12 0 -21 9t-9 22q0 12 9 21t21 9q13 0 22 -9t9 -21q0 -13 -9 -22t-22 -9zM273 538q-12 0 -21.5 9t-9.5 22
q0 12 9.5 21t21.5 9q13 0 22 -9t9 -21q0 -13 -9 -22t-22 -9z" />
    <glyph glyph-name="uni06A0.medi" unicode="&#x6a0;" horiz-adv-x="415" 
d="M0 -5l5 34q46 0 90.5 16t84 43t69.5 60t47.5 68.5t17.5 67.5q0 17 -9.5 33t-30.5 27t-56 11q-31 0 -59 -10.5t-48 -25t-30 -29.5q23 -26 47 -56.5t47 -62.5t43 -66q20 -23 41.5 -38t45.5 -23t52 -11.5t63 -3.5q9 0 14.5 -4t5.5 -13q0 -8 -6.5 -12.5t-18.5 -4.5
q-49 0 -88.5 8.5t-72 28t-62.5 53.5q-22 40 -47.5 75t-48 62t-37.5 44q-1 1 -2.5 6l-3 10t-1.5 8q0 13 14.5 30.5t38.5 33t53.5 25.5t61.5 10q40 0 68.5 -11t44 -33.5t15.5 -53.5q0 -39 -18.5 -80.5t-52 -79.5t-78 -69t-95 -49t-104.5 -18zM216 606q-12 0 -21 9t-9 22t9 22
t21 9q13 0 22 -9t9 -22t-9 -22t-22 -9zM164 518q-12 0 -21 9t-9 22q0 12 9 21t21 9q13 0 22 -9t9 -21q0 -13 -9 -22t-22 -9zM269 518q-12 0 -21.5 9t-9.5 22q0 12 9.5 21t21.5 9q13 0 22 -9t9 -21q0 -13 -9 -22t-22 -9z" />
    <glyph glyph-name="uni06A0.fina" unicode="&#x6a0;" horiz-adv-x="432" 
d="M265 -391q-35 0 -78 9t-81.5 31.5t-63 64.5t-24.5 106q0 56 22.5 101.5t58 84t75.5 73.5t75.5 67.5t58.5 66t23 71.5q0 16 -9.5 32.5t-30 27.5t-56.5 11q-31 0 -58 -10t-47.5 -25t-31.5 -30q21 -22 43.5 -51t45.5 -62t44 -67q22 -25 44 -41t47 -25t53.5 -12t61.5 -3
q8 0 13.5 -3.5t5.5 -13.5q0 -8 -6.5 -12.5t-17.5 -4.5q-46 0 -86.5 8t-75.5 29t-66 59q-17 30 -40.5 64t-46.5 63.5t-39 46.5q-2 3 -4 7.5t-3 9.5t-1 8q0 13 14 30t38 33t54 26t62 10q61 0 94 -27t33 -73q0 -44 -23 -81.5t-58.5 -72.5t-75.5 -69t-75.5 -70.5t-58 -78.5
t-22.5 -92q0 -47 16.5 -81.5t46 -56.5t68.5 -33t85 -11q32 0 61.5 3.5t58 11t56.5 19.5l12 -28q-33 -15 -65 -23.5t-63 -12.5t-63 -4zM241 606q-12 0 -21 9t-9 22t9 22t21 9q13 0 22 -9t9 -22t-9 -22t-22 -9zM189 518q-12 0 -21 9t-9 22q0 12 9 21t21 9q13 0 22 -9t9 -21
q0 -13 -9 -22t-22 -9zM294 518q-12 0 -21.5 9t-9.5 22q0 12 9.5 21t21.5 9q13 0 22 -9t9 -21q0 -13 -9 -22t-22 -9z" />
    <glyph glyph-name="uni06A1.init" unicode="&#x6a1;" horiz-adv-x="387" 
d="M0 -5l5 34q32 0 64.5 1.5t63 5.5t56 11.5t45.5 19.5q18 10 35 29.5t27 55t10 93.5q0 49 -11.5 96t-33.5 78t-57 31q-27 0 -49.5 -24.5t-36 -62t-13.5 -76.5t15 -60t39 -29t52 -8q25 0 54 6.5t49 17.5l4 -30q-15 -10 -36 -16.5t-41 -9t-35 -2.5q-38 0 -68.5 13.5
t-48.5 41.5t-18 71q0 34 9.5 69.5t27.5 66t43.5 49t57.5 18.5q43 0 72.5 -34t44.5 -90t15 -122q0 -62 -18 -111.5t-65 -83.5q-19 -13 -44.5 -22.5t-57.5 -15.5t-71 -8.5t-85 -2.5z" />
    <glyph glyph-name="uni06A1.medi" unicode="&#x6a1;" horiz-adv-x="392" 
d="M0 -5l5 34q23 0 46 2t46 7t44 12.5t41 17.5q33 17 58.5 40t41 52.5t15.5 64.5q0 29 -11 60t-32 53t-52 22q-26 0 -49.5 -19t-38.5 -50t-15 -68q0 -39 15 -69t40 -51.5t54 -34.5l-39 -14q-22 14 -46 36t-41 55t-17 78q0 35 11.5 66t30.5 54.5t44 36.5t51 13
q39 0 67.5 -23.5t44.5 -60.5t16 -80q0 -31 -9.5 -58.5t-26 -51t-39.5 -42.5t-50 -34q-22 -13 -47 -22t-51 -15t-53 -8.5t-54 -2.5zM392 -5q-31 0 -72 7t-79.5 18.5t-62.5 26.5l34 18q20 -8 49 -16.5t64 -14t72 -5.5q10 0 15 -4t5 -13q0 -7 -6 -12t-19 -5z" />
    <glyph glyph-name="uni06A1.fina" unicode="&#x6a1;" horiz-adv-x="902" 
d="M324 -21l16 34q48 0 96.5 3.5t95 10.5t86.5 17t70 25q38 19 65 41.5t41 50t14 61.5q0 22 -6 46t-18 45t-30 34t-41 13q-27 0 -51 -20t-38 -53t-14 -71q0 -36 15 -64.5t40 -49t53 -34.5l-40 -14q-22 14 -45.5 35t-40 52.5t-16.5 73.5q0 36 11 68t29.5 57t43.5 39t53 14
q38 0 66.5 -23.5t45 -62.5t16.5 -84q0 -29 -8.5 -54t-25 -47t-40 -41t-53.5 -35q-32 -17 -76 -30t-95.5 -21t-107 -12t-111.5 -4zM902 -5q-39 0 -77 6.5t-73 18t-64 27.5l34 18q21 -8 47.5 -16.5t60.5 -14t77 -5.5q9 0 14 -4t5 -13q0 -7 -6 -12t-18 -5zM325 -21
q-65 0 -117.5 11.5t-90 34.5t-57.5 58.5t-20 84.5q0 23 4 49t10 51t12 47l32 -9q-6 -17 -11 -39.5t-8.5 -46.5t-3.5 -47q0 -55 29.5 -90.5t88.5 -52.5t147 -17l20 -20z" />
    <glyph glyph-name="fehDotMovedbelowar.init" unicode="&#x6a2;" horiz-adv-x="387" 
d="M0 -5l5 34q32 0 64.5 1.5t63 5.5t56 11.5t45.5 19.5q18 10 35 29.5t27 55t10 93.5q0 49 -11.5 96t-33.5 78t-57 31q-27 0 -49.5 -24.5t-36 -62t-13.5 -76.5t15 -60t39 -29t52 -8q25 0 54 6.5t49 17.5l4 -30q-15 -10 -36 -16.5t-41 -9t-35 -2.5q-38 0 -68.5 13.5
t-48.5 41.5t-18 71q0 34 9.5 69.5t27.5 66t43.5 49t57.5 18.5q43 0 72.5 -34t44.5 -90t15 -122q0 -62 -18 -111.5t-65 -83.5q-19 -13 -44.5 -22.5t-57.5 -15.5t-71 -8.5t-85 -2.5zM184 -188q-13 0 -22.5 9t-9.5 21q0 13 9.5 22t22.5 9q12 0 21 -9t9 -22q0 -12 -9 -21t-21 -9
z" />
    <glyph glyph-name="fehDotMovedbelowar.medi" unicode="&#x6a2;" horiz-adv-x="392" 
d="M0 -5l5 34q23 0 46 2t46 7t44 12.5t41 17.5q33 17 58.5 40t41 52.5t15.5 64.5q0 29 -11 60t-32 53t-52 22q-26 0 -49.5 -19t-38.5 -50t-15 -68q0 -39 15 -69t40 -51.5t54 -34.5l-39 -14q-22 14 -46 36t-41 55t-17 78q0 35 11.5 66t30.5 54.5t44 36.5t51 13
q39 0 67.5 -23.5t44.5 -60.5t16 -80q0 -31 -9.5 -58.5t-26 -51t-39.5 -42.5t-50 -34q-22 -13 -47 -22t-51 -15t-53 -8.5t-54 -2.5zM392 -5q-31 0 -72 7t-79.5 18.5t-62.5 26.5l34 18q20 -8 49 -16.5t64 -14t72 -5.5q10 0 15 -4t5 -13q0 -7 -6 -12t-19 -5zM193 -189
q-13 0 -22.5 9t-9.5 21q0 13 9.5 22t22.5 9q12 0 21 -9t9 -22q0 -12 -9 -21t-21 -9z" />
    <glyph glyph-name="fehDotMovedbelowar.fina" unicode="&#x6a2;" horiz-adv-x="902" 
d="M324 -21l16 34q48 0 96.5 3.5t95 10.5t86.5 17t70 25q38 19 65 41.5t41 50t14 61.5q0 22 -6 46t-18 45t-30 34t-41 13q-27 0 -51 -20t-38 -53t-14 -71q0 -36 15 -64.5t40 -49t53 -34.5l-40 -14q-22 14 -45.5 35t-40 52.5t-16.5 73.5q0 36 11 68t29.5 57t43.5 39t53 14
q38 0 66.5 -23.5t45 -62.5t16.5 -84q0 -29 -8.5 -54t-25 -47t-40 -41t-53.5 -35q-32 -17 -76 -30t-95.5 -21t-107 -12t-111.5 -4zM902 -5q-39 0 -77 6.5t-73 18t-64 27.5l34 18q21 -8 47.5 -16.5t60.5 -14t77 -5.5q9 0 14 -4t5 -13q0 -7 -6 -12t-18 -5zM325 -21
q-65 0 -117.5 11.5t-90 34.5t-57.5 58.5t-20 84.5q0 23 4 49t10 51t12 47l32 -9q-6 -17 -11 -39.5t-8.5 -46.5t-3.5 -47q0 -55 29.5 -90.5t88.5 -52.5t147 -17l20 -20zM368 -195q-13 0 -22.5 9t-9.5 21q0 13 9.5 22t22.5 9q12 0 21 -9t9 -22q0 -12 -9 -21t-21 -9z" />
    <glyph glyph-name="uni06A3.init" unicode="&#x6a3;" horiz-adv-x="387" 
d="M0 -5l5 34q32 0 64.5 1.5t63 5.5t56 11.5t45.5 19.5q18 10 35 29.5t27 55t10 93.5q0 49 -11.5 96t-33.5 78t-57 31q-27 0 -49.5 -24.5t-36 -62t-13.5 -76.5t15 -60t39 -29t52 -8q25 0 54 6.5t49 17.5l4 -30q-15 -10 -36 -16.5t-41 -9t-35 -2.5q-38 0 -68.5 13.5
t-48.5 41.5t-18 71q0 34 9.5 69.5t27.5 66t43.5 49t57.5 18.5q43 0 72.5 -34t44.5 -90t15 -122q0 -62 -18 -111.5t-65 -83.5q-19 -13 -44.5 -22.5t-57.5 -15.5t-71 -8.5t-85 -2.5zM199 614q-13 0 -22.5 9t-9.5 21q0 13 9.5 22t22.5 9q12 0 21 -9t9 -22t-9 -21.5t-21 -8.5z
M184 -188q-13 0 -22.5 9t-9.5 21q0 13 9.5 22t22.5 9q12 0 21 -9t9 -22q0 -12 -9 -21t-21 -9z" />
    <glyph glyph-name="uni06A3.medi" unicode="&#x6a3;" horiz-adv-x="392" 
d="M0 -5l5 34q23 0 46 2t46 7t44 12.5t41 17.5q33 17 58.5 40t41 52.5t15.5 64.5q0 29 -11 60t-32 53t-52 22q-26 0 -49.5 -19t-38.5 -50t-15 -68q0 -39 15 -69t40 -51.5t54 -34.5l-39 -14q-22 14 -46 36t-41 55t-17 78q0 35 11.5 66t30.5 54.5t44 36.5t51 13
q39 0 67.5 -23.5t44.5 -60.5t16 -80q0 -31 -9.5 -58.5t-26 -51t-39.5 -42.5t-50 -34q-22 -13 -47 -22t-51 -15t-53 -8.5t-54 -2.5zM392 -5q-31 0 -72 7t-79.5 18.5t-62.5 26.5l34 18q20 -8 49 -16.5t64 -14t72 -5.5q10 0 15 -4t5 -13q0 -7 -6 -12t-19 -5zM198 522
q-13 0 -22.5 9t-9.5 21q0 13 9.5 22t22.5 9q12 0 21 -9t9 -22t-9 -21.5t-21 -8.5zM193 -189q-13 0 -22.5 9t-9.5 21q0 13 9.5 22t22.5 9q12 0 21 -9t9 -22q0 -12 -9 -21t-21 -9z" />
    <glyph glyph-name="uni06A3.fina" unicode="&#x6a3;" horiz-adv-x="902" 
d="M324 -21l16 34q48 0 96.5 3.5t95 10.5t86.5 17t70 25q38 19 65 41.5t41 50t14 61.5q0 22 -6 46t-18 45t-30 34t-41 13q-27 0 -51 -20t-38 -53t-14 -71q0 -36 15 -64.5t40 -49t53 -34.5l-40 -14q-22 14 -45.5 35t-40 52.5t-16.5 73.5q0 36 11 68t29.5 57t43.5 39t53 14
q38 0 66.5 -23.5t45 -62.5t16.5 -84q0 -29 -8.5 -54t-25 -47t-40 -41t-53.5 -35q-32 -17 -76 -30t-95.5 -21t-107 -12t-111.5 -4zM902 -5q-39 0 -77 6.5t-73 18t-64 27.5l34 18q21 -8 47.5 -16.5t60.5 -14t77 -5.5q9 0 14 -4t5 -13q0 -7 -6 -12t-18 -5zM325 -21
q-65 0 -117.5 11.5t-90 34.5t-57.5 58.5t-20 84.5q0 23 4 49t10 51t12 47l32 -9q-6 -17 -11 -39.5t-8.5 -46.5t-3.5 -47q0 -55 29.5 -90.5t88.5 -52.5t147 -17l20 -20zM712 522q-13 0 -22.5 9t-9.5 21q0 13 9.5 22t22.5 9q12 0 21 -9t9 -22t-9 -21.5t-21 -8.5zM368 -195
q-13 0 -22.5 9t-9.5 21q0 13 9.5 22t22.5 9q12 0 21 -9t9 -22q0 -12 -9 -21t-21 -9z" />
    <glyph glyph-name="uni06A5.init" unicode="&#x6a5;" horiz-adv-x="387" 
d="M0 -5l5 34q32 0 64.5 1.5t63 5.5t56 11.5t45.5 19.5q18 10 35 29.5t27 55t10 93.5q0 49 -11.5 96t-33.5 78t-57 31q-27 0 -49.5 -24.5t-36 -62t-13.5 -76.5t15 -60t39 -29t52 -8q25 0 54 6.5t49 17.5l4 -30q-15 -10 -36 -16.5t-41 -9t-35 -2.5q-38 0 -68.5 13.5
t-48.5 41.5t-18 71q0 34 9.5 69.5t27.5 66t43.5 49t57.5 18.5q43 0 72.5 -34t44.5 -90t15 -122q0 -62 -18 -111.5t-65 -83.5q-19 -13 -44.5 -22.5t-57.5 -15.5t-71 -8.5t-85 -2.5zM184 -277q-13 0 -22.5 9t-9.5 21q0 13 9.5 22t22.5 9t21.5 -9t8.5 -22q0 -12 -9 -21t-21 -9z
M131 -189q-13 0 -22 9t-9 22q0 12 9 21.5t22 9.5t21.5 -9.5t8.5 -21.5q0 -13 -8.5 -22t-21.5 -9zM236 -189q-13 0 -22.5 9t-9.5 22q0 12 9.5 21.5t22.5 9.5q12 0 21 -9.5t9 -21.5q0 -13 -9 -22t-21 -9z" />
    <glyph glyph-name="uni06A5.medi" unicode="&#x6a5;" horiz-adv-x="392" 
d="M0 -5l5 34q23 0 46 2t46 7t44 12.5t41 17.5q33 17 58.5 40t41 52.5t15.5 64.5q0 29 -11 60t-32 53t-52 22q-26 0 -49.5 -19t-38.5 -50t-15 -68q0 -39 15 -69t40 -51.5t54 -34.5l-39 -14q-22 14 -46 36t-41 55t-17 78q0 35 11.5 66t30.5 54.5t44 36.5t51 13
q39 0 67.5 -23.5t44.5 -60.5t16 -80q0 -31 -9.5 -58.5t-26 -51t-39.5 -42.5t-50 -34q-22 -13 -47 -22t-51 -15t-53 -8.5t-54 -2.5zM392 -5q-31 0 -72 7t-79.5 18.5t-62.5 26.5l34 18q20 -8 49 -16.5t64 -14t72 -5.5q10 0 15 -4t5 -13q0 -7 -6 -12t-19 -5zM192 -278
q-13 0 -22.5 9t-9.5 21q0 13 9.5 22t22.5 9t21.5 -9t8.5 -22q0 -12 -9 -21t-21 -9zM139 -190q-13 0 -22 9t-9 22q0 12 9 21.5t22 9.5t21.5 -9.5t8.5 -21.5q0 -13 -8.5 -22t-21.5 -9zM244 -190q-13 0 -22.5 9t-9.5 22q0 12 9.5 21.5t22.5 9.5q12 0 21 -9.5t9 -21.5
q0 -13 -9 -22t-21 -9z" />
    <glyph glyph-name="uni06A5.fina" unicode="&#x6a5;" horiz-adv-x="902" 
d="M324 -21l16 34q48 0 96.5 3.5t95 10.5t86.5 17t70 25q38 19 65 41.5t41 50t14 61.5q0 22 -6 46t-18 45t-30 34t-41 13q-27 0 -51 -20t-38 -53t-14 -71q0 -36 15 -64.5t40 -49t53 -34.5l-40 -14q-22 14 -45.5 35t-40 52.5t-16.5 73.5q0 36 11 68t29.5 57t43.5 39t53 14
q38 0 66.5 -23.5t45 -62.5t16.5 -84q0 -29 -8.5 -54t-25 -47t-40 -41t-53.5 -35q-32 -17 -76 -30t-95.5 -21t-107 -12t-111.5 -4zM902 -5q-39 0 -77 6.5t-73 18t-64 27.5l34 18q21 -8 47.5 -16.5t60.5 -14t77 -5.5q9 0 14 -4t5 -13q0 -7 -6 -12t-18 -5zM325 -21
q-65 0 -117.5 11.5t-90 34.5t-57.5 58.5t-20 84.5q0 23 4 49t10 51t12 47l32 -9q-6 -17 -11 -39.5t-8.5 -46.5t-3.5 -47q0 -55 29.5 -90.5t88.5 -52.5t147 -17l20 -20zM368 -284q-13 0 -22.5 9t-9.5 21q0 13 9.5 22t22.5 9t21.5 -9t8.5 -22q0 -12 -9 -21t-21 -9zM315 -196
q-13 0 -22 9t-9 22q0 12 9 21.5t22 9.5t21.5 -9.5t8.5 -21.5q0 -13 -8.5 -22t-21.5 -9zM420 -196q-13 0 -22.5 9t-9.5 22q0 12 9.5 21.5t22.5 9.5q12 0 21 -9.5t9 -21.5q0 -13 -9 -22t-21 -9z" />
    <glyph glyph-name="uni06A7.fina" unicode="&#x6a7;" horiz-adv-x="734" 
d="M305 -272q-56 0 -104 13.5t-84 41t-56.5 72t-20.5 106.5q0 11 3.5 40t15.5 70t38 89l30 -16q-13 -24 -25 -52t-19.5 -60t-7.5 -66q0 -77 33 -121.5t87 -63t117 -18.5q32 0 69 4.5t73.5 16.5t68.5 33.5t56.5 55.5t35.5 84q6 21 9.5 49t3.5 55q0 63 -12.5 112.5t-35 78.5
t-53.5 29q-22 0 -40 -15.5t-31.5 -40t-21 -53.5t-7.5 -57t9.5 -45.5t27.5 -26.5t43 -11.5t55 -2.5h176q10 0 15 -4t5 -13q0 -7 -6 -12t-18 -5h-179q-31 0 -60 5t-52 17t-37 35t-14 58q0 34 9.5 70t27.5 67t44 50t59 19q41 0 70 -33.5t44.5 -91t15.5 -131.5q0 -33 -4.5 -66
t-13.5 -59q-18 -65 -55 -105.5t-85 -62.5t-99.5 -30.5t-99.5 -8.5zM530 445q-13 0 -22.5 9t-9.5 21q0 13 9.5 22t22.5 9q12 0 21 -9t9 -22t-9 -21.5t-21 -8.5z" />
    <glyph glyph-name="uni06A8.init" unicode="&#x6a8;" horiz-adv-x="387" 
d="M0 -5l5 34q32 0 64.5 1.5t63 5.5t56 11.5t45.5 19.5q18 10 35 29.5t27 55t10 93.5q0 49 -11.5 96t-33.5 78t-57 31q-27 0 -49.5 -24.5t-36 -62t-13.5 -76.5t15 -60t39 -29t52 -8q25 0 54 6.5t49 17.5l4 -30q-15 -10 -36 -16.5t-41 -9t-35 -2.5q-38 0 -68.5 13.5
t-48.5 41.5t-18 71q0 34 9.5 69.5t27.5 66t43.5 49t57.5 18.5q43 0 72.5 -34t44.5 -90t15 -122q0 -62 -18 -111.5t-65 -83.5q-19 -13 -44.5 -22.5t-57.5 -15.5t-71 -8.5t-85 -2.5zM200 702q-12 0 -21 9t-9 22t9 22t21 9q13 0 22 -9t9 -22t-9 -22t-22 -9zM148 614
q-12 0 -21 9t-9 22q0 12 9 21t21 9q13 0 22 -9t9 -21q0 -13 -9 -22t-22 -9zM253 614q-12 0 -21.5 9t-9.5 22q0 12 9.5 21t21.5 9q13 0 22 -9t9 -21q0 -13 -9 -22t-22 -9z" />
    <glyph glyph-name="uni06A8.medi" unicode="&#x6a8;" horiz-adv-x="392" 
d="M0 -5l5 34q23 0 46 2t46 7t44 12.5t41 17.5q33 17 58.5 40t41 52.5t15.5 64.5q0 29 -11 60t-32 53t-52 22q-26 0 -49.5 -19t-38.5 -50t-15 -68q0 -39 15 -69t40 -51.5t54 -34.5l-39 -14q-22 14 -46 36t-41 55t-17 78q0 35 11.5 66t30.5 54.5t44 36.5t51 13
q39 0 67.5 -23.5t44.5 -60.5t16 -80q0 -31 -9.5 -58.5t-26 -51t-39.5 -42.5t-50 -34q-22 -13 -47 -22t-51 -15t-53 -8.5t-54 -2.5zM392 -5q-31 0 -72 7t-79.5 18.5t-62.5 26.5l34 18q20 -8 49 -16.5t64 -14t72 -5.5q10 0 15 -4t5 -13q0 -7 -6 -12t-19 -5zM199 610
q-12 0 -21 9t-9 22t9 22t21 9q13 0 22 -9t9 -22t-9 -22t-22 -9zM147 522q-12 0 -21 9t-9 22q0 12 9 21t21 9q13 0 22 -9t9 -21q0 -13 -9 -22t-22 -9zM252 522q-12 0 -21.5 9t-9.5 22q0 12 9.5 21t21.5 9q13 0 22 -9t9 -21q0 -13 -9 -22t-22 -9z" />
    <glyph glyph-name="uni06A8.fina" unicode="&#x6a8;" horiz-adv-x="734" 
d="M305 -272q-56 0 -104 13.5t-84 41t-56.5 72t-20.5 106.5q0 11 3.5 40t15.5 70t38 89l30 -16q-13 -24 -25 -52t-19.5 -60t-7.5 -66q0 -77 33 -121.5t87 -63t117 -18.5q32 0 69 4.5t73.5 16.5t68.5 33.5t56.5 55.5t35.5 84q6 21 9.5 49t3.5 55q0 63 -12.5 112.5t-35 78.5
t-53.5 29q-22 0 -40 -15.5t-31.5 -40t-21 -53.5t-7.5 -57t9.5 -45.5t27.5 -26.5t43 -11.5t55 -2.5h176q10 0 15 -4t5 -13q0 -7 -6 -12t-18 -5h-179q-31 0 -60 5t-52 17t-37 35t-14 58q0 34 9.5 70t27.5 67t44 50t59 19q41 0 70 -33.5t44.5 -91t15.5 -131.5q0 -33 -4.5 -66
t-13.5 -59q-18 -65 -55 -105.5t-85 -62.5t-99.5 -30.5t-99.5 -8.5zM530 533q-12 0 -21 9t-9 22t9 22t21 9q13 0 22 -9t9 -22t-9 -22t-22 -9zM478 445q-12 0 -21 9t-9 22q0 12 9 21t21 9q13 0 22 -9t9 -21q0 -13 -9 -22t-22 -9zM583 445q-12 0 -21.5 9t-9.5 22q0 12 9.5 21
t21.5 9q13 0 22 -9t9 -21q0 -13 -9 -22t-22 -9z" />
    <glyph glyph-name="uni06AA.init" unicode="&#x6aa;" horiz-adv-x="702" 
d="M0 -5l5 34h251q85 0 150.5 5.5t111 17t69 31t23.5 46.5q0 18 -9 34.5t-32 31t-66.5 27t-111.5 21.5q-95 13 -153 23t-84.5 27t-27.5 51q0 37 27 70.5t73.5 63t105 53t121.5 40.5l7 -32q-102 -29 -168.5 -63t-98.5 -67.5t-32 -60.5q0 -21 23 -32.5t74 -19.5t135 -20
q53 -6 98 -17t79 -27t53 -40t19 -58q0 -45 -31.5 -72.5t-85.5 -42t-123 -19.5t-145 -5h-257z" />
    <glyph glyph-name="uni06AA.medi" unicode="&#x6aa;" horiz-adv-x="748" 
d="M748 -5q-31 0 -61.5 5.5t-58.5 18.5t-52 33l28 18q33 -21 69.5 -31t79.5 -10q11 0 15 -5t4 -12t-5.5 -12t-18.5 -5zM0 -5l5 34h251q85 0 150.5 5.5t111 17t69 31t23.5 46.5q0 18 -9 34.5t-32 31t-66.5 27t-111.5 21.5q-95 13 -153 23t-84.5 27t-27.5 51q0 37 27 70.5
t73.5 63t105 53t121.5 40.5l7 -32q-102 -29 -168.5 -63t-98.5 -67.5t-32 -60.5q0 -21 23 -32.5t74 -19.5t135 -20q53 -6 98 -17t79 -27t53 -40t19 -58q0 -45 -31.5 -72.5t-85.5 -42t-123 -19.5t-145 -5h-257z" />
    <glyph glyph-name="uni06AA.fina" unicode="&#x6aa;" horiz-adv-x="980" 
d="M980 -5q-30 0 -60.5 5.5t-58.5 18.5t-52 33l28 18q33 -21 69.5 -31t78.5 -10q12 0 16 -5t4 -12t-6 -12t-19 -5zM490 -15q-32 0 -84 1t-112.5 3t-120 5.5t-108.5 9.5l3 33q49 -5 109 -8.5t120 -6t110.5 -3.5t81.5 -1q85 0 150.5 7.5t111 21.5t69 35t23.5 47q0 18 -9 34.5
t-32 31t-66.5 27t-111.5 21.5q-95 13 -153 23t-84.5 27t-27.5 51q0 37 27 70.5t73.5 63t105.5 53t121 40.5l7 -32q-102 -29 -168.5 -63t-98.5 -67.5t-32 -60.5q0 -21 23 -32.5t74 -19.5t135 -20q53 -6 98 -17t79 -27t53 -40t19 -58q0 -44 -31.5 -73t-85.5 -45.5t-123 -23.5
t-145 -7z" />
    <glyph glyph-name="uni06AB.init" unicode="&#x6ab;" horiz-adv-x="344" 
d="M267 507q-30 0 -51.5 22t-21.5 52q0 31 21.5 52.5t51.5 21.5q31 0 53 -21.5t22 -52.5q0 -30 -22 -52t-53 -22zM267 532q20 0 34.5 14.5t14.5 34.5t-14.5 34t-34.5 14q-19 0 -33 -14t-14 -34t14 -34.5t33 -14.5zM0 -5l5 34h77q51 0 83 9.5t49 26t22.5 38t5.5 44.5
q0 42 -23 89t-68 99q-38 45 -62 72.5t-38 42.5t-19.5 22t-5.5 11q0 9 2 16.5t5.5 14t8.5 10.5q25 20 53.5 41.5t63 44.5t76.5 48.5t94 54.5l16 -29q-50 -28 -93.5 -54.5t-80.5 -51.5t-68 -47.5t-55 -44.5l2 15q39 -46 79 -90t73 -87.5t53 -87.5t20 -91q0 -32 -9.5 -59
t-32 -47.5t-60.5 -32t-95 -11.5h-78z" />
    <glyph glyph-name="uni06AB.medi" unicode="&#x6ab;" horiz-adv-x="411" 
d="M268 506q-31 0 -52 22t-21 52q0 31 21 52.5t52 21.5q30 0 52 -21.5t22 -52.5q0 -30 -22 -52t-52 -22zM268 532q19 0 33.5 14t14.5 34t-14.5 34t-33.5 14q-20 0 -34 -14t-14 -34t14 -34t34 -14zM0 -5l5 34h78q57 0 92 12t51.5 38t16.5 67q0 31 -15.5 65.5t-40.5 70t-52 69
t-52 61t-40.5 46.5t-15.5 26q0 9 2 16.5t6 14t8 10.5q24 20 55 43t68 47t78 48.5t85 49.5l16 -30q-44 -24 -87 -50.5t-81.5 -52t-71 -49t-55.5 -44.5l2 12q28 -35 60.5 -71t63.5 -75.5t57.5 -82.5t42.5 -92q15 -47 35 -80.5t46 -51t59 -17.5q9 0 14.5 -4t5.5 -13
q0 -7 -6.5 -12t-18.5 -5q-33 0 -63.5 17.5t-54 52t-37.5 84.5l18 -12q-2 -43 -18 -70.5t-43 -43t-61 -22t-72 -6.5h-80z" />
    <glyph glyph-name="uni06AB.fina" unicode="&#x6ab;" horiz-adv-x="840" 
d="M691 507q-30 0 -51.5 22t-21.5 52q0 31 21.5 52.5t51.5 21.5q31 0 53 -21.5t22 -52.5q0 -30 -22 -52t-53 -22zM691 533q20 0 34.5 14t14.5 34t-14.5 34t-34.5 14q-19 0 -33 -14t-14 -34t14 -34t33 -14zM325 -21l15 34q72 0 132.5 7t105 22t69 40t24.5 62q0 32 -16 67.5
t-41.5 71t-53.5 68.5t-53 60.5t-41 46.5t-16 26q0 9 1.5 16.5t5.5 14t9 10.5q31 25 75 56t97.5 65t112.5 67l17 -30q-59 -32 -116 -68.5t-104 -70t-76 -58.5l2 13q28 -33 62 -70t66.5 -78t59.5 -84.5t42 -89.5q9 -24 20.5 -49.5t28 -48t39 -36.5t53.5 -14q9 0 14 -4t5 -13
q0 -7 -6 -12t-18 -5q-35 0 -64.5 17.5t-53 52t-38.5 84.5l18 -12q-3 -45 -30 -75.5t-75.5 -48.5t-117 -26t-154.5 -8zM325 -21q-65 0 -117.5 11.5t-90 34.5t-57.5 58.5t-20 84.5q0 23 4 49t10 51t12 47l32 -9q-6 -17 -11 -39.5t-8.5 -46.5t-3.5 -47q0 -55 29.5 -90.5
t88.5 -52.5t147 -17l20 -20z" />
    <glyph glyph-name="uni06AC.init" unicode="&#x6ac;" horiz-adv-x="344" 
d="M0 -5l5 34h77q51 0 83 9.5t49 26t22.5 38t5.5 44.5q0 42 -23 89t-68 99q-38 45 -62 72.5t-38 42.5t-19.5 22t-5.5 11q0 9 2 16.5t5.5 14t8.5 10.5q25 20 53.5 41.5t63 44.5t76.5 48.5t94 54.5l16 -29q-50 -28 -93.5 -54.5t-80.5 -51.5t-68 -47.5t-55 -44.5l2 15
q39 -46 79 -90t73 -87.5t53 -87.5t20 -91q0 -32 -9.5 -59t-32 -47.5t-60.5 -32t-95 -11.5h-78zM154 756q-13 0 -22.5 9t-9.5 21q0 13 9.5 22t22.5 9q12 0 21 -9t9 -22t-9 -21.5t-21 -8.5z" />
    <glyph glyph-name="uni06AC.medi" unicode="&#x6ac;" horiz-adv-x="411" 
d="M0 -5l5 34h78q57 0 92 12t51.5 38t16.5 67q0 31 -15.5 65.5t-40.5 70t-52 69t-52 61t-40.5 46.5t-15.5 26q0 9 2 16.5t6 14t8 10.5q24 20 55 43t68 47t78 48.5t85 49.5l16 -30q-44 -24 -87 -50.5t-81.5 -52t-71 -49t-55.5 -44.5l2 12q28 -35 60.5 -71t63.5 -75.5
t57.5 -82.5t42.5 -92q15 -47 35 -80.5t46 -51t59 -17.5q9 0 14.5 -4t5.5 -13q0 -7 -6.5 -12t-18.5 -5q-33 0 -63.5 17.5t-54 52t-37.5 84.5l18 -12q-2 -43 -18 -70.5t-43 -43t-61 -22t-72 -6.5h-80zM148 756q-13 0 -22.5 9t-9.5 21q0 13 9.5 22t22.5 9q12 0 21 -9t9 -22
t-9 -21.5t-21 -8.5z" />
    <glyph glyph-name="uni06AC.fina" unicode="&#x6ac;" horiz-adv-x="757" 
d="M325 -21l15 34q82 0 138.5 8.5t90.5 27t49 49t13 74.5l-18 539h33l20 -533q2 -51 9 -84.5t27 -49t60 -15.5q10 0 15 -4t5 -12t-6 -13t-19 -5q-29 0 -53.5 9.5t-40 33.5t-16.5 69h14q-11 -39 -39 -64t-70.5 -39t-99.5 -19.5t-127 -5.5zM308 206l-8 29q50 14 76.5 26.5
t36.5 23.5t10 19q0 16 -14 27.5t-32 23.5t-32 27t-14 37q0 14 9.5 32.5t33.5 40.5t68 46l14 -26q-40 -21 -67.5 -46t-27.5 -46q0 -16 14 -28t32 -24.5t32 -27.5t14 -37q0 -12 -7 -24.5t-24 -24.5t-44.5 -24t-69.5 -24zM325 -21q-65 0 -117.5 11.5t-90 34.5t-57.5 58.5
t-20 84.5q0 23 4 49t10 51t12 47l32 -9q-6 -17 -11 -39.5t-8.5 -46.5t-3.5 -47q0 -55 29.5 -90.5t88.5 -52.5t147 -17l20 -20zM383 659q-13 0 -22.5 9t-9.5 21q0 13 9.5 22t22.5 9q12 0 21 -9t9 -22t-9 -21.5t-21 -8.5z" />
    <glyph glyph-name="uni06AE.init" unicode="&#x6ae;" horiz-adv-x="344" 
d="M0 -5l5 34h77q51 0 83 9.5t49 26t22.5 38t5.5 44.5q0 42 -23 89t-68 99q-38 45 -62 72.5t-38 42.5t-19.5 22t-5.5 11q0 9 2 16.5t5.5 14t8.5 10.5q25 20 53.5 41.5t63 44.5t76.5 48.5t94 54.5l16 -29q-50 -28 -93.5 -54.5t-80.5 -51.5t-68 -47.5t-55 -44.5l2 15
q39 -46 79 -90t73 -87.5t53 -87.5t20 -91q0 -32 -9.5 -59t-32 -47.5t-60.5 -32t-95 -11.5h-78zM144 -259q-13 0 -22.5 9t-9.5 21q0 13 9.5 22t22.5 9t21.5 -9t8.5 -22q0 -12 -9 -21t-21 -9zM91 -171q-13 0 -22 9t-9 22q0 12 9 21.5t22 9.5t21.5 -9.5t8.5 -21.5
q0 -13 -8.5 -22t-21.5 -9zM196 -171q-13 0 -22.5 9t-9.5 22q0 12 9.5 21.5t22.5 9.5q12 0 21 -9.5t9 -21.5q0 -13 -9 -22t-21 -9z" />
    <glyph glyph-name="uni06AE.medi" unicode="&#x6ae;" horiz-adv-x="411" 
d="M0 -5l5 34h78q57 0 92 12t51.5 38t16.5 67q0 31 -15.5 65.5t-40.5 70t-52 69t-52 61t-40.5 46.5t-15.5 26q0 9 2 16.5t6 14t8 10.5q24 20 55 43t68 47t78 48.5t85 49.5l16 -30q-44 -24 -87 -50.5t-81.5 -52t-71 -49t-55.5 -44.5l2 12q28 -35 60.5 -71t63.5 -75.5
t57.5 -82.5t42.5 -92q15 -47 35 -80.5t46 -51t59 -17.5q9 0 14.5 -4t5.5 -13q0 -7 -6.5 -12t-18.5 -5q-33 0 -63.5 17.5t-54 52t-37.5 84.5l18 -12q-2 -43 -18 -70.5t-43 -43t-61 -22t-72 -6.5h-80zM128 -259q-13 0 -22.5 9t-9.5 21q0 13 9.5 22t22.5 9t21.5 -9t8.5 -22
q0 -12 -9 -21t-21 -9zM75 -171q-13 0 -22 9t-9 22q0 12 9 21.5t22 9.5t21.5 -9.5t8.5 -21.5q0 -13 -8.5 -22t-21.5 -9zM180 -171q-13 0 -22.5 9t-9.5 22q0 12 9.5 21.5t22.5 9.5q12 0 21 -9.5t9 -21.5q0 -13 -9 -22t-21 -9z" />
    <glyph glyph-name="uni06AE.fina" unicode="&#x6ae;" horiz-adv-x="757" 
d="M325 -21l15 34q82 0 138.5 8.5t90.5 27t49 49t13 74.5l-18 539h33l20 -533q2 -51 9 -84.5t27 -49t60 -15.5q10 0 15 -4t5 -12t-6 -13t-19 -5q-29 0 -53.5 9.5t-40 33.5t-16.5 69h14q-11 -39 -39 -64t-70.5 -39t-99.5 -19.5t-127 -5.5zM308 206l-8 29q50 14 76.5 26.5
t36.5 23.5t10 19q0 16 -14 27.5t-32 23.5t-32 27t-14 37q0 14 9.5 32.5t33.5 40.5t68 46l14 -26q-40 -21 -67.5 -46t-27.5 -46q0 -16 14 -28t32 -24.5t32 -27.5t14 -37q0 -12 -7 -24.5t-24 -24.5t-44.5 -24t-69.5 -24zM325 -21q-65 0 -117.5 11.5t-90 34.5t-57.5 58.5
t-20 84.5q0 23 4 49t10 51t12 47l32 -9q-6 -17 -11 -39.5t-8.5 -46.5t-3.5 -47q0 -55 29.5 -90.5t88.5 -52.5t147 -17l20 -20zM343 -280q-13 0 -22.5 9t-9.5 21q0 13 9.5 22t22.5 9t21.5 -9t8.5 -22q0 -12 -9 -21t-21 -9zM290 -192q-13 0 -22 9t-9 22q0 12 9 21.5t22 9.5
t21.5 -9.5t8.5 -21.5q0 -13 -8.5 -22t-21.5 -9zM395 -192q-13 0 -22.5 9t-9.5 22q0 12 9.5 21.5t22.5 9.5q12 0 21 -9.5t9 -21.5q0 -13 -9 -22t-21 -9z" />
    <glyph glyph-name="uni06B0.init" unicode="&#x6b0;" horiz-adv-x="343" 
d="M270 509q-31 0 -52 21.5t-21 52.5q0 30 21 51.5t52 21.5q30 0 52 -21.5t22 -51.5q0 -31 -22 -52.5t-52 -21.5zM270 534q19 0 33.5 14.5t14.5 34.5q0 19 -14.5 33.5t-33.5 14.5q-20 0 -34 -14.5t-14 -33.5q0 -20 14 -34.5t34 -14.5zM9 589l-17 26q38 27 79 55t90.5 59
t111.5 67l15 -27q-61 -36 -110 -67.5t-90 -58.5t-79 -54zM0 -5l5 34h77q51 0 83 9.5t49 26t22.5 38t5.5 44.5q0 42 -23 89t-68 99q-38 45 -62 72.5t-38 42.5t-19.5 22t-5.5 11q0 9 2 16.5t5.5 14t8.5 10.5q25 20 53.5 41.5t63 44.5t76.5 48.5t94 54.5l16 -29
q-50 -28 -93.5 -54.5t-80.5 -51.5t-68 -47.5t-55 -44.5l2 15q39 -46 79 -90t73 -87.5t53 -87.5t20 -91q0 -32 -9.5 -59t-32 -47.5t-60.5 -32t-95 -11.5h-78z" />
    <glyph glyph-name="uni06B0.medi" unicode="&#x6b0;" horiz-adv-x="411" 
d="M269 508q-30 0 -51.5 21.5t-21.5 52.5q0 30 21.5 51.5t51.5 21.5q31 0 53 -21.5t22 -51.5q0 -31 -22 -52.5t-53 -21.5zM269 533q20 0 34.5 14.5t14.5 34.5q0 19 -14.5 33.5t-34.5 14.5q-19 0 -33 -14.5t-14 -33.5q0 -20 14 -34.5t33 -14.5zM8 589l-18 26q39 27 80 55
t90.5 59t110.5 67l16 -27q-61 -36 -110.5 -67.5t-90 -58.5t-78.5 -54zM0 -5l5 34h78q57 0 92 12t51.5 38t16.5 67q0 31 -15.5 65.5t-40.5 70t-52 69t-52 61t-40.5 46.5t-15.5 26q0 9 2 16.5t6 14t8 10.5q24 20 55 43t68 47t78 48.5t85 49.5l16 -30q-44 -24 -87 -50.5
t-81.5 -52t-71 -49t-55.5 -44.5l2 12q28 -35 60.5 -71t63.5 -75.5t57.5 -82.5t42.5 -92q15 -47 35 -80.5t46 -51t59 -17.5q9 0 14.5 -4t5.5 -13q0 -7 -6.5 -12t-18.5 -5q-33 0 -63.5 17.5t-54 52t-37.5 84.5l18 -12q-2 -43 -18 -70.5t-43 -43t-61 -22t-72 -6.5h-80z" />
    <glyph glyph-name="uni06B0.fina" unicode="&#x6b0;" horiz-adv-x="836" 
d="M690 506q-31 0 -52.5 22t-21.5 52q0 31 21.5 52t52.5 21q30 0 52 -21t22 -52q0 -30 -22 -52t-52 -22zM690 531q19 0 33.5 14.5t14.5 34.5t-14.5 34t-33.5 14q-20 0 -34 -14t-14 -34t14 -34.5t34 -14.5zM431 590l-17 25q38 28 79 55.5t90.5 58.5t111.5 67l15 -26
q-61 -37 -110 -68t-90 -58.5t-79 -53.5zM325 -21l15 34q72 0 132.5 7t105 22t69 40t24.5 62q0 32 -16 67.5t-41.5 71t-53.5 68.5t-53 60.5t-41 46.5t-16 26q0 9 1.5 16.5t5.5 14t9 10.5q31 25 75 56t97.5 65t112.5 67l17 -30q-59 -32 -116 -68.5t-104 -70t-76 -58.5l2 13
q28 -33 62 -70t66.5 -78t59.5 -84.5t42 -89.5q9 -24 20.5 -49.5t28 -48t39 -36.5t53.5 -14q9 0 14 -4t5 -13q0 -7 -6 -12t-18 -5q-35 0 -64.5 17.5t-53 52t-38.5 84.5l18 -12q-3 -45 -30 -75.5t-75.5 -48.5t-117 -26t-154.5 -8zM325 -21q-65 0 -117.5 11.5t-90 34.5
t-57.5 58.5t-20 84.5q0 23 4 49t10 51t12 47l32 -9q-6 -17 -11 -39.5t-8.5 -46.5t-3.5 -47q0 -55 29.5 -90.5t88.5 -52.5t147 -17l20 -20z" />
    <glyph glyph-name="uni06B2.init" unicode="&#x6b2;" horiz-adv-x="343" 
d="M9 589l-17 26q38 27 79 55t90.5 59t111.5 67l15 -27q-61 -36 -110 -67.5t-90 -58.5t-79 -54zM0 -5l5 34h77q51 0 83 9.5t49 26t22.5 38t5.5 44.5q0 42 -23 89t-68 99q-38 45 -62 72.5t-38 42.5t-19.5 22t-5.5 11q0 9 2 16.5t5.5 14t8.5 10.5q25 20 53.5 41.5t63 44.5
t76.5 48.5t94 54.5l16 -29q-50 -28 -93.5 -54.5t-80.5 -51.5t-68 -47.5t-55 -44.5l2 15q39 -46 79 -90t73 -87.5t53 -87.5t20 -91q0 -32 -9.5 -59t-32 -47.5t-60.5 -32t-95 -11.5h-78zM203 -169q-13 0 -22.5 9t-9.5 21q0 13 9.5 22t22.5 9q12 0 21 -9t9 -22q0 -12 -9 -21
t-21 -9zM98 -169q-13 0 -22 9t-9 21q0 13 9 22t22 9t21.5 -9t8.5 -22q0 -12 -9 -21t-21 -9z" />
    <glyph glyph-name="uni06B2.medi" unicode="&#x6b2;" horiz-adv-x="411" 
d="M8 589l-18 26q39 27 80 55t90.5 59t110.5 67l16 -27q-61 -36 -110.5 -67.5t-90 -58.5t-78.5 -54zM0 -5l5 34h78q57 0 92 12t51.5 38t16.5 67q0 31 -15.5 65.5t-40.5 70t-52 69t-52 61t-40.5 46.5t-15.5 26q0 9 2 16.5t6 14t8 10.5q24 20 55 43t68 47t78 48.5t85 49.5
l16 -30q-44 -24 -87 -50.5t-81.5 -52t-71 -49t-55.5 -44.5l2 12q28 -35 60.5 -71t63.5 -75.5t57.5 -82.5t42.5 -92q15 -47 35 -80.5t46 -51t59 -17.5q9 0 14.5 -4t5.5 -13q0 -7 -6.5 -12t-18.5 -5q-33 0 -63.5 17.5t-54 52t-37.5 84.5l18 -12q-2 -43 -18 -70.5t-43 -43
t-61 -22t-72 -6.5h-80zM213 -169q-13 0 -22.5 9t-9.5 21q0 13 9.5 22t22.5 9q12 0 21 -9t9 -22q0 -12 -9 -21t-21 -9zM108 -169q-13 0 -22 9t-9 21q0 13 9 22t22 9t21.5 -9t8.5 -22q0 -12 -9 -21t-21 -9z" />
    <glyph glyph-name="uni06B2.fina" unicode="&#x6b2;" horiz-adv-x="836" 
d="M431 590l-17 25q38 28 79 55.5t90.5 58.5t111.5 67l15 -26q-61 -37 -110 -68t-90 -58.5t-79 -53.5zM325 -21l15 34q72 0 132.5 7t105 22t69 40t24.5 62q0 32 -16 67.5t-41.5 71t-53.5 68.5t-53 60.5t-41 46.5t-16 26q0 9 1.5 16.5t5.5 14t9 10.5q31 25 75 56t97.5 65
t112.5 67l17 -30q-59 -32 -116 -68.5t-104 -70t-76 -58.5l2 13q28 -33 62 -70t66.5 -78t59.5 -84.5t42 -89.5q9 -24 20.5 -49.5t28 -48t39 -36.5t53.5 -14q9 0 14 -4t5 -13q0 -7 -6 -12t-18 -5q-35 0 -64.5 17.5t-53 52t-38.5 84.5l18 -12q-3 -45 -30 -75.5t-75.5 -48.5
t-117 -26t-154.5 -8zM325 -21q-65 0 -117.5 11.5t-90 34.5t-57.5 58.5t-20 84.5q0 23 4 49t10 51t12 47l32 -9q-6 -17 -11 -39.5t-8.5 -46.5t-3.5 -47q0 -55 29.5 -90.5t88.5 -52.5t147 -17l20 -20zM414 -190q-13 0 -22.5 9t-9.5 21q0 13 9.5 22t22.5 9q12 0 21 -9t9 -22
q0 -12 -9 -21t-21 -9zM309 -190q-13 0 -22 9t-9 21q0 13 9 22t22 9t21.5 -9t8.5 -22q0 -12 -9 -21t-21 -9z" />
    <glyph glyph-name="uni06B4.init" unicode="&#x6b4;" horiz-adv-x="343" 
d="M62 866q-12 0 -20 8t-8 19q0 12 8 20t20 8t19.5 -8t7.5 -20q0 -11 -7.5 -19t-19.5 -8zM52 740q-12 0 -20 8.5t-8 19.5t8 19t20 8t19.5 -8t7.5 -19t-7.5 -19.5t-19.5 -8.5zM163 792q-12 0 -20.5 8t-8.5 19q0 12 8.5 20t20.5 8q11 0 19 -8t8 -20q0 -11 -8 -19t-19 -8z
M9 589l-17 26q38 27 79 55t90.5 59t111.5 67l15 -27q-61 -36 -110 -67.5t-90 -58.5t-79 -54zM0 -5l5 34h77q51 0 83 9.5t49 26t22.5 38t5.5 44.5q0 42 -23 89t-68 99q-38 45 -62 72.5t-38 42.5t-19.5 22t-5.5 11q0 9 2 16.5t5.5 14t8.5 10.5q25 20 53.5 41.5t63 44.5
t76.5 48.5t94 54.5l16 -29q-50 -28 -93.5 -54.5t-80.5 -51.5t-68 -47.5t-55 -44.5l2 15q39 -46 79 -90t73 -87.5t53 -87.5t20 -91q0 -32 -9.5 -59t-32 -47.5t-60.5 -32t-95 -11.5h-78z" />
    <glyph glyph-name="uni06B4.medi" unicode="&#x6b4;" horiz-adv-x="411" 
d="M62 865q-12 0 -20 8.5t-8 19.5t8 19t20 8q11 0 19 -8t8 -19t-8 -19.5t-19 -8.5zM52 739q-12 0 -20 8.5t-8 19.5q0 12 8 20t20 8q11 0 19 -8t8 -20q0 -11 -8 -19.5t-19 -8.5zM162 791q-12 0 -20 8.5t-8 19.5t8 19t20 8q11 0 19 -8t8 -19t-8 -19.5t-19 -8.5zM8 589l-18 26
q39 27 80 55t90.5 59t110.5 67l16 -27q-61 -36 -110.5 -67.5t-90 -58.5t-78.5 -54zM0 -5l5 34h78q57 0 92 12t51.5 38t16.5 67q0 31 -15.5 65.5t-40.5 70t-52 69t-52 61t-40.5 46.5t-15.5 26q0 9 2 16.5t6 14t8 10.5q24 20 55 43t68 47t78 48.5t85 49.5l16 -30
q-44 -24 -87 -50.5t-81.5 -52t-71 -49t-55.5 -44.5l2 12q28 -35 60.5 -71t63.5 -75.5t57.5 -82.5t42.5 -92q15 -47 35 -80.5t46 -51t59 -17.5q9 0 14.5 -4t5.5 -13q0 -7 -6.5 -12t-18.5 -5q-33 0 -63.5 17.5t-54 52t-37.5 84.5l18 -12q-2 -43 -18 -70.5t-43 -43t-61 -22
t-72 -6.5h-80z" />
    <glyph glyph-name="uni06B4.fina" unicode="&#x6b4;" horiz-adv-x="836" 
d="M478 866q-12 0 -20 8.5t-8 19.5t8 19t20 8q11 0 19 -8t8 -19t-8 -19.5t-19 -8.5zM468 740q-12 0 -20 8.5t-8 19.5t8 19t20 8q11 0 19 -8t8 -19t-8 -19.5t-19 -8.5zM578 792q-12 0 -20 8.5t-8 19.5t8 19t20 8q11 0 19 -8t8 -19t-8 -19.5t-19 -8.5zM431 590l-17 25
q38 28 79 55.5t90.5 58.5t111.5 67l15 -26q-61 -37 -110 -68t-90 -58.5t-79 -53.5zM325 -21l15 34q72 0 132.5 7t105 22t69 40t24.5 62q0 32 -16 67.5t-41.5 71t-53.5 68.5t-53 60.5t-41 46.5t-16 26q0 9 1.5 16.5t5.5 14t9 10.5q31 25 75 56t97.5 65t112.5 67l17 -30
q-59 -32 -116 -68.5t-104 -70t-76 -58.5l2 13q28 -33 62 -70t66.5 -78t59.5 -84.5t42 -89.5q9 -24 20.5 -49.5t28 -48t39 -36.5t53.5 -14q9 0 14 -4t5 -13q0 -7 -6 -12t-18 -5q-35 0 -64.5 17.5t-53 52t-38.5 84.5l18 -12q-3 -45 -30 -75.5t-75.5 -48.5t-117 -26t-154.5 -8z
M325 -21q-65 0 -117.5 11.5t-90 34.5t-57.5 58.5t-20 84.5q0 23 4 49t10 51t12 47l32 -9q-6 -17 -11 -39.5t-8.5 -46.5t-3.5 -47q0 -55 29.5 -90.5t88.5 -52.5t147 -17l20 -20z" />
    <glyph glyph-name="uni06B5.init" unicode="&#x6b5;" horiz-adv-x="190" 
d="M0 -5l5 34q47 0 68.5 14.5t27 48t3.5 89.5l-19 530h34l20 -526q2 -51 -2.5 -87t-19.5 -58.5t-43 -33.5t-74 -11zM87 841q-6 15 -15.5 40t-19.5 53t-20 53t-17 41l24 11q5 -10 14.5 -33t20 -51.5t19.5 -54t15 -39.5l9 -18zM117 843l-23 8q5 17 14.5 46t19.5 59.5t18 54.5
t11 32l25 -9q-4 -10 -12.5 -34.5t-18.5 -55t-19 -58t-15 -43.5z" />
    <glyph glyph-name="uni06B5.medi" unicode="&#x6b5;" horiz-adv-x="236" 
d="M0 -5l5 34q47 0 68.5 20t27 59.5t3.5 96.5l-17 506h35l17 -504q3 -71 14 -110t32.5 -53.5t55.5 -14.5q9 0 14 -4t5 -13q0 -7 -6 -12t-18 -5q-33 0 -57 14.5t-38 40t-20 53.5h13q-7 -33 -22.5 -57t-42 -37.5t-69.5 -13.5zM89 841q-6 15 -15.5 40t-19.5 53t-20 53t-17 41
l24 11q5 -10 14.5 -33t20 -51.5t19.5 -54t15 -39.5l9 -18zM119 843l-23 8q5 17 14.5 46t19.5 59.5t18 54.5t11 32l25 -9q-4 -10 -12.5 -34.5t-18.5 -55t-19 -58t-15 -43.5z" />
    <glyph glyph-name="uni06B5.fina" unicode="&#x6b5;" horiz-adv-x="621" 
d="M43 -25q0 21 4 48.5t14.5 63t30.5 79.5l31 -15q-14 -31 -24 -61.5t-15.5 -59t-5.5 -55.5q0 -54 22.5 -92t63 -58.5t93.5 -20.5q78 0 124 38.5t66 118t15 201.5l-17 549h35l17 -531q2 -43 20 -77.5t47 -54t62 -19.5q9 0 14 -4t5 -13q0 -7 -6 -12t-18 -5q-24 0 -46.5 9
t-40.5 24.5t-29 35.5t-13 41l4 -11q-1 -66 -13 -124.5t-39 -103.5t-73 -70.5t-115 -25.5q-48 0 -87.5 13.5t-67.5 40t-43 64.5t-15 87zM239 587q-6 15 -15.5 40t-19.5 53t-20 53t-17 41l24 11q5 -10 14.5 -33t20 -51.5t19.5 -54t15 -39.5l9 -18zM269 589l-23 8q5 17 14.5 46
t19.5 59.5t18 54.5t11 32l25 -9q-4 -10 -12.5 -34.5t-18.5 -55t-19 -58t-15 -43.5z" />
    <glyph glyph-name="uni06B6.init" unicode="&#x6b6;" horiz-adv-x="190" 
d="M0 -5l5 34q47 0 68.5 14.5t27 48t3.5 89.5l-19 530h34l20 -526q2 -51 -2.5 -87t-19.5 -58.5t-43 -33.5t-74 -11zM101 840q-13 0 -22.5 9t-9.5 21q0 13 9.5 22t22.5 9q12 0 21 -9t9 -22t-9 -21.5t-21 -8.5z" />
    <glyph glyph-name="uni06B6.medi" unicode="&#x6b6;" horiz-adv-x="236" 
d="M0 -5l5 34q47 0 68.5 20t27 59.5t3.5 96.5l-17 506h35l17 -504q3 -71 14 -110t32.5 -53.5t55.5 -14.5q9 0 14 -4t5 -13q0 -7 -6 -12t-18 -5q-33 0 -57 14.5t-38 40t-20 53.5h13q-7 -33 -22.5 -57t-42 -37.5t-69.5 -13.5zM103 840q-13 0 -22.5 9t-9.5 21q0 13 9.5 22
t22.5 9q12 0 21 -9t9 -22t-9 -21.5t-21 -8.5z" />
    <glyph glyph-name="uni06B6.fina" unicode="&#x6b6;" horiz-adv-x="621" 
d="M43 -25q0 21 4 48.5t14.5 63t30.5 79.5l31 -15q-14 -31 -24 -61.5t-15.5 -59t-5.5 -55.5q0 -54 22.5 -92t63 -58.5t93.5 -20.5q78 0 124 38.5t66 118t15 201.5l-17 549h35l17 -531q2 -43 20 -77.5t47 -54t62 -19.5q9 0 14 -4t5 -13q0 -7 -6 -12t-18 -5q-24 0 -46.5 9
t-40.5 24.5t-29 35.5t-13 41l4 -11q-1 -66 -13 -124.5t-39 -103.5t-73 -70.5t-115 -25.5q-48 0 -87.5 13.5t-67.5 40t-43 64.5t-15 87zM253 586q-13 0 -22.5 9t-9.5 21q0 13 9.5 22t22.5 9q12 0 21 -9t9 -22t-9 -21.5t-21 -8.5z" />
    <glyph glyph-name="uni06B7.init" unicode="&#x6b7;" horiz-adv-x="190" 
d="M0 -5l5 34q47 0 68.5 14.5t27 48t3.5 89.5l-19 530h34l20 -526q2 -51 -2.5 -87t-19.5 -58.5t-43 -33.5t-74 -11zM102 928q-12 0 -21 9t-9 22t9 22t21 9q13 0 22 -9t9 -22t-9 -22t-22 -9zM50 840q-12 0 -21 9t-9 22q0 12 9 21t21 9q13 0 22 -9t9 -21q0 -13 -9 -22t-22 -9z
M155 840q-12 0 -21.5 9t-9.5 22q0 12 9.5 21t21.5 9q13 0 22 -9t9 -21q0 -13 -9 -22t-22 -9z" />
    <glyph glyph-name="uni06B7.medi" unicode="&#x6b7;" horiz-adv-x="236" 
d="M0 -5l5 34q47 0 68.5 20t27 59.5t3.5 96.5l-17 506h35l17 -504q3 -71 14 -110t32.5 -53.5t55.5 -14.5q9 0 14 -4t5 -13q0 -7 -6 -12t-18 -5q-33 0 -57 14.5t-38 40t-20 53.5h13q-7 -33 -22.5 -57t-42 -37.5t-69.5 -13.5zM104 928q-12 0 -21 9t-9 22t9 22t21 9q13 0 22 -9
t9 -22t-9 -22t-22 -9zM52 840q-12 0 -21 9t-9 22q0 12 9 21t21 9q13 0 22 -9t9 -21q0 -13 -9 -22t-22 -9zM157 840q-12 0 -21.5 9t-9.5 22q0 12 9.5 21t21.5 9q13 0 22 -9t9 -21q0 -13 -9 -22t-22 -9z" />
    <glyph glyph-name="uni06B7.fina" unicode="&#x6b7;" horiz-adv-x="621" 
d="M43 -25q0 21 4 48.5t14.5 63t30.5 79.5l31 -15q-14 -31 -24 -61.5t-15.5 -59t-5.5 -55.5q0 -54 22.5 -92t63 -58.5t93.5 -20.5q78 0 124 38.5t66 118t15 201.5l-17 549h35l17 -531q2 -43 20 -77.5t47 -54t62 -19.5q9 0 14 -4t5 -13q0 -7 -6 -12t-18 -5q-24 0 -46.5 9
t-40.5 24.5t-29 35.5t-13 41l4 -11q-1 -66 -13 -124.5t-39 -103.5t-73 -70.5t-115 -25.5q-48 0 -87.5 13.5t-67.5 40t-43 64.5t-15 87zM253 674q-12 0 -21 9t-9 22t9 22t21 9q13 0 22 -9t9 -22t-9 -22t-22 -9zM201 586q-12 0 -21 9t-9 22q0 12 9 21t21 9q13 0 22 -9t9 -21
q0 -13 -9 -22t-22 -9zM306 586q-12 0 -21.5 9t-9.5 22q0 12 9.5 21t21.5 9q13 0 22 -9t9 -21q0 -13 -9 -22t-22 -9z" />
    <glyph glyph-name="uni06B8.init" unicode="&#x6b8;" horiz-adv-x="190" 
d="M0 -5l5 34q47 0 68.5 14.5t27 48t3.5 89.5l-19 530h34l20 -526q2 -51 -2.5 -87t-19.5 -58.5t-43 -33.5t-74 -11zM88 -259q-13 0 -22.5 9t-9.5 21q0 13 9.5 22t22.5 9t21.5 -9t8.5 -22q0 -12 -9 -21t-21 -9zM35 -171q-13 0 -22 9t-9 22q0 12 9 21.5t22 9.5t21.5 -9.5
t8.5 -21.5q0 -13 -8.5 -22t-21.5 -9zM140 -171q-13 0 -22.5 9t-9.5 22q0 12 9.5 21.5t22.5 9.5q12 0 21 -9.5t9 -21.5q0 -13 -9 -22t-21 -9z" />
    <glyph glyph-name="uni06B8.medi" unicode="&#x6b8;" horiz-adv-x="236" 
d="M0 -5l5 34q47 0 68.5 20t27 59.5t3.5 96.5l-17 506h35l17 -504q3 -71 14 -110t32.5 -53.5t55.5 -14.5q9 0 14 -4t5 -13q0 -7 -6 -12t-18 -5q-33 0 -57 14.5t-38 40t-20 53.5h13q-7 -33 -22.5 -57t-42 -37.5t-69.5 -13.5zM109 -259q-13 0 -22.5 9t-9.5 21q0 13 9.5 22
t22.5 9t21.5 -9t8.5 -22q0 -12 -9 -21t-21 -9zM56 -171q-13 0 -22 9t-9 22q0 12 9 21.5t22 9.5t21.5 -9.5t8.5 -21.5q0 -13 -8.5 -22t-21.5 -9zM161 -171q-13 0 -22.5 9t-9.5 22q0 12 9.5 21.5t22.5 9.5q12 0 21 -9.5t9 -21.5q0 -13 -9 -22t-21 -9z" />
    <glyph glyph-name="uni06B8.fina" unicode="&#x6b8;" horiz-adv-x="621" 
d="M43 -25q0 21 4 48.5t14.5 63t30.5 79.5l31 -15q-14 -31 -24 -61.5t-15.5 -59t-5.5 -55.5q0 -54 22.5 -92t63 -58.5t93.5 -20.5q78 0 124 38.5t66 118t15 201.5l-17 549h35l17 -531q2 -43 20 -77.5t47 -54t62 -19.5q9 0 14 -4t5 -13q0 -7 -6 -12t-18 -5q-24 0 -46.5 9
t-40.5 24.5t-29 35.5t-13 41l4 -11q-1 -66 -13 -124.5t-39 -103.5t-73 -70.5t-115 -25.5q-48 0 -87.5 13.5t-67.5 40t-43 64.5t-15 87zM258 -489q-13 0 -22.5 9t-9.5 21q0 13 9.5 22t22.5 9t21.5 -9t8.5 -22q0 -12 -9 -21t-21 -9zM205 -401q-13 0 -22 9t-9 22q0 12 9 21.5
t22 9.5t21.5 -9.5t8.5 -21.5q0 -13 -8.5 -22t-21.5 -9zM310 -401q-13 0 -22.5 9t-9.5 22q0 12 9.5 21.5t22.5 9.5q12 0 21 -9.5t9 -21.5q0 -13 -9 -22t-21 -9z" />
    <glyph glyph-name="uni06B9.init" unicode="&#x6b9;" horiz-adv-x="224" 
d="M0 -5l5 34q47 0 71.5 12.5t34 36.5t9.5 58q0 33 -6 67t-17.5 72.5t-28.5 82.5l34 13q15 -41 26.5 -80.5t18 -77t6.5 -73.5q0 -26 -5 -49t-15.5 -40.5t-28.5 -30t-43.5 -19t-60.5 -6.5zM92 505q-13 0 -22.5 9t-9.5 21q0 13 9.5 22t22.5 9q12 0 21 -9t9 -22t-9 -21.5
t-21 -8.5zM73 -175q-13 0 -22.5 9t-9.5 21q0 13 9.5 22t22.5 9q12 0 21 -9t9 -22q0 -12 -9 -21t-21 -9z" />
    <glyph glyph-name="uni06B9.medi" unicode="&#x6b9;" horiz-adv-x="264" 
d="M0 -5l5 34q25 0 44.5 7t36 30.5t31 71.5t29.5 130l34 -7q-7 -33 -12 -56t-8 -42.5t-3 -40.5q0 -28 8.5 -49t32.5 -32.5t71 -11.5q12 0 16 -5t4 -12t-6 -12t-19 -5q-49 0 -78 12.5t-41.5 38.5t-12.5 65h8q-12 -39 -26.5 -62.5t-32 -35t-38 -15t-43.5 -3.5zM146 415
q-13 0 -22.5 9t-9.5 21q0 13 9.5 22t22.5 9q12 0 21 -9t9 -22t-9 -21.5t-21 -8.5zM126 -175q-13 0 -22.5 9t-9.5 21q0 13 9.5 22t22.5 9q12 0 21 -9t9 -22q0 -12 -9 -21t-21 -9z" />
    <glyph glyph-name="uni06B9.fina" unicode="&#x6b9;" horiz-adv-x="614" 
d="M43 -22q0 33 10 77.5t39 111.5l31 -15q-22 -48 -33 -90.5t-11 -81.5q0 -57 22 -96t65 -59t104 -20q56 0 94.5 20.5t63 53.5t35.5 73t11 79q0 40 -7 78.5t-17.5 76t-21.5 73.5l34 9q4 -13 8.5 -31t11 -40.5t14.5 -51.5q17 -55 37 -80t42 -30.5t44 -5.5q9 0 14 -4t5 -13
q0 -7 -6 -12t-18 -5q-24 0 -47.5 7t-42.5 26t-30 55l9 1q8 -63 -3 -119.5t-41 -100.5t-78 -69t-113 -25q-52 0 -94 13.5t-71 40.5t-44.5 65.5t-15.5 88.5zM275 424q-13 0 -22.5 9t-9.5 21q0 13 9.5 22t22.5 9q12 0 21 -9t9 -22t-9 -21.5t-21 -8.5zM267 -400q-13 0 -22.5 9
t-9.5 21q0 13 9.5 22t22.5 9q12 0 21 -9t9 -22q0 -12 -9 -21t-21 -9z" />
    </font>
</defs>
</svg>
